<?xml version="1.0" standalone="no"?>
<!DOCTYPE svg PUBLIC "-//W3C//DTD SVG 20010904//EN"
 "http://www.w3.org/TR/2001/REC-SVG-20010904/DTD/svg10.dtd">
<svg version="1.0" xmlns="http://www.w3.org/2000/svg"
 width="700.000000pt" height="700.000000pt" viewBox="0 0 700.000000 700.000000"
 preserveAspectRatio="xMidYMid meet">
<metadata>
Created by potrace 1.14, written by Peter Selinger 2001-2017
</metadata>
<g transform="translate(0.000000,700.000000) scale(0.100000,-0.100000)"
fill="#000000" stroke="none">
<path d="M3325 6419 c-152 -22 -305 -76 -450 -160 -98 -56 -405 -303 -467
-376 -87 -102 -151 -255 -173 -416 -5 -40 -9 -47 -23 -42 -40 16 -218 17 -298
2 -91 -17 -210 -62 -276 -103 -68 -43 -406 -303 -469 -362 -159 -147 -277
-358 -342 -612 -22 -85 -22 -86 -22 -1250 l0 -1165 27 -97 c73 -265 241 -497
466 -645 108 -71 205 -114 341 -151 l96 -26 585 -4 c412 -2 607 0 659 8 227
36 429 169 548 362 l37 60 70 -75 c120 -127 250 -216 412 -280 178 -71 193
-72 729 -72 l480 1 100 27 c184 50 367 153 498 280 138 135 251 329 304 522
l28 100 0 1145 c0 1081 -1 1150 -19 1230 -52 237 -155 436 -312 600 -48 50
-184 162 -363 299 -881 673 -1324 1005 -1388 1042 -244 139 -520 195 -778 158z
m355 -489 c41 -12 108 -39 150 -61 44 -23 278 -193 570 -415 1199 -910 1156
-874 1235 -1039 85 -178 80 -89 80 -1320 l0 -1090 -28 -80 c-72 -204 -208
-340 -412 -412 l-80 -28 -430 0 -430 0 -80 27 c-196 67 -341 211 -413 410 -26
72 -26 78 -32 403 -5 325 -5 330 -28 363 -49 68 -37 66 -552 72 -460 5 -465 5
-512 28 -57 28 -122 98 -151 160 -34 73 -31 189 6 264 35 71 101 131 175 158
54 20 68 21 626 18 559 -3 572 -4 629 -25 158 -60 291 -168 360 -293 75 -137
80 -168 85 -520 4 -356 6 -366 83 -409 37 -21 49 -22 243 -19 227 3 234 5 284
78 l23 34 -3 906 -3 907 -35 68 -35 69 -685 518 c-377 285 -701 526 -720 535
-46 22 -138 28 -186 13 -22 -7 -74 -37 -118 -67 -125 -88 -176 -107 -276 -108
-98 0 -152 19 -217 79 -111 100 -128 303 -34 422 11 14 84 77 163 140 184 148
310 211 473 238 57 9 200 -4 275 -24z m-1546 -975 c155 -41 245 -171 234 -340
-8 -118 -35 -156 -213 -295 -174 -137 -187 -149 -215 -213 -37 -82 -41 -204
-38 -1057 l3 -815 23 -38 c46 -73 33 -71 547 -77 l460 -5 57 -28 c204 -100
244 -371 76 -522 -91 -81 -78 -80 -708 -80 -553 0 -555 0 -630 23 -172 54
-312 169 -388 320 -76 153 -73 94 -70 1307 l3 1080 23 75 c32 101 92 213 152
282 41 46 351 294 440 351 29 18 122 45 160 46 14 1 52 -6 84 -14z"/>
</g>
</svg>
