<?xml version="1.0" standalone="no"?>
<!DOCTYPE svg PUBLIC "-//W3C//DTD SVG 20010904//EN"
 "http://www.w3.org/TR/2001/REC-SVG-20010904/DTD/svg10.dtd">
<svg version="1.0" xmlns="http://www.w3.org/2000/svg"
 width="700.000000pt" height="700.000000pt" viewBox="0 0 700.000000 700.000000"
 preserveAspectRatio="xMidYMid meet">
<metadata>
Created by potrace 1.14, written by Peter Selinger 2001-2017
</metadata>
<g transform="translate(0.000000,700.000000) scale(0.100000,-0.100000)"
fill="#000000" stroke="none">
<path d="M3327 6919 c-199 -24 -443 -111 -622 -219 -115 -70 -462 -347 -538
-430 -135 -146 -225 -344 -245 -541 -6 -66 -9 -74 -27 -72 -11 2 -62 7 -112
13 -182 21 -376 -17 -555 -109 -133 -68 -556 -390 -688 -522 -241 -242 -391
-568 -430 -936 -7 -65 -10 -555 -8 -1458 l4 -1360 23 -100 c63 -280 184 -500
385 -701 234 -233 521 -371 846 -405 69 -7 346 -9 800 -7 l695 4 96 26 c177
48 352 151 471 274 52 55 153 194 163 223 5 16 27 -1 128 -102 67 -67 157
-146 199 -175 142 -97 326 -178 489 -216 143 -33 257 -38 779 -33 570 4 594 7
797 78 486 172 838 597 919 1109 13 82 14 291 12 1500 l-4 1405 -22 98 c-80
348 -245 636 -482 842 -128 112 -1998 1534 -2086 1587 -166 100 -379 183 -549
213 -111 20 -333 27 -438 14z m398 -618 c44 -12 126 -43 181 -70 109 -53 113
-56 959 -700 885 -673 1101 -839 1154 -887 112 -101 217 -275 260 -433 40
-146 42 -233 39 -1571 l-3 -1285 -23 -80 c-79 -281 -286 -493 -562 -576 -73
-22 -90 -23 -575 -27 -334 -2 -522 0 -565 8 -266 45 -486 208 -599 443 -73
151 -73 156 -80 607 -7 442 -5 433 -68 492 -62 59 -53 58 -647 58 -506 0 -548
1 -605 19 -197 61 -317 253 -282 447 24 133 111 246 231 303 l55 26 708 3
c682 2 711 2 794 -18 229 -54 425 -212 528 -425 77 -159 77 -160 84 -615 7
-453 5 -439 81 -501 52 -42 122 -51 365 -47 201 3 212 4 252 27 24 14 55 42
70 64 l28 40 0 1141 c0 1057 -1 1145 -17 1197 -38 120 -20 105 -939 802 -470
357 -876 660 -904 674 -66 34 -171 43 -242 19 -27 -9 -100 -52 -162 -96 -153
-107 -197 -124 -336 -124 -99 -1 -116 2 -167 26 -196 91 -283 337 -189 531 16
34 38 72 48 84 10 12 102 88 204 170 239 190 356 252 544 289 96 19 277 11
380 -15z m-1890 -1252 c161 -60 264 -225 253 -408 -5 -83 -36 -167 -84 -224
-15 -18 -111 -97 -213 -177 -197 -154 -234 -195 -267 -293 -17 -48 -18 -128
-21 -1177 -3 -1012 -2 -1129 12 -1167 17 -44 68 -96 114 -116 18 -8 196 -13
606 -17 l580 -5 64 -33 c199 -104 277 -328 186 -531 -36 -80 -130 -169 -212
-203 l-58 -23 -670 -3 c-711 -3 -755 -1 -887 44 -248 84 -445 296 -515 554
-17 61 -18 154 -18 1450 l0 1385 22 84 c44 163 114 296 216 408 57 62 489 398
557 433 103 53 225 60 335 19z"/>
</g>
</svg>
