<svg width="342" height="374" viewBox="0 0 342 374" fill="none" xmlns="http://www.w3.org/2000/svg">
<rect x="22.2578" y="112.68" width="319" height="216" rx="18.1689" fill="white"/>
<path d="M38.2578 282.68H113.258V304.823C113.258 309.715 109.293 313.68 104.402 313.68H47.1141C42.2229 313.68 38.2578 309.715 38.2578 304.823V282.68Z" fill="#FFE7C6"/>
<path d="M258.258 282.68H323.258V304.823C323.258 309.715 319.293 313.68 314.402 313.68H267.114C262.223 313.68 258.258 309.715 258.258 304.823V282.68Z" fill="#FFE7C6"/>
<path d="M275.688 294.458V290.68L269.488 297.292L275.688 303.905V300.032C280.116 300.032 283.215 301.543 285.43 304.85C284.544 300.126 281.887 295.403 275.688 294.458Z" fill="#B59568"/>
<path d="M308.813 291.117C307.396 291.117 306.084 291.85 305.258 292.937C304.431 291.85 303.119 291.117 301.702 291.117C299.252 291.117 297.258 293.08 297.258 295.492C297.258 300.297 304.479 304.795 304.788 304.984C304.932 305.073 305.095 305.117 305.258 305.117C305.42 305.117 305.584 305.073 305.728 304.984C306.036 304.795 313.258 300.297 313.258 295.492C313.258 293.08 311.264 291.117 308.813 291.117Z" fill="#B59568"/>
<path d="M22.1055 60.8485C22.1055 50.8142 30.24 42.6797 40.2743 42.6797L125.09 42.6797C135.124 42.6797 143.259 50.8142 143.259 60.8486V70.5634C143.259 80.5978 135.124 88.7323 125.09 88.7323H40.2743C30.24 88.7323 22.1055 80.5978 22.1055 70.5634V60.8485Z" fill="white"/>
<rect x="38.2578" y="147.68" width="285" height="31" rx="8.85626" fill="#FFE7C6"/>
<path fill-rule="evenodd" clip-rule="evenodd" d="M59.2578 295.68C59.2578 297.333 57.9123 298.68 56.2578 298.68C54.604 298.68 53.2578 297.333 53.2578 295.68C53.2578 294.026 54.6033 292.68 56.2578 292.68C57.9123 292.68 59.2578 294.026 59.2578 295.68ZM50.2578 303.93C50.2578 301.28 52.7253 299.43 56.2578 299.43C59.791 299.43 62.2578 301.28 62.2578 303.93V304.68H50.2578V303.93Z" fill="#B59568"/>
<path d="M63.7578 304.68H65.2578V303.93C65.2578 302.008 63.96 300.506 61.8987 299.827C63.0543 300.86 63.7578 302.28 63.7578 303.93V304.68Z" fill="#B59568"/>
<path d="M59.9203 298.606C61.257 298.303 62.2578 297.106 62.2578 295.68C62.2578 294.152 61.1097 292.887 59.6306 292.703C60.3319 293.496 60.7578 294.539 60.7578 295.68C60.7578 296.762 60.3744 297.756 59.7361 298.533C59.798 298.556 59.8594 298.581 59.9203 298.606Z" fill="#B59568"/>
<path d="M80.3381 301.345V303.68H72.4585V301.929L76.2037 298.41C76.9171 297.746 77.6629 297.097 77.6629 296.108C77.6629 295.33 77.1117 294.811 76.3172 294.811C75.4255 294.811 74.858 295.346 74.7608 296.562L72.2801 296.092C72.3936 293.903 73.9987 292.574 76.301 292.574C78.6033 292.574 80.2246 293.935 80.2246 296.092C80.2246 297.6 79.3978 298.54 77.9386 299.918L76.3821 301.345H80.3381ZM86.1902 292.574C89.06 292.574 90.9894 294.86 90.9894 298.248C90.9894 301.637 89.06 303.923 86.1902 303.923C83.3205 303.923 81.4073 301.637 81.4073 298.248C81.4073 294.86 83.3205 292.574 86.1902 292.574ZM86.1902 301.572C87.4711 301.572 88.298 300.291 88.298 298.248C88.298 296.222 87.4711 294.925 86.1902 294.925C84.9094 294.925 84.0987 296.222 84.0987 298.248C84.0987 300.291 84.9094 301.572 86.1902 301.572ZM96.2759 292.574C99.0484 292.574 100.881 294.552 100.881 298.054C100.881 299.983 100.443 301.556 99.3727 302.642C98.5944 303.436 97.5406 303.923 96.2435 303.923C94.3141 303.923 92.8549 302.983 92.4009 301.264L94.914 300.778C95.1248 301.475 95.6112 301.702 96.3408 301.702C96.8758 301.702 97.3298 301.458 97.6703 301.086C98.1729 300.534 98.3837 299.772 98.3999 298.881C97.8 299.497 96.892 299.87 95.9517 299.87C93.6332 299.87 92.174 298.394 92.174 296.27C92.174 294.114 93.8764 292.574 96.2759 292.574ZM96.3408 297.924C97.1677 297.924 97.9297 297.275 97.9297 296.319C97.9297 295.411 97.1677 294.762 96.3408 294.762C95.4977 294.762 94.7032 295.427 94.7032 296.351C94.7032 297.275 95.4977 297.924 96.3408 297.924Z" fill="#B59568"/>
<path d="M38.2578 199.536C38.2578 194.645 42.2229 190.68 47.1141 190.68H314.402C319.293 190.68 323.258 194.645 323.258 199.536V282.68H38.2578V199.536Z" fill="#FFE7C6"/>
<path d="M92.9415 158.407V169.088H90.3909V163.397L87.394 169.088H86.1824L83.1695 163.365V169.088H80.6189V158.407H83.2014L86.7882 165.182L90.375 158.407H92.9415ZM103.202 161.085V169.088H100.652V168.45C100.03 169.008 99.2012 169.327 98.165 169.327C96.0449 169.327 94.2594 167.621 94.2594 165.087C94.2594 162.568 96.0449 160.846 98.165 160.846C99.2012 160.846 100.03 161.165 100.652 161.723V161.085H103.202ZM98.6911 167.159C99.7273 167.159 100.652 166.33 100.652 165.087C100.652 163.859 99.7273 163.014 98.6911 163.014C97.5752 163.014 96.7622 163.859 96.7622 165.087C96.7622 166.33 97.5752 167.159 98.6911 167.159ZM113.637 161.069L109.014 171.798H106.256L107.547 168.817L104.232 161.069H106.973L108.87 165.74L110.895 161.069H113.637Z" fill="#B59568"/>
<path d="M66.8545 219.131H62.901V228.68H61.6257V219.131H57.6563V217.999H66.8545V219.131ZM74.4283 224.551V224.997H67.6851C67.7967 226.767 69.1358 227.819 70.4908 227.819C71.6067 227.819 72.611 227.388 73.1689 226.129L74.253 226.384C73.6312 228.026 72.2603 228.887 70.4908 228.887C68.4025 228.887 66.5055 227.277 66.5055 224.774C66.5055 222.255 68.4025 220.629 70.5705 220.629C72.6907 220.629 74.3486 222.208 74.4283 224.551ZM70.5705 221.697C69.2952 221.697 67.9721 222.542 67.733 224.089H73.2008C72.9777 222.542 71.8777 221.697 70.5705 221.697ZM77.7283 228.68H76.5167V217.202H77.7283V228.68ZM81.7447 228.68H80.5332V217.202H81.7447V228.68ZM95.7237 220.821V228.664H94.4963V227.388C93.8586 228.329 92.8384 228.871 91.5312 228.871C89.6342 228.871 88.3748 227.516 88.3748 225.523V220.821H89.6023V225.3C89.6023 226.767 90.4631 227.739 91.7703 227.739C93.4122 227.739 94.4963 226.639 94.4963 224.599V220.821H95.7237ZM97.7198 226.559L98.9313 226.288C99.0429 227.325 99.9994 227.883 101.243 227.883C102.375 227.883 103.124 227.357 103.124 226.544C103.124 225.89 102.63 225.587 101.833 225.412L100.031 225.013C98.7241 224.742 97.9908 224.089 97.9908 223.005C97.9908 221.586 99.1704 220.629 100.972 220.629C102.741 220.629 103.889 221.538 104.176 222.813L103.012 223.068C102.853 222.208 102.104 221.618 100.94 221.618C99.824 221.618 99.2023 222.16 99.2023 222.909C99.2023 223.531 99.6327 223.818 100.398 223.993L102.295 224.407C103.443 224.662 104.319 225.268 104.319 226.464C104.319 228.01 103.028 228.887 101.147 228.887C99.3458 228.887 97.911 228.09 97.7198 226.559ZM117.93 220.821V228.68H116.719V227.436C116.017 228.361 114.901 228.887 113.594 228.887C111.506 228.887 109.673 227.245 109.673 224.758C109.673 222.271 111.506 220.629 113.594 220.629C114.901 220.629 116.017 221.155 116.719 222.08V220.821H117.93ZM113.786 227.803C115.268 227.803 116.719 226.623 116.719 224.758C116.719 222.877 115.268 221.697 113.786 221.697C112.16 221.697 110.852 222.877 110.852 224.758C110.852 226.623 112.16 227.803 113.786 227.803ZM125.065 220.629C127.153 220.629 128.986 222.271 128.986 224.758C128.986 227.245 127.153 228.887 125.065 228.887C123.758 228.887 122.642 228.361 121.94 227.436V228.68H120.729V217.202H121.94V222.08C122.642 221.155 123.758 220.629 125.065 220.629ZM124.874 227.803C126.5 227.803 127.807 226.623 127.807 224.758C127.807 222.877 126.5 221.697 124.874 221.697C123.391 221.697 121.94 222.877 121.94 224.758C121.94 226.623 123.391 227.803 124.874 227.803ZM134.541 220.645C136.852 220.645 138.701 222.335 138.701 224.742C138.701 227.149 136.852 228.871 134.541 228.871C132.197 228.871 130.364 227.149 130.364 224.742C130.364 222.335 132.197 220.645 134.541 220.645ZM134.541 227.803C136.151 227.803 137.506 226.559 137.506 224.742C137.506 222.941 136.151 221.713 134.541 221.713C132.915 221.713 131.544 222.941 131.544 224.742C131.544 226.559 132.915 227.803 134.541 227.803ZM147.938 220.821V228.664H146.71V227.388C146.072 228.329 145.052 228.871 143.745 228.871C141.848 228.871 140.589 227.516 140.589 225.523V220.821H141.816V225.3C141.816 226.767 142.677 227.739 143.984 227.739C145.626 227.739 146.71 226.639 146.71 224.599V220.821H147.938ZM155.048 227.261L155.446 228.265C154.809 228.712 154.267 228.887 153.629 228.887C152.067 228.887 151.031 227.962 151.031 226.225V221.841H149.325V220.821H151.031V218.318H152.258V220.821H155.064V221.841H152.258V226.145C152.258 227.165 152.832 227.739 153.709 227.739C154.155 227.739 154.649 227.548 155.048 227.261ZM171.587 220.821L168.941 228.712H167.809L165.752 222.75L163.68 228.712H162.548L159.902 220.821H161.13L163.154 226.91L165.258 220.821H166.231L168.335 226.91L170.36 220.821H171.587ZM177.446 220.629C179.343 220.629 180.603 221.984 180.603 223.977V228.68H179.391V224.2C179.391 222.734 178.514 221.745 177.207 221.745C175.565 221.745 174.481 222.861 174.481 224.902V228.68H173.27V217.202H174.481V222.128C175.119 221.171 176.123 220.629 177.446 220.629ZM190.693 220.821V228.68H189.482V227.436C188.781 228.361 187.665 228.887 186.357 228.887C184.269 228.887 182.436 227.245 182.436 224.758C182.436 222.271 184.269 220.629 186.357 220.629C187.665 220.629 188.781 221.155 189.482 222.08V220.821H190.693ZM186.549 227.803C188.031 227.803 189.482 226.623 189.482 224.758C189.482 222.877 188.031 221.697 186.549 221.697C184.923 221.697 183.616 222.877 183.616 224.758C183.616 226.623 184.923 227.803 186.549 227.803ZM197.812 227.261L198.211 228.265C197.573 228.712 197.031 228.887 196.393 228.887C194.831 228.887 193.795 227.962 193.795 226.225V221.841H192.089V220.821H193.795V218.318H195.022V220.821H197.828V221.841H195.022V226.145C195.022 227.165 195.596 227.739 196.473 227.739C196.919 227.739 197.414 227.548 197.812 227.261ZM207.959 220.629C209.856 220.629 211.115 221.984 211.115 223.977V228.68H209.904V224.2C209.904 222.734 209.027 221.745 207.72 221.745C206.078 221.745 204.994 222.861 204.994 224.902V228.68H203.782V217.202H204.994V222.128C205.631 221.171 206.636 220.629 207.959 220.629ZM221.206 220.821V228.68H219.995V227.436C219.293 228.361 218.177 228.887 216.87 228.887C214.782 228.887 212.948 227.245 212.948 224.758C212.948 222.271 214.782 220.629 216.87 220.629C218.177 220.629 219.293 221.155 219.995 222.08V220.821H221.206ZM217.061 227.803C218.544 227.803 219.995 226.623 219.995 224.758C219.995 222.877 218.544 221.697 217.061 221.697C215.435 221.697 214.128 222.877 214.128 224.758C214.128 226.623 215.435 227.803 217.061 227.803ZM228.341 220.629C230.429 220.629 232.262 222.271 232.262 224.758C232.262 227.245 230.429 228.887 228.341 228.887C227.033 228.887 225.918 228.361 225.216 227.436V231.39H224.005V220.821H225.216V222.08C225.918 221.155 227.033 220.629 228.341 220.629ZM228.149 227.803C229.775 227.803 231.083 226.623 231.083 224.758C231.083 222.877 229.775 221.697 228.149 221.697C226.667 221.697 225.216 222.877 225.216 224.758C225.216 226.623 226.667 227.803 228.149 227.803ZM238.693 220.629C240.781 220.629 242.615 222.271 242.615 224.758C242.615 227.245 240.781 228.887 238.693 228.887C237.386 228.887 236.27 228.361 235.569 227.436V231.39H234.357V220.821H235.569V222.08C236.27 221.155 237.386 220.629 238.693 220.629ZM238.502 227.803C240.128 227.803 241.435 226.623 241.435 224.758C241.435 222.877 240.128 221.697 238.502 221.697C237.019 221.697 235.569 222.877 235.569 224.758C235.569 226.623 237.019 227.803 238.502 227.803ZM251.915 224.551V224.997H245.172C245.284 226.767 246.623 227.819 247.978 227.819C249.093 227.819 250.098 227.388 250.656 226.129L251.74 226.384C251.118 228.026 249.747 228.887 247.978 228.887C245.889 228.887 243.992 227.277 243.992 224.774C243.992 222.255 245.889 220.629 248.057 220.629C250.177 220.629 251.835 222.208 251.915 224.551ZM248.057 221.697C246.782 221.697 245.459 222.542 245.22 224.089H250.688C250.464 222.542 249.364 221.697 248.057 221.697ZM258.18 220.629C260.077 220.629 261.336 221.984 261.336 223.977V228.68H260.125V224.2C260.125 222.734 259.248 221.745 257.941 221.745C256.299 221.745 255.215 222.861 255.215 224.902V228.68H254.004V220.821H255.215V222.128C255.853 221.171 256.857 220.629 258.18 220.629ZM271.157 224.551V224.997H264.414C264.525 226.767 265.864 227.819 267.219 227.819C268.335 227.819 269.339 227.388 269.897 226.129L270.981 226.384C270.36 228.026 268.989 228.887 267.219 228.887C265.131 228.887 263.234 227.277 263.234 224.774C263.234 222.255 265.131 220.629 267.299 220.629C269.419 220.629 271.077 222.208 271.157 224.551ZM267.299 221.697C266.024 221.697 264.7 222.542 264.461 224.089H269.929C269.706 222.542 268.606 221.697 267.299 221.697ZM280.785 217.202V228.68H279.574V227.436C278.872 228.361 277.756 228.887 276.449 228.887C274.361 228.887 272.528 227.245 272.528 224.758C272.528 222.271 274.361 220.629 276.449 220.629C277.756 220.629 278.872 221.155 279.574 222.08V217.202H280.785ZM276.641 227.803C278.123 227.803 279.574 226.623 279.574 224.758C279.574 222.877 278.123 221.697 276.641 221.697C275.015 221.697 273.707 222.877 273.707 224.758C273.707 226.623 275.015 227.803 276.641 227.803ZM288.347 217.632C288.826 217.632 289.192 218.015 289.192 218.445C289.192 218.908 288.826 219.258 288.347 219.258C287.869 219.258 287.518 218.908 287.518 218.445C287.518 218.015 287.869 217.632 288.347 217.632ZM288.969 228.68H287.742V220.821H288.969V228.68ZM296.072 220.629C297.969 220.629 299.228 221.984 299.228 223.977V228.68H298.017V224.2C298.017 222.734 297.14 221.745 295.833 221.745C294.191 221.745 293.107 222.861 293.107 224.902V228.68H291.895V220.821H293.107V222.128C293.744 221.171 294.749 220.629 296.072 220.629ZM65.9458 242.821L61.1315 253.39H59.7765L61.0678 250.568L57.5448 242.821H58.9157L61.7214 249.102L64.5908 242.821H65.9458ZM70.8534 242.645C73.1648 242.645 75.014 244.335 75.014 246.742C75.014 249.149 73.1648 250.871 70.8534 250.871C68.51 250.871 66.6767 249.149 66.6767 246.742C66.6767 244.335 68.51 242.645 70.8534 242.645ZM70.8534 249.803C72.4634 249.803 73.8184 248.559 73.8184 246.742C73.8184 244.941 72.4634 243.713 70.8534 243.713C69.2273 243.713 67.8564 244.941 67.8564 246.742C67.8564 248.559 69.2273 249.803 70.8534 249.803ZM84.2504 242.821V250.664H83.0229V249.388C82.3852 250.329 81.365 250.871 80.0578 250.871C78.1608 250.871 76.9014 249.516 76.9014 247.523V242.821H78.1289V247.3C78.1289 248.767 78.9898 249.739 80.2969 249.739C81.9389 249.739 83.0229 248.639 83.0229 246.599V242.821H84.2504ZM91.4243 242.741C91.6156 242.741 91.7591 242.741 91.9823 242.805L91.8866 243.968C91.7431 243.952 91.5678 243.952 91.4243 243.952C89.336 243.952 88.2679 245.531 88.2679 247.651V250.68H87.0405V242.821H88.2679V244.75C88.9056 243.586 89.9737 242.741 91.4243 242.741ZM101.006 249.755C102.17 249.755 103.222 249.165 103.604 247.986L104.72 248.288C104.29 249.899 102.744 250.887 101.006 250.887C98.7902 250.887 96.9091 249.261 96.9091 246.758C96.9091 244.287 98.7902 242.629 101.006 242.629C102.728 242.629 104.258 243.634 104.736 245.244L103.573 245.594C103.222 244.383 102.17 243.745 101.006 243.745C99.396 243.745 98.0888 244.957 98.0888 246.758C98.0888 248.591 99.396 249.755 101.006 249.755ZM110.271 242.645C112.582 242.645 114.431 244.335 114.431 246.742C114.431 249.149 112.582 250.871 110.271 250.871C107.927 250.871 106.094 249.149 106.094 246.742C106.094 244.335 107.927 242.645 110.271 242.645ZM110.271 249.803C111.881 249.803 113.236 248.559 113.236 246.742C113.236 244.941 111.881 243.713 110.271 243.713C108.645 243.713 107.274 244.941 107.274 246.742C107.274 248.559 108.645 249.803 110.271 249.803ZM126.043 242.629C127.701 242.629 128.976 243.809 128.976 245.594V250.68H127.765V245.802C127.765 244.558 126.92 243.745 125.74 243.745C124.289 243.745 123.333 244.813 123.333 246.662V250.68H122.121V245.802C122.121 244.558 121.276 243.745 120.113 243.745C118.662 243.745 117.722 244.813 117.722 246.662V250.68H116.51V242.821H117.722V244.016C118.28 243.155 119.172 242.629 120.4 242.629C121.611 242.629 122.616 243.219 123.078 244.223C123.684 243.251 124.704 242.629 126.043 242.629ZM141.128 242.629C142.786 242.629 144.061 243.809 144.061 245.594V250.68H142.85V245.802C142.85 244.558 142.005 243.745 140.825 243.745C139.374 243.745 138.418 244.813 138.418 246.662V250.68H137.206V245.802C137.206 244.558 136.362 243.745 135.198 243.745C133.747 243.745 132.807 244.813 132.807 246.662V250.68H131.595V242.821H132.807V244.016C133.365 243.155 134.257 242.629 135.485 242.629C136.696 242.629 137.701 243.219 138.163 244.223C138.769 243.251 139.789 242.629 141.128 242.629ZM153.807 242.821V250.664H152.579V249.388C151.942 250.329 150.921 250.871 149.614 250.871C147.717 250.871 146.458 249.516 146.458 247.523V242.821H147.685V247.3C147.685 248.767 148.546 249.739 149.853 249.739C151.495 249.739 152.579 248.639 152.579 246.599V242.821H153.807ZM160.773 242.629C162.67 242.629 163.93 243.984 163.93 245.977V250.68H162.718V246.2C162.718 244.734 161.841 243.745 160.534 243.745C158.892 243.745 157.808 244.861 157.808 246.902V250.68H156.597V242.821H157.808V244.128C158.446 243.171 159.45 242.629 160.773 242.629ZM167.278 239.632C167.756 239.632 168.123 240.015 168.123 240.445C168.123 240.908 167.756 241.258 167.278 241.258C166.8 241.258 166.449 240.908 166.449 240.445C166.449 240.015 166.8 239.632 167.278 239.632ZM167.899 250.68H166.672V242.821H167.899V250.68ZM175.146 249.261L175.544 250.265C174.907 250.712 174.365 250.887 173.727 250.887C172.165 250.887 171.128 249.962 171.128 248.225V243.841H169.423V242.821H171.128V240.318H172.356V242.821H175.162V243.841H172.356V248.145C172.356 249.165 172.93 249.739 173.807 249.739C174.253 249.739 174.747 249.548 175.146 249.261ZM184.384 242.821L179.57 253.39H178.215L179.506 250.568L175.983 242.821H177.354L180.16 249.102L183.029 242.821H184.384ZM194.418 249.261L194.817 250.265C194.179 250.712 193.637 250.887 193 250.887C191.437 250.887 190.401 249.962 190.401 248.225V243.841H188.695V242.821H190.401V240.318H191.629V242.821H194.434V243.841H191.629V248.145C191.629 249.165 192.203 249.739 193.079 249.739C193.526 249.739 194.02 249.548 194.418 249.261ZM200.549 242.629C202.446 242.629 203.705 243.984 203.705 245.977V250.68H202.494V246.2C202.494 244.734 201.617 243.745 200.31 243.745C198.668 243.745 197.584 244.861 197.584 246.902V250.68H196.372V239.202H197.584V244.128C198.221 243.171 199.226 242.629 200.549 242.629ZM207.069 239.632C207.547 239.632 207.914 240.015 207.914 240.445C207.914 240.908 207.547 241.258 207.069 241.258C206.59 241.258 206.24 240.908 206.24 240.445C206.24 240.015 206.59 239.632 207.069 239.632ZM207.69 250.68H206.463V242.821H207.69V250.68ZM209.947 248.559L211.158 248.288C211.27 249.325 212.227 249.883 213.47 249.883C214.602 249.883 215.351 249.357 215.351 248.544C215.351 247.89 214.857 247.587 214.06 247.412L212.258 247.013C210.951 246.742 210.218 246.089 210.218 245.005C210.218 243.586 211.398 242.629 213.199 242.629C214.968 242.629 216.116 243.538 216.403 244.813L215.239 245.068C215.08 244.208 214.331 243.618 213.167 243.618C212.051 243.618 211.429 244.16 211.429 244.909C211.429 245.531 211.86 245.818 212.625 245.993L214.522 246.407C215.67 246.662 216.547 247.268 216.547 248.464C216.547 250.01 215.255 250.887 213.374 250.887C211.573 250.887 210.138 250.09 209.947 248.559ZM232.23 242.629C233.888 242.629 235.163 243.809 235.163 245.594V250.68H233.951V245.802C233.951 244.558 233.107 243.745 231.927 243.745C230.476 243.745 229.52 244.813 229.52 246.662V250.68H228.308V245.802C228.308 244.558 227.463 243.745 226.3 243.745C224.849 243.745 223.908 244.813 223.908 246.662V250.68H222.697V242.821H223.908V244.016C224.466 243.155 225.359 242.629 226.587 242.629C227.798 242.629 228.802 243.219 229.265 244.223C229.871 243.251 230.891 242.629 232.23 242.629ZM241.241 242.645C243.553 242.645 245.402 244.335 245.402 246.742C245.402 249.149 243.553 250.871 241.241 250.871C238.898 250.871 237.065 249.149 237.065 246.742C237.065 244.335 238.898 242.645 241.241 242.645ZM241.241 249.803C242.851 249.803 244.206 248.559 244.206 246.742C244.206 244.941 242.851 243.713 241.241 243.713C239.615 243.713 238.244 244.941 238.244 246.742C238.244 248.559 239.615 249.803 241.241 249.803ZM251.657 242.629C253.554 242.629 254.814 243.984 254.814 245.977V250.68H253.602V246.2C253.602 244.734 252.725 243.745 251.418 243.745C249.776 243.745 248.692 244.861 248.692 246.902V250.68H247.481V242.821H248.692V244.128C249.33 243.171 250.334 242.629 251.657 242.629ZM261.748 249.261L262.147 250.265C261.509 250.712 260.967 250.887 260.33 250.887C258.767 250.887 257.731 249.962 257.731 248.225V243.841H256.026V242.821H257.731V240.318H258.959V242.821H261.764V243.841H258.959V248.145C258.959 249.165 259.533 249.739 260.409 249.739C260.856 249.739 261.35 249.548 261.748 249.261ZM267.879 242.629C269.776 242.629 271.035 243.984 271.035 245.977V250.68H269.824V246.2C269.824 244.734 268.947 243.745 267.64 243.745C265.998 243.745 264.914 244.861 264.914 246.902V250.68H263.702V239.202H264.914V244.128C265.551 243.171 266.556 242.629 267.879 242.629ZM275.084 239.999V240.493L275.036 247.507H273.793L273.761 240.493V239.999H275.084ZM274.415 249.117C274.893 249.117 275.244 249.5 275.244 249.93C275.244 250.377 274.893 250.728 274.415 250.728C273.936 250.728 273.586 250.377 273.586 249.93C273.586 249.5 273.936 249.117 274.415 249.117Z" fill="#B59568"/>
<circle cx="59.8906" cy="163.125" r="10.0371" fill="#FFBF65"/>
<path d="M50.3397 93.2091L49.6336 97.1396H45.7163L46.4224 93.2091L34.664 93.2086L32.5874 104.769H36.9162V108.622H31.9008L30.6533 115.534C30.5703 115.994 30.1638 116.329 29.6888 116.329H27.7603C27.1508 116.329 26.6893 115.788 26.7958 115.197L27.9825 108.622H21.3119C20.7033 108.622 20.2421 108.082 20.347 107.493L20.6898 105.566C20.7718 105.105 21.1789 104.769 21.6547 104.769H28.6682L30.7449 93.2086H24.0743C23.4657 93.2086 23.0044 92.6687 23.1093 92.0792L23.4522 90.1525C23.5342 89.6916 23.9412 89.3552 24.4171 89.3552H31.4306L32.6781 82.4434C32.7611 81.9835 33.1676 81.6484 33.6426 81.6484H35.5711C36.1805 81.6484 36.6421 82.19 36.5355 82.7802L35.3489 89.3552L47.1071 89.3557L48.3546 82.4439C48.4376 81.984 48.8441 81.6489 49.3191 81.6489H51.2476C51.857 81.6489 52.3186 82.1905 52.212 82.7806L51.0254 89.3557H57.696C58.3046 89.3557 58.7658 89.8956 58.661 90.4851L58.3181 92.4118C58.2361 92.8728 57.829 93.2091 57.3532 93.2091H50.3397Z" fill="white"/>
<path d="M42.5633 100.839C41.5246 100.839 40.6825 101.668 40.6825 102.689V114.83C40.6825 115.851 41.5246 116.679 42.5633 116.679H44.4441C44.7039 116.679 44.9143 116.886 44.9143 117.142V121.069C44.9143 121.47 45.3974 121.681 45.6997 121.412L50.4898 117.157C50.8354 116.849 51.2848 116.679 51.7507 116.679H60.4306C61.4694 116.679 62.3114 115.851 62.3114 114.83V102.689C62.3114 101.668 61.4694 100.839 60.4306 100.839H42.5633Z" fill="white"/>
<rect x="0.257812" y="65.707" width="165.414" height="63.7975" rx="18.1689" fill="#FFE7C6"/>
<path d="M46.0655 90.4606L45.46 93.8112H42.1007L42.7062 90.4606L32.6226 90.4602L30.8418 100.315H34.554V103.6H30.253L29.1832 109.492C29.112 109.884 28.7634 110.169 28.3561 110.169H26.7022C26.1796 110.169 25.7838 109.708 25.8751 109.205L26.8928 103.6H21.1723C20.6504 103.6 20.2549 103.139 20.3448 102.637L20.6388 100.994C20.7092 100.602 21.0582 100.315 21.4663 100.315H27.4809L29.2617 90.4602H23.5412C23.0194 90.4602 22.6238 89.9999 22.7137 89.4974L23.0078 87.8549C23.0781 87.462 23.4272 87.1753 23.8352 87.1753H29.8498L30.9196 81.2832C30.9908 80.8911 31.3394 80.6055 31.7467 80.6055H33.4005C33.9231 80.6055 34.3189 81.0671 34.2275 81.5702L33.2099 87.1753L43.2934 87.1757L44.3632 81.2836C44.4344 80.8915 44.783 80.6059 45.1903 80.6059H46.8441C47.3667 80.6059 47.7626 81.0675 47.6712 81.5706L46.6535 87.1757H52.3741C52.8959 87.1757 53.2915 87.6359 53.2015 88.1385L52.9075 89.7809C52.8372 90.1739 52.4881 90.4606 52.08 90.4606H46.0655Z" fill="#B59568"/>
<path d="M39.3968 96.9652C38.506 96.9652 37.7839 97.6711 37.7839 98.5419V108.892C37.7839 109.762 38.506 110.468 39.3968 110.468H41.0096C41.2324 110.468 41.4129 110.645 41.4129 110.862V114.21C41.4129 114.552 41.8272 114.732 42.0864 114.503L46.1942 110.875C46.4906 110.613 46.876 110.468 47.2755 110.468H54.7192C55.6099 110.468 56.332 109.762 56.332 108.892V98.5419C56.332 97.6711 55.6099 96.9652 54.7192 96.9652H39.3968Z" fill="#B59568"/>
<path d="M73.163 103.525C74.6239 103.525 75.7984 102.751 76.2854 101.004L80.4965 101.92C79.7803 105.329 76.7438 107.535 73.163 107.535C68.866 107.535 65.3138 104.47 65.3138 99.9152C65.3138 95.3891 68.866 92.2952 73.163 92.2952C76.6578 92.2952 79.6943 94.4437 80.4965 97.824L76.1995 98.8553C75.7984 97.1078 74.6239 96.3057 73.163 96.3057C71.1004 96.3057 69.7254 97.824 69.7254 99.9152C69.7254 102.035 71.1004 103.525 73.163 103.525ZM98.0017 92.7249V107.105H93.4183V105.96C92.301 106.962 90.8114 107.535 88.9494 107.535C85.1394 107.535 81.931 104.47 81.931 99.9152C81.931 95.3891 85.1394 92.2952 88.9494 92.2952C90.8114 92.2952 92.301 92.8682 93.4183 93.8708V92.7249H98.0017ZM89.8947 103.639C91.7568 103.639 93.4183 102.15 93.4183 99.9152C93.4183 97.7094 91.7568 96.1912 89.8947 96.1912C87.8895 96.1912 86.4285 97.7094 86.4285 99.9152C86.4285 102.15 87.8895 103.639 89.8947 103.639ZM119.932 92.2952C122.997 92.2952 125.432 94.6156 125.432 98.1105V107.105H120.877V99.0845C120.877 97.4516 119.818 96.4203 118.471 96.4203C116.781 96.4203 115.664 97.6521 115.664 100.058V107.105H111.08V99.0845C111.08 97.4516 110.02 96.4203 108.645 96.4203C106.984 96.4203 105.895 97.6521 105.895 100.058V107.105H101.312V92.7249H105.895V94.0427C106.869 92.9541 108.273 92.2952 110.135 92.2952C112.14 92.2952 113.859 93.1546 114.833 94.7302C115.979 93.2406 117.698 92.2952 119.932 92.2952ZM137.612 92.2952C141.422 92.2952 144.63 95.3891 144.63 99.9152C144.63 104.47 141.422 107.535 137.612 107.535C135.75 107.535 134.26 106.962 133.143 105.96V111.975H128.56V92.7249H133.143V93.8708C134.26 92.8682 135.75 92.2952 137.612 92.2952ZM136.667 103.639C138.672 103.639 140.133 102.15 140.133 99.9152C140.133 97.7094 138.672 96.1912 136.667 96.1912C134.805 96.1912 133.143 97.7094 133.143 99.9152C133.143 102.15 134.805 103.639 136.667 103.639Z" fill="#B59568"/>
<path d="M238.163 320.21C235.706 313.441 230.357 309.402 224.135 309.402H139.749C133.691 309.621 128.505 313.605 126.158 320.21C125.818 321.172 125.713 322.201 125.853 323.212C125.992 324.222 126.372 325.185 126.96 326.019C127.548 326.853 128.327 327.533 129.232 328.004C130.137 328.475 131.142 328.722 132.162 328.725H232.158C233.179 328.722 234.183 328.475 235.089 328.004C235.994 327.533 236.773 326.853 237.361 326.019C237.949 325.185 238.328 324.222 238.468 323.212C238.607 322.201 238.503 321.172 238.163 320.21Z" fill="#F4C480"/>
<path d="M141.386 320.101L223.315 320.974C225.826 316.335 227.3 309.239 221.842 303.562C218.075 299.632 214.364 298.322 214.364 291.445C214.364 284.567 211.253 280.255 204.812 279.055C205.547 280.848 205.694 282.829 205.233 284.712C204.773 286.595 203.727 288.283 202.246 289.535C199.845 291.5 196.078 291.827 193.622 289.098C191.166 286.369 192.258 281.347 192.858 276.817C193.622 270.867 191.166 265.136 185.216 262.68C185.981 265.136 186.308 268.138 184.561 270.048C182.815 271.959 179.649 272.887 177.411 275.452C175.926 277.219 174.762 279.233 173.972 281.402C173.099 283.64 171.079 285.004 169.114 284.295C167.149 283.585 166.877 279.328 168.459 277.253C166.604 277.199 160.381 279 159.562 287.133C158.798 294.174 160.872 296.139 158.853 298.595C157.652 300.069 154.814 300.287 153.34 298.704C151.866 297.122 152.63 292.264 152.63 292.264C148.919 293.028 143.188 297.231 140.84 303.999C138.057 312.023 141.386 320.101 141.386 320.101Z" fill="#F8A630"/>
<path d="M176.977 307.111C175.987 307.251 175.035 307.584 174.175 308.091C173.315 308.599 172.563 309.271 171.962 310.07C171.361 310.868 170.924 311.777 170.674 312.744C170.425 313.711 170.369 314.718 170.508 315.708C170.648 316.697 170.981 317.649 171.489 318.509C171.997 319.369 172.669 320.121 173.467 320.722C175.079 321.935 177.108 322.458 179.105 322.176L217.204 316.827L215.021 301.707L176.977 307.111Z" fill="#602C24"/>
<path d="M208.579 310.331C208.876 312.329 209.947 314.13 211.561 315.345C213.174 316.56 215.2 317.092 217.203 316.827L215.019 301.707C213.025 302.004 211.229 303.077 210.023 304.693C208.817 306.308 208.297 308.335 208.579 310.331V310.331Z" fill="#753E36"/>
<path d="M163.545 304.217C161.924 305.264 160.76 306.886 160.285 308.757C159.811 310.628 160.062 312.609 160.988 314.302C161.914 315.995 163.447 317.275 165.278 317.885C167.109 318.495 169.103 318.389 170.859 317.59L204.592 299.195L197.332 285.822L163.545 304.217Z" fill="#76382F"/>
<path d="M194.273 296.138C194.748 297.019 195.391 297.796 196.168 298.427C196.944 299.057 197.837 299.528 198.796 299.812C199.754 300.096 200.76 300.188 201.754 300.082C202.748 299.976 203.712 299.675 204.589 299.195L197.33 285.822C196.45 286.297 195.672 286.941 195.042 287.717C194.411 288.493 193.94 289.386 193.656 290.345C193.372 291.304 193.281 292.309 193.386 293.303C193.492 294.297 193.794 295.261 194.273 296.138V296.138Z" fill="#9B5248"/>
<path d="M194.388 325.397C196.334 325.663 198.308 325.171 199.9 324.02C201.493 322.87 202.581 321.151 202.939 319.219C203.297 317.288 202.898 315.293 201.824 313.648C200.75 312.003 199.084 310.835 197.171 310.386L151.649 302.035L148.92 316.991L194.388 325.397Z" fill="#8B4339"/>
<path d="M157.762 310.878C157.944 309.895 157.929 308.887 157.72 307.911C157.51 306.934 157.11 306.008 156.542 305.187C155.974 304.365 155.249 303.664 154.41 303.123C153.57 302.582 152.632 302.213 151.649 302.035L148.92 316.991C149.902 317.172 150.91 317.157 151.887 316.948C152.864 316.739 153.789 316.338 154.611 315.77C155.432 315.202 156.133 314.478 156.674 313.638C157.215 312.799 157.585 311.86 157.762 310.878V310.878Z" fill="#A55D54"/>
<path d="M229.264 324.742C227.9 317.045 222.66 312.242 216.383 312.242C212.289 312.242 208.686 314.262 206.23 317.755C206.15 317.885 206.042 317.995 205.914 318.079C205.786 318.162 205.641 318.216 205.49 318.237C205.339 318.257 205.185 318.245 205.039 318.199C204.894 318.154 204.76 318.077 204.647 317.973C201.946 315.603 198.419 314.394 194.832 314.609C191.245 314.824 187.888 316.445 185.489 319.12C185.384 319.249 185.251 319.352 185.098 319.418C184.946 319.485 184.78 319.515 184.614 319.504C184.448 319.493 184.288 319.443 184.145 319.357C184.003 319.271 183.883 319.152 183.797 319.01C182.615 317.12 181.007 315.533 179.103 314.374C177.198 313.216 175.049 312.518 172.828 312.338C170.606 312.158 168.372 312.499 166.306 313.336C164.24 314.172 162.397 315.48 160.926 317.155C160.824 317.28 160.695 317.381 160.549 317.451C160.402 317.52 160.242 317.556 160.08 317.556C159.918 317.556 159.758 317.52 159.612 317.451C159.466 317.381 159.337 317.28 159.234 317.155C158.124 315.646 156.678 314.417 155.011 313.564C153.343 312.712 151.5 312.259 149.628 312.242C143.351 312.242 138.056 317.045 136.691 324.742C136.604 325.236 136.626 325.744 136.755 326.229C136.885 326.715 137.119 327.166 137.442 327.551C137.764 327.936 138.167 328.245 138.622 328.458C139.077 328.67 139.573 328.781 140.076 328.781H225.88C226.382 328.781 226.878 328.67 227.334 328.458C227.789 328.245 228.192 327.936 228.514 327.551C228.837 327.166 229.071 326.715 229.201 326.229C229.33 325.744 229.352 325.236 229.264 324.742V324.742Z" fill="#F4C480"/>
</svg>
