<svg width="342" height="287" viewBox="0 0 342 287" fill="none" xmlns="http://www.w3.org/2000/svg">
<rect x="22.1016" y="70" width="319" height="216" rx="18.1689" fill="white"/>
<path d="M38.1016 240H113.102V262.144C113.102 267.035 109.136 271 104.245 271H46.9578C42.0666 271 38.1016 267.035 38.1016 262.144V240Z" fill="#FFF8BC"/>
<path d="M258.102 240H323.102V262.144C323.102 267.035 319.136 271 314.245 271H266.958C262.067 271 258.102 267.035 258.102 262.144V240Z" fill="#FFF8BC"/>
<path d="M275.531 251.779V248L269.332 254.613L275.531 261.225V257.352C279.96 257.352 283.059 258.864 285.273 262.17C284.388 257.447 281.731 252.723 275.531 251.779Z" fill="#F8A630"/>
<path d="M308.657 248.438C307.24 248.438 305.928 249.171 305.102 250.258C304.275 249.171 302.963 248.438 301.546 248.438C299.095 248.438 297.102 250.401 297.102 252.813C297.102 257.618 304.323 262.116 304.631 262.305C304.775 262.394 304.939 262.438 305.102 262.438C305.264 262.438 305.428 262.394 305.572 262.305C305.88 262.116 313.102 257.618 313.102 252.813C313.102 250.401 311.108 248.438 308.657 248.438Z" fill="#F8A630"/>
<path d="M21.9492 18.1689C21.9492 8.13447 30.0837 0 40.1181 0H272.433C282.467 0 290.602 8.13448 290.602 18.1689V27.8837C290.602 37.9181 282.467 46.0526 272.433 46.0526H40.1181C30.0837 46.0526 21.9492 37.9181 21.9492 27.8837V18.1689Z" fill="white"/>
<rect x="38.1016" y="105" width="285" height="31" rx="8.85626" fill="#FFF8BC"/>
<path fill-rule="evenodd" clip-rule="evenodd" d="M59.1015 253C59.1015 254.654 57.756 256 56.1015 256C54.4478 256 53.1015 254.654 53.1015 253C53.1015 251.346 54.447 250 56.1015 250C57.756 250 59.1015 251.346 59.1015 253ZM50.1016 261.25C50.1016 258.6 52.5691 256.75 56.1015 256.75C59.6348 256.75 62.1015 258.6 62.1015 261.25V262H50.1016V261.25Z" fill="#F8A630"/>
<path d="M63.6016 262H65.1016V261.25C65.1016 259.328 63.8038 257.827 61.7425 257.147C62.8981 258.18 63.6016 259.6 63.6016 261.25V262Z" fill="#F8A630"/>
<path d="M59.7641 255.926C61.1008 255.624 62.1016 254.426 62.1016 253C62.1016 251.472 60.9535 250.207 59.4743 250.023C60.1757 250.817 60.6016 251.859 60.6016 253C60.6016 254.082 60.2182 255.076 59.5799 255.853C59.6417 255.877 59.7032 255.901 59.7641 255.926Z" fill="#F8A630"/>
<path d="M79.7441 259.006H75.6422L77.3121 257.368C78.901 255.812 79.6793 254.79 79.6793 253.282C79.6793 251.272 78.1714 249.894 75.9826 249.894C73.7776 249.894 72.2536 251.223 72.1563 253.364L74.1667 253.785C74.264 252.407 74.8963 251.791 75.9502 251.791C76.8906 251.791 77.5553 252.423 77.5553 253.331C77.5553 254.547 76.6798 255.277 76.0151 255.941L72.3509 259.573V261H79.7441V259.006ZM85.6702 249.894C82.8815 249.894 81.0008 252.196 81.0008 255.569C81.0008 258.957 82.8815 261.243 85.6702 261.243C88.4589 261.243 90.3396 258.957 90.3396 255.569C90.3396 252.196 88.4589 249.894 85.6702 249.894ZM85.6702 259.217C84.1786 259.217 83.2382 257.725 83.2382 255.569C83.2382 253.412 84.1786 251.921 85.6702 251.921C87.1618 251.921 88.1022 253.412 88.1022 255.569C88.1022 257.725 87.1618 259.217 85.6702 259.217ZM95.7876 249.894C93.4366 249.894 91.7991 251.45 91.7991 253.591C91.7991 255.682 93.2421 257.174 95.593 257.174C96.582 257.174 97.571 256.768 98.1871 256.087C98.1871 257.076 97.9601 257.984 97.3602 258.633C96.9873 259.038 96.4523 259.314 95.8362 259.314C94.9931 259.314 94.4256 259.054 94.1662 258.26L92.0585 258.665C92.5125 260.335 93.923 261.243 95.7551 261.243C97.0036 261.243 98.0412 260.757 98.787 259.995C99.8571 258.892 100.246 257.352 100.246 255.406C100.246 251.888 98.4628 249.894 95.7876 249.894ZM95.8362 255.374C94.8958 255.374 94.0041 254.677 94.0041 253.623C94.0041 252.569 94.8958 251.856 95.8362 251.856C96.7604 251.856 97.6034 252.553 97.6034 253.591C97.6034 254.677 96.7604 255.374 95.8362 255.374Z" fill="#F8A630"/>
<path d="M38.1016 156.856C38.1016 151.965 42.0666 148 46.9578 148H314.245C319.136 148 323.102 151.965 323.102 156.856V240H38.1016V156.856Z" fill="#FFF8BC"/>
<path d="M78.3719 115.728V126.408H82.5963C86.1193 126.408 88.4467 124.24 88.4467 121.068C88.4467 117.896 86.1193 115.728 82.5963 115.728H78.3719ZM81.0022 124.129V118.007H82.5006C84.4933 118.007 85.8005 119.219 85.8005 121.068C85.8005 122.917 84.4933 124.129 82.5006 124.129H81.0022ZM97.7662 122.407C97.7183 119.793 95.901 118.167 93.6374 118.167C91.3099 118.167 89.397 119.888 89.397 122.407C89.397 124.942 91.3099 126.647 93.6214 126.647C95.4547 126.647 96.9053 125.834 97.5908 124.145L95.3271 123.682C94.8967 124.463 94.2113 124.607 93.6214 124.607C92.7606 124.607 92.107 124.017 91.8998 123.061H97.7662V122.407ZM93.6374 120.239C94.3707 120.239 95.0083 120.637 95.2474 121.498H91.9476C92.1867 120.685 92.92 120.239 93.6374 120.239ZM102.934 124.416C101.786 124.416 101.021 123.587 101.021 122.407C101.021 121.243 101.786 120.398 102.934 120.398C103.747 120.398 104.401 120.845 104.624 121.817L107.015 121.243C106.569 119.362 104.879 118.167 102.934 118.167C100.543 118.167 98.5663 119.888 98.5663 122.407C98.5663 124.942 100.543 126.647 102.934 126.647C104.927 126.647 106.617 125.42 107.015 123.523L104.672 123.013C104.401 123.985 103.747 124.416 102.934 124.416ZM116.183 122.407C116.135 119.793 114.318 118.167 112.054 118.167C109.726 118.167 107.814 119.888 107.814 122.407C107.814 124.942 109.726 126.647 112.038 126.647C113.871 126.647 115.322 125.834 116.007 124.145L113.744 123.682C113.313 124.463 112.628 124.607 112.038 124.607C111.177 124.607 110.524 124.017 110.316 123.061H116.183V122.407ZM112.054 120.239C112.787 120.239 113.425 120.637 113.664 121.498H110.364C110.603 120.685 111.337 120.239 112.054 120.239ZM127.871 118.167C126.627 118.167 125.671 118.693 125.033 119.522C124.491 118.645 123.535 118.167 122.419 118.167C121.383 118.167 120.602 118.533 120.06 119.139V118.406H117.509V126.408H120.06V122.487C120.06 121.148 120.665 120.462 121.59 120.462C122.355 120.462 122.945 121.036 122.945 121.945V126.408H125.496V122.487C125.496 121.148 126.117 120.462 127.058 120.462C127.807 120.462 128.397 121.036 128.397 121.945V126.408H130.931V121.403C130.931 119.458 129.576 118.167 127.871 118.167ZM137.709 118.167C136.673 118.167 135.844 118.485 135.222 119.043V114.93H132.672V126.408H135.222V125.771C135.844 126.328 136.673 126.647 137.709 126.647C139.829 126.647 141.615 124.942 141.615 122.407C141.615 119.888 139.829 118.167 137.709 118.167ZM137.183 124.479C136.147 124.479 135.222 123.65 135.222 122.407C135.222 121.179 136.147 120.335 137.183 120.335C138.299 120.335 139.112 121.179 139.112 122.407C139.112 123.65 138.299 124.479 137.183 124.479ZM150.774 122.407C150.726 119.793 148.909 118.167 146.645 118.167C144.318 118.167 142.405 119.888 142.405 122.407C142.405 124.942 144.318 126.647 146.629 126.647C148.463 126.647 149.913 125.834 150.599 124.145L148.335 123.682C147.905 124.463 147.219 124.607 146.629 124.607C145.768 124.607 145.115 124.017 144.908 123.061H150.774V122.407ZM146.645 120.239C147.379 120.239 148.016 120.637 148.255 121.498H144.955C145.195 120.685 145.928 120.239 146.645 120.239ZM157.409 118.294C156.102 118.294 155.225 118.98 154.651 119.936V118.406H152.1V126.408H154.651V123.905C154.651 121.833 155.623 120.908 157.409 120.908H157.871L157.983 118.358C157.791 118.31 157.632 118.294 157.409 118.294Z" fill="#7D5C2C"/>
<path d="M66.9533 177.615V175.319H57.4204V177.615H60.8796V186H63.494V177.615H66.9533ZM74.7584 181.999C74.7106 179.384 72.8933 177.758 70.6296 177.758C68.3022 177.758 66.3892 179.48 66.3892 181.999C66.3892 184.533 68.3022 186.239 70.6137 186.239C72.4469 186.239 73.8976 185.426 74.583 183.736L72.3194 183.274C71.889 184.055 71.2035 184.199 70.6137 184.199C69.7528 184.199 69.0992 183.609 68.892 182.652H74.7584V181.999ZM70.6296 179.831C71.3629 179.831 72.0006 180.229 72.2397 181.09H68.9398C69.1789 180.277 69.9122 179.831 70.6296 179.831ZM78.6352 186V174.522H76.0846V186H78.6352ZM83.0409 186V174.522H80.4903V186H83.0409ZM96.6035 177.997H94.0529V181.712C94.0529 183.258 93.3993 183.944 92.395 183.944C91.582 183.944 91.0241 183.306 91.0241 182.365V177.997H88.4894V182.907C88.4894 184.916 89.7329 186.239 91.598 186.239C92.6023 186.239 93.4472 185.872 94.0529 185.235V186H96.6035V177.997ZM97.8666 183.912C98.1376 185.554 99.7477 186.239 101.629 186.239C103.733 186.239 105.263 185.315 105.263 183.545C105.263 182.365 104.562 181.457 103.048 181.138L101.166 180.755C100.656 180.644 100.561 180.421 100.561 180.197C100.561 179.91 100.784 179.576 101.469 179.576C102.25 179.576 102.729 180.022 102.808 180.516L105.136 180.054C104.817 178.667 103.494 177.758 101.501 177.758C99.4767 177.758 98.0579 178.826 98.0579 180.468C98.0579 181.728 98.9028 182.525 100.385 182.796L102.011 183.115C102.601 183.226 102.808 183.433 102.808 183.704C102.808 184.055 102.442 184.342 101.772 184.342C101.087 184.342 100.465 184.087 100.353 183.402L97.8666 183.912ZM118.735 177.997H116.184V178.635C115.563 178.077 114.734 177.758 113.697 177.758C111.577 177.758 109.792 179.48 109.792 181.999C109.792 184.533 111.577 186.239 113.697 186.239C114.734 186.239 115.563 185.92 116.184 185.362V186H118.735V177.997ZM114.224 184.071C113.108 184.071 112.295 183.242 112.295 181.999C112.295 180.771 113.108 179.926 114.224 179.926C115.26 179.926 116.184 180.771 116.184 181.999C116.184 183.242 115.26 184.071 114.224 184.071ZM125.614 177.758C124.578 177.758 123.749 178.077 123.128 178.635V174.522H120.577V186H123.128V185.362C123.749 185.92 124.578 186.239 125.614 186.239C127.735 186.239 129.52 184.533 129.52 181.999C129.52 179.48 127.735 177.758 125.614 177.758ZM125.088 184.071C124.052 184.071 123.128 183.242 123.128 181.999C123.128 180.771 124.052 179.926 125.088 179.926C126.204 179.926 127.017 180.771 127.017 181.999C127.017 183.242 126.204 184.071 125.088 184.071ZM134.742 177.79C132.319 177.79 130.31 179.48 130.31 181.999C130.31 184.533 132.319 186.223 134.742 186.223C137.117 186.223 139.126 184.533 139.126 181.999C139.126 179.48 137.117 177.79 134.742 177.79ZM134.742 184.071C133.705 184.071 132.765 183.258 132.765 181.999C132.765 180.755 133.705 179.926 134.742 179.926C135.73 179.926 136.671 180.755 136.671 181.999C136.671 183.258 135.73 184.071 134.742 184.071ZM148.444 177.997H145.893V181.712C145.893 183.258 145.24 183.944 144.235 183.944C143.422 183.944 142.864 183.306 142.864 182.365V177.997H140.33V182.907C140.33 184.916 141.573 186.239 143.438 186.239C144.443 186.239 145.287 185.872 145.893 185.235V186H148.444V177.997ZM155.636 183.641C155.301 183.832 154.823 183.96 154.472 183.96C153.803 183.96 153.404 183.625 153.404 182.796V180.022H155.763V177.997H153.404V175.638H150.854V177.997H149.403V180.022H150.854V183.051C150.854 185.155 152.049 186.239 154.042 186.239C154.95 186.239 155.604 185.984 156.226 185.649L155.636 183.641ZM172.534 177.997H170.032L168.724 182.318L167.21 177.997H165.409L163.894 182.302L162.587 177.997H160.084L162.651 186.016H164.867L166.317 181.68L167.752 186.016H169.968L172.534 177.997ZM178.591 177.758C177.571 177.758 176.742 178.125 176.12 178.763V174.522H173.569V186H176.12V182.286C176.12 180.739 176.773 180.054 177.762 180.054C178.591 180.054 179.149 180.692 179.149 181.632V186H181.683V181.09C181.683 179.081 180.44 177.758 178.591 177.758ZM191.856 177.997H189.306V178.635C188.684 178.077 187.855 177.758 186.819 177.758C184.698 177.758 182.913 179.48 182.913 181.999C182.913 184.533 184.698 186.239 186.819 186.239C187.855 186.239 188.684 185.92 189.306 185.362V186H191.856V177.997ZM187.345 184.071C186.229 184.071 185.416 183.242 185.416 181.999C185.416 180.771 186.229 179.926 187.345 179.926C188.381 179.926 189.306 180.771 189.306 181.999C189.306 183.242 188.381 184.071 187.345 184.071ZM199.039 183.641C198.704 183.832 198.226 183.96 197.875 183.96C197.205 183.96 196.807 183.625 196.807 182.796V180.022H199.166V177.997H196.807V175.638H194.256V177.997H192.806V180.022H194.256V183.051C194.256 185.155 195.452 186.239 197.444 186.239C198.353 186.239 199.007 185.984 199.628 185.649L199.039 183.641ZM209.321 177.758C208.301 177.758 207.472 178.125 206.85 178.763V174.522H204.3V186H206.85V182.286C206.85 180.739 207.504 180.054 208.492 180.054C209.321 180.054 209.879 180.692 209.879 181.632V186H212.414V181.09C212.414 179.081 211.17 177.758 209.321 177.758ZM222.587 177.997H220.036V178.635C219.414 178.077 218.585 177.758 217.549 177.758C215.429 177.758 213.644 179.48 213.644 181.999C213.644 184.533 215.429 186.239 217.549 186.239C218.585 186.239 219.414 185.92 220.036 185.362V186H222.587V177.997ZM218.075 184.071C216.959 184.071 216.146 183.242 216.146 181.999C216.146 180.771 216.959 179.926 218.075 179.926C219.111 179.926 220.036 180.771 220.036 181.999C220.036 183.242 219.111 184.071 218.075 184.071ZM229.466 177.758C228.43 177.758 227.601 178.077 226.979 178.635V177.997H224.429V188.71H226.979V185.362C227.601 185.92 228.43 186.239 229.466 186.239C231.586 186.239 233.372 184.533 233.372 181.999C233.372 179.48 231.586 177.758 229.466 177.758ZM228.94 184.071C227.904 184.071 226.979 183.242 226.979 181.999C226.979 180.771 227.904 179.926 228.94 179.926C230.056 179.926 230.869 180.771 230.869 181.999C230.869 183.242 230.056 184.071 228.94 184.071ZM239.725 177.758C238.689 177.758 237.86 178.077 237.238 178.635V177.997H234.688V188.71H237.238V185.362C237.86 185.92 238.689 186.239 239.725 186.239C241.845 186.239 243.631 184.533 243.631 181.999C243.631 179.48 241.845 177.758 239.725 177.758ZM239.199 184.071C238.163 184.071 237.238 183.242 237.238 181.999C237.238 180.771 238.163 179.926 239.199 179.926C240.315 179.926 241.128 180.771 241.128 181.999C241.128 183.242 240.315 184.071 239.199 184.071ZM252.79 181.999C252.742 179.384 250.925 177.758 248.661 177.758C246.334 177.758 244.421 179.48 244.421 181.999C244.421 184.533 246.334 186.239 248.645 186.239C250.479 186.239 251.929 185.426 252.615 183.736L250.351 183.274C249.921 184.055 249.235 184.199 248.645 184.199C247.784 184.199 247.131 183.609 246.924 182.652H252.79V181.999ZM248.661 179.831C249.395 179.831 250.032 180.229 250.271 181.09H246.971C247.211 180.277 247.944 179.831 248.661 179.831ZM259.122 177.758C258.118 177.758 257.273 178.125 256.667 178.763V177.997H254.116V186H256.667V182.286C256.667 180.739 257.32 180.054 258.325 180.054C259.138 180.054 259.696 180.692 259.696 181.632V186H262.23V181.09C262.23 179.081 260.987 177.758 259.122 177.758ZM271.814 181.999C271.766 179.384 269.949 177.758 267.685 177.758C265.357 177.758 263.445 179.48 263.445 181.999C263.445 184.533 265.357 186.239 267.669 186.239C269.502 186.239 270.953 185.426 271.638 183.736L269.375 183.274C268.944 184.055 268.259 184.199 267.669 184.199C266.808 184.199 266.155 183.609 265.947 182.652H271.814V181.999ZM267.685 179.831C268.418 179.831 269.056 180.229 269.295 181.09H265.995C266.234 180.277 266.968 179.831 267.685 179.831ZM281.557 174.522H279.006V178.635C278.385 178.077 277.556 177.758 276.519 177.758C274.399 177.758 272.614 179.48 272.614 181.999C272.614 184.533 274.399 186.239 276.519 186.239C277.556 186.239 278.385 185.92 279.006 185.362V186H281.557V174.522ZM277.046 184.071C275.93 184.071 275.117 183.242 275.117 181.999C275.117 180.771 275.93 179.926 277.046 179.926C278.082 179.926 279.006 180.771 279.006 181.999C279.006 183.242 278.082 184.071 277.046 184.071ZM288.507 174.188C287.646 174.188 287.04 174.857 287.04 175.638C287.04 176.451 287.646 177.057 288.507 177.057C289.368 177.057 289.989 176.451 289.989 175.638C289.989 174.857 289.368 174.188 288.507 174.188ZM289.782 186V177.997H287.232V186H289.782ZM296.764 177.758C295.76 177.758 294.915 178.125 294.309 178.763V177.997H291.759V186H294.309V182.286C294.309 180.739 294.963 180.054 295.967 180.054C296.78 180.054 297.338 180.692 297.338 181.632V186H299.873V181.09C299.873 179.081 298.63 177.758 296.764 177.758ZM66.6185 199.982H63.8766L61.8521 204.652L59.9551 199.982H57.2132L60.5289 207.729L59.2377 210.71H61.9955L66.6185 199.982ZM71.2724 199.79C68.8493 199.79 66.8407 201.48 66.8407 203.999C66.8407 206.533 68.8493 208.223 71.2724 208.223C73.6476 208.223 75.6562 206.533 75.6562 203.999C75.6562 201.48 73.6476 199.79 71.2724 199.79ZM71.2724 206.071C70.2362 206.071 69.2956 205.258 69.2956 203.999C69.2956 202.755 70.2362 201.926 71.2724 201.926C72.2607 201.926 73.2013 202.755 73.2013 203.999C73.2013 205.258 72.2607 206.071 71.2724 206.071ZM84.9745 199.997H82.4239V203.712C82.4239 205.258 81.7703 205.944 80.766 205.944C79.953 205.944 79.3951 205.306 79.3951 204.365V199.997H76.8604V204.907C76.8604 206.916 78.1038 208.239 79.9689 208.239C80.9732 208.239 81.8181 207.872 82.4239 207.235V208H84.9745V199.997ZM92.1348 199.886C90.8276 199.886 89.9508 200.571 89.3769 201.528V199.997H86.8263V208H89.3769V205.497C89.3769 203.425 90.3493 202.5 92.1348 202.5H92.597L92.7086 199.95C92.5173 199.902 92.3579 199.886 92.1348 199.886ZM101.332 206.007C100.184 206.007 99.419 205.178 99.419 203.999C99.419 202.835 100.184 201.99 101.332 201.99C102.145 201.99 102.799 202.436 103.022 203.409L105.413 202.835C104.967 200.954 103.277 199.758 101.332 199.758C98.9408 199.758 96.9641 201.48 96.9641 203.999C96.9641 206.533 98.9408 208.239 101.332 208.239C103.325 208.239 105.014 207.012 105.413 205.115L103.07 204.605C102.799 205.577 102.145 206.007 101.332 206.007ZM110.643 199.79C108.22 199.79 106.211 201.48 106.211 203.999C106.211 206.533 108.22 208.223 110.643 208.223C113.018 208.223 115.027 206.533 115.027 203.999C115.027 201.48 113.018 199.79 110.643 199.79ZM110.643 206.071C109.607 206.071 108.666 205.258 108.666 203.999C108.666 202.755 109.607 201.926 110.643 201.926C111.631 201.926 112.572 202.755 112.572 203.999C112.572 205.258 111.631 206.071 110.643 206.071ZM126.704 199.758C125.461 199.758 124.505 200.284 123.867 201.113C123.325 200.237 122.368 199.758 121.252 199.758C120.216 199.758 119.435 200.125 118.893 200.731V199.997H116.343V208H118.893V204.078C118.893 202.739 119.499 202.054 120.424 202.054C121.189 202.054 121.779 202.628 121.779 203.536V208H124.329V204.078C124.329 202.739 124.951 202.054 125.891 202.054C126.641 202.054 127.23 202.628 127.23 203.536V208H129.765V202.994C129.765 201.05 128.41 199.758 126.704 199.758ZM141.867 199.758C140.624 199.758 139.667 200.284 139.03 201.113C138.488 200.237 137.531 199.758 136.415 199.758C135.379 199.758 134.598 200.125 134.056 200.731V199.997H131.505V208H134.056V204.078C134.056 202.739 134.662 202.054 135.586 202.054C136.352 202.054 136.941 202.628 136.941 203.536V208H139.492V204.078C139.492 202.739 140.114 202.054 141.054 202.054C141.804 202.054 142.393 202.628 142.393 203.536V208H144.928V202.994C144.928 201.05 143.573 199.758 141.867 199.758ZM154.609 199.997H152.058V203.712C152.058 205.258 151.404 205.944 150.4 205.944C149.587 205.944 149.029 205.306 149.029 204.365V199.997H146.494V204.907C146.494 206.916 147.738 208.239 149.603 208.239C150.607 208.239 151.452 207.872 152.058 207.235V208H154.609V199.997ZM161.466 199.758C160.462 199.758 159.617 200.125 159.011 200.763V199.997H156.46V208H159.011V204.286C159.011 202.739 159.665 202.054 160.669 202.054C161.482 202.054 162.04 202.692 162.04 203.632V208H164.575V203.09C164.575 201.081 163.331 199.758 161.466 199.758ZM167.718 196.188C166.857 196.188 166.251 196.857 166.251 197.638C166.251 198.451 166.857 199.057 167.718 199.057C168.578 199.057 169.2 198.451 169.2 197.638C169.2 196.857 168.578 196.188 167.718 196.188ZM168.993 208V199.997H166.442V208H168.993ZM176.31 205.641C175.975 205.832 175.497 205.96 175.146 205.96C174.477 205.96 174.078 205.625 174.078 204.796V202.022H176.437V199.997H174.078V197.638H171.527V199.997H170.077V202.022H171.527V205.051C171.527 207.155 172.723 208.239 174.716 208.239C175.624 208.239 176.278 207.984 176.9 207.649L176.31 205.641ZM186.458 199.982H183.716L181.692 204.652L179.795 199.982H177.053L180.369 207.729L179.077 210.71H181.835L186.458 199.982ZM196.532 205.641C196.197 205.832 195.719 205.96 195.368 205.96C194.699 205.96 194.3 205.625 194.3 204.796V202.022H196.66V199.997H194.3V197.638H191.75V199.997H190.299V202.022H191.75V205.051C191.75 207.155 192.945 208.239 194.938 208.239C195.847 208.239 196.5 207.984 197.122 207.649L196.532 205.641ZM203.11 199.758C202.09 199.758 201.261 200.125 200.639 200.763V196.522H198.088V208H200.639V204.286C200.639 202.739 201.292 202.054 202.281 202.054C203.11 202.054 203.668 202.692 203.668 203.632V208H206.202V203.09C206.202 201.081 204.959 199.758 203.11 199.758ZM209.361 196.188C208.5 196.188 207.894 196.857 207.894 197.638C207.894 198.451 208.5 199.057 209.361 199.057C210.222 199.057 210.844 198.451 210.844 197.638C210.844 196.857 210.222 196.188 209.361 196.188ZM210.636 208V199.997H208.086V208H210.636ZM212.071 205.912C212.342 207.554 213.952 208.239 215.833 208.239C217.937 208.239 219.468 207.315 219.468 205.545C219.468 204.365 218.766 203.457 217.252 203.138L215.371 202.755C214.861 202.644 214.765 202.421 214.765 202.197C214.765 201.91 214.988 201.576 215.674 201.576C216.455 201.576 216.933 202.022 217.013 202.516L219.34 202.054C219.021 200.667 217.698 199.758 215.706 199.758C213.681 199.758 212.262 200.826 212.262 202.468C212.262 203.728 213.107 204.525 214.59 204.796L216.216 205.115C216.805 205.226 217.013 205.433 217.013 205.704C217.013 206.055 216.646 206.342 215.977 206.342C215.291 206.342 214.669 206.087 214.558 205.402L212.071 205.912ZM234.884 199.758C233.641 199.758 232.684 200.284 232.046 201.113C231.504 200.237 230.548 199.758 229.432 199.758C228.396 199.758 227.615 200.125 227.073 200.731V199.997H224.522V208H227.073V204.078C227.073 202.739 227.679 202.054 228.603 202.054C229.368 202.054 229.958 202.628 229.958 203.536V208H232.509V204.078C232.509 202.739 233.13 202.054 234.071 202.054C234.82 202.054 235.41 202.628 235.41 203.536V208H237.945V202.994C237.945 201.05 236.59 199.758 234.884 199.758ZM243.591 199.79C241.168 199.79 239.159 201.48 239.159 203.999C239.159 206.533 241.168 208.223 243.591 208.223C245.966 208.223 247.975 206.533 247.975 203.999C247.975 201.48 245.966 199.79 243.591 199.79ZM243.591 206.071C242.554 206.071 241.614 205.258 241.614 203.999C241.614 202.755 242.554 201.926 243.591 201.926C244.579 201.926 245.52 202.755 245.52 203.999C245.52 205.258 244.579 206.071 243.591 206.071ZM254.296 199.758C253.292 199.758 252.447 200.125 251.841 200.763V199.997H249.29V208H251.841V204.286C251.841 202.739 252.494 202.054 253.499 202.054C254.312 202.054 254.87 202.692 254.87 203.632V208H257.404V203.09C257.404 201.081 256.161 199.758 254.296 199.758ZM264.485 205.641C264.15 205.832 263.672 205.96 263.321 205.96C262.652 205.96 262.253 205.625 262.253 204.796V202.022H264.612V199.997H262.253V197.638H259.703V199.997H258.252V202.022H259.703V205.051C259.703 207.155 260.898 208.239 262.891 208.239C263.799 208.239 264.453 207.984 265.075 207.649L264.485 205.641ZM271.063 199.758C270.042 199.758 269.213 200.125 268.592 200.763V196.522H266.041V208H268.592V204.286C268.592 202.739 269.245 202.054 270.234 202.054C271.063 202.054 271.621 202.692 271.621 203.632V208H274.155V203.09C274.155 201.081 272.912 199.758 271.063 199.758ZM278.78 197.319H275.943V197.814L276.102 204.349H278.621L278.78 197.814V197.319ZM277.394 205.258C276.533 205.258 275.927 205.912 275.927 206.677C275.927 207.474 276.533 208.08 277.394 208.08C278.238 208.08 278.844 207.474 278.844 206.677C278.844 205.912 278.238 205.258 277.394 205.258Z" fill="#7D5C2C"/>
<circle cx="59.7344" cy="120.445" r="10.0371" fill="#F8A630"/>
<path d="M50.1834 50.5294L49.4774 54.4599H45.5601L46.2662 50.5294L34.5078 50.5289L32.4311 62.0891H36.7599V65.9425H31.7446L30.4971 72.8543C30.414 73.3142 30.0075 73.6493 29.5326 73.6493H27.604C26.9945 73.6493 26.533 73.1079 26.6396 72.5175L27.8263 65.9425H21.1556C20.5471 65.9425 20.0858 65.4026 20.1907 64.8131L20.5336 62.8864C20.6156 62.4255 21.0226 62.0891 21.4985 62.0891H28.512L30.5887 50.5289H23.918C23.3095 50.5289 22.8482 49.989 22.9531 49.3995L23.2959 47.4728C23.378 47.0119 23.785 46.6755 24.2609 46.6755H31.2744L32.5219 39.7637C32.6049 39.3038 33.0114 38.9688 33.4863 38.9688H35.4149C36.0243 38.9688 36.4858 39.5103 36.3793 40.1005L35.1926 46.6755L46.9509 46.676L48.1984 39.7642C48.2814 39.3043 48.6879 38.9692 49.1629 38.9692H51.0914C51.7008 38.9692 52.1623 39.5108 52.0558 40.101L50.8691 46.676H57.5398C58.1483 46.676 58.6096 47.216 58.5047 47.8054L58.1619 49.7321C58.0798 50.1931 57.6728 50.5294 57.1969 50.5294H50.1834Z" fill="white"/>
<path d="M42.4071 58.1598C41.3683 58.1598 40.5263 58.9879 40.5263 60.0094V72.1502C40.5263 73.1717 41.3683 73.9998 42.4071 73.9998H44.2878C44.5476 73.9998 44.758 74.2067 44.758 74.4622V78.3896C44.758 78.7903 45.2411 79.0015 45.5434 78.7327L50.3335 74.4768C50.6791 74.1697 51.1285 73.9998 51.5944 73.9998H60.2744C61.3131 73.9998 62.1552 73.1717 62.1552 72.1502V60.0094C62.1552 58.9879 61.3131 58.1598 60.2744 58.1598H42.4071Z" fill="white"/>
<rect x="0.101562" y="23.0273" width="312.414" height="65.7975" rx="18.1689" fill="#FFF8BC"/>
<path d="M45.9093 48.7812L45.3038 52.1318H41.9444L42.5499 48.7812L32.4664 48.7808L30.6855 58.6354H34.3977V61.9203H30.0967L29.0269 67.8124C28.9557 68.2045 28.6071 68.4901 28.1998 68.4901H26.546C26.0233 68.4901 25.6275 68.0286 25.7189 67.5253L26.7366 61.9203H21.0161C20.4942 61.9203 20.0986 61.4601 20.1886 60.9575L20.4826 59.3151C20.5529 58.9222 20.902 58.6354 21.3101 58.6354H27.3246L29.1055 48.7808H23.385C22.8631 48.7808 22.4675 48.3205 22.5575 47.818L22.8515 46.1755C22.9219 45.7826 23.2709 45.4959 23.679 45.4959H29.6935L30.7633 39.6038C30.8345 39.2117 31.1831 38.9261 31.5904 38.9261H33.2443C33.7669 38.9261 34.1627 39.3877 34.0713 39.8908L33.0537 45.4959L43.1371 45.4963L44.2069 39.6042C44.2781 39.2122 44.6267 38.9265 45.034 38.9265H46.6879C47.2105 38.9265 47.6063 39.3881 47.5149 39.8913L46.4973 45.4963H52.2178C52.7397 45.4963 53.1352 45.9566 53.0453 46.4591L52.7513 48.1015C52.6809 48.4945 52.3319 48.7812 51.9238 48.7812H45.9093Z" fill="#F8A630"/>
<path d="M39.2405 55.2858C38.3497 55.2858 37.6276 55.9917 37.6276 56.8626V67.2121C37.6276 68.083 38.3497 68.7889 39.2405 68.7889H40.8534C41.0762 68.7889 41.2566 68.9653 41.2566 69.1831V72.5311C41.2566 72.8727 41.6709 73.0527 41.9302 72.8236L46.038 69.1956C46.3343 68.9338 46.7198 68.7889 47.1193 68.7889H54.5629C55.4537 68.7889 56.1758 68.083 56.1758 67.2121V56.8626C56.1758 55.9917 55.4537 55.2858 54.5629 55.2858H39.2405Z" fill="#F8A630"/>
<path d="M73.4982 61.6399C71.3174 61.6399 69.8635 60.0648 69.8635 57.8233C69.8635 55.6122 71.3174 54.0068 73.4982 54.0068C75.043 54.0068 76.2849 54.8549 76.709 56.7026L81.2524 55.6122C80.4043 52.038 77.1936 49.7663 73.4982 49.7663C68.9548 49.7663 65.1988 53.0376 65.1988 57.8233C65.1988 62.6394 68.9548 65.8804 73.4982 65.8804C77.2845 65.8804 80.4952 63.5481 81.2524 59.9436L76.7998 58.9744C76.2849 60.822 75.043 61.6399 73.4982 61.6399ZM99.7619 50.2206H94.9155V51.4322C93.7342 50.3721 92.1591 49.7663 90.1903 49.7663C86.1617 49.7663 82.7693 53.0376 82.7693 57.8233C82.7693 62.6394 86.1617 65.8804 90.1903 65.8804C92.1591 65.8804 93.7342 65.2746 94.9155 64.2145V65.4261H99.7619V50.2206ZM91.1898 61.761C89.0696 61.761 87.5248 60.186 87.5248 57.8233C87.5248 55.491 89.0696 53.8857 91.1898 53.8857C93.1587 53.8857 94.9155 55.491 94.9155 57.8233C94.9155 60.186 93.1587 61.761 91.1898 61.761ZM122.95 49.7663C120.588 49.7663 118.77 50.7658 117.559 52.3409C116.529 50.675 114.712 49.7663 112.591 49.7663C110.622 49.7663 109.138 50.4629 108.108 51.6139V50.2206H103.262V65.4261H108.108V57.9748C108.108 55.4305 109.259 54.128 111.016 54.128C112.47 54.128 113.591 55.2184 113.591 56.9449V65.4261H118.437V57.9748C118.437 55.4305 119.618 54.128 121.406 54.128C122.829 54.128 123.95 55.2184 123.95 56.9449V65.4261H128.766V55.9151C128.766 52.2197 126.191 49.7663 122.95 49.7663ZM141.644 49.7663C139.676 49.7663 138.1 50.3721 136.919 51.4322V50.2206H132.073V70.5754H136.919V64.2145C138.1 65.2746 139.676 65.8804 141.644 65.8804C145.673 65.8804 149.065 62.6394 149.065 57.8233C149.065 53.0376 145.673 49.7663 141.644 49.7663ZM140.645 61.761C138.676 61.761 136.919 60.186 136.919 57.8233C136.919 55.491 138.676 53.8857 140.645 53.8857C142.765 53.8857 144.31 55.491 144.31 57.8233C144.31 60.186 142.765 61.761 140.645 61.761ZM165.05 48.4335C166.655 48.4335 167.837 47.2825 167.837 45.7377C167.837 44.2535 166.655 42.9813 165.05 42.9813C163.384 42.9813 162.233 44.2535 162.233 45.7377C162.233 47.2825 163.384 48.4335 165.05 48.4335ZM167.473 50.2206H157.053V49.2513C157.053 48.0397 157.871 47.3431 159.083 47.3431C159.446 47.3431 159.87 47.4339 160.294 47.5248L161.173 43.7083C160.294 43.3751 159.355 43.1934 158.416 43.1934C154.691 43.1934 152.237 45.4651 152.237 49.0393V50.2206H150.056V54.0674H152.237V65.4261H157.053V54.0674H162.627V65.4261H167.473V50.2206ZM181.323 50.0086C178.839 50.0086 177.173 51.311 176.083 53.1284V50.2206H171.237V65.4261H176.083V60.6706C176.083 56.7329 177.931 54.9761 181.323 54.9761H182.201L182.413 50.1297C182.05 50.0389 181.747 50.0086 181.323 50.0086ZM199.273 57.8233C199.182 52.8558 195.729 49.7663 191.428 49.7663C187.005 49.7663 183.37 53.0376 183.37 57.8233C183.37 62.6394 187.005 65.8804 191.397 65.8804C194.881 65.8804 197.637 64.3357 198.939 61.1249L194.638 60.2465C193.82 61.7307 192.518 62.0033 191.397 62.0033C189.762 62.0033 188.52 60.8826 188.126 59.0652H199.273V57.8233ZM191.428 53.7039C192.821 53.7039 194.032 54.4612 194.487 56.0968H188.217C188.671 54.552 190.064 53.7039 191.428 53.7039ZM216.132 61.6399C213.952 61.6399 212.498 60.0648 212.498 57.8233C212.498 55.6122 213.952 54.0068 216.132 54.0068C217.677 54.0068 218.919 54.8549 219.343 56.7026L223.887 55.6122C223.038 52.038 219.828 49.7663 216.132 49.7663C211.589 49.7663 207.833 53.0376 207.833 57.8233C207.833 62.6394 211.589 65.8804 216.132 65.8804C219.919 65.8804 223.129 63.5481 223.887 59.9436L219.434 58.9744C218.919 60.822 217.677 61.6399 216.132 61.6399ZM235.944 49.7663C234.006 49.7663 232.431 50.4629 231.249 51.6745V43.6174H226.403V65.4261H231.249V58.3686C231.249 55.4305 232.491 54.128 234.369 54.128C235.944 54.128 237.004 55.3396 237.004 57.1267V65.4261H241.821V56.0968C241.821 52.2803 239.458 49.7663 235.944 49.7663ZM261.15 50.2206H256.303V51.4322C255.122 50.3721 253.547 49.7663 251.578 49.7663C247.55 49.7663 244.157 53.0376 244.157 57.8233C244.157 62.6394 247.55 65.8804 251.578 65.8804C253.547 65.8804 255.122 65.2746 256.303 64.2145V65.4261H261.15V50.2206ZM252.578 61.761C250.457 61.761 248.913 60.186 248.913 57.8233C248.913 55.491 250.457 53.8857 252.578 53.8857C254.547 53.8857 256.303 55.491 256.303 57.8233C256.303 60.186 254.547 61.761 252.578 61.761ZM274.797 60.9432C274.161 61.3067 273.252 61.549 272.586 61.549C271.314 61.549 270.556 60.9129 270.556 59.3378V54.0674H275.039V50.2206H270.556V45.7377H265.71V50.2206H262.954V54.0674H265.71V59.8225C265.71 63.8207 267.982 65.8804 271.768 65.8804C273.494 65.8804 274.736 65.3958 275.918 64.7597L274.797 60.9432ZM276.724 61.4581C277.239 64.578 280.298 65.8804 283.872 65.8804C287.87 65.8804 290.778 64.1236 290.778 60.7615C290.778 58.52 289.446 56.7935 286.568 56.1877L282.994 55.4607C282.025 55.2487 281.843 54.8247 281.843 54.4006C281.843 53.8554 282.267 53.2193 283.569 53.2193C285.054 53.2193 285.962 54.0674 286.114 55.0064L290.536 54.128C289.93 51.4928 287.416 49.7663 283.63 49.7663C279.783 49.7663 277.087 51.7957 277.087 54.9155C277.087 57.3084 278.693 58.8229 281.51 59.3378L284.599 59.9436C285.72 60.1557 286.114 60.5494 286.114 61.0644C286.114 61.7307 285.417 62.2759 284.145 62.2759C282.842 62.2759 281.661 61.7913 281.449 60.4888L276.724 61.4581Z" fill="#F8A630"/>
<path d="M238.006 277.53C235.55 270.762 230.201 266.723 223.978 266.723H139.593C133.534 266.941 128.349 270.926 126.002 277.53C125.662 278.492 125.557 279.521 125.697 280.532C125.836 281.543 126.216 282.505 126.804 283.339C127.392 284.173 128.171 284.854 129.076 285.324C129.981 285.795 130.986 286.042 132.006 286.045H232.002C233.022 286.042 234.027 285.795 234.932 285.324C235.837 284.854 236.617 284.173 237.204 283.339C237.792 282.505 238.172 281.543 238.312 280.532C238.451 279.521 238.346 278.492 238.006 277.53Z" fill="#FFF8BC"/>
<path d="M141.23 277.421L223.159 278.295C225.67 273.655 227.144 266.559 221.685 260.883C217.919 256.953 214.208 255.643 214.208 248.765C214.208 241.888 211.096 237.576 204.655 236.375C205.39 238.169 205.538 240.149 205.077 242.032C204.616 243.915 203.571 245.603 202.09 246.855C199.688 248.82 195.922 249.147 193.466 246.418C191.01 243.689 192.101 238.667 192.702 234.137C193.466 228.187 191.01 222.456 185.06 220C185.824 222.456 186.152 225.458 184.405 227.369C182.659 229.279 179.493 230.207 177.255 232.772C175.77 234.54 174.606 236.553 173.816 238.722C172.943 240.96 170.923 242.324 168.958 241.615C166.993 240.905 166.72 236.648 168.303 234.574C166.447 234.519 160.225 236.32 159.406 244.453C158.642 251.494 160.716 253.459 158.697 255.916C157.496 257.389 154.657 257.608 153.184 256.025C151.71 254.442 152.474 249.584 152.474 249.584C148.762 250.348 143.031 254.551 140.684 261.319C137.9 269.343 141.23 277.421 141.23 277.421Z" fill="#F8A630"/>
<path d="M176.82 264.431C175.831 264.571 174.879 264.904 174.019 265.412C173.158 265.919 172.406 266.592 171.806 267.39C171.205 268.188 170.768 269.097 170.518 270.064C170.269 271.032 170.212 272.039 170.352 273.028C170.492 274.017 170.825 274.969 171.333 275.829C171.841 276.69 172.513 277.442 173.311 278.042C174.923 279.255 176.951 279.778 178.949 279.496L217.048 274.147L214.865 259.027L176.82 264.431Z" fill="#602C24"/>
<path d="M208.422 267.651C208.72 269.649 209.791 271.45 211.404 272.665C213.018 273.88 215.044 274.412 217.047 274.147L214.863 259.027C212.869 259.324 211.073 260.398 209.867 262.013C208.66 263.628 208.141 265.655 208.422 267.651Z" fill="#753E36"/>
<path d="M163.391 261.537C161.77 262.584 160.605 264.206 160.131 266.077C159.657 267.948 159.908 269.929 160.834 271.622C161.76 273.316 163.292 274.596 165.123 275.205C166.955 275.815 168.949 275.71 170.705 274.91L204.437 256.515L197.178 243.143L163.391 261.537Z" fill="#76382F"/>
<path d="M194.119 253.459C194.593 254.339 195.237 255.116 196.013 255.747C196.789 256.377 197.683 256.848 198.641 257.132C199.6 257.416 200.605 257.508 201.6 257.402C202.594 257.296 203.557 256.995 204.435 256.515L197.175 243.143C196.295 243.617 195.518 244.261 194.887 245.037C194.257 245.813 193.786 246.706 193.502 247.665C193.218 248.624 193.126 249.629 193.232 250.623C193.338 251.618 193.639 252.581 194.119 253.459Z" fill="#9B5248"/>
<path d="M194.231 282.717C196.177 282.984 198.152 282.491 199.744 281.341C201.336 280.19 202.425 278.471 202.783 276.54C203.141 274.608 202.742 272.613 201.668 270.968C200.594 269.323 198.927 268.155 197.015 267.707L151.493 259.355L148.764 274.311L194.231 282.717Z" fill="#8B4339"/>
<path d="M157.606 268.198C157.787 267.216 157.773 266.207 157.563 265.231C157.354 264.254 156.954 263.329 156.386 262.507C155.818 261.686 155.093 260.984 154.253 260.444C153.414 259.903 152.476 259.533 151.493 259.355L148.764 274.311C149.746 274.492 150.754 274.478 151.731 274.268C152.707 274.059 153.633 273.659 154.454 273.091C155.276 272.523 155.977 271.798 156.518 270.959C157.059 270.119 157.429 269.181 157.606 268.198Z" fill="#A55D54"/>
<path d="M229.108 282.06C227.743 274.364 222.503 269.561 216.226 269.561C212.133 269.561 208.53 271.58 206.074 275.073C205.994 275.203 205.886 275.314 205.758 275.397C205.63 275.48 205.485 275.534 205.334 275.555C205.183 275.576 205.029 275.563 204.883 275.518C204.737 275.472 204.604 275.395 204.491 275.292C201.79 272.922 198.263 271.713 194.676 271.927C191.089 272.142 187.732 273.763 185.332 276.438C185.228 276.567 185.094 276.67 184.942 276.737C184.79 276.804 184.624 276.833 184.458 276.822C184.292 276.812 184.131 276.761 183.989 276.675C183.847 276.589 183.727 276.471 183.64 276.329C182.459 274.439 180.851 272.851 178.947 271.693C177.042 270.534 174.893 269.837 172.671 269.657C170.449 269.476 168.216 269.818 166.15 270.654C164.083 271.49 162.241 272.798 160.77 274.473C160.668 274.599 160.539 274.7 160.392 274.769C160.246 274.839 160.086 274.875 159.924 274.875C159.762 274.875 159.602 274.839 159.456 274.769C159.309 274.7 159.18 274.599 159.078 274.473C157.968 272.965 156.522 271.735 154.855 270.883C153.187 270.03 151.344 269.577 149.471 269.561C143.194 269.561 137.9 274.364 136.535 282.06C136.448 282.555 136.469 283.062 136.599 283.548C136.728 284.033 136.963 284.484 137.285 284.869C137.608 285.254 138.011 285.564 138.466 285.776C138.921 285.989 139.417 286.099 139.919 286.099H225.724C226.226 286.099 226.722 285.989 227.177 285.776C227.632 285.564 228.035 285.254 228.358 284.869C228.681 284.484 228.915 284.033 229.044 283.548C229.174 283.062 229.196 282.555 229.108 282.06Z" fill="#FFF8BC"/>
</svg>
