<svg width="342" height="374" viewBox="0 0 342 374" fill="none" xmlns="http://www.w3.org/2000/svg">
<rect x="22.2578" y="112.6" width="319" height="216" rx="18.1689" fill="white"/>
<path d="M38.2578 282.6H113.258V304.743C113.258 309.635 109.293 313.6 104.402 313.6H47.1141C42.2229 313.6 38.2578 309.635 38.2578 304.743V282.6Z" fill="#FFE7C6"/>
<path d="M258.258 282.6H323.258V304.743C323.258 309.635 319.293 313.6 314.402 313.6H267.114C262.223 313.6 258.258 309.635 258.258 304.743V282.6Z" fill="#FFE7C6"/>
<path d="M275.688 294.378V290.6L269.488 297.212L275.688 303.825V299.952C280.116 299.952 283.215 301.463 285.43 304.77C284.544 300.046 281.887 295.323 275.688 294.378Z" fill="#B59568"/>
<path d="M308.813 291.037C307.396 291.037 306.084 291.769 305.258 292.857C304.431 291.769 303.119 291.037 301.702 291.037C299.252 291.037 297.258 293 297.258 295.412C297.258 300.217 304.479 304.715 304.788 304.904C304.932 304.992 305.095 305.037 305.258 305.037C305.42 305.037 305.584 304.992 305.728 304.904C306.036 304.715 313.258 300.217 313.258 295.412C313.258 293 311.264 291.037 308.813 291.037Z" fill="#B59568"/>
<path d="M22.1055 60.7685C22.1055 50.7341 30.24 42.5996 40.2743 42.5996L125.09 42.5996C135.124 42.5996 143.259 50.7341 143.259 60.7685V70.4833C143.259 80.5177 135.124 88.6522 125.09 88.6522H40.2743C30.24 88.6522 22.1055 80.5177 22.1055 70.4833V60.7685Z" fill="white"/>
<rect x="38.2578" y="147.6" width="285" height="31" rx="8.85626" fill="#FFE7C6"/>
<path fill-rule="evenodd" clip-rule="evenodd" d="M59.2578 295.6C59.2578 297.253 57.9123 298.6 56.2578 298.6C54.604 298.6 53.2578 297.253 53.2578 295.6C53.2578 293.946 54.6033 292.6 56.2578 292.6C57.9123 292.6 59.2578 293.946 59.2578 295.6ZM50.2578 303.85C50.2578 301.2 52.7253 299.35 56.2578 299.35C59.791 299.35 62.2578 301.2 62.2578 303.85V304.6H50.2578V303.85Z" fill="#B59568"/>
<path d="M63.7578 304.6H65.2578V303.85C65.2578 301.927 63.96 300.426 61.8987 299.746C63.0543 300.78 63.7578 302.199 63.7578 303.85V304.6Z" fill="#B59568"/>
<path d="M59.9203 298.526C61.257 298.223 62.2578 297.026 62.2578 295.599C62.2578 294.072 61.1097 292.807 59.6306 292.622C60.3319 293.416 60.7578 294.459 60.7578 295.599C60.7578 296.682 60.3744 297.676 59.7361 298.453C59.798 298.476 59.8594 298.501 59.9203 298.526Z" fill="#B59568"/>
<path d="M80.3381 301.265V303.6H72.4585V301.849L76.2037 298.33C76.9171 297.666 77.6629 297.017 77.6629 296.028C77.6629 295.25 77.1117 294.731 76.3172 294.731C75.4255 294.731 74.858 295.266 74.7608 296.482L72.2801 296.012C72.3936 293.823 73.9987 292.494 76.301 292.494C78.6033 292.494 80.2246 293.855 80.2246 296.012C80.2246 297.52 79.3978 298.46 77.9386 299.838L76.3821 301.265H80.3381ZM86.1902 292.494C89.06 292.494 90.9894 294.78 90.9894 298.168C90.9894 301.557 89.06 303.843 86.1902 303.843C83.3205 303.843 81.4073 301.557 81.4073 298.168C81.4073 294.78 83.3205 292.494 86.1902 292.494ZM86.1902 301.492C87.4711 301.492 88.298 300.211 88.298 298.168C88.298 296.141 87.4711 294.844 86.1902 294.844C84.9094 294.844 84.0987 296.141 84.0987 298.168C84.0987 300.211 84.9094 301.492 86.1902 301.492ZM96.2759 292.494C99.0484 292.494 100.881 294.472 100.881 297.974C100.881 299.903 100.443 301.476 99.3727 302.562C98.5944 303.356 97.5406 303.843 96.2435 303.843C94.3141 303.843 92.8549 302.902 92.4009 301.184L94.914 300.697C95.1248 301.395 95.6112 301.622 96.3408 301.622C96.8758 301.622 97.3298 301.378 97.6703 301.005C98.1729 300.454 98.3837 299.692 98.3999 298.8C97.8 299.417 96.892 299.789 95.9517 299.789C93.6332 299.789 92.174 298.314 92.174 296.19C92.174 294.034 93.8764 292.494 96.2759 292.494ZM96.3408 297.844C97.1677 297.844 97.9297 297.195 97.9297 296.239C97.9297 295.331 97.1677 294.682 96.3408 294.682C95.4977 294.682 94.7032 295.347 94.7032 296.271C94.7032 297.195 95.4977 297.844 96.3408 297.844Z" fill="#B59568"/>
<path d="M38.2578 199.456C38.2578 194.565 42.2229 190.6 47.1141 190.6H314.402C319.293 190.6 323.258 194.565 323.258 199.456V282.6H38.2578V199.456Z" fill="#FFE7C6"/>
<path d="M92.9415 158.327V169.008H90.3909V163.317L87.394 169.008H86.1824L83.1695 163.285V169.008H80.6189V158.327H83.2014L86.7882 165.102L90.375 158.327H92.9415ZM103.202 161.005V169.008H100.652V168.37C100.03 168.928 99.2012 169.247 98.165 169.247C96.0449 169.247 94.2594 167.541 94.2594 165.007C94.2594 162.488 96.0449 160.766 98.165 160.766C99.2012 160.766 100.03 161.085 100.652 161.643V161.005H103.202ZM98.6911 167.079C99.7273 167.079 100.652 166.25 100.652 165.007C100.652 163.779 99.7273 162.934 98.6911 162.934C97.5752 162.934 96.7622 163.779 96.7622 165.007C96.7622 166.25 97.5752 167.079 98.6911 167.079ZM113.637 160.989L109.014 171.718H106.256L107.547 168.737L104.232 160.989H106.973L108.87 165.66L110.895 160.989H113.637Z" fill="#B59568"/>
<path d="M67.1095 220.214H63.6503V228.6H61.0359V220.214H57.5766V217.919H67.1095V220.214ZM74.9146 224.598V225.252H69.0483C69.2555 226.208 69.9091 226.798 70.7699 226.798C71.3597 226.798 72.0452 226.655 72.4756 225.874L74.7393 226.336C74.0538 228.026 72.6032 228.839 70.7699 228.839C68.4584 228.839 66.5455 227.133 66.5455 224.598C66.5455 222.08 68.4584 220.358 70.7859 220.358C73.0495 220.358 74.8668 221.984 74.9146 224.598ZM70.7859 222.43C70.0685 222.43 69.3352 222.877 69.0961 223.69H72.3959C72.1568 222.829 71.5191 222.43 70.7859 222.43ZM78.7915 228.6H76.2409V217.122H78.7915V228.6ZM83.1971 228.6H80.6465V217.122H83.1971V228.6ZM96.7598 220.597V228.6H94.2092V227.834C93.6034 228.472 92.7585 228.839 91.7542 228.839C89.8891 228.839 88.6457 227.516 88.6457 225.507V220.597H91.1803V224.965C91.1803 225.906 91.7383 226.543 92.5513 226.543C93.5556 226.543 94.2092 225.858 94.2092 224.311V220.597H96.7598ZM98.0229 226.511L100.51 226.001C100.621 226.687 101.243 226.942 101.928 226.942C102.598 226.942 102.965 226.655 102.965 226.304C102.965 226.033 102.757 225.826 102.168 225.714L100.542 225.395C99.0591 225.124 98.2142 224.327 98.2142 223.068C98.2142 221.426 99.633 220.358 101.657 220.358C103.65 220.358 104.973 221.267 105.292 222.654L102.965 223.116C102.885 222.622 102.407 222.175 101.626 222.175C100.94 222.175 100.717 222.51 100.717 222.797C100.717 223.02 100.813 223.243 101.323 223.355L103.204 223.738C104.718 224.056 105.42 224.965 105.42 226.145C105.42 227.914 103.889 228.839 101.785 228.839C99.904 228.839 98.2939 228.153 98.0229 226.511ZM118.891 220.597V228.6H116.341V227.962C115.719 228.52 114.89 228.839 113.854 228.839C111.733 228.839 109.948 227.133 109.948 224.598C109.948 222.08 111.733 220.358 113.854 220.358C114.89 220.358 115.719 220.677 116.341 221.235V220.597H118.891ZM114.38 226.671C115.416 226.671 116.341 225.842 116.341 224.598C116.341 223.371 115.416 222.526 114.38 222.526C113.264 222.526 112.451 223.371 112.451 224.598C112.451 225.842 113.264 226.671 114.38 226.671ZM125.771 220.358C127.891 220.358 129.676 222.08 129.676 224.598C129.676 227.133 127.891 228.839 125.771 228.839C124.734 228.839 123.906 228.52 123.284 227.962V228.6H120.733V217.122H123.284V221.235C123.906 220.677 124.734 220.358 125.771 220.358ZM125.245 226.671C126.36 226.671 127.173 225.842 127.173 224.598C127.173 223.371 126.36 222.526 125.245 222.526C124.208 222.526 123.284 223.371 123.284 224.598C123.284 225.842 124.208 226.671 125.245 226.671ZM134.898 220.39C137.273 220.39 139.282 222.08 139.282 224.598C139.282 227.133 137.273 228.823 134.898 228.823C132.475 228.823 130.466 227.133 130.466 224.598C130.466 222.08 132.475 220.39 134.898 220.39ZM134.898 226.671C135.886 226.671 136.827 225.858 136.827 224.598C136.827 223.355 135.886 222.526 134.898 222.526C133.862 222.526 132.921 223.355 132.921 224.598C132.921 225.858 133.862 226.671 134.898 226.671ZM148.6 220.597V228.6H146.049V227.834C145.444 228.472 144.599 228.839 143.595 228.839C141.729 228.839 140.486 227.516 140.486 225.507V220.597H143.021V224.965C143.021 225.906 143.579 226.543 144.392 226.543C145.396 226.543 146.049 225.858 146.049 224.311V220.597H148.6ZM155.792 226.24L156.382 228.249C155.76 228.584 155.107 228.839 154.198 228.839C152.205 228.839 151.01 227.755 151.01 225.65V222.622H149.559V220.597H151.01V218.238H153.56V220.597H155.92V222.622H153.56V225.395C153.56 226.224 153.959 226.559 154.628 226.559C154.979 226.559 155.457 226.432 155.792 226.24ZM172.691 220.597L170.124 228.616H167.908L166.473 224.28L165.023 228.616H162.807L160.24 220.597H162.743L164.05 224.901L165.565 220.597H167.366L168.881 224.917L170.188 220.597H172.691ZM178.747 220.358C180.596 220.358 181.84 221.681 181.84 223.69V228.6H179.305V224.232C179.305 223.291 178.747 222.654 177.918 222.654C176.93 222.654 176.276 223.339 176.276 224.885V228.6H173.725V217.122H176.276V221.362C176.898 220.725 177.727 220.358 178.747 220.358ZM192.012 220.597V228.6H189.462V227.962C188.84 228.52 188.011 228.839 186.975 228.839C184.855 228.839 183.069 227.133 183.069 224.598C183.069 222.08 184.855 220.358 186.975 220.358C188.011 220.358 188.84 220.677 189.462 221.235V220.597H192.012ZM187.501 226.671C188.537 226.671 189.462 225.842 189.462 224.598C189.462 223.371 188.537 222.526 187.501 222.526C186.385 222.526 185.572 223.371 185.572 224.598C185.572 225.842 186.385 226.671 187.501 226.671ZM199.195 226.24L199.785 228.249C199.163 228.584 198.509 228.839 197.601 228.839C195.608 228.839 194.412 227.755 194.412 225.65V222.622H192.962V220.597H194.412V218.238H196.963V220.597H199.322V222.622H196.963V225.395C196.963 226.224 197.362 226.559 198.031 226.559C198.382 226.559 198.86 226.432 199.195 226.24ZM209.478 220.358C211.327 220.358 212.57 221.681 212.57 223.69V228.6H210.035V224.232C210.035 223.291 209.478 222.654 208.649 222.654C207.66 222.654 207.007 223.339 207.007 224.885V228.6H204.456V217.122H207.007V221.362C207.628 220.725 208.457 220.358 209.478 220.358ZM222.743 220.597V228.6H220.192V227.962C219.571 228.52 218.742 228.839 217.705 228.839C215.585 228.839 213.8 227.133 213.8 224.598C213.8 222.08 215.585 220.358 217.705 220.358C218.742 220.358 219.571 220.677 220.192 221.235V220.597H222.743ZM218.232 226.671C219.268 226.671 220.192 225.842 220.192 224.598C220.192 223.371 219.268 222.526 218.232 222.526C217.116 222.526 216.303 223.371 216.303 224.598C216.303 225.842 217.116 226.671 218.232 226.671ZM229.622 220.358C231.743 220.358 233.528 222.08 233.528 224.598C233.528 227.133 231.743 228.839 229.622 228.839C228.586 228.839 227.757 228.52 227.136 227.962V231.31H224.585V220.597H227.136V221.235C227.757 220.677 228.586 220.358 229.622 220.358ZM229.096 226.671C230.212 226.671 231.025 225.842 231.025 224.598C231.025 223.371 230.212 222.526 229.096 222.526C228.06 222.526 227.136 223.371 227.136 224.598C227.136 225.842 228.06 226.671 229.096 226.671ZM239.882 220.358C242.002 220.358 243.787 222.08 243.787 224.598C243.787 227.133 242.002 228.839 239.882 228.839C238.845 228.839 238.016 228.52 237.395 227.962V231.31H234.844V220.597H237.395V221.235C238.016 220.677 238.845 220.358 239.882 220.358ZM239.355 226.671C240.471 226.671 241.284 225.842 241.284 224.598C241.284 223.371 240.471 222.526 239.355 222.526C238.319 222.526 237.395 223.371 237.395 224.598C237.395 225.842 238.319 226.671 239.355 226.671ZM252.946 224.598V225.252H247.08C247.287 226.208 247.941 226.798 248.802 226.798C249.391 226.798 250.077 226.655 250.507 225.874L252.771 226.336C252.085 228.026 250.635 228.839 248.802 228.839C246.49 228.839 244.577 227.133 244.577 224.598C244.577 222.08 246.49 220.358 248.817 220.358C251.081 220.358 252.898 221.984 252.946 224.598ZM248.817 222.43C248.1 222.43 247.367 222.877 247.128 223.69H250.428C250.188 222.829 249.551 222.43 248.817 222.43ZM259.278 220.358C261.143 220.358 262.387 221.681 262.387 223.69V228.6H259.852V224.232C259.852 223.291 259.294 222.654 258.481 222.654C257.477 222.654 256.823 223.339 256.823 224.885V228.6H254.273V220.597H256.823V221.362C257.429 220.725 258.274 220.358 259.278 220.358ZM271.97 224.598V225.252H266.104C266.311 226.208 266.964 226.798 267.825 226.798C268.415 226.798 269.101 226.655 269.531 225.874L271.795 226.336C271.109 228.026 269.658 228.839 267.825 228.839C265.514 228.839 263.601 227.133 263.601 224.598C263.601 222.08 265.514 220.358 267.841 220.358C270.105 220.358 271.922 221.984 271.97 224.598ZM267.841 222.43C267.124 222.43 266.39 222.877 266.151 223.69H269.451C269.212 222.829 268.574 222.43 267.841 222.43ZM281.713 217.122V228.6H279.163V227.962C278.541 228.52 277.712 228.839 276.676 228.839C274.556 228.839 272.77 227.133 272.77 224.598C272.77 222.08 274.556 220.358 276.676 220.358C277.712 220.358 278.541 220.677 279.163 221.235V217.122H281.713ZM277.202 226.671C278.238 226.671 279.163 225.842 279.163 224.598C279.163 223.371 278.238 222.526 277.202 222.526C276.086 222.526 275.273 223.371 275.273 224.598C275.273 225.842 276.086 226.671 277.202 226.671ZM288.663 216.787C289.524 216.787 290.146 217.457 290.146 218.238C290.146 219.051 289.524 219.657 288.663 219.657C287.802 219.657 287.197 219.051 287.197 218.238C287.197 217.457 287.802 216.787 288.663 216.787ZM289.938 228.6H287.388V220.597H289.938V228.6ZM296.921 220.358C298.786 220.358 300.029 221.681 300.029 223.69V228.6H297.495V224.232C297.495 223.291 296.937 222.654 296.124 222.654C295.119 222.654 294.466 223.339 294.466 224.885V228.6H291.915V220.597H294.466V221.362C295.071 220.725 295.916 220.358 296.921 220.358ZM66.7748 242.581L62.1518 253.31H59.3939L60.6852 250.329L57.3694 242.581H60.1113L62.0083 247.252L64.0329 242.581H66.7748ZM71.4286 242.39C73.8039 242.39 75.8125 244.08 75.8125 246.598C75.8125 249.133 73.8039 250.823 71.4286 250.823C69.0055 250.823 66.9969 249.133 66.9969 246.598C66.9969 244.08 69.0055 242.39 71.4286 242.39ZM71.4286 248.671C72.417 248.671 73.3575 247.858 73.3575 246.598C73.3575 245.355 72.417 244.526 71.4286 244.526C70.3924 244.526 69.4519 245.355 69.4519 246.598C69.4519 247.858 70.3924 248.671 71.4286 248.671ZM85.1308 242.597V250.6H82.5802V249.834C81.9744 250.472 81.1295 250.839 80.1252 250.839C78.2601 250.839 77.0166 249.516 77.0166 247.507V242.597H79.5513V246.965C79.5513 247.906 80.1093 248.543 80.9223 248.543C81.9266 248.543 82.5802 247.858 82.5802 246.311V242.597H85.1308ZM92.291 242.486C92.5142 242.486 92.6736 242.501 92.8649 242.549L92.7533 245.1H92.291C90.5056 245.1 89.5332 246.024 89.5332 248.097V250.6H86.9826V242.597H89.5332V244.127C90.107 243.171 90.9838 242.486 92.291 242.486ZM101.488 248.607C102.301 248.607 102.955 248.177 103.226 247.204L105.569 247.714C105.171 249.611 103.481 250.839 101.488 250.839C99.0971 250.839 97.1203 249.133 97.1203 246.598C97.1203 244.08 99.0971 242.358 101.488 242.358C103.433 242.358 105.123 243.554 105.569 245.435L103.178 246.009C102.955 245.036 102.301 244.59 101.488 244.59C100.34 244.59 99.5753 245.435 99.5753 246.598C99.5753 247.778 100.34 248.607 101.488 248.607ZM110.799 242.39C113.174 242.39 115.183 244.08 115.183 246.598C115.183 249.133 113.174 250.823 110.799 250.823C108.376 250.823 106.368 249.133 106.368 246.598C106.368 244.08 108.376 242.39 110.799 242.39ZM110.799 248.671C111.788 248.671 112.728 247.858 112.728 246.598C112.728 245.355 111.788 244.526 110.799 244.526C109.763 244.526 108.822 245.355 108.822 246.598C108.822 247.858 109.763 248.671 110.799 248.671ZM126.861 242.358C128.566 242.358 129.921 243.649 129.921 245.594V250.6H127.387V246.136C127.387 245.227 126.797 244.654 126.048 244.654C125.107 244.654 124.485 245.339 124.485 246.678V250.6H121.935V246.136C121.935 245.227 121.345 244.654 120.58 244.654C119.655 244.654 119.049 245.339 119.049 246.678V250.6H116.499V242.597H119.049V243.33C119.591 242.725 120.373 242.358 121.409 242.358C122.525 242.358 123.481 242.836 124.023 243.713C124.661 242.884 125.617 242.358 126.861 242.358ZM142.024 242.358C143.729 242.358 145.084 243.649 145.084 245.594V250.6H142.55V246.136C142.55 245.227 141.96 244.654 141.211 244.654C140.27 244.654 139.648 245.339 139.648 246.678V250.6H137.098V246.136C137.098 245.227 136.508 244.654 135.743 244.654C134.818 244.654 134.212 245.339 134.212 246.678V250.6H131.662V242.597H134.212V243.33C134.754 242.725 135.535 242.358 136.572 242.358C137.688 242.358 138.644 242.836 139.186 243.713C139.824 242.884 140.78 242.358 142.024 242.358ZM154.765 242.597V250.6H152.214V249.834C151.608 250.472 150.764 250.839 149.759 250.839C147.894 250.839 146.651 249.516 146.651 247.507V242.597H149.185V246.965C149.185 247.906 149.743 248.543 150.556 248.543C151.561 248.543 152.214 247.858 152.214 246.311V242.597H154.765ZM161.622 242.358C163.487 242.358 164.731 243.681 164.731 245.69V250.6H162.196V246.232C162.196 245.291 161.638 244.654 160.825 244.654C159.821 244.654 159.167 245.339 159.167 246.885V250.6H156.617V242.597H159.167V243.362C159.773 242.725 160.618 242.358 161.622 242.358ZM167.874 238.787C168.735 238.787 169.356 239.457 169.356 240.238C169.356 241.051 168.735 241.657 167.874 241.657C167.013 241.657 166.407 241.051 166.407 240.238C166.407 239.457 167.013 238.787 167.874 238.787ZM169.149 250.6H166.599V242.597H169.149V250.6ZM176.466 248.24L177.056 250.249C176.434 250.584 175.781 250.839 174.872 250.839C172.879 250.839 171.684 249.755 171.684 247.65V244.622H170.233V242.597H171.684V240.238H174.234V242.597H176.594V244.622H174.234V247.395C174.234 248.224 174.633 248.559 175.302 248.559C175.653 248.559 176.131 248.432 176.466 248.24ZM186.615 242.581L181.992 253.31H179.234L180.525 250.329L177.209 242.581H179.951L181.848 247.252L183.873 242.581H186.615ZM196.688 248.24L197.278 250.249C196.657 250.584 196.003 250.839 195.094 250.839C193.102 250.839 191.906 249.755 191.906 247.65V244.622H190.455V242.597H191.906V240.238H194.457V242.597H196.816V244.622H194.457V247.395C194.457 248.224 194.855 248.559 195.525 248.559C195.875 248.559 196.354 248.432 196.688 248.24ZM203.266 242.358C205.115 242.358 206.359 243.681 206.359 245.69V250.6H203.824V246.232C203.824 245.291 203.266 244.654 202.437 244.654C201.449 244.654 200.795 245.339 200.795 246.885V250.6H198.245V239.122H200.795V243.362C201.417 242.725 202.246 242.358 203.266 242.358ZM209.517 238.787C210.378 238.787 211 239.457 211 240.238C211 241.051 210.378 241.657 209.517 241.657C208.656 241.657 208.051 241.051 208.051 240.238C208.051 239.457 208.656 238.787 209.517 238.787ZM210.793 250.6H208.242V242.597H210.793V250.6ZM212.227 248.511L214.714 248.001C214.826 248.687 215.447 248.942 216.133 248.942C216.802 248.942 217.169 248.655 217.169 248.304C217.169 248.033 216.962 247.826 216.372 247.714L214.746 247.395C213.263 247.124 212.418 246.327 212.418 245.068C212.418 243.426 213.837 242.358 215.862 242.358C217.854 242.358 219.178 243.267 219.496 244.654L217.169 245.116C217.089 244.622 216.611 244.175 215.83 244.175C215.144 244.175 214.921 244.51 214.921 244.797C214.921 245.02 215.017 245.243 215.527 245.355L217.408 245.738C218.922 246.056 219.624 246.965 219.624 248.145C219.624 249.914 218.094 250.839 215.989 250.839C214.108 250.839 212.498 250.153 212.227 248.511ZM235.04 242.358C236.746 242.358 238.101 243.649 238.101 245.594V250.6H235.566V246.136C235.566 245.227 234.976 244.654 234.227 244.654C233.287 244.654 232.665 245.339 232.665 246.678V250.6H230.114V246.136C230.114 245.227 229.525 244.654 228.759 244.654C227.835 244.654 227.229 245.339 227.229 246.678V250.6H224.678V242.597H227.229V243.33C227.771 242.725 228.552 242.358 229.588 242.358C230.704 242.358 231.661 242.836 232.203 243.713C232.84 242.884 233.797 242.358 235.04 242.358ZM243.747 242.39C246.122 242.39 248.131 244.08 248.131 246.598C248.131 249.133 246.122 250.823 243.747 250.823C241.324 250.823 239.315 249.133 239.315 246.598C239.315 244.08 241.324 242.39 243.747 242.39ZM243.747 248.671C244.735 248.671 245.676 247.858 245.676 246.598C245.676 245.355 244.735 244.526 243.747 244.526C242.711 244.526 241.77 245.355 241.77 246.598C241.77 247.858 242.711 248.671 243.747 248.671ZM254.452 242.358C256.317 242.358 257.561 243.681 257.561 245.69V250.6H255.026V246.232C255.026 245.291 254.468 244.654 253.655 244.654C252.651 244.654 251.997 245.339 251.997 246.885V250.6H249.447V242.597H251.997V243.362C252.603 242.725 253.448 242.358 254.452 242.358ZM264.641 248.24L265.231 250.249C264.609 250.584 263.956 250.839 263.047 250.839C261.054 250.839 259.859 249.755 259.859 247.65V244.622H258.408V242.597H259.859V240.238H262.409V242.597H264.769V244.622H262.409V247.395C262.409 248.224 262.808 248.559 263.477 248.559C263.828 248.559 264.306 248.432 264.641 248.24ZM271.219 242.358C273.068 242.358 274.311 243.681 274.311 245.69V250.6H271.777V246.232C271.777 245.291 271.219 244.654 270.39 244.654C269.402 244.654 268.748 245.339 268.748 246.885V250.6H266.197V239.122H268.748V243.362C269.37 242.725 270.199 242.358 271.219 242.358ZM278.937 239.919V240.413L278.777 246.949H276.259L276.099 240.413V239.919H278.937ZM277.55 247.858C278.395 247.858 279 248.511 279 249.276C279 250.074 278.395 250.679 277.55 250.679C276.689 250.679 276.083 250.074 276.083 249.276C276.083 248.511 276.689 247.858 277.55 247.858Z" fill="#B59568"/>
<circle cx="59.8906" cy="163.045" r="10.0371" fill="#FFBF65"/>
<path d="M50.3397 93.129L49.6336 97.0595H45.7163L46.4224 93.129L34.664 93.1285L32.5874 104.689H36.9162V108.542H31.9008L30.6533 115.454C30.5703 115.914 30.1638 116.249 29.6888 116.249H27.7603C27.1508 116.249 26.6893 115.707 26.7958 115.117L27.9825 108.542H21.3119C20.7033 108.542 20.2421 108.002 20.347 107.413L20.6898 105.486C20.7718 105.025 21.1789 104.689 21.6547 104.689H28.6682L30.7449 93.1285H24.0743C23.4657 93.1285 23.0044 92.5886 23.1093 91.9991L23.4522 90.0724C23.5342 89.6115 23.9412 89.2752 24.4171 89.2752H31.4306L32.6781 82.3634C32.7611 81.9035 33.1676 81.5684 33.6426 81.5684H35.5711C36.1805 81.5684 36.6421 82.1099 36.5355 82.7001L35.3489 89.2752L47.1071 89.2756L48.3546 82.3638C48.4376 81.9039 48.8441 81.5688 49.3191 81.5688H51.2476C51.857 81.5688 52.3186 82.1104 52.212 82.7006L51.0254 89.2756H57.696C58.3046 89.2756 58.7658 89.8156 58.661 90.4051L58.3181 92.3317C58.2361 92.7927 57.829 93.129 57.3532 93.129H50.3397Z" fill="white"/>
<path d="M42.5633 100.759C41.5246 100.759 40.6825 101.587 40.6825 102.609V114.75C40.6825 115.771 41.5246 116.599 42.5633 116.599H44.4441C44.7039 116.599 44.9143 116.806 44.9143 117.062V120.989C44.9143 121.39 45.3974 121.601 45.6997 121.332L50.4898 117.076C50.8354 116.769 51.2848 116.599 51.7507 116.599H60.4306C61.4694 116.599 62.3114 115.771 62.3114 114.75V102.609C62.3114 101.587 61.4694 100.759 60.4306 100.759H42.5633Z" fill="white"/>
<rect x="0.257812" y="65.627" width="165.414" height="63.7975" rx="18.1689" fill="#FFE7C6"/>
<path d="M46.0655 90.3805L45.46 93.7311H42.1007L42.7062 90.3805L32.6226 90.3801L30.8418 100.235H34.554V103.52H30.253L29.1832 109.412C29.112 109.804 28.7634 110.089 28.3561 110.089H26.7022C26.1796 110.089 25.7838 109.628 25.8751 109.125L26.8928 103.52H21.1723C20.6504 103.52 20.2549 103.059 20.3448 102.557L20.6388 100.914C20.7092 100.521 21.0582 100.235 21.4663 100.235H27.4809L29.2617 90.3801H23.5412C23.0194 90.3801 22.6238 89.9198 22.7137 89.4173L23.0078 87.7748C23.0781 87.3819 23.4272 87.0952 23.8352 87.0952H29.8498L30.9196 81.2031C30.9908 80.811 31.3394 80.5254 31.7467 80.5254H33.4005C33.9231 80.5254 34.3189 80.987 34.2275 81.4901L33.2099 87.0952L43.2934 87.0956L44.3632 81.2035C44.4344 80.8115 44.783 80.5258 45.1903 80.5258H46.8441C47.3667 80.5258 47.7626 80.9875 47.6712 81.4906L46.6535 87.0956H52.3741C52.8959 87.0956 53.2915 87.5559 53.2015 88.0584L52.9075 89.7008C52.8372 90.0938 52.4881 90.3805 52.08 90.3805H46.0655Z" fill="#B59568"/>
<path d="M39.3968 96.8851C38.506 96.8851 37.7839 97.591 37.7839 98.4619V108.811C37.7839 109.682 38.506 110.388 39.3968 110.388H41.0096C41.2324 110.388 41.4129 110.565 41.4129 110.782V114.13C41.4129 114.472 41.8272 114.652 42.0864 114.423L46.1942 110.795C46.4906 110.533 46.876 110.388 47.2755 110.388H54.7192C55.6099 110.388 56.332 109.682 56.332 108.811V98.4619C56.332 97.591 55.6099 96.8851 54.7192 96.8851H39.3968Z" fill="#B59568"/>
<path d="M73.163 103.445C74.6239 103.445 75.7984 102.671 76.2854 100.924L80.4965 101.84C79.7803 105.249 76.7438 107.455 73.163 107.455C68.866 107.455 65.3138 104.39 65.3138 99.8351C65.3138 95.309 68.866 92.2152 73.163 92.2152C76.6578 92.2152 79.6943 94.3636 80.4965 97.7439L76.1995 98.7752C75.7984 97.0278 74.6239 96.2257 73.163 96.2257C71.1004 96.2257 69.7254 97.7439 69.7254 99.8351C69.7254 101.955 71.1004 103.445 73.163 103.445ZM98.0017 92.6449V107.025H93.4183V105.88C92.301 106.882 90.8114 107.455 88.9494 107.455C85.1394 107.455 81.931 104.39 81.931 99.8351C81.931 95.309 85.1394 92.2152 88.9494 92.2152C90.8114 92.2152 92.301 92.7881 93.4183 93.7907V92.6449H98.0017ZM89.8947 103.559C91.7568 103.559 93.4183 102.07 93.4183 99.8351C93.4183 97.6293 91.7568 96.1111 89.8947 96.1111C87.8895 96.1111 86.4285 97.6293 86.4285 99.8351C86.4285 102.07 87.8895 103.559 89.8947 103.559ZM119.932 92.2152C122.997 92.2152 125.432 94.5355 125.432 98.0304V107.025H120.877V99.0044C120.877 97.3715 119.818 96.3403 118.471 96.3403C116.781 96.3403 115.664 97.5721 115.664 99.9784V107.025H111.08V99.0044C111.08 97.3715 110.02 96.3403 108.645 96.3403C106.984 96.3403 105.895 97.5721 105.895 99.9784V107.025H101.312V92.6449H105.895V93.9626C106.869 92.874 108.273 92.2152 110.135 92.2152C112.14 92.2152 113.859 93.0746 114.833 94.6501C115.979 93.1605 117.698 92.2152 119.932 92.2152ZM137.612 92.2152C141.422 92.2152 144.63 95.309 144.63 99.8351C144.63 104.39 141.422 107.455 137.612 107.455C135.75 107.455 134.26 106.882 133.143 105.88V111.895H128.56V92.6449H133.143V93.7907C134.26 92.7881 135.75 92.2152 137.612 92.2152ZM136.667 103.559C138.672 103.559 140.133 102.07 140.133 99.8351C140.133 97.6293 138.672 96.1111 136.667 96.1111C134.805 96.1111 133.143 97.6293 133.143 99.8351C133.143 102.07 134.805 103.559 136.667 103.559Z" fill="#B59568"/>
<path d="M238.163 320.13C235.706 313.361 230.357 309.322 224.135 309.322H139.749C133.691 309.541 128.505 313.525 126.158 320.13C125.818 321.092 125.713 322.121 125.853 323.132C125.992 324.142 126.372 325.105 126.96 325.939C127.548 326.772 128.327 327.453 129.232 327.924C130.137 328.395 131.142 328.642 132.162 328.645H232.158C233.179 328.642 234.183 328.395 235.089 327.924C235.994 327.453 236.773 326.772 237.361 325.939C237.949 325.105 238.328 324.142 238.468 323.132C238.607 322.121 238.503 321.092 238.163 320.13Z" fill="#F4C480"/>
<path d="M141.386 320.021L223.315 320.894C225.826 316.255 227.3 309.159 221.842 303.482C218.075 299.552 214.364 298.242 214.364 291.365C214.364 284.487 211.253 280.175 204.812 278.975C205.547 280.768 205.694 282.749 205.233 284.632C204.773 286.515 203.727 288.203 202.246 289.454C199.845 291.419 196.078 291.747 193.622 289.018C191.166 286.289 192.258 281.267 192.858 276.737C193.622 270.787 191.166 265.056 185.216 262.6C185.981 265.056 186.308 268.058 184.561 269.968C182.815 271.879 179.649 272.807 177.411 275.372C175.926 277.139 174.762 279.153 173.972 281.322C173.099 283.559 171.079 284.924 169.114 284.214C167.149 283.505 166.877 279.247 168.459 277.173C166.604 277.119 160.381 278.92 159.562 287.053C158.798 294.094 160.872 296.059 158.853 298.515C157.652 299.989 154.814 300.207 153.34 298.624C151.866 297.041 152.63 292.184 152.63 292.184C148.919 292.948 143.188 297.151 140.84 303.919C138.057 311.943 141.386 320.021 141.386 320.021Z" fill="#F8A630"/>
<path d="M176.977 307.031C175.987 307.17 175.035 307.504 174.175 308.011C173.315 308.519 172.563 309.191 171.962 309.989C171.361 310.788 170.924 311.697 170.674 312.664C170.425 313.631 170.369 314.638 170.508 315.627C170.648 316.617 170.981 317.569 171.489 318.429C171.997 319.289 172.669 320.041 173.467 320.642C175.079 321.855 177.108 322.378 179.105 322.096L217.204 316.746L215.021 301.627L176.977 307.031Z" fill="#602C24"/>
<path d="M208.579 310.251C208.876 312.249 209.947 314.05 211.561 315.265C213.174 316.48 215.2 317.012 217.203 316.746L215.019 301.627C213.025 301.924 211.229 302.997 210.023 304.613C208.817 306.228 208.297 308.255 208.579 310.251V310.251Z" fill="#753E36"/>
<path d="M163.545 304.137C161.924 305.184 160.76 306.806 160.285 308.677C159.811 310.548 160.062 312.529 160.988 314.222C161.914 315.915 163.447 317.195 165.278 317.805C167.109 318.415 169.103 318.309 170.859 317.509L204.592 299.115L197.332 285.742L163.545 304.137Z" fill="#76382F"/>
<path d="M194.273 296.058C194.748 296.938 195.391 297.716 196.168 298.346C196.944 298.977 197.837 299.448 198.796 299.732C199.754 300.016 200.76 300.107 201.754 300.002C202.748 299.896 203.712 299.595 204.589 299.115L197.33 285.742C196.45 286.217 195.672 286.861 195.042 287.637C194.411 288.413 193.94 289.306 193.656 290.265C193.372 291.223 193.281 292.229 193.386 293.223C193.492 294.217 193.794 295.181 194.273 296.058V296.058Z" fill="#9B5248"/>
<path d="M194.388 325.317C196.334 325.583 198.308 325.091 199.9 323.94C201.493 322.79 202.581 321.071 202.939 319.139C203.297 317.208 202.898 315.213 201.824 313.568C200.75 311.923 199.084 310.755 197.171 310.306L151.649 301.955L148.92 316.911L194.388 325.317Z" fill="#8B4339"/>
<path d="M157.762 310.798C157.944 309.815 157.929 308.807 157.72 307.83C157.51 306.854 157.11 305.928 156.542 305.107C155.974 304.285 155.249 303.584 154.41 303.043C153.57 302.502 152.632 302.133 151.649 301.955L148.92 316.911C149.902 317.092 150.91 317.077 151.887 316.868C152.864 316.659 153.789 316.258 154.611 315.69C155.432 315.122 156.133 314.398 156.674 313.558C157.215 312.719 157.585 311.78 157.762 310.798V310.798Z" fill="#A55D54"/>
<path d="M229.264 324.662C227.9 316.965 222.66 312.162 216.383 312.162C212.289 312.162 208.686 314.182 206.23 317.675C206.15 317.805 206.042 317.915 205.914 317.998C205.786 318.082 205.641 318.136 205.49 318.156C205.339 318.177 205.185 318.165 205.039 318.119C204.894 318.074 204.76 317.997 204.647 317.893C201.946 315.523 198.419 314.314 194.832 314.529C191.245 314.744 187.888 316.364 185.489 319.04C185.384 319.169 185.251 319.271 185.098 319.338C184.946 319.405 184.78 319.435 184.614 319.424C184.448 319.413 184.288 319.363 184.145 319.277C184.003 319.191 183.883 319.072 183.797 318.93C182.615 317.04 181.007 315.453 179.103 314.294C177.198 313.136 175.049 312.438 172.828 312.258C170.606 312.078 168.372 312.419 166.306 313.256C164.24 314.092 162.397 315.4 160.926 317.075C160.824 317.2 160.695 317.301 160.549 317.371C160.402 317.44 160.242 317.476 160.08 317.476C159.918 317.476 159.758 317.44 159.612 317.371C159.466 317.301 159.337 317.2 159.234 317.075C158.124 315.566 156.678 314.337 155.011 313.484C153.343 312.632 151.5 312.179 149.628 312.162C143.351 312.162 138.056 316.965 136.691 324.662C136.604 325.156 136.626 325.664 136.755 326.149C136.885 326.634 137.119 327.085 137.442 327.47C137.764 327.855 138.167 328.165 138.622 328.378C139.077 328.59 139.573 328.701 140.076 328.701H225.88C226.382 328.701 226.878 328.59 227.334 328.378C227.789 328.165 228.192 327.855 228.514 327.47C228.837 327.085 229.071 326.634 229.201 326.149C229.33 325.664 229.352 325.156 229.264 324.662V324.662Z" fill="#F4C480"/>
</svg>
