<svg width="342" height="374" viewBox="0 0 342 374" fill="none" xmlns="http://www.w3.org/2000/svg">
<rect x="21.999" y="112.6" width="319" height="216" rx="18.1689" fill="#191A34"/>
<path d="M37.999 282.6H112.999V304.743C112.999 309.635 109.034 313.6 104.143 313.6H46.8553C41.9641 313.6 37.999 309.635 37.999 304.743V282.6Z" fill="#101126"/>
<path d="M257.999 282.6H322.999V304.743C322.999 309.635 319.034 313.6 314.143 313.6H266.855C261.964 313.6 257.999 309.635 257.999 304.743V282.6Z" fill="#101126"/>
<path d="M275.429 294.378V290.6L269.229 297.212L275.429 303.825V299.952C279.857 299.952 282.957 301.463 285.171 304.77C284.285 300.046 281.628 295.323 275.429 294.378Z" fill="#C3C4D9"/>
<path d="M308.555 291.037C307.138 291.037 305.826 291.769 304.999 292.857C304.172 291.769 302.86 291.037 301.443 291.037C298.993 291.037 296.999 293 296.999 295.412C296.999 300.217 304.22 304.715 304.529 304.904C304.673 304.992 304.836 305.037 304.999 305.037C305.162 305.037 305.325 304.992 305.469 304.904C305.778 304.715 312.999 300.217 312.999 295.412C312.999 293 311.005 291.037 308.555 291.037Z" fill="#C3C4D9"/>
<path d="M21.8467 60.7685C21.8467 50.7341 29.9812 42.5996 40.0156 42.5996L124.831 42.5996C134.866 42.5996 143 50.7341 143 60.7685V70.4833C143 80.5177 134.866 88.6522 124.831 88.6522H40.0156C29.9812 88.6522 21.8467 80.5177 21.8467 70.4833V60.7685Z" fill="#191A34"/>
<rect x="37.999" y="147.6" width="285" height="31" rx="8.85626" fill="#101126"/>
<path fill-rule="evenodd" clip-rule="evenodd" d="M58.999 295.6C58.999 297.253 57.6535 298.6 55.999 298.6C54.3453 298.6 52.999 297.253 52.999 295.6C52.999 293.946 54.3445 292.6 55.999 292.6C57.6535 292.6 58.999 293.946 58.999 295.6ZM49.999 303.85C49.999 301.2 52.4665 299.35 55.999 299.35C59.5322 299.35 61.999 301.2 61.999 303.85V304.6H49.999V303.85Z" fill="#C3C4D9"/>
<path d="M63.499 304.6H64.999V303.85C64.999 301.927 63.7012 300.426 61.6399 299.746C62.7955 300.78 63.499 302.199 63.499 303.85V304.6Z" fill="#C3C4D9"/>
<path d="M59.6615 298.526C60.9982 298.223 61.999 297.026 61.999 295.599C61.999 294.072 60.8509 292.807 59.3718 292.622C60.0731 293.416 60.499 294.459 60.499 295.599C60.499 296.682 60.1156 297.676 59.4773 298.453C59.5392 298.476 59.6006 298.501 59.6615 298.526Z" fill="#C3C4D9"/>
<path d="M80.0793 301.265V303.6H72.1997V301.849L75.9449 298.33C76.6583 297.666 77.4041 297.017 77.4041 296.028C77.4041 295.25 76.8529 294.731 76.0584 294.731C75.1667 294.731 74.5992 295.266 74.502 296.482L72.0213 296.012C72.1348 293.823 73.7399 292.494 76.0422 292.494C78.3445 292.494 79.9658 293.855 79.9658 296.012C79.9658 297.52 79.139 298.46 77.6798 299.838L76.1233 301.265H80.0793ZM85.9315 292.494C88.8012 292.494 90.7306 294.78 90.7306 298.168C90.7306 301.557 88.8012 303.843 85.9315 303.843C83.0617 303.843 81.1485 301.557 81.1485 298.168C81.1485 294.78 83.0617 292.494 85.9315 292.494ZM85.9315 301.492C87.2123 301.492 88.0392 300.211 88.0392 298.168C88.0392 296.141 87.2123 294.844 85.9315 294.844C84.6506 294.844 83.8399 296.141 83.8399 298.168C83.8399 300.211 84.6506 301.492 85.9315 301.492ZM96.0171 292.494C98.7896 292.494 100.622 294.472 100.622 297.974C100.622 299.903 100.184 301.476 99.1139 302.562C98.3356 303.356 97.2818 303.843 95.9847 303.843C94.0553 303.843 92.5961 302.902 92.1422 301.184L94.6552 300.697C94.866 301.395 95.3524 301.622 96.082 301.622C96.617 301.622 97.071 301.378 97.4115 301.005C97.9141 300.454 98.1249 299.692 98.1411 298.8C97.5412 299.417 96.6332 299.789 95.6929 299.789C93.3744 299.789 91.9152 298.314 91.9152 296.19C91.9152 294.034 93.6176 292.494 96.0171 292.494ZM96.082 297.844C96.9089 297.844 97.6709 297.195 97.6709 296.239C97.6709 295.331 96.9089 294.682 96.082 294.682C95.2389 294.682 94.4444 295.347 94.4444 296.271C94.4444 297.195 95.2389 297.844 96.082 297.844Z" fill="#C3C4D9"/>
<path d="M37.999 199.456C37.999 194.565 41.9641 190.6 46.8553 190.6H314.143C319.034 190.6 322.999 194.565 322.999 199.456V282.6H37.999V199.456Z" fill="#101126"/>
<path d="M92.6827 158.327V169.008H90.1321V163.317L87.1352 169.008H85.9236L82.9107 163.285V169.008H80.3601V158.327H82.9426L86.5294 165.102L90.1162 158.327H92.6827ZM102.944 161.005V169.008H100.393V168.37C99.7714 168.928 98.9424 169.247 97.9063 169.247C95.7861 169.247 94.0006 167.541 94.0006 165.007C94.0006 162.488 95.7861 160.766 97.9063 160.766C98.9424 160.766 99.7714 161.085 100.393 161.643V161.005H102.944ZM98.4323 167.079C99.4685 167.079 100.393 166.25 100.393 165.007C100.393 163.779 99.4685 162.934 98.4323 162.934C97.3164 162.934 96.5034 163.779 96.5034 165.007C96.5034 166.25 97.3164 167.079 98.4323 167.079ZM113.378 160.989L108.755 171.718H105.997L107.289 168.737L103.973 160.989H106.715L108.612 165.66L110.636 160.989H113.378Z" fill="#F8A630"/>
<path d="M66.8507 220.214H63.3915V228.6H60.7771V220.214H57.3178V217.919H66.8507V220.214ZM74.6559 224.598V225.252H68.7895C68.9967 226.208 69.6503 226.798 70.5111 226.798C71.1009 226.798 71.7864 226.655 72.2168 225.874L74.4805 226.336C73.795 228.026 72.3444 228.839 70.5111 228.839C68.1996 228.839 66.2867 227.133 66.2867 224.598C66.2867 222.08 68.1996 220.358 70.5271 220.358C72.7907 220.358 74.608 221.984 74.6559 224.598ZM70.5271 222.43C69.8097 222.43 69.0764 222.877 68.8373 223.69H72.1371C71.898 222.829 71.2604 222.43 70.5271 222.43ZM78.5327 228.6H75.9821V217.122H78.5327V228.6ZM82.9383 228.6H80.3877V217.122H82.9383V228.6ZM96.501 220.597V228.6H93.9504V227.834C93.3446 228.472 92.4997 228.839 91.4954 228.839C89.6303 228.839 88.3869 227.516 88.3869 225.507V220.597H90.9216V224.965C90.9216 225.906 91.4795 226.543 92.2925 226.543C93.2968 226.543 93.9504 225.858 93.9504 224.311V220.597H96.501ZM97.7641 226.511L100.251 226.001C100.363 226.687 100.984 226.942 101.67 226.942C102.339 226.942 102.706 226.655 102.706 226.304C102.706 226.033 102.499 225.826 101.909 225.714L100.283 225.395C98.8003 225.124 97.9554 224.327 97.9554 223.068C97.9554 221.426 99.3742 220.358 101.399 220.358C103.391 220.358 104.714 221.267 105.033 222.654L102.706 223.116C102.626 222.622 102.148 222.175 101.367 222.175C100.681 222.175 100.458 222.51 100.458 222.797C100.458 223.02 100.554 223.243 101.064 223.355L102.945 223.738C104.459 224.056 105.161 224.965 105.161 226.145C105.161 227.914 103.63 228.839 101.526 228.839C99.6452 228.839 98.0351 228.153 97.7641 226.511ZM118.632 220.597V228.6H116.082V227.962C115.46 228.52 114.631 228.839 113.595 228.839C111.475 228.839 109.689 227.133 109.689 224.598C109.689 222.08 111.475 220.358 113.595 220.358C114.631 220.358 115.46 220.677 116.082 221.235V220.597H118.632ZM114.121 226.671C115.157 226.671 116.082 225.842 116.082 224.598C116.082 223.371 115.157 222.526 114.121 222.526C113.005 222.526 112.192 223.371 112.192 224.598C112.192 225.842 113.005 226.671 114.121 226.671ZM125.512 220.358C127.632 220.358 129.417 222.08 129.417 224.598C129.417 227.133 127.632 228.839 125.512 228.839C124.476 228.839 123.647 228.52 123.025 227.962V228.6H120.474V217.122H123.025V221.235C123.647 220.677 124.476 220.358 125.512 220.358ZM124.986 226.671C126.102 226.671 126.915 225.842 126.915 224.598C126.915 223.371 126.102 222.526 124.986 222.526C123.95 222.526 123.025 223.371 123.025 224.598C123.025 225.842 123.95 226.671 124.986 226.671ZM134.639 220.39C137.014 220.39 139.023 222.08 139.023 224.598C139.023 227.133 137.014 228.823 134.639 228.823C132.216 228.823 130.207 227.133 130.207 224.598C130.207 222.08 132.216 220.39 134.639 220.39ZM134.639 226.671C135.627 226.671 136.568 225.858 136.568 224.598C136.568 223.355 135.627 222.526 134.639 222.526C133.603 222.526 132.662 223.355 132.662 224.598C132.662 225.858 133.603 226.671 134.639 226.671ZM148.341 220.597V228.6H145.791V227.834C145.185 228.472 144.34 228.839 143.336 228.839C141.471 228.839 140.227 227.516 140.227 225.507V220.597H142.762V224.965C142.762 225.906 143.32 226.543 144.133 226.543C145.137 226.543 145.791 225.858 145.791 224.311V220.597H148.341ZM155.533 226.24L156.123 228.249C155.502 228.584 154.848 228.839 153.939 228.839C151.947 228.839 150.751 227.755 150.751 225.65V222.622H149.3V220.597H150.751V218.238H153.302V220.597H155.661V222.622H153.302V225.395C153.302 226.224 153.7 226.559 154.37 226.559C154.72 226.559 155.199 226.432 155.533 226.24ZM172.432 220.597L169.865 228.616H167.649L166.215 224.28L164.764 228.616H162.548L159.982 220.597H162.484L163.792 224.901L165.306 220.597H167.107L168.622 224.917L169.929 220.597H172.432ZM178.488 220.358C180.337 220.358 181.581 221.681 181.581 223.69V228.6H179.046V224.232C179.046 223.291 178.488 222.654 177.659 222.654C176.671 222.654 176.017 223.339 176.017 224.885V228.6H173.467V217.122H176.017V221.362C176.639 220.725 177.468 220.358 178.488 220.358ZM191.754 220.597V228.6H189.203V227.962C188.581 228.52 187.752 228.839 186.716 228.839C184.596 228.839 182.811 227.133 182.811 224.598C182.811 222.08 184.596 220.358 186.716 220.358C187.752 220.358 188.581 220.677 189.203 221.235V220.597H191.754ZM187.242 226.671C188.278 226.671 189.203 225.842 189.203 224.598C189.203 223.371 188.278 222.526 187.242 222.526C186.126 222.526 185.313 223.371 185.313 224.598C185.313 225.842 186.126 226.671 187.242 226.671ZM198.936 226.24L199.526 228.249C198.904 228.584 198.251 228.839 197.342 228.839C195.349 228.839 194.154 227.755 194.154 225.65V222.622H192.703V220.597H194.154V218.238H196.704V220.597H199.064V222.622H196.704V225.395C196.704 226.224 197.103 226.559 197.772 226.559C198.123 226.559 198.601 226.432 198.936 226.24ZM209.219 220.358C211.068 220.358 212.311 221.681 212.311 223.69V228.6H209.777V224.232C209.777 223.291 209.219 222.654 208.39 222.654C207.401 222.654 206.748 223.339 206.748 224.885V228.6H204.197V217.122H206.748V221.362C207.37 220.725 208.199 220.358 209.219 220.358ZM222.484 220.597V228.6H219.934V227.962C219.312 228.52 218.483 228.839 217.447 228.839C215.327 228.839 213.541 227.133 213.541 224.598C213.541 222.08 215.327 220.358 217.447 220.358C218.483 220.358 219.312 220.677 219.934 221.235V220.597H222.484ZM217.973 226.671C219.009 226.671 219.934 225.842 219.934 224.598C219.934 223.371 219.009 222.526 217.973 222.526C216.857 222.526 216.044 223.371 216.044 224.598C216.044 225.842 216.857 226.671 217.973 226.671ZM229.364 220.358C231.484 220.358 233.269 222.08 233.269 224.598C233.269 227.133 231.484 228.839 229.364 228.839C228.327 228.839 227.499 228.52 226.877 227.962V231.31H224.326V220.597H226.877V221.235C227.499 220.677 228.327 220.358 229.364 220.358ZM228.838 226.671C229.953 226.671 230.766 225.842 230.766 224.598C230.766 223.371 229.953 222.526 228.838 222.526C227.801 222.526 226.877 223.371 226.877 224.598C226.877 225.842 227.801 226.671 228.838 226.671ZM239.623 220.358C241.743 220.358 243.528 222.08 243.528 224.598C243.528 227.133 241.743 228.839 239.623 228.839C238.587 228.839 237.758 228.52 237.136 227.962V231.31H234.585V220.597H237.136V221.235C237.758 220.677 238.587 220.358 239.623 220.358ZM239.097 226.671C240.213 226.671 241.026 225.842 241.026 224.598C241.026 223.371 240.213 222.526 239.097 222.526C238.06 222.526 237.136 223.371 237.136 224.598C237.136 225.842 238.06 226.671 239.097 226.671ZM252.687 224.598V225.252H246.821C247.028 226.208 247.682 226.798 248.543 226.798C249.133 226.798 249.818 226.655 250.248 225.874L252.512 226.336C251.827 228.026 250.376 228.839 248.543 228.839C246.231 228.839 244.318 227.133 244.318 224.598C244.318 222.08 246.231 220.358 248.559 220.358C250.822 220.358 252.64 221.984 252.687 224.598ZM248.559 222.43C247.841 222.43 247.108 222.877 246.869 223.69H250.169C249.93 222.829 249.292 222.43 248.559 222.43ZM259.019 220.358C260.884 220.358 262.128 221.681 262.128 223.69V228.6H259.593V224.232C259.593 223.291 259.035 222.654 258.222 222.654C257.218 222.654 256.564 223.339 256.564 224.885V228.6H254.014V220.597H256.564V221.362C257.17 220.725 258.015 220.358 259.019 220.358ZM271.711 224.598V225.252H265.845C266.052 226.208 266.706 226.798 267.566 226.798C268.156 226.798 268.842 226.655 269.272 225.874L271.536 226.336C270.85 228.026 269.4 228.839 267.566 228.839C265.255 228.839 263.342 227.133 263.342 224.598C263.342 222.08 265.255 220.358 267.582 220.358C269.846 220.358 271.663 221.984 271.711 224.598ZM267.582 222.43C266.865 222.43 266.132 222.877 265.893 223.69H269.192C268.953 222.829 268.316 222.43 267.582 222.43ZM281.454 217.122V228.6H278.904V227.962C278.282 228.52 277.453 228.839 276.417 228.839C274.297 228.839 272.511 227.133 272.511 224.598C272.511 222.08 274.297 220.358 276.417 220.358C277.453 220.358 278.282 220.677 278.904 221.235V217.122H281.454ZM276.943 226.671C277.979 226.671 278.904 225.842 278.904 224.598C278.904 223.371 277.979 222.526 276.943 222.526C275.827 222.526 275.014 223.371 275.014 224.598C275.014 225.842 275.827 226.671 276.943 226.671ZM288.404 216.787C289.265 216.787 289.887 217.457 289.887 218.238C289.887 219.051 289.265 219.657 288.404 219.657C287.544 219.657 286.938 219.051 286.938 218.238C286.938 217.457 287.544 216.787 288.404 216.787ZM289.68 228.6H287.129V220.597H289.68V228.6ZM296.662 220.358C298.527 220.358 299.77 221.681 299.77 223.69V228.6H297.236V224.232C297.236 223.291 296.678 222.654 295.865 222.654C294.86 222.654 294.207 223.339 294.207 224.885V228.6H291.656V220.597H294.207V221.362C294.813 220.725 295.658 220.358 296.662 220.358ZM66.516 242.581L61.893 253.31H59.1352L60.4264 250.329L57.1106 242.581H59.8525L61.7495 247.252L63.7741 242.581H66.516ZM71.1698 242.39C73.5451 242.39 75.5537 244.08 75.5537 246.598C75.5537 249.133 73.5451 250.823 71.1698 250.823C68.7467 250.823 66.7381 249.133 66.7381 246.598C66.7381 244.08 68.7467 242.39 71.1698 242.39ZM71.1698 248.671C72.1582 248.671 73.0987 247.858 73.0987 246.598C73.0987 245.355 72.1582 244.526 71.1698 244.526C70.1336 244.526 69.1931 245.355 69.1931 246.598C69.1931 247.858 70.1336 248.671 71.1698 248.671ZM84.872 242.597V250.6H82.3214V249.834C81.7156 250.472 80.8707 250.839 79.8664 250.839C78.0013 250.839 76.7579 249.516 76.7579 247.507V242.597H79.2925V246.965C79.2925 247.906 79.8505 248.543 80.6635 248.543C81.6678 248.543 82.3214 247.858 82.3214 246.311V242.597H84.872ZM92.0322 242.486C92.2554 242.486 92.4148 242.501 92.6061 242.549L92.4945 245.1H92.0322C90.2468 245.1 89.2744 246.024 89.2744 248.097V250.6H86.7238V242.597H89.2744V244.127C89.8483 243.171 90.725 242.486 92.0322 242.486ZM101.229 248.607C102.042 248.607 102.696 248.177 102.967 247.204L105.31 247.714C104.912 249.611 103.222 250.839 101.229 250.839C98.8383 250.839 96.8615 249.133 96.8615 246.598C96.8615 244.08 98.8383 242.358 101.229 242.358C103.174 242.358 104.864 243.554 105.31 245.435L102.919 246.009C102.696 245.036 102.042 244.59 101.229 244.59C100.082 244.59 99.3165 245.435 99.3165 246.598C99.3165 247.778 100.082 248.607 101.229 248.607ZM110.54 242.39C112.916 242.39 114.924 244.08 114.924 246.598C114.924 249.133 112.916 250.823 110.54 250.823C108.117 250.823 106.109 249.133 106.109 246.598C106.109 244.08 108.117 242.39 110.54 242.39ZM110.54 248.671C111.529 248.671 112.469 247.858 112.469 246.598C112.469 245.355 111.529 244.526 110.54 244.526C109.504 244.526 108.564 245.355 108.564 246.598C108.564 247.858 109.504 248.671 110.54 248.671ZM126.602 242.358C128.308 242.358 129.663 243.649 129.663 245.594V250.6H127.128V246.136C127.128 245.227 126.538 244.654 125.789 244.654C124.848 244.654 124.227 245.339 124.227 246.678V250.6H121.676V246.136C121.676 245.227 121.086 244.654 120.321 244.654C119.396 244.654 118.791 245.339 118.791 246.678V250.6H116.24V242.597H118.791V243.33C119.333 242.725 120.114 242.358 121.15 242.358C122.266 242.358 123.222 242.836 123.764 243.713C124.402 242.884 125.358 242.358 126.602 242.358ZM141.765 242.358C143.47 242.358 144.825 243.649 144.825 245.594V250.6H142.291V246.136C142.291 245.227 141.701 244.654 140.952 244.654C140.011 244.654 139.389 245.339 139.389 246.678V250.6H136.839V246.136C136.839 245.227 136.249 244.654 135.484 244.654C134.559 244.654 133.954 245.339 133.954 246.678V250.6H131.403V242.597H133.954V243.33C134.496 242.725 135.277 242.358 136.313 242.358C137.429 242.358 138.385 242.836 138.927 243.713C139.565 242.884 140.521 242.358 141.765 242.358ZM154.506 242.597V250.6H151.955V249.834C151.35 250.472 150.505 250.839 149.501 250.839C147.635 250.839 146.392 249.516 146.392 247.507V242.597H148.927V246.965C148.927 247.906 149.485 248.543 150.298 248.543C151.302 248.543 151.955 247.858 151.955 246.311V242.597H154.506ZM161.363 242.358C163.229 242.358 164.472 243.681 164.472 245.69V250.6H161.937V246.232C161.937 245.291 161.379 244.654 160.566 244.654C159.562 244.654 158.908 245.339 158.908 246.885V250.6H156.358V242.597H158.908V243.362C159.514 242.725 160.359 242.358 161.363 242.358ZM167.615 238.787C168.476 238.787 169.098 239.457 169.098 240.238C169.098 241.051 168.476 241.657 167.615 241.657C166.754 241.657 166.148 241.051 166.148 240.238C166.148 239.457 166.754 238.787 167.615 238.787ZM168.89 250.6H166.34V242.597H168.89V250.6ZM176.207 248.24L176.797 250.249C176.175 250.584 175.522 250.839 174.613 250.839C172.62 250.839 171.425 249.755 171.425 247.65V244.622H169.974V242.597H171.425V240.238H173.975V242.597H176.335V244.622H173.975V247.395C173.975 248.224 174.374 248.559 175.044 248.559C175.394 248.559 175.872 248.432 176.207 248.24ZM186.356 242.581L181.733 253.31H178.975L180.266 250.329L176.95 242.581H179.692L181.589 247.252L183.614 242.581H186.356ZM196.43 248.24L197.019 250.249C196.398 250.584 195.744 250.839 194.835 250.839C192.843 250.839 191.647 249.755 191.647 247.65V244.622H190.197V242.597H191.647V240.238H194.198V242.597H196.557V244.622H194.198V247.395C194.198 248.224 194.596 248.559 195.266 248.559C195.617 248.559 196.095 248.432 196.43 248.24ZM203.007 242.358C204.856 242.358 206.1 243.681 206.1 245.69V250.6H203.565V246.232C203.565 245.291 203.007 244.654 202.178 244.654C201.19 244.654 200.536 245.339 200.536 246.885V250.6H197.986V239.122H200.536V243.362C201.158 242.725 201.987 242.358 203.007 242.358ZM209.258 238.787C210.119 238.787 210.741 239.457 210.741 240.238C210.741 241.051 210.119 241.657 209.258 241.657C208.398 241.657 207.792 241.051 207.792 240.238C207.792 239.457 208.398 238.787 209.258 238.787ZM210.534 250.6H207.983V242.597H210.534V250.6ZM211.968 248.511L214.455 248.001C214.567 248.687 215.189 248.942 215.874 248.942C216.544 248.942 216.91 248.655 216.91 248.304C216.91 248.033 216.703 247.826 216.113 247.714L214.487 247.395C213.005 247.124 212.16 246.327 212.16 245.068C212.16 243.426 213.578 242.358 215.603 242.358C217.596 242.358 218.919 243.267 219.238 244.654L216.91 245.116C216.83 244.622 216.352 244.175 215.571 244.175C214.886 244.175 214.662 244.51 214.662 244.797C214.662 245.02 214.758 245.243 215.268 245.355L217.149 245.738C218.664 246.056 219.365 246.965 219.365 248.145C219.365 249.914 217.835 250.839 215.731 250.839C213.849 250.839 212.239 250.153 211.968 248.511ZM234.781 242.358C236.487 242.358 237.842 243.649 237.842 245.594V250.6H235.308V246.136C235.308 245.227 234.718 244.654 233.968 244.654C233.028 244.654 232.406 245.339 232.406 246.678V250.6H229.856V246.136C229.856 245.227 229.266 244.654 228.501 244.654C227.576 244.654 226.97 245.339 226.97 246.678V250.6H224.42V242.597H226.97V243.33C227.512 242.725 228.293 242.358 229.33 242.358C230.445 242.358 231.402 242.836 231.944 243.713C232.582 242.884 233.538 242.358 234.781 242.358ZM243.488 242.39C245.863 242.39 247.872 244.08 247.872 246.598C247.872 249.133 245.863 250.823 243.488 250.823C241.065 250.823 239.056 249.133 239.056 246.598C239.056 244.08 241.065 242.39 243.488 242.39ZM243.488 248.671C244.476 248.671 245.417 247.858 245.417 246.598C245.417 245.355 244.476 244.526 243.488 244.526C242.452 244.526 241.511 245.355 241.511 246.598C241.511 247.858 242.452 248.671 243.488 248.671ZM254.193 242.358C256.058 242.358 257.302 243.681 257.302 245.69V250.6H254.767V246.232C254.767 245.291 254.209 244.654 253.396 244.654C252.392 244.654 251.738 245.339 251.738 246.885V250.6H249.188V242.597H251.738V243.362C252.344 242.725 253.189 242.358 254.193 242.358ZM264.382 248.24L264.972 250.249C264.351 250.584 263.697 250.839 262.788 250.839C260.796 250.839 259.6 249.755 259.6 247.65V244.622H258.149V242.597H259.6V240.238H262.151V242.597H264.51V244.622H262.151V247.395C262.151 248.224 262.549 248.559 263.219 248.559C263.569 248.559 264.048 248.432 264.382 248.24ZM270.96 242.358C272.809 242.358 274.053 243.681 274.053 245.69V250.6H271.518V246.232C271.518 245.291 270.96 244.654 270.131 244.654C269.143 244.654 268.489 245.339 268.489 246.885V250.6H265.939V239.122H268.489V243.362C269.111 242.725 269.94 242.358 270.96 242.358ZM278.678 239.919V240.413L278.518 246.949H276L275.84 240.413V239.919H278.678ZM277.291 247.858C278.136 247.858 278.742 248.511 278.742 249.276C278.742 250.074 278.136 250.679 277.291 250.679C276.43 250.679 275.824 250.074 275.824 249.276C275.824 248.511 276.43 247.858 277.291 247.858Z" fill="#C3C4D9"/>
<circle cx="59.6318" cy="163.045" r="10.0371" fill="#F8A630"/>
<path d="M50.0809 93.129L49.3748 97.0595H45.4575L46.1636 93.129L34.4053 93.1285L32.3286 104.689H36.6574V108.542H31.642L30.3945 115.454C30.3115 115.914 29.905 116.249 29.43 116.249H27.5015C26.892 116.249 26.4305 115.707 26.537 115.117L27.7237 108.542H21.0531C20.4445 108.542 19.9833 108.002 20.0882 107.413L20.431 105.486C20.513 105.025 20.9201 104.689 21.3959 104.689H28.4094L30.4861 93.1285H23.8155C23.2069 93.1285 22.7457 92.5886 22.8505 91.9991L23.1934 90.0724C23.2754 89.6115 23.6825 89.2752 24.1583 89.2752H31.1718L32.4193 82.3634C32.5023 81.9035 32.9088 81.5684 33.3838 81.5684H35.3123C35.9217 81.5684 36.3833 82.1099 36.2767 82.7001L35.0901 89.2752L46.8483 89.2756L48.0958 82.3638C48.1788 81.9039 48.5854 81.5688 49.0603 81.5688H50.9888C51.5982 81.5688 52.0598 82.1104 51.9532 82.7006L50.7666 89.2756H57.4373C58.0458 89.2756 58.5071 89.8156 58.4022 90.4051L58.0593 92.3317C57.9773 92.7927 57.5703 93.129 57.0944 93.129H50.0809Z" fill="white"/>
<path d="M42.3045 100.759C41.2658 100.759 40.4237 101.587 40.4237 102.609V114.75C40.4237 115.771 41.2658 116.599 42.3045 116.599H44.1853C44.4451 116.599 44.6555 116.806 44.6555 117.062V120.989C44.6555 121.39 45.1386 121.601 45.4409 121.332L50.231 117.076C50.5766 116.769 51.026 116.599 51.4919 116.599H60.1719C61.2106 116.599 62.0526 115.771 62.0526 114.75V102.609C62.0526 101.587 61.2106 100.759 60.1719 100.759H42.3045Z" fill="white"/>
<rect x="-0.000976562" y="65.627" width="165.414" height="63.7975" rx="18.1689" fill="#353758"/>
<path d="M45.8067 90.3805L45.2012 93.7311H41.8419L42.4474 90.3805L32.3639 90.3801L30.583 100.235H34.2952V103.52H29.9942L28.9244 109.412C28.8532 109.804 28.5046 110.089 28.0973 110.089H26.4434C25.9208 110.089 25.525 109.628 25.6163 109.125L26.634 103.52H20.9135C20.3917 103.52 19.9961 103.059 20.086 102.557L20.3801 100.914C20.4504 100.521 20.7995 100.235 21.2075 100.235H27.2221L29.0029 90.3801H23.2824C22.7606 90.3801 22.365 89.9198 22.455 89.4173L22.749 87.7748C22.8193 87.3819 23.1684 87.0952 23.5764 87.0952H29.591L30.6608 81.2031C30.732 80.811 31.0806 80.5254 31.4879 80.5254H33.1417C33.6643 80.5254 34.0602 80.987 33.9688 81.4901L32.9511 87.0952L43.0346 87.0956L44.1044 81.2035C44.1756 80.8115 44.5242 80.5258 44.9315 80.5258H46.5853C47.1079 80.5258 47.5038 80.9875 47.4124 81.4906L46.3948 87.0956H52.1153C52.6371 87.0956 53.0327 87.5559 52.9427 88.0584L52.6487 89.7008C52.5784 90.0938 52.2293 90.3805 51.8213 90.3805H45.8067Z" fill="white"/>
<path d="M39.138 96.8851C38.2472 96.8851 37.5251 97.591 37.5251 98.4619V108.811C37.5251 109.682 38.2472 110.388 39.138 110.388H40.7509C40.9736 110.388 41.1541 110.565 41.1541 110.782V114.13C41.1541 114.472 41.5684 114.652 41.8276 114.423L45.9354 110.795C46.2318 110.533 46.6172 110.388 47.0167 110.388H54.4604C55.3511 110.388 56.0732 109.682 56.0732 108.811V98.4619C56.0732 97.591 55.3511 96.8851 54.4604 96.8851H39.138Z" fill="white"/>
<path d="M72.9042 103.445C74.3651 103.445 75.5396 102.671 76.0266 100.924L80.2377 101.84C79.5215 105.249 76.485 107.455 72.9042 107.455C68.6072 107.455 65.055 104.39 65.055 99.8351C65.055 95.309 68.6072 92.2152 72.9042 92.2152C76.399 92.2152 79.4356 94.3636 80.2377 97.7439L75.9407 98.7752C75.5396 97.0278 74.3651 96.2257 72.9042 96.2257C70.8416 96.2257 69.4666 97.7439 69.4666 99.8351C69.4666 101.955 70.8416 103.445 72.9042 103.445ZM97.7429 92.6449V107.025H93.1595V105.88C92.0422 106.882 90.5526 107.455 88.6906 107.455C84.8806 107.455 81.6722 104.39 81.6722 99.8351C81.6722 95.309 84.8806 92.2152 88.6906 92.2152C90.5526 92.2152 92.0422 92.7881 93.1595 93.7907V92.6449H97.7429ZM89.6359 103.559C91.498 103.559 93.1595 102.07 93.1595 99.8351C93.1595 97.6293 91.498 96.1111 89.6359 96.1111C87.6307 96.1111 86.1697 97.6293 86.1697 99.8351C86.1697 102.07 87.6307 103.559 89.6359 103.559ZM119.673 92.2152C122.739 92.2152 125.173 94.5355 125.173 98.0304V107.025H120.619V99.0044C120.619 97.3715 119.559 96.3403 118.212 96.3403C116.522 96.3403 115.405 97.5721 115.405 99.9784V107.025H110.822V99.0044C110.822 97.3715 109.762 96.3403 108.387 96.3403C106.725 96.3403 105.637 97.5721 105.637 99.9784V107.025H101.053V92.6449H105.637V93.9626C106.611 92.874 108.014 92.2152 109.876 92.2152C111.882 92.2152 113.6 93.0746 114.574 94.6501C115.72 93.1605 117.439 92.2152 119.673 92.2152ZM137.353 92.2152C141.163 92.2152 144.372 95.309 144.372 99.8351C144.372 104.39 141.163 107.455 137.353 107.455C135.491 107.455 134.002 106.882 132.884 105.88V111.895H128.301V92.6449H132.884V93.7907C134.002 92.7881 135.491 92.2152 137.353 92.2152ZM136.408 103.559C138.413 103.559 139.874 102.07 139.874 99.8351C139.874 97.6293 138.413 96.1111 136.408 96.1111C134.546 96.1111 132.884 97.6293 132.884 99.8351C132.884 102.07 134.546 103.559 136.408 103.559Z" fill="white"/>
<path d="M237.904 320.13C235.447 313.361 230.098 309.322 223.876 309.322H139.491C133.432 309.541 128.246 313.525 125.899 320.13C125.559 321.092 125.455 322.121 125.594 323.132C125.734 324.142 126.113 325.105 126.701 325.939C127.289 326.772 128.068 327.453 128.973 327.924C129.879 328.395 130.883 328.642 131.904 328.645H231.9C232.92 328.642 233.925 328.395 234.83 327.924C235.735 327.453 236.514 326.772 237.102 325.939C237.69 325.105 238.069 324.142 238.209 323.132C238.348 322.121 238.244 321.092 237.904 320.13Z" fill="#18192C"/>
<path d="M141.128 320.021L223.057 320.894C225.567 316.255 227.041 309.159 221.583 303.482C217.817 299.552 214.105 298.242 214.105 291.365C214.105 284.487 210.994 280.175 204.553 278.975C205.288 280.768 205.436 282.749 204.975 284.632C204.514 286.515 203.468 288.203 201.988 289.454C199.586 291.419 195.82 291.747 193.363 289.018C190.907 286.289 191.999 281.267 192.599 276.737C193.363 270.787 190.907 265.056 184.958 262.6C185.722 265.056 186.049 268.058 184.303 269.968C182.556 271.879 179.39 272.807 177.152 275.372C175.667 277.139 174.503 279.153 173.714 281.322C172.84 283.559 170.821 284.924 168.856 284.214C166.891 283.505 166.618 279.247 168.201 277.173C166.345 277.119 160.122 278.92 159.304 287.053C158.539 294.094 160.614 296.059 158.594 298.515C157.393 299.989 154.555 300.207 153.081 298.624C151.607 297.041 152.372 292.184 152.372 292.184C148.66 292.948 142.929 297.151 140.582 303.919C137.798 311.943 141.128 320.021 141.128 320.021Z" fill="#F8A630"/>
<path d="M176.718 307.031C175.729 307.17 174.777 307.504 173.916 308.011C173.056 308.519 172.304 309.191 171.703 309.989C171.103 310.788 170.665 311.697 170.416 312.664C170.166 313.631 170.11 314.638 170.25 315.627C170.389 316.617 170.723 317.569 171.23 318.429C171.738 319.289 172.41 320.041 173.208 320.642C174.821 321.855 176.849 322.378 178.846 322.096L216.945 316.746L214.762 301.627L176.718 307.031Z" fill="#602C24"/>
<path d="M208.32 310.251C208.617 312.249 209.689 314.05 211.302 315.265C212.915 316.48 214.942 317.012 216.944 316.746L214.761 301.627C212.767 301.924 210.971 302.997 209.764 304.613C208.558 306.228 208.039 308.255 208.32 310.251V310.251Z" fill="#753E36"/>
<path d="M163.286 304.137C161.665 305.184 160.501 306.806 160.026 308.677C159.552 310.548 159.803 312.529 160.729 314.222C161.655 315.915 163.188 317.195 165.019 317.805C166.85 318.415 168.844 318.309 170.601 317.509L204.333 299.115L197.073 285.742L163.286 304.137Z" fill="#76382F"/>
<path d="M194.014 296.058C194.489 296.938 195.133 297.716 195.909 298.346C196.685 298.977 197.578 299.448 198.537 299.732C199.495 300.016 200.501 300.107 201.495 300.002C202.489 299.896 203.453 299.595 204.33 299.115L197.071 285.742C196.191 286.217 195.413 286.861 194.783 287.637C194.152 288.413 193.682 289.306 193.398 290.265C193.113 291.223 193.022 292.229 193.128 293.223C193.233 294.217 193.535 295.181 194.014 296.058V296.058Z" fill="#9B5248"/>
<path d="M194.129 325.317C196.075 325.583 198.049 325.091 199.641 323.94C201.234 322.79 202.322 321.071 202.68 319.139C203.038 317.208 202.639 315.213 201.565 313.568C200.491 311.923 198.825 310.755 196.912 310.306L151.39 301.955L148.661 316.911L194.129 325.317Z" fill="#8B4339"/>
<path d="M157.504 310.798C157.685 309.815 157.67 308.807 157.461 307.83C157.251 306.854 156.851 305.928 156.283 305.107C155.715 304.285 154.991 303.584 154.151 303.043C153.311 302.502 152.373 302.133 151.39 301.955L148.661 316.911C149.643 317.092 150.652 317.077 151.628 316.868C152.605 316.659 153.53 316.258 154.352 315.69C155.173 315.122 155.875 314.398 156.416 313.558C156.956 312.719 157.326 311.78 157.504 310.798V310.798Z" fill="#A55D54"/>
<path d="M229.005 324.662C227.641 316.965 222.401 312.162 216.124 312.162C212.03 312.162 208.428 314.182 205.971 317.675C205.891 317.805 205.783 317.915 205.655 317.998C205.527 318.082 205.383 318.136 205.231 318.156C205.08 318.177 204.926 318.165 204.781 318.119C204.635 318.074 204.501 317.997 204.389 317.893C201.687 315.523 198.161 314.314 194.574 314.529C190.987 314.744 187.629 316.364 185.23 319.04C185.126 319.169 184.992 319.271 184.84 319.338C184.687 319.405 184.521 319.435 184.356 319.424C184.19 319.413 184.029 319.363 183.887 319.277C183.744 319.191 183.625 319.072 183.538 318.93C182.356 317.04 180.749 315.453 178.844 314.294C176.94 313.136 174.791 312.438 172.569 312.258C170.347 312.078 168.114 312.419 166.047 313.256C163.981 314.092 162.139 315.4 160.668 317.075C160.565 317.2 160.436 317.301 160.29 317.371C160.143 317.44 159.984 317.476 159.822 317.476C159.66 317.476 159.5 317.44 159.353 317.371C159.207 317.301 159.078 317.2 158.975 317.075C157.865 315.566 156.419 314.337 154.752 313.484C153.085 312.632 151.242 312.179 149.369 312.162C143.092 312.162 137.797 316.965 136.433 324.662C136.345 325.156 136.367 325.664 136.496 326.149C136.626 326.634 136.86 327.085 137.183 327.47C137.505 327.855 137.908 328.165 138.363 328.378C138.818 328.59 139.315 328.701 139.817 328.701H225.621C226.124 328.701 226.62 328.59 227.075 328.378C227.53 328.165 227.933 327.855 228.255 327.47C228.578 327.085 228.812 326.634 228.942 326.149C229.071 325.664 229.093 325.156 229.005 324.662V324.662Z" fill="#18192C"/>
</svg>
