<svg width="342" height="287" viewBox="0 0 342 287" fill="none" xmlns="http://www.w3.org/2000/svg">
<rect x="22.6016" y="70" width="319" height="216" rx="18.1689" fill="#232439"/>
<path d="M38.6016 240H113.602V262.144C113.602 267.035 109.636 271 104.745 271H47.4578C42.5666 271 38.6016 267.035 38.6016 262.144V240Z" fill="#18192C"/>
<path d="M258.602 240H323.602V262.144C323.602 267.035 319.636 271 314.745 271H267.458C262.567 271 258.602 267.035 258.602 262.144V240Z" fill="#18192C"/>
<path d="M276.031 251.779V248L269.832 254.613L276.031 261.225V257.352C280.46 257.352 283.559 258.864 285.773 262.17C284.888 257.447 282.231 252.723 276.031 251.779Z" fill="#9495B5"/>
<path d="M309.157 248.438C307.74 248.438 306.428 249.17 305.602 250.257C304.775 249.17 303.463 248.438 302.046 248.438C299.595 248.438 297.602 250.4 297.602 252.813C297.602 257.617 304.823 262.116 305.131 262.305C305.275 262.393 305.439 262.438 305.602 262.438C305.764 262.438 305.928 262.393 306.072 262.305C306.38 262.116 313.602 257.617 313.602 252.813C313.602 250.4 311.608 248.438 309.157 248.438Z" fill="#9395B5"/>
<path d="M22.4492 18.1689C22.4492 8.13447 30.5837 0 40.6181 0H272.933C282.967 0 291.102 8.13448 291.102 18.1689V27.8837C291.102 37.9181 282.967 46.0526 272.933 46.0526H40.6181C30.5837 46.0526 22.4492 37.9181 22.4492 27.8837V18.1689Z" fill="#232439"/>
<rect x="38.6016" y="105" width="285" height="31" rx="8.85626" fill="#18192C"/>
<path fill-rule="evenodd" clip-rule="evenodd" d="M59.6015 253C59.6015 254.654 58.256 256 56.6015 256C54.9478 256 53.6015 254.654 53.6015 253C53.6015 251.346 54.947 250 56.6015 250C58.256 250 59.6015 251.346 59.6015 253ZM50.6016 261.25C50.6016 258.6 53.0691 256.75 56.6015 256.75C60.1348 256.75 62.6015 258.6 62.6015 261.25V262H50.6016V261.25Z" fill="#BABAD3"/>
<path d="M64.1016 262H65.6016V261.25C65.6016 259.328 64.3038 257.827 62.2425 257.147C63.3981 258.18 64.1016 259.6 64.1016 261.25V262Z" fill="#BABAD3"/>
<path d="M60.2641 255.926C61.6008 255.624 62.6016 254.426 62.6016 253C62.6016 251.472 61.4535 250.207 59.9743 250.023C60.6757 250.817 61.1016 251.859 61.1016 253C61.1016 254.082 60.7182 255.076 60.0799 255.853C60.1417 255.877 60.2032 255.901 60.2641 255.926Z" fill="#BABAD3"/>
<path d="M80.2441 259.006H76.1422L77.8121 257.368C79.401 255.812 80.1793 254.79 80.1793 253.282C80.1793 251.272 78.6714 249.894 76.4826 249.894C74.2776 249.894 72.7536 251.223 72.6563 253.364L74.6667 253.785C74.764 252.407 75.3963 251.791 76.4502 251.791C77.3906 251.791 78.0553 252.423 78.0553 253.331C78.0553 254.547 77.1798 255.277 76.5151 255.941L72.8509 259.573V261H80.2441V259.006ZM86.1702 249.894C83.3815 249.894 81.5008 252.196 81.5008 255.569C81.5008 258.957 83.3815 261.243 86.1702 261.243C88.9589 261.243 90.8396 258.957 90.8396 255.569C90.8396 252.196 88.9589 249.894 86.1702 249.894ZM86.1702 259.217C84.6786 259.217 83.7382 257.725 83.7382 255.569C83.7382 253.412 84.6786 251.921 86.1702 251.921C87.6618 251.921 88.6022 253.412 88.6022 255.569C88.6022 257.725 87.6618 259.217 86.1702 259.217ZM96.2876 249.894C93.9366 249.894 92.2991 251.45 92.2991 253.591C92.2991 255.682 93.7421 257.174 96.093 257.174C97.082 257.174 98.071 256.768 98.6871 256.087C98.6871 257.076 98.4601 257.984 97.8602 258.633C97.4873 259.038 96.9523 259.314 96.3362 259.314C95.4931 259.314 94.9256 259.054 94.6662 258.26L92.5585 258.665C93.0125 260.335 94.423 261.243 96.2551 261.243C97.5036 261.243 98.5412 260.757 99.287 259.995C100.357 258.892 100.746 257.352 100.746 255.406C100.746 251.888 98.9628 249.894 96.2876 249.894ZM96.3362 255.374C95.3958 255.374 94.5041 254.677 94.5041 253.623C94.5041 252.569 95.3958 251.856 96.3362 251.856C97.2604 251.856 98.1034 252.553 98.1034 253.591C98.1034 254.677 97.2604 255.374 96.3362 255.374Z" fill="#BABAD3"/>
<path d="M38.6016 156.856C38.6016 151.965 42.5666 148 47.4578 148H314.745C319.636 148 323.602 151.965 323.602 156.856V240H38.6016V156.856Z" fill="#18192C"/>
<path d="M78.8719 115.728V126.408H83.0963C86.6193 126.408 88.9467 124.24 88.9467 121.068C88.9467 117.896 86.6193 115.728 83.0963 115.728H78.8719ZM81.5022 124.129V118.007H83.0006C84.9933 118.007 86.3005 119.219 86.3005 121.068C86.3005 122.917 84.9933 124.129 83.0006 124.129H81.5022ZM98.2662 122.407C98.2183 119.793 96.401 118.167 94.1374 118.167C91.8099 118.167 89.897 119.888 89.897 122.407C89.897 124.942 91.8099 126.647 94.1214 126.647C95.9547 126.647 97.4053 125.834 98.0908 124.145L95.8271 123.682C95.3967 124.463 94.7113 124.607 94.1214 124.607C93.2606 124.607 92.607 124.017 92.3998 123.061H98.2662V122.407ZM94.1374 120.239C94.8707 120.239 95.5083 120.637 95.7474 121.498H92.4476C92.6867 120.685 93.42 120.239 94.1374 120.239ZM103.434 124.416C102.286 124.416 101.521 123.587 101.521 122.407C101.521 121.243 102.286 120.398 103.434 120.398C104.247 120.398 104.901 120.845 105.124 121.817L107.515 121.243C107.069 119.362 105.379 118.167 103.434 118.167C101.043 118.167 99.0663 119.888 99.0663 122.407C99.0663 124.942 101.043 126.647 103.434 126.647C105.427 126.647 107.117 125.42 107.515 123.523L105.172 123.013C104.901 123.985 104.247 124.416 103.434 124.416ZM116.683 122.407C116.635 119.793 114.818 118.167 112.554 118.167C110.226 118.167 108.314 119.888 108.314 122.407C108.314 124.942 110.226 126.647 112.538 126.647C114.371 126.647 115.822 125.834 116.507 124.145L114.244 123.682C113.813 124.463 113.128 124.607 112.538 124.607C111.677 124.607 111.024 124.017 110.816 123.061H116.683V122.407ZM112.554 120.239C113.287 120.239 113.925 120.637 114.164 121.498H110.864C111.103 120.685 111.837 120.239 112.554 120.239ZM128.371 118.167C127.127 118.167 126.171 118.693 125.533 119.522C124.991 118.645 124.035 118.167 122.919 118.167C121.883 118.167 121.102 118.533 120.56 119.139V118.406H118.009V126.408H120.56V122.487C120.56 121.148 121.165 120.462 122.09 120.462C122.855 120.462 123.445 121.036 123.445 121.945V126.408H125.996V122.487C125.996 121.148 126.617 120.462 127.558 120.462C128.307 120.462 128.897 121.036 128.897 121.945V126.408H131.431V121.403C131.431 119.458 130.076 118.167 128.371 118.167ZM138.209 118.167C137.173 118.167 136.344 118.485 135.722 119.043V114.93H133.172V126.408H135.722V125.771C136.344 126.328 137.173 126.647 138.209 126.647C140.329 126.647 142.115 124.942 142.115 122.407C142.115 119.888 140.329 118.167 138.209 118.167ZM137.683 124.479C136.647 124.479 135.722 123.65 135.722 122.407C135.722 121.179 136.647 120.335 137.683 120.335C138.799 120.335 139.612 121.179 139.612 122.407C139.612 123.65 138.799 124.479 137.683 124.479ZM151.274 122.407C151.226 119.793 149.409 118.167 147.145 118.167C144.818 118.167 142.905 119.888 142.905 122.407C142.905 124.942 144.818 126.647 147.129 126.647C148.963 126.647 150.413 125.834 151.099 124.145L148.835 123.682C148.405 124.463 147.719 124.607 147.129 124.607C146.268 124.607 145.615 124.017 145.408 123.061H151.274V122.407ZM147.145 120.239C147.879 120.239 148.516 120.637 148.755 121.498H145.455C145.695 120.685 146.428 120.239 147.145 120.239ZM157.909 118.294C156.602 118.294 155.725 118.98 155.151 119.936V118.406H152.6V126.408H155.151V123.905C155.151 121.833 156.123 120.908 157.909 120.908H158.371L158.483 118.358C158.291 118.31 158.132 118.294 157.909 118.294Z" fill="#C3C4D9"/>
<path d="M67.4533 177.615V175.319H57.9204V177.615H61.3796V186H63.994V177.615H67.4533ZM75.2584 181.999C75.2106 179.384 73.3933 177.758 71.1296 177.758C68.8022 177.758 66.8892 179.48 66.8892 181.999C66.8892 184.533 68.8022 186.239 71.1137 186.239C72.9469 186.239 74.3976 185.426 75.083 183.736L72.8194 183.274C72.389 184.055 71.7035 184.199 71.1137 184.199C70.2528 184.199 69.5992 183.609 69.392 182.652H75.2584V181.999ZM71.1296 179.831C71.8629 179.831 72.5006 180.229 72.7397 181.09H69.4398C69.6789 180.277 70.4122 179.831 71.1296 179.831ZM79.1352 186V174.522H76.5846V186H79.1352ZM83.5409 186V174.522H80.9903V186H83.5409ZM97.1035 177.997H94.5529V181.712C94.5529 183.258 93.8993 183.944 92.895 183.944C92.082 183.944 91.5241 183.306 91.5241 182.365V177.997H88.9894V182.907C88.9894 184.916 90.2329 186.239 92.098 186.239C93.1023 186.239 93.9472 185.872 94.5529 185.235V186H97.1035V177.997ZM98.3666 183.912C98.6376 185.554 100.248 186.239 102.129 186.239C104.233 186.239 105.763 185.315 105.763 183.545C105.763 182.365 105.062 181.457 103.548 181.138L101.666 180.755C101.156 180.644 101.061 180.421 101.061 180.197C101.061 179.91 101.284 179.576 101.969 179.576C102.75 179.576 103.229 180.022 103.308 180.516L105.636 180.054C105.317 178.667 103.994 177.758 102.001 177.758C99.9767 177.758 98.5579 178.826 98.5579 180.468C98.5579 181.728 99.4028 182.525 100.885 182.796L102.511 183.115C103.101 183.226 103.308 183.433 103.308 183.704C103.308 184.055 102.942 184.342 102.272 184.342C101.587 184.342 100.965 184.087 100.853 183.402L98.3666 183.912ZM119.235 177.997H116.684V178.635C116.063 178.077 115.234 177.758 114.197 177.758C112.077 177.758 110.292 179.48 110.292 181.999C110.292 184.533 112.077 186.239 114.197 186.239C115.234 186.239 116.063 185.92 116.684 185.362V186H119.235V177.997ZM114.724 184.071C113.608 184.071 112.795 183.242 112.795 181.999C112.795 180.771 113.608 179.926 114.724 179.926C115.76 179.926 116.684 180.771 116.684 181.999C116.684 183.242 115.76 184.071 114.724 184.071ZM126.114 177.758C125.078 177.758 124.249 178.077 123.628 178.635V174.522H121.077V186H123.628V185.362C124.249 185.92 125.078 186.239 126.114 186.239C128.235 186.239 130.02 184.533 130.02 181.999C130.02 179.48 128.235 177.758 126.114 177.758ZM125.588 184.071C124.552 184.071 123.628 183.242 123.628 181.999C123.628 180.771 124.552 179.926 125.588 179.926C126.704 179.926 127.517 180.771 127.517 181.999C127.517 183.242 126.704 184.071 125.588 184.071ZM135.242 177.79C132.819 177.79 130.81 179.48 130.81 181.999C130.81 184.533 132.819 186.223 135.242 186.223C137.617 186.223 139.626 184.533 139.626 181.999C139.626 179.48 137.617 177.79 135.242 177.79ZM135.242 184.071C134.205 184.071 133.265 183.258 133.265 181.999C133.265 180.755 134.205 179.926 135.242 179.926C136.23 179.926 137.171 180.755 137.171 181.999C137.171 183.258 136.23 184.071 135.242 184.071ZM148.944 177.997H146.393V181.712C146.393 183.258 145.74 183.944 144.735 183.944C143.922 183.944 143.364 183.306 143.364 182.365V177.997H140.83V182.907C140.83 184.916 142.073 186.239 143.938 186.239C144.943 186.239 145.787 185.872 146.393 185.235V186H148.944V177.997ZM156.136 183.641C155.801 183.832 155.323 183.96 154.972 183.96C154.303 183.96 153.904 183.625 153.904 182.796V180.022H156.263V177.997H153.904V175.638H151.354V177.997H149.903V180.022H151.354V183.051C151.354 185.155 152.549 186.239 154.542 186.239C155.45 186.239 156.104 185.984 156.726 185.649L156.136 183.641ZM173.034 177.997H170.532L169.224 182.318L167.71 177.997H165.909L164.394 182.302L163.087 177.997H160.584L163.151 186.016H165.367L166.817 181.68L168.252 186.016H170.468L173.034 177.997ZM179.091 177.758C178.071 177.758 177.242 178.125 176.62 178.763V174.522H174.069V186H176.62V182.286C176.62 180.739 177.273 180.054 178.262 180.054C179.091 180.054 179.649 180.692 179.649 181.632V186H182.183V181.09C182.183 179.081 180.94 177.758 179.091 177.758ZM192.356 177.997H189.806V178.635C189.184 178.077 188.355 177.758 187.319 177.758C185.198 177.758 183.413 179.48 183.413 181.999C183.413 184.533 185.198 186.239 187.319 186.239C188.355 186.239 189.184 185.92 189.806 185.362V186H192.356V177.997ZM187.845 184.071C186.729 184.071 185.916 183.242 185.916 181.999C185.916 180.771 186.729 179.926 187.845 179.926C188.881 179.926 189.806 180.771 189.806 181.999C189.806 183.242 188.881 184.071 187.845 184.071ZM199.539 183.641C199.204 183.832 198.726 183.96 198.375 183.96C197.705 183.96 197.307 183.625 197.307 182.796V180.022H199.666V177.997H197.307V175.638H194.756V177.997H193.306V180.022H194.756V183.051C194.756 185.155 195.952 186.239 197.944 186.239C198.853 186.239 199.507 185.984 200.128 185.649L199.539 183.641ZM209.821 177.758C208.801 177.758 207.972 178.125 207.35 178.763V174.522H204.8V186H207.35V182.286C207.35 180.739 208.004 180.054 208.992 180.054C209.821 180.054 210.379 180.692 210.379 181.632V186H212.914V181.09C212.914 179.081 211.67 177.758 209.821 177.758ZM223.087 177.997H220.536V178.635C219.914 178.077 219.085 177.758 218.049 177.758C215.929 177.758 214.144 179.48 214.144 181.999C214.144 184.533 215.929 186.239 218.049 186.239C219.085 186.239 219.914 185.92 220.536 185.362V186H223.087V177.997ZM218.575 184.071C217.459 184.071 216.646 183.242 216.646 181.999C216.646 180.771 217.459 179.926 218.575 179.926C219.611 179.926 220.536 180.771 220.536 181.999C220.536 183.242 219.611 184.071 218.575 184.071ZM229.966 177.758C228.93 177.758 228.101 178.077 227.479 178.635V177.997H224.929V188.71H227.479V185.362C228.101 185.92 228.93 186.239 229.966 186.239C232.086 186.239 233.872 184.533 233.872 181.999C233.872 179.48 232.086 177.758 229.966 177.758ZM229.44 184.071C228.404 184.071 227.479 183.242 227.479 181.999C227.479 180.771 228.404 179.926 229.44 179.926C230.556 179.926 231.369 180.771 231.369 181.999C231.369 183.242 230.556 184.071 229.44 184.071ZM240.225 177.758C239.189 177.758 238.36 178.077 237.738 178.635V177.997H235.188V188.71H237.738V185.362C238.36 185.92 239.189 186.239 240.225 186.239C242.345 186.239 244.131 184.533 244.131 181.999C244.131 179.48 242.345 177.758 240.225 177.758ZM239.699 184.071C238.663 184.071 237.738 183.242 237.738 181.999C237.738 180.771 238.663 179.926 239.699 179.926C240.815 179.926 241.628 180.771 241.628 181.999C241.628 183.242 240.815 184.071 239.699 184.071ZM253.29 181.999C253.242 179.384 251.425 177.758 249.161 177.758C246.834 177.758 244.921 179.48 244.921 181.999C244.921 184.533 246.834 186.239 249.145 186.239C250.979 186.239 252.429 185.426 253.115 183.736L250.851 183.274C250.421 184.055 249.735 184.199 249.145 184.199C248.284 184.199 247.631 183.609 247.424 182.652H253.29V181.999ZM249.161 179.831C249.895 179.831 250.532 180.229 250.771 181.09H247.471C247.711 180.277 248.444 179.831 249.161 179.831ZM259.622 177.758C258.618 177.758 257.773 178.125 257.167 178.763V177.997H254.616V186H257.167V182.286C257.167 180.739 257.82 180.054 258.825 180.054C259.638 180.054 260.196 180.692 260.196 181.632V186H262.73V181.09C262.73 179.081 261.487 177.758 259.622 177.758ZM272.314 181.999C272.266 179.384 270.449 177.758 268.185 177.758C265.857 177.758 263.945 179.48 263.945 181.999C263.945 184.533 265.857 186.239 268.169 186.239C270.002 186.239 271.453 185.426 272.138 183.736L269.875 183.274C269.444 184.055 268.759 184.199 268.169 184.199C267.308 184.199 266.655 183.609 266.447 182.652H272.314V181.999ZM268.185 179.831C268.918 179.831 269.556 180.229 269.795 181.09H266.495C266.734 180.277 267.468 179.831 268.185 179.831ZM282.057 174.522H279.506V178.635C278.885 178.077 278.056 177.758 277.019 177.758C274.899 177.758 273.114 179.48 273.114 181.999C273.114 184.533 274.899 186.239 277.019 186.239C278.056 186.239 278.885 185.92 279.506 185.362V186H282.057V174.522ZM277.546 184.071C276.43 184.071 275.617 183.242 275.617 181.999C275.617 180.771 276.43 179.926 277.546 179.926C278.582 179.926 279.506 180.771 279.506 181.999C279.506 183.242 278.582 184.071 277.546 184.071ZM289.007 174.188C288.146 174.188 287.54 174.857 287.54 175.638C287.54 176.451 288.146 177.057 289.007 177.057C289.868 177.057 290.489 176.451 290.489 175.638C290.489 174.857 289.868 174.188 289.007 174.188ZM290.282 186V177.997H287.732V186H290.282ZM297.264 177.758C296.26 177.758 295.415 178.125 294.809 178.763V177.997H292.259V186H294.809V182.286C294.809 180.739 295.463 180.054 296.467 180.054C297.28 180.054 297.838 180.692 297.838 181.632V186H300.373V181.09C300.373 179.081 299.13 177.758 297.264 177.758ZM67.1185 199.982H64.3766L62.3521 204.652L60.4551 199.982H57.7132L61.0289 207.729L59.7377 210.71H62.4955L67.1185 199.982ZM71.7724 199.79C69.3493 199.79 67.3407 201.48 67.3407 203.999C67.3407 206.533 69.3493 208.223 71.7724 208.223C74.1476 208.223 76.1562 206.533 76.1562 203.999C76.1562 201.48 74.1476 199.79 71.7724 199.79ZM71.7724 206.071C70.7362 206.071 69.7956 205.258 69.7956 203.999C69.7956 202.755 70.7362 201.926 71.7724 201.926C72.7607 201.926 73.7013 202.755 73.7013 203.999C73.7013 205.258 72.7607 206.071 71.7724 206.071ZM85.4745 199.997H82.9239V203.712C82.9239 205.258 82.2703 205.944 81.266 205.944C80.453 205.944 79.8951 205.306 79.8951 204.365V199.997H77.3604V204.907C77.3604 206.916 78.6038 208.239 80.4689 208.239C81.4732 208.239 82.3181 207.872 82.9239 207.235V208H85.4745V199.997ZM92.6348 199.886C91.3276 199.886 90.4508 200.571 89.8769 201.528V199.997H87.3263V208H89.8769V205.497C89.8769 203.425 90.8493 202.5 92.6348 202.5H93.097L93.2086 199.95C93.0173 199.902 92.8579 199.886 92.6348 199.886ZM101.832 206.007C100.684 206.007 99.919 205.178 99.919 203.999C99.919 202.835 100.684 201.99 101.832 201.99C102.645 201.99 103.299 202.436 103.522 203.409L105.913 202.835C105.467 200.954 103.777 199.758 101.832 199.758C99.4408 199.758 97.4641 201.48 97.4641 203.999C97.4641 206.533 99.4408 208.239 101.832 208.239C103.825 208.239 105.514 207.012 105.913 205.115L103.57 204.605C103.299 205.577 102.645 206.007 101.832 206.007ZM111.143 199.79C108.72 199.79 106.711 201.48 106.711 203.999C106.711 206.533 108.72 208.223 111.143 208.223C113.518 208.223 115.527 206.533 115.527 203.999C115.527 201.48 113.518 199.79 111.143 199.79ZM111.143 206.071C110.107 206.071 109.166 205.258 109.166 203.999C109.166 202.755 110.107 201.926 111.143 201.926C112.131 201.926 113.072 202.755 113.072 203.999C113.072 205.258 112.131 206.071 111.143 206.071ZM127.204 199.758C125.961 199.758 125.005 200.284 124.367 201.113C123.825 200.237 122.868 199.758 121.752 199.758C120.716 199.758 119.935 200.125 119.393 200.731V199.997H116.843V208H119.393V204.078C119.393 202.739 119.999 202.054 120.924 202.054C121.689 202.054 122.279 202.628 122.279 203.536V208H124.829V204.078C124.829 202.739 125.451 202.054 126.391 202.054C127.141 202.054 127.73 202.628 127.73 203.536V208H130.265V202.994C130.265 201.05 128.91 199.758 127.204 199.758ZM142.367 199.758C141.124 199.758 140.167 200.284 139.53 201.113C138.988 200.237 138.031 199.758 136.915 199.758C135.879 199.758 135.098 200.125 134.556 200.731V199.997H132.005V208H134.556V204.078C134.556 202.739 135.162 202.054 136.086 202.054C136.852 202.054 137.441 202.628 137.441 203.536V208H139.992V204.078C139.992 202.739 140.614 202.054 141.554 202.054C142.304 202.054 142.893 202.628 142.893 203.536V208H145.428V202.994C145.428 201.05 144.073 199.758 142.367 199.758ZM155.109 199.997H152.558V203.712C152.558 205.258 151.904 205.944 150.9 205.944C150.087 205.944 149.529 205.306 149.529 204.365V199.997H146.994V204.907C146.994 206.916 148.238 208.239 150.103 208.239C151.107 208.239 151.952 207.872 152.558 207.235V208H155.109V199.997ZM161.966 199.758C160.962 199.758 160.117 200.125 159.511 200.763V199.997H156.96V208H159.511V204.286C159.511 202.739 160.165 202.054 161.169 202.054C161.982 202.054 162.54 202.692 162.54 203.632V208H165.075V203.09C165.075 201.081 163.831 199.758 161.966 199.758ZM168.218 196.188C167.357 196.188 166.751 196.857 166.751 197.638C166.751 198.451 167.357 199.057 168.218 199.057C169.078 199.057 169.7 198.451 169.7 197.638C169.7 196.857 169.078 196.188 168.218 196.188ZM169.493 208V199.997H166.942V208H169.493ZM176.81 205.641C176.475 205.832 175.997 205.96 175.646 205.96C174.977 205.96 174.578 205.625 174.578 204.796V202.022H176.937V199.997H174.578V197.638H172.027V199.997H170.577V202.022H172.027V205.051C172.027 207.155 173.223 208.239 175.216 208.239C176.124 208.239 176.778 207.984 177.4 207.649L176.81 205.641ZM186.958 199.982H184.216L182.192 204.652L180.295 199.982H177.553L180.869 207.729L179.577 210.71H182.335L186.958 199.982ZM197.032 205.641C196.697 205.832 196.219 205.96 195.868 205.96C195.199 205.96 194.8 205.625 194.8 204.796V202.022H197.16V199.997H194.8V197.638H192.25V199.997H190.799V202.022H192.25V205.051C192.25 207.155 193.445 208.239 195.438 208.239C196.347 208.239 197 207.984 197.622 207.649L197.032 205.641ZM203.61 199.758C202.59 199.758 201.761 200.125 201.139 200.763V196.522H198.588V208H201.139V204.286C201.139 202.739 201.792 202.054 202.781 202.054C203.61 202.054 204.168 202.692 204.168 203.632V208H206.702V203.09C206.702 201.081 205.459 199.758 203.61 199.758ZM209.861 196.188C209 196.188 208.394 196.857 208.394 197.638C208.394 198.451 209 199.057 209.861 199.057C210.722 199.057 211.344 198.451 211.344 197.638C211.344 196.857 210.722 196.188 209.861 196.188ZM211.136 208V199.997H208.586V208H211.136ZM212.571 205.912C212.842 207.554 214.452 208.239 216.333 208.239C218.437 208.239 219.968 207.315 219.968 205.545C219.968 204.365 219.266 203.457 217.752 203.138L215.871 202.755C215.361 202.644 215.265 202.421 215.265 202.197C215.265 201.91 215.488 201.576 216.174 201.576C216.955 201.576 217.433 202.022 217.513 202.516L219.84 202.054C219.521 200.667 218.198 199.758 216.206 199.758C214.181 199.758 212.762 200.826 212.762 202.468C212.762 203.728 213.607 204.525 215.09 204.796L216.716 205.115C217.305 205.226 217.513 205.433 217.513 205.704C217.513 206.055 217.146 206.342 216.477 206.342C215.791 206.342 215.169 206.087 215.058 205.402L212.571 205.912ZM235.384 199.758C234.141 199.758 233.184 200.284 232.546 201.113C232.004 200.237 231.048 199.758 229.932 199.758C228.896 199.758 228.115 200.125 227.573 200.731V199.997H225.022V208H227.573V204.078C227.573 202.739 228.179 202.054 229.103 202.054C229.868 202.054 230.458 202.628 230.458 203.536V208H233.009V204.078C233.009 202.739 233.63 202.054 234.571 202.054C235.32 202.054 235.91 202.628 235.91 203.536V208H238.445V202.994C238.445 201.05 237.09 199.758 235.384 199.758ZM244.091 199.79C241.668 199.79 239.659 201.48 239.659 203.999C239.659 206.533 241.668 208.223 244.091 208.223C246.466 208.223 248.475 206.533 248.475 203.999C248.475 201.48 246.466 199.79 244.091 199.79ZM244.091 206.071C243.054 206.071 242.114 205.258 242.114 203.999C242.114 202.755 243.054 201.926 244.091 201.926C245.079 201.926 246.02 202.755 246.02 203.999C246.02 205.258 245.079 206.071 244.091 206.071ZM254.796 199.758C253.792 199.758 252.947 200.125 252.341 200.763V199.997H249.79V208H252.341V204.286C252.341 202.739 252.994 202.054 253.999 202.054C254.812 202.054 255.37 202.692 255.37 203.632V208H257.904V203.09C257.904 201.081 256.661 199.758 254.796 199.758ZM264.985 205.641C264.65 205.832 264.172 205.96 263.821 205.96C263.152 205.96 262.753 205.625 262.753 204.796V202.022H265.112V199.997H262.753V197.638H260.203V199.997H258.752V202.022H260.203V205.051C260.203 207.155 261.398 208.239 263.391 208.239C264.299 208.239 264.953 207.984 265.575 207.649L264.985 205.641ZM271.563 199.758C270.542 199.758 269.713 200.125 269.092 200.763V196.522H266.541V208H269.092V204.286C269.092 202.739 269.745 202.054 270.734 202.054C271.563 202.054 272.121 202.692 272.121 203.632V208H274.655V203.09C274.655 201.081 273.412 199.758 271.563 199.758ZM279.28 197.319H276.443V197.814L276.602 204.349H279.121L279.28 197.814V197.319ZM277.894 205.258C277.033 205.258 276.427 205.912 276.427 206.677C276.427 207.474 277.033 208.08 277.894 208.08C278.738 208.08 279.344 207.474 279.344 206.677C279.344 205.912 278.738 205.258 277.894 205.258Z" fill="#C3C4D9"/>
<circle cx="60.2344" cy="120.445" r="10.0371" fill="#F8A630"/>
<path d="M50.6834 50.5294L49.9774 54.4599H46.0601L46.7662 50.5294L35.0078 50.5289L32.9311 62.0891H37.2599V65.9425H32.2446L30.9971 72.8543C30.914 73.3142 30.5075 73.6493 30.0326 73.6493H28.104C27.4945 73.6493 27.033 73.1079 27.1396 72.5175L28.3263 65.9425H21.6556C21.0471 65.9425 20.5858 65.4026 20.6907 64.8131L21.0336 62.8864C21.1156 62.4255 21.5226 62.0891 21.9985 62.0891H29.012L31.0887 50.5289H24.418C23.8095 50.5289 23.3482 49.989 23.4531 49.3995L23.7959 47.4728C23.878 47.0119 24.285 46.6755 24.7609 46.6755H31.7744L33.0219 39.7637C33.1049 39.3038 33.5114 38.9688 33.9863 38.9688H35.9149C36.5243 38.9688 36.9858 39.5103 36.8793 40.1005L35.6926 46.6755L47.4509 46.676L48.6984 39.7642C48.7814 39.3043 49.1879 38.9692 49.6629 38.9692H51.5914C52.2008 38.9692 52.6623 39.5108 52.5558 40.101L51.3691 46.676H58.0398C58.6483 46.676 59.1096 47.216 59.0047 47.8054L58.6619 49.7321C58.5798 50.1931 58.1728 50.5294 57.6969 50.5294H50.6834Z" fill="white"/>
<path d="M42.9071 58.1598C41.8683 58.1598 41.0263 58.9879 41.0263 60.0094V72.1502C41.0263 73.1717 41.8683 73.9998 42.9071 73.9998H44.7878C45.0476 73.9998 45.258 74.2067 45.258 74.4622V78.3896C45.258 78.7903 45.7411 79.0015 46.0434 78.7327L50.8335 74.4768C51.1791 74.1697 51.6285 73.9998 52.0944 73.9998H60.7744C61.8131 73.9998 62.6552 73.1717 62.6552 72.1502V60.0094C62.6552 58.9879 61.8131 58.1598 60.7744 58.1598H42.9071Z" fill="white"/>
<rect x="0.601562" y="23.0273" width="312.414" height="65.7975" rx="18.1689" fill="#2F3150"/>
<path d="M46.4093 48.7812L45.8038 52.1318H42.4444L43.0499 48.7812L32.9664 48.7808L31.1855 58.6354H34.8977V61.9203H30.5967L29.5269 67.8124C29.4557 68.2045 29.1071 68.4901 28.6998 68.4901H27.046C26.5233 68.4901 26.1275 68.0286 26.2189 67.5253L27.2366 61.9203H21.5161C20.9942 61.9203 20.5986 61.4601 20.6886 60.9575L20.9826 59.3151C21.0529 58.9222 21.402 58.6354 21.8101 58.6354H27.8246L29.6055 48.7808H23.885C23.3631 48.7808 22.9675 48.3205 23.0575 47.818L23.3515 46.1755C23.4219 45.7826 23.7709 45.4959 24.179 45.4959H30.1935L31.2633 39.6038C31.3345 39.2117 31.6831 38.9261 32.0904 38.9261H33.7443C34.2669 38.9261 34.6627 39.3877 34.5713 39.8908L33.5537 45.4959L43.6371 45.4963L44.7069 39.6042C44.7781 39.2122 45.1267 38.9265 45.534 38.9265H47.1879C47.7105 38.9265 48.1063 39.3881 48.0149 39.8913L46.9973 45.4963H52.7178C53.2397 45.4963 53.6352 45.9566 53.5453 46.4591L53.2513 48.1015C53.1809 48.4945 52.8319 48.7812 52.4238 48.7812H46.4093Z" fill="white"/>
<path d="M39.7405 55.2858C38.8497 55.2858 38.1276 55.9917 38.1276 56.8626V67.2121C38.1276 68.083 38.8497 68.7889 39.7405 68.7889H41.3534C41.5762 68.7889 41.7566 68.9653 41.7566 69.1831V72.5311C41.7566 72.8727 42.1709 73.0527 42.4302 72.8236L46.538 69.1956C46.8343 68.9338 47.2198 68.7889 47.6193 68.7889H55.0629C55.9537 68.7889 56.6758 68.083 56.6758 67.2121V56.8626C56.6758 55.9917 55.9537 55.2858 55.0629 55.2858H39.7405Z" fill="white"/>
<path d="M73.9983 61.6399C71.8174 61.6399 70.3635 60.0648 70.3635 57.8233C70.3635 55.6122 71.8174 54.0068 73.9983 54.0068C75.5431 54.0068 76.785 54.8549 77.209 56.7026L81.7525 55.6122C80.9044 52.038 77.6937 49.7663 73.9983 49.7663C69.4548 49.7663 65.6989 53.0376 65.6989 57.8233C65.6989 62.6394 69.4548 65.8804 73.9983 65.8804C77.7845 65.8804 80.9952 63.5481 81.7525 59.9436L77.2999 58.9744C76.785 60.822 75.5431 61.6399 73.9983 61.6399ZM100.262 50.2206H95.4156V51.4322C94.2342 50.3721 92.6592 49.7663 90.6903 49.7663C86.6618 49.7663 83.2693 53.0376 83.2693 57.8233C83.2693 62.6394 86.6618 65.8804 90.6903 65.8804C92.6592 65.8804 94.2342 65.2746 95.4156 64.2145V65.4261H100.262V50.2206ZM91.6899 61.761C89.5696 61.761 88.0248 60.186 88.0248 57.8233C88.0248 55.491 89.5696 53.8857 91.6899 53.8857C93.6587 53.8857 95.4156 55.491 95.4156 57.8233C95.4156 60.186 93.6587 61.761 91.6899 61.761ZM123.45 49.7663C121.088 49.7663 119.27 50.7658 118.059 52.3409C117.029 50.675 115.212 49.7663 113.091 49.7663C111.122 49.7663 109.638 50.4629 108.608 51.6139V50.2206H103.762V65.4261H108.608V57.9748C108.608 55.4305 109.759 54.128 111.516 54.128C112.97 54.128 114.091 55.2184 114.091 56.9449V65.4261H118.937V57.9748C118.937 55.4305 120.119 54.128 121.906 54.128C123.329 54.128 124.45 55.2184 124.45 56.9449V65.4261H129.266V55.9151C129.266 52.2197 126.691 49.7663 123.45 49.7663ZM142.144 49.7663C140.176 49.7663 138.601 50.3721 137.419 51.4322V50.2206H132.573V70.5754H137.419V64.2145C138.601 65.2746 140.176 65.8804 142.144 65.8804C146.173 65.8804 149.565 62.6394 149.565 57.8233C149.565 53.0376 146.173 49.7663 142.144 49.7663ZM141.145 61.761C139.176 61.761 137.419 60.186 137.419 57.8233C137.419 55.491 139.176 53.8857 141.145 53.8857C143.265 53.8857 144.81 55.491 144.81 57.8233C144.81 60.186 143.265 61.761 141.145 61.761ZM165.55 48.4335C167.155 48.4335 168.337 47.2825 168.337 45.7377C168.337 44.2535 167.155 42.9813 165.55 42.9813C163.884 42.9813 162.733 44.2535 162.733 45.7377C162.733 47.2825 163.884 48.4335 165.55 48.4335ZM167.973 50.2206H157.553V49.2513C157.553 48.0397 158.371 47.3431 159.583 47.3431C159.946 47.3431 160.37 47.4339 160.794 47.5248L161.673 43.7083C160.794 43.3751 159.855 43.1934 158.916 43.1934C155.191 43.1934 152.737 45.4651 152.737 49.0393V50.2206H150.556V54.0674H152.737V65.4261H157.553V54.0674H163.127V65.4261H167.973V50.2206ZM181.823 50.0086C179.339 50.0086 177.673 51.311 176.583 53.1284V50.2206H171.737V65.4261H176.583V60.6706C176.583 56.7329 178.431 54.9761 181.823 54.9761H182.702L182.914 50.1297C182.55 50.0389 182.247 50.0086 181.823 50.0086ZM199.773 57.8233C199.682 52.8558 196.229 49.7663 191.928 49.7663C187.505 49.7663 183.871 53.0376 183.871 57.8233C183.871 62.6394 187.505 65.8804 191.897 65.8804C195.381 65.8804 198.137 64.3357 199.439 61.1249L195.138 60.2465C194.32 61.7307 193.018 62.0033 191.897 62.0033C190.262 62.0033 189.02 60.8826 188.626 59.0652H199.773V57.8233ZM191.928 53.7039C193.321 53.7039 194.533 54.4612 194.987 56.0968H188.717C189.171 54.552 190.565 53.7039 191.928 53.7039ZM216.632 61.6399C214.452 61.6399 212.998 60.0648 212.998 57.8233C212.998 55.6122 214.452 54.0068 216.632 54.0068C218.177 54.0068 219.419 54.8549 219.843 56.7026L224.387 55.6122C223.539 52.038 220.328 49.7663 216.632 49.7663C212.089 49.7663 208.333 53.0376 208.333 57.8233C208.333 62.6394 212.089 65.8804 216.632 65.8804C220.419 65.8804 223.629 63.5481 224.387 59.9436L219.934 58.9744C219.419 60.822 218.177 61.6399 216.632 61.6399ZM236.444 49.7663C234.506 49.7663 232.931 50.4629 231.749 51.6745V43.6174H226.903V65.4261H231.749V58.3686C231.749 55.4305 232.991 54.128 234.869 54.128C236.444 54.128 237.505 55.3396 237.505 57.1267V65.4261H242.321V56.0968C242.321 52.2803 239.958 49.7663 236.444 49.7663ZM261.65 50.2206H256.803V51.4322C255.622 50.3721 254.047 49.7663 252.078 49.7663C248.05 49.7663 244.657 53.0376 244.657 57.8233C244.657 62.6394 248.05 65.8804 252.078 65.8804C254.047 65.8804 255.622 65.2746 256.803 64.2145V65.4261H261.65V50.2206ZM253.078 61.761C250.957 61.761 249.413 60.186 249.413 57.8233C249.413 55.491 250.957 53.8857 253.078 53.8857C255.047 53.8857 256.803 55.491 256.803 57.8233C256.803 60.186 255.047 61.761 253.078 61.761ZM275.297 60.9432C274.661 61.3067 273.752 61.549 273.086 61.549C271.814 61.549 271.056 60.9129 271.056 59.3378V54.0674H275.539V50.2206H271.056V45.7377H266.21V50.2206H263.454V54.0674H266.21V59.8225C266.21 63.8207 268.482 65.8804 272.268 65.8804C273.994 65.8804 275.236 65.3958 276.418 64.7597L275.297 60.9432ZM277.224 61.4581C277.739 64.578 280.798 65.8804 284.372 65.8804C288.371 65.8804 291.278 64.1236 291.278 60.7615C291.278 58.52 289.946 56.7935 287.068 56.1877L283.494 55.4607C282.525 55.2487 282.343 54.8247 282.343 54.4006C282.343 53.8554 282.767 53.2193 284.069 53.2193C285.554 53.2193 286.462 54.0674 286.614 55.0064L291.036 54.128C290.43 51.4928 287.916 49.7663 284.13 49.7663C280.283 49.7663 277.587 51.7957 277.587 54.9155C277.587 57.3084 279.193 58.8229 282.01 59.3378L285.099 59.9436C286.22 60.1557 286.614 60.5494 286.614 61.0644C286.614 61.7307 285.917 62.2759 284.645 62.2759C283.342 62.2759 282.161 61.7913 281.949 60.4888L277.224 61.4581Z" fill="white"/>
<path d="M238.506 277.53C236.05 270.762 230.701 266.723 224.478 266.723H140.093C134.034 266.941 128.849 270.926 126.502 277.53C126.162 278.492 126.057 279.521 126.197 280.532C126.336 281.543 126.716 282.505 127.304 283.339C127.892 284.173 128.671 284.854 129.576 285.324C130.481 285.795 131.486 286.042 132.506 286.045H232.502C233.522 286.042 234.527 285.795 235.432 285.324C236.337 284.854 237.117 284.173 237.704 283.339C238.292 282.505 238.672 281.543 238.812 280.532C238.951 279.521 238.846 278.492 238.506 277.53Z" fill="#18192C"/>
<path d="M141.73 277.421L223.659 278.295C226.17 273.655 227.644 266.559 222.185 260.883C218.419 256.953 214.708 255.643 214.708 248.765C214.708 241.888 211.596 237.576 205.155 236.375C205.89 238.169 206.038 240.149 205.577 242.032C205.116 243.915 204.071 245.603 202.59 246.855C200.188 248.82 196.422 249.147 193.966 246.418C191.51 243.689 192.601 238.667 193.202 234.137C193.966 228.187 191.51 222.456 185.56 220C186.324 222.456 186.652 225.458 184.905 227.369C183.159 229.279 179.993 230.207 177.755 232.772C176.27 234.54 175.106 236.553 174.316 238.722C173.443 240.96 171.423 242.324 169.458 241.615C167.493 240.905 167.22 236.648 168.803 234.574C166.947 234.519 160.725 236.32 159.906 244.453C159.142 251.494 161.216 253.459 159.197 255.916C157.996 257.389 155.157 257.608 153.684 256.025C152.21 254.442 152.974 249.584 152.974 249.584C149.262 250.348 143.531 254.551 141.184 261.319C138.4 269.343 141.73 277.421 141.73 277.421Z" fill="#F8A630"/>
<path d="M177.32 264.431C176.331 264.571 175.379 264.904 174.519 265.412C173.658 265.919 172.906 266.592 172.306 267.39C171.705 268.188 171.268 269.097 171.018 270.064C170.769 271.032 170.712 272.039 170.852 273.028C170.992 274.017 171.325 274.969 171.833 275.829C172.341 276.69 173.013 277.442 173.811 278.042C175.423 279.255 177.451 279.778 179.449 279.496L217.548 274.147L215.365 259.027L177.32 264.431Z" fill="#602C24"/>
<path d="M208.922 267.651C209.22 269.649 210.291 271.45 211.904 272.665C213.518 273.88 215.544 274.412 217.547 274.147L215.363 259.027C213.369 259.324 211.573 260.398 210.367 262.013C209.16 263.628 208.641 265.655 208.922 267.651Z" fill="#753E36"/>
<path d="M163.889 261.537C162.268 262.584 161.103 264.206 160.629 266.077C160.155 267.948 160.406 269.929 161.332 271.622C162.258 273.316 163.79 274.596 165.622 275.205C167.453 275.815 169.447 275.71 171.203 274.91L204.935 256.515L197.676 243.143L163.889 261.537Z" fill="#76382F"/>
<path d="M194.617 253.459C195.091 254.339 195.735 255.116 196.511 255.747C197.287 256.377 198.181 256.848 199.139 257.132C200.098 257.416 201.103 257.508 202.098 257.402C203.092 257.296 204.055 256.995 204.933 256.515L197.673 243.143C196.793 243.617 196.016 244.261 195.385 245.037C194.755 245.813 194.284 246.706 194 247.665C193.716 248.624 193.624 249.629 193.73 250.623C193.836 251.618 194.137 252.581 194.617 253.459Z" fill="#9B5248"/>
<path d="M194.731 282.717C196.677 282.984 198.652 282.491 200.244 281.341C201.836 280.19 202.925 278.471 203.283 276.54C203.641 274.608 203.242 272.613 202.168 270.968C201.094 269.323 199.427 268.155 197.515 267.707L151.993 259.355L149.264 274.311L194.731 282.717Z" fill="#8B4339"/>
<path d="M158.106 268.198C158.287 267.216 158.273 266.207 158.063 265.231C157.854 264.254 157.454 263.329 156.886 262.507C156.318 261.686 155.593 260.984 154.753 260.444C153.914 259.903 152.976 259.533 151.993 259.355L149.264 274.311C150.246 274.492 151.254 274.478 152.231 274.268C153.207 274.059 154.133 273.659 154.954 273.091C155.776 272.523 156.477 271.798 157.018 270.959C157.559 270.119 157.929 269.181 158.106 268.198Z" fill="#A55D54"/>
<path d="M229.608 282.062C228.243 274.366 223.003 269.562 216.726 269.562C212.633 269.562 209.03 271.582 206.574 275.075C206.494 275.205 206.386 275.316 206.258 275.399C206.13 275.482 205.985 275.536 205.834 275.557C205.683 275.578 205.529 275.565 205.383 275.519C205.237 275.474 205.104 275.397 204.991 275.294C202.29 272.924 198.763 271.715 195.176 271.929C191.589 272.144 188.232 273.765 185.832 276.44C185.728 276.569 185.594 276.672 185.442 276.739C185.29 276.806 185.124 276.835 184.958 276.824C184.792 276.814 184.631 276.763 184.489 276.677C184.347 276.591 184.227 276.473 184.14 276.331C182.959 274.441 181.351 272.853 179.447 271.694C177.542 270.536 175.393 269.839 173.171 269.658C170.949 269.478 168.716 269.82 166.65 270.656C164.583 271.492 162.741 272.8 161.27 274.475C161.168 274.601 161.039 274.702 160.892 274.771C160.746 274.841 160.586 274.877 160.424 274.877C160.262 274.877 160.102 274.841 159.956 274.771C159.809 274.702 159.68 274.601 159.578 274.475C158.468 272.967 157.022 271.737 155.355 270.885C153.687 270.032 151.844 269.579 149.971 269.562C143.694 269.562 138.4 274.366 137.035 282.062C136.948 282.557 136.969 283.064 137.099 283.55C137.228 284.035 137.463 284.486 137.785 284.871C138.108 285.256 138.511 285.566 138.966 285.778C139.421 285.991 139.917 286.101 140.419 286.101H226.224C226.726 286.101 227.222 285.991 227.677 285.778C228.132 285.566 228.535 285.256 228.858 284.871C229.181 284.486 229.415 284.035 229.544 283.55C229.674 283.064 229.696 282.557 229.608 282.062Z" fill="#18192C"/>
</svg>
