<svg width="342" height="374" viewBox="0 0 342 374" fill="none" xmlns="http://www.w3.org/2000/svg">
<rect x="21.999" y="112.68" width="319" height="216" rx="18.1689" fill="#191A34"/>
<path d="M37.999 282.68H112.999V304.823C112.999 309.715 109.034 313.68 104.143 313.68H46.8553C41.9641 313.68 37.999 309.715 37.999 304.823V282.68Z" fill="#101126"/>
<path d="M257.999 282.68H322.999V304.823C322.999 309.715 319.034 313.68 314.143 313.68H266.855C261.964 313.68 257.999 309.715 257.999 304.823V282.68Z" fill="#101126"/>
<path d="M275.429 294.458V290.68L269.229 297.292L275.429 303.905V300.032C279.857 300.032 282.957 301.543 285.171 304.85C284.285 300.126 281.628 295.403 275.429 294.458Z" fill="#C9B597"/>
<path d="M308.555 291.117C307.138 291.117 305.826 291.85 304.999 292.937C304.172 291.85 302.86 291.117 301.443 291.117C298.993 291.117 296.999 293.08 296.999 295.492C296.999 300.297 304.22 304.795 304.529 304.984C304.673 305.073 304.836 305.117 304.999 305.117C305.162 305.117 305.325 305.073 305.469 304.984C305.778 304.795 312.999 300.297 312.999 295.492C312.999 293.08 311.005 291.117 308.555 291.117Z" fill="#C9B597"/>
<path d="M21.8467 60.8485C21.8467 50.8142 29.9812 42.6797 40.0156 42.6797L124.831 42.6797C134.866 42.6797 143 50.8142 143 60.8486V70.5634C143 80.5978 134.866 88.7323 124.831 88.7323H40.0156C29.9812 88.7323 21.8467 80.5978 21.8467 70.5634V60.8485Z" fill="#191A34"/>
<rect x="37.999" y="147.68" width="285" height="31" rx="8.85626" fill="#101126"/>
<path fill-rule="evenodd" clip-rule="evenodd" d="M58.999 295.68C58.999 297.333 57.6535 298.68 55.999 298.68C54.3453 298.68 52.999 297.333 52.999 295.68C52.999 294.026 54.3445 292.68 55.999 292.68C57.6535 292.68 58.999 294.026 58.999 295.68ZM49.999 303.93C49.999 301.28 52.4665 299.43 55.999 299.43C59.5322 299.43 61.999 301.28 61.999 303.93V304.68H49.999V303.93Z" fill="#C9B597"/>
<path d="M63.499 304.68H64.999V303.93C64.999 302.008 63.7012 300.506 61.6399 299.827C62.7955 300.86 63.499 302.28 63.499 303.93V304.68Z" fill="#C9B597"/>
<path d="M59.6615 298.606C60.9982 298.303 61.999 297.106 61.999 295.68C61.999 294.152 60.8509 292.887 59.3718 292.703C60.0731 293.496 60.499 294.539 60.499 295.68C60.499 296.762 60.1156 297.756 59.4773 298.533C59.5392 298.556 59.6006 298.581 59.6615 298.606Z" fill="#C9B597"/>
<path d="M80.0793 301.345V303.68H72.1997V301.929L75.9449 298.41C76.6583 297.746 77.4041 297.097 77.4041 296.108C77.4041 295.33 76.8529 294.811 76.0584 294.811C75.1667 294.811 74.5992 295.346 74.502 296.562L72.0213 296.092C72.1348 293.903 73.7399 292.574 76.0422 292.574C78.3445 292.574 79.9658 293.935 79.9658 296.092C79.9658 297.6 79.139 298.54 77.6798 299.918L76.1233 301.345H80.0793ZM85.9315 292.574C88.8012 292.574 90.7306 294.86 90.7306 298.248C90.7306 301.637 88.8012 303.923 85.9315 303.923C83.0617 303.923 81.1485 301.637 81.1485 298.248C81.1485 294.86 83.0617 292.574 85.9315 292.574ZM85.9315 301.572C87.2123 301.572 88.0392 300.291 88.0392 298.248C88.0392 296.222 87.2123 294.925 85.9315 294.925C84.6506 294.925 83.8399 296.222 83.8399 298.248C83.8399 300.291 84.6506 301.572 85.9315 301.572ZM96.0171 292.574C98.7896 292.574 100.622 294.552 100.622 298.054C100.622 299.983 100.184 301.556 99.1139 302.642C98.3356 303.436 97.2818 303.923 95.9847 303.923C94.0553 303.923 92.5961 302.983 92.1422 301.264L94.6552 300.778C94.866 301.475 95.3524 301.702 96.082 301.702C96.617 301.702 97.071 301.458 97.4115 301.086C97.9141 300.534 98.1249 299.772 98.1411 298.881C97.5412 299.497 96.6332 299.87 95.6929 299.87C93.3744 299.87 91.9152 298.394 91.9152 296.27C91.9152 294.114 93.6176 292.574 96.0171 292.574ZM96.082 297.924C96.9089 297.924 97.6709 297.275 97.6709 296.319C97.6709 295.411 96.9089 294.762 96.082 294.762C95.2389 294.762 94.4444 295.427 94.4444 296.351C94.4444 297.275 95.2389 297.924 96.082 297.924Z" fill="#C9B597"/>
<path d="M37.999 199.536C37.999 194.645 41.9641 190.68 46.8553 190.68H314.143C319.034 190.68 322.999 194.645 322.999 199.536V282.68H37.999V199.536Z" fill="#101126"/>
<path d="M92.6827 158.407V169.088H90.1321V163.397L87.1352 169.088H85.9236L82.9107 163.365V169.088H80.3601V158.407H82.9426L86.5294 165.182L90.1162 158.407H92.6827ZM102.944 161.085V169.088H100.393V168.45C99.7714 169.008 98.9424 169.327 97.9063 169.327C95.7861 169.327 94.0006 167.621 94.0006 165.087C94.0006 162.568 95.7861 160.846 97.9063 160.846C98.9424 160.846 99.7714 161.165 100.393 161.723V161.085H102.944ZM98.4323 167.159C99.4685 167.159 100.393 166.33 100.393 165.087C100.393 163.859 99.4685 163.014 98.4323 163.014C97.3164 163.014 96.5034 163.859 96.5034 165.087C96.5034 166.33 97.3164 167.159 98.4323 167.159ZM113.378 161.069L108.755 171.798H105.997L107.289 168.817L103.973 161.069H106.715L108.612 165.74L110.636 161.069H113.378Z" fill="#C3C4D9"/>
<path d="M66.5957 219.131H62.6422V228.68H61.3669V219.131H57.3976V217.999H66.5957V219.131ZM74.1695 224.551V224.997H67.4264C67.5379 226.767 68.877 227.819 70.232 227.819C71.3479 227.819 72.3522 227.388 72.9102 226.129L73.9942 226.384C73.3725 228.026 72.0015 228.887 70.232 228.887C68.1437 228.887 66.2467 227.277 66.2467 224.774C66.2467 222.255 68.1437 220.629 70.3117 220.629C72.4319 220.629 74.0898 222.208 74.1695 224.551ZM70.3117 221.697C69.0364 221.697 67.7133 222.542 67.4742 224.089H72.942C72.7189 222.542 71.6189 221.697 70.3117 221.697ZM77.4695 228.68H76.2579V217.202H77.4695V228.68ZM81.4859 228.68H80.2744V217.202H81.4859V228.68ZM95.4649 220.821V228.664H94.2375V227.388C93.5998 228.329 92.5796 228.871 91.2724 228.871C89.3754 228.871 88.116 227.516 88.116 225.523V220.821H89.3435V225.3C89.3435 226.767 90.2043 227.739 91.5115 227.739C93.1535 227.739 94.2375 226.639 94.2375 224.599V220.821H95.4649ZM97.461 226.559L98.6725 226.288C98.7841 227.325 99.7406 227.883 100.984 227.883C102.116 227.883 102.865 227.357 102.865 226.544C102.865 225.89 102.371 225.587 101.574 225.412L99.7724 225.013C98.4653 224.742 97.732 224.089 97.732 223.005C97.732 221.586 98.9116 220.629 100.713 220.629C102.482 220.629 103.63 221.538 103.917 222.813L102.753 223.068C102.594 222.208 101.845 221.618 100.681 221.618C99.5652 221.618 98.9435 222.16 98.9435 222.909C98.9435 223.531 99.3739 223.818 100.139 223.993L102.036 224.407C103.184 224.662 104.061 225.268 104.061 226.464C104.061 228.01 102.769 228.887 100.888 228.887C99.087 228.887 97.6523 228.09 97.461 226.559ZM117.672 220.821V228.68H116.46V227.436C115.759 228.361 114.643 228.887 113.335 228.887C111.247 228.887 109.414 227.245 109.414 224.758C109.414 222.271 111.247 220.629 113.335 220.629C114.643 220.629 115.759 221.155 116.46 222.08V220.821H117.672ZM113.527 227.803C115.009 227.803 116.46 226.623 116.46 224.758C116.46 222.877 115.009 221.697 113.527 221.697C111.901 221.697 110.594 222.877 110.594 224.758C110.594 226.623 111.901 227.803 113.527 227.803ZM124.806 220.629C126.894 220.629 128.728 222.271 128.728 224.758C128.728 227.245 126.894 228.887 124.806 228.887C123.499 228.887 122.383 228.361 121.682 227.436V228.68H120.47V217.202H121.682V222.08C122.383 221.155 123.499 220.629 124.806 220.629ZM124.615 227.803C126.241 227.803 127.548 226.623 127.548 224.758C127.548 222.877 126.241 221.697 124.615 221.697C123.132 221.697 121.682 222.877 121.682 224.758C121.682 226.623 123.132 227.803 124.615 227.803ZM134.282 220.645C136.593 220.645 138.442 222.335 138.442 224.742C138.442 227.149 136.593 228.871 134.282 228.871C131.938 228.871 130.105 227.149 130.105 224.742C130.105 222.335 131.938 220.645 134.282 220.645ZM134.282 227.803C135.892 227.803 137.247 226.559 137.247 224.742C137.247 222.941 135.892 221.713 134.282 221.713C132.656 221.713 131.285 222.941 131.285 224.742C131.285 226.559 132.656 227.803 134.282 227.803ZM147.679 220.821V228.664H146.451V227.388C145.814 228.329 144.793 228.871 143.486 228.871C141.589 228.871 140.33 227.516 140.33 225.523V220.821H141.557V225.3C141.557 226.767 142.418 227.739 143.725 227.739C145.367 227.739 146.451 226.639 146.451 224.599V220.821H147.679ZM154.789 227.261L155.188 228.265C154.55 228.712 154.008 228.887 153.37 228.887C151.808 228.887 150.772 227.962 150.772 226.225V221.841H149.066V220.821H150.772V218.318H151.999V220.821H154.805V221.841H151.999V226.145C151.999 227.165 152.573 227.739 153.45 227.739C153.896 227.739 154.39 227.548 154.789 227.261ZM171.328 220.821L168.682 228.712H167.55L165.494 222.75L163.421 228.712H162.29L159.643 220.821H160.871L162.895 226.91L165 220.821H165.972L168.076 226.91L170.101 220.821H171.328ZM177.188 220.629C179.085 220.629 180.344 221.984 180.344 223.977V228.68H179.132V224.2C179.132 222.734 178.256 221.745 176.948 221.745C175.306 221.745 174.222 222.861 174.222 224.902V228.68H173.011V217.202H174.222V222.128C174.86 221.171 175.864 220.629 177.188 220.629ZM190.435 220.821V228.68H189.223V227.436C188.522 228.361 187.406 228.887 186.099 228.887C184.01 228.887 182.177 227.245 182.177 224.758C182.177 222.271 184.01 220.629 186.099 220.629C187.406 220.629 188.522 221.155 189.223 222.08V220.821H190.435ZM186.29 227.803C187.773 227.803 189.223 226.623 189.223 224.758C189.223 222.877 187.773 221.697 186.29 221.697C184.664 221.697 183.357 222.877 183.357 224.758C183.357 226.623 184.664 227.803 186.29 227.803ZM197.553 227.261L197.952 228.265C197.314 228.712 196.772 228.887 196.135 228.887C194.572 228.887 193.536 227.962 193.536 226.225V221.841H191.83V220.821H193.536V218.318H194.764V220.821H197.569V221.841H194.764V226.145C194.764 227.165 195.338 227.739 196.214 227.739C196.661 227.739 197.155 227.548 197.553 227.261ZM207.7 220.629C209.597 220.629 210.856 221.984 210.856 223.977V228.68H209.645V224.2C209.645 222.734 208.768 221.745 207.461 221.745C205.819 221.745 204.735 222.861 204.735 224.902V228.68H203.523V217.202H204.735V222.128C205.373 221.171 206.377 220.629 207.7 220.629ZM220.947 220.821V228.68H219.736V227.436C219.034 228.361 217.918 228.887 216.611 228.887C214.523 228.887 212.69 227.245 212.69 224.758C212.69 222.271 214.523 220.629 216.611 220.629C217.918 220.629 219.034 221.155 219.736 222.08V220.821H220.947ZM216.803 227.803C218.285 227.803 219.736 226.623 219.736 224.758C219.736 222.877 218.285 221.697 216.803 221.697C215.177 221.697 213.869 222.877 213.869 224.758C213.869 226.623 215.177 227.803 216.803 227.803ZM228.082 220.629C230.17 220.629 232.003 222.271 232.003 224.758C232.003 227.245 230.17 228.887 228.082 228.887C226.775 228.887 225.659 228.361 224.957 227.436V231.39H223.746V220.821H224.957V222.08C225.659 221.155 226.775 220.629 228.082 220.629ZM227.891 227.803C229.517 227.803 230.824 226.623 230.824 224.758C230.824 222.877 229.517 221.697 227.891 221.697C226.408 221.697 224.957 222.877 224.957 224.758C224.957 226.623 226.408 227.803 227.891 227.803ZM238.434 220.629C240.523 220.629 242.356 222.271 242.356 224.758C242.356 227.245 240.523 228.887 238.434 228.887C237.127 228.887 236.011 228.361 235.31 227.436V231.39H234.098V220.821H235.31V222.08C236.011 221.155 237.127 220.629 238.434 220.629ZM238.243 227.803C239.869 227.803 241.176 226.623 241.176 224.758C241.176 222.877 239.869 221.697 238.243 221.697C236.761 221.697 235.31 222.877 235.31 224.758C235.31 226.623 236.761 227.803 238.243 227.803ZM251.656 224.551V224.997H244.913C245.025 226.767 246.364 227.819 247.719 227.819C248.835 227.819 249.839 227.388 250.397 226.129L251.481 226.384C250.859 228.026 249.488 228.887 247.719 228.887C245.63 228.887 243.733 227.277 243.733 224.774C243.733 222.255 245.63 220.629 247.799 220.629C249.919 220.629 251.577 222.208 251.656 224.551ZM247.799 221.697C246.523 221.697 245.2 222.542 244.961 224.089H250.429C250.206 222.542 249.106 221.697 247.799 221.697ZM257.921 220.629C259.818 220.629 261.078 221.984 261.078 223.977V228.68H259.866V224.2C259.866 222.734 258.989 221.745 257.682 221.745C256.04 221.745 254.956 222.861 254.956 224.902V228.68H253.745V220.821H254.956V222.128C255.594 221.171 256.598 220.629 257.921 220.629ZM270.898 224.551V224.997H264.155C264.266 226.767 265.605 227.819 266.96 227.819C268.076 227.819 269.081 227.388 269.639 226.129L270.723 226.384C270.101 228.026 268.73 228.887 266.96 228.887C264.872 228.887 262.975 227.277 262.975 224.774C262.975 222.255 264.872 220.629 267.04 220.629C269.16 220.629 270.818 222.208 270.898 224.551ZM267.04 221.697C265.765 221.697 264.442 222.542 264.203 224.089H269.67C269.447 222.542 268.347 221.697 267.04 221.697ZM280.527 217.202V228.68H279.315V227.436C278.614 228.361 277.498 228.887 276.191 228.887C274.102 228.887 272.269 227.245 272.269 224.758C272.269 222.271 274.102 220.629 276.191 220.629C277.498 220.629 278.614 221.155 279.315 222.08V217.202H280.527ZM276.382 227.803C277.864 227.803 279.315 226.623 279.315 224.758C279.315 222.877 277.864 221.697 276.382 221.697C274.756 221.697 273.449 222.877 273.449 224.758C273.449 226.623 274.756 227.803 276.382 227.803ZM288.089 217.632C288.567 217.632 288.933 218.015 288.933 218.445C288.933 218.908 288.567 219.258 288.089 219.258C287.61 219.258 287.26 218.908 287.26 218.445C287.26 218.015 287.61 217.632 288.089 217.632ZM288.71 228.68H287.483V220.821H288.71V228.68ZM295.813 220.629C297.71 220.629 298.969 221.984 298.969 223.977V228.68H297.758V224.2C297.758 222.734 296.881 221.745 295.574 221.745C293.932 221.745 292.848 222.861 292.848 224.902V228.68H291.636V220.821H292.848V222.128C293.486 221.171 294.49 220.629 295.813 220.629ZM65.687 242.821L60.8728 253.39H59.5177L60.809 250.568L57.286 242.821H58.6569L61.4626 249.102L64.332 242.821H65.687ZM70.5946 242.645C72.906 242.645 74.7552 244.335 74.7552 246.742C74.7552 249.149 72.906 250.871 70.5946 250.871C68.2512 250.871 66.4179 249.149 66.4179 246.742C66.4179 244.335 68.2512 242.645 70.5946 242.645ZM70.5946 249.803C72.2046 249.803 73.5596 248.559 73.5596 246.742C73.5596 244.941 72.2046 243.713 70.5946 243.713C68.9686 243.713 67.5976 244.941 67.5976 246.742C67.5976 248.559 68.9686 249.803 70.5946 249.803ZM83.9916 242.821V250.664H82.7641V249.388C82.1265 250.329 81.1062 250.871 79.799 250.871C77.902 250.871 76.6427 249.516 76.6427 247.523V242.821H77.8701V247.3C77.8701 248.767 78.731 249.739 80.0381 249.739C81.6801 249.739 82.7641 248.639 82.7641 246.599V242.821H83.9916ZM91.1655 242.741C91.3568 242.741 91.5003 242.741 91.7235 242.805L91.6278 243.968C91.4844 243.952 91.309 243.952 91.1655 243.952C89.0772 243.952 88.0092 245.531 88.0092 247.651V250.68H86.7817V242.821H88.0092V244.75C88.6468 243.586 89.7149 242.741 91.1655 242.741ZM100.747 249.755C101.911 249.755 102.963 249.165 103.346 247.986L104.462 248.288C104.031 249.899 102.485 250.887 100.747 250.887C98.5314 250.887 96.6503 249.261 96.6503 246.758C96.6503 244.287 98.5314 242.629 100.747 242.629C102.469 242.629 103.999 243.634 104.477 245.244L103.314 245.594C102.963 244.383 101.911 243.745 100.747 243.745C99.1372 243.745 97.83 244.957 97.83 246.758C97.83 248.591 99.1372 249.755 100.747 249.755ZM110.012 242.645C112.323 242.645 114.173 244.335 114.173 246.742C114.173 249.149 112.323 250.871 110.012 250.871C107.668 250.871 105.835 249.149 105.835 246.742C105.835 244.335 107.668 242.645 110.012 242.645ZM110.012 249.803C111.622 249.803 112.977 248.559 112.977 246.742C112.977 244.941 111.622 243.713 110.012 243.713C108.386 243.713 107.015 244.941 107.015 246.742C107.015 248.559 108.386 249.803 110.012 249.803ZM125.784 242.629C127.442 242.629 128.717 243.809 128.717 245.594V250.68H127.506V245.802C127.506 244.558 126.661 243.745 125.481 243.745C124.031 243.745 123.074 244.813 123.074 246.662V250.68H121.863V245.802C121.863 244.558 121.018 243.745 119.854 243.745C118.403 243.745 117.463 244.813 117.463 246.662V250.68H116.251V242.821H117.463V244.016C118.021 243.155 118.913 242.629 120.141 242.629C121.352 242.629 122.357 243.219 122.819 244.223C123.425 243.251 124.445 242.629 125.784 242.629ZM140.869 242.629C142.527 242.629 143.802 243.809 143.802 245.594V250.68H142.591V245.802C142.591 244.558 141.746 243.745 140.566 243.745C139.116 243.745 138.159 244.813 138.159 246.662V250.68H136.948V245.802C136.948 244.558 136.103 243.745 134.939 243.745C133.488 243.745 132.548 244.813 132.548 246.662V250.68H131.336V242.821H132.548V244.016C133.106 243.155 133.998 242.629 135.226 242.629C136.437 242.629 137.442 243.219 137.904 244.223C138.51 243.251 139.53 242.629 140.869 242.629ZM153.548 242.821V250.664H152.32V249.388C151.683 250.329 150.662 250.871 149.355 250.871C147.458 250.871 146.199 249.516 146.199 247.523V242.821H147.426V247.3C147.426 248.767 148.287 249.739 149.594 249.739C151.236 249.739 152.32 248.639 152.32 246.599V242.821H153.548ZM160.515 242.629C162.412 242.629 163.671 243.984 163.671 245.977V250.68H162.459V246.2C162.459 244.734 161.583 243.745 160.275 243.745C158.633 243.745 157.549 244.861 157.549 246.902V250.68H156.338V242.821H157.549V244.128C158.187 243.171 159.191 242.629 160.515 242.629ZM167.019 239.632C167.497 239.632 167.864 240.015 167.864 240.445C167.864 240.908 167.497 241.258 167.019 241.258C166.541 241.258 166.19 240.908 166.19 240.445C166.19 240.015 166.541 239.632 167.019 239.632ZM167.641 250.68H166.413V242.821H167.641V250.68ZM174.887 249.261L175.285 250.265C174.648 250.712 174.106 250.887 173.468 250.887C171.906 250.887 170.87 249.962 170.87 248.225V243.841H169.164V242.821H170.87V240.318H172.097V242.821H174.903V243.841H172.097V248.145C172.097 249.165 172.671 249.739 173.548 249.739C173.994 249.739 174.488 249.548 174.887 249.261ZM184.126 242.821L179.311 253.39H177.956L179.248 250.568L175.725 242.821H177.096L179.901 249.102L182.771 242.821H184.126ZM194.16 249.261L194.558 250.265C193.92 250.712 193.378 250.887 192.741 250.887C191.179 250.887 190.142 249.962 190.142 248.225V243.841H188.437V242.821H190.142V240.318H191.37V242.821H194.176V243.841H191.37V248.145C191.37 249.165 191.944 249.739 192.821 249.739C193.267 249.739 193.761 249.548 194.16 249.261ZM200.29 242.629C202.187 242.629 203.446 243.984 203.446 245.977V250.68H202.235V246.2C202.235 244.734 201.358 243.745 200.051 243.745C198.409 243.745 197.325 244.861 197.325 246.902V250.68H196.113V239.202H197.325V244.128C197.962 243.171 198.967 242.629 200.29 242.629ZM206.81 239.632C207.288 239.632 207.655 240.015 207.655 240.445C207.655 240.908 207.288 241.258 206.81 241.258C206.332 241.258 205.981 240.908 205.981 240.445C205.981 240.015 206.332 239.632 206.81 239.632ZM207.432 250.68H206.204V242.821H207.432V250.68ZM209.688 248.559L210.9 248.288C211.011 249.325 211.968 249.883 213.211 249.883C214.343 249.883 215.092 249.357 215.092 248.544C215.092 247.89 214.598 247.587 213.801 247.412L212 247.013C210.692 246.742 209.959 246.089 209.959 245.005C209.959 243.586 211.139 242.629 212.94 242.629C214.71 242.629 215.857 243.538 216.144 244.813L214.981 245.068C214.821 244.208 214.072 243.618 212.908 243.618C211.792 243.618 211.171 244.16 211.171 244.909C211.171 245.531 211.601 245.818 212.366 245.993L214.263 246.407C215.411 246.662 216.288 247.268 216.288 248.464C216.288 250.01 214.997 250.887 213.116 250.887C211.314 250.887 209.879 250.09 209.688 248.559ZM231.971 242.629C233.629 242.629 234.904 243.809 234.904 245.594V250.68H233.693V245.802C233.693 244.558 232.848 243.745 231.668 243.745C230.218 243.745 229.261 244.813 229.261 246.662V250.68H228.049V245.802C228.049 244.558 227.205 243.745 226.041 243.745C224.59 243.745 223.65 244.813 223.65 246.662V250.68H222.438V242.821H223.65V244.016C224.208 243.155 225.1 242.629 226.328 242.629C227.539 242.629 228.544 243.219 229.006 244.223C229.612 243.251 230.632 242.629 231.971 242.629ZM240.982 242.645C243.294 242.645 245.143 244.335 245.143 246.742C245.143 249.149 243.294 250.871 240.982 250.871C238.639 250.871 236.806 249.149 236.806 246.742C236.806 244.335 238.639 242.645 240.982 242.645ZM240.982 249.803C242.593 249.803 243.948 248.559 243.948 246.742C243.948 244.941 242.593 243.713 240.982 243.713C239.356 243.713 237.986 244.941 237.986 246.742C237.986 248.559 239.356 249.803 240.982 249.803ZM251.398 242.629C253.296 242.629 254.555 243.984 254.555 245.977V250.68H253.343V246.2C253.343 244.734 252.467 243.745 251.159 243.745C249.517 243.745 248.433 244.861 248.433 246.902V250.68H247.222V242.821H248.433V244.128C249.071 243.171 250.075 242.629 251.398 242.629ZM261.49 249.261L261.888 250.265C261.251 250.712 260.709 250.887 260.071 250.887C258.509 250.887 257.472 249.962 257.472 248.225V243.841H255.767V242.821H257.472V240.318H258.7V242.821H261.506V243.841H258.7V248.145C258.7 249.165 259.274 249.739 260.151 249.739C260.597 249.739 261.091 249.548 261.49 249.261ZM267.62 242.629C269.517 242.629 270.776 243.984 270.776 245.977V250.68H269.565V246.2C269.565 244.734 268.688 243.745 267.381 243.745C265.739 243.745 264.655 244.861 264.655 246.902V250.68H263.443V239.202H264.655V244.128C265.293 243.171 266.297 242.629 267.62 242.629ZM274.825 239.999V240.493L274.778 247.507H273.534L273.502 240.493V239.999H274.825ZM274.156 249.117C274.634 249.117 274.985 249.5 274.985 249.93C274.985 250.377 274.634 250.728 274.156 250.728C273.678 250.728 273.327 250.377 273.327 249.93C273.327 249.5 273.678 249.117 274.156 249.117Z" fill="#C3C4D9"/>
<circle cx="59.6318" cy="163.125" r="10.0371" fill="#F8A630"/>
<path d="M50.0809 93.2091L49.3748 97.1396H45.4575L46.1636 93.2091L34.4053 93.2086L32.3286 104.769H36.6574V108.622H31.642L30.3945 115.534C30.3115 115.994 29.905 116.329 29.43 116.329H27.5015C26.892 116.329 26.4305 115.788 26.537 115.197L27.7237 108.622H21.0531C20.4445 108.622 19.9833 108.082 20.0882 107.493L20.431 105.566C20.513 105.105 20.9201 104.769 21.3959 104.769H28.4094L30.4861 93.2086H23.8155C23.2069 93.2086 22.7457 92.6687 22.8505 92.0792L23.1934 90.1525C23.2754 89.6916 23.6825 89.3552 24.1583 89.3552H31.1718L32.4193 82.4434C32.5023 81.9835 32.9088 81.6484 33.3838 81.6484H35.3123C35.9217 81.6484 36.3833 82.19 36.2767 82.7802L35.0901 89.3552L46.8483 89.3557L48.0958 82.4439C48.1788 81.984 48.5854 81.6489 49.0603 81.6489H50.9888C51.5982 81.6489 52.0598 82.1905 51.9532 82.7806L50.7666 89.3557H57.4373C58.0458 89.3557 58.5071 89.8956 58.4022 90.4851L58.0593 92.4118C57.9773 92.8728 57.5703 93.2091 57.0944 93.2091H50.0809Z" fill="white"/>
<path d="M42.3045 100.839C41.2658 100.839 40.4237 101.668 40.4237 102.689V114.83C40.4237 115.851 41.2658 116.679 42.3045 116.679H44.1853C44.4451 116.679 44.6555 116.886 44.6555 117.142V121.069C44.6555 121.47 45.1386 121.681 45.4409 121.412L50.231 117.157C50.5766 116.849 51.026 116.679 51.4919 116.679H60.1719C61.2106 116.679 62.0526 115.851 62.0526 114.83V102.689C62.0526 101.668 61.2106 100.839 60.1719 100.839H42.3045Z" fill="white"/>
<rect x="-0.000976562" y="65.707" width="165.414" height="63.7975" rx="18.1689" fill="#353758"/>
<path d="M45.8067 90.4606L45.2012 93.8112H41.8419L42.4474 90.4606L32.3639 90.4602L30.583 100.315H34.2952V103.6H29.9942L28.9244 109.492C28.8532 109.884 28.5046 110.169 28.0973 110.169H26.4434C25.9208 110.169 25.525 109.708 25.6163 109.205L26.634 103.6H20.9135C20.3917 103.6 19.9961 103.139 20.086 102.637L20.3801 100.994C20.4504 100.602 20.7995 100.315 21.2075 100.315H27.2221L29.0029 90.4602H23.2824C22.7606 90.4602 22.365 89.9999 22.455 89.4974L22.749 87.8549C22.8193 87.462 23.1684 87.1753 23.5764 87.1753H29.591L30.6608 81.2832C30.732 80.8911 31.0806 80.6055 31.4879 80.6055H33.1417C33.6643 80.6055 34.0602 81.0671 33.9688 81.5702L32.9511 87.1753L43.0346 87.1757L44.1044 81.2836C44.1756 80.8915 44.5242 80.6059 44.9315 80.6059H46.5853C47.1079 80.6059 47.5038 81.0675 47.4124 81.5706L46.3948 87.1757H52.1153C52.6371 87.1757 53.0327 87.6359 52.9427 88.1385L52.6487 89.7809C52.5784 90.1739 52.2293 90.4606 51.8213 90.4606H45.8067Z" fill="white"/>
<path d="M39.138 96.9652C38.2472 96.9652 37.5251 97.6711 37.5251 98.5419V108.892C37.5251 109.762 38.2472 110.468 39.138 110.468H40.7509C40.9736 110.468 41.1541 110.645 41.1541 110.862V114.21C41.1541 114.552 41.5684 114.732 41.8276 114.503L45.9354 110.875C46.2318 110.613 46.6172 110.468 47.0167 110.468H54.4604C55.3511 110.468 56.0732 109.762 56.0732 108.892V98.5419C56.0732 97.6711 55.3511 96.9652 54.4604 96.9652H39.138Z" fill="white"/>
<path d="M72.9042 103.525C74.3651 103.525 75.5396 102.751 76.0266 101.004L80.2377 101.92C79.5215 105.329 76.485 107.535 72.9042 107.535C68.6072 107.535 65.055 104.47 65.055 99.9152C65.055 95.3891 68.6072 92.2952 72.9042 92.2952C76.399 92.2952 79.4356 94.4437 80.2377 97.824L75.9407 98.8553C75.5396 97.1078 74.3651 96.3057 72.9042 96.3057C70.8416 96.3057 69.4666 97.824 69.4666 99.9152C69.4666 102.035 70.8416 103.525 72.9042 103.525ZM97.7429 92.7249V107.105H93.1595V105.96C92.0422 106.962 90.5526 107.535 88.6906 107.535C84.8806 107.535 81.6722 104.47 81.6722 99.9152C81.6722 95.3891 84.8806 92.2952 88.6906 92.2952C90.5526 92.2952 92.0422 92.8682 93.1595 93.8708V92.7249H97.7429ZM89.6359 103.639C91.498 103.639 93.1595 102.15 93.1595 99.9152C93.1595 97.7094 91.498 96.1912 89.6359 96.1912C87.6307 96.1912 86.1697 97.7094 86.1697 99.9152C86.1697 102.15 87.6307 103.639 89.6359 103.639ZM119.673 92.2952C122.739 92.2952 125.173 94.6156 125.173 98.1105V107.105H120.619V99.0845C120.619 97.4516 119.559 96.4203 118.212 96.4203C116.522 96.4203 115.405 97.6521 115.405 100.058V107.105H110.822V99.0845C110.822 97.4516 109.762 96.4203 108.387 96.4203C106.725 96.4203 105.637 97.6521 105.637 100.058V107.105H101.053V92.7249H105.637V94.0427C106.611 92.9541 108.014 92.2952 109.876 92.2952C111.882 92.2952 113.6 93.1546 114.574 94.7302C115.72 93.2406 117.439 92.2952 119.673 92.2952ZM137.353 92.2952C141.163 92.2952 144.372 95.3891 144.372 99.9152C144.372 104.47 141.163 107.535 137.353 107.535C135.491 107.535 134.002 106.962 132.884 105.96V111.975H128.301V92.7249H132.884V93.8708C134.002 92.8682 135.491 92.2952 137.353 92.2952ZM136.408 103.639C138.413 103.639 139.874 102.15 139.874 99.9152C139.874 97.7094 138.413 96.1912 136.408 96.1912C134.546 96.1912 132.884 97.7094 132.884 99.9152C132.884 102.15 134.546 103.639 136.408 103.639Z" fill="white"/>
<path d="M237.904 320.21C235.447 313.441 230.098 309.402 223.876 309.402H139.491C133.432 309.621 128.246 313.605 125.899 320.21C125.559 321.172 125.455 322.201 125.594 323.212C125.734 324.222 126.113 325.185 126.701 326.019C127.289 326.853 128.068 327.533 128.973 328.004C129.879 328.475 130.883 328.722 131.904 328.725H231.9C232.92 328.722 233.925 328.475 234.83 328.004C235.735 327.533 236.514 326.853 237.102 326.019C237.69 325.185 238.069 324.222 238.209 323.212C238.348 322.201 238.244 321.172 237.904 320.21Z" fill="#18192C"/>
<path d="M141.128 320.101L223.057 320.974C225.567 316.335 227.041 309.239 221.583 303.562C217.817 299.632 214.105 298.322 214.105 291.445C214.105 284.567 210.994 280.255 204.553 279.055C205.288 280.848 205.436 282.829 204.975 284.712C204.514 286.595 203.468 288.283 201.988 289.535C199.586 291.5 195.82 291.827 193.363 289.098C190.907 286.369 191.999 281.347 192.599 276.817C193.363 270.867 190.907 265.136 184.958 262.68C185.722 265.136 186.049 268.138 184.303 270.048C182.556 271.959 179.39 272.887 177.152 275.452C175.667 277.219 174.503 279.233 173.714 281.402C172.84 283.64 170.821 285.004 168.856 284.295C166.891 283.585 166.618 279.328 168.201 277.253C166.345 277.199 160.122 279 159.304 287.133C158.539 294.174 160.614 296.139 158.594 298.595C157.393 300.069 154.555 300.287 153.081 298.704C151.607 297.122 152.372 292.264 152.372 292.264C148.66 293.028 142.929 297.231 140.582 303.999C137.798 312.023 141.128 320.101 141.128 320.101Z" fill="#F8A630"/>
<path d="M176.718 307.111C175.729 307.251 174.777 307.584 173.916 308.091C173.056 308.599 172.304 309.271 171.703 310.07C171.103 310.868 170.665 311.777 170.416 312.744C170.166 313.711 170.11 314.718 170.25 315.708C170.389 316.697 170.723 317.649 171.23 318.509C171.738 319.369 172.41 320.121 173.208 320.722C174.821 321.935 176.849 322.458 178.846 322.176L216.945 316.827L214.762 301.707L176.718 307.111Z" fill="#602C24"/>
<path d="M208.32 310.331C208.617 312.329 209.689 314.13 211.302 315.345C212.915 316.56 214.942 317.092 216.944 316.827L214.761 301.707C212.767 302.004 210.971 303.077 209.764 304.693C208.558 306.308 208.039 308.335 208.32 310.331V310.331Z" fill="#753E36"/>
<path d="M163.286 304.217C161.665 305.264 160.501 306.886 160.026 308.757C159.552 310.628 159.803 312.609 160.729 314.302C161.655 315.995 163.188 317.275 165.019 317.885C166.85 318.495 168.844 318.389 170.601 317.59L204.333 299.195L197.073 285.822L163.286 304.217Z" fill="#76382F"/>
<path d="M194.014 296.138C194.489 297.019 195.133 297.796 195.909 298.427C196.685 299.057 197.578 299.528 198.537 299.812C199.495 300.096 200.501 300.188 201.495 300.082C202.489 299.976 203.453 299.675 204.33 299.195L197.071 285.822C196.191 286.297 195.413 286.941 194.783 287.717C194.152 288.493 193.682 289.386 193.398 290.345C193.113 291.304 193.022 292.309 193.128 293.303C193.233 294.297 193.535 295.261 194.014 296.138V296.138Z" fill="#9B5248"/>
<path d="M194.129 325.397C196.075 325.663 198.049 325.171 199.641 324.02C201.234 322.87 202.322 321.151 202.68 319.219C203.038 317.288 202.639 315.293 201.565 313.648C200.491 312.003 198.825 310.835 196.912 310.386L151.39 302.035L148.661 316.991L194.129 325.397Z" fill="#8B4339"/>
<path d="M157.504 310.878C157.685 309.895 157.67 308.887 157.461 307.911C157.251 306.934 156.851 306.008 156.283 305.187C155.715 304.365 154.991 303.664 154.151 303.123C153.311 302.582 152.373 302.213 151.39 302.035L148.661 316.991C149.643 317.172 150.652 317.157 151.628 316.948C152.605 316.739 153.53 316.338 154.352 315.77C155.173 315.202 155.875 314.478 156.416 313.638C156.956 312.799 157.326 311.86 157.504 310.878V310.878Z" fill="#A55D54"/>
<path d="M229.005 324.742C227.641 317.045 222.401 312.242 216.124 312.242C212.03 312.242 208.428 314.262 205.971 317.755C205.891 317.885 205.783 317.995 205.655 318.079C205.527 318.162 205.383 318.216 205.231 318.237C205.08 318.257 204.926 318.245 204.781 318.199C204.635 318.154 204.501 318.077 204.389 317.973C201.687 315.603 198.161 314.394 194.574 314.609C190.987 314.824 187.629 316.445 185.23 319.12C185.126 319.249 184.992 319.352 184.84 319.418C184.687 319.485 184.521 319.515 184.356 319.504C184.19 319.493 184.029 319.443 183.887 319.357C183.744 319.271 183.625 319.152 183.538 319.01C182.356 317.12 180.749 315.533 178.844 314.374C176.94 313.216 174.791 312.518 172.569 312.338C170.347 312.158 168.114 312.499 166.047 313.336C163.981 314.172 162.139 315.48 160.668 317.155C160.565 317.28 160.436 317.381 160.29 317.451C160.143 317.52 159.984 317.556 159.822 317.556C159.66 317.556 159.5 317.52 159.353 317.451C159.207 317.381 159.078 317.28 158.975 317.155C157.865 315.646 156.419 314.417 154.752 313.564C153.085 312.712 151.242 312.259 149.369 312.242C143.092 312.242 137.797 317.045 136.433 324.742C136.345 325.236 136.367 325.744 136.496 326.229C136.626 326.715 136.86 327.166 137.183 327.551C137.505 327.936 137.908 328.245 138.363 328.458C138.818 328.67 139.315 328.781 139.817 328.781H225.621C226.124 328.781 226.62 328.67 227.075 328.458C227.53 328.245 227.933 327.936 228.255 327.551C228.578 327.166 228.812 326.715 228.942 326.229C229.071 325.744 229.093 325.236 229.005 324.742V324.742Z" fill="#18192C"/>
</svg>
