<svg width="783" height="960" viewBox="0 0 783 960" fill="none" xmlns="http://www.w3.org/2000/svg">
<path d="M616.981 728.999H243.381C233.043 728.999 223.331 733.871 217.109 742.135C210.887 750.365 208.879 761.031 211.743 770.973L258.789 935.581C262.838 949.704 275.743 959.449 290.427 959.449H569.968C584.684 959.449 597.59 949.704 601.606 935.581L648.652 770.973C651.483 761.031 649.508 750.365 643.285 742.135C637.063 733.871 627.318 728.999 616.981 728.999Z" fill="#FFBC6C"/>
<path d="M251.359 247.285C280.232 214.067 210.251 241.881 177 213.008C143.815 184.169 70.8144 90.5457 70.8144 90.5457C70.8144 90.5457 98.831 220.322 138.93 255.186C172.181 284.058 222.519 280.47 251.359 247.285Z" fill="#CACC61"/>
<path d="M601.606 179.017C572.734 145.8 680.784 127.872 714.035 98.9997C747.22 70.1605 782.151 22.2782 782.151 22.2782C782.151 22.2782 754.134 152.055 714.035 186.919C680.784 215.791 630.446 212.202 601.606 179.017Z" fill="#CACC61"/>
<path d="M407.918 322.708C404.75 311.654 401.832 300.432 402.335 286.556C455.739 295.342 571 286.508 549.5 213.008C528 139.508 490.539 156.237 483.5 107C473.896 39.8173 652 13 534.5 1.49993C417 -10.0001 339.773 59.3244 312.612 131.589C296.011 175.764 308.312 223.567 339.876 254.708C333.022 290.771 339.876 322.708 347.6 349.112L373.419 437.003C387.317 448.532 398.267 461.339 405.788 474.366L417.89 495.328C420.92 489.83 424.289 484.351 428 478.932C416.889 451.079 416.907 419.778 428.266 391.974L407.918 322.708Z" fill="#7B7D1A"/>
<path d="M322.961 481.359C334.433 489.181 343.449 498.079 348.765 507.288L397.218 591.675V664.937H463.062V568.511C463.062 557.877 466.42 545.663 472.444 533.153C517.844 562.618 579.145 557.022 618.322 516.726C662.932 470.932 654 382.948 718 391.974C782 400.999 506.255 299.905 452.395 355.213C441.738 366.158 433.702 378.665 428.266 391.974C416.907 419.778 416.889 451.079 428 478.932C424.289 484.351 420.92 489.83 417.89 495.328L405.788 474.366C398.267 461.339 387.317 448.532 373.419 437.003C362.222 427.714 349.112 419.255 334.34 412.179C327.975 368.298 296.776 347.819 251.359 334.999C177.061 314.031 0 437.003 0 437.003C0 437.003 38.3849 415.732 85.5 462.432C121.852 498.463 161.615 532.512 188.413 540.071C242.49 555.379 298.376 529.576 322.961 481.359Z" fill="#C7CB9F"/>
</svg>
