<svg width="342" height="374" viewBox="0 0 342 374" fill="none" xmlns="http://www.w3.org/2000/svg">
<rect x="22.2588" y="113.68" width="319" height="216" rx="18.1689" fill="#191A34"/>
<path d="M22.1045 61.8485C22.1045 51.8142 30.239 43.6797 40.2734 43.6797L162.59 43.6797C172.624 43.6797 180.759 51.8142 180.759 61.8486V71.5634C180.759 81.5978 172.624 89.7323 162.59 89.7323H40.2734C30.239 89.7323 22.1045 81.5978 22.1045 71.5634V61.8485Z" fill="#191A34"/>
<path d="M96.9396 165.503L98.5806 165.136C98.7317 166.54 100.027 167.295 101.712 167.295C103.245 167.295 104.259 166.583 104.259 165.482C104.259 164.596 103.59 164.186 102.51 163.949L100.07 163.409C98.2999 163.042 97.3066 162.156 97.3066 160.688C97.3066 158.766 98.9045 157.471 101.344 157.471C103.741 157.471 105.296 158.701 105.685 160.429L104.108 160.774C103.892 159.608 102.878 158.809 101.301 158.809C99.7898 158.809 98.9477 159.544 98.9477 160.558C98.9477 161.401 99.5307 161.789 100.567 162.027L103.137 162.588C104.691 162.934 105.879 163.754 105.879 165.374C105.879 167.468 104.13 168.656 101.582 168.656C99.142 168.656 97.1987 167.576 96.9396 165.503ZM118.529 162.782V163.387H109.395C109.547 165.784 111.36 167.209 113.196 167.209C114.707 167.209 116.068 166.626 116.823 164.92L118.292 165.266C117.45 167.49 115.593 168.656 113.196 168.656C110.367 168.656 107.798 166.475 107.798 163.085C107.798 159.673 110.367 157.471 113.304 157.471C116.176 157.471 118.421 159.608 118.529 162.782ZM113.304 158.917C111.576 158.917 109.784 160.062 109.46 162.156H116.867C116.564 160.062 115.074 158.917 113.304 158.917ZM127.296 157.622C127.555 157.622 127.749 157.622 128.052 157.708L127.922 159.284C127.728 159.263 127.49 159.263 127.296 159.263C124.467 159.263 123.021 161.401 123.021 164.272V168.375H121.358V157.73H123.021V160.343C123.884 158.766 125.331 157.622 127.296 157.622ZM139.952 157.73L135.244 168.375H133.452L128.745 157.73H130.537L134.359 166.432L138.159 157.73H139.952ZM151.656 162.782V163.387H142.523C142.674 165.784 144.487 167.209 146.323 167.209C147.834 167.209 149.195 166.626 149.95 164.92L151.419 165.266C150.577 167.49 148.72 168.656 146.323 168.656C143.494 168.656 140.925 166.475 140.925 163.085C140.925 159.673 143.494 157.471 146.431 157.471C149.303 157.471 151.548 159.608 151.656 162.782ZM146.431 158.917C144.703 158.917 142.911 160.062 142.587 162.156H149.994C149.691 160.062 148.201 158.917 146.431 158.917ZM160.423 157.622C160.682 157.622 160.876 157.622 161.179 157.708L161.049 159.284C160.855 159.263 160.617 159.263 160.423 159.263C157.594 159.263 156.148 161.401 156.148 164.272V168.375H154.485V157.73H156.148V160.343C157.011 158.766 158.458 157.622 160.423 157.622ZM169.753 163.581H162.779V162.135H169.753V163.581ZM172.05 165.503L173.691 165.136C173.842 166.54 175.138 167.295 176.822 167.295C178.355 167.295 179.37 166.583 179.37 165.482C179.37 164.596 178.701 164.186 177.621 163.949L175.181 163.409C173.41 163.042 172.417 162.156 172.417 160.688C172.417 158.766 174.015 157.471 176.455 157.471C178.852 157.471 180.406 158.701 180.795 160.429L179.219 160.774C179.003 159.608 177.988 158.809 176.412 158.809C174.9 158.809 174.058 159.544 174.058 160.558C174.058 161.401 174.641 161.789 175.678 162.027L178.247 162.588C179.802 162.934 180.989 163.754 180.989 165.374C180.989 167.468 179.24 168.656 176.692 168.656C174.252 168.656 172.309 167.576 172.05 165.503ZM193.64 162.782V163.387H184.506C184.657 165.784 186.471 167.209 188.306 167.209C189.818 167.209 191.178 166.626 191.934 164.92L193.402 165.266C192.56 167.49 190.703 168.656 188.306 168.656C185.478 168.656 182.908 166.475 182.908 163.085C182.908 159.673 185.478 157.471 188.414 157.471C191.286 157.471 193.532 159.608 193.64 162.782ZM188.414 158.917C186.687 158.917 184.895 160.062 184.571 162.156H191.977C191.675 160.062 190.185 158.917 188.414 158.917ZM202.32 166.453L202.86 167.814C201.996 168.418 201.262 168.656 200.398 168.656C198.282 168.656 196.879 167.403 196.879 165.05V159.112H194.568V157.73H196.879V154.34H198.541V157.73H202.342V159.112H198.541V164.942C198.541 166.324 199.319 167.101 200.506 167.101C201.111 167.101 201.78 166.842 202.32 166.453ZM214.451 157.73V168.353H212.788V166.626C211.924 167.9 210.542 168.634 208.772 168.634C206.202 168.634 204.496 166.799 204.496 164.1V157.73H206.159V163.797C206.159 165.784 207.325 167.101 209.096 167.101C211.32 167.101 212.788 165.611 212.788 162.847V157.73H214.451ZM224.103 157.471C226.932 157.471 229.415 159.695 229.415 163.063C229.415 166.432 226.932 168.656 224.103 168.656C222.332 168.656 220.821 167.943 219.871 166.691V172.046H218.23V157.73H219.871V159.436C220.821 158.183 222.332 157.471 224.103 157.471ZM223.844 167.187C226.046 167.187 227.817 165.59 227.817 163.063C227.817 160.515 226.046 158.917 223.844 158.917C221.836 158.917 219.871 160.515 219.871 163.063C219.871 165.59 221.836 167.187 223.844 167.187Z" fill="#C3C4D9"/>
<path d="M96.9396 209.738L98.5806 209.37C98.7317 210.774 100.027 211.53 101.712 211.53C103.245 211.53 104.259 210.817 104.259 209.716C104.259 208.831 103.59 208.42 102.51 208.183L100.07 207.643C98.2999 207.276 97.3066 206.391 97.3066 204.922C97.3066 203.001 98.9045 201.705 101.344 201.705C103.741 201.705 105.296 202.936 105.685 204.663L104.108 205.009C103.892 203.843 102.878 203.044 101.301 203.044C99.7898 203.044 98.9477 203.778 98.9477 204.793C98.9477 205.635 99.5307 206.024 100.567 206.261L103.137 206.823C104.691 207.168 105.879 207.989 105.879 209.608C105.879 211.702 104.13 212.89 101.582 212.89C99.142 212.89 97.1987 211.81 96.9396 209.738ZM118.529 207.017V207.621H109.395C109.547 210.018 111.36 211.443 113.196 211.443C114.707 211.443 116.068 210.86 116.823 209.155L118.292 209.5C117.45 211.724 115.593 212.89 113.196 212.89C110.367 212.89 107.798 210.709 107.798 207.319C107.798 203.908 110.367 201.705 113.304 201.705C116.176 201.705 118.421 203.843 118.529 207.017ZM113.304 203.152C111.576 203.152 109.784 204.296 109.46 206.391H116.867C116.564 204.296 115.074 203.152 113.304 203.152ZM127.296 201.856C127.555 201.856 127.749 201.856 128.052 201.943L127.922 203.519C127.728 203.497 127.49 203.497 127.296 203.497C124.467 203.497 123.021 205.635 123.021 208.507V212.609H121.358V201.964H123.021V204.577C123.884 203.001 125.331 201.856 127.296 201.856ZM139.952 201.964L135.244 212.609H133.452L128.745 201.964H130.537L134.359 210.666L138.159 201.964H139.952ZM151.656 207.017V207.621H142.523C142.674 210.018 144.487 211.443 146.323 211.443C147.834 211.443 149.195 210.86 149.95 209.155L151.419 209.5C150.577 211.724 148.72 212.89 146.323 212.89C143.494 212.89 140.925 210.709 140.925 207.319C140.925 203.908 143.494 201.705 146.431 201.705C149.303 201.705 151.548 203.843 151.656 207.017ZM146.431 203.152C144.703 203.152 142.911 204.296 142.587 206.391H149.994C149.691 204.296 148.201 203.152 146.431 203.152ZM160.423 201.856C160.682 201.856 160.876 201.856 161.179 201.943L161.049 203.519C160.855 203.497 160.617 203.497 160.423 203.497C157.594 203.497 156.148 205.635 156.148 208.507V212.609H154.485V201.964H156.148V204.577C157.011 203.001 158.458 201.856 160.423 201.856ZM169.753 207.816H162.779V206.369H169.753V207.816ZM183.592 197.063V212.609H181.951V210.925C181.001 212.178 179.489 212.89 177.719 212.89C174.89 212.89 172.407 210.666 172.407 207.298C172.407 203.929 174.89 201.705 177.719 201.705C179.489 201.705 181.001 202.418 181.951 203.67V197.063H183.592ZM177.978 211.422C179.986 211.422 181.951 209.824 181.951 207.298C181.951 204.75 179.986 203.152 177.978 203.152C175.775 203.152 174.005 204.75 174.005 207.298C174.005 209.824 175.775 211.422 177.978 211.422ZM197.161 207.017V207.621H188.027C188.179 210.018 189.992 211.443 191.828 211.443C193.339 211.443 194.7 210.86 195.455 209.155L196.924 209.5C196.081 211.724 194.225 212.89 191.828 212.89C188.999 212.89 186.43 210.709 186.43 207.319C186.43 203.908 188.999 201.705 191.936 201.705C194.808 201.705 197.053 203.843 197.161 207.017ZM191.936 203.152C190.208 203.152 188.416 204.296 188.092 206.391H195.498C195.196 204.296 193.706 203.152 191.936 203.152ZM199.083 209.738L200.724 209.37C200.875 210.774 202.171 211.53 203.855 211.53C205.388 211.53 206.403 210.817 206.403 209.716C206.403 208.831 205.734 208.42 204.654 208.183L202.214 207.643C200.443 207.276 199.45 206.391 199.45 204.922C199.45 203.001 201.048 201.705 203.488 201.705C205.885 201.705 207.439 202.936 207.828 204.663L206.252 205.009C206.036 203.843 205.021 203.044 203.445 203.044C201.933 203.044 201.091 203.778 201.091 204.793C201.091 205.635 201.674 206.024 202.711 206.261L205.28 206.823C206.835 207.168 208.022 207.989 208.022 209.608C208.022 211.702 206.273 212.89 203.725 212.89C201.285 212.89 199.342 211.81 199.083 209.738ZM211.906 197.646C212.554 197.646 213.05 198.164 213.05 198.747C213.05 199.373 212.554 199.848 211.906 199.848C211.258 199.848 210.783 199.373 210.783 198.747C210.783 198.164 211.258 197.646 211.906 197.646ZM212.748 212.609H211.086V201.964H212.748V212.609ZM226.579 201.964L226.601 211.746C226.579 214.855 224.463 216.712 221.246 216.712C218.612 216.712 216.863 215.676 216.042 213.948L217.424 212.998C218.18 214.423 219.26 215.222 221.246 215.222C223.492 215.222 224.982 213.797 224.982 211.53V210.234C224.118 211.357 222.758 211.983 220.987 211.983C218.18 211.983 215.74 209.846 215.74 206.823C215.74 203.821 218.18 201.705 220.987 201.705C222.758 201.705 224.118 202.331 224.982 203.432V201.964H226.579ZM221.224 210.558C223.211 210.558 224.982 209.09 224.982 206.823C224.982 204.555 223.211 203.13 221.224 203.13C219.065 203.13 217.338 204.555 217.338 206.823C217.338 209.09 219.065 210.558 221.224 210.558ZM236.033 201.705C238.603 201.705 240.308 203.54 240.308 206.24V212.609H238.667V206.542C238.667 204.555 237.48 203.217 235.709 203.217C233.485 203.217 232.017 204.728 232.017 207.492V212.609H230.376V201.964H232.017V203.735C232.88 202.439 234.241 201.705 236.033 201.705Z" fill="#C3C4D9"/>
<path d="M96.9396 253.976L98.5806 253.609C98.7317 255.012 100.027 255.768 101.712 255.768C103.245 255.768 104.259 255.055 104.259 253.954C104.259 253.069 103.59 252.659 102.51 252.421L100.07 251.881C98.2999 251.514 97.3066 250.629 97.3066 249.161C97.3066 247.239 98.9045 245.943 101.344 245.943C103.741 245.943 105.296 247.174 105.685 248.902L104.108 249.247C103.892 248.081 102.878 247.282 101.301 247.282C99.7898 247.282 98.9477 248.016 98.9477 249.031C98.9477 249.873 99.5307 250.262 100.567 250.499L103.137 251.061C104.691 251.406 105.879 252.227 105.879 253.846C105.879 255.941 104.13 257.128 101.582 257.128C99.142 257.128 97.1987 256.049 96.9396 253.976ZM118.529 251.255V251.86H109.395C109.547 254.257 111.36 255.682 113.196 255.682C114.707 255.682 116.068 255.099 116.823 253.393L118.292 253.738C117.45 255.962 115.593 257.128 113.196 257.128C110.367 257.128 107.798 254.948 107.798 251.557C107.798 248.146 110.367 245.943 113.304 245.943C116.176 245.943 118.421 248.081 118.529 251.255ZM113.304 247.39C111.576 247.39 109.784 248.534 109.46 250.629H116.867C116.564 248.534 115.074 247.39 113.304 247.39ZM127.296 246.095C127.555 246.095 127.749 246.095 128.052 246.181L127.922 247.757C127.728 247.736 127.49 247.736 127.296 247.736C124.467 247.736 123.021 249.873 123.021 252.745V256.848H121.358V246.202H123.021V248.815C123.884 247.239 125.331 246.095 127.296 246.095ZM139.952 246.202L135.244 256.848H133.452L128.745 246.202H130.537L134.359 254.904L138.159 246.202H139.952ZM151.656 251.255V251.86H142.523C142.674 254.257 144.487 255.682 146.323 255.682C147.834 255.682 149.195 255.099 149.95 253.393L151.419 253.738C150.577 255.962 148.72 257.128 146.323 257.128C143.494 257.128 140.925 254.948 140.925 251.557C140.925 248.146 143.494 245.943 146.431 245.943C149.303 245.943 151.548 248.081 151.656 251.255ZM146.431 247.39C144.703 247.39 142.911 248.534 142.587 250.629H149.994C149.691 248.534 148.201 247.39 146.431 247.39ZM160.423 246.095C160.682 246.095 160.876 246.095 161.179 246.181L161.049 247.757C160.855 247.736 160.617 247.736 160.423 247.736C157.594 247.736 156.148 249.873 156.148 252.745V256.848H154.485V246.202H156.148V248.815C157.011 247.239 158.458 246.095 160.423 246.095ZM169.753 252.054H162.779V250.607H169.753V252.054ZM172.05 253.976L173.691 253.609C173.842 255.012 175.138 255.768 176.822 255.768C178.355 255.768 179.37 255.055 179.37 253.954C179.37 253.069 178.701 252.659 177.621 252.421L175.181 251.881C173.41 251.514 172.417 250.629 172.417 249.161C172.417 247.239 174.015 245.943 176.455 245.943C178.852 245.943 180.406 247.174 180.795 248.902L179.219 249.247C179.003 248.081 177.988 247.282 176.412 247.282C174.9 247.282 174.058 248.016 174.058 249.031C174.058 249.873 174.641 250.262 175.678 250.499L178.247 251.061C179.802 251.406 180.989 252.227 180.989 253.846C180.989 255.941 179.24 257.128 176.692 257.128C174.252 257.128 172.309 256.049 172.05 253.976ZM193.985 246.202V256.848H192.344V255.163C191.394 256.416 189.883 257.128 188.112 257.128C185.283 257.128 182.8 254.904 182.8 251.536C182.8 248.167 185.283 245.943 188.112 245.943C189.883 245.943 191.394 246.656 192.344 247.908V246.202H193.985ZM188.371 255.66C190.379 255.66 192.344 254.062 192.344 251.536C192.344 248.988 190.379 247.39 188.371 247.39C186.169 247.39 184.398 248.988 184.398 251.536C184.398 254.062 186.169 255.66 188.371 255.66ZM203.671 247.584H199.806V256.848H198.165V247.584H196.308V246.202H198.165V244.626C198.165 242.381 199.59 240.934 201.814 240.934C202.44 240.934 203.023 241.063 203.541 241.323L203.131 242.661C202.742 242.51 202.31 242.424 201.922 242.424C200.626 242.424 199.806 243.266 199.806 244.626V246.202H203.671V247.584ZM215.127 251.255V251.86H205.993C206.144 254.257 207.958 255.682 209.794 255.682C211.305 255.682 212.665 255.099 213.421 253.393L214.889 253.738C214.047 255.962 212.19 257.128 209.794 257.128C206.965 257.128 204.395 254.948 204.395 251.557C204.395 248.146 206.965 245.943 209.901 245.943C212.773 245.943 215.019 248.081 215.127 251.255ZM209.901 247.39C208.174 247.39 206.382 248.534 206.058 250.629H213.464C213.162 248.534 211.672 247.39 209.901 247.39ZM223.807 254.926L224.347 256.286C223.483 256.891 222.749 257.128 221.886 257.128C219.77 257.128 218.366 255.876 218.366 253.522V247.584H216.056V246.202H218.366V242.812H220.029V246.202H223.829V247.584H220.029V253.414C220.029 254.796 220.806 255.574 221.994 255.574C222.598 255.574 223.268 255.315 223.807 254.926ZM236.321 246.202L229.8 260.518H227.965L229.714 256.697L224.942 246.202H226.799L230.599 254.71L234.486 246.202H236.321Z" fill="#C3C4D9"/>
<path d="M108.06 286.133V301.68H106.419V299.995C105.469 301.248 103.957 301.96 102.187 301.96C99.3579 301.96 96.8748 299.736 96.8748 296.368C96.8748 292.999 99.3579 290.775 102.187 290.775C103.957 290.775 105.469 291.488 106.419 292.74V286.133H108.06ZM102.446 300.492C104.454 300.492 106.419 298.894 106.419 296.368C106.419 293.82 104.454 292.222 102.446 292.222C100.243 292.222 98.4726 293.82 98.4726 296.368C98.4726 298.894 100.243 300.492 102.446 300.492ZM121.629 296.087V296.692H112.495C112.646 299.089 114.46 300.514 116.296 300.514C117.807 300.514 119.167 299.931 119.923 298.225L121.391 298.57C120.549 300.794 118.692 301.96 116.296 301.96C113.467 301.96 110.897 299.78 110.897 296.389C110.897 292.978 113.467 290.775 116.403 290.775C119.275 290.775 121.521 292.913 121.629 296.087ZM116.403 292.222C114.676 292.222 112.884 293.367 112.56 295.461H119.966C119.664 293.367 118.174 292.222 116.403 292.222ZM133.815 291.034L129.108 301.68H127.316L122.609 291.034H124.401L128.223 299.736L132.023 291.034H133.815ZM145.52 296.087V296.692H136.386C136.537 299.089 138.351 300.514 140.187 300.514C141.698 300.514 143.058 299.931 143.814 298.225L145.283 298.57C144.44 300.794 142.583 301.96 140.187 301.96C137.358 301.96 134.788 299.78 134.788 296.389C134.788 292.978 137.358 290.775 140.295 290.775C143.166 290.775 145.412 292.913 145.52 296.087ZM140.295 292.222C138.567 292.222 136.775 293.367 136.451 295.461H143.857C143.555 293.367 142.065 292.222 140.295 292.222ZM149.99 301.68H148.349V286.133H149.99V301.68ZM158.475 290.797C161.606 290.797 164.11 293.086 164.11 296.346C164.11 299.607 161.606 301.939 158.475 301.939C155.301 301.939 152.818 299.607 152.818 296.346C152.818 293.086 155.301 290.797 158.475 290.797ZM158.475 300.492C160.656 300.492 162.491 298.808 162.491 296.346C162.491 293.906 160.656 292.244 158.475 292.244C156.272 292.244 154.415 293.906 154.415 296.346C154.415 298.808 156.272 300.492 158.475 300.492ZM172.799 290.775C175.628 290.775 178.111 292.999 178.111 296.368C178.111 299.736 175.628 301.96 172.799 301.96C171.029 301.96 169.517 301.248 168.567 299.995V305.35H166.926V291.034H168.567V292.74C169.517 291.488 171.029 290.775 172.799 290.775ZM172.54 300.492C174.743 300.492 176.513 298.894 176.513 296.368C176.513 293.82 174.743 292.222 172.54 292.222C170.532 292.222 168.567 293.82 168.567 296.368C168.567 298.894 170.532 300.492 172.54 300.492ZM193.861 290.775C196.107 290.775 197.834 292.373 197.834 294.792V301.68H196.193V295.072C196.193 293.388 195.049 292.287 193.451 292.287C191.486 292.287 190.19 293.734 190.19 296.238V301.68H188.549V295.072C188.549 293.388 187.405 292.287 185.829 292.287C183.864 292.287 182.59 293.734 182.59 296.238V301.68H180.949V291.034H182.59V292.654C183.346 291.488 184.555 290.775 186.217 290.775C187.858 290.775 189.219 291.574 189.845 292.935C190.665 291.617 192.047 290.775 193.861 290.775ZM211.142 296.087V296.692H202.008C202.159 299.089 203.973 300.514 205.808 300.514C207.32 300.514 208.68 299.931 209.436 298.225L210.904 298.57C210.062 300.794 208.205 301.96 205.808 301.96C202.98 301.96 200.41 299.78 200.41 296.389C200.41 292.978 202.98 290.775 205.916 290.775C208.788 290.775 211.034 292.913 211.142 296.087ZM205.916 292.222C204.189 292.222 202.397 293.367 202.073 295.461H209.479C209.177 293.367 207.687 292.222 205.916 292.222ZM219.628 290.775C222.197 290.775 223.903 292.611 223.903 295.31V301.68H222.262V295.612C222.262 293.626 221.074 292.287 219.304 292.287C217.08 292.287 215.611 293.798 215.611 296.562V301.68H213.97V291.034H215.611V292.805C216.475 291.51 217.835 290.775 219.628 290.775ZM233.296 299.758L233.836 301.118C232.972 301.723 232.238 301.96 231.375 301.96C229.258 301.96 227.855 300.708 227.855 298.354V292.416H225.545V291.034H227.855V287.644H229.518V291.034H233.318V292.416H229.518V298.246C229.518 299.628 230.295 300.406 231.483 300.406C232.087 300.406 232.756 300.147 233.296 299.758ZM241.659 296.886H234.684V295.439H241.659V296.886ZM250.52 290.775C253.089 290.775 254.795 292.611 254.795 295.31V301.68H253.154V295.612C253.154 293.626 251.966 292.287 250.196 292.287C247.972 292.287 246.503 293.798 246.503 296.562V301.68H244.862V286.133H246.503V292.805C247.367 291.51 248.727 290.775 250.52 290.775ZM268.118 296.087V296.692H258.984C259.135 299.089 260.949 300.514 262.784 300.514C264.296 300.514 265.656 299.931 266.412 298.225L267.88 298.57C267.038 300.794 265.181 301.96 262.784 301.96C259.956 301.96 257.386 299.78 257.386 296.389C257.386 292.978 259.956 290.775 262.892 290.775C265.764 290.775 268.01 292.913 268.118 296.087ZM262.892 292.222C261.165 292.222 259.373 293.367 259.049 295.461H266.455C266.153 293.367 264.663 292.222 262.892 292.222ZM272.587 301.68H270.946V286.133H272.587V301.68ZM282.26 290.775C285.089 290.775 287.572 292.999 287.572 296.368C287.572 299.736 285.089 301.96 282.26 301.96C280.489 301.96 278.978 301.248 278.028 299.995V305.35H276.387V291.034H278.028V292.74C278.978 291.488 280.489 290.775 282.26 290.775ZM282.001 300.492C284.203 300.492 285.974 298.894 285.974 296.368C285.974 293.82 284.203 292.222 282.001 292.222C279.993 292.222 278.028 293.82 278.028 296.368C278.028 298.894 279.993 300.492 282.001 300.492Z" fill="#C3C4D9"/>
<path fill-rule="evenodd" clip-rule="evenodd" d="M58.2125 171.598H51.0549C50.4231 171.598 49.8173 171.346 49.3705 170.9C48.9238 170.453 48.6729 169.847 48.6729 169.215V160.481C48.6729 157.533 49.844 154.706 51.9287 152.621C54.0134 150.536 56.8408 149.365 59.789 149.365C62.7371 149.365 65.5646 150.536 67.6493 152.621C68.5892 153.561 69.3435 154.652 69.8885 155.837C72.3409 156.201 74.6127 157.376 76.3306 159.191C78.2852 161.255 79.3746 163.99 79.3746 166.833V175.567C79.3746 176.199 79.1237 176.805 78.6769 177.252C78.2302 177.699 77.6243 177.95 76.9926 177.95H68.2584C65.9595 177.95 63.7171 177.237 61.8398 175.91C60.2753 174.804 59.0285 173.317 58.2125 171.598ZM54.1745 154.867C55.6635 153.378 57.6831 152.541 59.789 152.541C61.8948 152.541 63.9144 153.378 65.4035 154.867C66.8925 156.356 67.7291 158.376 67.7291 160.481C67.7291 162.587 66.8925 164.607 65.4035 166.096C63.9144 167.585 61.8948 168.421 59.789 168.421H59.2854C59.2769 168.421 59.2684 168.421 59.2599 168.421H51.8489V160.481C51.8489 158.376 52.6854 156.356 54.1745 154.867ZM61.7742 171.419C62.2919 172.15 62.9327 172.793 63.6731 173.316C65.0141 174.265 66.6162 174.774 68.2584 174.774H76.1985V166.833C76.1985 164.803 75.4204 162.849 74.0243 161.374C73.1375 160.438 72.0443 159.74 70.845 159.326C70.885 159.708 70.9051 160.094 70.9051 160.481C70.9051 163.43 69.734 166.257 67.6493 168.342C66.0388 169.952 63.9847 171.018 61.7742 171.419Z" fill="#CF47F1"/>
<path d="M54.1745 154.867C55.6635 153.378 57.6831 152.541 59.789 152.541C61.8948 152.541 63.9144 153.378 65.4035 154.867C66.8925 156.356 67.7291 158.376 67.7291 160.481C67.7291 162.587 66.8925 164.607 65.4035 166.096C63.9144 167.585 61.8948 168.421 59.789 168.421H59.2854C59.2769 168.421 59.2684 168.421 59.2599 168.421H51.8489V160.481C51.8489 158.376 52.6854 156.356 54.1745 154.867Z" fill="#CF47F1"/>
<path fill-rule="evenodd" clip-rule="evenodd" d="M58.2125 214.107H51.0549C50.4231 214.107 49.8173 213.856 49.3705 213.41C48.9238 212.963 48.6729 212.357 48.6729 211.725V202.991C48.6729 200.043 49.844 197.216 51.9287 195.131C54.0134 193.046 56.8408 191.875 59.789 191.875C62.7371 191.875 65.5646 193.046 67.6493 195.131C68.5892 196.071 69.3435 197.162 69.8885 198.347C72.3409 198.711 74.6127 199.886 76.3306 201.701C78.2852 203.765 79.3746 206.5 79.3746 209.343V218.077C79.3746 218.709 79.1237 219.315 78.6769 219.762C78.2302 220.208 77.6243 220.459 76.9926 220.459H68.2584C65.9595 220.459 63.7171 219.747 61.8398 218.42C60.2753 217.314 59.0285 215.827 58.2125 214.107ZM54.1745 197.377C55.6635 195.888 57.6831 195.051 59.789 195.051C61.8948 195.051 63.9144 195.888 65.4035 197.377C66.8925 198.866 67.7291 200.885 67.7291 202.991C67.7291 205.097 66.8925 207.117 65.4035 208.606C63.9144 210.095 61.8948 210.931 59.789 210.931H59.2854C59.2769 210.931 59.2684 210.931 59.2599 210.931H51.8489V202.991C51.8489 200.885 52.6854 198.866 54.1745 197.377ZM61.7742 213.929C62.2919 214.66 62.9327 215.303 63.6731 215.826C65.0141 216.774 66.6162 217.283 68.2584 217.283H76.1985V209.343C76.1985 207.312 75.4204 205.359 74.0243 203.884C73.1375 202.948 72.0443 202.249 70.845 201.836C70.885 202.218 70.9051 202.604 70.9051 202.991C70.9051 205.939 69.734 208.767 67.6493 210.851C66.0388 212.462 63.9847 213.527 61.7742 213.929Z" fill="#CF47F1"/>
<path d="M54.1745 197.377C55.6635 195.888 57.6831 195.051 59.789 195.051C61.8948 195.051 63.9144 195.888 65.4035 197.377C66.8925 198.866 67.7291 200.885 67.7291 202.991C67.7291 205.097 66.8925 207.117 65.4035 208.606C63.9144 210.095 61.8948 210.931 59.789 210.931H59.2854C59.2769 210.931 59.2684 210.931 59.2599 210.931H51.8489V202.991C51.8489 200.885 52.6854 198.866 54.1745 197.377Z" fill="#CF47F1"/>
<path fill-rule="evenodd" clip-rule="evenodd" d="M58.2125 257.209H51.0549C50.4231 257.209 49.8173 256.958 49.3705 256.511C48.9238 256.064 48.6729 255.459 48.6729 254.827V246.093C48.6729 243.144 49.844 240.317 51.9287 238.232C54.0134 236.148 56.8408 234.977 59.789 234.977C62.7371 234.977 65.5646 236.148 67.6493 238.232C68.5892 239.172 69.3435 240.263 69.8885 241.449C72.3409 241.812 74.6127 242.988 76.3306 244.802C78.2852 246.867 79.3746 249.602 79.3746 252.445V261.179C79.3746 261.811 79.1237 262.417 78.6769 262.863C78.2302 263.31 77.6243 263.561 76.9926 263.561H68.2584C65.9595 263.561 63.7171 262.848 61.8398 261.521C60.2753 260.416 59.0285 258.928 58.2125 257.209ZM54.1745 240.478C55.6635 238.989 57.6831 238.153 59.789 238.153C61.8948 238.153 63.9144 238.989 65.4035 240.478C66.8925 241.967 67.7291 243.987 67.7291 246.093C67.7291 248.199 66.8925 250.218 65.4035 251.707C63.9144 253.196 61.8948 254.033 59.789 254.033H59.2854C59.2769 254.033 59.2684 254.033 59.2599 254.033H51.8489V246.093C51.8489 243.987 52.6854 241.967 54.1745 240.478ZM61.7742 257.03C62.2919 257.762 62.9327 258.405 63.6731 258.928C65.0141 259.876 66.6162 260.385 68.2584 260.385H76.1985V252.445C76.1985 250.414 75.4204 248.46 74.0243 246.986C73.1375 246.049 72.0443 245.351 70.845 244.938C70.885 245.32 70.9051 245.705 70.9051 246.093C70.9051 249.041 69.734 251.868 67.6493 253.953C66.0388 255.564 63.9847 256.629 61.7742 257.03Z" fill="#CF47F1"/>
<path d="M54.1745 240.478C55.6635 238.989 57.6831 238.153 59.789 238.153C61.8948 238.153 63.9144 238.989 65.4035 240.478C66.8925 241.967 67.7291 243.987 67.7291 246.093C67.7291 248.199 66.8925 250.218 65.4035 251.707C63.9144 253.196 61.8948 254.033 59.789 254.033H59.2854C59.2769 254.033 59.2684 254.033 59.2599 254.033H51.8489V246.093C51.8489 243.987 52.6854 241.967 54.1745 240.478Z" fill="#CF47F1"/>
<path fill-rule="evenodd" clip-rule="evenodd" d="M58.2125 302.041H51.0549C50.4231 302.041 49.8173 301.79 49.3705 301.343C48.9238 300.896 48.6729 300.291 48.6729 299.659V290.925C48.6729 287.977 49.844 285.149 51.9287 283.064C54.0134 280.98 56.8408 279.809 59.789 279.809C62.7371 279.809 65.5646 280.98 67.6493 283.064C68.5892 284.004 69.3435 285.096 69.8885 286.281C72.3409 286.644 74.6127 287.82 76.3306 289.634C78.2852 291.699 79.3746 294.434 79.3746 297.277V306.011C79.3746 306.643 79.1237 307.249 78.6769 307.695C78.2302 308.142 77.6243 308.393 76.9926 308.393H68.2584C65.9595 308.393 63.7171 307.68 61.8398 306.353C60.2753 305.248 59.0285 303.76 58.2125 302.041ZM54.1745 285.31C55.6635 283.821 57.6831 282.985 59.789 282.985C61.8948 282.985 63.9144 283.821 65.4035 285.31C66.8925 286.799 67.7291 288.819 67.7291 290.925C67.7291 293.031 66.8925 295.05 65.4035 296.539C63.9144 298.028 61.8948 298.865 59.789 298.865H59.2854C59.2769 298.865 59.2684 298.865 59.2599 298.865H51.8489V290.925C51.8489 288.819 52.6854 286.799 54.1745 285.31ZM61.7742 301.862C62.2919 302.594 62.9327 303.237 63.6731 303.76C65.0141 304.708 66.6162 305.217 68.2584 305.217H76.1985V297.277C76.1985 295.246 75.4204 293.292 74.0243 291.818C73.1375 290.881 72.0443 290.183 70.845 289.77C70.885 290.152 70.9051 290.537 70.9051 290.925C70.9051 293.873 69.734 296.7 67.6493 298.785C66.0388 300.396 63.9847 301.461 61.7742 301.862Z" fill="#CF47F1"/>
<path d="M54.1745 285.31C55.6635 283.821 57.6831 282.985 59.789 282.985C61.8948 282.985 63.9144 283.821 65.4035 285.31C66.8925 286.799 67.7291 288.819 67.7291 290.925C67.7291 293.031 66.8925 295.05 65.4035 296.539C63.9144 298.028 61.8948 298.865 59.789 298.865H59.2854C59.2769 298.865 59.2684 298.865 59.2599 298.865H51.8489V290.925C51.8489 288.819 52.6854 286.799 54.1745 285.31Z" fill="#CF47F1"/>
<rect x="0.256836" y="66.707" width="204.063" height="63.7975" rx="18.1689" fill="#353758"/>
<path d="M47.6821 93.4313C48.0778 93.0249 48.0785 92.3616 47.6837 91.9544L46.3832 90.6128C45.9929 90.2103 45.3629 90.2097 44.9719 90.6114L34.8601 101C34.4696 101.401 33.8408 101.401 33.4504 101L23.3385 90.6114C22.9474 90.2097 22.3175 90.2103 21.9273 90.6128L20.6267 91.9544C20.2319 92.3616 20.2325 93.0249 20.6283 93.4313L33.4504 106.599C33.841 107 34.4695 107 34.8599 106.599L47.6821 93.4313Z" fill="white"/>
<path d="M66.9303 93.2952C70.2532 93.2952 72.4877 95.6729 72.4877 99.2824V108.105H67.9329V100.256C67.9329 98.5662 66.9303 97.4203 65.4406 97.4203C63.6646 97.4203 62.49 98.6521 62.49 101.431V108.105H57.9066V87.48H62.49V95.1C63.6073 93.9541 65.0969 93.2952 66.9303 93.2952ZM89.7369 100.915V102.09H79.195C79.5674 103.808 80.7419 104.868 82.2888 104.868C83.3487 104.868 84.5805 104.611 85.354 103.207L89.4218 104.038C88.19 107.074 85.5831 108.535 82.2888 108.535C78.1351 108.535 74.6975 105.47 74.6975 100.915C74.6975 96.3891 78.1351 93.2952 82.3174 93.2952C86.3852 93.2952 89.6509 96.2172 89.7369 100.915ZM82.3174 97.0193C81.0283 97.0193 79.7106 97.8214 79.2809 99.2824H85.2107C84.781 97.7354 83.6352 97.0193 82.3174 97.0193ZM96.7036 108.105H92.1201V87.48H96.7036V108.105ZM109.089 93.2952C112.899 93.2952 116.108 96.3891 116.108 100.915C116.108 105.47 112.899 108.535 109.089 108.535C107.227 108.535 105.738 107.962 104.621 106.96V112.975H100.037V93.7249H104.621V94.8708C105.738 93.8682 107.227 93.2952 109.089 93.2952ZM108.144 104.639C110.149 104.639 111.61 103.15 111.61 100.915C111.61 98.7094 110.149 97.1912 108.144 97.1912C106.282 97.1912 104.621 98.7094 104.621 100.915C104.621 103.15 106.282 104.639 108.144 104.639ZM133.598 87.48V108.105H129.015V106.96C127.897 107.962 126.408 108.535 124.546 108.535C120.736 108.535 117.527 105.47 117.527 100.915C117.527 96.3891 120.736 93.2952 124.546 93.2952C126.408 93.2952 127.897 93.8682 129.015 94.8708V87.48H133.598ZM125.491 104.639C127.353 104.639 129.015 103.15 129.015 100.915C129.015 98.7094 127.353 97.1912 125.491 97.1912C123.486 97.1912 122.025 98.7094 122.025 100.915C122.025 103.15 123.486 104.639 125.491 104.639ZM151.002 100.915V102.09H140.46C140.833 103.808 142.007 104.868 143.554 104.868C144.614 104.868 145.846 104.611 146.619 103.207L150.687 104.038C149.455 107.074 146.849 108.535 143.554 108.535C139.4 108.535 135.963 105.47 135.963 100.915C135.963 96.3891 139.4 93.2952 143.583 93.2952C147.651 93.2952 150.916 96.2172 151.002 100.915ZM143.583 97.0193C142.294 97.0193 140.976 97.8214 140.546 99.2824H146.476C146.046 97.7354 144.901 97.0193 143.583 97.0193ZM152.412 104.353L156.88 103.436C157.081 104.668 158.198 105.126 159.43 105.126C160.633 105.126 161.292 104.611 161.292 103.98C161.292 103.493 160.92 103.121 159.86 102.92L156.938 102.348C154.274 101.861 152.755 100.428 152.755 98.1651C152.755 95.2146 155.305 93.2952 158.943 93.2952C162.524 93.2952 164.901 94.9281 165.474 97.4203L161.292 98.2511C161.149 97.363 160.289 96.5609 158.886 96.5609C157.654 96.5609 157.253 97.1625 157.253 97.6782C157.253 98.0792 157.425 98.4803 158.341 98.6808L161.722 99.3683C164.443 99.9412 165.704 101.574 165.704 103.694C165.704 106.874 162.953 108.535 159.172 108.535C155.792 108.535 152.899 107.303 152.412 104.353ZM184.084 108.105H178.212L173.543 102.92H172.712V108.105H168.128V87.48H172.712V98.6235H173.342L177.897 93.7249H183.426L177.123 100.571L184.084 108.105Z" fill="white"/>
</svg>
