<svg width="342" height="286" viewBox="0 0 342 286" fill="none" xmlns="http://www.w3.org/2000/svg">
<rect x="22.3438" y="70" width="319" height="216" rx="18.1689" fill="#232439"/>
<rect x="22.1895" width="266.869" height="46.0526" rx="18.1689" fill="#232439"/>
<path d="M98.4328 121.996C96.8781 121.996 95.8417 120.873 95.8417 119.276C95.8417 117.699 96.8781 116.555 98.4328 116.555C99.534 116.555 100.419 117.159 100.722 118.477L103.96 117.699C103.356 115.151 101.067 113.532 98.4328 113.532C95.1939 113.532 92.5164 115.864 92.5164 119.276C92.5164 122.709 95.1939 125.019 98.4328 125.019C101.132 125.019 103.421 123.357 103.96 120.787L100.786 120.096C100.419 121.413 99.534 121.996 98.4328 121.996ZM111.045 113.575C107.762 113.575 105.042 115.864 105.042 119.276C105.042 122.709 107.762 124.998 111.045 124.998C114.262 124.998 116.983 122.709 116.983 119.276C116.983 115.864 114.262 113.575 111.045 113.575ZM111.045 122.083C109.641 122.083 108.367 120.981 108.367 119.276C108.367 117.591 109.641 116.469 111.045 116.469C112.383 116.469 113.657 117.591 113.657 119.276C113.657 120.981 112.383 122.083 111.045 122.083ZM132.8 113.532C131.116 113.532 129.82 114.244 128.957 115.367C128.222 114.18 126.927 113.532 125.415 113.532C124.012 113.532 122.954 114.029 122.22 114.849V113.856H118.765V124.695H122.22V119.384C122.22 117.57 123.04 116.641 124.293 116.641C125.329 116.641 126.128 117.419 126.128 118.649V124.695H129.583V119.384C129.583 117.57 130.425 116.641 131.699 116.641C132.714 116.641 133.513 117.419 133.513 118.649V124.695H136.946V117.915C136.946 115.281 135.11 113.532 132.8 113.532ZM153.338 113.532C151.654 113.532 150.359 114.244 149.495 115.367C148.761 114.18 147.465 113.532 145.954 113.532C144.55 113.532 143.492 114.029 142.758 114.849V113.856H139.303V124.695H142.758V119.384C142.758 117.57 143.579 116.641 144.831 116.641C145.867 116.641 146.666 117.419 146.666 118.649V124.695H150.121V119.384C150.121 117.57 150.963 116.641 152.237 116.641C153.252 116.641 154.051 117.419 154.051 118.649V124.695H157.484V117.915C157.484 115.281 155.649 113.532 153.338 113.532ZM170.597 113.856H167.142V118.887C167.142 120.981 166.257 121.91 164.896 121.91C163.795 121.91 163.039 121.046 163.039 119.772V113.856H159.606V120.506C159.606 123.227 161.29 125.019 163.817 125.019C165.177 125.019 166.321 124.523 167.142 123.659V124.695H170.597V113.856ZM179.885 113.532C178.525 113.532 177.38 114.029 176.56 114.892V113.856H173.105V124.695H176.56V119.664C176.56 117.57 177.445 116.641 178.805 116.641C179.907 116.641 180.662 117.505 180.662 118.779V124.695H184.096V118.045C184.096 115.324 182.411 113.532 179.885 113.532ZM188.353 108.695C187.187 108.695 186.366 109.602 186.366 110.66C186.366 111.761 187.187 112.582 188.353 112.582C189.519 112.582 190.361 111.761 190.361 110.66C190.361 109.602 189.519 108.695 188.353 108.695ZM190.08 124.695V113.856H186.626V124.695H190.08ZM199.991 121.5C199.538 121.759 198.89 121.931 198.415 121.931C197.508 121.931 196.968 121.478 196.968 120.355V116.598H200.164V113.856H196.968V110.66H193.513V113.856H191.548V116.598H193.513V120.701C193.513 123.551 195.133 125.019 197.832 125.019C199.063 125.019 199.948 124.674 200.79 124.22L199.991 121.5ZM213.738 113.834H210.024L207.281 120.161L204.712 113.834H200.998L205.489 124.328L203.74 128.366H207.476L213.738 113.834ZM221.899 120.485V117.57H214.752V120.485H221.899ZM223.717 121.867C224.084 124.091 226.265 125.019 228.813 125.019C231.663 125.019 233.736 123.767 233.736 121.37C233.736 119.772 232.786 118.541 230.734 118.11L228.186 117.591C227.495 117.44 227.366 117.138 227.366 116.836C227.366 116.447 227.668 115.993 228.597 115.993C229.655 115.993 230.302 116.598 230.41 117.267L233.563 116.641C233.131 114.763 231.339 113.532 228.64 113.532C225.898 113.532 223.976 114.979 223.976 117.203C223.976 118.908 225.12 119.988 227.128 120.355L229.331 120.787C230.13 120.938 230.41 121.219 230.41 121.586C230.41 122.061 229.914 122.45 229.007 122.45C228.078 122.45 227.236 122.104 227.085 121.176L223.717 121.867ZM246.187 119.276C246.122 115.734 243.661 113.532 240.595 113.532C237.442 113.532 234.851 115.864 234.851 119.276C234.851 122.709 237.442 125.019 240.573 125.019C243.056 125.019 245.021 123.918 245.95 121.629L242.883 121.003C242.3 122.061 241.372 122.255 240.573 122.255C239.407 122.255 238.522 121.456 238.241 120.161H246.187V119.276ZM240.595 116.339C241.588 116.339 242.452 116.879 242.775 118.045H238.306C238.63 116.944 239.623 116.339 240.595 116.339ZM255.217 121.5C254.764 121.759 254.116 121.931 253.641 121.931C252.734 121.931 252.194 121.478 252.194 120.355V116.598H255.39V113.856H252.194V110.66H248.739V113.856H246.774V116.598H248.739V120.701C248.739 123.551 250.359 125.019 253.058 125.019C254.289 125.019 255.174 124.674 256.016 124.22L255.217 121.5ZM267.954 113.856H264.499V118.887C264.499 120.981 263.613 121.91 262.253 121.91C261.152 121.91 260.396 121.046 260.396 119.772V113.856H256.963V120.506C256.963 123.227 258.647 125.019 261.173 125.019C262.534 125.019 263.678 124.523 264.499 123.659V124.695H267.954V113.856ZM277.285 113.532C275.882 113.532 274.759 113.964 273.917 114.719V113.856H270.462V128.366H273.917V123.832C274.759 124.587 275.882 125.019 277.285 125.019C280.157 125.019 282.575 122.709 282.575 119.276C282.575 115.864 280.157 113.532 277.285 113.532ZM276.573 122.083C275.169 122.083 273.917 120.96 273.917 119.276C273.917 117.613 275.169 116.469 276.573 116.469C278.084 116.469 279.185 117.613 279.185 119.276C279.185 120.96 278.084 122.083 276.573 122.083Z" fill="#C3C4D9"/>
<path d="M98.4328 166.231C96.8781 166.231 95.8417 165.108 95.8417 163.51C95.8417 161.934 96.8781 160.789 98.4328 160.789C99.534 160.789 100.419 161.394 100.722 162.711L103.96 161.934C103.356 159.386 101.067 157.766 98.4328 157.766C95.1939 157.766 92.5164 160.098 92.5164 163.51C92.5164 166.943 95.1939 169.254 98.4328 169.254C101.132 169.254 103.421 167.591 103.96 165.021L100.786 164.33C100.419 165.648 99.534 166.231 98.4328 166.231ZM111.045 157.809C107.762 157.809 105.042 160.098 105.042 163.51C105.042 166.943 107.762 169.232 111.045 169.232C114.262 169.232 116.983 166.943 116.983 163.51C116.983 160.098 114.262 157.809 111.045 157.809ZM111.045 166.317C109.641 166.317 108.367 165.216 108.367 163.51C108.367 161.826 109.641 160.703 111.045 160.703C112.383 160.703 113.657 161.826 113.657 163.51C113.657 165.216 112.383 166.317 111.045 166.317ZM132.8 157.766C131.116 157.766 129.82 158.479 128.957 159.602C128.222 158.414 126.927 157.766 125.415 157.766C124.012 157.766 122.954 158.263 122.22 159.083V158.09H118.765V168.93H122.22V163.618C122.22 161.804 123.04 160.876 124.293 160.876C125.329 160.876 126.128 161.653 126.128 162.884V168.93H129.583V163.618C129.583 161.804 130.425 160.876 131.699 160.876C132.714 160.876 133.513 161.653 133.513 162.884V168.93H136.946V162.15C136.946 159.515 135.11 157.766 132.8 157.766ZM153.338 157.766C151.654 157.766 150.359 158.479 149.495 159.602C148.761 158.414 147.465 157.766 145.954 157.766C144.55 157.766 143.492 158.263 142.758 159.083V158.09H139.303V168.93H142.758V163.618C142.758 161.804 143.579 160.876 144.831 160.876C145.867 160.876 146.666 161.653 146.666 162.884V168.93H150.121V163.618C150.121 161.804 150.963 160.876 152.237 160.876C153.252 160.876 154.051 161.653 154.051 162.884V168.93H157.484V162.15C157.484 159.515 155.649 157.766 153.338 157.766ZM170.597 158.09H167.142V163.121C167.142 165.216 166.257 166.144 164.896 166.144C163.795 166.144 163.039 165.281 163.039 164.007V158.09H159.606V164.741C159.606 167.461 161.29 169.254 163.817 169.254C165.177 169.254 166.321 168.757 167.142 167.893V168.93H170.597V158.09ZM179.885 157.766C178.525 157.766 177.38 158.263 176.56 159.127V158.09H173.105V168.93H176.56V163.899C176.56 161.804 177.445 160.876 178.805 160.876C179.907 160.876 180.662 161.739 180.662 163.013V168.93H184.096V162.279C184.096 159.558 182.411 157.766 179.885 157.766ZM188.353 152.93C187.187 152.93 186.366 153.836 186.366 154.894C186.366 155.996 187.187 156.816 188.353 156.816C189.519 156.816 190.361 155.996 190.361 154.894C190.361 153.836 189.519 152.93 188.353 152.93ZM190.08 168.93V158.09H186.626V168.93H190.08ZM199.991 165.734C199.538 165.993 198.89 166.166 198.415 166.166C197.508 166.166 196.968 165.712 196.968 164.59V160.832H200.164V158.09H196.968V154.894H193.513V158.09H191.548V160.832H193.513V164.935C193.513 167.785 195.133 169.254 197.832 169.254C199.063 169.254 199.948 168.908 200.79 168.455L199.991 165.734ZM213.738 158.069H210.024L207.281 164.395L204.712 158.069H200.998L205.489 168.563L203.74 172.6H207.476L213.738 158.069ZM221.899 164.719V161.804H214.752V164.719H221.899ZM236.231 153.383H232.777V158.954C231.934 158.198 230.812 157.766 229.408 157.766C226.536 157.766 224.118 160.098 224.118 163.51C224.118 166.943 226.536 169.254 229.408 169.254C230.812 169.254 231.934 168.822 232.777 168.066V168.93H236.231V153.383ZM230.121 166.317C228.609 166.317 227.508 165.194 227.508 163.51C227.508 161.847 228.609 160.703 230.121 160.703C231.524 160.703 232.777 161.847 232.777 163.51C232.777 165.194 231.524 166.317 230.121 166.317ZM249.35 163.51C249.285 159.969 246.824 157.766 243.758 157.766C240.605 157.766 238.014 160.098 238.014 163.51C238.014 166.943 240.605 169.254 243.736 169.254C246.219 169.254 248.184 168.152 249.113 165.864L246.046 165.237C245.463 166.295 244.535 166.49 243.736 166.49C242.57 166.49 241.685 165.691 241.404 164.395H249.35V163.51ZM243.758 160.573C244.751 160.573 245.615 161.113 245.938 162.279H241.469C241.793 161.178 242.786 160.573 243.758 160.573ZM250.412 166.101C250.779 168.325 252.96 169.254 255.508 169.254C258.358 169.254 260.431 168.001 260.431 165.604C260.431 164.007 259.481 162.776 257.43 162.344L254.882 161.826C254.191 161.675 254.061 161.372 254.061 161.07C254.061 160.681 254.364 160.228 255.292 160.228C256.35 160.228 256.998 160.832 257.106 161.502L260.259 160.876C259.827 158.997 258.035 157.766 255.335 157.766C252.593 157.766 250.671 159.213 250.671 161.437C250.671 163.143 251.816 164.222 253.824 164.59L256.026 165.021C256.825 165.173 257.106 165.453 257.106 165.82C257.106 166.295 256.609 166.684 255.703 166.684C254.774 166.684 253.932 166.339 253.781 165.41L250.412 166.101ZM264.159 152.93C262.993 152.93 262.173 153.836 262.173 154.894C262.173 155.996 262.993 156.816 264.159 156.816C265.325 156.816 266.167 155.996 266.167 154.894C266.167 153.836 265.325 152.93 264.159 152.93ZM265.887 168.93V158.09H262.432V168.93H265.887ZM279.727 158.09H276.337V158.803C275.56 158.133 274.48 157.766 273.077 157.766C270.248 157.766 267.851 159.99 267.851 162.992C267.851 166.058 270.248 168.303 273.077 168.303C274.48 168.303 275.56 167.936 276.337 167.267V167.569C276.337 169.275 275.215 170.204 273.638 170.204C272.515 170.204 271.911 169.837 271.09 168.865L268.219 170.42C269.277 172.169 271.177 173.032 273.66 173.032C277.179 173.032 279.727 171.197 279.727 167.85V158.09ZM273.811 165.475C272.3 165.475 271.22 164.438 271.22 162.992C271.22 161.545 272.3 160.53 273.811 160.53C275.193 160.53 276.337 161.545 276.337 162.992C276.337 164.438 275.193 165.475 273.811 165.475ZM289.029 157.766C287.669 157.766 286.525 158.263 285.704 159.127V158.09H282.249V168.93H285.704V163.899C285.704 161.804 286.589 160.876 287.95 160.876C289.051 160.876 289.807 161.739 289.807 163.013V168.93H293.24V162.279C293.24 159.558 291.556 157.766 289.029 157.766Z" fill="#C3C4D9"/>
<path d="M98.4328 210.469C96.8781 210.469 95.8417 209.346 95.8417 207.748C95.8417 206.172 96.8781 205.028 98.4328 205.028C99.534 205.028 100.419 205.632 100.722 206.949L103.96 206.172C103.356 203.624 101.067 202.005 98.4328 202.005C95.1939 202.005 92.5164 204.337 92.5164 207.748C92.5164 211.181 95.1939 213.492 98.4328 213.492C101.132 213.492 103.421 211.829 103.96 209.26L100.786 208.569C100.419 209.886 99.534 210.469 98.4328 210.469ZM111.045 202.048C107.762 202.048 105.042 204.337 105.042 207.748C105.042 211.181 107.762 213.47 111.045 213.47C114.262 213.47 116.983 211.181 116.983 207.748C116.983 204.337 114.262 202.048 111.045 202.048ZM111.045 210.555C109.641 210.555 108.367 209.454 108.367 207.748C108.367 206.064 109.641 204.941 111.045 204.941C112.383 204.941 113.657 206.064 113.657 207.748C113.657 209.454 112.383 210.555 111.045 210.555ZM132.8 202.005C131.116 202.005 129.82 202.717 128.957 203.84C128.222 202.652 126.927 202.005 125.415 202.005C124.012 202.005 122.954 202.501 122.22 203.322V202.328H118.765V213.168H122.22V207.856C122.22 206.042 123.04 205.114 124.293 205.114C125.329 205.114 126.128 205.891 126.128 207.122V213.168H129.583V207.856C129.583 206.042 130.425 205.114 131.699 205.114C132.714 205.114 133.513 205.891 133.513 207.122V213.168H136.946V206.388C136.946 203.754 135.11 202.005 132.8 202.005ZM153.338 202.005C151.654 202.005 150.359 202.717 149.495 203.84C148.761 202.652 147.465 202.005 145.954 202.005C144.55 202.005 143.492 202.501 142.758 203.322V202.328H139.303V213.168H142.758V207.856C142.758 206.042 143.579 205.114 144.831 205.114C145.867 205.114 146.666 205.891 146.666 207.122V213.168H150.121V207.856C150.121 206.042 150.963 205.114 152.237 205.114C153.252 205.114 154.051 205.891 154.051 207.122V213.168H157.484V206.388C157.484 203.754 155.649 202.005 153.338 202.005ZM170.597 202.328H167.142V207.36C167.142 209.454 166.257 210.383 164.896 210.383C163.795 210.383 163.039 209.519 163.039 208.245V202.328H159.606V208.979C159.606 211.7 161.29 213.492 163.817 213.492C165.177 213.492 166.321 212.995 167.142 212.132V213.168H170.597V202.328ZM179.885 202.005C178.525 202.005 177.38 202.501 176.56 203.365V202.328H173.105V213.168H176.56V208.137C176.56 206.042 177.445 205.114 178.805 205.114C179.907 205.114 180.662 205.978 180.662 207.252V213.168H184.096V206.517C184.096 203.797 182.411 202.005 179.885 202.005ZM188.353 197.168C187.187 197.168 186.366 198.075 186.366 199.133C186.366 200.234 187.187 201.054 188.353 201.054C189.519 201.054 190.361 200.234 190.361 199.133C190.361 198.075 189.519 197.168 188.353 197.168ZM190.08 213.168V202.328H186.626V213.168H190.08ZM199.991 209.972C199.538 210.231 198.89 210.404 198.415 210.404C197.508 210.404 196.968 209.951 196.968 208.828V205.071H200.164V202.328H196.968V199.133H193.513V202.328H191.548V205.071H193.513V209.173C193.513 212.024 195.133 213.492 197.832 213.492C199.063 213.492 199.948 213.146 200.79 212.693L199.991 209.972ZM213.738 202.307H210.024L207.281 208.634L204.712 202.307H200.998L205.489 212.801L203.74 216.839H207.476L213.738 202.307ZM221.899 208.957V206.042H214.752V208.957H221.899ZM228.51 202.328V201.637C228.51 200.774 229.093 200.277 229.914 200.277C230.173 200.277 230.518 200.342 230.842 200.45L231.576 197.772C230.885 197.47 230.173 197.319 229.439 197.319C226.826 197.319 225.077 198.938 225.077 201.486V202.328H223.522V205.071H225.077V213.168H228.51V205.071H231.49V202.328H228.51ZM243.214 207.748C243.149 204.207 240.688 202.005 237.621 202.005C234.469 202.005 231.878 204.337 231.878 207.748C231.878 211.181 234.469 213.492 237.6 213.492C240.083 213.492 242.048 212.391 242.976 210.102L239.91 209.476C239.327 210.534 238.399 210.728 237.6 210.728C236.434 210.728 235.548 209.929 235.268 208.634H243.214V207.748ZM237.621 204.812C238.615 204.812 239.478 205.351 239.802 206.517H235.333C235.656 205.416 236.65 204.812 237.621 204.812ZM255.634 207.748C255.569 204.207 253.108 202.005 250.041 202.005C246.889 202.005 244.298 204.337 244.298 207.748C244.298 211.181 246.889 213.492 250.02 213.492C252.503 213.492 254.468 212.391 255.396 210.102L252.33 209.476C251.747 210.534 250.819 210.728 250.02 210.728C248.854 210.728 247.968 209.929 247.688 208.634H255.634V207.748ZM250.041 204.812C251.035 204.812 251.898 205.351 252.222 206.517H247.753C248.076 205.416 249.07 204.812 250.041 204.812ZM268.831 197.621H265.376V203.192C264.534 202.436 263.411 202.005 262.008 202.005C259.136 202.005 256.718 204.337 256.718 207.748C256.718 211.181 259.136 213.492 262.008 213.492C263.411 213.492 264.534 213.06 265.376 212.304V213.168H268.831V197.621ZM262.72 210.555C261.209 210.555 260.108 209.432 260.108 207.748C260.108 206.086 261.209 204.941 262.72 204.941C264.124 204.941 265.376 206.086 265.376 207.748C265.376 209.432 264.124 210.555 262.72 210.555ZM278.15 202.005C276.746 202.005 275.623 202.436 274.781 203.192V197.621H271.326V213.168H274.781V212.304C275.623 213.06 276.746 213.492 278.15 213.492C281.021 213.492 283.44 211.181 283.44 207.748C283.44 204.337 281.021 202.005 278.15 202.005ZM277.437 210.555C276.034 210.555 274.781 209.432 274.781 207.748C274.781 206.086 276.034 204.941 277.437 204.941C278.949 204.941 280.05 206.086 280.05 207.748C280.05 209.432 278.949 210.555 277.437 210.555ZM296.623 202.328H293.169V203.192C292.326 202.436 291.204 202.005 289.8 202.005C286.928 202.005 284.51 204.337 284.51 207.748C284.51 211.181 286.928 213.492 289.8 213.492C291.204 213.492 292.326 213.06 293.169 212.304V213.168H296.623V202.328ZM290.513 210.555C289.001 210.555 287.9 209.432 287.9 207.748C287.9 206.086 289.001 204.941 290.513 204.941C291.916 204.941 293.169 206.086 293.169 207.748C293.169 209.432 291.916 210.555 290.513 210.555ZM304.322 210.469C302.768 210.469 301.731 209.346 301.731 207.748C301.731 206.172 302.768 205.028 304.322 205.028C305.424 205.028 306.309 205.632 306.611 206.949L309.85 206.172C309.245 203.624 306.957 202.005 304.322 202.005C301.083 202.005 298.406 204.337 298.406 207.748C298.406 211.181 301.083 213.492 304.322 213.492C307.021 213.492 309.31 211.829 309.85 209.26L306.676 208.569C306.309 209.886 305.424 210.469 304.322 210.469ZM323.671 213.168L318.424 207.489L323.174 202.328H319.007L315.574 206.021H315.099V197.621H311.644V213.168H315.099V209.26H315.725L319.245 213.168H323.671Z" fill="#C3C4D9"/>
<path d="M98.4328 255.301C96.8781 255.301 95.8417 254.178 95.8417 252.58C95.8417 251.004 96.8781 249.86 98.4328 249.86C99.534 249.86 100.419 250.464 100.722 251.781L103.96 251.004C103.356 248.456 101.067 246.837 98.4328 246.837C95.1939 246.837 92.5164 249.169 92.5164 252.58C92.5164 256.013 95.1939 258.324 98.4328 258.324C101.132 258.324 103.421 256.661 103.96 254.092L100.786 253.401C100.419 254.718 99.534 255.301 98.4328 255.301ZM111.045 246.88C107.762 246.88 105.042 249.169 105.042 252.58C105.042 256.013 107.762 258.302 111.045 258.302C114.262 258.302 116.983 256.013 116.983 252.58C116.983 249.169 114.262 246.88 111.045 246.88ZM111.045 255.387C109.641 255.387 108.367 254.286 108.367 252.58C108.367 250.896 109.641 249.773 111.045 249.773C112.383 249.773 113.657 250.896 113.657 252.58C113.657 254.286 112.383 255.387 111.045 255.387ZM132.8 246.837C131.116 246.837 129.82 247.549 128.957 248.672C128.222 247.484 126.927 246.837 125.415 246.837C124.012 246.837 122.954 247.333 122.22 248.154V247.16H118.765V258H122.22V252.688C122.22 250.874 123.04 249.946 124.293 249.946C125.329 249.946 126.128 250.723 126.128 251.954V258H129.583V252.688C129.583 250.874 130.425 249.946 131.699 249.946C132.714 249.946 133.513 250.723 133.513 251.954V258H136.946V251.22C136.946 248.586 135.11 246.837 132.8 246.837ZM153.338 246.837C151.654 246.837 150.359 247.549 149.495 248.672C148.761 247.484 147.465 246.837 145.954 246.837C144.55 246.837 143.492 247.333 142.758 248.154V247.16H139.303V258H142.758V252.688C142.758 250.874 143.579 249.946 144.831 249.946C145.867 249.946 146.666 250.723 146.666 251.954V258H150.121V252.688C150.121 250.874 150.963 249.946 152.237 249.946C153.252 249.946 154.051 250.723 154.051 251.954V258H157.484V251.22C157.484 248.586 155.649 246.837 153.338 246.837ZM170.597 247.16H167.142V252.192C167.142 254.286 166.257 255.215 164.896 255.215C163.795 255.215 163.039 254.351 163.039 253.077V247.16H159.606V253.811C159.606 256.532 161.29 258.324 163.817 258.324C165.177 258.324 166.321 257.827 167.142 256.964V258H170.597V247.16ZM179.885 246.837C178.525 246.837 177.38 247.333 176.56 248.197V247.16H173.105V258H176.56V252.969C176.56 250.874 177.445 249.946 178.805 249.946C179.907 249.946 180.662 250.81 180.662 252.084V258H184.096V251.349C184.096 248.629 182.411 246.837 179.885 246.837ZM188.353 242C187.187 242 186.366 242.907 186.366 243.965C186.366 245.066 187.187 245.887 188.353 245.887C189.519 245.887 190.361 245.066 190.361 243.965C190.361 242.907 189.519 242 188.353 242ZM190.08 258V247.16H186.626V258H190.08ZM199.991 254.804C199.538 255.063 198.89 255.236 198.415 255.236C197.508 255.236 196.968 254.783 196.968 253.66V249.903H200.164V247.16H196.968V243.965H193.513V247.16H191.548V249.903H193.513V254.005C193.513 256.856 195.133 258.324 197.832 258.324C199.063 258.324 199.948 257.978 200.79 257.525L199.991 254.804ZM213.738 247.139H210.024L207.281 253.466L204.712 247.139H200.998L205.489 257.633L203.74 261.671H207.476L213.738 247.139ZM221.899 253.789V250.874H214.752V253.789H221.899ZM223.717 255.171C224.084 257.395 226.265 258.324 228.813 258.324C231.663 258.324 233.736 257.072 233.736 254.675C233.736 253.077 232.786 251.846 230.734 251.414L228.186 250.896C227.495 250.745 227.366 250.443 227.366 250.14C227.366 249.752 227.668 249.298 228.597 249.298C229.655 249.298 230.302 249.903 230.41 250.572L233.563 249.946C233.131 248.067 231.339 246.837 228.64 246.837C225.898 246.837 223.976 248.283 223.976 250.507C223.976 252.213 225.12 253.293 227.128 253.66L229.331 254.092C230.13 254.243 230.41 254.524 230.41 254.891C230.41 255.366 229.914 255.754 229.007 255.754C228.078 255.754 227.236 255.409 227.085 254.48L223.717 255.171ZM246.964 247.16H243.51V248.024C242.667 247.268 241.545 246.837 240.141 246.837C237.269 246.837 234.851 249.169 234.851 252.58C234.851 256.013 237.269 258.324 240.141 258.324C241.545 258.324 242.667 257.892 243.51 257.136V258H246.964V247.16ZM240.854 255.387C239.342 255.387 238.241 254.264 238.241 252.58C238.241 250.918 239.342 249.773 240.854 249.773C242.257 249.773 243.51 250.918 243.51 252.58C243.51 254.264 242.257 255.387 240.854 255.387ZM253.519 247.16V246.47C253.519 245.606 254.102 245.109 254.923 245.109C255.182 245.109 255.527 245.174 255.851 245.282L256.585 242.604C255.894 242.302 255.182 242.151 254.447 242.151C251.835 242.151 250.086 243.77 250.086 246.318V247.16H248.531V249.903H250.086V258H253.519V249.903H256.499V247.16H253.519ZM268.223 252.58C268.158 249.039 265.696 246.837 262.63 246.837C259.478 246.837 256.886 249.169 256.886 252.58C256.886 256.013 259.478 258.324 262.608 258.324C265.092 258.324 267.057 257.223 267.985 254.934L264.919 254.308C264.336 255.366 263.407 255.56 262.608 255.56C261.442 255.56 260.557 254.761 260.276 253.466H268.223V252.58ZM262.63 249.644C263.623 249.644 264.487 250.183 264.811 251.349H260.341C260.665 250.248 261.658 249.644 262.63 249.644ZM277.253 254.804C276.799 255.063 276.151 255.236 275.676 255.236C274.769 255.236 274.23 254.783 274.23 253.66V249.903H277.425V247.16H274.23V243.965H270.775V247.16H268.81V249.903H270.775V254.005C270.775 256.856 272.394 258.324 275.093 258.324C276.324 258.324 277.209 257.978 278.051 257.525L277.253 254.804ZM290.999 247.139H287.285L284.543 253.466L281.973 247.139H278.259L282.75 257.633L281.001 261.671H284.737L290.999 247.139Z" fill="#C3C4D9"/>
<path fill-rule="evenodd" clip-rule="evenodd" d="M58.2974 127.918H51.1398C50.5081 127.918 49.9022 127.667 49.4555 127.22C49.0088 126.773 48.7578 126.168 48.7578 125.536V116.802C48.7578 113.853 49.929 111.026 52.0137 108.941C54.0983 106.857 56.9258 105.686 59.8739 105.686C62.8221 105.686 65.6496 106.857 67.7343 108.941C68.6742 109.881 69.4285 110.972 69.9734 112.158C72.4258 112.521 74.6977 113.697 76.4156 115.511C78.3702 117.576 79.4595 120.311 79.4595 123.154V131.888C79.4595 132.52 79.2087 133.126 78.7618 133.572C78.3151 134.019 77.7092 134.27 77.0776 134.27H68.3434C66.0444 134.27 63.8021 133.557 61.9248 132.23C60.3603 131.125 59.1134 129.637 58.2974 127.918ZM54.2595 111.187C55.7485 109.698 57.7681 108.862 59.8739 108.862C61.9798 108.862 63.9994 109.698 65.4885 111.187C66.9774 112.676 67.814 114.696 67.814 116.802C67.814 118.908 66.9774 120.927 65.4885 122.416C63.9994 123.905 61.9798 124.742 59.874 124.742H59.3703C59.3618 124.742 59.3534 124.742 59.3448 124.742H51.9339V116.802C51.9339 114.696 52.7704 112.676 54.2595 111.187ZM61.8592 127.739C62.3769 128.471 63.0177 129.114 63.758 129.637C65.0991 130.585 66.7012 131.094 68.3434 131.094H76.2835V123.154C76.2835 121.123 75.5053 119.169 74.1092 117.695C73.2225 116.758 72.1292 116.06 70.93 115.647C70.9699 116.029 70.9901 116.414 70.9901 116.802C70.9901 119.75 69.8189 122.577 67.7343 124.662C66.1237 126.273 64.0697 127.338 61.8592 127.739Z" fill="#CF47F1"/>
<path fill-rule="evenodd" clip-rule="evenodd" d="M58.2974 170.428H51.1398C50.5081 170.428 49.9022 170.177 49.4555 169.73C49.0088 169.283 48.7578 168.677 48.7578 168.045V159.311C48.7578 156.363 49.929 153.536 52.0137 151.451C54.0983 149.366 56.9258 148.195 59.8739 148.195C62.8221 148.195 65.6496 149.366 67.7343 151.451C68.6742 152.391 69.4285 153.482 69.9734 154.667C72.4258 155.031 74.6977 156.206 76.4156 158.021C78.3702 160.085 79.4595 162.82 79.4595 165.664V174.398C79.4595 175.029 79.2087 175.635 78.7618 176.082C78.3151 176.529 77.7092 176.78 77.0776 176.78H68.3434C66.0444 176.78 63.8021 176.067 61.9248 174.74C60.3603 173.634 59.1134 172.147 58.2974 170.428ZM54.2595 153.697C55.7485 152.208 57.7681 151.371 59.8739 151.371C61.9798 151.371 63.9994 152.208 65.4885 153.697C66.9774 155.186 67.814 157.206 67.814 159.311C67.814 161.417 66.9774 163.437 65.4885 164.926C63.9994 166.415 61.9798 167.252 59.874 167.252H59.3703C59.3618 167.251 59.3534 167.251 59.3448 167.252H51.9339V159.311C51.9339 157.206 52.7704 155.186 54.2595 153.697ZM61.8592 170.249C62.3769 170.98 63.0177 171.623 63.758 172.147C65.0991 173.095 66.7012 173.604 68.3434 173.604H76.2835V165.664C76.2835 163.633 75.5053 161.679 74.1092 160.204C73.2225 159.268 72.1292 158.57 70.93 158.156C70.9699 158.538 70.9901 158.924 70.9901 159.311C70.9901 162.26 69.8189 165.087 67.7343 167.172C66.1237 168.782 64.0697 169.848 61.8592 170.249Z" fill="#CF47F1"/>
<path fill-rule="evenodd" clip-rule="evenodd" d="M58.2974 213.529H51.1398C50.5081 213.529 49.9022 213.278 49.4555 212.831C49.0088 212.385 48.7578 211.779 48.7578 211.147V202.413C48.7578 199.465 49.929 196.637 52.0137 194.553C54.0983 192.468 56.9258 191.297 59.8739 191.297C62.8221 191.297 65.6496 192.468 67.7343 194.553C68.6742 195.493 69.4285 196.584 69.9734 197.769C72.4258 198.132 74.6977 199.308 76.4156 201.122C78.3702 203.187 79.4595 205.922 79.4595 208.765V217.499C79.4595 218.131 79.2087 218.737 78.7618 219.184C78.3151 219.63 77.7092 219.881 77.0776 219.881H68.3434C66.0444 219.881 63.8021 219.169 61.9248 217.842C60.3603 216.736 59.1134 215.248 58.2974 213.529ZM54.2595 196.799C55.7485 195.309 57.7681 194.473 59.8739 194.473C61.9798 194.473 63.9994 195.309 65.4885 196.799C66.9774 198.288 67.814 200.307 67.814 202.413C67.814 204.519 66.9774 206.538 65.4885 208.028C63.9994 209.517 61.9798 210.353 59.874 210.353H59.3703C59.3618 210.353 59.3534 210.353 59.3448 210.353H51.9339V202.413C51.9339 200.307 52.7704 198.288 54.2595 196.799ZM61.8592 213.35C62.3769 214.082 63.0177 214.725 63.758 215.248C65.0991 216.196 66.7012 216.705 68.3434 216.705H76.2835V208.765C76.2835 206.734 75.5053 204.781 74.1092 203.306C73.2225 202.369 72.1292 201.671 70.93 201.258C70.9699 201.64 70.9901 202.025 70.9901 202.413C70.9901 205.361 69.8189 208.189 67.7343 210.273C66.1237 211.884 64.0697 212.949 61.8592 213.35Z" fill="#CF47F1"/>
<path fill-rule="evenodd" clip-rule="evenodd" d="M58.2974 258.361H51.1398C50.5081 258.361 49.9022 258.11 49.4555 257.663C49.0088 257.217 48.7578 256.611 48.7578 255.979V247.245C48.7578 244.297 49.929 241.469 52.0137 239.385C54.0983 237.3 56.9258 236.129 59.8739 236.129C62.8221 236.129 65.6496 237.3 67.7343 239.385C68.6742 240.325 69.4285 241.416 69.9734 242.601C72.4258 242.964 74.6977 244.14 76.4156 245.955C78.3702 248.019 79.4595 250.754 79.4595 253.597V262.331C79.4595 262.963 79.2087 263.569 78.7618 264.016C78.3151 264.462 77.7092 264.713 77.0776 264.713H68.3434C66.0444 264.713 63.8021 264.001 61.9248 262.674C60.3603 261.568 59.1134 260.08 58.2974 258.361ZM54.2595 241.631C55.7485 240.141 57.7681 239.305 59.8739 239.305C61.9798 239.305 63.9994 240.141 65.4885 241.631C66.9774 243.12 67.814 245.139 67.814 247.245C67.814 249.351 66.9774 251.371 65.4885 252.86C63.9994 254.349 61.9798 255.185 59.874 255.185H59.3703C59.3618 255.185 59.3534 255.185 59.3448 255.185H51.9339V247.245C51.9339 245.139 52.7704 243.12 54.2595 241.631ZM61.8592 258.182C62.3769 258.914 63.0177 259.557 63.758 260.08C65.0991 261.028 66.7012 261.537 68.3434 261.537H76.2835V253.597C76.2835 251.566 75.5053 249.613 74.1092 248.138C73.2225 247.201 72.1292 246.503 70.93 246.09C70.9699 246.472 70.9901 246.857 70.9901 247.245C70.9901 250.193 69.8189 253.021 67.7343 255.105C66.1237 256.716 64.0697 257.781 61.8592 258.182Z" fill="#CF47F1"/>
<rect x="0.341797" y="23.0273" width="309.063" height="65.7975" rx="18.1689" fill="#2F3150"/>
<path d="M47.7671 50.7524C48.1628 50.346 48.1635 49.6827 47.7686 49.2755L46.4681 47.9339C46.0779 47.5315 45.4479 47.5308 45.0569 47.9325L34.9451 58.3209C34.5546 58.7221 33.9257 58.7221 33.5353 58.3209L23.4235 47.9325C23.0323 47.5308 22.4025 47.5315 22.0123 47.9339L20.7117 49.2755C20.3169 49.6827 20.3175 50.346 20.7133 50.7524L33.5353 63.9199C33.9259 64.3209 34.5545 64.3209 34.9449 63.9199L47.7671 50.7524Z" fill="white"/>
<path d="M67.6282 49.7663C65.6896 49.7663 64.1146 50.4629 62.9333 51.6745V43.6174H58.0869V65.4261H62.9333V58.3686C62.9333 55.4305 64.1751 54.128 66.0531 54.128C67.6282 54.128 68.6883 55.3396 68.6883 57.1267V65.4261H73.5044V56.0968C73.5044 52.2803 71.1418 49.7663 67.6282 49.7663ZM91.7431 57.8233C91.6522 52.8558 88.1992 49.7663 83.8981 49.7663C79.4757 49.7663 75.841 53.0376 75.841 57.8233C75.841 62.6394 79.4757 65.8804 83.8678 65.8804C87.3511 65.8804 90.1075 64.3357 91.4099 61.1249L87.1088 60.2465C86.2909 61.7307 84.9885 62.0033 83.8678 62.0033C82.2321 62.0033 80.9902 60.8826 80.5965 59.0652H91.7431V57.8233ZM83.8981 53.7039C85.2914 53.7039 86.503 54.4612 86.9573 56.0968H80.6873C81.1417 54.552 82.535 53.7039 83.8981 53.7039ZM99.1094 65.4261V43.6174H94.2631V65.4261H99.1094ZM112.206 49.7663C110.237 49.7663 108.662 50.3721 107.481 51.4322V50.2206H102.634V70.5754H107.481V64.2145C108.662 65.2746 110.237 65.8804 112.206 65.8804C116.234 65.8804 119.627 62.6394 119.627 57.8233C119.627 53.0376 116.234 49.7663 112.206 49.7663ZM111.206 61.761C109.237 61.761 107.481 60.186 107.481 57.8233C107.481 55.491 109.237 53.8857 111.206 53.8857C113.326 53.8857 114.871 55.491 114.871 57.8233C114.871 60.186 113.326 61.761 111.206 61.761ZM138.12 43.6174H133.274V51.4322C132.093 50.3721 130.518 49.7663 128.549 49.7663C124.52 49.7663 121.128 53.0376 121.128 57.8233C121.128 62.6394 124.52 65.8804 128.549 65.8804C130.518 65.8804 132.093 65.2746 133.274 64.2145V65.4261H138.12V43.6174ZM129.548 61.761C127.428 61.761 125.883 60.186 125.883 57.8233C125.883 55.491 127.428 53.8857 129.548 53.8857C131.517 53.8857 133.274 55.491 133.274 57.8233C133.274 60.186 131.517 61.761 129.548 61.761ZM156.523 57.8233C156.432 52.8558 152.979 49.7663 148.678 49.7663C144.256 49.7663 140.621 53.0376 140.621 57.8233C140.621 62.6394 144.256 65.8804 148.648 65.8804C152.131 65.8804 154.887 64.3357 156.19 61.1249L151.889 60.2465C151.071 61.7307 149.768 62.0033 148.648 62.0033C147.012 62.0033 145.77 60.8826 145.376 59.0652H156.523V57.8233ZM148.678 53.7039C150.071 53.7039 151.283 54.4612 151.737 56.0968H145.467C145.922 54.552 147.315 53.7039 148.678 53.7039ZM158.013 61.4581C158.528 64.578 161.587 65.8804 165.162 65.8804C169.16 65.8804 172.068 64.1236 172.068 60.7615C172.068 58.52 170.735 56.7935 167.857 56.1877L164.283 55.4607C163.314 55.2487 163.132 54.8247 163.132 54.4006C163.132 53.8554 163.556 53.2193 164.859 53.2193C166.343 53.2193 167.252 54.0674 167.403 55.0064L171.825 54.128C171.22 51.4928 168.705 49.7663 164.919 49.7663C161.072 49.7663 158.377 51.7957 158.377 54.9155C158.377 57.3084 159.982 58.8229 162.799 59.3378L165.889 59.9436C167.009 60.1557 167.403 60.5494 167.403 61.0644C167.403 61.7307 166.706 62.2759 165.434 62.2759C164.132 62.2759 162.95 61.7913 162.738 60.4888L158.013 61.4581ZM191.503 65.4261L184.143 57.4599L190.806 50.2206H184.96L180.144 55.4002H179.478V43.6174H174.632V65.4261H179.478V59.9436H180.356L185.294 65.4261H191.503ZM205.913 50.2206V49.2513C205.913 48.0397 206.731 47.3431 207.882 47.3431C208.245 47.3431 208.73 47.4339 209.184 47.5854L210.214 43.8295C209.245 43.4054 208.245 43.1934 207.215 43.1934C203.55 43.1934 201.097 45.4651 201.097 49.0393V50.2206H198.916V54.0674H201.097V65.4261H205.913V54.0674H210.093V50.2206H205.913ZM219.057 49.8268C214.453 49.8268 210.636 53.0376 210.636 57.8233C210.636 62.6394 214.453 65.8501 219.057 65.8501C223.57 65.8501 227.387 62.6394 227.387 57.8233C227.387 53.0376 223.57 49.8268 219.057 49.8268ZM219.057 61.761C217.088 61.761 215.301 60.2162 215.301 57.8233C215.301 55.4607 217.088 53.8857 219.057 53.8857C220.935 53.8857 222.722 55.4607 222.722 57.8233C222.722 60.2162 220.935 61.761 219.057 61.761ZM239.973 50.0086C237.49 50.0086 235.824 51.311 234.733 53.1284V50.2206H229.887V65.4261H234.733V60.6706C234.733 56.7329 236.581 54.9761 239.973 54.9761H240.852L241.064 50.1297C240.7 50.0389 240.397 50.0086 239.973 50.0086ZM258.315 50.2206H253.468V57.2781C253.468 60.2162 252.226 61.5187 250.318 61.5187C248.773 61.5187 247.713 60.3071 247.713 58.52V50.2206H242.897V59.5499C242.897 63.3664 245.26 65.8804 248.804 65.8804C250.712 65.8804 252.317 65.1838 253.468 63.9722V65.4261H258.315V50.2206ZM281.521 49.7663C279.159 49.7663 277.341 50.7658 276.13 52.3409C275.1 50.675 273.283 49.7663 271.162 49.7663C269.194 49.7663 267.709 50.4629 266.679 51.6139V50.2206H261.833V65.4261H266.679V57.9748C266.679 55.4305 267.83 54.128 269.587 54.128C271.041 54.128 272.162 55.2184 272.162 56.9449V65.4261H277.008V57.9748C277.008 55.4305 278.19 54.128 279.977 54.128C281.4 54.128 282.521 55.2184 282.521 56.9449V65.4261H287.337V55.9151C287.337 52.2197 284.762 49.7663 281.521 49.7663Z" fill="white"/>
</svg>
