<svg width="342" height="374" viewBox="0 0 342 374" fill="none" xmlns="http://www.w3.org/2000/svg">
<rect x="22.2588" y="113.6" width="319" height="216" rx="18.1689" fill="#191A34"/>
<rect x="38" y="149" width="285" height="160" rx="8.85626" fill="#101126"/>
<path d="M22.1045 61.7685C22.1045 51.7341 30.239 43.5996 40.2734 43.5996L162.59 43.5996C172.624 43.5996 180.759 51.7341 180.759 61.7685V71.4833C180.759 81.5177 172.624 89.6522 162.59 89.6522H40.2734C30.239 89.6522 22.1045 81.5177 22.1045 71.4833V61.7685Z" fill="#191A34"/>
<path d="M94.3926 178.716L95.6979 178.424C95.8181 179.54 96.8487 180.141 98.1883 180.141C99.4078 180.141 100.215 179.574 100.215 178.699C100.215 177.994 99.6826 177.668 98.8238 177.479L96.883 177.05C95.4746 176.758 94.6846 176.054 94.6846 174.886C94.6846 173.357 95.9555 172.327 97.8963 172.327C99.8028 172.327 101.039 173.306 101.349 174.68L100.095 174.954C99.923 174.027 99.1158 173.391 97.862 173.391C96.6597 173.391 95.9899 173.975 95.9899 174.783C95.9899 175.452 96.4536 175.762 97.278 175.95L99.3219 176.397C100.558 176.672 101.503 177.325 101.503 178.613C101.503 180.279 100.112 181.223 98.0853 181.223C96.1445 181.223 94.5987 180.365 94.3926 178.716ZM111.565 176.552V177.033H104.3C104.421 178.939 105.863 180.073 107.323 180.073C108.525 180.073 109.607 179.609 110.209 178.252L111.376 178.527C110.707 180.296 109.23 181.223 107.323 181.223C105.073 181.223 103.029 179.489 103.029 176.792C103.029 174.078 105.073 172.327 107.409 172.327C109.693 172.327 111.48 174.027 111.565 176.552ZM107.409 173.477C106.035 173.477 104.609 174.388 104.352 176.054H110.243C110.002 174.388 108.817 173.477 107.409 173.477ZM118.539 172.447C118.745 172.447 118.899 172.447 119.14 172.515L119.037 173.769C118.882 173.752 118.693 173.752 118.539 173.752C116.289 173.752 115.138 175.452 115.138 177.737V181H113.815V172.533H115.138V174.611C115.825 173.357 116.976 172.447 118.539 172.447ZM128.605 172.533L124.861 181H123.435L119.691 172.533H121.117L124.157 179.454L127.18 172.533H128.605ZM137.915 176.552V177.033H130.65C130.77 178.939 132.213 180.073 133.673 180.073C134.875 180.073 135.957 179.609 136.558 178.252L137.726 178.527C137.056 180.296 135.579 181.223 133.673 181.223C131.423 181.223 129.379 179.489 129.379 176.792C129.379 174.078 131.423 172.327 133.759 172.327C136.043 172.327 137.829 174.027 137.915 176.552ZM133.759 173.477C132.385 173.477 130.959 174.388 130.702 176.054H136.593C136.352 174.388 135.167 173.477 133.759 173.477ZM144.889 172.447C145.095 172.447 145.249 172.447 145.49 172.515L145.387 173.769C145.232 173.752 145.043 173.752 144.889 173.752C142.639 173.752 141.488 175.452 141.488 177.737V181H140.165V172.533H141.488V174.611C142.175 173.357 143.326 172.447 144.889 172.447ZM152.31 177.187H146.762V176.036H152.31V177.187ZM154.137 178.716L155.442 178.424C155.562 179.54 156.593 180.141 157.933 180.141C159.152 180.141 159.959 179.574 159.959 178.699C159.959 177.994 159.427 177.668 158.568 177.479L156.627 177.05C155.219 176.758 154.429 176.054 154.429 174.886C154.429 173.357 155.7 172.327 157.641 172.327C159.547 172.327 160.784 173.306 161.093 174.68L159.839 174.954C159.667 174.027 158.86 173.391 157.606 173.391C156.404 173.391 155.734 173.975 155.734 174.783C155.734 175.452 156.198 175.762 157.022 175.95L159.066 176.397C160.303 176.672 161.247 177.325 161.247 178.613C161.247 180.279 159.856 181.223 157.829 181.223C155.889 181.223 154.343 180.365 154.137 178.716ZM171.31 176.552V177.033H164.045C164.165 178.939 165.607 180.073 167.067 180.073C168.27 180.073 169.352 179.609 169.953 178.252L171.121 178.527C170.451 180.296 168.974 181.223 167.067 181.223C164.817 181.223 162.774 179.489 162.774 176.792C162.774 174.078 164.817 172.327 167.153 172.327C169.438 172.327 171.224 174.027 171.31 176.552ZM167.153 173.477C165.779 173.477 164.354 174.388 164.096 176.054H169.987C169.747 174.388 168.562 173.477 167.153 173.477ZM178.214 179.471L178.644 180.553C177.957 181.034 177.373 181.223 176.686 181.223C175.002 181.223 173.886 180.227 173.886 178.355V173.632H172.048V172.533H173.886V169.836H175.209V172.533H178.231V173.632H175.209V178.269C175.209 179.368 175.827 179.987 176.771 179.987C177.252 179.987 177.785 179.781 178.214 179.471ZM187.863 172.533V180.983H186.541V179.609C185.854 180.622 184.754 181.206 183.346 181.206C181.302 181.206 179.945 179.746 179.945 177.599V172.533H181.268V177.359C181.268 178.939 182.195 179.987 183.604 179.987C185.373 179.987 186.541 178.802 186.541 176.603V172.533H187.863ZM195.541 172.327C197.791 172.327 199.766 174.096 199.766 176.775C199.766 179.454 197.791 181.223 195.541 181.223C194.132 181.223 192.93 180.656 192.174 179.66V183.92H190.869V172.533H192.174V173.889C192.93 172.893 194.132 172.327 195.541 172.327ZM195.335 180.055C197.087 180.055 198.495 178.784 198.495 176.775C198.495 174.748 197.087 173.477 195.335 173.477C193.737 173.477 192.174 174.748 192.174 176.775C192.174 178.784 193.737 180.055 195.335 180.055Z" fill="#C3C4D9"/>
<path d="M94.3926 213.901L95.6979 213.609C95.8181 214.726 96.8487 215.327 98.1883 215.327C99.4078 215.327 100.215 214.76 100.215 213.884C100.215 213.18 99.6826 212.854 98.8238 212.665L96.883 212.235C95.4746 211.943 94.6846 211.239 94.6846 210.071C94.6846 208.543 95.9555 207.512 97.8963 207.512C99.8028 207.512 101.039 208.491 101.349 209.865L100.095 210.14C99.923 209.212 99.1158 208.577 97.862 208.577C96.6597 208.577 95.9899 209.161 95.9899 209.968C95.9899 210.638 96.4536 210.947 97.278 211.136L99.3219 211.583C100.558 211.857 101.503 212.51 101.503 213.798C101.503 215.464 100.112 216.409 98.0853 216.409C96.1445 216.409 94.5987 215.55 94.3926 213.901ZM111.565 211.737V212.218H104.3C104.421 214.125 105.863 215.258 107.323 215.258C108.525 215.258 109.607 214.794 110.209 213.438L111.376 213.712C110.707 215.481 109.23 216.409 107.323 216.409C105.073 216.409 103.029 214.674 103.029 211.978C103.029 209.264 105.073 207.512 107.409 207.512C109.693 207.512 111.48 209.212 111.565 211.737ZM107.409 208.663C106.035 208.663 104.609 209.573 104.352 211.239H110.243C110.002 209.573 108.817 208.663 107.409 208.663ZM118.539 207.632C118.745 207.632 118.899 207.632 119.14 207.701L119.037 208.955C118.882 208.938 118.693 208.938 118.539 208.938C116.289 208.938 115.138 210.638 115.138 212.922V216.186H113.815V207.718H115.138V209.796C115.825 208.543 116.976 207.632 118.539 207.632ZM128.605 207.718L124.861 216.186H123.435L119.691 207.718H121.117L124.157 214.64L127.18 207.718H128.605ZM137.915 211.737V212.218H130.65C130.77 214.125 132.213 215.258 133.673 215.258C134.875 215.258 135.957 214.794 136.558 213.438L137.726 213.712C137.056 215.481 135.579 216.409 133.673 216.409C131.423 216.409 129.379 214.674 129.379 211.978C129.379 209.264 131.423 207.512 133.759 207.512C136.043 207.512 137.829 209.212 137.915 211.737ZM133.759 208.663C132.385 208.663 130.959 209.573 130.702 211.239H136.593C136.352 209.573 135.167 208.663 133.759 208.663ZM144.889 207.632C145.095 207.632 145.249 207.632 145.49 207.701L145.387 208.955C145.232 208.938 145.043 208.938 144.889 208.938C142.639 208.938 141.488 210.638 141.488 212.922V216.186H140.165V207.718H141.488V209.796C142.175 208.543 143.326 207.632 144.889 207.632ZM152.31 212.373H146.762V211.222H152.31V212.373ZM163.318 203.819V216.186H162.012V214.846C161.256 215.842 160.054 216.409 158.646 216.409C156.396 216.409 154.421 214.64 154.421 211.96C154.421 209.281 156.396 207.512 158.646 207.512C160.054 207.512 161.256 208.079 162.012 209.075V203.819H163.318ZM158.852 215.241C160.449 215.241 162.012 213.97 162.012 211.96C162.012 209.934 160.449 208.663 158.852 208.663C157.1 208.663 155.692 209.934 155.692 211.96C155.692 213.97 157.1 215.241 158.852 215.241ZM174.111 211.737V212.218H166.846C166.966 214.125 168.408 215.258 169.868 215.258C171.071 215.258 172.153 214.794 172.754 213.438L173.922 213.712C173.252 215.481 171.775 216.409 169.868 216.409C167.618 216.409 165.575 214.674 165.575 211.978C165.575 209.264 167.618 207.512 169.954 207.512C172.239 207.512 174.025 209.212 174.111 211.737ZM169.954 208.663C168.58 208.663 167.155 209.573 166.897 211.239H172.788C172.548 209.573 171.363 208.663 169.954 208.663ZM175.639 213.901L176.945 213.609C177.065 214.726 178.095 215.327 179.435 215.327C180.655 215.327 181.462 214.76 181.462 213.884C181.462 213.18 180.929 212.854 180.071 212.665L178.13 212.235C176.721 211.943 175.931 211.239 175.931 210.071C175.931 208.543 177.202 207.512 179.143 207.512C181.05 207.512 182.286 208.491 182.595 209.865L181.342 210.14C181.17 209.212 180.363 208.577 179.109 208.577C177.907 208.577 177.237 209.161 177.237 209.968C177.237 210.638 177.7 210.947 178.525 211.136L180.569 211.583C181.805 211.857 182.75 212.51 182.75 213.798C182.75 215.464 181.359 216.409 179.332 216.409C177.391 216.409 175.845 215.55 175.639 213.901ZM185.839 204.283C186.354 204.283 186.749 204.695 186.749 205.159C186.749 205.657 186.354 206.035 185.839 206.035C185.324 206.035 184.946 205.657 184.946 205.159C184.946 204.695 185.324 204.283 185.839 204.283ZM186.509 216.186H185.186V207.718H186.509V216.186ZM197.511 207.718L197.528 215.499C197.511 217.972 195.827 219.449 193.268 219.449C191.173 219.449 189.782 218.624 189.129 217.25L190.228 216.495C190.829 217.628 191.688 218.264 193.268 218.264C195.054 218.264 196.24 217.13 196.24 215.327V214.296C195.553 215.189 194.471 215.687 193.062 215.687C190.829 215.687 188.889 213.987 188.889 211.583C188.889 209.195 190.829 207.512 193.062 207.512C194.471 207.512 195.553 208.01 196.24 208.886V207.718H197.511ZM193.251 214.554C194.831 214.554 196.24 213.386 196.24 211.583C196.24 209.779 194.831 208.646 193.251 208.646C191.534 208.646 190.16 209.779 190.16 211.583C190.16 213.386 191.534 214.554 193.251 214.554ZM205.03 207.512C207.074 207.512 208.431 208.972 208.431 211.119V216.186H207.125V211.359C207.125 209.779 206.181 208.714 204.772 208.714C203.003 208.714 201.835 209.917 201.835 212.115V216.186H200.53V207.718H201.835V209.127C202.522 208.096 203.605 207.512 205.03 207.512Z" fill="#C3C4D9"/>
<path d="M94.3926 249.089L95.6979 248.797C95.8181 249.913 96.8487 250.514 98.1883 250.514C99.4078 250.514 100.215 249.948 100.215 249.072C100.215 248.367 99.6826 248.041 98.8238 247.852L96.883 247.423C95.4746 247.131 94.6846 246.427 94.6846 245.259C94.6846 243.73 95.9555 242.7 97.8963 242.7C99.8028 242.7 101.039 243.679 101.349 245.053L100.095 245.327C99.923 244.4 99.1158 243.764 97.862 243.764C96.6597 243.764 95.9899 244.348 95.9899 245.156C95.9899 245.825 96.4536 246.135 97.278 246.324L99.3219 246.77C100.558 247.045 101.503 247.698 101.503 248.986C101.503 250.652 100.112 251.596 98.0853 251.596C96.1445 251.596 94.5987 250.738 94.3926 249.089ZM111.565 246.925V247.406H104.3C104.421 249.312 105.863 250.446 107.323 250.446C108.525 250.446 109.607 249.982 110.209 248.625L111.376 248.9C110.707 250.669 109.23 251.596 107.323 251.596C105.073 251.596 103.029 249.862 103.029 247.165C103.029 244.451 105.073 242.7 107.409 242.7C109.693 242.7 111.48 244.4 111.565 246.925ZM107.409 243.85C106.035 243.85 104.609 244.761 104.352 246.427H110.243C110.002 244.761 108.817 243.85 107.409 243.85ZM118.539 242.82C118.745 242.82 118.899 242.82 119.14 242.888L119.037 244.142C118.882 244.125 118.693 244.125 118.539 244.125C116.289 244.125 115.138 245.825 115.138 248.11V251.373H113.815V242.906H115.138V244.984C115.825 243.73 116.976 242.82 118.539 242.82ZM128.605 242.906L124.861 251.373H123.435L119.691 242.906H121.117L124.157 249.827L127.18 242.906H128.605ZM137.915 246.925V247.406H130.65C130.77 249.312 132.213 250.446 133.673 250.446C134.875 250.446 135.957 249.982 136.558 248.625L137.726 248.9C137.056 250.669 135.579 251.596 133.673 251.596C131.423 251.596 129.379 249.862 129.379 247.165C129.379 244.451 131.423 242.7 133.759 242.7C136.043 242.7 137.829 244.4 137.915 246.925ZM133.759 243.85C132.385 243.85 130.959 244.761 130.702 246.427H136.593C136.352 244.761 135.167 243.85 133.759 243.85ZM144.889 242.82C145.095 242.82 145.249 242.82 145.49 242.888L145.387 244.142C145.232 244.125 145.043 244.125 144.889 244.125C142.639 244.125 141.488 245.825 141.488 248.11V251.373H140.165V242.906H141.488V244.984C142.175 243.73 143.326 242.82 144.889 242.82ZM152.31 247.56H146.762V246.409H152.31V247.56ZM154.137 249.089L155.442 248.797C155.562 249.913 156.593 250.514 157.933 250.514C159.152 250.514 159.959 249.948 159.959 249.072C159.959 248.367 159.427 248.041 158.568 247.852L156.627 247.423C155.219 247.131 154.429 246.427 154.429 245.259C154.429 243.73 155.7 242.7 157.641 242.7C159.547 242.7 160.784 243.679 161.093 245.053L159.839 245.327C159.667 244.4 158.86 243.764 157.606 243.764C156.404 243.764 155.734 244.348 155.734 245.156C155.734 245.825 156.198 246.135 157.022 246.324L159.066 246.77C160.303 247.045 161.247 247.698 161.247 248.986C161.247 250.652 159.856 251.596 157.829 251.596C155.889 251.596 154.343 250.738 154.137 249.089ZM171.584 242.906V251.373H170.279V250.033C169.523 251.03 168.321 251.596 166.913 251.596C164.663 251.596 162.688 249.827 162.688 247.148C162.688 244.469 164.663 242.7 166.913 242.7C168.321 242.7 169.523 243.266 170.279 244.263V242.906H171.584ZM167.119 250.428C168.716 250.428 170.279 249.157 170.279 247.148C170.279 245.121 168.716 243.85 167.119 243.85C165.367 243.85 163.959 245.121 163.959 247.148C163.959 249.157 165.367 250.428 167.119 250.428ZM179.288 244.005H176.214V251.373H174.909V244.005H173.432V242.906H174.909V241.652C174.909 239.866 176.042 238.715 177.811 238.715C178.309 238.715 178.773 238.818 179.185 239.024L178.859 240.089C178.55 239.969 178.206 239.9 177.897 239.9C176.867 239.9 176.214 240.57 176.214 241.652V242.906H179.288V244.005ZM188.401 246.925V247.406H181.136C181.256 249.312 182.699 250.446 184.159 250.446C185.361 250.446 186.443 249.982 187.044 248.625L188.212 248.9C187.542 250.669 186.065 251.596 184.159 251.596C181.909 251.596 179.865 249.862 179.865 247.165C179.865 244.451 181.909 242.7 184.245 242.7C186.529 242.7 188.315 244.4 188.401 246.925ZM184.245 243.85C182.871 243.85 181.445 244.761 181.187 246.427H187.078C186.838 244.761 185.653 243.85 184.245 243.85ZM195.306 249.844L195.735 250.926C195.048 251.407 194.464 251.596 193.777 251.596C192.094 251.596 190.977 250.6 190.977 248.728V244.005H189.14V242.906H190.977V240.209H192.3V242.906H195.323V244.005H192.3V248.642C192.3 249.741 192.918 250.36 193.863 250.36C194.344 250.36 194.876 250.154 195.306 249.844ZM205.259 242.906L200.073 254.293H198.613L200.004 251.253L196.208 242.906H197.685L200.708 249.673L203.8 242.906H205.259Z" fill="#C3C4D9"/>
<path d="M103.238 274.667V287.033H101.933V285.694C101.177 286.69 99.9745 287.256 98.5662 287.256C96.3162 287.256 94.3411 285.487 94.3411 282.808C94.3411 280.129 96.3162 278.36 98.5662 278.36C99.9745 278.36 101.177 278.927 101.933 279.923V274.667H103.238ZM98.7723 286.089C100.37 286.089 101.933 284.818 101.933 282.808C101.933 280.781 100.37 279.51 98.7723 279.51C97.0204 279.51 95.612 280.781 95.612 282.808C95.612 284.818 97.0204 286.089 98.7723 286.089ZM114.031 282.585V283.066H106.766C106.886 284.972 108.329 286.106 109.789 286.106C110.991 286.106 112.073 285.642 112.674 284.285L113.842 284.56C113.172 286.329 111.695 287.256 109.789 287.256C107.539 287.256 105.495 285.522 105.495 282.825C105.495 280.112 107.539 278.36 109.875 278.36C112.159 278.36 113.945 280.06 114.031 282.585ZM109.875 279.51C108.501 279.51 107.075 280.421 106.817 282.087H112.708C112.468 280.421 111.283 279.51 109.875 279.51ZM123.724 278.566L119.98 287.033H118.555L114.81 278.566H116.236L119.276 285.487L122.299 278.566H123.724ZM133.034 282.585V283.066H125.769C125.89 284.972 127.332 286.106 128.792 286.106C129.994 286.106 131.076 285.642 131.678 284.285L132.845 284.56C132.176 286.329 130.699 287.256 128.792 287.256C126.542 287.256 124.498 285.522 124.498 282.825C124.498 280.112 126.542 278.36 128.878 278.36C131.162 278.36 132.949 280.06 133.034 282.585ZM128.878 279.51C127.504 279.51 126.078 280.421 125.821 282.087H131.712C131.471 280.421 130.286 279.51 128.878 279.51ZM136.59 287.033H135.284V274.667H136.59V287.033ZM143.339 278.377C145.829 278.377 147.822 280.197 147.822 282.791C147.822 285.384 145.829 287.239 143.339 287.239C140.814 287.239 138.839 285.384 138.839 282.791C138.839 280.197 140.814 278.377 143.339 278.377ZM143.339 286.089C145.074 286.089 146.533 284.749 146.533 282.791C146.533 280.85 145.074 279.528 143.339 279.528C141.587 279.528 140.11 280.85 140.11 282.791C140.11 284.749 141.587 286.089 143.339 286.089ZM154.733 278.36C156.983 278.36 158.958 280.129 158.958 282.808C158.958 285.487 156.983 287.256 154.733 287.256C153.324 287.256 152.122 286.69 151.367 285.694V289.953H150.061V278.566H151.367V279.923C152.122 278.927 153.324 278.36 154.733 278.36ZM154.527 286.089C156.279 286.089 157.687 284.818 157.687 282.808C157.687 280.781 156.279 279.51 154.527 279.51C152.929 279.51 151.367 280.781 151.367 282.808C151.367 284.818 152.929 286.089 154.527 286.089ZM171.486 278.36C173.272 278.36 174.646 279.631 174.646 281.554V287.033H173.341V281.778C173.341 280.438 172.43 279.562 171.159 279.562C169.597 279.562 168.566 280.713 168.566 282.705V287.033H167.261V281.778C167.261 280.438 166.35 279.562 165.097 279.562C163.534 279.562 162.52 280.713 162.52 282.705V287.033H161.215V278.566H162.52V279.854C163.121 278.927 164.083 278.36 165.406 278.36C166.711 278.36 167.793 278.995 168.291 280.077C168.944 279.03 170.043 278.36 171.486 278.36ZM185.231 282.585V283.066H177.966C178.086 284.972 179.529 286.106 180.989 286.106C182.191 286.106 183.273 285.642 183.874 284.285L185.042 284.56C184.372 286.329 182.895 287.256 180.989 287.256C178.739 287.256 176.695 285.522 176.695 282.825C176.695 280.112 178.739 278.36 181.075 278.36C183.359 278.36 185.145 280.06 185.231 282.585ZM181.075 279.51C179.701 279.51 178.275 280.421 178.017 282.087H183.908C183.668 280.421 182.483 279.51 181.075 279.51ZM191.981 278.36C194.025 278.36 195.382 279.82 195.382 281.967V287.033H194.076V282.207C194.076 280.627 193.132 279.562 191.723 279.562C189.954 279.562 188.786 280.764 188.786 282.963V287.033H187.481V278.566H188.786V279.974C189.473 278.944 190.555 278.36 191.981 278.36ZM202.853 285.505L203.283 286.587C202.596 287.068 202.012 287.256 201.325 287.256C199.641 287.256 198.525 286.26 198.525 284.388V279.665H196.687V278.566H198.525V275.869H199.848V278.566H202.87V279.665H199.848V284.302C199.848 285.402 200.466 286.02 201.411 286.02C201.891 286.02 202.424 285.814 202.853 285.505ZM209.505 283.22H203.957V282.07H209.505V283.22ZM216.553 278.36C218.597 278.36 219.954 279.82 219.954 281.967V287.033H218.648V282.207C218.648 280.627 217.704 279.562 216.295 279.562C214.526 279.562 213.358 280.764 213.358 282.963V287.033H212.053V274.667H213.358V279.974C214.045 278.944 215.127 278.36 216.553 278.36ZM230.551 282.585V283.066H223.286C223.406 284.972 224.848 286.106 226.308 286.106C227.511 286.106 228.593 285.642 229.194 284.285L230.362 284.56C229.692 286.329 228.215 287.256 226.308 287.256C224.058 287.256 222.015 285.522 222.015 282.825C222.015 280.112 224.058 278.36 226.394 278.36C228.679 278.36 230.465 280.06 230.551 282.585ZM226.394 279.51C225.02 279.51 223.595 280.421 223.337 282.087H229.228C228.988 280.421 227.803 279.51 226.394 279.51ZM234.106 287.033H232.801V274.667H234.106V287.033ZM241.8 278.36C244.05 278.36 246.025 280.129 246.025 282.808C246.025 285.487 244.05 287.256 241.8 287.256C240.391 287.256 239.189 286.69 238.433 285.694V289.953H237.128V278.566H238.433V279.923C239.189 278.927 240.391 278.36 241.8 278.36ZM241.594 286.089C243.346 286.089 244.754 284.818 244.754 282.808C244.754 280.781 243.346 279.51 241.594 279.51C239.996 279.51 238.433 280.781 238.433 282.808C238.433 284.818 239.996 286.089 241.594 286.089Z" fill="#C3C4D9"/>
<rect x="38" y="149" width="285" height="160" rx="8.85626" fill="#101126"/>
<path d="M94.3926 178.716L95.6979 178.424C95.8181 179.54 96.8487 180.141 98.1883 180.141C99.4078 180.141 100.215 179.574 100.215 178.699C100.215 177.994 99.6826 177.668 98.8238 177.479L96.883 177.05C95.4746 176.758 94.6846 176.054 94.6846 174.886C94.6846 173.357 95.9555 172.327 97.8963 172.327C99.8028 172.327 101.039 173.306 101.349 174.68L100.095 174.954C99.923 174.027 99.1158 173.391 97.862 173.391C96.6597 173.391 95.9899 173.975 95.9899 174.783C95.9899 175.452 96.4536 175.762 97.278 175.95L99.3219 176.397C100.558 176.672 101.503 177.325 101.503 178.613C101.503 180.279 100.112 181.223 98.0853 181.223C96.1445 181.223 94.5987 180.365 94.3926 178.716ZM111.565 176.552V177.033H104.3C104.421 178.939 105.863 180.073 107.323 180.073C108.525 180.073 109.607 179.609 110.209 178.252L111.376 178.527C110.707 180.296 109.23 181.223 107.323 181.223C105.073 181.223 103.029 179.489 103.029 176.792C103.029 174.078 105.073 172.327 107.409 172.327C109.693 172.327 111.48 174.027 111.565 176.552ZM107.409 173.477C106.035 173.477 104.609 174.388 104.352 176.054H110.243C110.002 174.388 108.817 173.477 107.409 173.477ZM118.539 172.447C118.745 172.447 118.899 172.447 119.14 172.515L119.037 173.769C118.882 173.752 118.693 173.752 118.539 173.752C116.289 173.752 115.138 175.452 115.138 177.737V181H113.815V172.533H115.138V174.611C115.825 173.357 116.976 172.447 118.539 172.447ZM128.605 172.533L124.861 181H123.435L119.691 172.533H121.117L124.157 179.454L127.18 172.533H128.605ZM137.915 176.552V177.033H130.65C130.77 178.939 132.213 180.073 133.673 180.073C134.875 180.073 135.957 179.609 136.558 178.252L137.726 178.527C137.056 180.296 135.579 181.223 133.673 181.223C131.423 181.223 129.379 179.489 129.379 176.792C129.379 174.078 131.423 172.327 133.759 172.327C136.043 172.327 137.829 174.027 137.915 176.552ZM133.759 173.477C132.385 173.477 130.959 174.388 130.702 176.054H136.593C136.352 174.388 135.167 173.477 133.759 173.477ZM144.889 172.447C145.095 172.447 145.249 172.447 145.49 172.515L145.387 173.769C145.232 173.752 145.043 173.752 144.889 173.752C142.639 173.752 141.488 175.452 141.488 177.737V181H140.165V172.533H141.488V174.611C142.175 173.357 143.326 172.447 144.889 172.447ZM152.31 177.187H146.762V176.036H152.31V177.187ZM154.137 178.716L155.442 178.424C155.562 179.54 156.593 180.141 157.933 180.141C159.152 180.141 159.959 179.574 159.959 178.699C159.959 177.994 159.427 177.668 158.568 177.479L156.627 177.05C155.219 176.758 154.429 176.054 154.429 174.886C154.429 173.357 155.7 172.327 157.641 172.327C159.547 172.327 160.784 173.306 161.093 174.68L159.839 174.954C159.667 174.027 158.86 173.391 157.606 173.391C156.404 173.391 155.734 173.975 155.734 174.783C155.734 175.452 156.198 175.762 157.022 175.95L159.066 176.397C160.303 176.672 161.247 177.325 161.247 178.613C161.247 180.279 159.856 181.223 157.829 181.223C155.889 181.223 154.343 180.365 154.137 178.716ZM171.31 176.552V177.033H164.045C164.165 178.939 165.607 180.073 167.067 180.073C168.27 180.073 169.352 179.609 169.953 178.252L171.121 178.527C170.451 180.296 168.974 181.223 167.067 181.223C164.817 181.223 162.774 179.489 162.774 176.792C162.774 174.078 164.817 172.327 167.153 172.327C169.438 172.327 171.224 174.027 171.31 176.552ZM167.153 173.477C165.779 173.477 164.354 174.388 164.096 176.054H169.987C169.747 174.388 168.562 173.477 167.153 173.477ZM178.214 179.471L178.644 180.553C177.957 181.034 177.373 181.223 176.686 181.223C175.002 181.223 173.886 180.227 173.886 178.355V173.632H172.048V172.533H173.886V169.836H175.209V172.533H178.231V173.632H175.209V178.269C175.209 179.368 175.827 179.987 176.771 179.987C177.252 179.987 177.785 179.781 178.214 179.471ZM187.863 172.533V180.983H186.541V179.609C185.854 180.622 184.754 181.206 183.346 181.206C181.302 181.206 179.945 179.746 179.945 177.599V172.533H181.268V177.359C181.268 178.939 182.195 179.987 183.604 179.987C185.373 179.987 186.541 178.802 186.541 176.603V172.533H187.863ZM195.541 172.327C197.791 172.327 199.766 174.096 199.766 176.775C199.766 179.454 197.791 181.223 195.541 181.223C194.132 181.223 192.93 180.656 192.174 179.66V183.92H190.869V172.533H192.174V173.889C192.93 172.893 194.132 172.327 195.541 172.327ZM195.335 180.055C197.087 180.055 198.495 178.784 198.495 176.775C198.495 174.748 197.087 173.477 195.335 173.477C193.737 173.477 192.174 174.748 192.174 176.775C192.174 178.784 193.737 180.055 195.335 180.055Z" fill="#C3C4D9"/>
<path d="M94.3926 213.901L95.6979 213.609C95.8181 214.726 96.8487 215.327 98.1883 215.327C99.4078 215.327 100.215 214.76 100.215 213.884C100.215 213.18 99.6826 212.854 98.8238 212.665L96.883 212.235C95.4746 211.943 94.6846 211.239 94.6846 210.071C94.6846 208.543 95.9555 207.512 97.8963 207.512C99.8028 207.512 101.039 208.491 101.349 209.865L100.095 210.14C99.923 209.212 99.1158 208.577 97.862 208.577C96.6597 208.577 95.9899 209.161 95.9899 209.968C95.9899 210.638 96.4536 210.947 97.278 211.136L99.3219 211.583C100.558 211.857 101.503 212.51 101.503 213.798C101.503 215.464 100.112 216.409 98.0853 216.409C96.1445 216.409 94.5987 215.55 94.3926 213.901ZM111.565 211.737V212.218H104.3C104.421 214.125 105.863 215.258 107.323 215.258C108.525 215.258 109.607 214.794 110.209 213.438L111.376 213.712C110.707 215.481 109.23 216.409 107.323 216.409C105.073 216.409 103.029 214.674 103.029 211.978C103.029 209.264 105.073 207.512 107.409 207.512C109.693 207.512 111.48 209.212 111.565 211.737ZM107.409 208.663C106.035 208.663 104.609 209.573 104.352 211.239H110.243C110.002 209.573 108.817 208.663 107.409 208.663ZM118.539 207.632C118.745 207.632 118.899 207.632 119.14 207.701L119.037 208.955C118.882 208.938 118.693 208.938 118.539 208.938C116.289 208.938 115.138 210.638 115.138 212.922V216.186H113.815V207.718H115.138V209.796C115.825 208.543 116.976 207.632 118.539 207.632ZM128.605 207.718L124.861 216.186H123.435L119.691 207.718H121.117L124.157 214.64L127.18 207.718H128.605ZM137.915 211.737V212.218H130.65C130.77 214.125 132.213 215.258 133.673 215.258C134.875 215.258 135.957 214.794 136.558 213.438L137.726 213.712C137.056 215.481 135.579 216.409 133.673 216.409C131.423 216.409 129.379 214.674 129.379 211.978C129.379 209.264 131.423 207.512 133.759 207.512C136.043 207.512 137.829 209.212 137.915 211.737ZM133.759 208.663C132.385 208.663 130.959 209.573 130.702 211.239H136.593C136.352 209.573 135.167 208.663 133.759 208.663ZM144.889 207.632C145.095 207.632 145.249 207.632 145.49 207.701L145.387 208.955C145.232 208.938 145.043 208.938 144.889 208.938C142.639 208.938 141.488 210.638 141.488 212.922V216.186H140.165V207.718H141.488V209.796C142.175 208.543 143.326 207.632 144.889 207.632ZM152.31 212.373H146.762V211.222H152.31V212.373ZM163.318 203.819V216.186H162.012V214.846C161.256 215.842 160.054 216.409 158.646 216.409C156.396 216.409 154.421 214.64 154.421 211.96C154.421 209.281 156.396 207.512 158.646 207.512C160.054 207.512 161.256 208.079 162.012 209.075V203.819H163.318ZM158.852 215.241C160.449 215.241 162.012 213.97 162.012 211.96C162.012 209.934 160.449 208.663 158.852 208.663C157.1 208.663 155.692 209.934 155.692 211.96C155.692 213.97 157.1 215.241 158.852 215.241ZM174.111 211.737V212.218H166.846C166.966 214.125 168.408 215.258 169.868 215.258C171.071 215.258 172.153 214.794 172.754 213.438L173.922 213.712C173.252 215.481 171.775 216.409 169.868 216.409C167.618 216.409 165.575 214.674 165.575 211.978C165.575 209.264 167.618 207.512 169.954 207.512C172.239 207.512 174.025 209.212 174.111 211.737ZM169.954 208.663C168.58 208.663 167.155 209.573 166.897 211.239H172.788C172.548 209.573 171.363 208.663 169.954 208.663ZM175.639 213.901L176.945 213.609C177.065 214.726 178.095 215.327 179.435 215.327C180.655 215.327 181.462 214.76 181.462 213.884C181.462 213.18 180.929 212.854 180.071 212.665L178.13 212.235C176.721 211.943 175.931 211.239 175.931 210.071C175.931 208.543 177.202 207.512 179.143 207.512C181.05 207.512 182.286 208.491 182.595 209.865L181.342 210.14C181.17 209.212 180.363 208.577 179.109 208.577C177.907 208.577 177.237 209.161 177.237 209.968C177.237 210.638 177.7 210.947 178.525 211.136L180.569 211.583C181.805 211.857 182.75 212.51 182.75 213.798C182.75 215.464 181.359 216.409 179.332 216.409C177.391 216.409 175.845 215.55 175.639 213.901ZM185.839 204.283C186.354 204.283 186.749 204.695 186.749 205.159C186.749 205.657 186.354 206.035 185.839 206.035C185.324 206.035 184.946 205.657 184.946 205.159C184.946 204.695 185.324 204.283 185.839 204.283ZM186.509 216.186H185.186V207.718H186.509V216.186ZM197.511 207.718L197.528 215.499C197.511 217.972 195.827 219.449 193.268 219.449C191.173 219.449 189.782 218.624 189.129 217.25L190.228 216.495C190.829 217.628 191.688 218.264 193.268 218.264C195.054 218.264 196.24 217.13 196.24 215.327V214.296C195.553 215.189 194.471 215.687 193.062 215.687C190.829 215.687 188.889 213.987 188.889 211.583C188.889 209.195 190.829 207.512 193.062 207.512C194.471 207.512 195.553 208.01 196.24 208.886V207.718H197.511ZM193.251 214.554C194.831 214.554 196.24 213.386 196.24 211.583C196.24 209.779 194.831 208.646 193.251 208.646C191.534 208.646 190.16 209.779 190.16 211.583C190.16 213.386 191.534 214.554 193.251 214.554ZM205.03 207.512C207.074 207.512 208.431 208.972 208.431 211.119V216.186H207.125V211.359C207.125 209.779 206.181 208.714 204.772 208.714C203.003 208.714 201.835 209.917 201.835 212.115V216.186H200.53V207.718H201.835V209.127C202.522 208.096 203.605 207.512 205.03 207.512Z" fill="#C3C4D9"/>
<path d="M94.3926 249.089L95.6979 248.797C95.8181 249.913 96.8487 250.514 98.1883 250.514C99.4078 250.514 100.215 249.948 100.215 249.072C100.215 248.367 99.6826 248.041 98.8238 247.852L96.883 247.423C95.4746 247.131 94.6846 246.427 94.6846 245.259C94.6846 243.73 95.9555 242.7 97.8963 242.7C99.8028 242.7 101.039 243.679 101.349 245.053L100.095 245.327C99.923 244.4 99.1158 243.764 97.862 243.764C96.6597 243.764 95.9899 244.348 95.9899 245.156C95.9899 245.825 96.4536 246.135 97.278 246.324L99.3219 246.77C100.558 247.045 101.503 247.698 101.503 248.986C101.503 250.652 100.112 251.596 98.0853 251.596C96.1445 251.596 94.5987 250.738 94.3926 249.089ZM111.565 246.925V247.406H104.3C104.421 249.312 105.863 250.446 107.323 250.446C108.525 250.446 109.607 249.982 110.209 248.625L111.376 248.9C110.707 250.669 109.23 251.596 107.323 251.596C105.073 251.596 103.029 249.862 103.029 247.165C103.029 244.451 105.073 242.7 107.409 242.7C109.693 242.7 111.48 244.4 111.565 246.925ZM107.409 243.85C106.035 243.85 104.609 244.761 104.352 246.427H110.243C110.002 244.761 108.817 243.85 107.409 243.85ZM118.539 242.82C118.745 242.82 118.899 242.82 119.14 242.888L119.037 244.142C118.882 244.125 118.693 244.125 118.539 244.125C116.289 244.125 115.138 245.825 115.138 248.11V251.373H113.815V242.906H115.138V244.984C115.825 243.73 116.976 242.82 118.539 242.82ZM128.605 242.906L124.861 251.373H123.435L119.691 242.906H121.117L124.157 249.827L127.18 242.906H128.605ZM137.915 246.925V247.406H130.65C130.77 249.312 132.213 250.446 133.673 250.446C134.875 250.446 135.957 249.982 136.558 248.625L137.726 248.9C137.056 250.669 135.579 251.596 133.673 251.596C131.423 251.596 129.379 249.862 129.379 247.165C129.379 244.451 131.423 242.7 133.759 242.7C136.043 242.7 137.829 244.4 137.915 246.925ZM133.759 243.85C132.385 243.85 130.959 244.761 130.702 246.427H136.593C136.352 244.761 135.167 243.85 133.759 243.85ZM144.889 242.82C145.095 242.82 145.249 242.82 145.49 242.888L145.387 244.142C145.232 244.125 145.043 244.125 144.889 244.125C142.639 244.125 141.488 245.825 141.488 248.11V251.373H140.165V242.906H141.488V244.984C142.175 243.73 143.326 242.82 144.889 242.82ZM152.31 247.56H146.762V246.409H152.31V247.56ZM154.137 249.089L155.442 248.797C155.562 249.913 156.593 250.514 157.933 250.514C159.152 250.514 159.959 249.948 159.959 249.072C159.959 248.367 159.427 248.041 158.568 247.852L156.627 247.423C155.219 247.131 154.429 246.427 154.429 245.259C154.429 243.73 155.7 242.7 157.641 242.7C159.547 242.7 160.784 243.679 161.093 245.053L159.839 245.327C159.667 244.4 158.86 243.764 157.606 243.764C156.404 243.764 155.734 244.348 155.734 245.156C155.734 245.825 156.198 246.135 157.022 246.324L159.066 246.77C160.303 247.045 161.247 247.698 161.247 248.986C161.247 250.652 159.856 251.596 157.829 251.596C155.889 251.596 154.343 250.738 154.137 249.089ZM171.584 242.906V251.373H170.279V250.033C169.523 251.03 168.321 251.596 166.913 251.596C164.663 251.596 162.688 249.827 162.688 247.148C162.688 244.469 164.663 242.7 166.913 242.7C168.321 242.7 169.523 243.266 170.279 244.263V242.906H171.584ZM167.119 250.428C168.716 250.428 170.279 249.157 170.279 247.148C170.279 245.121 168.716 243.85 167.119 243.85C165.367 243.85 163.959 245.121 163.959 247.148C163.959 249.157 165.367 250.428 167.119 250.428ZM179.288 244.005H176.214V251.373H174.909V244.005H173.432V242.906H174.909V241.652C174.909 239.866 176.042 238.715 177.811 238.715C178.309 238.715 178.773 238.818 179.185 239.024L178.859 240.089C178.55 239.969 178.206 239.9 177.897 239.9C176.867 239.9 176.214 240.57 176.214 241.652V242.906H179.288V244.005ZM188.401 246.925V247.406H181.136C181.256 249.312 182.699 250.446 184.159 250.446C185.361 250.446 186.443 249.982 187.044 248.625L188.212 248.9C187.542 250.669 186.065 251.596 184.159 251.596C181.909 251.596 179.865 249.862 179.865 247.165C179.865 244.451 181.909 242.7 184.245 242.7C186.529 242.7 188.315 244.4 188.401 246.925ZM184.245 243.85C182.871 243.85 181.445 244.761 181.187 246.427H187.078C186.838 244.761 185.653 243.85 184.245 243.85ZM195.306 249.844L195.735 250.926C195.048 251.407 194.464 251.596 193.777 251.596C192.094 251.596 190.977 250.6 190.977 248.728V244.005H189.14V242.906H190.977V240.209H192.3V242.906H195.323V244.005H192.3V248.642C192.3 249.741 192.918 250.36 193.863 250.36C194.344 250.36 194.876 250.154 195.306 249.844ZM205.259 242.906L200.073 254.293H198.613L200.004 251.253L196.208 242.906H197.685L200.708 249.673L203.8 242.906H205.259Z" fill="#C3C4D9"/>
<rect x="38" y="149" width="285" height="160" rx="8.85626" fill="#101126"/>
<path d="M94.0147 178.75L96.6941 178.2C96.8143 178.939 97.4841 179.214 98.2227 179.214C98.944 179.214 99.3391 178.905 99.3391 178.527C99.3391 178.235 99.1158 178.012 98.4803 177.891L96.7284 177.548C95.1311 177.256 94.2208 176.397 94.2208 175.04C94.2208 173.271 95.7494 172.12 97.9307 172.12C100.078 172.12 101.503 173.099 101.847 174.594L99.3391 175.092C99.2532 174.559 98.7379 174.078 97.8963 174.078C97.1578 174.078 96.9174 174.439 96.9174 174.748C96.9174 174.989 97.0204 175.229 97.57 175.349L99.5967 175.762C101.228 176.105 101.984 177.084 101.984 178.355C101.984 180.261 100.335 181.258 98.0681 181.258C96.0414 181.258 94.3067 180.519 94.0147 178.75ZM111.888 176.689V177.393H105.568C105.791 178.424 106.495 179.059 107.423 179.059C108.058 179.059 108.797 178.905 109.26 178.063L111.699 178.561C110.961 180.382 109.398 181.258 107.423 181.258C104.932 181.258 102.871 179.42 102.871 176.689C102.871 173.975 104.932 172.12 107.44 172.12C109.879 172.12 111.837 173.872 111.888 176.689ZM107.44 174.353C106.667 174.353 105.877 174.834 105.619 175.71H109.174C108.917 174.783 108.23 174.353 107.44 174.353ZM119.036 172.258C119.277 172.258 119.449 172.275 119.655 172.327L119.534 175.075H119.036C117.113 175.075 116.065 176.071 116.065 178.303V181H113.317V172.378H116.065V174.027C116.683 172.996 117.628 172.258 119.036 172.258ZM129.883 172.361L126.31 181H123.511L119.938 172.361H122.841L124.919 177.685L126.98 172.361H129.883ZM139.144 176.689V177.393H132.823C133.046 178.424 133.751 179.059 134.678 179.059C135.314 179.059 136.052 178.905 136.516 178.063L138.955 178.561C138.216 180.382 136.653 181.258 134.678 181.258C132.188 181.258 130.127 179.42 130.127 176.689C130.127 173.975 132.188 172.12 134.695 172.12C137.134 172.12 139.092 173.872 139.144 176.689ZM134.695 174.353C133.922 174.353 133.132 174.834 132.875 175.71H136.43C136.172 174.783 135.485 174.353 134.695 174.353ZM146.292 172.258C146.532 172.258 146.704 172.275 146.91 172.327L146.79 175.075H146.292C144.368 175.075 143.321 176.071 143.321 178.303V181H140.573V172.378H143.321V174.027C143.939 172.996 144.884 172.258 146.292 172.258ZM153.789 177.651H148.104V175.332H153.789V177.651ZM155.235 178.75L157.914 178.2C158.035 178.939 158.704 179.214 159.443 179.214C160.164 179.214 160.559 178.905 160.559 178.527C160.559 178.235 160.336 178.012 159.701 177.891L157.949 177.548C156.351 177.256 155.441 176.397 155.441 175.04C155.441 173.271 156.97 172.12 159.151 172.12C161.298 172.12 162.723 173.099 163.067 174.594L160.559 175.092C160.473 174.559 159.958 174.078 159.117 174.078C158.378 174.078 158.138 174.439 158.138 174.748C158.138 174.989 158.241 175.229 158.79 175.349L160.817 175.762C162.449 176.105 163.204 177.084 163.204 178.355C163.204 180.261 161.555 181.258 159.288 181.258C157.262 181.258 155.527 180.519 155.235 178.75ZM173.108 176.689V177.393H166.788C167.011 178.424 167.715 179.059 168.643 179.059C169.278 179.059 170.017 178.905 170.481 178.063L172.919 178.561C172.181 180.382 170.618 181.258 168.643 181.258C166.152 181.258 164.091 179.42 164.091 176.689C164.091 173.975 166.152 172.12 168.66 172.12C171.099 172.12 173.057 173.872 173.108 176.689ZM168.66 174.353C167.887 174.353 167.097 174.834 166.839 175.71H170.395C170.137 174.783 169.45 174.353 168.66 174.353ZM180.291 178.458L180.926 180.622C180.257 180.983 179.552 181.258 178.573 181.258C176.426 181.258 175.138 180.09 175.138 177.823V174.559H173.575V172.378H175.138V169.836H177.886V172.378H180.428V174.559H177.886V177.548C177.886 178.441 178.316 178.802 179.037 178.802C179.415 178.802 179.93 178.664 180.291 178.458ZM190.422 172.378V181H187.674V180.176C187.021 180.863 186.111 181.258 185.029 181.258C183.019 181.258 181.68 179.832 181.68 177.668V172.378H184.41V177.084C184.41 178.097 185.012 178.784 185.887 178.784C186.97 178.784 187.674 178.046 187.674 176.38V172.378H190.422ZM197.844 172.12C200.129 172.12 202.052 173.975 202.052 176.689C202.052 179.42 200.129 181.258 197.844 181.258C196.728 181.258 195.835 180.914 195.165 180.313V183.92H192.417V172.378H195.165V173.065C195.835 172.464 196.728 172.12 197.844 172.12ZM197.277 178.922C198.48 178.922 199.356 178.029 199.356 176.689C199.356 175.367 198.48 174.456 197.277 174.456C196.161 174.456 195.165 175.367 195.165 176.689C195.165 178.029 196.161 178.922 197.277 178.922Z" fill="#C3C4D9"/>
<path d="M94.0147 213.936L96.6941 213.386C96.8143 214.125 97.4841 214.399 98.2227 214.399C98.944 214.399 99.3391 214.09 99.3391 213.712C99.3391 213.42 99.1158 213.197 98.4803 213.077L96.7284 212.733C95.1311 212.441 94.2208 211.583 94.2208 210.226C94.2208 208.457 95.7494 207.306 97.9307 207.306C100.078 207.306 101.503 208.285 101.847 209.779L99.3391 210.277C99.2532 209.745 98.7379 209.264 97.8963 209.264C97.1578 209.264 96.9174 209.625 96.9174 209.934C96.9174 210.174 97.0204 210.415 97.57 210.535L99.5967 210.947C101.228 211.291 101.984 212.27 101.984 213.541C101.984 215.447 100.335 216.443 98.0681 216.443C96.0414 216.443 94.3067 215.705 94.0147 213.936ZM111.888 211.875V212.579H105.568C105.791 213.609 106.495 214.245 107.423 214.245C108.058 214.245 108.797 214.09 109.26 213.249L111.699 213.747C110.961 215.567 109.398 216.443 107.423 216.443C104.932 216.443 102.871 214.605 102.871 211.875C102.871 209.161 104.932 207.306 107.44 207.306C109.879 207.306 111.837 209.058 111.888 211.875ZM107.44 209.539C106.667 209.539 105.877 210.02 105.619 210.896H109.174C108.917 209.968 108.23 209.539 107.44 209.539ZM119.036 207.443C119.277 207.443 119.449 207.461 119.655 207.512L119.534 210.26H119.036C117.113 210.26 116.065 211.256 116.065 213.489V216.186H113.317V207.564H116.065V209.212C116.683 208.182 117.628 207.443 119.036 207.443ZM129.883 207.546L126.31 216.186H123.511L119.938 207.546H122.841L124.919 212.871L126.98 207.546H129.883ZM139.144 211.875V212.579H132.823C133.046 213.609 133.751 214.245 134.678 214.245C135.314 214.245 136.052 214.09 136.516 213.249L138.955 213.747C138.216 215.567 136.653 216.443 134.678 216.443C132.188 216.443 130.127 214.605 130.127 211.875C130.127 209.161 132.188 207.306 134.695 207.306C137.134 207.306 139.092 209.058 139.144 211.875ZM134.695 209.539C133.922 209.539 133.132 210.02 132.875 210.896H136.43C136.172 209.968 135.485 209.539 134.695 209.539ZM146.292 207.443C146.532 207.443 146.704 207.461 146.91 207.512L146.79 210.26H146.292C144.368 210.26 143.321 211.256 143.321 213.489V216.186H140.573V207.564H143.321V209.212C143.939 208.182 144.884 207.443 146.292 207.443ZM153.789 212.836H148.104V210.518H153.789V212.836ZM165.189 203.819V216.186H162.441V215.499C161.771 216.1 160.878 216.443 159.762 216.443C157.478 216.443 155.554 214.605 155.554 211.875C155.554 209.161 157.478 207.306 159.762 207.306C160.878 207.306 161.771 207.649 162.441 208.251V203.819H165.189ZM160.329 214.107C161.445 214.107 162.441 213.214 162.441 211.875C162.441 210.552 161.445 209.642 160.329 209.642C159.126 209.642 158.251 210.552 158.251 211.875C158.251 213.214 159.126 214.107 160.329 214.107ZM175.624 211.875V212.579H169.304C169.527 213.609 170.231 214.245 171.159 214.245C171.794 214.245 172.533 214.09 172.996 213.249L175.435 213.747C174.697 215.567 173.134 216.443 171.159 216.443C168.668 216.443 166.607 214.605 166.607 211.875C166.607 209.161 168.668 207.306 171.176 207.306C173.615 207.306 175.573 209.058 175.624 211.875ZM171.176 209.539C170.403 209.539 169.613 210.02 169.355 210.896H172.911C172.653 209.968 171.966 209.539 171.176 209.539ZM176.469 213.936L179.148 213.386C179.269 214.125 179.939 214.399 180.677 214.399C181.398 214.399 181.793 214.09 181.793 213.712C181.793 213.42 181.57 213.197 180.935 213.077L179.183 212.733C177.586 212.441 176.675 211.583 176.675 210.226C176.675 208.457 178.204 207.306 180.385 207.306C182.532 207.306 183.958 208.285 184.301 209.779L181.793 210.277C181.708 209.745 181.192 209.264 180.351 209.264C179.612 209.264 179.372 209.625 179.372 209.934C179.372 210.174 179.475 210.415 180.024 210.535L182.051 210.947C183.683 211.291 184.438 212.27 184.438 213.541C184.438 215.447 182.79 216.443 180.523 216.443C178.496 216.443 176.761 215.705 176.469 213.936ZM187.404 203.459C188.331 203.459 189.001 204.18 189.001 205.022C189.001 205.898 188.331 206.55 187.404 206.55C186.476 206.55 185.824 205.898 185.824 205.022C185.824 204.18 186.476 203.459 187.404 203.459ZM188.778 216.186H186.03V207.564H188.778V216.186ZM199.787 207.564V215.327C199.787 217.989 197.76 219.449 194.961 219.449C192.986 219.449 191.474 218.762 190.633 217.371L192.917 216.134C193.569 216.907 194.05 217.199 194.944 217.199C196.197 217.199 197.09 216.46 197.09 215.104V214.863C196.472 215.395 195.613 215.687 194.497 215.687C192.247 215.687 190.341 213.901 190.341 211.462C190.341 209.075 192.247 207.306 194.497 207.306C195.613 207.306 196.472 207.598 197.09 208.13V207.564H199.787ZM195.081 213.438C196.18 213.438 197.09 212.613 197.09 211.462C197.09 210.312 196.18 209.504 195.081 209.504C193.879 209.504 193.02 210.312 193.02 211.462C193.02 212.613 193.879 213.438 195.081 213.438ZM207.186 207.306C209.195 207.306 210.535 208.732 210.535 210.896V216.186H207.804V211.48C207.804 210.466 207.203 209.779 206.327 209.779C205.245 209.779 204.541 210.518 204.541 212.184V216.186H201.793V207.564H204.541V208.388C205.193 207.701 206.104 207.306 207.186 207.306Z" fill="#C3C4D9"/>
<path d="M94.0147 249.123L96.6941 248.573C96.8143 249.312 97.4841 249.587 98.2227 249.587C98.944 249.587 99.3391 249.278 99.3391 248.9C99.3391 248.608 99.1158 248.385 98.4803 248.264L96.7284 247.921C95.1311 247.629 94.2208 246.77 94.2208 245.413C94.2208 243.644 95.7494 242.493 97.9307 242.493C100.078 242.493 101.503 243.472 101.847 244.967L99.3391 245.465C99.2532 244.932 98.7379 244.451 97.8963 244.451C97.1578 244.451 96.9174 244.812 96.9174 245.121C96.9174 245.362 97.0204 245.602 97.57 245.722L99.5967 246.135C101.228 246.478 101.984 247.457 101.984 248.728C101.984 250.635 100.335 251.631 98.0681 251.631C96.0414 251.631 94.3067 250.892 94.0147 249.123ZM111.888 247.062V247.766H105.568C105.791 248.797 106.495 249.432 107.423 249.432C108.058 249.432 108.797 249.278 109.26 248.436L111.699 248.934C110.961 250.755 109.398 251.631 107.423 251.631C104.932 251.631 102.871 249.793 102.871 247.062C102.871 244.348 104.932 242.493 107.44 242.493C109.879 242.493 111.837 244.245 111.888 247.062ZM107.44 244.726C106.667 244.726 105.877 245.207 105.619 246.083H109.174C108.917 245.156 108.23 244.726 107.44 244.726ZM119.036 242.631C119.277 242.631 119.449 242.648 119.655 242.7L119.534 245.448H119.036C117.113 245.448 116.065 246.444 116.065 248.677V251.373H113.317V242.751H116.065V244.4C116.683 243.369 117.628 242.631 119.036 242.631ZM129.883 242.734L126.31 251.373H123.511L119.938 242.734H122.841L124.919 248.058L126.98 242.734H129.883ZM139.144 247.062V247.766H132.823C133.046 248.797 133.751 249.432 134.678 249.432C135.314 249.432 136.052 249.278 136.516 248.436L138.955 248.934C138.216 250.755 136.653 251.631 134.678 251.631C132.188 251.631 130.127 249.793 130.127 247.062C130.127 244.348 132.188 242.493 134.695 242.493C137.134 242.493 139.092 244.245 139.144 247.062ZM134.695 244.726C133.922 244.726 133.132 245.207 132.875 246.083H136.43C136.172 245.156 135.485 244.726 134.695 244.726ZM146.292 242.631C146.532 242.631 146.704 242.648 146.91 242.7L146.79 245.448H146.292C144.368 245.448 143.321 246.444 143.321 248.677V251.373H140.573V242.751H143.321V244.4C143.939 243.369 144.884 242.631 146.292 242.631ZM153.789 248.024H148.104V245.705H153.789V248.024ZM155.235 249.123L157.914 248.573C158.035 249.312 158.704 249.587 159.443 249.587C160.164 249.587 160.559 249.278 160.559 248.9C160.559 248.608 160.336 248.385 159.701 248.264L157.949 247.921C156.351 247.629 155.441 246.77 155.441 245.413C155.441 243.644 156.97 242.493 159.151 242.493C161.298 242.493 162.723 243.472 163.067 244.967L160.559 245.465C160.473 244.932 159.958 244.451 159.117 244.451C158.378 244.451 158.138 244.812 158.138 245.121C158.138 245.362 158.241 245.602 158.79 245.722L160.817 246.135C162.449 246.478 163.204 247.457 163.204 248.728C163.204 250.635 161.555 251.631 159.288 251.631C157.262 251.631 155.527 250.892 155.235 249.123ZM173.727 242.751V251.373H170.979V250.686C170.309 251.287 169.416 251.631 168.299 251.631C166.015 251.631 164.091 249.793 164.091 247.062C164.091 244.348 166.015 242.493 168.299 242.493C169.416 242.493 170.309 242.837 170.979 243.438V242.751H173.727ZM168.866 249.295C169.982 249.295 170.979 248.402 170.979 247.062C170.979 245.74 169.982 244.829 168.866 244.829C167.664 244.829 166.788 245.74 166.788 247.062C166.788 248.402 167.664 249.295 168.866 249.295ZM178.94 242.751H181.31V244.932H178.94V251.373H176.209V244.932H174.973V242.751H176.209V242.081C176.209 240.055 177.601 238.766 179.679 238.766C180.263 238.766 180.83 238.887 181.379 239.127L180.795 241.257C180.538 241.171 180.263 241.119 180.057 241.119C179.404 241.119 178.94 241.514 178.94 242.201V242.751ZM190.636 247.062V247.766H184.315C184.539 248.797 185.243 249.432 186.17 249.432C186.806 249.432 187.544 249.278 188.008 248.436L190.447 248.934C189.708 250.755 188.145 251.631 186.17 251.631C183.68 251.631 181.619 249.793 181.619 247.062C181.619 244.348 183.68 242.493 186.187 242.493C188.626 242.493 190.584 244.245 190.636 247.062ZM186.187 244.726C185.414 244.726 184.624 245.207 184.367 246.083H187.922C187.664 245.156 186.977 244.726 186.187 244.726ZM197.818 248.831L198.454 250.995C197.784 251.356 197.08 251.631 196.101 251.631C193.954 251.631 192.666 250.463 192.666 248.196V244.932H191.103V242.751H192.666V240.209H195.414V242.751H197.956V244.932H195.414V247.921C195.414 248.814 195.843 249.175 196.565 249.175C196.942 249.175 197.458 249.037 197.818 248.831ZM208.752 242.734L203.772 254.293H200.8L202.191 251.081L198.619 242.734H201.573L203.617 247.766L205.798 242.734H208.752Z" fill="#C3C4D9"/>
<path d="M103.238 274.667V287.033H101.933V285.694C101.177 286.69 99.9745 287.256 98.5662 287.256C96.3162 287.256 94.3411 285.487 94.3411 282.808C94.3411 280.129 96.3162 278.36 98.5662 278.36C99.9745 278.36 101.177 278.927 101.933 279.923V274.667H103.238ZM98.7723 286.089C100.37 286.089 101.933 284.818 101.933 282.808C101.933 280.781 100.37 279.51 98.7723 279.51C97.0204 279.51 95.612 280.781 95.612 282.808C95.612 284.818 97.0204 286.089 98.7723 286.089ZM114.031 282.585V283.066H106.766C106.886 284.972 108.329 286.106 109.789 286.106C110.991 286.106 112.073 285.642 112.674 284.285L113.842 284.56C113.172 286.329 111.695 287.256 109.789 287.256C107.539 287.256 105.495 285.522 105.495 282.825C105.495 280.112 107.539 278.36 109.875 278.36C112.159 278.36 113.945 280.06 114.031 282.585ZM109.875 279.51C108.501 279.51 107.075 280.421 106.817 282.087H112.708C112.468 280.421 111.283 279.51 109.875 279.51ZM123.724 278.566L119.98 287.033H118.555L114.81 278.566H116.236L119.276 285.487L122.299 278.566H123.724ZM133.034 282.585V283.066H125.769C125.89 284.972 127.332 286.106 128.792 286.106C129.994 286.106 131.076 285.642 131.678 284.285L132.845 284.56C132.176 286.329 130.699 287.256 128.792 287.256C126.542 287.256 124.498 285.522 124.498 282.825C124.498 280.112 126.542 278.36 128.878 278.36C131.162 278.36 132.949 280.06 133.034 282.585ZM128.878 279.51C127.504 279.51 126.078 280.421 125.821 282.087H131.712C131.471 280.421 130.286 279.51 128.878 279.51ZM136.59 287.033H135.284V274.667H136.59V287.033ZM143.339 278.377C145.829 278.377 147.822 280.197 147.822 282.791C147.822 285.384 145.829 287.239 143.339 287.239C140.814 287.239 138.839 285.384 138.839 282.791C138.839 280.197 140.814 278.377 143.339 278.377ZM143.339 286.089C145.074 286.089 146.533 284.749 146.533 282.791C146.533 280.85 145.074 279.528 143.339 279.528C141.587 279.528 140.11 280.85 140.11 282.791C140.11 284.749 141.587 286.089 143.339 286.089ZM154.733 278.36C156.983 278.36 158.958 280.129 158.958 282.808C158.958 285.487 156.983 287.256 154.733 287.256C153.324 287.256 152.122 286.69 151.367 285.694V289.953H150.061V278.566H151.367V279.923C152.122 278.927 153.324 278.36 154.733 278.36ZM154.527 286.089C156.279 286.089 157.687 284.818 157.687 282.808C157.687 280.781 156.279 279.51 154.527 279.51C152.929 279.51 151.367 280.781 151.367 282.808C151.367 284.818 152.929 286.089 154.527 286.089ZM171.486 278.36C173.272 278.36 174.646 279.631 174.646 281.554V287.033H173.341V281.778C173.341 280.438 172.43 279.562 171.159 279.562C169.597 279.562 168.566 280.713 168.566 282.705V287.033H167.261V281.778C167.261 280.438 166.35 279.562 165.097 279.562C163.534 279.562 162.52 280.713 162.52 282.705V287.033H161.215V278.566H162.52V279.854C163.121 278.927 164.083 278.36 165.406 278.36C166.711 278.36 167.793 278.995 168.291 280.077C168.944 279.03 170.043 278.36 171.486 278.36ZM185.231 282.585V283.066H177.966C178.086 284.972 179.529 286.106 180.989 286.106C182.191 286.106 183.273 285.642 183.874 284.285L185.042 284.56C184.372 286.329 182.895 287.256 180.989 287.256C178.739 287.256 176.695 285.522 176.695 282.825C176.695 280.112 178.739 278.36 181.075 278.36C183.359 278.36 185.145 280.06 185.231 282.585ZM181.075 279.51C179.701 279.51 178.275 280.421 178.017 282.087H183.908C183.668 280.421 182.483 279.51 181.075 279.51ZM191.981 278.36C194.025 278.36 195.382 279.82 195.382 281.967V287.033H194.076V282.207C194.076 280.627 193.132 279.562 191.723 279.562C189.954 279.562 188.786 280.764 188.786 282.963V287.033H187.481V278.566H188.786V279.974C189.473 278.944 190.555 278.36 191.981 278.36ZM202.853 285.505L203.283 286.587C202.596 287.068 202.012 287.256 201.325 287.256C199.641 287.256 198.525 286.26 198.525 284.388V279.665H196.687V278.566H198.525V275.869H199.848V278.566H202.87V279.665H199.848V284.302C199.848 285.402 200.466 286.02 201.411 286.02C201.891 286.02 202.424 285.814 202.853 285.505ZM209.505 283.22H203.957V282.07H209.505V283.22ZM216.553 278.36C218.597 278.36 219.954 279.82 219.954 281.967V287.033H218.648V282.207C218.648 280.627 217.704 279.562 216.295 279.562C214.526 279.562 213.358 280.764 213.358 282.963V287.033H212.053V274.667H213.358V279.974C214.045 278.944 215.127 278.36 216.553 278.36ZM230.551 282.585V283.066H223.286C223.406 284.972 224.848 286.106 226.308 286.106C227.511 286.106 228.593 285.642 229.194 284.285L230.362 284.56C229.692 286.329 228.215 287.256 226.308 287.256C224.058 287.256 222.015 285.522 222.015 282.825C222.015 280.112 224.058 278.36 226.394 278.36C228.679 278.36 230.465 280.06 230.551 282.585ZM226.394 279.51C225.02 279.51 223.595 280.421 223.337 282.087H229.228C228.988 280.421 227.803 279.51 226.394 279.51ZM234.106 287.033H232.801V274.667H234.106V287.033ZM241.8 278.36C244.05 278.36 246.025 280.129 246.025 282.808C246.025 285.487 244.05 287.256 241.8 287.256C240.391 287.256 239.189 286.69 238.433 285.694V289.953H237.128V278.566H238.433V279.923C239.189 278.927 240.391 278.36 241.8 278.36ZM241.594 286.089C243.346 286.089 244.754 284.818 244.754 282.808C244.754 280.781 243.346 279.51 241.594 279.51C239.996 279.51 238.433 280.781 238.433 282.808C238.433 284.818 239.996 286.089 241.594 286.089Z" fill="#C3C4D9"/>
<path fill-rule="evenodd" clip-rule="evenodd" d="M63.588 184.063H57.8947C57.3922 184.063 56.9103 183.863 56.5549 183.508C56.1996 183.153 56 182.671 56 182.168V175.221C56 172.876 56.9316 170.627 58.5898 168.969C60.2479 167.31 62.4969 166.379 64.842 166.379C67.187 166.379 69.436 167.31 71.0942 168.969C71.8419 169.716 72.4418 170.584 72.8753 171.527C74.826 171.816 76.633 172.751 77.9995 174.194C79.5542 175.837 80.4207 178.012 80.4207 180.273V187.221C80.4207 187.723 80.2212 188.205 79.8657 188.56C79.5104 188.916 79.0285 189.115 78.5261 189.115H71.5787C69.7501 189.115 67.9665 188.549 66.4732 187.493C65.2288 186.614 64.2371 185.43 63.588 184.063ZM66.4211 183.921C66.8329 184.503 67.3425 185.014 67.9314 185.43C68.9981 186.184 70.2725 186.589 71.5787 186.589H77.8944V180.273C77.8944 178.658 77.2754 177.104 76.165 175.931C75.4596 175.186 74.59 174.631 73.6361 174.302C73.6679 174.606 73.684 174.913 73.684 175.221C73.684 177.566 72.7524 179.815 71.0942 181.473C69.8132 182.754 68.1793 183.602 66.4211 183.921Z" fill="#CF47F1"/>
<path fill-rule="evenodd" clip-rule="evenodd" d="M63.588 217.875H57.8947C57.3922 217.875 56.9103 217.676 56.5549 217.32C56.1996 216.965 56 216.483 56 215.981V209.033C56 206.688 56.9316 204.439 58.5898 202.781C60.2479 201.123 62.4969 200.191 64.842 200.191C67.187 200.191 69.436 201.123 71.0942 202.781C71.8419 203.529 72.4418 204.397 72.8753 205.339C74.826 205.629 76.633 206.563 77.9995 208.007C79.5542 209.649 80.4207 211.824 80.4207 214.086V221.033C80.4207 221.536 80.2212 222.018 79.8657 222.373C79.5104 222.728 79.0285 222.928 78.5261 222.928H71.5787C69.7501 222.928 67.9665 222.361 66.4732 221.306C65.2288 220.426 64.2371 219.243 63.588 217.875ZM66.4211 217.733C66.8329 218.315 67.3425 218.826 67.9314 219.243C68.9981 219.997 70.2725 220.402 71.5787 220.402H77.8944V214.086C77.8944 212.471 77.2754 210.917 76.165 209.744C75.4596 208.999 74.59 208.443 73.6361 208.115C73.6679 208.418 73.684 208.725 73.684 209.033C73.684 211.378 72.7524 213.627 71.0942 215.286C69.8132 216.567 68.1793 217.414 66.4211 217.733Z" fill="#CF47F1"/>
<path fill-rule="evenodd" clip-rule="evenodd" d="M63.588 252.159H57.8947C57.3922 252.159 56.9103 251.959 56.5549 251.604C56.1996 251.248 56 250.766 56 250.264V243.317C56 240.972 56.9316 238.723 58.5898 237.064C60.2479 235.406 62.4969 234.475 64.842 234.475C67.187 234.475 69.436 235.406 71.0942 237.064C71.8419 237.812 72.4418 238.68 72.8753 239.623C74.826 239.912 76.633 240.847 77.9995 242.29C79.5542 243.932 80.4207 246.108 80.4207 248.369V255.316C80.4207 255.819 80.2212 256.301 79.8657 256.656C79.5104 257.011 79.0285 257.211 78.5261 257.211H71.5787C69.7501 257.211 67.9665 256.644 66.4732 255.589C65.2288 254.709 64.2371 253.526 63.588 252.159ZM66.4211 252.016C66.8329 252.598 67.3425 253.11 67.9314 253.526C68.9981 254.28 70.2725 254.685 71.5787 254.685H77.8944V248.369C77.8944 246.754 77.2754 245.2 76.165 244.027C75.4596 243.282 74.59 242.727 73.6361 242.398C73.6679 242.702 73.684 243.008 73.684 243.317C73.684 245.662 72.7524 247.911 71.0942 249.569C69.8132 250.85 68.1793 251.697 66.4211 252.016Z" fill="#CF47F1"/>
<path fill-rule="evenodd" clip-rule="evenodd" d="M63.588 287.819H57.8947C57.3922 287.819 56.9103 287.619 56.5549 287.264C56.1996 286.908 56 286.427 56 285.924V278.977C56 276.632 56.9316 274.383 58.5898 272.725C60.2479 271.066 62.4969 270.135 64.842 270.135C67.187 270.135 69.436 271.066 71.0942 272.725C71.8419 273.472 72.4418 274.34 72.8753 275.283C74.826 275.572 76.633 276.507 77.9995 277.95C79.5542 279.592 80.4207 281.768 80.4207 284.029V290.977C80.4207 291.479 80.2212 291.961 79.8657 292.316C79.5104 292.672 79.0285 292.871 78.5261 292.871H71.5787C69.7501 292.871 67.9665 292.304 66.4732 291.249C65.2288 290.369 64.2371 289.186 63.588 287.819ZM66.4211 287.677C66.8329 288.258 67.3425 288.77 67.9314 289.186C68.9981 289.94 70.2725 290.345 71.5787 290.345H77.8944V284.029C77.8944 282.414 77.2754 280.86 76.165 279.687C75.4596 278.942 74.59 278.387 73.6361 278.058C73.6679 278.362 73.684 278.668 73.684 278.977C73.684 281.322 72.7524 283.571 71.0942 285.229C69.8132 286.51 68.1793 287.357 66.4211 287.677Z" fill="#CF47F1"/>
<path d="M103.667 274.667V287.033H100.919V286.346C100.249 286.947 99.3562 287.291 98.2398 287.291C95.9555 287.291 94.0319 285.453 94.0319 282.722C94.0319 280.009 95.9555 278.154 98.2398 278.154C99.3562 278.154 100.249 278.497 100.919 279.098V274.667H103.667ZM98.8066 284.955C99.923 284.955 100.919 284.062 100.919 282.722C100.919 281.4 99.923 280.489 98.8066 280.489C97.6044 280.489 96.7284 281.4 96.7284 282.722C96.7284 284.062 97.6044 284.955 98.8066 284.955ZM114.102 282.722V283.426H107.782C108.005 284.457 108.709 285.092 109.637 285.092C110.272 285.092 111.011 284.938 111.474 284.096L113.913 284.594C113.175 286.415 111.612 287.291 109.637 287.291C107.146 287.291 105.085 285.453 105.085 282.722C105.085 280.009 107.146 278.154 109.654 278.154C112.093 278.154 114.051 279.905 114.102 282.722ZM109.654 280.386C108.881 280.386 108.091 280.867 107.833 281.743H111.388C111.131 280.816 110.444 280.386 109.654 280.386ZM124.298 278.394L120.725 287.033H117.926L114.353 278.394H117.256L119.334 283.718L121.395 278.394H124.298ZM133.558 282.722V283.426H127.238C127.461 284.457 128.165 285.092 129.093 285.092C129.728 285.092 130.467 284.938 130.931 284.096L133.369 284.594C132.631 286.415 131.068 287.291 129.093 287.291C126.602 287.291 124.541 285.453 124.541 282.722C124.541 280.009 126.602 278.154 129.11 278.154C131.549 278.154 133.507 279.905 133.558 282.722ZM129.11 280.386C128.337 280.386 127.547 280.867 127.289 281.743H130.845C130.587 280.816 129.9 280.386 129.11 280.386ZM137.735 287.033H134.987V274.667H137.735V287.033ZM143.942 278.188C146.501 278.188 148.665 280.009 148.665 282.722C148.665 285.453 146.501 287.274 143.942 287.274C141.331 287.274 139.167 285.453 139.167 282.722C139.167 280.009 141.331 278.188 143.942 278.188ZM143.942 284.955C145.007 284.955 146.02 284.079 146.02 282.722C146.02 281.383 145.007 280.489 143.942 280.489C142.825 280.489 141.812 281.383 141.812 282.722C141.812 284.079 142.825 284.955 143.942 284.955ZM155.51 278.154C157.794 278.154 159.718 280.009 159.718 282.722C159.718 285.453 157.794 287.291 155.51 287.291C154.394 287.291 153.501 286.947 152.831 286.346V289.953H150.083V278.411H152.831V279.098C153.501 278.497 154.394 278.154 155.51 278.154ZM154.943 284.955C156.146 284.955 157.021 284.062 157.021 282.722C157.021 281.4 156.146 280.489 154.943 280.489C153.827 280.489 152.831 281.4 152.831 282.722C152.831 284.062 153.827 284.955 154.943 284.955ZM172.3 278.154C174.137 278.154 175.597 279.545 175.597 281.64V287.033H172.867V282.224C172.867 281.245 172.231 280.627 171.424 280.627C170.41 280.627 169.741 281.365 169.741 282.808V287.033H166.993V282.224C166.993 281.245 166.357 280.627 165.533 280.627C164.537 280.627 163.884 281.365 163.884 282.808V287.033H161.136V278.411H163.884V279.201C164.468 278.549 165.309 278.154 166.426 278.154C167.628 278.154 168.659 278.669 169.243 279.614C169.93 278.72 170.96 278.154 172.3 278.154ZM185.923 282.722V283.426H179.602C179.825 284.457 180.53 285.092 181.457 285.092C182.093 285.092 182.831 284.938 183.295 284.096L185.734 284.594C184.995 286.415 183.432 287.291 181.457 287.291C178.967 287.291 176.906 285.453 176.906 282.722C176.906 280.009 178.967 278.154 181.474 278.154C183.913 278.154 185.871 279.905 185.923 282.722ZM181.474 280.386C180.701 280.386 179.911 280.867 179.654 281.743H183.209C182.951 280.816 182.264 280.386 181.474 280.386ZM192.745 278.154C194.754 278.154 196.094 279.579 196.094 281.743V287.033H193.363V282.327C193.363 281.314 192.762 280.627 191.886 280.627C190.804 280.627 190.1 281.365 190.1 283.031V287.033H187.352V278.411H190.1V279.236C190.752 278.549 191.663 278.154 192.745 278.154ZM203.722 284.491L204.358 286.655C203.688 287.016 202.984 287.291 202.005 287.291C199.858 287.291 198.57 286.123 198.57 283.856V280.592H197.007V278.411H198.57V275.869H201.318V278.411H203.86V280.592H201.318V283.581C201.318 284.474 201.747 284.835 202.469 284.835C202.846 284.835 203.362 284.697 203.722 284.491ZM210.85 283.684H205.165V281.365H210.85V283.684ZM218.29 278.154C220.282 278.154 221.622 279.579 221.622 281.743V287.033H218.891V282.327C218.891 281.314 218.29 280.627 217.397 280.627C216.332 280.627 215.628 281.365 215.628 283.031V287.033H212.88V274.667H215.628V279.236C216.297 278.549 217.191 278.154 218.29 278.154ZM231.964 282.722V283.426H225.643C225.866 284.457 226.571 285.092 227.498 285.092C228.134 285.092 228.872 284.938 229.336 284.096L231.775 284.594C231.036 286.415 229.473 287.291 227.498 287.291C225.008 287.291 222.947 285.453 222.947 282.722C222.947 280.009 225.008 278.154 227.515 278.154C229.954 278.154 231.912 279.905 231.964 282.722ZM227.515 280.386C226.742 280.386 225.952 280.867 225.695 281.743H229.25C228.992 280.816 228.305 280.386 227.515 280.386ZM236.141 287.033H233.392V274.667H236.141V287.033ZM243.567 278.154C245.851 278.154 247.774 280.009 247.774 282.722C247.774 285.453 245.851 287.291 243.567 287.291C242.45 287.291 241.557 286.947 240.887 286.346V289.953H238.139V278.411H240.887V279.098C241.557 278.497 242.45 278.154 243.567 278.154ZM243 284.955C244.202 284.955 245.078 284.062 245.078 282.722C245.078 281.4 244.202 280.489 243 280.489C241.883 280.489 240.887 281.4 240.887 282.722C240.887 284.062 241.883 284.955 243 284.955Z" fill="#C3C4D9"/>
<path fill-rule="evenodd" clip-rule="evenodd" d="M63.588 184.063H57.8947C57.3922 184.063 56.9103 183.863 56.5549 183.508C56.1996 183.153 56 182.671 56 182.168V175.221C56 172.876 56.9316 170.627 58.5898 168.969C60.2479 167.31 62.4969 166.379 64.842 166.379C67.187 166.379 69.436 167.31 71.0942 168.969C71.8419 169.716 72.4418 170.584 72.8753 171.527C74.826 171.816 76.633 172.751 77.9995 174.194C79.5542 175.837 80.4207 178.012 80.4207 180.273V187.221C80.4207 187.723 80.2212 188.205 79.8657 188.56C79.5104 188.916 79.0285 189.115 78.5261 189.115H71.5787C69.7501 189.115 67.9665 188.549 66.4732 187.493C65.2288 186.614 64.2371 185.43 63.588 184.063ZM66.4211 183.921C66.8329 184.503 67.3425 185.014 67.9314 185.43C68.9981 186.184 70.2725 186.589 71.5787 186.589H77.8944V180.273C77.8944 178.658 77.2754 177.104 76.165 175.931C75.4596 175.186 74.59 174.631 73.6361 174.302C73.6679 174.606 73.684 174.913 73.684 175.221C73.684 177.566 72.7524 179.815 71.0942 181.473C69.8132 182.754 68.1793 183.602 66.4211 183.921Z" fill="#CF47F1"/>
<path fill-rule="evenodd" clip-rule="evenodd" d="M63.588 217.875H57.8947C57.3922 217.875 56.9103 217.676 56.5549 217.32C56.1996 216.965 56 216.483 56 215.981V209.033C56 206.688 56.9316 204.439 58.5898 202.781C60.2479 201.123 62.4969 200.191 64.842 200.191C67.187 200.191 69.436 201.123 71.0942 202.781C71.8419 203.529 72.4418 204.397 72.8753 205.339C74.826 205.629 76.633 206.563 77.9995 208.007C79.5542 209.649 80.4207 211.824 80.4207 214.086V221.033C80.4207 221.536 80.2212 222.018 79.8657 222.373C79.5104 222.728 79.0285 222.928 78.5261 222.928H71.5787C69.7501 222.928 67.9665 222.361 66.4732 221.306C65.2288 220.426 64.2371 219.243 63.588 217.875ZM66.4211 217.733C66.8329 218.315 67.3425 218.826 67.9314 219.243C68.9981 219.997 70.2725 220.402 71.5787 220.402H77.8944V214.086C77.8944 212.471 77.2754 210.917 76.165 209.744C75.4596 208.999 74.59 208.443 73.6361 208.115C73.6679 208.418 73.684 208.725 73.684 209.033C73.684 211.378 72.7524 213.627 71.0942 215.286C69.8132 216.567 68.1793 217.414 66.4211 217.733Z" fill="#CF47F1"/>
<path fill-rule="evenodd" clip-rule="evenodd" d="M63.588 252.159H57.8947C57.3922 252.159 56.9103 251.959 56.5549 251.604C56.1996 251.248 56 250.766 56 250.264V243.317C56 240.972 56.9316 238.723 58.5898 237.064C60.2479 235.406 62.4969 234.475 64.842 234.475C67.187 234.475 69.436 235.406 71.0942 237.064C71.8419 237.812 72.4418 238.68 72.8753 239.623C74.826 239.912 76.633 240.847 77.9995 242.29C79.5542 243.932 80.4207 246.108 80.4207 248.369V255.316C80.4207 255.819 80.2212 256.301 79.8657 256.656C79.5104 257.011 79.0285 257.211 78.5261 257.211H71.5787C69.7501 257.211 67.9665 256.644 66.4732 255.589C65.2288 254.709 64.2371 253.526 63.588 252.159ZM66.4211 252.016C66.8329 252.598 67.3425 253.11 67.9314 253.526C68.9981 254.28 70.2725 254.685 71.5787 254.685H77.8944V248.369C77.8944 246.754 77.2754 245.2 76.165 244.027C75.4596 243.282 74.59 242.727 73.6361 242.398C73.6679 242.702 73.684 243.008 73.684 243.317C73.684 245.662 72.7524 247.911 71.0942 249.569C69.8132 250.85 68.1793 251.697 66.4211 252.016Z" fill="#CF47F1"/>
<path fill-rule="evenodd" clip-rule="evenodd" d="M63.588 287.819H57.8947C57.3922 287.819 56.9103 287.619 56.5549 287.264C56.1996 286.908 56 286.427 56 285.924V278.977C56 276.632 56.9316 274.383 58.5898 272.725C60.2479 271.066 62.4969 270.135 64.842 270.135C67.187 270.135 69.436 271.066 71.0942 272.725C71.8419 273.472 72.4418 274.34 72.8753 275.283C74.826 275.572 76.633 276.507 77.9995 277.95C79.5542 279.592 80.4207 281.768 80.4207 284.029V290.977C80.4207 291.479 80.2212 291.961 79.8657 292.316C79.5104 292.672 79.0285 292.871 78.5261 292.871H71.5787C69.7501 292.871 67.9665 292.304 66.4732 291.249C65.2288 290.369 64.2371 289.186 63.588 287.819ZM66.4211 287.677C66.8329 288.258 67.3425 288.77 67.9314 289.186C68.9981 289.94 70.2725 290.345 71.5787 290.345H77.8944V284.029C77.8944 282.414 77.2754 280.86 76.165 279.687C75.4596 278.942 74.59 278.387 73.6361 278.058C73.6679 278.362 73.684 278.668 73.684 278.977C73.684 281.322 72.7524 283.571 71.0942 285.229C69.8132 286.51 68.1793 287.357 66.4211 287.677Z" fill="#CF47F1"/>
<path fill-rule="evenodd" clip-rule="evenodd" d="M63.588 184.063H57.8947C57.3922 184.063 56.9103 183.863 56.5549 183.508C56.1996 183.153 56 182.671 56 182.168V175.221C56 172.876 56.9316 170.627 58.5898 168.969C60.2479 167.31 62.4969 166.379 64.842 166.379C67.187 166.379 69.436 167.31 71.0942 168.969C71.8419 169.716 72.4418 170.584 72.8753 171.527C74.826 171.816 76.633 172.751 77.9995 174.194C79.5542 175.837 80.4207 178.012 80.4207 180.273V187.221C80.4207 187.723 80.2212 188.205 79.8657 188.56C79.5104 188.916 79.0285 189.115 78.5261 189.115H71.5787C69.7501 189.115 67.9665 188.549 66.4732 187.493C65.2288 186.614 64.2371 185.43 63.588 184.063ZM66.4211 183.921C66.8329 184.503 67.3425 185.014 67.9314 185.43C68.9981 186.184 70.2725 186.589 71.5787 186.589H77.8944V180.273C77.8944 178.658 77.2754 177.104 76.165 175.931C75.4596 175.186 74.59 174.631 73.6361 174.302C73.6679 174.606 73.684 174.913 73.684 175.221C73.684 177.566 72.7524 179.815 71.0942 181.473C69.8132 182.754 68.1793 183.602 66.4211 183.921Z" fill="#CF47F1"/>
<path fill-rule="evenodd" clip-rule="evenodd" d="M63.588 217.875H57.8947C57.3922 217.875 56.9103 217.676 56.5549 217.32C56.1996 216.965 56 216.483 56 215.981V209.033C56 206.688 56.9316 204.439 58.5898 202.781C60.2479 201.123 62.4969 200.191 64.842 200.191C67.187 200.191 69.436 201.123 71.0942 202.781C71.8419 203.529 72.4418 204.397 72.8753 205.339C74.826 205.629 76.633 206.563 77.9995 208.007C79.5542 209.649 80.4207 211.824 80.4207 214.086V221.033C80.4207 221.536 80.2212 222.018 79.8657 222.373C79.5104 222.728 79.0285 222.928 78.5261 222.928H71.5787C69.7501 222.928 67.9665 222.361 66.4732 221.306C65.2288 220.426 64.2371 219.243 63.588 217.875ZM66.4211 217.733C66.8329 218.315 67.3425 218.826 67.9314 219.243C68.9981 219.997 70.2725 220.402 71.5787 220.402H77.8944V214.086C77.8944 212.471 77.2754 210.917 76.165 209.744C75.4596 208.999 74.59 208.443 73.6361 208.115C73.6679 208.418 73.684 208.725 73.684 209.033C73.684 211.378 72.7524 213.627 71.0942 215.286C69.8132 216.567 68.1793 217.414 66.4211 217.733Z" fill="#CF47F1"/>
<path fill-rule="evenodd" clip-rule="evenodd" d="M63.588 252.159H57.8947C57.3922 252.159 56.9103 251.959 56.5549 251.604C56.1996 251.248 56 250.766 56 250.264V243.317C56 240.972 56.9316 238.723 58.5898 237.064C60.2479 235.406 62.4969 234.475 64.842 234.475C67.187 234.475 69.436 235.406 71.0942 237.064C71.8419 237.812 72.4418 238.68 72.8753 239.623C74.826 239.912 76.633 240.847 77.9995 242.29C79.5542 243.932 80.4207 246.108 80.4207 248.369V255.316C80.4207 255.819 80.2212 256.301 79.8657 256.656C79.5104 257.011 79.0285 257.211 78.5261 257.211H71.5787C69.7501 257.211 67.9665 256.644 66.4732 255.589C65.2288 254.709 64.2371 253.526 63.588 252.159ZM66.4211 252.016C66.8329 252.598 67.3425 253.11 67.9314 253.526C68.9981 254.28 70.2725 254.685 71.5787 254.685H77.8944V248.369C77.8944 246.754 77.2754 245.2 76.165 244.027C75.4596 243.282 74.59 242.727 73.6361 242.398C73.6679 242.702 73.684 243.008 73.684 243.317C73.684 245.662 72.7524 247.911 71.0942 249.569C69.8132 250.85 68.1793 251.697 66.4211 252.016Z" fill="#CF47F1"/>
<path fill-rule="evenodd" clip-rule="evenodd" d="M63.588 287.819H57.8947C57.3922 287.819 56.9103 287.619 56.5549 287.264C56.1996 286.908 56 286.427 56 285.924V278.977C56 276.632 56.9316 274.383 58.5898 272.725C60.2479 271.066 62.4969 270.135 64.842 270.135C67.187 270.135 69.436 271.066 71.0942 272.725C71.8419 273.472 72.4418 274.34 72.8753 275.283C74.826 275.572 76.633 276.507 77.9995 277.95C79.5542 279.592 80.4207 281.768 80.4207 284.029V290.977C80.4207 291.479 80.2212 291.961 79.8657 292.316C79.5104 292.672 79.0285 292.871 78.5261 292.871H71.5787C69.7501 292.871 67.9665 292.304 66.4732 291.249C65.2288 290.369 64.2371 289.186 63.588 287.819ZM66.4211 287.677C66.8329 288.258 67.3425 288.77 67.9314 289.186C68.9981 289.94 70.2725 290.345 71.5787 290.345H77.8944V284.029C77.8944 282.414 77.2754 280.86 76.165 279.687C75.4596 278.942 74.59 278.387 73.6361 278.058C73.6679 278.362 73.684 278.668 73.684 278.977C73.684 281.322 72.7524 283.571 71.0942 285.229C69.8132 286.51 68.1793 287.357 66.4211 287.677Z" fill="#CF47F1"/>
<rect x="0.256836" y="66.627" width="204.063" height="63.7975" rx="18.1689" fill="#353758"/>
<path d="M47.6821 93.3513C48.0778 92.9448 48.0785 92.2815 47.6837 91.8743L46.3832 90.5327C45.9929 90.1303 45.3629 90.1296 44.9719 90.5313L34.8601 100.92C34.4696 101.321 33.8408 101.321 33.4504 100.92L23.3385 90.5313C22.9474 90.1296 22.3175 90.1303 21.9273 90.5327L20.6267 91.8743C20.2319 92.2815 20.2325 92.9448 20.6283 93.3513L33.4504 106.519C33.841 106.92 34.4695 106.92 34.8599 106.519L47.6821 93.3513Z" fill="white"/>
<path d="M66.9303 93.2152C70.2532 93.2152 72.4877 95.5928 72.4877 99.2023V108.025H67.9329V100.176C67.9329 98.4861 66.9303 97.3403 65.4406 97.3403C63.6646 97.3403 62.49 98.5721 62.49 101.351V108.025H57.9066V87.3999H62.49V95.0199C63.6073 93.874 65.0969 93.2152 66.9303 93.2152ZM89.7369 100.835V102.01H79.195C79.5674 103.728 80.7419 104.788 82.2888 104.788C83.3487 104.788 84.5805 104.531 85.354 103.127L89.4218 103.958C88.19 106.994 85.5831 108.455 82.2888 108.455C78.1351 108.455 74.6975 105.39 74.6975 100.835C74.6975 96.309 78.1351 93.2152 82.3174 93.2152C86.3852 93.2152 89.6509 96.1371 89.7369 100.835ZM82.3174 96.9392C81.0283 96.9392 79.7106 97.7413 79.2809 99.2023H85.2107C84.781 97.6554 83.6352 96.9392 82.3174 96.9392ZM96.7036 108.025H92.1201V87.3999H96.7036V108.025ZM109.089 93.2152C112.899 93.2152 116.108 96.309 116.108 100.835C116.108 105.39 112.899 108.455 109.089 108.455C107.227 108.455 105.738 107.882 104.621 106.88V112.895H100.037V93.6449H104.621V94.7907C105.738 93.7881 107.227 93.2152 109.089 93.2152ZM108.144 104.559C110.149 104.559 111.61 103.07 111.61 100.835C111.61 98.6293 110.149 97.1111 108.144 97.1111C106.282 97.1111 104.621 98.6293 104.621 100.835C104.621 103.07 106.282 104.559 108.144 104.559ZM133.598 87.3999V108.025H129.015V106.88C127.897 107.882 126.408 108.455 124.546 108.455C120.736 108.455 117.527 105.39 117.527 100.835C117.527 96.309 120.736 93.2152 124.546 93.2152C126.408 93.2152 127.897 93.7881 129.015 94.7907V87.3999H133.598ZM125.491 104.559C127.353 104.559 129.015 103.07 129.015 100.835C129.015 98.6293 127.353 97.1111 125.491 97.1111C123.486 97.1111 122.025 98.6293 122.025 100.835C122.025 103.07 123.486 104.559 125.491 104.559ZM151.002 100.835V102.01H140.46C140.833 103.728 142.007 104.788 143.554 104.788C144.614 104.788 145.846 104.531 146.619 103.127L150.687 103.958C149.455 106.994 146.849 108.455 143.554 108.455C139.4 108.455 135.963 105.39 135.963 100.835C135.963 96.309 139.4 93.2152 143.583 93.2152C147.651 93.2152 150.916 96.1371 151.002 100.835ZM143.583 96.9392C142.294 96.9392 140.976 97.7413 140.546 99.2023H146.476C146.046 97.6554 144.901 96.9392 143.583 96.9392ZM152.412 104.273L156.88 103.356C157.081 104.588 158.198 105.046 159.43 105.046C160.633 105.046 161.292 104.531 161.292 103.9C161.292 103.413 160.92 103.041 159.86 102.84L156.938 102.267C154.274 101.78 152.755 100.348 152.755 98.0851C152.755 95.1345 155.305 93.2152 158.943 93.2152C162.524 93.2152 164.901 94.848 165.474 97.3403L161.292 98.171C161.149 97.283 160.289 96.4809 158.886 96.4809C157.654 96.4809 157.253 97.0824 157.253 97.5981C157.253 97.9991 157.425 98.4002 158.341 98.6007L161.722 99.2882C164.443 99.8611 165.704 101.494 165.704 103.614C165.704 106.794 162.953 108.455 159.172 108.455C155.792 108.455 152.899 107.223 152.412 104.273ZM184.084 108.025H178.212L173.543 102.84H172.712V108.025H168.128V87.3999H172.712V98.5434H173.342L177.897 93.6449H183.426L177.123 100.491L184.084 108.025Z" fill="white"/>
</svg>
