<svg width="342" height="374" viewBox="0 0 342 374" fill="none" xmlns="http://www.w3.org/2000/svg">
<rect x="22.2588" y="113.6" width="319" height="216" rx="18.1689" fill="white"/>
<rect x="38" y="149" width="285" height="160" rx="8.85626" fill="#F8DEFF"/>
<path d="M94.0147 178.75L96.6941 178.2C96.8143 178.939 97.4841 179.214 98.2227 179.214C98.944 179.214 99.3391 178.905 99.3391 178.527C99.3391 178.235 99.1158 178.012 98.4803 177.891L96.7284 177.548C95.1311 177.256 94.2208 176.397 94.2208 175.04C94.2208 173.271 95.7494 172.12 97.9307 172.12C100.078 172.12 101.503 173.099 101.847 174.594L99.3391 175.092C99.2532 174.559 98.7379 174.078 97.8963 174.078C97.1578 174.078 96.9174 174.439 96.9174 174.748C96.9174 174.989 97.0204 175.229 97.57 175.349L99.5967 175.762C101.228 176.105 101.984 177.084 101.984 178.355C101.984 180.261 100.335 181.258 98.0681 181.258C96.0414 181.258 94.3067 180.519 94.0147 178.75ZM111.888 176.689V177.393H105.568C105.791 178.424 106.495 179.059 107.423 179.059C108.058 179.059 108.797 178.905 109.26 178.063L111.699 178.561C110.961 180.382 109.398 181.258 107.423 181.258C104.932 181.258 102.871 179.42 102.871 176.689C102.871 173.975 104.932 172.12 107.44 172.12C109.879 172.12 111.837 173.872 111.888 176.689ZM107.44 174.353C106.667 174.353 105.877 174.834 105.619 175.71H109.174C108.917 174.783 108.23 174.353 107.44 174.353ZM119.036 172.258C119.277 172.258 119.449 172.275 119.655 172.327L119.534 175.075H119.036C117.113 175.075 116.065 176.071 116.065 178.303V181H113.317V172.378H116.065V174.027C116.683 172.996 117.628 172.258 119.036 172.258ZM129.883 172.361L126.31 181H123.511L119.938 172.361H122.841L124.919 177.685L126.98 172.361H129.883ZM139.144 176.689V177.393H132.823C133.046 178.424 133.751 179.059 134.678 179.059C135.314 179.059 136.052 178.905 136.516 178.063L138.955 178.561C138.216 180.382 136.653 181.258 134.678 181.258C132.188 181.258 130.127 179.42 130.127 176.689C130.127 173.975 132.188 172.12 134.695 172.12C137.134 172.12 139.092 173.872 139.144 176.689ZM134.695 174.353C133.922 174.353 133.132 174.834 132.875 175.71H136.43C136.172 174.783 135.485 174.353 134.695 174.353ZM146.292 172.258C146.532 172.258 146.704 172.275 146.91 172.327L146.79 175.075H146.292C144.368 175.075 143.321 176.071 143.321 178.303V181H140.573V172.378H143.321V174.027C143.939 172.996 144.884 172.258 146.292 172.258ZM153.789 177.651H148.104V175.332H153.789V177.651ZM155.235 178.75L157.914 178.2C158.035 178.939 158.704 179.214 159.443 179.214C160.164 179.214 160.559 178.905 160.559 178.527C160.559 178.235 160.336 178.012 159.701 177.891L157.949 177.548C156.351 177.256 155.441 176.397 155.441 175.04C155.441 173.271 156.97 172.12 159.151 172.12C161.298 172.12 162.723 173.099 163.067 174.594L160.559 175.092C160.473 174.559 159.958 174.078 159.117 174.078C158.378 174.078 158.138 174.439 158.138 174.748C158.138 174.989 158.241 175.229 158.79 175.349L160.817 175.762C162.449 176.105 163.204 177.084 163.204 178.355C163.204 180.261 161.555 181.258 159.288 181.258C157.262 181.258 155.527 180.519 155.235 178.75ZM173.108 176.689V177.393H166.788C167.011 178.424 167.715 179.059 168.643 179.059C169.278 179.059 170.017 178.905 170.481 178.063L172.919 178.561C172.181 180.382 170.618 181.258 168.643 181.258C166.152 181.258 164.091 179.42 164.091 176.689C164.091 173.975 166.152 172.12 168.66 172.12C171.099 172.12 173.057 173.872 173.108 176.689ZM168.66 174.353C167.887 174.353 167.097 174.834 166.839 175.71H170.395C170.137 174.783 169.45 174.353 168.66 174.353ZM180.291 178.458L180.926 180.622C180.257 180.983 179.552 181.258 178.573 181.258C176.426 181.258 175.138 180.09 175.138 177.823V174.559H173.575V172.378H175.138V169.836H177.886V172.378H180.428V174.559H177.886V177.548C177.886 178.441 178.316 178.802 179.037 178.802C179.415 178.802 179.93 178.664 180.291 178.458ZM190.422 172.378V181H187.674V180.176C187.021 180.863 186.111 181.258 185.029 181.258C183.019 181.258 181.68 179.832 181.68 177.668V172.378H184.41V177.084C184.41 178.097 185.012 178.784 185.887 178.784C186.97 178.784 187.674 178.046 187.674 176.38V172.378H190.422ZM197.844 172.12C200.129 172.12 202.052 173.975 202.052 176.689C202.052 179.42 200.129 181.258 197.844 181.258C196.728 181.258 195.835 180.914 195.165 180.313V183.92H192.417V172.378H195.165V173.065C195.835 172.464 196.728 172.12 197.844 172.12ZM197.277 178.922C198.48 178.922 199.356 178.029 199.356 176.689C199.356 175.367 198.48 174.456 197.277 174.456C196.161 174.456 195.165 175.367 195.165 176.689C195.165 178.029 196.161 178.922 197.277 178.922Z" fill="#A85CBB"/>
<path d="M94.0147 213.936L96.6941 213.386C96.8143 214.125 97.4841 214.399 98.2227 214.399C98.944 214.399 99.3391 214.09 99.3391 213.712C99.3391 213.42 99.1158 213.197 98.4803 213.077L96.7284 212.733C95.1311 212.441 94.2208 211.583 94.2208 210.226C94.2208 208.457 95.7494 207.306 97.9307 207.306C100.078 207.306 101.503 208.285 101.847 209.779L99.3391 210.277C99.2532 209.745 98.7379 209.264 97.8963 209.264C97.1578 209.264 96.9174 209.625 96.9174 209.934C96.9174 210.174 97.0204 210.415 97.57 210.535L99.5967 210.947C101.228 211.291 101.984 212.27 101.984 213.541C101.984 215.447 100.335 216.443 98.0681 216.443C96.0414 216.443 94.3067 215.705 94.0147 213.936ZM111.888 211.875V212.579H105.568C105.791 213.609 106.495 214.245 107.423 214.245C108.058 214.245 108.797 214.09 109.26 213.249L111.699 213.747C110.961 215.567 109.398 216.443 107.423 216.443C104.932 216.443 102.871 214.605 102.871 211.875C102.871 209.161 104.932 207.306 107.44 207.306C109.879 207.306 111.837 209.058 111.888 211.875ZM107.44 209.539C106.667 209.539 105.877 210.02 105.619 210.896H109.174C108.917 209.968 108.23 209.539 107.44 209.539ZM119.036 207.443C119.277 207.443 119.449 207.461 119.655 207.512L119.534 210.26H119.036C117.113 210.26 116.065 211.256 116.065 213.489V216.186H113.317V207.564H116.065V209.212C116.683 208.182 117.628 207.443 119.036 207.443ZM129.883 207.546L126.31 216.186H123.511L119.938 207.546H122.841L124.919 212.871L126.98 207.546H129.883ZM139.144 211.875V212.579H132.823C133.046 213.609 133.751 214.245 134.678 214.245C135.314 214.245 136.052 214.09 136.516 213.249L138.955 213.747C138.216 215.567 136.653 216.443 134.678 216.443C132.188 216.443 130.127 214.605 130.127 211.875C130.127 209.161 132.188 207.306 134.695 207.306C137.134 207.306 139.092 209.058 139.144 211.875ZM134.695 209.539C133.922 209.539 133.132 210.02 132.875 210.896H136.43C136.172 209.968 135.485 209.539 134.695 209.539ZM146.292 207.443C146.532 207.443 146.704 207.461 146.91 207.512L146.79 210.26H146.292C144.368 210.26 143.321 211.256 143.321 213.489V216.186H140.573V207.564H143.321V209.212C143.939 208.182 144.884 207.443 146.292 207.443ZM153.789 212.836H148.104V210.518H153.789V212.836ZM165.189 203.819V216.186H162.441V215.499C161.771 216.1 160.878 216.443 159.762 216.443C157.478 216.443 155.554 214.605 155.554 211.875C155.554 209.161 157.478 207.306 159.762 207.306C160.878 207.306 161.771 207.649 162.441 208.251V203.819H165.189ZM160.329 214.107C161.445 214.107 162.441 213.214 162.441 211.875C162.441 210.552 161.445 209.642 160.329 209.642C159.126 209.642 158.251 210.552 158.251 211.875C158.251 213.214 159.126 214.107 160.329 214.107ZM175.624 211.875V212.579H169.304C169.527 213.609 170.231 214.245 171.159 214.245C171.794 214.245 172.533 214.09 172.996 213.249L175.435 213.747C174.697 215.567 173.134 216.443 171.159 216.443C168.668 216.443 166.607 214.605 166.607 211.875C166.607 209.161 168.668 207.306 171.176 207.306C173.615 207.306 175.573 209.058 175.624 211.875ZM171.176 209.539C170.403 209.539 169.613 210.02 169.355 210.896H172.911C172.653 209.968 171.966 209.539 171.176 209.539ZM176.469 213.936L179.148 213.386C179.269 214.125 179.939 214.399 180.677 214.399C181.398 214.399 181.793 214.09 181.793 213.712C181.793 213.42 181.57 213.197 180.935 213.077L179.183 212.733C177.586 212.441 176.675 211.583 176.675 210.226C176.675 208.457 178.204 207.306 180.385 207.306C182.532 207.306 183.958 208.285 184.301 209.779L181.793 210.277C181.708 209.745 181.192 209.264 180.351 209.264C179.612 209.264 179.372 209.625 179.372 209.934C179.372 210.174 179.475 210.415 180.024 210.535L182.051 210.947C183.683 211.291 184.438 212.27 184.438 213.541C184.438 215.447 182.79 216.443 180.523 216.443C178.496 216.443 176.761 215.705 176.469 213.936ZM187.404 203.459C188.331 203.459 189.001 204.18 189.001 205.022C189.001 205.898 188.331 206.55 187.404 206.55C186.476 206.55 185.824 205.898 185.824 205.022C185.824 204.18 186.476 203.459 187.404 203.459ZM188.778 216.186H186.03V207.564H188.778V216.186ZM199.787 207.564V215.327C199.787 217.989 197.76 219.449 194.961 219.449C192.986 219.449 191.474 218.762 190.633 217.371L192.917 216.134C193.569 216.907 194.05 217.199 194.944 217.199C196.197 217.199 197.09 216.46 197.09 215.104V214.863C196.472 215.395 195.613 215.687 194.497 215.687C192.247 215.687 190.341 213.901 190.341 211.462C190.341 209.075 192.247 207.306 194.497 207.306C195.613 207.306 196.472 207.598 197.09 208.13V207.564H199.787ZM195.081 213.438C196.18 213.438 197.09 212.613 197.09 211.462C197.09 210.312 196.18 209.504 195.081 209.504C193.879 209.504 193.02 210.312 193.02 211.462C193.02 212.613 193.879 213.438 195.081 213.438ZM207.186 207.306C209.195 207.306 210.535 208.732 210.535 210.896V216.186H207.804V211.48C207.804 210.466 207.203 209.779 206.327 209.779C205.245 209.779 204.541 210.518 204.541 212.184V216.186H201.793V207.564H204.541V208.388C205.193 207.701 206.104 207.306 207.186 207.306Z" fill="#A85CBB"/>
<path d="M94.0147 249.123L96.6941 248.573C96.8143 249.312 97.4841 249.587 98.2227 249.587C98.944 249.587 99.3391 249.278 99.3391 248.9C99.3391 248.608 99.1158 248.385 98.4803 248.264L96.7284 247.921C95.1311 247.629 94.2208 246.77 94.2208 245.413C94.2208 243.644 95.7494 242.493 97.9307 242.493C100.078 242.493 101.503 243.472 101.847 244.967L99.3391 245.465C99.2532 244.932 98.7379 244.451 97.8963 244.451C97.1578 244.451 96.9174 244.812 96.9174 245.121C96.9174 245.362 97.0204 245.602 97.57 245.722L99.5967 246.135C101.228 246.478 101.984 247.457 101.984 248.728C101.984 250.635 100.335 251.631 98.0681 251.631C96.0414 251.631 94.3067 250.892 94.0147 249.123ZM111.888 247.062V247.766H105.568C105.791 248.797 106.495 249.432 107.423 249.432C108.058 249.432 108.797 249.278 109.26 248.436L111.699 248.934C110.961 250.755 109.398 251.631 107.423 251.631C104.932 251.631 102.871 249.793 102.871 247.062C102.871 244.348 104.932 242.493 107.44 242.493C109.879 242.493 111.837 244.245 111.888 247.062ZM107.44 244.726C106.667 244.726 105.877 245.207 105.619 246.083H109.174C108.917 245.156 108.23 244.726 107.44 244.726ZM119.036 242.631C119.277 242.631 119.449 242.648 119.655 242.7L119.534 245.448H119.036C117.113 245.448 116.065 246.444 116.065 248.677V251.373H113.317V242.751H116.065V244.4C116.683 243.369 117.628 242.631 119.036 242.631ZM129.883 242.734L126.31 251.373H123.511L119.938 242.734H122.841L124.919 248.058L126.98 242.734H129.883ZM139.144 247.062V247.766H132.823C133.046 248.797 133.751 249.432 134.678 249.432C135.314 249.432 136.052 249.278 136.516 248.436L138.955 248.934C138.216 250.755 136.653 251.631 134.678 251.631C132.188 251.631 130.127 249.793 130.127 247.062C130.127 244.348 132.188 242.493 134.695 242.493C137.134 242.493 139.092 244.245 139.144 247.062ZM134.695 244.726C133.922 244.726 133.132 245.207 132.875 246.083H136.43C136.172 245.156 135.485 244.726 134.695 244.726ZM146.292 242.631C146.532 242.631 146.704 242.648 146.91 242.7L146.79 245.448H146.292C144.368 245.448 143.321 246.444 143.321 248.677V251.373H140.573V242.751H143.321V244.4C143.939 243.369 144.884 242.631 146.292 242.631ZM153.789 248.024H148.104V245.705H153.789V248.024ZM155.235 249.123L157.914 248.573C158.035 249.312 158.704 249.587 159.443 249.587C160.164 249.587 160.559 249.278 160.559 248.9C160.559 248.608 160.336 248.385 159.701 248.264L157.949 247.921C156.351 247.629 155.441 246.77 155.441 245.413C155.441 243.644 156.97 242.493 159.151 242.493C161.298 242.493 162.723 243.472 163.067 244.967L160.559 245.465C160.473 244.932 159.958 244.451 159.117 244.451C158.378 244.451 158.138 244.812 158.138 245.121C158.138 245.362 158.241 245.602 158.79 245.722L160.817 246.135C162.449 246.478 163.204 247.457 163.204 248.728C163.204 250.635 161.555 251.631 159.288 251.631C157.262 251.631 155.527 250.892 155.235 249.123ZM173.727 242.751V251.373H170.979V250.686C170.309 251.287 169.416 251.631 168.299 251.631C166.015 251.631 164.091 249.793 164.091 247.062C164.091 244.348 166.015 242.493 168.299 242.493C169.416 242.493 170.309 242.837 170.979 243.438V242.751H173.727ZM168.866 249.295C169.982 249.295 170.979 248.402 170.979 247.062C170.979 245.74 169.982 244.829 168.866 244.829C167.664 244.829 166.788 245.74 166.788 247.062C166.788 248.402 167.664 249.295 168.866 249.295ZM178.94 242.751H181.31V244.932H178.94V251.373H176.209V244.932H174.973V242.751H176.209V242.081C176.209 240.055 177.601 238.766 179.679 238.766C180.263 238.766 180.83 238.887 181.379 239.127L180.795 241.257C180.538 241.171 180.263 241.119 180.057 241.119C179.404 241.119 178.94 241.514 178.94 242.201V242.751ZM190.636 247.062V247.766H184.315C184.539 248.797 185.243 249.432 186.17 249.432C186.806 249.432 187.544 249.278 188.008 248.436L190.447 248.934C189.708 250.755 188.145 251.631 186.17 251.631C183.68 251.631 181.619 249.793 181.619 247.062C181.619 244.348 183.68 242.493 186.187 242.493C188.626 242.493 190.584 244.245 190.636 247.062ZM186.187 244.726C185.414 244.726 184.624 245.207 184.367 246.083H187.922C187.664 245.156 186.977 244.726 186.187 244.726ZM197.818 248.831L198.454 250.995C197.784 251.356 197.08 251.631 196.101 251.631C193.954 251.631 192.666 250.463 192.666 248.196V244.932H191.103V242.751H192.666V240.209H195.414V242.751H197.956V244.932H195.414V247.921C195.414 248.814 195.843 249.175 196.565 249.175C196.942 249.175 197.458 249.037 197.818 248.831ZM208.752 242.734L203.772 254.293H200.8L202.191 251.081L198.619 242.734H201.573L203.617 247.766L205.798 242.734H208.752Z" fill="#A85CBB"/>
<path d="M103.667 274.667V287.033H100.919V286.346C100.249 286.947 99.3562 287.291 98.2398 287.291C95.9555 287.291 94.0319 285.453 94.0319 282.722C94.0319 280.009 95.9555 278.154 98.2398 278.154C99.3562 278.154 100.249 278.497 100.919 279.098V274.667H103.667ZM98.8066 284.955C99.923 284.955 100.919 284.062 100.919 282.722C100.919 281.4 99.923 280.489 98.8066 280.489C97.6044 280.489 96.7284 281.4 96.7284 282.722C96.7284 284.062 97.6044 284.955 98.8066 284.955ZM114.102 282.722V283.426H107.782C108.005 284.457 108.709 285.092 109.637 285.092C110.272 285.092 111.011 284.938 111.474 284.096L113.913 284.594C113.175 286.415 111.612 287.291 109.637 287.291C107.146 287.291 105.085 285.453 105.085 282.722C105.085 280.009 107.146 278.154 109.654 278.154C112.093 278.154 114.051 279.905 114.102 282.722ZM109.654 280.386C108.881 280.386 108.091 280.867 107.833 281.743H111.388C111.131 280.816 110.444 280.386 109.654 280.386ZM124.298 278.394L120.725 287.033H117.926L114.353 278.394H117.256L119.334 283.718L121.395 278.394H124.298ZM133.558 282.722V283.426H127.238C127.461 284.457 128.165 285.092 129.093 285.092C129.728 285.092 130.467 284.938 130.931 284.096L133.369 284.594C132.631 286.415 131.068 287.291 129.093 287.291C126.602 287.291 124.541 285.453 124.541 282.722C124.541 280.009 126.602 278.154 129.11 278.154C131.549 278.154 133.507 279.905 133.558 282.722ZM129.11 280.386C128.337 280.386 127.547 280.867 127.289 281.743H130.845C130.587 280.816 129.9 280.386 129.11 280.386ZM137.735 287.033H134.987V274.667H137.735V287.033ZM143.942 278.188C146.501 278.188 148.665 280.009 148.665 282.722C148.665 285.453 146.501 287.274 143.942 287.274C141.331 287.274 139.167 285.453 139.167 282.722C139.167 280.009 141.331 278.188 143.942 278.188ZM143.942 284.955C145.007 284.955 146.02 284.079 146.02 282.722C146.02 281.383 145.007 280.489 143.942 280.489C142.825 280.489 141.812 281.383 141.812 282.722C141.812 284.079 142.825 284.955 143.942 284.955ZM155.51 278.154C157.794 278.154 159.718 280.009 159.718 282.722C159.718 285.453 157.794 287.291 155.51 287.291C154.394 287.291 153.501 286.947 152.831 286.346V289.953H150.083V278.411H152.831V279.098C153.501 278.497 154.394 278.154 155.51 278.154ZM154.943 284.955C156.146 284.955 157.021 284.062 157.021 282.722C157.021 281.4 156.146 280.489 154.943 280.489C153.827 280.489 152.831 281.4 152.831 282.722C152.831 284.062 153.827 284.955 154.943 284.955ZM172.3 278.154C174.137 278.154 175.597 279.545 175.597 281.64V287.033H172.867V282.224C172.867 281.245 172.231 280.627 171.424 280.627C170.41 280.627 169.741 281.365 169.741 282.808V287.033H166.993V282.224C166.993 281.245 166.357 280.627 165.533 280.627C164.537 280.627 163.884 281.365 163.884 282.808V287.033H161.136V278.411H163.884V279.201C164.468 278.549 165.309 278.154 166.426 278.154C167.628 278.154 168.659 278.669 169.243 279.614C169.93 278.72 170.96 278.154 172.3 278.154ZM185.923 282.722V283.426H179.602C179.825 284.457 180.53 285.092 181.457 285.092C182.093 285.092 182.831 284.938 183.295 284.096L185.734 284.594C184.995 286.415 183.432 287.291 181.457 287.291C178.967 287.291 176.906 285.453 176.906 282.722C176.906 280.009 178.967 278.154 181.474 278.154C183.913 278.154 185.871 279.905 185.923 282.722ZM181.474 280.386C180.701 280.386 179.911 280.867 179.654 281.743H183.209C182.951 280.816 182.264 280.386 181.474 280.386ZM192.745 278.154C194.754 278.154 196.094 279.579 196.094 281.743V287.033H193.363V282.327C193.363 281.314 192.762 280.627 191.886 280.627C190.804 280.627 190.1 281.365 190.1 283.031V287.033H187.352V278.411H190.1V279.236C190.752 278.549 191.663 278.154 192.745 278.154ZM203.722 284.491L204.358 286.655C203.688 287.016 202.984 287.291 202.005 287.291C199.858 287.291 198.57 286.123 198.57 283.856V280.592H197.007V278.411H198.57V275.869H201.318V278.411H203.86V280.592H201.318V283.581C201.318 284.474 201.747 284.835 202.469 284.835C202.846 284.835 203.362 284.697 203.722 284.491ZM210.85 283.684H205.165V281.365H210.85V283.684ZM218.29 278.154C220.282 278.154 221.622 279.579 221.622 281.743V287.033H218.891V282.327C218.891 281.314 218.29 280.627 217.397 280.627C216.332 280.627 215.628 281.365 215.628 283.031V287.033H212.88V274.667H215.628V279.236C216.297 278.549 217.191 278.154 218.29 278.154ZM231.964 282.722V283.426H225.643C225.866 284.457 226.571 285.092 227.498 285.092C228.134 285.092 228.872 284.938 229.336 284.096L231.775 284.594C231.036 286.415 229.473 287.291 227.498 287.291C225.008 287.291 222.947 285.453 222.947 282.722C222.947 280.009 225.008 278.154 227.515 278.154C229.954 278.154 231.912 279.905 231.964 282.722ZM227.515 280.386C226.742 280.386 225.952 280.867 225.695 281.743H229.25C228.992 280.816 228.305 280.386 227.515 280.386ZM236.141 287.033H233.392V274.667H236.141V287.033ZM243.567 278.154C245.851 278.154 247.774 280.009 247.774 282.722C247.774 285.453 245.851 287.291 243.567 287.291C242.45 287.291 241.557 286.947 240.887 286.346V289.953H238.139V278.411H240.887V279.098C241.557 278.497 242.45 278.154 243.567 278.154ZM243 284.955C244.202 284.955 245.078 284.062 245.078 282.722C245.078 281.4 244.202 280.489 243 280.489C241.883 280.489 240.887 281.4 240.887 282.722C240.887 284.062 241.883 284.955 243 284.955Z" fill="#A85CBB"/>
<path fill-rule="evenodd" clip-rule="evenodd" d="M63.588 184.063H57.8947C57.3922 184.063 56.9103 183.863 56.5549 183.508C56.1996 183.153 56 182.671 56 182.168V175.221C56 172.876 56.9316 170.627 58.5898 168.969C60.2479 167.31 62.4969 166.379 64.842 166.379C67.187 166.379 69.436 167.31 71.0942 168.969C71.8419 169.716 72.4418 170.584 72.8753 171.527C74.826 171.816 76.633 172.751 77.9995 174.194C79.5542 175.837 80.4207 178.012 80.4207 180.273V187.221C80.4207 187.723 80.2212 188.205 79.8657 188.56C79.5104 188.916 79.0285 189.115 78.5261 189.115H71.5787C69.7501 189.115 67.9665 188.549 66.4732 187.493C65.2288 186.614 64.2371 185.43 63.588 184.063ZM66.4211 183.921C66.8329 184.503 67.3425 185.014 67.9314 185.43C68.9981 186.184 70.2725 186.589 71.5787 186.589H77.8944V180.273C77.8944 178.658 77.2754 177.104 76.165 175.931C75.4596 175.186 74.59 174.631 73.6361 174.302C73.6679 174.606 73.684 174.913 73.684 175.221C73.684 177.566 72.7524 179.815 71.0942 181.473C69.8132 182.754 68.1793 183.602 66.4211 183.921Z" fill="#C068D6"/>
<path fill-rule="evenodd" clip-rule="evenodd" d="M63.588 217.875H57.8947C57.3922 217.875 56.9103 217.676 56.5549 217.32C56.1996 216.965 56 216.483 56 215.981V209.033C56 206.688 56.9316 204.439 58.5898 202.781C60.2479 201.123 62.4969 200.191 64.842 200.191C67.187 200.191 69.436 201.123 71.0942 202.781C71.8419 203.529 72.4418 204.397 72.8753 205.339C74.826 205.629 76.633 206.563 77.9995 208.007C79.5542 209.649 80.4207 211.824 80.4207 214.086V221.033C80.4207 221.536 80.2212 222.018 79.8657 222.373C79.5104 222.728 79.0285 222.928 78.5261 222.928H71.5787C69.7501 222.928 67.9665 222.361 66.4732 221.306C65.2288 220.426 64.2371 219.243 63.588 217.875ZM66.4211 217.733C66.8329 218.315 67.3425 218.826 67.9314 219.243C68.9981 219.997 70.2725 220.402 71.5787 220.402H77.8944V214.086C77.8944 212.471 77.2754 210.917 76.165 209.744C75.4596 208.999 74.59 208.443 73.6361 208.115C73.6679 208.418 73.684 208.725 73.684 209.033C73.684 211.378 72.7524 213.627 71.0942 215.286C69.8132 216.567 68.1793 217.414 66.4211 217.733Z" fill="#C068D6"/>
<path fill-rule="evenodd" clip-rule="evenodd" d="M63.588 252.159H57.8947C57.3922 252.159 56.9103 251.959 56.5549 251.604C56.1996 251.248 56 250.766 56 250.264V243.317C56 240.972 56.9316 238.723 58.5898 237.064C60.2479 235.406 62.4969 234.475 64.842 234.475C67.187 234.475 69.436 235.406 71.0942 237.064C71.8419 237.812 72.4418 238.68 72.8753 239.623C74.826 239.912 76.633 240.847 77.9995 242.29C79.5542 243.932 80.4207 246.108 80.4207 248.369V255.316C80.4207 255.819 80.2212 256.301 79.8657 256.656C79.5104 257.011 79.0285 257.211 78.5261 257.211H71.5787C69.7501 257.211 67.9665 256.644 66.4732 255.589C65.2288 254.709 64.2371 253.526 63.588 252.159ZM66.4211 252.016C66.8329 252.598 67.3425 253.11 67.9314 253.526C68.9981 254.28 70.2725 254.685 71.5787 254.685H77.8944V248.369C77.8944 246.754 77.2754 245.2 76.165 244.027C75.4596 243.282 74.59 242.727 73.6361 242.398C73.6679 242.702 73.684 243.008 73.684 243.317C73.684 245.662 72.7524 247.911 71.0942 249.569C69.8132 250.85 68.1793 251.697 66.4211 252.016Z" fill="#C068D6"/>
<path fill-rule="evenodd" clip-rule="evenodd" d="M63.588 287.819H57.8947C57.3922 287.819 56.9103 287.619 56.5549 287.264C56.1996 286.908 56 286.427 56 285.924V278.977C56 276.632 56.9316 274.383 58.5898 272.725C60.2479 271.066 62.4969 270.135 64.842 270.135C67.187 270.135 69.436 271.066 71.0942 272.725C71.8419 273.472 72.4418 274.34 72.8753 275.283C74.826 275.572 76.633 276.507 77.9995 277.95C79.5542 279.592 80.4207 281.768 80.4207 284.029V290.977C80.4207 291.479 80.2212 291.961 79.8657 292.316C79.5104 292.672 79.0285 292.871 78.5261 292.871H71.5787C69.7501 292.871 67.9665 292.304 66.4732 291.249C65.2288 290.369 64.2371 289.186 63.588 287.819ZM66.4211 287.677C66.8329 288.258 67.3425 288.77 67.9314 289.186C68.9981 289.94 70.2725 290.345 71.5787 290.345H77.8944V284.029C77.8944 282.414 77.2754 280.86 76.165 279.687C75.4596 278.942 74.59 278.387 73.6361 278.058C73.6679 278.362 73.684 278.668 73.684 278.977C73.684 281.322 72.7524 283.571 71.0942 285.229C69.8132 286.51 68.1793 287.357 66.4211 287.677Z" fill="#C068D6"/>
<path d="M22.1045 61.7685C22.1045 51.7341 30.239 43.5996 40.2734 43.5996L162.59 43.5996C172.624 43.5996 180.759 51.7341 180.759 61.7685V71.4833C180.759 81.5177 172.624 89.6522 162.59 89.6522H40.2734C30.239 89.6522 22.1045 81.5177 22.1045 71.4833V61.7685Z" fill="white"/>
<rect x="0.256836" y="66.627" width="204.063" height="63.7975" rx="18.1689" fill="#F8DEFF"/>
<path d="M47.6821 93.3513C48.0778 92.9448 48.0785 92.2815 47.6837 91.8743L46.3832 90.5327C45.9929 90.1303 45.3629 90.1296 44.9719 90.5313L34.8601 100.92C34.4696 101.321 33.8408 101.321 33.4504 100.92L23.3385 90.5313C22.9474 90.1296 22.3175 90.1303 21.9273 90.5327L20.6267 91.8743C20.2319 92.2815 20.2325 92.9448 20.6283 93.3513L33.4504 106.519C33.841 106.92 34.4695 106.92 34.8599 106.519L47.6821 93.3513Z" fill="#A85CBB"/>
<path d="M66.9303 93.2152C70.2532 93.2152 72.4877 95.5928 72.4877 99.2023V108.025H67.9329V100.176C67.9329 98.4861 66.9303 97.3403 65.4406 97.3403C63.6646 97.3403 62.49 98.5721 62.49 101.351V108.025H57.9066V87.3999H62.49V95.0199C63.6073 93.874 65.0969 93.2152 66.9303 93.2152ZM89.7369 100.835V102.01H79.195C79.5674 103.728 80.7419 104.788 82.2888 104.788C83.3487 104.788 84.5805 104.531 85.354 103.127L89.4218 103.958C88.19 106.994 85.5831 108.455 82.2888 108.455C78.1351 108.455 74.6975 105.39 74.6975 100.835C74.6975 96.309 78.1351 93.2152 82.3174 93.2152C86.3852 93.2152 89.6509 96.1371 89.7369 100.835ZM82.3174 96.9392C81.0283 96.9392 79.7106 97.7413 79.2809 99.2023H85.2107C84.781 97.6554 83.6352 96.9392 82.3174 96.9392ZM96.7036 108.025H92.1201V87.3999H96.7036V108.025ZM109.089 93.2152C112.899 93.2152 116.108 96.309 116.108 100.835C116.108 105.39 112.899 108.455 109.089 108.455C107.227 108.455 105.738 107.882 104.621 106.88V112.895H100.037V93.6449H104.621V94.7907C105.738 93.7881 107.227 93.2152 109.089 93.2152ZM108.144 104.559C110.149 104.559 111.61 103.07 111.61 100.835C111.61 98.6293 110.149 97.1111 108.144 97.1111C106.282 97.1111 104.621 98.6293 104.621 100.835C104.621 103.07 106.282 104.559 108.144 104.559ZM133.598 87.3999V108.025H129.015V106.88C127.897 107.882 126.408 108.455 124.546 108.455C120.736 108.455 117.527 105.39 117.527 100.835C117.527 96.309 120.736 93.2152 124.546 93.2152C126.408 93.2152 127.897 93.7881 129.015 94.7907V87.3999H133.598ZM125.491 104.559C127.353 104.559 129.015 103.07 129.015 100.835C129.015 98.6293 127.353 97.1111 125.491 97.1111C123.486 97.1111 122.025 98.6293 122.025 100.835C122.025 103.07 123.486 104.559 125.491 104.559ZM151.002 100.835V102.01H140.46C140.833 103.728 142.007 104.788 143.554 104.788C144.614 104.788 145.846 104.531 146.619 103.127L150.687 103.958C149.455 106.994 146.849 108.455 143.554 108.455C139.4 108.455 135.963 105.39 135.963 100.835C135.963 96.309 139.4 93.2152 143.583 93.2152C147.651 93.2152 150.916 96.1371 151.002 100.835ZM143.583 96.9392C142.294 96.9392 140.976 97.7413 140.546 99.2023H146.476C146.046 97.6554 144.901 96.9392 143.583 96.9392ZM152.412 104.273L156.88 103.356C157.081 104.588 158.198 105.046 159.43 105.046C160.633 105.046 161.292 104.531 161.292 103.9C161.292 103.413 160.92 103.041 159.86 102.84L156.938 102.267C154.274 101.78 152.755 100.348 152.755 98.0851C152.755 95.1345 155.305 93.2152 158.943 93.2152C162.524 93.2152 164.901 94.848 165.474 97.3403L161.292 98.171C161.149 97.283 160.289 96.4809 158.886 96.4809C157.654 96.4809 157.253 97.0824 157.253 97.5981C157.253 97.9991 157.425 98.4002 158.341 98.6007L161.722 99.2882C164.443 99.8611 165.704 101.494 165.704 103.614C165.704 106.794 162.953 108.455 159.172 108.455C155.792 108.455 152.899 107.223 152.412 104.273ZM184.084 108.025H178.212L173.543 102.84H172.712V108.025H168.128V87.3999H172.712V98.5434H173.342L177.897 93.6449H183.426L177.123 100.491L184.084 108.025Z" fill="#A85CBB"/>
</svg>
