<svg width="342" height="286" viewBox="0 0 342 286" fill="none" xmlns="http://www.w3.org/2000/svg">
<rect x="22.8438" y="70" width="319" height="216" rx="18.1689" fill="white"/>
<rect x="22.6895" width="266.869" height="46.0526" rx="18.1689" fill="white"/>
<path d="M98.9328 121.996C97.3781 121.996 96.3417 120.873 96.3417 119.276C96.3417 117.699 97.3781 116.555 98.9328 116.555C100.034 116.555 100.919 117.159 101.222 118.477L104.46 117.699C103.856 115.151 101.567 113.532 98.9328 113.532C95.6939 113.532 93.0164 115.864 93.0164 119.276C93.0164 122.709 95.6939 125.019 98.9328 125.019C101.632 125.019 103.921 123.357 104.46 120.787L101.286 120.096C100.919 121.413 100.034 121.996 98.9328 121.996ZM111.545 113.575C108.262 113.575 105.542 115.864 105.542 119.276C105.542 122.709 108.262 124.998 111.545 124.998C114.762 124.998 117.483 122.709 117.483 119.276C117.483 115.864 114.762 113.575 111.545 113.575ZM111.545 122.083C110.141 122.083 108.867 120.981 108.867 119.276C108.867 117.591 110.141 116.469 111.545 116.469C112.883 116.469 114.157 117.591 114.157 119.276C114.157 120.981 112.883 122.083 111.545 122.083ZM133.3 113.532C131.616 113.532 130.32 114.244 129.457 115.367C128.722 114.18 127.427 113.532 125.915 113.532C124.512 113.532 123.454 114.029 122.72 114.849V113.856H119.265V124.695H122.72V119.384C122.72 117.57 123.54 116.641 124.793 116.641C125.829 116.641 126.628 117.419 126.628 118.649V124.695H130.083V119.384C130.083 117.57 130.925 116.641 132.199 116.641C133.214 116.641 134.013 117.419 134.013 118.649V124.695H137.446V117.915C137.446 115.281 135.61 113.532 133.3 113.532ZM153.838 113.532C152.154 113.532 150.859 114.244 149.995 115.367C149.261 114.18 147.965 113.532 146.454 113.532C145.05 113.532 143.992 114.029 143.258 114.849V113.856H139.803V124.695H143.258V119.384C143.258 117.57 144.079 116.641 145.331 116.641C146.367 116.641 147.166 117.419 147.166 118.649V124.695H150.621V119.384C150.621 117.57 151.463 116.641 152.737 116.641C153.752 116.641 154.551 117.419 154.551 118.649V124.695H157.984V117.915C157.984 115.281 156.149 113.532 153.838 113.532ZM171.097 113.856H167.642V118.887C167.642 120.981 166.757 121.91 165.396 121.91C164.295 121.91 163.539 121.046 163.539 119.772V113.856H160.106V120.506C160.106 123.227 161.79 125.019 164.317 125.019C165.677 125.019 166.821 124.523 167.642 123.659V124.695H171.097V113.856ZM180.385 113.532C179.025 113.532 177.88 114.029 177.06 114.892V113.856H173.605V124.695H177.06V119.664C177.06 117.57 177.945 116.641 179.305 116.641C180.407 116.641 181.162 117.505 181.162 118.779V124.695H184.596V118.045C184.596 115.324 182.911 113.532 180.385 113.532ZM188.853 108.695C187.687 108.695 186.866 109.602 186.866 110.66C186.866 111.761 187.687 112.582 188.853 112.582C190.019 112.582 190.861 111.761 190.861 110.66C190.861 109.602 190.019 108.695 188.853 108.695ZM190.58 124.695V113.856H187.126V124.695H190.58ZM200.491 121.5C200.038 121.759 199.39 121.931 198.915 121.931C198.008 121.931 197.468 121.478 197.468 120.355V116.598H200.664V113.856H197.468V110.66H194.013V113.856H192.048V116.598H194.013V120.701C194.013 123.551 195.633 125.019 198.332 125.019C199.563 125.019 200.448 124.674 201.29 124.22L200.491 121.5ZM214.238 113.834H210.524L207.781 120.161L205.212 113.834H201.498L205.989 124.328L204.24 128.366H207.976L214.238 113.834ZM222.399 120.485V117.57H215.252V120.485H222.399ZM224.217 121.867C224.584 124.091 226.765 125.019 229.313 125.019C232.163 125.019 234.236 123.767 234.236 121.37C234.236 119.772 233.286 118.541 231.234 118.11L228.686 117.591C227.995 117.44 227.866 117.138 227.866 116.836C227.866 116.447 228.168 115.993 229.097 115.993C230.155 115.993 230.802 116.598 230.91 117.267L234.063 116.641C233.631 114.763 231.839 113.532 229.14 113.532C226.398 113.532 224.476 114.979 224.476 117.203C224.476 118.908 225.62 119.988 227.628 120.355L229.831 120.787C230.63 120.938 230.91 121.219 230.91 121.586C230.91 122.061 230.414 122.45 229.507 122.45C228.578 122.45 227.736 122.104 227.585 121.176L224.217 121.867ZM246.687 119.276C246.622 115.734 244.161 113.532 241.095 113.532C237.942 113.532 235.351 115.864 235.351 119.276C235.351 122.709 237.942 125.019 241.073 125.019C243.556 125.019 245.521 123.918 246.45 121.629L243.383 121.003C242.8 122.061 241.872 122.255 241.073 122.255C239.907 122.255 239.022 121.456 238.741 120.161H246.687V119.276ZM241.095 116.339C242.088 116.339 242.952 116.879 243.275 118.045H238.806C239.13 116.944 240.123 116.339 241.095 116.339ZM255.717 121.5C255.264 121.759 254.616 121.931 254.141 121.931C253.234 121.931 252.694 121.478 252.694 120.355V116.598H255.89V113.856H252.694V110.66H249.239V113.856H247.274V116.598H249.239V120.701C249.239 123.551 250.859 125.019 253.558 125.019C254.789 125.019 255.674 124.674 256.516 124.22L255.717 121.5ZM268.454 113.856H264.999V118.887C264.999 120.981 264.113 121.91 262.753 121.91C261.652 121.91 260.896 121.046 260.896 119.772V113.856H257.463V120.506C257.463 123.227 259.147 125.019 261.673 125.019C263.034 125.019 264.178 124.523 264.999 123.659V124.695H268.454V113.856ZM277.785 113.532C276.382 113.532 275.259 113.964 274.417 114.719V113.856H270.962V128.366H274.417V123.832C275.259 124.587 276.382 125.019 277.785 125.019C280.657 125.019 283.075 122.709 283.075 119.276C283.075 115.864 280.657 113.532 277.785 113.532ZM277.073 122.083C275.669 122.083 274.417 120.96 274.417 119.276C274.417 117.613 275.669 116.469 277.073 116.469C278.584 116.469 279.685 117.613 279.685 119.276C279.685 120.96 278.584 122.083 277.073 122.083Z" fill="#812997"/>
<path d="M98.9328 166.231C97.3781 166.231 96.3417 165.108 96.3417 163.51C96.3417 161.934 97.3781 160.789 98.9328 160.789C100.034 160.789 100.919 161.394 101.222 162.711L104.46 161.934C103.856 159.386 101.567 157.766 98.9328 157.766C95.6939 157.766 93.0164 160.098 93.0164 163.51C93.0164 166.943 95.6939 169.254 98.9328 169.254C101.632 169.254 103.921 167.591 104.46 165.021L101.286 164.33C100.919 165.648 100.034 166.231 98.9328 166.231ZM111.545 157.809C108.262 157.809 105.542 160.098 105.542 163.51C105.542 166.943 108.262 169.232 111.545 169.232C114.762 169.232 117.483 166.943 117.483 163.51C117.483 160.098 114.762 157.809 111.545 157.809ZM111.545 166.317C110.141 166.317 108.867 165.216 108.867 163.51C108.867 161.826 110.141 160.703 111.545 160.703C112.883 160.703 114.157 161.826 114.157 163.51C114.157 165.216 112.883 166.317 111.545 166.317ZM133.3 157.766C131.616 157.766 130.32 158.479 129.457 159.602C128.722 158.414 127.427 157.766 125.915 157.766C124.512 157.766 123.454 158.263 122.72 159.083V158.09H119.265V168.93H122.72V163.618C122.72 161.804 123.54 160.876 124.793 160.876C125.829 160.876 126.628 161.653 126.628 162.884V168.93H130.083V163.618C130.083 161.804 130.925 160.876 132.199 160.876C133.214 160.876 134.013 161.653 134.013 162.884V168.93H137.446V162.15C137.446 159.515 135.61 157.766 133.3 157.766ZM153.838 157.766C152.154 157.766 150.859 158.479 149.995 159.602C149.261 158.414 147.965 157.766 146.454 157.766C145.05 157.766 143.992 158.263 143.258 159.083V158.09H139.803V168.93H143.258V163.618C143.258 161.804 144.079 160.876 145.331 160.876C146.367 160.876 147.166 161.653 147.166 162.884V168.93H150.621V163.618C150.621 161.804 151.463 160.876 152.737 160.876C153.752 160.876 154.551 161.653 154.551 162.884V168.93H157.984V162.15C157.984 159.515 156.149 157.766 153.838 157.766ZM171.097 158.09H167.642V163.121C167.642 165.216 166.757 166.144 165.396 166.144C164.295 166.144 163.539 165.281 163.539 164.007V158.09H160.106V164.741C160.106 167.461 161.79 169.254 164.317 169.254C165.677 169.254 166.821 168.757 167.642 167.893V168.93H171.097V158.09ZM180.385 157.766C179.025 157.766 177.88 158.263 177.06 159.127V158.09H173.605V168.93H177.06V163.899C177.06 161.804 177.945 160.876 179.305 160.876C180.407 160.876 181.162 161.739 181.162 163.013V168.93H184.596V162.279C184.596 159.558 182.911 157.766 180.385 157.766ZM188.853 152.93C187.687 152.93 186.866 153.836 186.866 154.894C186.866 155.996 187.687 156.816 188.853 156.816C190.019 156.816 190.861 155.996 190.861 154.894C190.861 153.836 190.019 152.93 188.853 152.93ZM190.58 168.93V158.09H187.126V168.93H190.58ZM200.491 165.734C200.038 165.993 199.39 166.166 198.915 166.166C198.008 166.166 197.468 165.712 197.468 164.59V160.832H200.664V158.09H197.468V154.894H194.013V158.09H192.048V160.832H194.013V164.935C194.013 167.785 195.633 169.254 198.332 169.254C199.563 169.254 200.448 168.908 201.29 168.455L200.491 165.734ZM214.238 158.069H210.524L207.781 164.395L205.212 158.069H201.498L205.989 168.563L204.24 172.6H207.976L214.238 158.069ZM222.399 164.719V161.804H215.252V164.719H222.399ZM236.731 153.383H233.277V158.954C232.434 158.198 231.312 157.766 229.908 157.766C227.036 157.766 224.618 160.098 224.618 163.51C224.618 166.943 227.036 169.254 229.908 169.254C231.312 169.254 232.434 168.822 233.277 168.066V168.93H236.731V153.383ZM230.621 166.317C229.109 166.317 228.008 165.194 228.008 163.51C228.008 161.847 229.109 160.703 230.621 160.703C232.024 160.703 233.277 161.847 233.277 163.51C233.277 165.194 232.024 166.317 230.621 166.317ZM249.85 163.51C249.785 159.969 247.324 157.766 244.258 157.766C241.105 157.766 238.514 160.098 238.514 163.51C238.514 166.943 241.105 169.254 244.236 169.254C246.719 169.254 248.684 168.152 249.613 165.864L246.546 165.237C245.963 166.295 245.035 166.49 244.236 166.49C243.07 166.49 242.185 165.691 241.904 164.395H249.85V163.51ZM244.258 160.573C245.251 160.573 246.115 161.113 246.438 162.279H241.969C242.293 161.178 243.286 160.573 244.258 160.573ZM250.912 166.101C251.279 168.325 253.46 169.254 256.008 169.254C258.858 169.254 260.931 168.001 260.931 165.604C260.931 164.007 259.981 162.776 257.93 162.344L255.382 161.826C254.691 161.675 254.561 161.372 254.561 161.07C254.561 160.681 254.864 160.228 255.792 160.228C256.85 160.228 257.498 160.832 257.606 161.502L260.759 160.876C260.327 158.997 258.535 157.766 255.835 157.766C253.093 157.766 251.171 159.213 251.171 161.437C251.171 163.143 252.316 164.222 254.324 164.59L256.526 165.021C257.325 165.173 257.606 165.453 257.606 165.82C257.606 166.295 257.109 166.684 256.203 166.684C255.274 166.684 254.432 166.339 254.281 165.41L250.912 166.101ZM264.659 152.93C263.493 152.93 262.673 153.836 262.673 154.894C262.673 155.996 263.493 156.816 264.659 156.816C265.825 156.816 266.667 155.996 266.667 154.894C266.667 153.836 265.825 152.93 264.659 152.93ZM266.387 168.93V158.09H262.932V168.93H266.387ZM280.227 158.09H276.837V158.803C276.06 158.133 274.98 157.766 273.577 157.766C270.748 157.766 268.351 159.99 268.351 162.992C268.351 166.058 270.748 168.303 273.577 168.303C274.98 168.303 276.06 167.936 276.837 167.267V167.569C276.837 169.275 275.715 170.204 274.138 170.204C273.015 170.204 272.411 169.837 271.59 168.865L268.719 170.42C269.777 172.169 271.677 173.032 274.16 173.032C277.679 173.032 280.227 171.197 280.227 167.85V158.09ZM274.311 165.475C272.8 165.475 271.72 164.438 271.72 162.992C271.72 161.545 272.8 160.53 274.311 160.53C275.693 160.53 276.837 161.545 276.837 162.992C276.837 164.438 275.693 165.475 274.311 165.475ZM289.529 157.766C288.169 157.766 287.025 158.263 286.204 159.127V158.09H282.749V168.93H286.204V163.899C286.204 161.804 287.089 160.876 288.45 160.876C289.551 160.876 290.307 161.739 290.307 163.013V168.93H293.74V162.279C293.74 159.558 292.056 157.766 289.529 157.766Z" fill="#812997"/>
<path d="M98.9328 210.469C97.3781 210.469 96.3417 209.346 96.3417 207.748C96.3417 206.172 97.3781 205.028 98.9328 205.028C100.034 205.028 100.919 205.632 101.222 206.949L104.46 206.172C103.856 203.624 101.567 202.005 98.9328 202.005C95.6939 202.005 93.0164 204.337 93.0164 207.748C93.0164 211.181 95.6939 213.492 98.9328 213.492C101.632 213.492 103.921 211.829 104.46 209.26L101.286 208.569C100.919 209.886 100.034 210.469 98.9328 210.469ZM111.545 202.048C108.262 202.048 105.542 204.337 105.542 207.748C105.542 211.181 108.262 213.47 111.545 213.47C114.762 213.47 117.483 211.181 117.483 207.748C117.483 204.337 114.762 202.048 111.545 202.048ZM111.545 210.555C110.141 210.555 108.867 209.454 108.867 207.748C108.867 206.064 110.141 204.941 111.545 204.941C112.883 204.941 114.157 206.064 114.157 207.748C114.157 209.454 112.883 210.555 111.545 210.555ZM133.3 202.005C131.616 202.005 130.32 202.717 129.457 203.84C128.722 202.652 127.427 202.005 125.915 202.005C124.512 202.005 123.454 202.501 122.72 203.322V202.328H119.265V213.168H122.72V207.856C122.72 206.042 123.54 205.114 124.793 205.114C125.829 205.114 126.628 205.891 126.628 207.122V213.168H130.083V207.856C130.083 206.042 130.925 205.114 132.199 205.114C133.214 205.114 134.013 205.891 134.013 207.122V213.168H137.446V206.388C137.446 203.754 135.61 202.005 133.3 202.005ZM153.838 202.005C152.154 202.005 150.859 202.717 149.995 203.84C149.261 202.652 147.965 202.005 146.454 202.005C145.05 202.005 143.992 202.501 143.258 203.322V202.328H139.803V213.168H143.258V207.856C143.258 206.042 144.079 205.114 145.331 205.114C146.367 205.114 147.166 205.891 147.166 207.122V213.168H150.621V207.856C150.621 206.042 151.463 205.114 152.737 205.114C153.752 205.114 154.551 205.891 154.551 207.122V213.168H157.984V206.388C157.984 203.754 156.149 202.005 153.838 202.005ZM171.097 202.328H167.642V207.36C167.642 209.454 166.757 210.383 165.396 210.383C164.295 210.383 163.539 209.519 163.539 208.245V202.328H160.106V208.979C160.106 211.7 161.79 213.492 164.317 213.492C165.677 213.492 166.821 212.995 167.642 212.132V213.168H171.097V202.328ZM180.385 202.005C179.025 202.005 177.88 202.501 177.06 203.365V202.328H173.605V213.168H177.06V208.137C177.06 206.042 177.945 205.114 179.305 205.114C180.407 205.114 181.162 205.978 181.162 207.252V213.168H184.596V206.517C184.596 203.797 182.911 202.005 180.385 202.005ZM188.853 197.168C187.687 197.168 186.866 198.075 186.866 199.133C186.866 200.234 187.687 201.054 188.853 201.054C190.019 201.054 190.861 200.234 190.861 199.133C190.861 198.075 190.019 197.168 188.853 197.168ZM190.58 213.168V202.328H187.126V213.168H190.58ZM200.491 209.972C200.038 210.231 199.39 210.404 198.915 210.404C198.008 210.404 197.468 209.951 197.468 208.828V205.071H200.664V202.328H197.468V199.133H194.013V202.328H192.048V205.071H194.013V209.173C194.013 212.024 195.633 213.492 198.332 213.492C199.563 213.492 200.448 213.146 201.29 212.693L200.491 209.972ZM214.238 202.307H210.524L207.781 208.634L205.212 202.307H201.498L205.989 212.801L204.24 216.839H207.976L214.238 202.307ZM222.399 208.957V206.042H215.252V208.957H222.399ZM229.01 202.328V201.637C229.01 200.774 229.593 200.277 230.414 200.277C230.673 200.277 231.018 200.342 231.342 200.45L232.076 197.772C231.385 197.47 230.673 197.319 229.939 197.319C227.326 197.319 225.577 198.938 225.577 201.486V202.328H224.022V205.071H225.577V213.168H229.01V205.071H231.99V202.328H229.01ZM243.714 207.748C243.649 204.207 241.188 202.005 238.121 202.005C234.969 202.005 232.378 204.337 232.378 207.748C232.378 211.181 234.969 213.492 238.1 213.492C240.583 213.492 242.548 212.391 243.476 210.102L240.41 209.476C239.827 210.534 238.899 210.728 238.1 210.728C236.934 210.728 236.048 209.929 235.768 208.634H243.714V207.748ZM238.121 204.812C239.115 204.812 239.978 205.351 240.302 206.517H235.833C236.156 205.416 237.15 204.812 238.121 204.812ZM256.134 207.748C256.069 204.207 253.608 202.005 250.541 202.005C247.389 202.005 244.798 204.337 244.798 207.748C244.798 211.181 247.389 213.492 250.52 213.492C253.003 213.492 254.968 212.391 255.896 210.102L252.83 209.476C252.247 210.534 251.319 210.728 250.52 210.728C249.354 210.728 248.468 209.929 248.188 208.634H256.134V207.748ZM250.541 204.812C251.535 204.812 252.398 205.351 252.722 206.517H248.253C248.576 205.416 249.57 204.812 250.541 204.812ZM269.331 197.621H265.876V203.192C265.034 202.436 263.911 202.005 262.508 202.005C259.636 202.005 257.218 204.337 257.218 207.748C257.218 211.181 259.636 213.492 262.508 213.492C263.911 213.492 265.034 213.06 265.876 212.304V213.168H269.331V197.621ZM263.22 210.555C261.709 210.555 260.608 209.432 260.608 207.748C260.608 206.086 261.709 204.941 263.22 204.941C264.624 204.941 265.876 206.086 265.876 207.748C265.876 209.432 264.624 210.555 263.22 210.555ZM278.65 202.005C277.246 202.005 276.123 202.436 275.281 203.192V197.621H271.826V213.168H275.281V212.304C276.123 213.06 277.246 213.492 278.65 213.492C281.521 213.492 283.94 211.181 283.94 207.748C283.94 204.337 281.521 202.005 278.65 202.005ZM277.937 210.555C276.534 210.555 275.281 209.432 275.281 207.748C275.281 206.086 276.534 204.941 277.937 204.941C279.449 204.941 280.55 206.086 280.55 207.748C280.55 209.432 279.449 210.555 277.937 210.555ZM297.123 202.328H293.669V203.192C292.826 202.436 291.704 202.005 290.3 202.005C287.428 202.005 285.01 204.337 285.01 207.748C285.01 211.181 287.428 213.492 290.3 213.492C291.704 213.492 292.826 213.06 293.669 212.304V213.168H297.123V202.328ZM291.013 210.555C289.501 210.555 288.4 209.432 288.4 207.748C288.4 206.086 289.501 204.941 291.013 204.941C292.416 204.941 293.669 206.086 293.669 207.748C293.669 209.432 292.416 210.555 291.013 210.555ZM304.822 210.469C303.268 210.469 302.231 209.346 302.231 207.748C302.231 206.172 303.268 205.028 304.822 205.028C305.924 205.028 306.809 205.632 307.111 206.949L310.35 206.172C309.745 203.624 307.457 202.005 304.822 202.005C301.583 202.005 298.906 204.337 298.906 207.748C298.906 211.181 301.583 213.492 304.822 213.492C307.521 213.492 309.81 211.829 310.35 209.26L307.176 208.569C306.809 209.886 305.924 210.469 304.822 210.469ZM324.171 213.168L318.924 207.489L323.674 202.328H319.507L316.074 206.021H315.599V197.621H312.144V213.168H315.599V209.26H316.225L319.745 213.168H324.171Z" fill="#812997"/>
<path d="M98.9328 255.301C97.3781 255.301 96.3417 254.178 96.3417 252.58C96.3417 251.004 97.3781 249.86 98.9328 249.86C100.034 249.86 100.919 250.464 101.222 251.781L104.46 251.004C103.856 248.456 101.567 246.837 98.9328 246.837C95.6939 246.837 93.0164 249.169 93.0164 252.58C93.0164 256.013 95.6939 258.324 98.9328 258.324C101.632 258.324 103.921 256.661 104.46 254.092L101.286 253.401C100.919 254.718 100.034 255.301 98.9328 255.301ZM111.545 246.88C108.262 246.88 105.542 249.169 105.542 252.58C105.542 256.013 108.262 258.302 111.545 258.302C114.762 258.302 117.483 256.013 117.483 252.58C117.483 249.169 114.762 246.88 111.545 246.88ZM111.545 255.387C110.141 255.387 108.867 254.286 108.867 252.58C108.867 250.896 110.141 249.773 111.545 249.773C112.883 249.773 114.157 250.896 114.157 252.58C114.157 254.286 112.883 255.387 111.545 255.387ZM133.3 246.837C131.616 246.837 130.32 247.549 129.457 248.672C128.722 247.484 127.427 246.837 125.915 246.837C124.512 246.837 123.454 247.333 122.72 248.154V247.16H119.265V258H122.72V252.688C122.72 250.874 123.54 249.946 124.793 249.946C125.829 249.946 126.628 250.723 126.628 251.954V258H130.083V252.688C130.083 250.874 130.925 249.946 132.199 249.946C133.214 249.946 134.013 250.723 134.013 251.954V258H137.446V251.22C137.446 248.586 135.61 246.837 133.3 246.837ZM153.838 246.837C152.154 246.837 150.859 247.549 149.995 248.672C149.261 247.484 147.965 246.837 146.454 246.837C145.05 246.837 143.992 247.333 143.258 248.154V247.16H139.803V258H143.258V252.688C143.258 250.874 144.079 249.946 145.331 249.946C146.367 249.946 147.166 250.723 147.166 251.954V258H150.621V252.688C150.621 250.874 151.463 249.946 152.737 249.946C153.752 249.946 154.551 250.723 154.551 251.954V258H157.984V251.22C157.984 248.586 156.149 246.837 153.838 246.837ZM171.097 247.16H167.642V252.192C167.642 254.286 166.757 255.215 165.396 255.215C164.295 255.215 163.539 254.351 163.539 253.077V247.16H160.106V253.811C160.106 256.532 161.79 258.324 164.317 258.324C165.677 258.324 166.821 257.827 167.642 256.964V258H171.097V247.16ZM180.385 246.837C179.025 246.837 177.88 247.333 177.06 248.197V247.16H173.605V258H177.06V252.969C177.06 250.874 177.945 249.946 179.305 249.946C180.407 249.946 181.162 250.81 181.162 252.084V258H184.596V251.349C184.596 248.629 182.911 246.837 180.385 246.837ZM188.853 242C187.687 242 186.866 242.907 186.866 243.965C186.866 245.066 187.687 245.887 188.853 245.887C190.019 245.887 190.861 245.066 190.861 243.965C190.861 242.907 190.019 242 188.853 242ZM190.58 258V247.16H187.126V258H190.58ZM200.491 254.804C200.038 255.063 199.39 255.236 198.915 255.236C198.008 255.236 197.468 254.783 197.468 253.66V249.903H200.664V247.16H197.468V243.965H194.013V247.16H192.048V249.903H194.013V254.005C194.013 256.856 195.633 258.324 198.332 258.324C199.563 258.324 200.448 257.978 201.29 257.525L200.491 254.804ZM214.238 247.139H210.524L207.781 253.466L205.212 247.139H201.498L205.989 257.633L204.24 261.671H207.976L214.238 247.139ZM222.399 253.789V250.874H215.252V253.789H222.399ZM224.217 255.171C224.584 257.395 226.765 258.324 229.313 258.324C232.163 258.324 234.236 257.072 234.236 254.675C234.236 253.077 233.286 251.846 231.234 251.414L228.686 250.896C227.995 250.745 227.866 250.443 227.866 250.14C227.866 249.752 228.168 249.298 229.097 249.298C230.155 249.298 230.802 249.903 230.91 250.572L234.063 249.946C233.631 248.067 231.839 246.837 229.14 246.837C226.398 246.837 224.476 248.283 224.476 250.507C224.476 252.213 225.62 253.293 227.628 253.66L229.831 254.092C230.63 254.243 230.91 254.524 230.91 254.891C230.91 255.366 230.414 255.754 229.507 255.754C228.578 255.754 227.736 255.409 227.585 254.48L224.217 255.171ZM247.464 247.16H244.01V248.024C243.167 247.268 242.045 246.837 240.641 246.837C237.769 246.837 235.351 249.169 235.351 252.58C235.351 256.013 237.769 258.324 240.641 258.324C242.045 258.324 243.167 257.892 244.01 257.136V258H247.464V247.16ZM241.354 255.387C239.842 255.387 238.741 254.264 238.741 252.58C238.741 250.918 239.842 249.773 241.354 249.773C242.757 249.773 244.01 250.918 244.01 252.58C244.01 254.264 242.757 255.387 241.354 255.387ZM254.019 247.16V246.47C254.019 245.606 254.602 245.109 255.423 245.109C255.682 245.109 256.027 245.174 256.351 245.282L257.085 242.604C256.394 242.302 255.682 242.151 254.947 242.151C252.335 242.151 250.586 243.77 250.586 246.318V247.16H249.031V249.903H250.586V258H254.019V249.903H256.999V247.16H254.019ZM268.723 252.58C268.658 249.039 266.196 246.837 263.13 246.837C259.978 246.837 257.386 249.169 257.386 252.58C257.386 256.013 259.978 258.324 263.108 258.324C265.592 258.324 267.557 257.223 268.485 254.934L265.419 254.308C264.836 255.366 263.907 255.56 263.108 255.56C261.942 255.56 261.057 254.761 260.776 253.466H268.723V252.58ZM263.13 249.644C264.123 249.644 264.987 250.183 265.311 251.349H260.841C261.165 250.248 262.158 249.644 263.13 249.644ZM277.753 254.804C277.299 255.063 276.651 255.236 276.176 255.236C275.269 255.236 274.73 254.783 274.73 253.66V249.903H277.925V247.16H274.73V243.965H271.275V247.16H269.31V249.903H271.275V254.005C271.275 256.856 272.894 258.324 275.593 258.324C276.824 258.324 277.709 257.978 278.551 257.525L277.753 254.804ZM291.499 247.139H287.785L285.043 253.466L282.473 247.139H278.759L283.25 257.633L281.501 261.671H285.237L291.499 247.139Z" fill="#812997"/>
<path fill-rule="evenodd" clip-rule="evenodd" d="M58.7974 127.918H51.6398C51.0081 127.918 50.4022 127.667 49.9555 127.22C49.5088 126.773 49.2578 126.168 49.2578 125.536V116.802C49.2578 113.853 50.429 111.026 52.5137 108.941C54.5983 106.857 57.4258 105.686 60.3739 105.686C63.3221 105.686 66.1496 106.857 68.2343 108.941C69.1742 109.881 69.9285 110.972 70.4734 112.158C72.9258 112.521 75.1977 113.697 76.9156 115.511C78.8702 117.576 79.9595 120.311 79.9595 123.154V131.888C79.9595 132.52 79.7087 133.126 79.2618 133.572C78.8151 134.019 78.2092 134.27 77.5776 134.27H68.8434C66.5444 134.27 64.3021 133.557 62.4248 132.23C60.8603 131.125 59.6134 129.637 58.7974 127.918ZM54.7595 111.187C56.2485 109.698 58.2681 108.862 60.3739 108.862C62.4798 108.862 64.4994 109.698 65.9885 111.187C67.4774 112.676 68.314 114.696 68.314 116.802C68.314 118.908 67.4774 120.927 65.9885 122.416C64.4994 123.905 62.4798 124.742 60.374 124.742H59.8703C59.8618 124.742 59.8534 124.742 59.8448 124.742H52.4339V116.802C52.4339 114.696 53.2704 112.676 54.7595 111.187ZM62.3592 127.739C62.8769 128.471 63.5177 129.114 64.258 129.637C65.5991 130.585 67.2012 131.094 68.8434 131.094H76.7835V123.154C76.7835 121.123 76.0053 119.169 74.6092 117.695C73.7225 116.758 72.6292 116.06 71.43 115.647C71.4699 116.029 71.4901 116.414 71.4901 116.802C71.4901 119.75 70.3189 122.577 68.2343 124.662C66.6237 126.273 64.5697 127.338 62.3592 127.739Z" fill="#CF47F1"/>
<path fill-rule="evenodd" clip-rule="evenodd" d="M58.7974 170.428H51.6398C51.0081 170.428 50.4022 170.177 49.9555 169.73C49.5088 169.283 49.2578 168.677 49.2578 168.045V159.311C49.2578 156.363 50.429 153.536 52.5137 151.451C54.5983 149.366 57.4258 148.195 60.3739 148.195C63.3221 148.195 66.1496 149.366 68.2343 151.451C69.1742 152.391 69.9285 153.482 70.4734 154.667C72.9258 155.031 75.1977 156.206 76.9156 158.021C78.8702 160.085 79.9595 162.82 79.9595 165.664V174.398C79.9595 175.029 79.7087 175.635 79.2618 176.082C78.8151 176.529 78.2092 176.78 77.5776 176.78H68.8434C66.5444 176.78 64.3021 176.067 62.4248 174.74C60.8603 173.634 59.6134 172.147 58.7974 170.428ZM54.7595 153.697C56.2485 152.208 58.2681 151.371 60.3739 151.371C62.4798 151.371 64.4994 152.208 65.9885 153.697C67.4774 155.186 68.314 157.206 68.314 159.311C68.314 161.417 67.4774 163.437 65.9885 164.926C64.4994 166.415 62.4798 167.252 60.374 167.252H59.8703C59.8618 167.251 59.8534 167.251 59.8448 167.252H52.4339V159.311C52.4339 157.206 53.2704 155.186 54.7595 153.697ZM62.3592 170.249C62.8769 170.98 63.5177 171.623 64.258 172.147C65.5991 173.095 67.2012 173.604 68.8434 173.604H76.7835V165.664C76.7835 163.633 76.0053 161.679 74.6092 160.204C73.7225 159.268 72.6292 158.57 71.43 158.156C71.4699 158.538 71.4901 158.924 71.4901 159.311C71.4901 162.26 70.3189 165.087 68.2343 167.172C66.6237 168.782 64.5697 169.848 62.3592 170.249Z" fill="#CF47F1"/>
<path fill-rule="evenodd" clip-rule="evenodd" d="M58.7974 213.529H51.6398C51.0081 213.529 50.4022 213.278 49.9555 212.831C49.5088 212.385 49.2578 211.779 49.2578 211.147V202.413C49.2578 199.465 50.429 196.637 52.5137 194.553C54.5983 192.468 57.4258 191.297 60.3739 191.297C63.3221 191.297 66.1496 192.468 68.2343 194.553C69.1742 195.493 69.9285 196.584 70.4734 197.769C72.9258 198.132 75.1977 199.308 76.9156 201.122C78.8702 203.187 79.9595 205.922 79.9595 208.765V217.499C79.9595 218.131 79.7087 218.737 79.2618 219.184C78.8151 219.63 78.2092 219.881 77.5776 219.881H68.8434C66.5444 219.881 64.3021 219.169 62.4248 217.842C60.8603 216.736 59.6134 215.248 58.7974 213.529ZM54.7595 196.799C56.2485 195.309 58.2681 194.473 60.3739 194.473C62.4798 194.473 64.4994 195.309 65.9885 196.799C67.4774 198.288 68.314 200.307 68.314 202.413C68.314 204.519 67.4774 206.538 65.9885 208.028C64.4994 209.517 62.4798 210.353 60.374 210.353H59.8703C59.8618 210.353 59.8534 210.353 59.8448 210.353H52.4339V202.413C52.4339 200.307 53.2704 198.288 54.7595 196.799ZM62.3592 213.35C62.8769 214.082 63.5177 214.725 64.258 215.248C65.5991 216.196 67.2012 216.705 68.8434 216.705H76.7835V208.765C76.7835 206.734 76.0053 204.781 74.6092 203.306C73.7225 202.369 72.6292 201.671 71.43 201.258C71.4699 201.64 71.4901 202.025 71.4901 202.413C71.4901 205.361 70.3189 208.189 68.2343 210.273C66.6237 211.884 64.5697 212.949 62.3592 213.35Z" fill="#CF47F1"/>
<path fill-rule="evenodd" clip-rule="evenodd" d="M58.7974 258.361H51.6398C51.0081 258.361 50.4022 258.11 49.9555 257.663C49.5088 257.217 49.2578 256.611 49.2578 255.979V247.245C49.2578 244.297 50.429 241.469 52.5137 239.385C54.5983 237.3 57.4258 236.129 60.3739 236.129C63.3221 236.129 66.1496 237.3 68.2343 239.385C69.1742 240.325 69.9285 241.416 70.4734 242.601C72.9258 242.964 75.1977 244.14 76.9156 245.955C78.8702 248.019 79.9595 250.754 79.9595 253.597V262.331C79.9595 262.963 79.7087 263.569 79.2618 264.016C78.8151 264.462 78.2092 264.713 77.5776 264.713H68.8434C66.5444 264.713 64.3021 264.001 62.4248 262.674C60.8603 261.568 59.6134 260.08 58.7974 258.361ZM54.7595 241.631C56.2485 240.141 58.2681 239.305 60.3739 239.305C62.4798 239.305 64.4994 240.141 65.9885 241.631C67.4774 243.12 68.314 245.139 68.314 247.245C68.314 249.351 67.4774 251.371 65.9885 252.86C64.4994 254.349 62.4798 255.185 60.374 255.185H59.8703C59.8618 255.185 59.8534 255.185 59.8448 255.185H52.4339V247.245C52.4339 245.139 53.2704 243.12 54.7595 241.631ZM62.3592 258.182C62.8769 258.914 63.5177 259.557 64.258 260.08C65.5991 261.028 67.2012 261.537 68.8434 261.537H76.7835V253.597C76.7835 251.566 76.0053 249.613 74.6092 248.138C73.7225 247.201 72.6292 246.503 71.43 246.09C71.4699 246.472 71.4901 246.857 71.4901 247.245C71.4901 250.193 70.3189 253.021 68.2343 255.105C66.6237 256.716 64.5697 257.781 62.3592 258.182Z" fill="#CF47F1"/>
<rect x="0.841797" y="23.0273" width="309.063" height="65.7975" rx="18.1689" fill="#F9D7FF"/>
<path d="M48.267 50.7524C48.6627 50.346 48.6634 49.6827 48.2686 49.2755L46.9681 47.9339C46.5778 47.5315 45.9479 47.5308 45.5568 47.9325L35.445 58.3209C35.0546 58.7221 34.4257 58.7221 34.0353 58.3209L23.9235 47.9325C23.5323 47.5308 22.9024 47.5315 22.5123 47.9339L21.2117 49.2755C20.8169 49.6827 20.8175 50.346 21.2133 50.7524L34.0353 63.9199C34.4259 64.3209 35.0545 64.3209 35.4449 63.9199L48.267 50.7524Z" fill="#CF47F1"/>
<path d="M68.1282 49.7663C66.1897 49.7663 64.6146 50.4629 63.4333 51.6745V43.6174H58.5869V65.4261H63.4333V58.3686C63.4333 55.4305 64.6752 54.128 66.5531 54.128C68.1282 54.128 69.1883 55.3396 69.1883 57.1267V65.4261H74.0044V56.0968C74.0044 52.2803 71.6418 49.7663 68.1282 49.7663ZM92.2431 57.8233C92.1523 52.8558 88.6992 49.7663 84.3981 49.7663C79.9758 49.7663 76.341 53.0376 76.341 57.8233C76.341 62.6394 79.9758 65.8804 84.3678 65.8804C87.8511 65.8804 90.6075 64.3357 91.91 61.1249L87.6088 60.2465C86.791 61.7307 85.4885 62.0033 84.3678 62.0033C82.7321 62.0033 81.4903 60.8826 81.0965 59.0652H92.2431V57.8233ZM84.3981 53.7039C85.7914 53.7039 87.003 54.4612 87.4574 56.0968H81.1874C81.6417 54.552 83.035 53.7039 84.3981 53.7039ZM99.6095 65.4261V43.6174H94.7631V65.4261H99.6095ZM112.706 49.7663C110.737 49.7663 109.162 50.3721 107.981 51.4322V50.2206H103.134V70.5754H107.981V64.2145C109.162 65.2746 110.737 65.8804 112.706 65.8804C116.734 65.8804 120.127 62.6394 120.127 57.8233C120.127 53.0376 116.734 49.7663 112.706 49.7663ZM111.706 61.761C109.737 61.761 107.981 60.186 107.981 57.8233C107.981 55.491 109.737 53.8857 111.706 53.8857C113.827 53.8857 115.371 55.491 115.371 57.8233C115.371 60.186 113.827 61.761 111.706 61.761ZM138.62 43.6174H133.774V51.4322C132.593 50.3721 131.018 49.7663 129.049 49.7663C125.02 49.7663 121.628 53.0376 121.628 57.8233C121.628 62.6394 125.02 65.8804 129.049 65.8804C131.018 65.8804 132.593 65.2746 133.774 64.2145V65.4261H138.62V43.6174ZM130.048 61.761C127.928 61.761 126.383 60.186 126.383 57.8233C126.383 55.491 127.928 53.8857 130.048 53.8857C132.017 53.8857 133.774 55.491 133.774 57.8233C133.774 60.186 132.017 61.761 130.048 61.761ZM157.023 57.8233C156.932 52.8558 153.479 49.7663 149.178 49.7663C144.756 49.7663 141.121 53.0376 141.121 57.8233C141.121 62.6394 144.756 65.8804 149.148 65.8804C152.631 65.8804 155.387 64.3357 156.69 61.1249L152.389 60.2465C151.571 61.7307 150.268 62.0033 149.148 62.0033C147.512 62.0033 146.27 60.8826 145.876 59.0652H157.023V57.8233ZM149.178 53.7039C150.571 53.7039 151.783 54.4612 152.237 56.0968H145.967C146.422 54.552 147.815 53.7039 149.178 53.7039ZM158.513 61.4581C159.028 64.578 162.087 65.8804 165.662 65.8804C169.66 65.8804 172.568 64.1236 172.568 60.7615C172.568 58.52 171.235 56.7935 168.357 56.1877L164.783 55.4607C163.814 55.2487 163.632 54.8247 163.632 54.4006C163.632 53.8554 164.056 53.2193 165.359 53.2193C166.843 53.2193 167.752 54.0674 167.903 55.0064L172.325 54.128C171.72 51.4928 169.205 49.7663 165.419 49.7663C161.572 49.7663 158.877 51.7957 158.877 54.9155C158.877 57.3084 160.482 58.8229 163.299 59.3378L166.389 59.9436C167.509 60.1557 167.903 60.5494 167.903 61.0644C167.903 61.7307 167.206 62.2759 165.934 62.2759C164.632 62.2759 163.45 61.7913 163.238 60.4888L158.513 61.4581ZM192.003 65.4261L184.643 57.4599L191.306 50.2206H185.46L180.644 55.4002H179.978V43.6174H175.132V65.4261H179.978V59.9436H180.856L185.794 65.4261H192.003ZM206.413 50.2206V49.2513C206.413 48.0397 207.231 47.3431 208.382 47.3431C208.745 47.3431 209.23 47.4339 209.684 47.5854L210.714 43.8295C209.745 43.4054 208.745 43.1934 207.715 43.1934C204.05 43.1934 201.597 45.4651 201.597 49.0393V50.2206H199.416V54.0674H201.597V65.4261H206.413V54.0674H210.593V50.2206H206.413ZM219.557 49.8268C214.953 49.8268 211.137 53.0376 211.137 57.8233C211.137 62.6394 214.953 65.8501 219.557 65.8501C224.07 65.8501 227.887 62.6394 227.887 57.8233C227.887 53.0376 224.07 49.8268 219.557 49.8268ZM219.557 61.761C217.588 61.761 215.801 60.2162 215.801 57.8233C215.801 55.4607 217.588 53.8857 219.557 53.8857C221.435 53.8857 223.222 55.4607 223.222 57.8233C223.222 60.2162 221.435 61.761 219.557 61.761ZM240.473 50.0086C237.99 50.0086 236.324 51.311 235.233 53.1284V50.2206H230.387V65.4261H235.233V60.6706C235.233 56.7329 237.081 54.9761 240.473 54.9761H241.352L241.564 50.1297C241.2 50.0389 240.897 50.0086 240.473 50.0086ZM258.815 50.2206H253.968V57.2781C253.968 60.2162 252.726 61.5187 250.818 61.5187C249.273 61.5187 248.213 60.3071 248.213 58.52V50.2206H243.397V59.5499C243.397 63.3664 245.76 65.8804 249.304 65.8804C251.212 65.8804 252.817 65.1838 253.968 63.9722V65.4261H258.815V50.2206ZM282.021 49.7663C279.659 49.7663 277.841 50.7658 276.63 52.3409C275.6 50.675 273.783 49.7663 271.662 49.7663C269.694 49.7663 268.209 50.4629 267.179 51.6139V50.2206H262.333V65.4261H267.179V57.9748C267.179 55.4305 268.33 54.128 270.087 54.128C271.541 54.128 272.662 55.2184 272.662 56.9449V65.4261H277.508V57.9748C277.508 55.4305 278.69 54.128 280.477 54.128C281.9 54.128 283.021 55.2184 283.021 56.9449V65.4261H287.837V55.9151C287.837 52.2197 285.262 49.7663 282.021 49.7663Z" fill="#CF47F1"/>
</svg>
