<svg width="342" height="374" viewBox="0 0 342 374" fill="none" xmlns="http://www.w3.org/2000/svg">
<rect x="22.1533" y="134.904" width="319.14" height="172.999" rx="18.1689" fill="#191A34"/>
<path d="M21.8818 82.7685C21.8818 72.7341 30.0163 64.5996 40.0507 64.5996H235.349C245.383 64.5996 253.518 72.7341 253.518 82.7685V92.4833C253.518 102.518 245.383 110.652 235.349 110.652H40.0507C30.0163 110.652 21.8818 102.518 21.8818 92.4833V82.7685Z" fill="#191A34"/>
<rect x="38.4131" y="169.693" width="37.7306" height="30.7017" rx="8.85626" fill="#101126"/>
<rect x="38.4131" y="212.795" width="37.7306" height="30.7017" rx="8.85626" fill="#101126"/>
<rect x="38.4131" y="255.896" width="37.7306" height="30.7017" rx="8.85626" fill="#101126"/>
<path d="M51.5176 221.789C51.5176 220.723 52.3813 219.859 53.4467 219.859H61.1632C62.2287 219.859 63.0924 220.723 63.0924 221.789V234.893C63.0924 235.752 62.0534 236.183 61.4457 235.575L58.6691 232.798C57.9157 232.045 56.6942 232.045 55.9409 232.798L53.1642 235.575C52.5566 236.183 51.5176 235.752 51.5176 234.893V221.789Z" fill="#9395B5"/>
<path d="M51.5176 179.789C51.5176 178.723 52.3813 177.859 53.4467 177.859H61.1632C62.2287 177.859 63.0924 178.723 63.0924 179.789V192.893C63.0924 193.752 62.0534 194.183 61.4457 193.575L58.6691 190.798C57.9157 190.045 56.6942 190.045 55.9409 190.798L53.1642 193.575C52.5566 194.183 51.5176 193.752 51.5176 192.893V179.789Z" fill="#9395B5"/>
<path d="M50.1161 115.129L49.41 119.06H45.4927L46.1988 115.129L34.4404 115.129L32.3637 126.689H36.6925V130.542H31.6772L30.4297 137.454C30.3467 137.914 29.9401 138.249 29.4652 138.249H27.5367C26.9272 138.249 26.4657 137.707 26.5722 137.117L27.7589 130.542H21.0882C20.4797 130.542 20.0184 130.002 20.1233 129.413L20.4662 127.486C20.5482 127.025 20.9552 126.689 21.4311 126.689H28.4446L30.5213 115.129H23.8506C23.2421 115.129 22.7808 114.589 22.8857 113.999L23.2286 112.072C23.3106 111.611 23.7176 111.275 24.1935 111.275H31.207L32.4545 104.363C32.5375 103.903 32.944 103.568 33.419 103.568H35.3475C35.9569 103.568 36.4185 104.11 36.3119 104.7L35.1252 111.275L46.8835 111.276L48.131 104.364C48.214 103.904 48.6205 103.569 49.0955 103.569H51.024C51.6334 103.569 52.095 104.11 51.9884 104.701L50.8018 111.276H57.4724C58.081 111.276 58.5422 111.816 58.4373 112.405L58.0945 114.332C58.0124 114.793 57.6054 115.129 57.1296 115.129H50.1161Z" fill="white"/>
<path d="M42.3397 122.759C41.3009 122.759 40.4589 123.587 40.4589 124.609V136.75C40.4589 137.771 41.3009 138.599 42.3397 138.599H44.2204C44.4802 138.599 44.6906 138.806 44.6906 139.062V142.989C44.6906 143.39 45.1738 143.601 45.4761 143.332L50.2661 139.076C50.6117 138.769 51.0612 138.599 51.5271 138.599H60.207C61.2457 138.599 62.0878 137.771 62.0878 136.75V124.609C62.0878 123.587 61.2457 122.759 60.207 122.759H42.3397Z" fill="white"/>
<rect x="0.0341797" y="87.627" width="277.414" height="63.7975" rx="18.1689" fill="#353758"/>
<path d="M45.8419 112.38L45.2364 115.731H41.8771L42.4826 112.38L32.399 112.38L30.6181 122.235H34.3304V125.52H30.0294L28.9595 131.412C28.8884 131.804 28.5397 132.089 28.1324 132.089H26.4786C25.9559 132.089 25.5602 131.628 25.6515 131.125L26.6692 125.52H20.9487C20.4268 125.52 20.0312 125.059 20.1212 124.557L20.4152 122.914C20.4856 122.521 20.8346 122.235 21.2427 122.235H27.2572L29.0381 112.38H23.3176C22.7957 112.38 22.4002 111.92 22.4901 111.417L22.7841 109.775C22.8545 109.382 23.2035 109.095 23.6116 109.095H29.6261L30.6959 103.203C30.7671 102.811 31.1157 102.525 31.5231 102.525H33.1769C33.6995 102.525 34.0953 102.987 34.0039 103.49L32.9863 109.095L43.0697 109.096L44.1396 103.204C44.2107 102.811 44.5594 102.526 44.9667 102.526H46.6205C47.1431 102.526 47.5389 102.987 47.4475 103.491L46.4299 109.096H52.1504C52.6723 109.096 53.0678 109.556 52.9779 110.058L52.6839 111.701C52.6135 112.094 52.2645 112.38 51.8564 112.38H45.8419Z" fill="white"/>
<path d="M39.1731 118.885C38.2823 118.885 37.5602 119.591 37.5602 120.462V130.811C37.5602 131.682 38.2823 132.388 39.1731 132.388H40.786C41.0088 132.388 41.1892 132.565 41.1892 132.782V136.13C41.1892 136.472 41.6035 136.652 41.8628 136.423L45.9706 132.795C46.267 132.533 46.6524 132.388 47.0519 132.388H54.4955C55.3863 132.388 56.1084 131.682 56.1084 130.811V120.462C56.1084 119.591 55.3863 118.885 54.4955 118.885H39.1731Z" fill="white"/>
<path d="M73.0539 114.272C77.3222 114.272 80.9317 117.309 80.9317 121.835C80.9317 126.39 77.3222 129.426 73.0539 129.426C68.6996 129.426 65.0902 126.39 65.0902 121.835C65.0902 117.309 68.6996 114.272 73.0539 114.272ZM73.0539 125.559C74.83 125.559 76.5201 124.098 76.5201 121.835C76.5201 119.601 74.83 118.111 73.0539 118.111C71.1919 118.111 69.5017 119.601 69.5017 121.835C69.5017 124.098 71.1919 125.559 73.0539 125.559ZM92.3484 114.215C96.1584 114.215 99.3668 117.309 99.3668 121.835C99.3668 126.39 96.1584 129.455 92.3484 129.455C90.4864 129.455 88.9968 128.882 87.8796 127.88V133.895H83.2961V114.645H87.8796V115.791C88.9968 114.788 90.4864 114.215 92.3484 114.215ZM91.4031 125.559C93.4083 125.559 94.8693 124.07 94.8693 121.835C94.8693 119.629 93.4083 118.111 91.4031 118.111C89.5411 118.111 87.8796 119.629 87.8796 121.835C87.8796 124.07 89.5411 125.559 91.4031 125.559ZM110.784 114.215C114.594 114.215 117.802 117.309 117.802 121.835C117.802 126.39 114.594 129.455 110.784 129.455C108.922 129.455 107.432 128.882 106.315 127.88V133.895H101.732V114.645H106.315V115.791C107.432 114.788 108.922 114.215 110.784 114.215ZM109.839 125.559C111.844 125.559 113.305 124.07 113.305 121.835C113.305 119.629 111.844 118.111 109.839 118.111C107.977 118.111 106.315 119.629 106.315 121.835C106.315 124.07 107.977 125.559 109.839 125.559ZM127.186 114.272C131.454 114.272 135.063 117.309 135.063 121.835C135.063 126.39 131.454 129.426 127.186 129.426C122.831 129.426 119.222 126.39 119.222 121.835C119.222 117.309 122.831 114.272 127.186 114.272ZM127.186 125.559C128.962 125.559 130.652 124.098 130.652 121.835C130.652 119.601 128.962 118.111 127.186 118.111C125.324 118.111 123.634 119.601 123.634 121.835C123.634 124.098 125.324 125.559 127.186 125.559ZM146.967 114.444C147.368 114.444 147.655 114.473 147.998 114.559L147.798 119.142H146.967C143.759 119.142 142.011 120.804 142.011 124.528V129.025H137.428V114.645H142.011V117.395C143.043 115.676 144.618 114.444 146.967 114.444ZM159.809 124.786L160.869 128.395C159.752 128.997 158.577 129.455 156.944 129.455C153.364 129.455 151.215 127.507 151.215 123.726V118.283H148.608V114.645H151.215V110.405H155.799V114.645H160.038V118.283H155.799V123.267C155.799 124.757 156.515 125.359 157.718 125.359C158.348 125.359 159.208 125.129 159.809 124.786ZM176.706 114.645V129.025H172.123V127.65C171.034 128.796 169.516 129.455 167.711 129.455C164.36 129.455 162.125 127.077 162.125 123.468V114.645H166.68V122.494C166.68 124.184 167.683 125.33 169.144 125.33C170.948 125.33 172.123 124.098 172.123 121.319V114.645H176.706ZM189.029 114.215C192.381 114.215 194.615 116.593 194.615 120.202V129.025H190.06V121.176C190.06 119.486 189.058 118.34 187.597 118.34C185.792 118.34 184.617 119.572 184.617 122.351V129.025H180.034V114.645H184.617V116.02C185.706 114.874 187.224 114.215 189.029 114.215ZM200.263 107.798C201.81 107.798 202.927 109.002 202.927 110.405C202.927 111.866 201.81 112.955 200.263 112.955C198.716 112.955 197.628 111.866 197.628 110.405C197.628 109.002 198.716 107.798 200.263 107.798ZM202.555 129.025H197.971V114.645H202.555V129.025ZM215.703 124.786L216.763 128.395C215.646 128.997 214.471 129.455 212.839 129.455C209.258 129.455 207.109 127.507 207.109 123.726V118.283H204.503V114.645H207.109V110.405H211.693V114.645H215.932V118.283H211.693V123.267C211.693 124.757 212.409 125.359 213.612 125.359C214.242 125.359 215.102 125.129 215.703 124.786ZM221.021 107.798C222.567 107.798 223.685 109.002 223.685 110.405C223.685 111.866 222.567 112.955 221.021 112.955C219.474 112.955 218.385 111.866 218.385 110.405C218.385 109.002 219.474 107.798 221.021 107.798ZM223.312 129.025H218.729V114.645H223.312V129.025ZM240.958 121.835V123.01H230.416C230.789 124.728 231.963 125.788 233.51 125.788C234.57 125.788 235.802 125.531 236.575 124.127L240.643 124.958C239.411 127.994 236.805 129.455 233.51 129.455C229.356 129.455 225.919 126.39 225.919 121.835C225.919 117.309 229.356 114.215 233.539 114.215C237.607 114.215 240.872 117.137 240.958 121.835ZM233.539 117.939C232.25 117.939 230.932 118.741 230.502 120.202H236.432C236.002 118.655 234.857 117.939 233.539 117.939ZM242.368 125.273L246.836 124.356C247.037 125.588 248.154 126.046 249.386 126.046C250.589 126.046 251.248 125.531 251.248 124.9C251.248 124.413 250.876 124.041 249.816 123.84L246.894 123.267C244.23 122.78 242.711 121.348 242.711 119.085C242.711 116.134 245.261 114.215 248.899 114.215C252.48 114.215 254.857 115.848 255.43 118.34L251.248 119.171C251.105 118.283 250.245 117.481 248.842 117.481C247.61 117.481 247.209 118.082 247.209 118.598C247.209 118.999 247.381 119.4 248.297 119.601L251.678 120.288C254.399 120.861 255.66 122.494 255.66 124.614C255.66 127.794 252.909 129.455 249.128 129.455C245.748 129.455 242.855 128.223 242.368 125.273Z" fill="white"/>
<rect x="89.5176" y="255.859" width="232" height="31" rx="8.85626" fill="#101126"/>
<path d="M103.072 276.359H100.442V265.679H103.072V276.359ZM109.931 268.118C111.796 268.118 113.04 269.441 113.04 271.449V276.359H110.505V271.991C110.505 271.051 109.947 270.413 109.134 270.413C108.13 270.413 107.476 271.099 107.476 272.645V276.359H104.926V268.357H107.476V269.122C108.082 268.484 108.927 268.118 109.931 268.118ZM123.491 268.118C125.356 268.118 126.599 269.441 126.599 271.449V276.359H124.065V271.991C124.065 271.051 123.507 270.413 122.694 270.413C121.689 270.413 121.036 271.099 121.036 272.645V276.359H118.485V268.357H121.036V269.122C121.641 268.484 122.486 268.118 123.491 268.118ZM136.183 272.358V273.012H130.316C130.523 273.968 131.177 274.558 132.038 274.558C132.628 274.558 133.313 274.415 133.743 273.633L136.007 274.096C135.322 275.785 133.871 276.598 132.038 276.598C129.726 276.598 127.813 274.893 127.813 272.358C127.813 269.839 129.726 268.118 132.054 268.118C134.317 268.118 136.135 269.744 136.183 272.358ZM132.054 270.19C131.336 270.19 130.603 270.636 130.364 271.449H133.664C133.425 270.589 132.787 270.19 132.054 270.19ZM145.352 272.358V273.012H139.485C139.693 273.968 140.346 274.558 141.207 274.558C141.797 274.558 142.482 274.415 142.913 273.633L145.176 274.096C144.491 275.785 143.04 276.598 141.207 276.598C138.896 276.598 136.983 274.893 136.983 272.358C136.983 269.839 138.896 268.118 141.223 268.118C143.487 268.118 145.304 269.744 145.352 272.358ZM141.223 270.19C140.506 270.19 139.772 270.636 139.533 271.449H142.833C142.594 270.589 141.956 270.19 141.223 270.19ZM155.095 264.882V276.359H152.544V275.722C151.923 276.28 151.094 276.598 150.058 276.598C147.937 276.598 146.152 274.893 146.152 272.358C146.152 269.839 147.937 268.118 150.058 268.118C151.094 268.118 151.923 268.437 152.544 268.995V264.882H155.095ZM150.584 274.43C151.62 274.43 152.544 273.602 152.544 272.358C152.544 271.131 151.62 270.286 150.584 270.286C149.468 270.286 148.655 271.131 148.655 272.358C148.655 273.602 149.468 274.43 150.584 274.43ZM164.548 268.15C166.923 268.15 168.932 269.839 168.932 272.358C168.932 274.893 166.923 276.583 164.548 276.583C162.125 276.583 160.116 274.893 160.116 272.358C160.116 269.839 162.125 268.15 164.548 268.15ZM164.548 274.43C165.536 274.43 166.477 273.617 166.477 272.358C166.477 271.115 165.536 270.286 164.548 270.286C163.512 270.286 162.571 271.115 162.571 272.358C162.571 273.617 163.512 274.43 164.548 274.43ZM173.135 268.357H175.335V270.381H173.135V276.359H170.601V270.381H169.453V268.357H170.601V267.735C170.601 265.854 171.892 264.658 173.821 264.658C174.363 264.658 174.889 264.77 175.399 264.993L174.857 266.97C174.618 266.89 174.363 266.842 174.172 266.842C173.566 266.842 173.135 267.209 173.135 267.847V268.357ZM190.215 268.118C191.92 268.118 193.275 269.409 193.275 271.354V276.359H190.741V271.896C190.741 270.987 190.151 270.413 189.402 270.413C188.461 270.413 187.839 271.099 187.839 272.438V276.359H185.289V271.896C185.289 270.987 184.699 270.413 183.934 270.413C183.009 270.413 182.403 271.099 182.403 272.438V276.359H179.853V268.357H182.403V269.09C182.945 268.484 183.726 268.118 184.763 268.118C185.879 268.118 186.835 268.596 187.377 269.473C188.015 268.644 188.971 268.118 190.215 268.118ZM198.921 268.15C201.297 268.15 203.305 269.839 203.305 272.358C203.305 274.893 201.297 276.583 198.921 276.583C196.498 276.583 194.49 274.893 194.49 272.358C194.49 269.839 196.498 268.15 198.921 268.15ZM198.921 274.43C199.91 274.43 200.85 273.617 200.85 272.358C200.85 271.115 199.91 270.286 198.921 270.286C197.885 270.286 196.945 271.115 196.945 272.358C196.945 273.617 197.885 274.43 198.921 274.43ZM213.038 264.882V276.359H210.487V275.722C209.866 276.28 209.037 276.598 208 276.598C205.88 276.598 204.095 274.893 204.095 272.358C204.095 269.839 205.88 268.118 208 268.118C209.037 268.118 209.866 268.437 210.487 268.995V264.882H213.038ZM208.526 274.43C209.563 274.43 210.487 273.602 210.487 272.358C210.487 271.131 209.563 270.286 208.526 270.286C207.411 270.286 206.598 271.131 206.598 272.358C206.598 273.602 207.411 274.43 208.526 274.43ZM214.338 274.271L216.825 273.761C216.936 274.446 217.558 274.701 218.244 274.701C218.913 274.701 219.28 274.415 219.28 274.064C219.28 273.793 219.073 273.586 218.483 273.474L216.857 273.155C215.374 272.884 214.529 272.087 214.529 270.828C214.529 269.186 215.948 268.118 217.973 268.118C219.965 268.118 221.288 269.026 221.607 270.413L219.28 270.876C219.2 270.381 218.722 269.935 217.941 269.935C217.255 269.935 217.032 270.27 217.032 270.557C217.032 270.78 217.128 271.003 217.638 271.115L219.519 271.497C221.033 271.816 221.735 272.725 221.735 273.904C221.735 275.674 220.204 276.598 218.1 276.598C216.219 276.598 214.609 275.913 214.338 274.271ZM225.954 265.679V266.173L225.794 272.709H223.275L223.116 266.173V265.679H225.954ZM224.567 273.617C225.412 273.617 226.017 274.271 226.017 275.036C226.017 275.833 225.412 276.439 224.567 276.439C223.706 276.439 223.1 275.833 223.1 275.036C223.1 274.271 223.706 273.617 224.567 273.617Z" fill="#C3C4D9"/>
<rect x="89.5176" y="212.859" width="232" height="31" rx="8.85626" fill="#101126"/>
<path d="M105.767 222.44C108.955 222.44 111.458 224.91 111.458 228.035C111.458 231.144 108.955 233.598 105.767 233.598C102.578 233.598 100.076 231.144 100.076 228.035C100.076 224.91 102.578 222.44 105.767 222.44ZM105.767 231.191C107.504 231.191 108.827 229.852 108.827 228.035C108.827 226.202 107.504 224.847 105.767 224.847C104.029 224.847 102.706 226.202 102.706 228.035C102.706 229.852 104.029 231.191 105.767 231.191ZM115.94 225.357H118.14V227.381H115.94V233.359H113.405V227.381H112.258V225.357H113.405V224.735C113.405 222.854 114.697 221.658 116.625 221.658C117.167 221.658 117.693 221.77 118.204 221.993L117.662 223.97C117.422 223.89 117.167 223.842 116.976 223.842C116.37 223.842 115.94 224.209 115.94 224.847V225.357ZM121.7 225.357H123.9V227.381H121.7V233.359H119.165V227.381H118.018V225.357H119.165V224.735C119.165 222.854 120.457 221.658 122.385 221.658C122.927 221.658 123.454 221.77 123.964 221.993L123.422 223.97C123.183 223.89 122.927 223.842 122.736 223.842C122.13 223.842 121.7 224.209 121.7 224.847V225.357ZM132.555 229.358V230.012H126.689C126.896 230.968 127.55 231.558 128.411 231.558C129 231.558 129.686 231.415 130.116 230.633L132.38 231.096C131.694 232.785 130.244 233.598 128.411 233.598C126.099 233.598 124.186 231.893 124.186 229.358C124.186 226.839 126.099 225.118 128.426 225.118C130.69 225.118 132.507 226.744 132.555 229.358ZM128.426 227.19C127.709 227.19 126.976 227.636 126.737 228.449H130.037C129.797 227.589 129.16 227.19 128.426 227.19ZM139.19 225.245C139.413 225.245 139.573 225.261 139.764 225.309L139.652 227.86H139.19C137.405 227.86 136.432 228.784 136.432 230.857V233.359H133.881V225.357H136.432V226.887C137.006 225.931 137.883 225.245 139.19 225.245ZM142.243 221.547C143.104 221.547 143.726 222.216 143.726 222.998C143.726 223.811 143.104 224.416 142.243 224.416C141.382 224.416 140.776 223.811 140.776 222.998C140.776 222.216 141.382 221.547 142.243 221.547ZM143.518 233.359H140.968V225.357H143.518V233.359ZM150.501 225.118C152.366 225.118 153.609 226.441 153.609 228.449V233.359H151.074V228.991C151.074 228.051 150.516 227.413 149.703 227.413C148.699 227.413 148.046 228.099 148.046 229.645V233.359H145.495V225.357H148.046V226.122C148.651 225.484 149.496 225.118 150.501 225.118ZM163.591 225.357V232.562C163.591 235.033 161.71 236.388 159.111 236.388C157.278 236.388 155.875 235.751 155.094 234.459L157.214 233.312C157.82 234.029 158.267 234.3 159.095 234.3C160.259 234.3 161.088 233.614 161.088 232.355V232.132C160.514 232.626 159.717 232.897 158.681 232.897C156.593 232.897 154.823 231.239 154.823 228.976C154.823 226.76 156.593 225.118 158.681 225.118C159.717 225.118 160.514 225.389 161.088 225.883V225.357H163.591ZM159.223 230.809C160.243 230.809 161.088 230.044 161.088 228.976C161.088 227.907 160.243 227.158 159.223 227.158C158.107 227.158 157.31 227.907 157.31 228.976C157.31 230.044 158.107 230.809 159.223 230.809ZM179.854 233.359H177.049L176.299 231.415H171.804L171.055 233.359H168.233L172.697 222.679H175.391L179.854 233.359ZM175.423 229.151L174.052 225.644L172.697 229.151H175.423ZM186.08 225.245C186.303 225.245 186.462 225.261 186.654 225.309L186.542 227.86H186.08C184.294 227.86 183.322 228.784 183.322 230.857V233.359H180.771V225.357H183.322V226.887C183.896 225.931 184.773 225.245 186.08 225.245ZM193.226 231L193.816 233.009C193.194 233.343 192.541 233.598 191.632 233.598C189.639 233.598 188.444 232.514 188.444 230.41V227.381H186.993V225.357H188.444V222.998H190.994V225.357H193.354V227.381H190.994V230.155C190.994 230.984 191.393 231.319 192.062 231.319C192.413 231.319 192.891 231.191 193.226 231ZM202.68 222.44C205.007 222.44 206.697 223.587 207.096 225.532L204.513 226.058C204.322 225.054 203.493 224.56 202.648 224.56C201.771 224.56 201.213 225.038 201.213 225.644C201.213 226.074 201.404 226.393 202.074 226.537L204.29 227.031C206.139 227.445 207.223 228.449 207.223 230.139C207.223 232.419 205.198 233.598 202.823 233.598C200.416 233.598 198.439 232.451 198.152 230.362L200.862 229.836C201.133 230.936 201.899 231.415 202.967 231.415C203.955 231.415 204.545 230.968 204.545 230.315C204.545 229.836 204.322 229.533 203.557 229.374L201.325 228.896C199.794 228.545 198.455 227.748 198.455 225.803C198.455 223.731 200.177 222.44 202.68 222.44ZM216.636 229.358V230.012H210.77C210.977 230.968 211.631 231.558 212.491 231.558C213.081 231.558 213.767 231.415 214.197 230.633L216.461 231.096C215.775 232.785 214.325 233.598 212.491 233.598C210.18 233.598 208.267 231.893 208.267 229.358C208.267 226.839 210.18 225.118 212.507 225.118C214.771 225.118 216.588 226.744 216.636 229.358ZM212.507 227.19C211.79 227.19 211.057 227.636 210.818 228.449H214.117C213.878 227.589 213.241 227.19 212.507 227.19ZM223.271 225.245C223.494 225.245 223.653 225.261 223.845 225.309L223.733 227.86H223.271C221.485 227.86 220.513 228.784 220.513 230.857V233.359H217.962V225.357H220.513V226.887C221.087 225.931 221.964 225.245 223.271 225.245ZM233.338 225.341L230.022 233.359H227.424L224.108 225.341H226.802L228.731 230.283L230.644 225.341H233.338ZM235.773 221.547C236.634 221.547 237.256 222.216 237.256 222.998C237.256 223.811 236.634 224.416 235.773 224.416C234.913 224.416 234.307 223.811 234.307 222.998C234.307 222.216 234.913 221.547 235.773 221.547ZM237.049 233.359H234.498V225.357H237.049V233.359ZM242.867 231.367C243.68 231.367 244.334 230.936 244.605 229.964L246.948 230.474C246.55 232.371 244.86 233.598 242.867 233.598C240.476 233.598 238.499 231.893 238.499 229.358C238.499 226.839 240.476 225.118 242.867 225.118C244.812 225.118 246.502 226.313 246.948 228.194L244.557 228.768C244.334 227.796 243.68 227.35 242.867 227.35C241.719 227.35 240.954 228.194 240.954 229.358C240.954 230.538 241.719 231.367 242.867 231.367ZM256.116 229.358V230.012H250.249C250.457 230.968 251.11 231.558 251.971 231.558C252.561 231.558 253.246 231.415 253.677 230.633L255.94 231.096C255.255 232.785 253.804 233.598 251.971 233.598C249.659 233.598 247.747 231.893 247.747 229.358C247.747 226.839 249.659 225.118 251.987 225.118C254.251 225.118 256.068 226.744 256.116 229.358ZM251.987 227.19C251.27 227.19 250.536 227.636 250.297 228.449H253.597C253.358 227.589 252.72 227.19 251.987 227.19ZM256.9 231.271L259.387 230.761C259.498 231.446 260.12 231.701 260.806 231.701C261.475 231.701 261.842 231.415 261.842 231.064C261.842 230.793 261.634 230.586 261.045 230.474L259.419 230.155C257.936 229.884 257.091 229.087 257.091 227.828C257.091 226.186 258.51 225.118 260.535 225.118C262.527 225.118 263.85 226.026 264.169 227.413L261.842 227.876C261.762 227.381 261.284 226.935 260.503 226.935C259.817 226.935 259.594 227.27 259.594 227.557C259.594 227.78 259.69 228.003 260.2 228.115L262.081 228.497C263.595 228.816 264.297 229.725 264.297 230.904C264.297 232.674 262.766 233.598 260.662 233.598C258.781 233.598 257.171 232.913 256.9 231.271Z" fill="#C3C4D9"/>
<rect x="89.5176" y="169.859" width="232" height="31" rx="8.85626" fill="#101126"/>
<path d="M108.333 188.064V190.359H100.442V179.679H103.072V188.064H108.333ZM113.704 182.15C116.079 182.15 118.088 183.839 118.088 186.358C118.088 188.893 116.079 190.583 113.704 190.583C111.281 190.583 109.272 188.893 109.272 186.358C109.272 183.839 111.281 182.15 113.704 182.15ZM113.704 188.43C114.692 188.43 115.633 187.617 115.633 186.358C115.633 185.115 114.692 184.286 113.704 184.286C112.668 184.286 111.727 185.115 111.727 186.358C111.727 187.617 112.668 188.43 113.704 188.43ZM123.309 182.15C125.684 182.15 127.693 183.839 127.693 186.358C127.693 188.893 125.684 190.583 123.309 190.583C120.886 190.583 118.878 188.893 118.878 186.358C118.878 183.839 120.886 182.15 123.309 182.15ZM123.309 188.43C124.298 188.43 125.238 187.617 125.238 186.358C125.238 185.115 124.298 184.286 123.309 184.286C122.273 184.286 121.332 185.115 121.332 186.358C121.332 187.617 122.273 188.43 123.309 188.43ZM137.888 190.359H134.62L132.022 187.474H131.559V190.359H129.009V178.882H131.559V185.083H131.91L134.445 182.357H137.521L134.014 186.167L137.888 190.359ZM140.173 178.547C141.033 178.547 141.655 179.216 141.655 179.998C141.655 180.811 141.033 181.416 140.173 181.416C139.312 181.416 138.706 180.811 138.706 179.998C138.706 179.216 139.312 178.547 140.173 178.547ZM141.448 190.359H138.897V182.357H141.448V190.359ZM148.43 182.118C150.295 182.118 151.539 183.441 151.539 185.449V190.359H149.004V185.991C149.004 185.051 148.446 184.413 147.633 184.413C146.629 184.413 145.975 185.099 145.975 186.645V190.359H143.424V182.357H145.975V183.122C146.581 182.484 147.426 182.118 148.43 182.118ZM161.52 182.357V189.562C161.52 192.033 159.639 193.388 157.041 193.388C155.208 193.388 153.805 192.751 153.024 191.459L155.144 190.312C155.75 191.029 156.196 191.3 157.025 191.3C158.189 191.3 159.018 190.614 159.018 189.355V189.132C158.444 189.626 157.647 189.897 156.61 189.897C154.522 189.897 152.753 188.239 152.753 185.976C152.753 183.76 154.522 182.118 156.61 182.118C157.647 182.118 158.444 182.389 159.018 182.883V182.357H161.52ZM157.153 187.809C158.173 187.809 159.018 187.044 159.018 185.976C159.018 184.907 158.173 184.158 157.153 184.158C156.037 184.158 155.24 184.907 155.24 185.976C155.24 187.044 156.037 187.809 157.153 187.809ZM170.084 182.357H172.284V184.381H170.084V190.359H167.55V184.381H166.402V182.357H167.55V181.735C167.55 179.854 168.841 178.658 170.77 178.658C171.312 178.658 171.838 178.77 172.348 178.993L171.806 180.97C171.567 180.89 171.312 180.842 171.12 180.842C170.515 180.842 170.084 181.209 170.084 181.847V182.357ZM177.002 182.15C179.377 182.15 181.386 183.839 181.386 186.358C181.386 188.893 179.377 190.583 177.002 190.583C174.579 190.583 172.57 188.893 172.57 186.358C172.57 183.839 174.579 182.15 177.002 182.15ZM177.002 188.43C177.99 188.43 178.931 187.617 178.931 186.358C178.931 185.115 177.99 184.286 177.002 184.286C175.966 184.286 175.025 185.115 175.025 186.358C175.025 187.617 175.966 188.43 177.002 188.43ZM188.01 182.245C188.233 182.245 188.393 182.261 188.584 182.309L188.472 184.86H188.01C186.225 184.86 185.252 185.784 185.252 187.857V190.359H182.702V182.357H185.252V183.887C185.826 182.931 186.703 182.245 188.01 182.245ZM204.062 190.359H201.256L200.507 188.415H196.012L195.262 190.359H192.441L196.904 179.679H199.599L204.062 190.359ZM199.63 186.151L198.259 182.644L196.904 186.151H199.63ZM213.24 178.882V190.359H210.69V189.722C210.068 190.28 209.239 190.598 208.203 190.598C206.083 190.598 204.297 188.893 204.297 186.358C204.297 183.839 206.083 182.118 208.203 182.118C209.239 182.118 210.068 182.437 210.69 182.995V178.882H213.24ZM208.729 188.43C209.765 188.43 210.69 187.602 210.69 186.358C210.69 185.131 209.765 184.286 208.729 184.286C207.613 184.286 206.8 185.131 206.8 186.358C206.8 187.602 207.613 188.43 208.729 188.43ZM225.444 182.118C227.15 182.118 228.505 183.409 228.505 185.354V190.359H225.97V185.896C225.97 184.987 225.38 184.413 224.631 184.413C223.691 184.413 223.069 185.099 223.069 186.438V190.359H220.518V185.896C220.518 184.987 219.928 184.413 219.163 184.413C218.239 184.413 217.633 185.099 217.633 186.438V190.359H215.082V182.357H217.633V183.09C218.175 182.484 218.956 182.118 219.992 182.118C221.108 182.118 222.065 182.596 222.607 183.473C223.244 182.644 224.201 182.118 225.444 182.118ZM231.648 178.547C232.509 178.547 233.131 179.216 233.131 179.998C233.131 180.811 232.509 181.416 231.648 181.416C230.787 181.416 230.181 180.811 230.181 179.998C230.181 179.216 230.787 178.547 231.648 178.547ZM232.923 190.359H230.373V182.357H232.923V190.359ZM239.906 182.118C241.771 182.118 243.014 183.441 243.014 185.449V190.359H240.479V185.991C240.479 185.051 239.921 184.413 239.108 184.413C238.104 184.413 237.451 185.099 237.451 186.645V190.359H234.9V182.357H237.451V183.122C238.056 182.484 238.901 182.118 239.906 182.118ZM244.212 188.271L246.699 187.761C246.811 188.446 247.432 188.701 248.118 188.701C248.787 188.701 249.154 188.415 249.154 188.064C249.154 187.793 248.947 187.586 248.357 187.474L246.731 187.155C245.248 186.884 244.404 186.087 244.404 184.828C244.404 183.186 245.822 182.118 247.847 182.118C249.84 182.118 251.163 183.026 251.481 184.413L249.154 184.876C249.074 184.381 248.596 183.935 247.815 183.935C247.13 183.935 246.906 184.27 246.906 184.557C246.906 184.78 247.002 185.003 247.512 185.115L249.393 185.497C250.908 185.816 251.609 186.725 251.609 187.904C251.609 189.674 250.079 190.598 247.974 190.598C246.093 190.598 244.483 189.913 244.212 188.271ZM253.995 187.57C254.84 187.57 255.461 188.239 255.461 189.004C255.461 189.817 254.84 190.439 253.995 190.439C253.15 190.439 252.544 189.817 252.544 189.004C252.544 188.239 253.15 187.57 253.995 187.57Z" fill="#C3C4D9"/>
<rect x="283.518" y="255.859" width="38" height="31" rx="8.85626" fill="#101126"/>
<path fill-rule="evenodd" clip-rule="evenodd" d="M317.518 263.359C317.518 261.15 315.727 259.359 313.518 259.359H297.518C295.308 259.359 293.518 261.15 293.518 263.359V272.859L297.616 268.761C299.206 267.171 301.795 267.204 303.344 268.835L307.671 273.39C308.936 274.721 311.068 274.693 312.296 273.327V273.327C313.504 271.986 315.589 271.931 316.865 273.207L317.518 273.859V263.359Z" fill="#52BE97"/>
<path d="M293.518 279.359C293.518 281.569 295.308 283.359 297.518 283.359H313.518C315.727 283.359 317.518 281.569 317.518 279.359V273.859L316.865 273.207C315.589 271.931 313.504 271.986 312.296 273.327V273.327C311.068 274.693 308.936 274.721 307.671 273.39L303.344 268.835C301.795 267.204 299.206 267.171 297.616 268.761L293.518 272.859V279.359Z" fill="#3E9676"/>
<rect x="283.518" y="212.859" width="38" height="31" rx="8.85626" fill="#101126"/>
<path fill-rule="evenodd" clip-rule="evenodd" d="M317.518 220.359C317.518 218.15 315.727 216.359 313.518 216.359H297.518C295.308 216.359 293.518 218.15 293.518 220.359V229.859L297.616 225.761C299.206 224.171 301.795 224.204 303.344 225.835L307.671 230.39C308.936 231.721 311.068 231.693 312.296 230.327V230.327C313.504 228.986 315.589 228.931 316.865 230.207L317.518 230.859V220.359Z" fill="#52BE97"/>
<path d="M293.518 236.359C293.518 238.569 295.308 240.359 297.518 240.359H313.518C315.727 240.359 317.518 238.569 317.518 236.359V230.859L316.865 230.207C315.589 228.931 313.504 228.986 312.296 230.327V230.327C311.068 231.693 308.936 231.721 307.671 230.39L303.344 225.835C301.795 224.204 299.206 224.171 297.616 225.761L293.518 229.859V236.359Z" fill="#3E9676"/>
<rect x="283.518" y="169.859" width="38" height="31" rx="8.85626" fill="#101126"/>
<path fill-rule="evenodd" clip-rule="evenodd" d="M317.518 177.359C317.518 175.15 315.727 173.359 313.518 173.359H297.518C295.308 173.359 293.518 175.15 293.518 177.359V186.859L297.616 182.761C299.206 181.171 301.795 181.204 303.344 182.835L307.671 187.39C308.936 188.721 311.068 188.693 312.296 187.327V187.327C313.504 185.986 315.589 185.931 316.865 187.207L317.518 187.859V177.359Z" fill="#52BE97"/>
<path d="M293.518 193.359C293.518 195.569 295.308 197.359 297.518 197.359H313.518C315.727 197.359 317.518 195.569 317.518 193.359V187.859L316.865 187.207C315.589 185.931 313.504 185.986 312.296 187.327V187.327C311.068 188.693 308.936 188.721 307.671 187.39L303.344 182.835C301.795 181.204 299.206 181.171 297.616 182.761L293.518 186.859V193.359Z" fill="#3E9676"/>
<path d="M51.5176 264.789C51.5176 263.723 52.3813 262.859 53.4467 262.859H61.1632C62.2287 262.859 63.0924 263.723 63.0924 264.789V277.893C63.0924 278.752 62.0534 279.183 61.4457 278.575L58.6691 275.798C57.9157 275.045 56.6942 275.045 55.9409 275.798L53.1642 278.575C52.5566 279.183 51.5176 278.752 51.5176 277.893V264.789Z" fill="#52BE97"/>
</svg>
