<svg width="342" height="374" viewBox="0 0 342 374" fill="none" xmlns="http://www.w3.org/2000/svg">
<rect x="22.1533" y="134.984" width="319.14" height="172.999" rx="18.1689" fill="#191A34"/>
<path d="M21.8818 82.8485C21.8818 72.8142 30.0163 64.6797 40.0507 64.6797H235.349C245.383 64.6797 253.518 72.8142 253.518 82.8486V92.5634C253.518 102.598 245.383 110.732 235.349 110.732H40.0507C30.0163 110.732 21.8818 102.598 21.8818 92.5634V82.8485Z" fill="#191A34"/>
<rect x="38.4131" y="169.773" width="37.7306" height="30.7017" rx="8.85626" fill="#101126"/>
<rect x="38.4131" y="212.875" width="37.7306" height="30.7017" rx="8.85626" fill="#101126"/>
<rect x="38.4131" y="255.977" width="37.7306" height="30.7017" rx="8.85626" fill="#101126"/>
<path d="M51.5176 221.869C51.5176 220.803 52.3813 219.939 53.4467 219.939H61.1632C62.2287 219.939 63.0924 220.803 63.0924 221.869V234.973C63.0924 235.832 62.0534 236.263 61.4457 235.655L58.6691 232.878C57.9157 232.125 56.6942 232.125 55.9409 232.878L53.1642 235.655C52.5566 236.263 51.5176 235.832 51.5176 234.973V221.869Z" fill="#9395B5"/>
<path d="M51.5176 179.869C51.5176 178.803 52.3813 177.939 53.4467 177.939H61.1632C62.2287 177.939 63.0924 178.803 63.0924 179.869V192.973C63.0924 193.832 62.0534 194.263 61.4457 193.655L58.6691 190.878C57.9157 190.125 56.6942 190.125 55.9409 190.878L53.1642 193.655C52.5566 194.263 51.5176 193.832 51.5176 192.973V179.869Z" fill="#9395B5"/>
<path d="M50.1161 115.209L49.41 119.14H45.4927L46.1988 115.209L34.4404 115.209L32.3637 126.769H36.6925V130.622H31.6772L30.4297 137.534C30.3467 137.994 29.9401 138.329 29.4652 138.329H27.5367C26.9272 138.329 26.4657 137.788 26.5722 137.197L27.7589 130.622H21.0882C20.4797 130.622 20.0184 130.082 20.1233 129.493L20.4662 127.566C20.5482 127.105 20.9552 126.769 21.4311 126.769H28.4446L30.5213 115.209H23.8506C23.2421 115.209 22.7808 114.669 22.8857 114.079L23.2286 112.153C23.3106 111.692 23.7176 111.355 24.1935 111.355H31.207L32.4545 104.443C32.5375 103.984 32.944 103.648 33.419 103.648H35.3475C35.9569 103.648 36.4185 104.19 36.3119 104.78L35.1252 111.355L46.8835 111.356L48.131 104.444C48.214 103.984 48.6205 103.649 49.0955 103.649H51.024C51.6334 103.649 52.095 104.19 51.9884 104.781L50.8018 111.356H57.4724C58.081 111.356 58.5422 111.896 58.4373 112.485L58.0945 114.412C58.0124 114.873 57.6054 115.209 57.1296 115.209H50.1161Z" fill="white"/>
<path d="M42.3397 122.839C41.3009 122.839 40.4589 123.668 40.4589 124.689V136.83C40.4589 137.851 41.3009 138.679 42.3397 138.679H44.2204C44.4802 138.679 44.6906 138.886 44.6906 139.142V143.069C44.6906 143.47 45.1738 143.681 45.4761 143.412L50.2661 139.157C50.6117 138.849 51.0612 138.679 51.5271 138.679H60.207C61.2458 138.679 62.0878 137.851 62.0878 136.83V124.689C62.0878 123.668 61.2458 122.839 60.207 122.839H42.3397Z" fill="white"/>
<rect x="0.0341797" y="87.707" width="277.414" height="63.7975" rx="18.1689" fill="#353758"/>
<path d="M45.8419 112.461L45.2364 115.811H41.8771L42.4826 112.461L32.399 112.46L30.6181 122.315H34.3304V125.6H30.0294L28.9595 131.492C28.8884 131.884 28.5397 132.169 28.1324 132.169H26.4786C25.9559 132.169 25.5602 131.708 25.6515 131.205L26.6692 125.6H20.9487C20.4268 125.6 20.0312 125.139 20.1212 124.637L20.4152 122.994C20.4856 122.602 20.8346 122.315 21.2427 122.315H27.2572L29.0381 112.46H23.3176C22.7957 112.46 22.4002 112 22.4901 111.497L22.7841 109.855C22.8545 109.462 23.2035 109.175 23.6116 109.175H29.6261L30.6959 103.283C30.7671 102.891 31.1157 102.605 31.5231 102.605H33.1769C33.6995 102.605 34.0953 103.067 34.0039 103.57L32.9863 109.175L43.0697 109.176L44.1396 103.284C44.2107 102.892 44.5594 102.606 44.9667 102.606H46.6205C47.1431 102.606 47.5389 103.068 47.4475 103.571L46.4299 109.176H52.1504C52.6723 109.176 53.0678 109.636 52.9779 110.138L52.6839 111.781C52.6135 112.174 52.2645 112.461 51.8564 112.461H45.8419Z" fill="white"/>
<path d="M39.1731 118.965C38.2823 118.965 37.5602 119.671 37.5602 120.542V130.892C37.5602 131.762 38.2823 132.468 39.1731 132.468H40.786C41.0088 132.468 41.1892 132.645 41.1892 132.862V136.21C41.1892 136.552 41.6035 136.732 41.8628 136.503L45.9706 132.875C46.267 132.613 46.6524 132.468 47.0519 132.468H54.4955C55.3863 132.468 56.1084 131.762 56.1084 130.892V120.542C56.1084 119.671 55.3863 118.965 54.4955 118.965H39.1731Z" fill="white"/>
<path d="M73.0539 114.353C77.3222 114.353 80.9317 117.389 80.9317 121.915C80.9317 126.47 77.3222 129.507 73.0539 129.507C68.6996 129.507 65.0902 126.47 65.0902 121.915C65.0902 117.389 68.6996 114.353 73.0539 114.353ZM73.0539 125.639C74.83 125.639 76.5201 124.178 76.5201 121.915C76.5201 119.681 74.83 118.191 73.0539 118.191C71.1919 118.191 69.5017 119.681 69.5017 121.915C69.5017 124.178 71.1919 125.639 73.0539 125.639ZM92.3484 114.295C96.1584 114.295 99.3668 117.389 99.3668 121.915C99.3668 126.47 96.1584 129.535 92.3484 129.535C90.4864 129.535 88.9968 128.962 87.8796 127.96V133.975H83.2961V114.725H87.8796V115.871C88.9968 114.868 90.4864 114.295 92.3484 114.295ZM91.4031 125.639C93.4083 125.639 94.8693 124.15 94.8693 121.915C94.8693 119.709 93.4083 118.191 91.4031 118.191C89.5411 118.191 87.8796 119.709 87.8796 121.915C87.8796 124.15 89.5411 125.639 91.4031 125.639ZM110.784 114.295C114.594 114.295 117.802 117.389 117.802 121.915C117.802 126.47 114.594 129.535 110.784 129.535C108.922 129.535 107.432 128.962 106.315 127.96V133.975H101.732V114.725H106.315V115.871C107.432 114.868 108.922 114.295 110.784 114.295ZM109.839 125.639C111.844 125.639 113.305 124.15 113.305 121.915C113.305 119.709 111.844 118.191 109.839 118.191C107.977 118.191 106.315 119.709 106.315 121.915C106.315 124.15 107.977 125.639 109.839 125.639ZM127.186 114.353C131.454 114.353 135.063 117.389 135.063 121.915C135.063 126.47 131.454 129.507 127.186 129.507C122.831 129.507 119.222 126.47 119.222 121.915C119.222 117.389 122.831 114.353 127.186 114.353ZM127.186 125.639C128.962 125.639 130.652 124.178 130.652 121.915C130.652 119.681 128.962 118.191 127.186 118.191C125.324 118.191 123.634 119.681 123.634 121.915C123.634 124.178 125.324 125.639 127.186 125.639ZM146.967 114.524C147.368 114.524 147.655 114.553 147.998 114.639L147.798 119.222H146.967C143.759 119.222 142.011 120.884 142.011 124.608V129.105H137.428V114.725H142.011V117.475C143.043 115.756 144.618 114.524 146.967 114.524ZM159.809 124.866L160.869 128.475C159.752 129.077 158.577 129.535 156.944 129.535C153.364 129.535 151.215 127.587 151.215 123.806V118.363H148.608V114.725H151.215V110.485H155.799V114.725H160.038V118.363H155.799V123.348C155.799 124.837 156.515 125.439 157.718 125.439C158.348 125.439 159.208 125.21 159.809 124.866ZM176.706 114.725V129.105H172.123V127.73C171.034 128.876 169.516 129.535 167.711 129.535C164.36 129.535 162.125 127.158 162.125 123.548V114.725H166.68V122.574C166.68 124.264 167.683 125.41 169.144 125.41C170.948 125.41 172.123 124.178 172.123 121.4V114.725H176.706ZM189.029 114.295C192.381 114.295 194.615 116.673 194.615 120.282V129.105H190.06V121.256C190.06 119.566 189.058 118.42 187.597 118.42C185.792 118.42 184.617 119.652 184.617 122.431V129.105H180.034V114.725H184.617V116.1C185.706 114.954 187.224 114.295 189.029 114.295ZM200.263 107.878C201.81 107.878 202.927 109.082 202.927 110.485C202.927 111.946 201.81 113.035 200.263 113.035C198.716 113.035 197.628 111.946 197.628 110.485C197.628 109.082 198.716 107.878 200.263 107.878ZM202.555 129.105H197.971V114.725H202.555V129.105ZM215.703 124.866L216.763 128.475C215.646 129.077 214.471 129.535 212.839 129.535C209.258 129.535 207.109 127.587 207.109 123.806V118.363H204.503V114.725H207.109V110.485H211.693V114.725H215.932V118.363H211.693V123.348C211.693 124.837 212.409 125.439 213.612 125.439C214.242 125.439 215.102 125.21 215.703 124.866ZM221.021 107.878C222.567 107.878 223.685 109.082 223.685 110.485C223.685 111.946 222.567 113.035 221.021 113.035C219.474 113.035 218.385 111.946 218.385 110.485C218.385 109.082 219.474 107.878 221.021 107.878ZM223.312 129.105H218.729V114.725H223.312V129.105ZM240.958 121.915V123.09H230.416C230.789 124.808 231.963 125.868 233.51 125.868C234.57 125.868 235.802 125.611 236.575 124.207L240.643 125.038C239.411 128.074 236.805 129.535 233.51 129.535C229.356 129.535 225.919 126.47 225.919 121.915C225.919 117.389 229.356 114.295 233.539 114.295C237.607 114.295 240.872 117.217 240.958 121.915ZM233.539 118.019C232.25 118.019 230.932 118.821 230.502 120.282H236.432C236.002 118.735 234.857 118.019 233.539 118.019ZM242.368 125.353L246.836 124.436C247.037 125.668 248.154 126.126 249.386 126.126C250.589 126.126 251.248 125.611 251.248 124.98C251.248 124.493 250.876 124.121 249.816 123.92L246.894 123.348C244.23 122.861 242.711 121.428 242.711 119.165C242.711 116.215 245.261 114.295 248.899 114.295C252.48 114.295 254.857 115.928 255.43 118.42L251.248 119.251C251.105 118.363 250.245 117.561 248.842 117.561C247.61 117.561 247.209 118.163 247.209 118.678C247.209 119.079 247.381 119.48 248.297 119.681L251.678 120.368C254.399 120.941 255.66 122.574 255.66 124.694C255.66 127.874 252.909 129.535 249.128 129.535C245.748 129.535 242.855 128.303 242.368 125.353Z" fill="white"/>
<rect x="89.5176" y="255.939" width="232" height="31" rx="8.85626" fill="#101126"/>
<path d="M102.18 276.439H100.92V265.759H102.18V276.439ZM109.145 268.389C111.042 268.389 112.301 269.744 112.301 271.737V276.439H111.089V271.96C111.089 270.493 110.213 269.505 108.905 269.505C107.264 269.505 106.18 270.621 106.18 272.661V276.439H104.968V268.58H106.18V269.888C106.817 268.931 107.821 268.389 109.145 268.389ZM123.109 268.389C125.006 268.389 126.265 269.744 126.265 271.737V276.439H125.054V271.96C125.054 270.493 124.177 269.505 122.87 269.505C121.228 269.505 120.144 270.621 120.144 272.661V276.439H118.932V268.58H120.144V269.888C120.781 268.931 121.786 268.389 123.109 268.389ZM136.085 272.311V272.757H129.342C129.454 274.527 130.793 275.579 132.148 275.579C133.264 275.579 134.268 275.148 134.826 273.889L135.91 274.144C135.288 275.786 133.917 276.647 132.148 276.647C130.06 276.647 128.163 275.037 128.163 272.534C128.163 270.015 130.06 268.389 132.228 268.389C134.348 268.389 136.006 269.967 136.085 272.311ZM132.228 269.457C130.952 269.457 129.629 270.302 129.39 271.848H134.858C134.635 270.302 133.535 269.457 132.228 269.457ZM145.379 272.311V272.757H138.636C138.748 274.527 140.087 275.579 141.442 275.579C142.558 275.579 143.562 275.148 144.12 273.889L145.204 274.144C144.582 275.786 143.211 276.647 141.442 276.647C139.353 276.647 137.456 275.037 137.456 272.534C137.456 270.015 139.353 268.389 141.521 268.389C143.642 268.389 145.3 269.967 145.379 272.311ZM141.521 269.457C140.246 269.457 138.923 270.302 138.684 271.848H144.152C143.929 270.302 142.829 269.457 141.521 269.457ZM155.008 264.962V276.439H153.796V275.196C153.095 276.121 151.979 276.647 150.672 276.647C148.584 276.647 146.75 275.005 146.75 272.518C146.75 270.031 148.584 268.389 150.672 268.389C151.979 268.389 153.095 268.915 153.796 269.84V264.962H155.008ZM150.863 275.563C152.346 275.563 153.796 274.383 153.796 272.518C153.796 270.637 152.346 269.457 150.863 269.457C149.237 269.457 147.93 270.637 147.93 272.518C147.93 274.383 149.237 275.563 150.863 275.563ZM165.296 268.405C167.607 268.405 169.457 270.095 169.457 272.502C169.457 274.909 167.607 276.631 165.296 276.631C162.953 276.631 161.119 274.909 161.119 272.502C161.119 270.095 162.953 268.405 165.296 268.405ZM165.296 275.563C166.906 275.563 168.261 274.319 168.261 272.502C168.261 270.701 166.906 269.473 165.296 269.473C163.67 269.473 162.299 270.701 162.299 272.502C162.299 274.319 163.67 275.563 165.296 275.563ZM175.809 269.601H172.956V276.439H171.744V269.601H170.373V268.58H171.744V267.417C171.744 265.759 172.796 264.691 174.438 264.691C174.901 264.691 175.331 264.786 175.714 264.978L175.411 265.966C175.124 265.854 174.805 265.791 174.518 265.791C173.562 265.791 172.956 266.412 172.956 267.417V268.58H175.809V269.601ZM190.689 268.389C192.347 268.389 193.622 269.569 193.622 271.354V276.439H192.411V271.561C192.411 270.318 191.566 269.505 190.386 269.505C188.935 269.505 187.979 270.573 187.979 272.422V276.439H186.767V271.561C186.767 270.318 185.923 269.505 184.759 269.505C183.308 269.505 182.368 270.573 182.368 272.422V276.439H181.156V268.58H182.368V269.776C182.926 268.915 183.818 268.389 185.046 268.389C186.257 268.389 187.262 268.979 187.724 269.983C188.33 269.011 189.35 268.389 190.689 268.389ZM199.7 268.405C202.012 268.405 203.861 270.095 203.861 272.502C203.861 274.909 202.012 276.631 199.7 276.631C197.357 276.631 195.524 274.909 195.524 272.502C195.524 270.095 197.357 268.405 199.7 268.405ZM199.7 275.563C201.31 275.563 202.665 274.319 202.665 272.502C202.665 270.701 201.31 269.473 199.7 269.473C198.074 269.473 196.703 270.701 196.703 272.502C196.703 274.319 198.074 275.563 199.7 275.563ZM213.48 264.962V276.439H212.268V275.196C211.567 276.121 210.451 276.647 209.144 276.647C207.056 276.647 205.222 275.005 205.222 272.518C205.222 270.031 207.056 268.389 209.144 268.389C210.451 268.389 211.567 268.915 212.268 269.84V264.962H213.48ZM209.335 275.563C210.818 275.563 212.268 274.383 212.268 272.518C212.268 270.637 210.818 269.457 209.335 269.457C207.709 269.457 206.402 270.637 206.402 272.518C206.402 274.383 207.709 275.563 209.335 275.563ZM215.623 274.319L216.834 274.048C216.946 275.084 217.902 275.642 219.146 275.642C220.278 275.642 221.027 275.116 221.027 274.303C221.027 273.65 220.533 273.347 219.736 273.171L217.934 272.773C216.627 272.502 215.894 271.848 215.894 270.764C215.894 269.346 217.073 268.389 218.875 268.389C220.644 268.389 221.792 269.298 222.079 270.573L220.915 270.828C220.756 269.967 220.007 269.377 218.843 269.377C217.727 269.377 217.105 269.919 217.105 270.669C217.105 271.29 217.536 271.577 218.301 271.753L220.198 272.167C221.346 272.422 222.222 273.028 222.222 274.224C222.222 275.77 220.931 276.647 219.05 276.647C217.249 276.647 215.814 275.85 215.623 274.319ZM225.775 265.759V266.253L225.727 273.267H224.484L224.452 266.253V265.759H225.775ZM225.106 274.877C225.584 274.877 225.934 275.26 225.934 275.69C225.934 276.137 225.584 276.487 225.106 276.487C224.627 276.487 224.277 276.137 224.277 275.69C224.277 275.26 224.627 274.877 225.106 274.877Z" fill="#C3C4D9"/>
<rect x="89.5176" y="212.939" width="232" height="31" rx="8.85626" fill="#101126"/>
<path d="M105.926 222.552C109.019 222.552 111.442 225.007 111.442 228.099C111.442 231.208 109.019 233.647 105.926 233.647C102.817 233.647 100.394 231.208 100.394 228.099C100.394 225.007 102.817 222.552 105.926 222.552ZM105.926 232.451C108.301 232.451 110.166 230.57 110.166 228.099C110.166 225.644 108.301 223.731 105.926 223.731C103.535 223.731 101.67 225.644 101.67 228.099C101.67 230.57 103.535 232.451 105.926 232.451ZM118.069 226.601H115.215V233.439H114.004V226.601H112.633V225.58H114.004V224.417C114.004 222.759 115.056 221.691 116.698 221.691C117.16 221.691 117.591 221.786 117.973 221.978L117.67 222.966C117.384 222.854 117.065 222.791 116.778 222.791C115.821 222.791 115.215 223.412 115.215 224.417V225.58H118.069V226.601ZM123.409 226.601H120.555V233.439H119.344V226.601H117.973V225.58H119.344V224.417C119.344 222.759 120.396 221.691 122.038 221.691C122.5 221.691 122.93 221.786 123.313 221.978L123.01 222.966C122.723 222.854 122.404 222.791 122.117 222.791C121.161 222.791 120.555 223.412 120.555 224.417V225.58H123.409V226.601ZM131.867 229.311V229.757H125.123C125.235 231.527 126.574 232.579 127.929 232.579C129.045 232.579 130.049 232.148 130.607 230.889L131.691 231.144C131.069 232.786 129.699 233.647 127.929 233.647C125.841 233.647 123.944 232.037 123.944 229.534C123.944 227.015 125.841 225.389 128.009 225.389C130.129 225.389 131.787 226.967 131.867 229.311ZM128.009 226.457C126.733 226.457 125.41 227.302 125.171 228.848H130.639C130.416 227.302 129.316 226.457 128.009 226.457ZM138.339 225.501C138.53 225.501 138.674 225.501 138.897 225.564L138.801 226.728C138.658 226.712 138.482 226.712 138.339 226.712C136.251 226.712 135.182 228.29 135.182 230.411V233.439H133.955V225.58H135.182V227.509C135.82 226.346 136.888 225.501 138.339 225.501ZM141.258 222.392C141.736 222.392 142.103 222.775 142.103 223.205C142.103 223.667 141.736 224.018 141.258 224.018C140.78 224.018 140.429 223.667 140.429 223.205C140.429 222.775 140.78 222.392 141.258 222.392ZM141.88 233.439H140.652V225.58H141.88V233.439ZM148.982 225.389C150.879 225.389 152.139 226.744 152.139 228.737V233.439H150.927V228.96C150.927 227.493 150.05 226.505 148.743 226.505C147.101 226.505 146.017 227.621 146.017 229.661V233.439H144.806V225.58H146.017V226.888C146.655 225.931 147.659 225.389 148.982 225.389ZM162.039 225.58L162.054 232.802C162.039 235.097 160.476 236.468 158.101 236.468C156.156 236.468 154.865 235.703 154.259 234.428L155.279 233.726C155.837 234.779 156.634 235.368 158.101 235.368C159.759 235.368 160.859 234.316 160.859 232.642V231.686C160.221 232.515 159.217 232.977 157.91 232.977C155.837 232.977 154.036 231.399 154.036 229.167C154.036 226.951 155.837 225.389 157.91 225.389C159.217 225.389 160.221 225.851 160.859 226.664V225.58H162.039ZM158.085 231.925C159.552 231.925 160.859 230.841 160.859 229.167C160.859 227.493 159.552 226.441 158.085 226.441C156.491 226.441 155.216 227.493 155.216 229.167C155.216 230.841 156.491 231.925 158.085 231.925ZM178.343 233.439H176.988L175.792 230.729H170.165L168.969 233.439H167.614L172.397 222.759H173.56L178.343 233.439ZM175.298 229.598L172.986 224.321L170.659 229.598H175.298ZM184.295 225.501C184.486 225.501 184.629 225.501 184.852 225.564L184.757 226.728C184.613 226.712 184.438 226.712 184.295 226.712C182.206 226.712 181.138 228.29 181.138 230.411V233.439H179.911V225.58H181.138V227.509C181.776 226.346 182.844 225.501 184.295 225.501ZM190.956 232.021L191.355 233.025C190.717 233.471 190.175 233.647 189.537 233.647C187.975 233.647 186.939 232.722 186.939 230.984V226.601H185.233V225.58H186.939V223.078H188.166V225.58H190.972V226.601H188.166V230.905C188.166 231.925 188.74 232.499 189.617 232.499C190.063 232.499 190.557 232.308 190.956 232.021ZM200.481 222.552C202.617 222.552 204.116 223.731 204.482 225.485L203.223 225.772C202.984 224.48 201.916 223.652 200.449 223.652C199.014 223.652 198.026 224.433 198.026 225.58C198.026 226.537 198.632 226.967 199.636 227.175L201.964 227.701C203.446 228.019 204.658 228.769 204.658 230.474C204.658 232.419 203.079 233.647 200.688 233.647C198.425 233.647 196.607 232.483 196.352 230.458L197.675 230.187C197.914 231.686 199.142 232.531 200.8 232.531C202.426 232.531 203.398 231.718 203.398 230.538C203.398 229.534 202.856 229.135 201.661 228.864L199.254 228.338C197.883 228.035 196.687 227.318 196.687 225.612C196.687 223.779 198.201 222.552 200.481 222.552ZM214.126 229.311V229.757H207.383C207.494 231.527 208.833 232.579 210.188 232.579C211.304 232.579 212.309 232.148 212.867 230.889L213.951 231.144C213.329 232.786 211.958 233.647 210.188 233.647C208.1 233.647 206.203 232.037 206.203 229.534C206.203 227.015 208.1 225.389 210.268 225.389C212.388 225.389 214.046 226.967 214.126 229.311ZM210.268 226.457C208.993 226.457 207.67 227.302 207.431 228.848H212.899C212.675 227.302 211.575 226.457 210.268 226.457ZM220.598 225.501C220.79 225.501 220.933 225.501 221.156 225.564L221.061 226.728C220.917 226.712 220.742 226.712 220.598 226.712C218.51 226.712 217.442 228.29 217.442 230.411V233.439H216.214V225.58H217.442V227.509C218.08 226.346 219.148 225.501 220.598 225.501ZM229.942 225.58L226.466 233.439H225.143L221.668 225.58H222.991L225.813 232.005L228.618 225.58H229.942ZM232.36 222.392C232.838 222.392 233.205 222.775 233.205 223.205C233.205 223.667 232.838 224.018 232.36 224.018C231.881 224.018 231.531 223.667 231.531 223.205C231.531 222.775 231.881 222.392 232.36 222.392ZM232.981 233.439H231.754V225.58H232.981V233.439ZM239.287 232.515C240.451 232.515 241.503 231.925 241.885 230.745L243.001 231.048C242.571 232.658 241.025 233.647 239.287 233.647C237.071 233.647 235.19 232.021 235.19 229.518C235.19 227.047 237.071 225.389 239.287 225.389C241.009 225.389 242.539 226.393 243.017 228.003L241.854 228.354C241.503 227.143 240.451 226.505 239.287 226.505C237.677 226.505 236.37 227.717 236.37 229.518C236.37 231.351 237.677 232.515 239.287 232.515ZM252.298 229.311V229.757H245.555C245.666 231.527 247.005 232.579 248.36 232.579C249.476 232.579 250.481 232.148 251.039 230.889L252.123 231.144C251.501 232.786 250.13 233.647 248.36 233.647C246.272 233.647 244.375 232.037 244.375 229.534C244.375 227.015 246.272 225.389 248.44 225.389C250.56 225.389 252.218 226.967 252.298 229.311ZM248.44 226.457C247.165 226.457 245.842 227.302 245.603 228.848H251.07C250.847 227.302 249.747 226.457 248.44 226.457ZM253.717 231.319L254.928 231.048C255.04 232.084 255.996 232.642 257.24 232.642C258.372 232.642 259.121 232.116 259.121 231.303C259.121 230.65 258.627 230.347 257.83 230.171L256.028 229.773C254.721 229.502 253.988 228.848 253.988 227.764C253.988 226.346 255.167 225.389 256.969 225.389C258.738 225.389 259.886 226.298 260.173 227.573L259.009 227.828C258.85 226.967 258.101 226.377 256.937 226.377C255.821 226.377 255.199 226.919 255.199 227.669C255.199 228.29 255.63 228.577 256.395 228.753L258.292 229.167C259.44 229.422 260.316 230.028 260.316 231.224C260.316 232.77 259.025 233.647 257.144 233.647C255.343 233.647 253.908 232.85 253.717 231.319Z" fill="#C3C4D9"/>
<rect x="89.5176" y="169.939" width="232" height="31" rx="8.85626" fill="#101126"/>
<path d="M108.301 189.292V190.439H100.92V179.759H102.18V189.292H108.301ZM113.72 182.405C116.032 182.405 117.881 184.095 117.881 186.502C117.881 188.909 116.032 190.631 113.72 190.631C111.377 190.631 109.544 188.909 109.544 186.502C109.544 184.095 111.377 182.405 113.72 182.405ZM113.72 189.563C115.33 189.563 116.685 188.319 116.685 186.502C116.685 184.701 115.33 183.473 113.72 183.473C112.094 183.473 110.723 184.701 110.723 186.502C110.723 188.319 112.094 189.563 113.72 189.563ZM123.419 182.405C125.73 182.405 127.58 184.095 127.58 186.502C127.58 188.909 125.73 190.631 123.419 190.631C121.076 190.631 119.242 188.909 119.242 186.502C119.242 184.095 121.076 182.405 123.419 182.405ZM123.419 189.563C125.029 189.563 126.384 188.319 126.384 186.502C126.384 184.701 125.029 183.473 123.419 183.473C121.793 183.473 120.422 184.701 120.422 186.502C120.422 188.319 121.793 189.563 123.419 189.563ZM137.326 190.439H135.636L131.396 186.964H130.87V190.439H129.658V178.962H130.87V185.769H131.46L135.238 182.58H136.816L132.352 186.39L137.326 190.439ZM139.545 179.392C140.024 179.392 140.39 179.775 140.39 180.205C140.39 180.667 140.024 181.018 139.545 181.018C139.067 181.018 138.716 180.667 138.716 180.205C138.716 179.775 139.067 179.392 139.545 179.392ZM140.167 190.439H138.94V182.58H140.167V190.439ZM147.27 182.389C149.167 182.389 150.426 183.744 150.426 185.737V190.439H149.215V185.96C149.215 184.493 148.338 183.505 147.031 183.505C145.389 183.505 144.305 184.621 144.305 186.661V190.439H143.093V182.58H144.305V183.888C144.942 182.931 145.947 182.389 147.27 182.389ZM160.326 182.58L160.342 189.802C160.326 192.097 158.764 193.468 156.389 193.468C154.444 193.468 153.152 192.703 152.547 191.428L153.567 190.726C154.125 191.779 154.922 192.368 156.389 192.368C158.046 192.368 159.146 191.316 159.146 189.642V188.686C158.509 189.515 157.504 189.977 156.197 189.977C154.125 189.977 152.324 188.399 152.324 186.167C152.324 183.951 154.125 182.389 156.197 182.389C157.504 182.389 158.509 182.851 159.146 183.664V182.58H160.326ZM156.373 188.925C157.839 188.925 159.146 187.841 159.146 186.167C159.146 184.493 157.839 183.441 156.373 183.441C154.779 183.441 153.503 184.493 153.503 186.167C153.503 187.841 154.779 188.925 156.373 188.925ZM171.497 183.601H168.644V190.439H167.432V183.601H166.061V182.58H167.432V181.417C167.432 179.759 168.484 178.691 170.126 178.691C170.589 178.691 171.019 178.786 171.402 178.978L171.099 179.966C170.812 179.854 170.493 179.791 170.206 179.791C169.249 179.791 168.644 180.412 168.644 181.417V182.58H171.497V183.601ZM176.209 182.405C178.52 182.405 180.369 184.095 180.369 186.502C180.369 188.909 178.52 190.631 176.209 190.631C173.865 190.631 172.032 188.909 172.032 186.502C172.032 184.095 173.865 182.405 176.209 182.405ZM176.209 189.563C177.819 189.563 179.174 188.319 179.174 186.502C179.174 184.701 177.819 183.473 176.209 183.473C174.583 183.473 173.212 184.701 173.212 186.502C173.212 188.319 174.583 189.563 176.209 189.563ZM186.832 182.501C187.023 182.501 187.167 182.501 187.39 182.564L187.294 183.728C187.151 183.712 186.976 183.712 186.832 183.712C184.744 183.712 183.676 185.29 183.676 187.411V190.439H182.448V182.58H183.676V184.509C184.313 183.346 185.381 182.501 186.832 182.501ZM202.519 190.439H201.164L199.969 187.729H194.341L193.146 190.439H191.791L196.573 179.759H197.737L202.519 190.439ZM199.474 186.598L197.163 181.321L194.836 186.598H199.474ZM211.472 178.962V190.439H210.26V189.196C209.559 190.121 208.443 190.647 207.136 190.647C205.047 190.647 203.214 189.005 203.214 186.518C203.214 184.031 205.047 182.389 207.136 182.389C208.443 182.389 209.559 182.915 210.26 183.84V178.962H211.472ZM207.327 189.563C208.81 189.563 210.26 188.383 210.26 186.518C210.26 184.637 208.81 183.457 207.327 183.457C205.701 183.457 204.394 184.637 204.394 186.518C204.394 188.383 205.701 189.563 207.327 189.563ZM223.817 182.389C225.475 182.389 226.75 183.569 226.75 185.354V190.439H225.539V185.561C225.539 184.318 224.694 183.505 223.514 183.505C222.063 183.505 221.107 184.573 221.107 186.422V190.439H219.895V185.561C219.895 184.318 219.05 183.505 217.887 183.505C216.436 183.505 215.496 184.573 215.496 186.422V190.439H214.284V182.58H215.496V183.776C216.054 182.915 216.946 182.389 218.174 182.389C219.385 182.389 220.39 182.979 220.852 183.983C221.458 183.011 222.478 182.389 223.817 182.389ZM230.102 179.392C230.581 179.392 230.947 179.775 230.947 180.205C230.947 180.667 230.581 181.018 230.102 181.018C229.624 181.018 229.273 180.667 229.273 180.205C229.273 179.775 229.624 179.392 230.102 179.392ZM230.724 190.439H229.497V182.58H230.724V190.439ZM237.827 182.389C239.724 182.389 240.983 183.744 240.983 185.737V190.439H239.772V185.96C239.772 184.493 238.895 183.505 237.588 183.505C235.946 183.505 234.862 184.621 234.862 186.661V190.439H233.65V182.58H234.862V183.888C235.499 182.931 236.504 182.389 237.827 182.389ZM242.928 188.319L244.14 188.048C244.252 189.084 245.208 189.642 246.451 189.642C247.583 189.642 248.332 189.116 248.332 188.303C248.332 187.65 247.838 187.347 247.041 187.171L245.24 186.773C243.933 186.502 243.199 185.848 243.199 184.764C243.199 183.346 244.379 182.389 246.18 182.389C247.95 182.389 249.098 183.298 249.385 184.573L248.221 184.828C248.061 183.967 247.312 183.377 246.149 183.377C245.033 183.377 244.411 183.919 244.411 184.669C244.411 185.29 244.841 185.577 245.607 185.753L247.504 186.167C248.651 186.422 249.528 187.028 249.528 188.224C249.528 189.77 248.237 190.647 246.356 190.647C244.554 190.647 243.12 189.85 242.928 188.319ZM251.885 188.877C252.363 188.877 252.714 189.26 252.714 189.69C252.714 190.137 252.363 190.487 251.885 190.487C251.407 190.487 251.056 190.137 251.056 189.69C251.056 189.26 251.407 188.877 251.885 188.877Z" fill="#C3C4D9"/>
<rect x="283.518" y="255.939" width="38" height="31" rx="8.85626" fill="#101126"/>
<path fill-rule="evenodd" clip-rule="evenodd" d="M317.518 263.439C317.518 261.23 315.727 259.439 313.518 259.439H297.518C295.308 259.439 293.518 261.23 293.518 263.439V272.939L297.616 268.841C299.206 267.251 301.795 267.284 303.344 268.915L307.671 273.47C308.936 274.801 311.068 274.773 312.296 273.407C313.504 272.066 315.589 272.011 316.865 273.287L317.518 273.939V263.439Z" fill="#52BE97"/>
<path d="M293.518 279.439C293.518 281.649 295.308 283.439 297.518 283.439H313.518C315.727 283.439 317.518 281.649 317.518 279.439V273.939L316.865 273.287C315.589 272.011 313.504 272.066 312.296 273.407C311.068 274.773 308.936 274.801 307.671 273.47L303.344 268.915C301.795 267.284 299.206 267.251 297.616 268.841L293.518 272.939V279.439Z" fill="#3E9676"/>
<rect x="283.518" y="212.939" width="38" height="31" rx="8.85626" fill="#101126"/>
<path fill-rule="evenodd" clip-rule="evenodd" d="M317.518 220.439C317.518 218.23 315.727 216.439 313.518 216.439H297.518C295.308 216.439 293.518 218.23 293.518 220.439V229.939L297.616 225.841C299.206 224.251 301.795 224.284 303.344 225.915L307.671 230.47C308.936 231.801 311.068 231.773 312.296 230.407C313.504 229.066 315.589 229.011 316.865 230.287L317.518 230.939V220.439Z" fill="#52BE97"/>
<path d="M293.518 236.439C293.518 238.649 295.308 240.439 297.518 240.439H313.518C315.727 240.439 317.518 238.649 317.518 236.439V230.939L316.865 230.287C315.589 229.011 313.504 229.066 312.296 230.407C311.068 231.773 308.936 231.801 307.671 230.47L303.344 225.915C301.795 224.284 299.206 224.251 297.616 225.841L293.518 229.939V236.439Z" fill="#3E9676"/>
<rect x="283.518" y="169.939" width="38" height="31" rx="8.85626" fill="#101126"/>
<path fill-rule="evenodd" clip-rule="evenodd" d="M317.518 177.439C317.518 175.23 315.727 173.439 313.518 173.439H297.518C295.308 173.439 293.518 175.23 293.518 177.439V186.939L297.616 182.841C299.206 181.251 301.795 181.284 303.344 182.915L307.671 187.47C308.936 188.801 311.068 188.773 312.296 187.407C313.504 186.066 315.589 186.011 316.865 187.287L317.518 187.939V177.439Z" fill="#52BE97"/>
<path d="M293.518 193.439C293.518 195.649 295.308 197.439 297.518 197.439H313.518C315.727 197.439 317.518 195.649 317.518 193.439V187.939L316.865 187.287C315.589 186.011 313.504 186.066 312.296 187.407C311.068 188.773 308.936 188.801 307.671 187.47L303.344 182.915C301.795 181.284 299.206 181.251 297.616 182.841L293.518 186.939V193.439Z" fill="#3E9676"/>
<path d="M51.5176 264.869C51.5176 263.803 52.3813 262.939 53.4467 262.939H61.1632C62.2287 262.939 63.0924 263.803 63.0924 264.869V277.973C63.0924 278.832 62.0534 279.263 61.4457 278.655L58.6691 275.878C57.9157 275.125 56.6942 275.125 55.9409 275.878L53.1642 278.655C52.5566 279.263 51.5176 278.832 51.5176 277.973V264.869Z" fill="#52BE97"/>
</svg>
