<svg width="342" height="374" viewBox="0 0 342 374" fill="none" xmlns="http://www.w3.org/2000/svg">
<rect x="22.4121" y="134.904" width="319.14" height="172.999" rx="18.1689" fill="white"/>
<path d="M22.1406 82.7685C22.1406 72.7341 30.2751 64.5996 40.3095 64.5996H235.607C245.642 64.5996 253.776 72.7341 253.776 82.7685V92.4833C253.776 102.518 245.642 110.652 235.607 110.652H40.3095C30.2751 110.652 22.1406 102.518 22.1406 92.4833V82.7685Z" fill="white"/>
<rect x="38.6719" y="169.693" width="37.7306" height="30.7017" rx="8.85626" fill="#C3F2E1"/>
<rect x="38.6719" y="212.795" width="37.7306" height="30.7017" rx="8.85626" fill="#C3F2E1"/>
<rect x="38.6719" y="255.896" width="37.7306" height="30.7017" rx="8.85626" fill="#C3F2E1"/>
<path d="M51.7764 221.789C51.7764 220.723 52.6401 219.859 53.7055 219.859H61.422C62.4874 219.859 63.3511 220.723 63.3511 221.789V234.893C63.3511 235.752 62.3122 236.183 61.7045 235.575L58.9279 232.798C58.1745 232.045 56.953 232.045 56.1997 232.798L53.423 235.575C52.8153 236.183 51.7764 235.752 51.7764 234.893V221.789Z" fill="#52BE97"/>
<path d="M51.7764 179.789C51.7764 178.723 52.6401 177.859 53.7055 177.859H61.422C62.4874 177.859 63.3511 178.723 63.3511 179.789V192.893C63.3511 193.752 62.3122 194.183 61.7045 193.575L58.9279 190.798C58.1745 190.045 56.953 190.045 56.1997 190.798L53.423 193.575C52.8153 194.183 51.7764 193.752 51.7764 192.893V179.789Z" fill="#52BE97"/>
<path d="M50.3749 115.129L49.6688 119.06H45.7515L46.4576 115.129L34.6992 115.129L32.6225 126.689H36.9513V130.542H31.936L30.6885 137.454C30.6054 137.914 30.1989 138.249 29.724 138.249H27.7954C27.186 138.249 26.7244 137.707 26.831 137.117L28.0177 130.542H21.347C20.7385 130.542 20.2772 130.002 20.3821 129.413L20.725 127.486C20.807 127.025 21.214 126.689 21.6899 126.689H28.7034L30.7801 115.129H24.1094C23.5009 115.129 23.0396 114.589 23.1445 113.999L23.4873 112.072C23.5694 111.611 23.9764 111.275 24.4523 111.275H31.4658L32.7133 104.363C32.7963 103.903 33.2028 103.568 33.6777 103.568H35.6063C36.2157 103.568 36.6772 104.11 36.5707 104.7L35.384 111.275L47.1423 111.276L48.3898 104.364C48.4728 103.904 48.8793 103.569 49.3543 103.569H51.2828C51.8922 103.569 52.3538 104.11 52.2472 104.701L51.0605 111.276H57.7312C58.3398 111.276 58.801 111.816 58.6961 112.405L58.3533 114.332C58.2712 114.793 57.8642 115.129 57.3884 115.129H50.3749Z" fill="white"/>
<path d="M42.5985 122.759C41.5597 122.759 40.7177 123.587 40.7177 124.609V136.75C40.7177 137.771 41.5597 138.599 42.5985 138.599H44.4792C44.739 138.599 44.9494 138.806 44.9494 139.062V142.989C44.9494 143.39 45.4325 143.601 45.7348 143.332L50.5249 139.076C50.8705 138.769 51.32 138.599 51.7858 138.599H60.4658C61.5045 138.599 62.3466 137.771 62.3466 136.75V124.609C62.3466 123.587 61.5045 122.759 60.4658 122.759H42.5985Z" fill="white"/>
<rect x="0.292969" y="87.627" width="277.414" height="63.7975" rx="18.1689" fill="#C3F2E1"/>
<path d="M46.1007 112.38L45.4952 115.731H42.1358L42.7413 112.38L32.6578 112.38L30.8769 122.235H34.5891V125.52H30.2881L29.2183 131.412C29.1471 131.804 28.7985 132.089 28.3912 132.089H26.7374C26.2147 132.089 25.8189 131.628 25.9103 131.125L26.928 125.52H21.2075C20.6856 125.52 20.29 125.059 20.38 124.557L20.674 122.914C20.7443 122.521 21.0934 122.235 21.5015 122.235H27.516L29.2969 112.38H23.5764C23.0545 112.38 22.659 111.92 22.7489 111.417L23.0429 109.775C23.1133 109.382 23.4623 109.095 23.8704 109.095H29.8849L30.9547 103.203C31.0259 102.811 31.3745 102.525 31.7818 102.525H33.4357C33.9583 102.525 34.3541 102.987 34.2627 103.49L33.2451 109.095L43.3285 109.096L44.3983 103.204C44.4695 102.811 44.8181 102.526 45.2254 102.526H46.8793C47.4019 102.526 47.7977 102.987 47.7063 103.491L46.6887 109.096H52.4092C52.9311 109.096 53.3266 109.556 53.2367 110.058L52.9427 111.701C52.8723 112.094 52.5233 112.38 52.1152 112.38H46.1007Z" fill="#4B8A74"/>
<path d="M39.4319 118.885C38.5411 118.885 37.819 119.591 37.819 120.462V130.811C37.819 131.682 38.5411 132.388 39.4319 132.388H41.0448C41.2676 132.388 41.448 132.565 41.448 132.782V136.13C41.448 136.472 41.8623 136.652 42.1216 136.423L46.2294 132.795C46.5257 132.533 46.9112 132.388 47.3107 132.388H54.7543C55.6451 132.388 56.3672 131.682 56.3672 130.811V120.462C56.3672 119.591 55.6451 118.885 54.7543 118.885H39.4319Z" fill="#4B8A74"/>
<path d="M73.3127 114.272C77.581 114.272 81.1905 117.309 81.1905 121.835C81.1905 126.39 77.581 129.426 73.3127 129.426C68.9584 129.426 65.349 126.39 65.349 121.835C65.349 117.309 68.9584 114.272 73.3127 114.272ZM73.3127 125.559C75.0888 125.559 76.7789 124.098 76.7789 121.835C76.7789 119.601 75.0888 118.111 73.3127 118.111C71.4507 118.111 69.7605 119.601 69.7605 121.835C69.7605 124.098 71.4507 125.559 73.3127 125.559ZM92.6072 114.215C96.4172 114.215 99.6256 117.309 99.6256 121.835C99.6256 126.39 96.4172 129.455 92.6072 129.455C90.7452 129.455 89.2556 128.882 88.1384 127.88V133.895H83.5549V114.645H88.1384V115.791C89.2556 114.788 90.7452 114.215 92.6072 114.215ZM91.6619 125.559C93.6671 125.559 95.1281 124.07 95.1281 121.835C95.1281 119.629 93.6671 118.111 91.6619 118.111C89.7999 118.111 88.1384 119.629 88.1384 121.835C88.1384 124.07 89.7999 125.559 91.6619 125.559ZM111.043 114.215C114.853 114.215 118.061 117.309 118.061 121.835C118.061 126.39 114.853 129.455 111.043 129.455C109.181 129.455 107.691 128.882 106.574 127.88V133.895H101.991V114.645H106.574V115.791C107.691 114.788 109.181 114.215 111.043 114.215ZM110.097 125.559C112.103 125.559 113.564 124.07 113.564 121.835C113.564 119.629 112.103 118.111 110.097 118.111C108.235 118.111 106.574 119.629 106.574 121.835C106.574 124.07 108.235 125.559 110.097 125.559ZM127.444 114.272C131.713 114.272 135.322 117.309 135.322 121.835C135.322 126.39 131.713 129.426 127.444 129.426C123.09 129.426 119.481 126.39 119.481 121.835C119.481 117.309 123.09 114.272 127.444 114.272ZM127.444 125.559C129.221 125.559 130.911 124.098 130.911 121.835C130.911 119.601 129.221 118.111 127.444 118.111C125.582 118.111 123.892 119.601 123.892 121.835C123.892 124.098 125.582 125.559 127.444 125.559ZM147.226 114.444C147.627 114.444 147.913 114.473 148.257 114.559L148.057 119.142H147.226C144.018 119.142 142.27 120.804 142.27 124.528V129.025H137.687V114.645H142.27V117.395C143.301 115.676 144.877 114.444 147.226 114.444ZM160.068 124.786L161.128 128.395C160.011 128.997 158.836 129.455 157.203 129.455C153.622 129.455 151.474 127.507 151.474 123.726V118.283H148.867V114.645H151.474V110.405H156.057V114.645H160.297V118.283H156.057V123.267C156.057 124.757 156.774 125.359 157.977 125.359C158.607 125.359 159.466 125.129 160.068 124.786ZM176.965 114.645V129.025H172.382V127.65C171.293 128.796 169.775 129.455 167.97 129.455C164.618 129.455 162.384 127.077 162.384 123.468V114.645H166.939V122.494C166.939 124.184 167.941 125.33 169.402 125.33C171.207 125.33 172.382 124.098 172.382 121.319V114.645H176.965ZM189.288 114.215C192.639 114.215 194.874 116.593 194.874 120.202V129.025H190.319V121.176C190.319 119.486 189.316 118.34 187.855 118.34C186.051 118.34 184.876 119.572 184.876 122.351V129.025H180.293V114.645H184.876V116.02C185.965 114.874 187.483 114.215 189.288 114.215ZM200.522 107.798C202.069 107.798 203.186 109.002 203.186 110.405C203.186 111.866 202.069 112.955 200.522 112.955C198.975 112.955 197.886 111.866 197.886 110.405C197.886 109.002 198.975 107.798 200.522 107.798ZM202.814 129.025H198.23V114.645H202.814V129.025ZM215.962 124.786L217.022 128.395C215.905 128.997 214.73 129.455 213.097 129.455C209.517 129.455 207.368 127.507 207.368 123.726V118.283H204.761V114.645H207.368V110.405H211.952V114.645H216.191V118.283H211.952V123.267C211.952 124.757 212.668 125.359 213.871 125.359C214.501 125.359 215.36 125.129 215.962 124.786ZM221.279 107.798C222.826 107.798 223.943 109.002 223.943 110.405C223.943 111.866 222.826 112.955 221.279 112.955C219.732 112.955 218.644 111.866 218.644 110.405C218.644 109.002 219.732 107.798 221.279 107.798ZM223.571 129.025H218.988V114.645H223.571V129.025ZM241.217 121.835V123.01H230.675C231.048 124.728 232.222 125.788 233.769 125.788C234.829 125.788 236.061 125.531 236.834 124.127L240.902 124.958C239.67 127.994 237.063 129.455 233.769 129.455C229.615 129.455 226.178 126.39 226.178 121.835C226.178 117.309 229.615 114.215 233.798 114.215C237.865 114.215 241.131 117.137 241.217 121.835ZM233.798 117.939C232.509 117.939 231.191 118.741 230.761 120.202H236.691C236.261 118.655 235.115 117.939 233.798 117.939ZM242.626 125.273L247.095 124.356C247.296 125.588 248.413 126.046 249.645 126.046C250.848 126.046 251.507 125.531 251.507 124.9C251.507 124.413 251.134 124.041 250.074 123.84L247.153 123.267C244.488 122.78 242.97 121.348 242.97 119.085C242.97 116.134 245.52 114.215 249.158 114.215C252.739 114.215 255.116 115.848 255.689 118.34L251.507 119.171C251.364 118.283 250.504 117.481 249.1 117.481C247.869 117.481 247.468 118.082 247.468 118.598C247.468 118.999 247.639 119.4 248.556 119.601L251.936 120.288C254.658 120.861 255.918 122.494 255.918 124.614C255.918 127.794 253.168 129.455 249.387 129.455C246.007 129.455 243.113 128.223 242.626 125.273Z" fill="#4B8A74"/>
<rect x="89.7764" y="255.859" width="232" height="31" rx="8.85626" fill="#C3F2E1"/>
<path d="M103.331 276.359H100.701V265.679H103.331V276.359ZM110.19 268.118C112.055 268.118 113.299 269.441 113.299 271.449V276.359H110.764V271.991C110.764 271.051 110.206 270.413 109.393 270.413C108.389 270.413 107.735 271.099 107.735 272.645V276.359H105.184V268.357H107.735V269.122C108.341 268.484 109.186 268.118 110.19 268.118ZM123.749 268.118C125.615 268.118 126.858 269.441 126.858 271.449V276.359H124.323V271.991C124.323 271.051 123.765 270.413 122.952 270.413C121.948 270.413 121.294 271.099 121.294 272.645V276.359H118.744V268.357H121.294V269.122C121.9 268.484 122.745 268.118 123.749 268.118ZM136.441 272.358V273.012H130.575C130.782 273.968 131.436 274.558 132.297 274.558C132.886 274.558 133.572 274.415 134.002 273.633L136.266 274.096C135.58 275.785 134.13 276.598 132.297 276.598C129.985 276.598 128.072 274.893 128.072 272.358C128.072 269.839 129.985 268.118 132.313 268.118C134.576 268.118 136.393 269.744 136.441 272.358ZM132.313 270.19C131.595 270.19 130.862 270.636 130.623 271.449H133.923C133.683 270.589 133.046 270.19 132.313 270.19ZM145.611 272.358V273.012H139.744C139.951 273.968 140.605 274.558 141.466 274.558C142.056 274.558 142.741 274.415 143.172 273.633L145.435 274.096C144.75 275.785 143.299 276.598 141.466 276.598C139.154 276.598 137.241 274.893 137.241 272.358C137.241 269.839 139.154 268.118 141.482 268.118C143.746 268.118 145.563 269.744 145.611 272.358ZM141.482 270.19C140.764 270.19 140.031 270.636 139.792 271.449H143.092C142.853 270.589 142.215 270.19 141.482 270.19ZM155.354 264.882V276.359H152.803V275.722C152.182 276.28 151.353 276.598 150.316 276.598C148.196 276.598 146.411 274.893 146.411 272.358C146.411 269.839 148.196 268.118 150.316 268.118C151.353 268.118 152.182 268.437 152.803 268.995V264.882H155.354ZM150.842 274.43C151.879 274.43 152.803 273.602 152.803 272.358C152.803 271.131 151.879 270.286 150.842 270.286C149.727 270.286 148.914 271.131 148.914 272.358C148.914 273.602 149.727 274.43 150.842 274.43ZM164.807 268.15C167.182 268.15 169.191 269.839 169.191 272.358C169.191 274.893 167.182 276.583 164.807 276.583C162.384 276.583 160.375 274.893 160.375 272.358C160.375 269.839 162.384 268.15 164.807 268.15ZM164.807 274.43C165.795 274.43 166.736 273.617 166.736 272.358C166.736 271.115 165.795 270.286 164.807 270.286C163.77 270.286 162.83 271.115 162.83 272.358C162.83 273.617 163.77 274.43 164.807 274.43ZM173.394 268.357H175.594V270.381H173.394V276.359H170.86V270.381H169.712V268.357H170.86V267.735C170.86 265.854 172.151 264.658 174.08 264.658C174.622 264.658 175.148 264.77 175.658 264.993L175.116 266.97C174.877 266.89 174.622 266.842 174.43 266.842C173.825 266.842 173.394 267.209 173.394 267.847V268.357ZM190.473 268.118C192.179 268.118 193.534 269.409 193.534 271.354V276.359H190.999V271.896C190.999 270.987 190.41 270.413 189.66 270.413C188.72 270.413 188.098 271.099 188.098 272.438V276.359H185.548V271.896C185.548 270.987 184.958 270.413 184.193 270.413C183.268 270.413 182.662 271.099 182.662 272.438V276.359H180.112V268.357H182.662V269.09C183.204 268.484 183.985 268.118 185.021 268.118C186.137 268.118 187.094 268.596 187.636 269.473C188.273 268.644 189.23 268.118 190.473 268.118ZM199.18 268.15C201.555 268.15 203.564 269.839 203.564 272.358C203.564 274.893 201.555 276.583 199.18 276.583C196.757 276.583 194.748 274.893 194.748 272.358C194.748 269.839 196.757 268.15 199.18 268.15ZM199.18 274.43C200.168 274.43 201.109 273.617 201.109 272.358C201.109 271.115 200.168 270.286 199.18 270.286C198.144 270.286 197.203 271.115 197.203 272.358C197.203 273.617 198.144 274.43 199.18 274.43ZM213.297 264.882V276.359H210.746V275.722C210.124 276.28 209.295 276.598 208.259 276.598C206.139 276.598 204.354 274.893 204.354 272.358C204.354 269.839 206.139 268.118 208.259 268.118C209.295 268.118 210.124 268.437 210.746 268.995V264.882H213.297ZM208.785 274.43C209.821 274.43 210.746 273.602 210.746 272.358C210.746 271.131 209.821 270.286 208.785 270.286C207.669 270.286 206.856 271.131 206.856 272.358C206.856 273.602 207.669 274.43 208.785 274.43ZM214.597 274.271L217.084 273.761C217.195 274.446 217.817 274.701 218.502 274.701C219.172 274.701 219.539 274.415 219.539 274.064C219.539 273.793 219.331 273.586 218.741 273.474L217.115 273.155C215.633 272.884 214.788 272.087 214.788 270.828C214.788 269.186 216.207 268.118 218.231 268.118C220.224 268.118 221.547 269.026 221.866 270.413L219.539 270.876C219.459 270.381 218.981 269.935 218.199 269.935C217.514 269.935 217.291 270.27 217.291 270.557C217.291 270.78 217.386 271.003 217.897 271.115L219.778 271.497C221.292 271.816 221.993 272.725 221.993 273.904C221.993 275.674 220.463 276.598 218.359 276.598C216.478 276.598 214.868 275.913 214.597 274.271ZM226.212 265.679V266.173L226.053 272.709H223.534L223.375 266.173V265.679H226.212ZM224.825 273.617C225.67 273.617 226.276 274.271 226.276 275.036C226.276 275.833 225.67 276.439 224.825 276.439C223.965 276.439 223.359 275.833 223.359 275.036C223.359 274.271 223.965 273.617 224.825 273.617Z" fill="#4B8A74"/>
<rect x="89.7764" y="212.859" width="232" height="31" rx="8.85626" fill="#C3F2E1"/>
<path d="M106.025 222.44C109.214 222.44 111.716 224.91 111.716 228.035C111.716 231.144 109.214 233.598 106.025 233.598C102.837 233.598 100.334 231.144 100.334 228.035C100.334 224.91 102.837 222.44 106.025 222.44ZM106.025 231.191C107.763 231.191 109.086 229.852 109.086 228.035C109.086 226.202 107.763 224.847 106.025 224.847C104.288 224.847 102.965 226.202 102.965 228.035C102.965 229.852 104.288 231.191 106.025 231.191ZM116.199 225.357H118.399V227.381H116.199V233.359H113.664V227.381H112.516V225.357H113.664V224.735C113.664 222.854 114.955 221.658 116.884 221.658C117.426 221.658 117.952 221.77 118.462 221.993L117.92 223.97C117.681 223.89 117.426 223.842 117.235 223.842C116.629 223.842 116.199 224.209 116.199 224.847V225.357ZM121.959 225.357H124.159V227.381H121.959V233.359H119.424V227.381H118.276V225.357H119.424V224.735C119.424 222.854 120.715 221.658 122.644 221.658C123.186 221.658 123.712 221.77 124.222 221.993L123.68 223.97C123.441 223.89 123.186 223.842 122.995 223.842C122.389 223.842 121.959 224.209 121.959 224.847V225.357ZM132.814 229.358V230.012H126.948C127.155 230.968 127.808 231.558 128.669 231.558C129.259 231.558 129.945 231.415 130.375 230.633L132.639 231.096C131.953 232.785 130.503 233.598 128.669 233.598C126.358 233.598 124.445 231.893 124.445 229.358C124.445 226.839 126.358 225.118 128.685 225.118C130.949 225.118 132.766 226.744 132.814 229.358ZM128.685 227.19C127.968 227.19 127.235 227.636 126.995 228.449H130.295C130.056 227.589 129.419 227.19 128.685 227.19ZM139.449 225.245C139.672 225.245 139.831 225.261 140.023 225.309L139.911 227.86H139.449C137.663 227.86 136.691 228.784 136.691 230.857V233.359H134.14V225.357H136.691V226.887C137.265 225.931 138.142 225.245 139.449 225.245ZM142.502 221.547C143.363 221.547 143.984 222.216 143.984 222.998C143.984 223.811 143.363 224.416 142.502 224.416C141.641 224.416 141.035 223.811 141.035 222.998C141.035 222.216 141.641 221.547 142.502 221.547ZM143.777 233.359H141.227V225.357H143.777V233.359ZM150.759 225.118C152.624 225.118 153.868 226.441 153.868 228.449V233.359H151.333V228.991C151.333 228.051 150.775 227.413 149.962 227.413C148.958 227.413 148.304 228.099 148.304 229.645V233.359H145.754V225.357H148.304V226.122C148.91 225.484 149.755 225.118 150.759 225.118ZM163.85 225.357V232.562C163.85 235.033 161.969 236.388 159.37 236.388C157.537 236.388 156.134 235.751 155.353 234.459L157.473 233.312C158.079 234.029 158.525 234.3 159.354 234.3C160.518 234.3 161.347 233.614 161.347 232.355V232.132C160.773 232.626 159.976 232.897 158.94 232.897C156.851 232.897 155.082 231.239 155.082 228.976C155.082 226.76 156.851 225.118 158.94 225.118C159.976 225.118 160.773 225.389 161.347 225.883V225.357H163.85ZM159.482 230.809C160.502 230.809 161.347 230.044 161.347 228.976C161.347 227.907 160.502 227.158 159.482 227.158C158.366 227.158 157.569 227.907 157.569 228.976C157.569 230.044 158.366 230.809 159.482 230.809ZM180.113 233.359H177.307L176.558 231.415H172.063L171.314 233.359H168.492L172.956 222.679H175.65L180.113 233.359ZM175.681 229.151L174.311 225.644L172.956 229.151H175.681ZM186.338 225.245C186.562 225.245 186.721 225.261 186.912 225.309L186.801 227.86H186.338C184.553 227.86 183.581 228.784 183.581 230.857V233.359H181.03V225.357H183.581V226.887C184.155 225.931 185.031 225.245 186.338 225.245ZM193.485 231L194.075 233.009C193.453 233.343 192.799 233.598 191.891 233.598C189.898 233.598 188.702 232.514 188.702 230.41V227.381H187.252V225.357H188.702V222.998H191.253V225.357H193.612V227.381H191.253V230.155C191.253 230.984 191.652 231.319 192.321 231.319C192.672 231.319 193.15 231.191 193.485 231ZM202.939 222.44C205.266 222.44 206.956 223.587 207.354 225.532L204.772 226.058C204.581 225.054 203.752 224.56 202.907 224.56C202.03 224.56 201.472 225.038 201.472 225.644C201.472 226.074 201.663 226.393 202.333 226.537L204.549 227.031C206.398 227.445 207.482 228.449 207.482 230.139C207.482 232.419 205.457 233.598 203.082 233.598C200.675 233.598 198.698 232.451 198.411 230.362L201.121 229.836C201.392 230.936 202.157 231.415 203.226 231.415C204.214 231.415 204.804 230.968 204.804 230.315C204.804 229.836 204.581 229.533 203.815 229.374L201.584 228.896C200.053 228.545 198.714 227.748 198.714 225.803C198.714 223.731 200.436 222.44 202.939 222.44ZM216.895 229.358V230.012H211.029C211.236 230.968 211.889 231.558 212.75 231.558C213.34 231.558 214.025 231.415 214.456 230.633L216.72 231.096C216.034 232.785 214.583 233.598 212.75 233.598C210.439 233.598 208.526 231.893 208.526 229.358C208.526 226.839 210.439 225.118 212.766 225.118C215.03 225.118 216.847 226.744 216.895 229.358ZM212.766 227.19C212.049 227.19 211.315 227.636 211.076 228.449H214.376C214.137 227.589 213.499 227.19 212.766 227.19ZM223.53 225.245C223.753 225.245 223.912 225.261 224.103 225.309L223.992 227.86H223.53C221.744 227.86 220.772 228.784 220.772 230.857V233.359H218.221V225.357H220.772V226.887C221.346 225.931 222.222 225.245 223.53 225.245ZM233.597 225.341L230.281 233.359H227.683L224.367 225.341H227.061L228.99 230.283L230.903 225.341H233.597ZM236.032 221.547C236.893 221.547 237.515 222.216 237.515 222.998C237.515 223.811 236.893 224.416 236.032 224.416C235.171 224.416 234.566 223.811 234.566 222.998C234.566 222.216 235.171 221.547 236.032 221.547ZM237.308 233.359H234.757V225.357H237.308V233.359ZM243.126 231.367C243.939 231.367 244.593 230.936 244.864 229.964L247.207 230.474C246.808 232.371 245.119 233.598 243.126 233.598C240.735 233.598 238.758 231.893 238.758 229.358C238.758 226.839 240.735 225.118 243.126 225.118C245.071 225.118 246.761 226.313 247.207 228.194L244.816 228.768C244.593 227.796 243.939 227.35 243.126 227.35C241.978 227.35 241.213 228.194 241.213 229.358C241.213 230.538 241.978 231.367 243.126 231.367ZM256.374 229.358V230.012H250.508C250.715 230.968 251.369 231.558 252.23 231.558C252.82 231.558 253.505 231.415 253.935 230.633L256.199 231.096C255.514 232.785 254.063 233.598 252.23 233.598C249.918 233.598 248.005 231.893 248.005 229.358C248.005 226.839 249.918 225.118 252.246 225.118C254.509 225.118 256.327 226.744 256.374 229.358ZM252.246 227.19C251.528 227.19 250.795 227.636 250.556 228.449H253.856C253.617 227.589 252.979 227.19 252.246 227.19ZM257.159 231.271L259.646 230.761C259.757 231.446 260.379 231.701 261.064 231.701C261.734 231.701 262.1 231.415 262.1 231.064C262.1 230.793 261.893 230.586 261.303 230.474L259.677 230.155C258.195 229.884 257.35 229.087 257.35 227.828C257.35 226.186 258.769 225.118 260.793 225.118C262.786 225.118 264.109 226.026 264.428 227.413L262.1 227.876C262.021 227.381 261.543 226.935 260.761 226.935C260.076 226.935 259.853 227.27 259.853 227.557C259.853 227.78 259.948 228.003 260.459 228.115L262.34 228.497C263.854 228.816 264.555 229.725 264.555 230.904C264.555 232.674 263.025 233.598 260.921 233.598C259.04 233.598 257.43 232.913 257.159 231.271Z" fill="#4B8A74"/>
<rect x="89.7764" y="169.859" width="232" height="31" rx="8.85626" fill="#C3F2E1"/>
<path d="M108.592 188.064V190.359H100.701V179.679H103.331V188.064H108.592ZM113.963 182.15C116.338 182.15 118.347 183.839 118.347 186.358C118.347 188.893 116.338 190.583 113.963 190.583C111.54 190.583 109.531 188.893 109.531 186.358C109.531 183.839 111.54 182.15 113.963 182.15ZM113.963 188.43C114.951 188.43 115.892 187.617 115.892 186.358C115.892 185.115 114.951 184.286 113.963 184.286C112.927 184.286 111.986 185.115 111.986 186.358C111.986 187.617 112.927 188.43 113.963 188.43ZM123.568 182.15C125.943 182.15 127.952 183.839 127.952 186.358C127.952 188.893 125.943 190.583 123.568 190.583C121.145 190.583 119.136 188.893 119.136 186.358C119.136 183.839 121.145 182.15 123.568 182.15ZM123.568 188.43C124.556 188.43 125.497 187.617 125.497 186.358C125.497 185.115 124.556 184.286 123.568 184.286C122.532 184.286 121.591 185.115 121.591 186.358C121.591 187.617 122.532 188.43 123.568 188.43ZM138.147 190.359H134.879L132.28 187.474H131.818V190.359H129.268V178.882H131.818V185.083H132.169L134.704 182.357H137.78L134.273 186.167L138.147 190.359ZM140.431 178.547C141.292 178.547 141.914 179.216 141.914 179.998C141.914 180.811 141.292 181.416 140.431 181.416C139.571 181.416 138.965 180.811 138.965 179.998C138.965 179.216 139.571 178.547 140.431 178.547ZM141.707 190.359H139.156V182.357H141.707V190.359ZM148.689 182.118C150.554 182.118 151.797 183.441 151.797 185.449V190.359H149.263V185.991C149.263 185.051 148.705 184.413 147.892 184.413C146.887 184.413 146.234 185.099 146.234 186.645V190.359H143.683V182.357H146.234V183.122C146.84 182.484 147.685 182.118 148.689 182.118ZM161.779 182.357V189.562C161.779 192.033 159.898 193.388 157.3 193.388C155.466 193.388 154.064 192.751 153.283 191.459L155.403 190.312C156.008 191.029 156.455 191.3 157.284 191.3C158.447 191.3 159.276 190.614 159.276 189.355V189.132C158.703 189.626 157.905 189.897 156.869 189.897C154.781 189.897 153.012 188.239 153.012 185.976C153.012 183.76 154.781 182.118 156.869 182.118C157.905 182.118 158.703 182.389 159.276 182.883V182.357H161.779ZM157.411 187.809C158.432 187.809 159.276 187.044 159.276 185.976C159.276 184.907 158.432 184.158 157.411 184.158C156.295 184.158 155.498 184.907 155.498 185.976C155.498 187.044 156.295 187.809 157.411 187.809ZM170.343 182.357H172.543V184.381H170.343V190.359H167.808V184.381H166.661V182.357H167.808V181.735C167.808 179.854 169.1 178.658 171.028 178.658C171.571 178.658 172.097 178.77 172.607 178.993L172.065 180.97C171.826 180.89 171.571 180.842 171.379 180.842C170.773 180.842 170.343 181.209 170.343 181.847V182.357ZM177.261 182.15C179.636 182.15 181.645 183.839 181.645 186.358C181.645 188.893 179.636 190.583 177.261 190.583C174.838 190.583 172.829 188.893 172.829 186.358C172.829 183.839 174.838 182.15 177.261 182.15ZM177.261 188.43C178.249 188.43 179.19 187.617 179.19 186.358C179.19 185.115 178.249 184.286 177.261 184.286C176.225 184.286 175.284 185.115 175.284 186.358C175.284 187.617 176.225 188.43 177.261 188.43ZM188.269 182.245C188.492 182.245 188.651 182.261 188.843 182.309L188.731 184.86H188.269C186.483 184.86 185.511 185.784 185.511 187.857V190.359H182.96V182.357H185.511V183.887C186.085 182.931 186.962 182.245 188.269 182.245ZM204.321 190.359H201.515L200.766 188.415H196.271L195.521 190.359H192.7L197.163 179.679H199.857L204.321 190.359ZM199.889 186.151L198.518 182.644L197.163 186.151H199.889ZM213.499 178.882V190.359H210.948V189.722C210.327 190.28 209.498 190.598 208.462 190.598C206.341 190.598 204.556 188.893 204.556 186.358C204.556 183.839 206.341 182.118 208.462 182.118C209.498 182.118 210.327 182.437 210.948 182.995V178.882H213.499ZM208.988 188.43C210.024 188.43 210.948 187.602 210.948 186.358C210.948 185.131 210.024 184.286 208.988 184.286C207.872 184.286 207.059 185.131 207.059 186.358C207.059 187.602 207.872 188.43 208.988 188.43ZM225.703 182.118C227.409 182.118 228.764 183.409 228.764 185.354V190.359H226.229V185.896C226.229 184.987 225.639 184.413 224.89 184.413C223.949 184.413 223.328 185.099 223.328 186.438V190.359H220.777V185.896C220.777 184.987 220.187 184.413 219.422 184.413C218.498 184.413 217.892 185.099 217.892 186.438V190.359H215.341V182.357H217.892V183.09C218.434 182.484 219.215 182.118 220.251 182.118C221.367 182.118 222.323 182.596 222.865 183.473C223.503 182.644 224.46 182.118 225.703 182.118ZM231.907 178.547C232.768 178.547 233.389 179.216 233.389 179.998C233.389 180.811 232.768 181.416 231.907 181.416C231.046 181.416 230.44 180.811 230.44 179.998C230.44 179.216 231.046 178.547 231.907 178.547ZM233.182 190.359H230.632V182.357H233.182V190.359ZM240.164 182.118C242.029 182.118 243.273 183.441 243.273 185.449V190.359H240.738V185.991C240.738 185.051 240.18 184.413 239.367 184.413C238.363 184.413 237.709 185.099 237.709 186.645V190.359H235.159V182.357H237.709V183.122C238.315 182.484 239.16 182.118 240.164 182.118ZM244.471 188.271L246.958 187.761C247.069 188.446 247.691 188.701 248.377 188.701C249.046 188.701 249.413 188.415 249.413 188.064C249.413 187.793 249.206 187.586 248.616 187.474L246.99 187.155C245.507 186.884 244.662 186.087 244.662 184.828C244.662 183.186 246.081 182.118 248.106 182.118C250.098 182.118 251.421 183.026 251.74 184.413L249.413 184.876C249.333 184.381 248.855 183.935 248.074 183.935C247.388 183.935 247.165 184.27 247.165 184.557C247.165 184.78 247.261 185.003 247.771 185.115L249.652 185.497C251.166 185.816 251.868 186.725 251.868 187.904C251.868 189.674 250.337 190.598 248.233 190.598C246.352 190.598 244.742 189.913 244.471 188.271ZM254.253 187.57C255.098 187.57 255.72 188.239 255.72 189.004C255.72 189.817 255.098 190.439 254.253 190.439C253.409 190.439 252.803 189.817 252.803 189.004C252.803 188.239 253.409 187.57 254.253 187.57Z" fill="#4B8A74"/>
<rect x="283.776" y="255.859" width="38" height="31" rx="8.85626" fill="#C3F2E1"/>
<path fill-rule="evenodd" clip-rule="evenodd" d="M317.776 263.359C317.776 261.15 315.986 259.359 313.776 259.359H297.776C295.567 259.359 293.776 261.15 293.776 263.359V272.859L297.874 268.761C299.465 267.171 302.054 267.204 303.603 268.835L307.93 273.39C309.195 274.721 311.327 274.693 312.555 273.327V273.327C313.763 271.986 315.848 271.931 317.124 273.207L317.776 273.859V263.359Z" fill="#6FCFAC"/>
<path d="M293.776 279.359C293.776 281.569 295.567 283.359 297.776 283.359H313.776C315.986 283.359 317.776 281.569 317.776 279.359V273.859L317.124 273.207C315.848 271.931 313.763 271.986 312.555 273.327V273.327C311.327 274.693 309.195 274.721 307.93 273.39L303.603 268.835C302.054 267.204 299.465 267.171 297.874 268.761L293.776 272.859V279.359Z" fill="#A0E3CB"/>
<rect x="283.776" y="212.859" width="38" height="31" rx="8.85626" fill="#C3F2E1"/>
<path fill-rule="evenodd" clip-rule="evenodd" d="M317.776 220.359C317.776 218.15 315.986 216.359 313.776 216.359H297.776C295.567 216.359 293.776 218.15 293.776 220.359V229.859L297.874 225.761C299.465 224.171 302.054 224.204 303.603 225.835L307.93 230.39C309.195 231.721 311.327 231.693 312.555 230.327V230.327C313.763 228.986 315.848 228.931 317.124 230.207L317.776 230.859V220.359Z" fill="#6FCFAC"/>
<path d="M293.776 236.359C293.776 238.569 295.567 240.359 297.776 240.359H313.776C315.986 240.359 317.776 238.569 317.776 236.359V230.859L317.124 230.207C315.848 228.931 313.763 228.986 312.555 230.327V230.327C311.327 231.693 309.195 231.721 307.93 230.39L303.603 225.835C302.054 224.204 299.465 224.171 297.874 225.761L293.776 229.859V236.359Z" fill="#A0E3CB"/>
<rect x="283.776" y="169.859" width="38" height="31" rx="8.85626" fill="#C3F2E1"/>
<path fill-rule="evenodd" clip-rule="evenodd" d="M317.776 177.359C317.776 175.15 315.986 173.359 313.776 173.359H297.776C295.567 173.359 293.776 175.15 293.776 177.359V186.859L297.874 182.761C299.465 181.171 302.054 181.204 303.603 182.835L307.93 187.39C309.195 188.721 311.327 188.693 312.555 187.327V187.327C313.763 185.986 315.848 185.931 317.124 187.207L317.776 187.859V177.359Z" fill="#6FCFAC"/>
<path d="M293.776 193.359C293.776 195.569 295.567 197.359 297.776 197.359H313.776C315.986 197.359 317.776 195.569 317.776 193.359V187.859L317.124 187.207C315.848 185.931 313.763 185.986 312.555 187.327V187.327C311.327 188.693 309.195 188.721 307.93 187.39L303.603 182.835C302.054 181.204 299.465 181.171 297.874 182.761L293.776 186.859V193.359Z" fill="#A0E3CB"/>
<path d="M51.7764 264.789C51.7764 263.723 52.6401 262.859 53.7055 262.859H61.422C62.4874 262.859 63.3511 263.723 63.3511 264.789V277.893C63.3511 278.752 62.3122 279.183 61.7045 278.575L58.9279 275.798C58.1745 275.045 56.953 275.045 56.1997 275.798L53.423 278.575C52.8153 279.183 51.7764 278.752 51.7764 277.893V264.789Z" fill="#52BE97"/>
</svg>
