<svg width="342" height="374" viewBox="0 0 342 374" fill="none" xmlns="http://www.w3.org/2000/svg">
<rect x="22.4121" y="134.984" width="319.14" height="172.999" rx="18.1689" fill="white"/>
<path d="M22.1406 82.8485C22.1406 72.8142 30.2751 64.6797 40.3095 64.6797H235.607C245.642 64.6797 253.776 72.8142 253.776 82.8486V92.5634C253.776 102.598 245.642 110.732 235.607 110.732H40.3095C30.2751 110.732 22.1406 102.598 22.1406 92.5634V82.8485Z" fill="white"/>
<rect x="38.6719" y="169.773" width="37.7306" height="30.7017" rx="8.85626" fill="#C3F2E1"/>
<rect x="38.6719" y="212.875" width="37.7306" height="30.7017" rx="8.85626" fill="#C3F2E1"/>
<rect x="38.6719" y="255.977" width="37.7306" height="30.7017" rx="8.85626" fill="#C3F2E1"/>
<path d="M51.7764 221.869C51.7764 220.803 52.6401 219.939 53.7055 219.939H61.422C62.4874 219.939 63.3511 220.803 63.3511 221.869V234.973C63.3511 235.832 62.3122 236.263 61.7045 235.655L58.9279 232.878C58.1745 232.125 56.953 232.125 56.1997 232.878L53.423 235.655C52.8153 236.263 51.7764 235.832 51.7764 234.973V221.869Z" fill="#52BE97"/>
<path d="M51.7764 179.869C51.7764 178.803 52.6401 177.939 53.7055 177.939H61.422C62.4874 177.939 63.3511 178.803 63.3511 179.869V192.973C63.3511 193.832 62.3122 194.263 61.7045 193.655L58.9279 190.878C58.1745 190.125 56.953 190.125 56.1997 190.878L53.423 193.655C52.8153 194.263 51.7764 193.832 51.7764 192.973V179.869Z" fill="#52BE97"/>
<path d="M50.3749 115.209L49.6688 119.14H45.7515L46.4576 115.209L34.6992 115.209L32.6225 126.769H36.9513V130.622H31.936L30.6885 137.534C30.6054 137.994 30.1989 138.329 29.724 138.329H27.7954C27.186 138.329 26.7244 137.788 26.831 137.197L28.0177 130.622H21.347C20.7385 130.622 20.2772 130.082 20.3821 129.493L20.725 127.566C20.807 127.105 21.214 126.769 21.6899 126.769H28.7034L30.7801 115.209H24.1094C23.5009 115.209 23.0396 114.669 23.1445 114.079L23.4873 112.153C23.5694 111.692 23.9764 111.355 24.4523 111.355H31.4658L32.7133 104.443C32.7963 103.984 33.2028 103.648 33.6777 103.648H35.6063C36.2157 103.648 36.6772 104.19 36.5707 104.78L35.384 111.355L47.1423 111.356L48.3898 104.444C48.4728 103.984 48.8793 103.649 49.3543 103.649H51.2828C51.8922 103.649 52.3538 104.19 52.2472 104.781L51.0605 111.356H57.7312C58.3398 111.356 58.801 111.896 58.6961 112.485L58.3533 114.412C58.2712 114.873 57.8642 115.209 57.3884 115.209H50.3749Z" fill="white"/>
<path d="M42.5985 122.839C41.5597 122.839 40.7177 123.668 40.7177 124.689V136.83C40.7177 137.851 41.5597 138.679 42.5985 138.679H44.4792C44.739 138.679 44.9494 138.886 44.9494 139.142V143.069C44.9494 143.47 45.4325 143.681 45.7348 143.412L50.5249 139.157C50.8705 138.849 51.32 138.679 51.7858 138.679H60.4658C61.5045 138.679 62.3466 137.851 62.3466 136.83V124.689C62.3466 123.668 61.5045 122.839 60.4658 122.839H42.5985Z" fill="white"/>
<rect x="0.292969" y="87.707" width="277.414" height="63.7975" rx="18.1689" fill="#C3F2E1"/>
<path d="M46.1007 112.461L45.4952 115.811H42.1358L42.7413 112.461L32.6578 112.46L30.8769 122.315H34.5891V125.6H30.2881L29.2183 131.492C29.1472 131.884 28.7985 132.169 28.3912 132.169H26.7374C26.2147 132.169 25.8189 131.708 25.9103 131.205L26.928 125.6H21.2075C20.6856 125.6 20.29 125.139 20.38 124.637L20.674 122.994C20.7443 122.602 21.0934 122.315 21.5015 122.315H27.516L29.2969 112.46H23.5764C23.0545 112.46 22.659 112 22.7489 111.497L23.0429 109.855C23.1133 109.462 23.4623 109.175 23.8704 109.175H29.8849L30.9547 103.283C31.0259 102.891 31.3745 102.605 31.7818 102.605H33.4357C33.9583 102.605 34.3541 103.067 34.2627 103.57L33.2451 109.175L43.3285 109.176L44.3983 103.284C44.4695 102.892 44.8181 102.606 45.2255 102.606H46.8793C47.4019 102.606 47.7977 103.068 47.7063 103.571L46.6887 109.176H52.4092C52.9311 109.176 53.3266 109.636 53.2367 110.138L52.9427 111.781C52.8723 112.174 52.5233 112.461 52.1152 112.461H46.1007Z" fill="#4B8A74"/>
<path d="M39.4319 118.965C38.5411 118.965 37.819 119.671 37.819 120.542V130.892C37.819 131.762 38.5411 132.468 39.4319 132.468H41.0448C41.2676 132.468 41.448 132.645 41.448 132.862V136.21C41.448 136.552 41.8623 136.732 42.1216 136.503L46.2294 132.875C46.5257 132.613 46.9112 132.468 47.3107 132.468H54.7543C55.6451 132.468 56.3672 131.762 56.3672 130.892V120.542C56.3672 119.671 55.6451 118.965 54.7543 118.965H39.4319Z" fill="#4B8A74"/>
<path d="M73.3127 114.353C77.581 114.353 81.1905 117.389 81.1905 121.915C81.1905 126.47 77.581 129.507 73.3127 129.507C68.9584 129.507 65.349 126.47 65.349 121.915C65.349 117.389 68.9584 114.353 73.3127 114.353ZM73.3127 125.639C75.0888 125.639 76.7789 124.178 76.7789 121.915C76.7789 119.681 75.0888 118.191 73.3127 118.191C71.4507 118.191 69.7605 119.681 69.7605 121.915C69.7605 124.178 71.4507 125.639 73.3127 125.639ZM92.6072 114.295C96.4172 114.295 99.6256 117.389 99.6256 121.915C99.6256 126.47 96.4172 129.535 92.6072 129.535C90.7452 129.535 89.2556 128.962 88.1384 127.96V133.975H83.5549V114.725H88.1384V115.871C89.2556 114.868 90.7452 114.295 92.6072 114.295ZM91.6619 125.639C93.6671 125.639 95.1281 124.15 95.1281 121.915C95.1281 119.709 93.6671 118.191 91.6619 118.191C89.7999 118.191 88.1384 119.709 88.1384 121.915C88.1384 124.15 89.7999 125.639 91.6619 125.639ZM111.043 114.295C114.853 114.295 118.061 117.389 118.061 121.915C118.061 126.47 114.853 129.535 111.043 129.535C109.181 129.535 107.691 128.962 106.574 127.96V133.975H101.991V114.725H106.574V115.871C107.691 114.868 109.181 114.295 111.043 114.295ZM110.097 125.639C112.103 125.639 113.564 124.15 113.564 121.915C113.564 119.709 112.103 118.191 110.097 118.191C108.235 118.191 106.574 119.709 106.574 121.915C106.574 124.15 108.235 125.639 110.097 125.639ZM127.444 114.353C131.713 114.353 135.322 117.389 135.322 121.915C135.322 126.47 131.713 129.507 127.444 129.507C123.09 129.507 119.481 126.47 119.481 121.915C119.481 117.389 123.09 114.353 127.444 114.353ZM127.444 125.639C129.221 125.639 130.911 124.178 130.911 121.915C130.911 119.681 129.221 118.191 127.444 118.191C125.582 118.191 123.892 119.681 123.892 121.915C123.892 124.178 125.582 125.639 127.444 125.639ZM147.226 114.524C147.627 114.524 147.913 114.553 148.257 114.639L148.057 119.222H147.226C144.018 119.222 142.27 120.884 142.27 124.608V129.105H137.687V114.725H142.27V117.475C143.301 115.756 144.877 114.524 147.226 114.524ZM160.068 124.866L161.128 128.475C160.011 129.077 158.836 129.535 157.203 129.535C153.622 129.535 151.474 127.587 151.474 123.806V118.363H148.867V114.725H151.474V110.485H156.057V114.725H160.297V118.363H156.057V123.348C156.057 124.837 156.774 125.439 157.977 125.439C158.607 125.439 159.466 125.21 160.068 124.866ZM176.965 114.725V129.105H172.382V127.73C171.293 128.876 169.775 129.535 167.97 129.535C164.618 129.535 162.384 127.158 162.384 123.548V114.725H166.939V122.574C166.939 124.264 167.941 125.41 169.402 125.41C171.207 125.41 172.382 124.178 172.382 121.4V114.725H176.965ZM189.288 114.295C192.639 114.295 194.874 116.673 194.874 120.282V129.105H190.319V121.256C190.319 119.566 189.316 118.42 187.855 118.42C186.051 118.42 184.876 119.652 184.876 122.431V129.105H180.293V114.725H184.876V116.1C185.965 114.954 187.483 114.295 189.288 114.295ZM200.522 107.878C202.069 107.878 203.186 109.082 203.186 110.485C203.186 111.946 202.069 113.035 200.522 113.035C198.975 113.035 197.886 111.946 197.886 110.485C197.886 109.082 198.975 107.878 200.522 107.878ZM202.814 129.105H198.23V114.725H202.814V129.105ZM215.962 124.866L217.022 128.475C215.905 129.077 214.73 129.535 213.097 129.535C209.517 129.535 207.368 127.587 207.368 123.806V118.363H204.761V114.725H207.368V110.485H211.952V114.725H216.191V118.363H211.952V123.348C211.952 124.837 212.668 125.439 213.871 125.439C214.501 125.439 215.36 125.21 215.962 124.866ZM221.279 107.878C222.826 107.878 223.943 109.082 223.943 110.485C223.943 111.946 222.826 113.035 221.279 113.035C219.732 113.035 218.644 111.946 218.644 110.485C218.644 109.082 219.732 107.878 221.279 107.878ZM223.571 129.105H218.988V114.725H223.571V129.105ZM241.217 121.915V123.09H230.675C231.048 124.808 232.222 125.868 233.769 125.868C234.829 125.868 236.061 125.611 236.834 124.207L240.902 125.038C239.67 128.074 237.063 129.535 233.769 129.535C229.615 129.535 226.178 126.47 226.178 121.915C226.178 117.389 229.615 114.295 233.798 114.295C237.865 114.295 241.131 117.217 241.217 121.915ZM233.798 118.019C232.509 118.019 231.191 118.821 230.761 120.282H236.691C236.261 118.735 235.115 118.019 233.798 118.019ZM242.626 125.353L247.095 124.436C247.296 125.668 248.413 126.126 249.645 126.126C250.848 126.126 251.507 125.611 251.507 124.98C251.507 124.493 251.134 124.121 250.074 123.92L247.153 123.348C244.488 122.861 242.97 121.428 242.97 119.165C242.97 116.215 245.52 114.295 249.158 114.295C252.739 114.295 255.116 115.928 255.689 118.42L251.507 119.251C251.364 118.363 250.504 117.561 249.1 117.561C247.869 117.561 247.468 118.163 247.468 118.678C247.468 119.079 247.639 119.48 248.556 119.681L251.936 120.368C254.658 120.941 255.918 122.574 255.918 124.694C255.918 127.874 253.168 129.535 249.387 129.535C246.007 129.535 243.113 128.303 242.626 125.353Z" fill="#4B8A74"/>
<rect x="89.7764" y="255.939" width="232" height="31" rx="8.85626" fill="#C3F2E1"/>
<path d="M102.439 276.439H101.179V265.759H102.439V276.439ZM109.403 268.389C111.3 268.389 112.56 269.744 112.56 271.737V276.439H111.348V271.96C111.348 270.493 110.471 269.505 109.164 269.505C107.522 269.505 106.438 270.621 106.438 272.661V276.439H105.227V268.58H106.438V269.888C107.076 268.931 108.08 268.389 109.403 268.389ZM123.368 268.389C125.265 268.389 126.524 269.744 126.524 271.737V276.439H125.312V271.96C125.312 270.493 124.436 269.505 123.128 269.505C121.487 269.505 120.403 270.621 120.403 272.661V276.439H119.191V268.58H120.403V269.888C121.04 268.931 122.044 268.389 123.368 268.389ZM136.344 272.311V272.757H129.601C129.713 274.527 131.052 275.579 132.407 275.579C133.523 275.579 134.527 275.148 135.085 273.889L136.169 274.144C135.547 275.786 134.176 276.647 132.407 276.647C130.318 276.647 128.421 275.037 128.421 272.534C128.421 270.015 130.318 268.389 132.486 268.389C134.607 268.389 136.264 269.967 136.344 272.311ZM132.486 269.457C131.211 269.457 129.888 270.302 129.649 271.848H135.117C134.893 270.302 133.794 269.457 132.486 269.457ZM145.638 272.311V272.757H138.895C139.006 274.527 140.346 275.579 141.701 275.579C142.816 275.579 143.821 275.148 144.379 273.889L145.463 274.144C144.841 275.786 143.47 276.647 141.701 276.647C139.612 276.647 137.715 275.037 137.715 272.534C137.715 270.015 139.612 268.389 141.78 268.389C143.9 268.389 145.558 269.967 145.638 272.311ZM141.78 269.457C140.505 269.457 139.182 270.302 138.943 271.848H144.411C144.187 270.302 143.087 269.457 141.78 269.457ZM155.267 264.962V276.439H154.055V275.196C153.354 276.121 152.238 276.647 150.931 276.647C148.842 276.647 147.009 275.005 147.009 272.518C147.009 270.031 148.842 268.389 150.931 268.389C152.238 268.389 153.354 268.915 154.055 269.84V264.962H155.267ZM151.122 275.563C152.605 275.563 154.055 274.383 154.055 272.518C154.055 270.637 152.605 269.457 151.122 269.457C149.496 269.457 148.189 270.637 148.189 272.518C148.189 274.383 149.496 275.563 151.122 275.563ZM165.555 268.405C167.866 268.405 169.715 270.095 169.715 272.502C169.715 274.909 167.866 276.631 165.555 276.631C163.211 276.631 161.378 274.909 161.378 272.502C161.378 270.095 163.211 268.405 165.555 268.405ZM165.555 275.563C167.165 275.563 168.52 274.319 168.52 272.502C168.52 270.701 167.165 269.473 165.555 269.473C163.929 269.473 162.558 270.701 162.558 272.502C162.558 274.319 163.929 275.563 165.555 275.563ZM176.068 269.601H173.215V276.439H172.003V269.601H170.632V268.58H172.003V267.417C172.003 265.759 173.055 264.691 174.697 264.691C175.16 264.691 175.59 264.786 175.973 264.978L175.67 265.966C175.383 265.854 175.064 265.791 174.777 265.791C173.82 265.791 173.215 266.412 173.215 267.417V268.58H176.068V269.601ZM190.948 268.389C192.606 268.389 193.881 269.569 193.881 271.354V276.439H192.669V271.561C192.669 270.318 191.825 269.505 190.645 269.505C189.194 269.505 188.238 270.573 188.238 272.422V276.439H187.026V271.561C187.026 270.318 186.181 269.505 185.018 269.505C183.567 269.505 182.626 270.573 182.626 272.422V276.439H181.415V268.58H182.626V269.776C183.184 268.915 184.077 268.389 185.305 268.389C186.516 268.389 187.52 268.979 187.983 269.983C188.588 269.011 189.609 268.389 190.948 268.389ZM199.959 268.405C202.271 268.405 204.12 270.095 204.12 272.502C204.12 274.909 202.271 276.631 199.959 276.631C197.616 276.631 195.783 274.909 195.783 272.502C195.783 270.095 197.616 268.405 199.959 268.405ZM199.959 275.563C201.569 275.563 202.924 274.319 202.924 272.502C202.924 270.701 201.569 269.473 199.959 269.473C198.333 269.473 196.962 270.701 196.962 272.502C196.962 274.319 198.333 275.563 199.959 275.563ZM213.739 264.962V276.439H212.527V275.196C211.826 276.121 210.71 276.647 209.403 276.647C207.314 276.647 205.481 275.005 205.481 272.518C205.481 270.031 207.314 268.389 209.403 268.389C210.71 268.389 211.826 268.915 212.527 269.84V264.962H213.739ZM209.594 275.563C211.077 275.563 212.527 274.383 212.527 272.518C212.527 270.637 211.077 269.457 209.594 269.457C207.968 269.457 206.661 270.637 206.661 272.518C206.661 274.383 207.968 275.563 209.594 275.563ZM215.882 274.319L217.093 274.048C217.205 275.084 218.161 275.642 219.405 275.642C220.536 275.642 221.286 275.116 221.286 274.303C221.286 273.65 220.791 273.347 219.994 273.171L218.193 272.773C216.886 272.502 216.153 271.848 216.153 270.764C216.153 269.346 217.332 268.389 219.134 268.389C220.903 268.389 222.051 269.298 222.338 270.573L221.174 270.828C221.015 269.967 220.265 269.377 219.102 269.377C217.986 269.377 217.364 269.919 217.364 270.669C217.364 271.29 217.794 271.577 218.56 271.753L220.457 272.167C221.604 272.422 222.481 273.028 222.481 274.224C222.481 275.77 221.19 276.647 219.309 276.647C217.508 276.647 216.073 275.85 215.882 274.319ZM226.034 265.759V266.253L225.986 273.267H224.743L224.711 266.253V265.759H226.034ZM225.364 274.877C225.843 274.877 226.193 275.26 226.193 275.69C226.193 276.137 225.843 276.487 225.364 276.487C224.886 276.487 224.535 276.137 224.535 275.69C224.535 275.26 224.886 274.877 225.364 274.877Z" fill="#4B8A74"/>
<rect x="89.7764" y="212.939" width="232" height="31" rx="8.85626" fill="#C3F2E1"/>
<path d="M106.185 222.552C109.277 222.552 111.7 225.007 111.7 228.099C111.7 231.208 109.277 233.647 106.185 233.647C103.076 233.647 100.653 231.208 100.653 228.099C100.653 225.007 103.076 222.552 106.185 222.552ZM106.185 232.451C108.56 232.451 110.425 230.57 110.425 228.099C110.425 225.644 108.56 223.731 106.185 223.731C103.794 223.731 101.928 225.644 101.928 228.099C101.928 230.57 103.794 232.451 106.185 232.451ZM118.328 226.601H115.474V233.439H114.263V226.601H112.892V225.58H114.263V224.417C114.263 222.759 115.315 221.691 116.957 221.691C117.419 221.691 117.85 221.786 118.232 221.978L117.929 222.966C117.642 222.854 117.323 222.791 117.037 222.791C116.08 222.791 115.474 223.412 115.474 224.417V225.58H118.328V226.601ZM123.667 226.601H120.814V233.439H119.602V226.601H118.232V225.58H119.602V224.417C119.602 222.759 120.655 221.691 122.297 221.691C122.759 221.691 123.189 221.786 123.572 221.978L123.269 222.966C122.982 222.854 122.663 222.791 122.376 222.791C121.42 222.791 120.814 223.412 120.814 224.417V225.58H123.667V226.601ZM132.125 229.311V229.757H125.382C125.494 231.527 126.833 232.579 128.188 232.579C129.304 232.579 130.308 232.148 130.866 230.889L131.95 231.144C131.328 232.786 129.957 233.647 128.188 233.647C126.1 233.647 124.203 232.037 124.203 229.534C124.203 227.015 126.1 225.389 128.268 225.389C130.388 225.389 132.046 226.967 132.125 229.311ZM128.268 226.457C126.992 226.457 125.669 227.302 125.43 228.848H130.898C130.675 227.302 129.575 226.457 128.268 226.457ZM138.598 225.501C138.789 225.501 138.932 225.501 139.156 225.564L139.06 226.728C138.916 226.712 138.741 226.712 138.598 226.712C136.509 226.712 135.441 228.29 135.441 230.411V233.439H134.214V225.58H135.441V227.509C136.079 226.346 137.147 225.501 138.598 225.501ZM141.517 222.392C141.995 222.392 142.361 222.775 142.361 223.205C142.361 223.667 141.995 224.018 141.517 224.018C141.038 224.018 140.688 223.667 140.688 223.205C140.688 222.775 141.038 222.392 141.517 222.392ZM142.138 233.439H140.911V225.58H142.138V233.439ZM149.241 225.389C151.138 225.389 152.397 226.744 152.397 228.737V233.439H151.186V228.96C151.186 227.493 150.309 226.505 149.002 226.505C147.36 226.505 146.276 227.621 146.276 229.661V233.439H145.064V225.58H146.276V226.888C146.914 225.931 147.918 225.389 149.241 225.389ZM162.297 225.58L162.313 232.802C162.297 235.097 160.735 236.468 158.36 236.468C156.415 236.468 155.124 235.703 154.518 234.428L155.538 233.726C156.096 234.779 156.893 235.368 158.36 235.368C160.018 235.368 161.118 234.316 161.118 232.642V231.686C160.48 232.515 159.476 232.977 158.169 232.977C156.096 232.977 154.295 231.399 154.295 229.167C154.295 226.951 156.096 225.389 158.169 225.389C159.476 225.389 160.48 225.851 161.118 226.664V225.58H162.297ZM158.344 231.925C159.81 231.925 161.118 230.841 161.118 229.167C161.118 227.493 159.81 226.441 158.344 226.441C156.75 226.441 155.474 227.493 155.474 229.167C155.474 230.841 156.75 231.925 158.344 231.925ZM178.601 233.439H177.246L176.051 230.729H170.424L169.228 233.439H167.873L172.655 222.759H173.819L178.601 233.439ZM175.557 229.598L173.245 224.321L170.918 229.598H175.557ZM184.553 225.501C184.745 225.501 184.888 225.501 185.111 225.564L185.016 226.728C184.872 226.712 184.697 226.712 184.553 226.712C182.465 226.712 181.397 228.29 181.397 230.411V233.439H180.169V225.58H181.397V227.509C182.035 226.346 183.103 225.501 184.553 225.501ZM191.215 232.021L191.613 233.025C190.976 233.471 190.434 233.647 189.796 233.647C188.234 233.647 187.198 232.722 187.198 230.984V226.601H185.492V225.58H187.198V223.078H188.425V225.58H191.231V226.601H188.425V230.905C188.425 231.925 188.999 232.499 189.876 232.499C190.322 232.499 190.816 232.308 191.215 232.021ZM200.74 222.552C202.876 222.552 204.374 223.731 204.741 225.485L203.482 225.772C203.243 224.48 202.175 223.652 200.708 223.652C199.273 223.652 198.285 224.433 198.285 225.58C198.285 226.537 198.891 226.967 199.895 227.175L202.222 227.701C203.705 228.019 204.916 228.769 204.916 230.474C204.916 232.419 203.338 233.647 200.947 233.647C198.683 233.647 196.866 232.483 196.611 230.458L197.934 230.187C198.173 231.686 199.401 232.531 201.059 232.531C202.685 232.531 203.657 231.718 203.657 230.538C203.657 229.534 203.115 229.135 201.919 228.864L199.512 228.338C198.141 228.035 196.946 227.318 196.946 225.612C196.946 223.779 198.46 222.552 200.74 222.552ZM214.385 229.311V229.757H207.642C207.753 231.527 209.092 232.579 210.447 232.579C211.563 232.579 212.567 232.148 213.125 230.889L214.209 231.144C213.588 232.786 212.217 233.647 210.447 233.647C208.359 233.647 206.462 232.037 206.462 229.534C206.462 227.015 208.359 225.389 210.527 225.389C212.647 225.389 214.305 226.967 214.385 229.311ZM210.527 226.457C209.252 226.457 207.929 227.302 207.689 228.848H213.157C212.934 227.302 211.834 226.457 210.527 226.457ZM220.857 225.501C221.048 225.501 221.192 225.501 221.415 225.564L221.319 226.728C221.176 226.712 221.001 226.712 220.857 226.712C218.769 226.712 217.701 228.29 217.701 230.411V233.439H216.473V225.58H217.701V227.509C218.338 226.346 219.406 225.501 220.857 225.501ZM230.2 225.58L226.725 233.439H225.402L221.927 225.58H223.25L226.072 232.005L228.877 225.58H230.2ZM232.618 222.392C233.097 222.392 233.463 222.775 233.463 223.205C233.463 223.667 233.097 224.018 232.618 224.018C232.14 224.018 231.79 223.667 231.79 223.205C231.79 222.775 232.14 222.392 232.618 222.392ZM233.24 233.439H232.013V225.58H233.24V233.439ZM239.546 232.515C240.71 232.515 241.762 231.925 242.144 230.745L243.26 231.048C242.83 232.658 241.283 233.647 239.546 233.647C237.33 233.647 235.449 232.021 235.449 229.518C235.449 227.047 237.33 225.389 239.546 225.389C241.267 225.389 242.798 226.393 243.276 228.003L242.112 228.354C241.762 227.143 240.71 226.505 239.546 226.505C237.936 226.505 236.629 227.717 236.629 229.518C236.629 231.351 237.936 232.515 239.546 232.515ZM252.557 229.311V229.757H245.813C245.925 231.527 247.264 232.579 248.619 232.579C249.735 232.579 250.739 232.148 251.297 230.889L252.381 231.144C251.76 232.786 250.389 233.647 248.619 233.647C246.531 233.647 244.634 232.037 244.634 229.534C244.634 227.015 246.531 225.389 248.699 225.389C250.819 225.389 252.477 226.967 252.557 229.311ZM248.699 226.457C247.424 226.457 246.1 227.302 245.861 228.848H251.329C251.106 227.302 250.006 226.457 248.699 226.457ZM253.976 231.319L255.187 231.048C255.299 232.084 256.255 232.642 257.499 232.642C258.63 232.642 259.38 232.116 259.38 231.303C259.38 230.65 258.885 230.347 258.088 230.171L256.287 229.773C254.98 229.502 254.247 228.848 254.247 227.764C254.247 226.346 255.426 225.389 257.228 225.389C258.997 225.389 260.145 226.298 260.432 227.573L259.268 227.828C259.109 226.967 258.359 226.377 257.196 226.377C256.08 226.377 255.458 226.919 255.458 227.669C255.458 228.29 255.888 228.577 256.654 228.753L258.551 229.167C259.698 229.422 260.575 230.028 260.575 231.224C260.575 232.77 259.284 233.647 257.403 233.647C255.602 233.647 254.167 232.85 253.976 231.319Z" fill="#4B8A74"/>
<rect x="89.7764" y="169.939" width="232" height="31" rx="8.85626" fill="#C3F2E1"/>
<path d="M108.56 189.292V190.439H101.179V179.759H102.439V189.292H108.56ZM113.979 182.405C116.291 182.405 118.14 184.095 118.14 186.502C118.14 188.909 116.291 190.631 113.979 190.631C111.636 190.631 109.802 188.909 109.802 186.502C109.802 184.095 111.636 182.405 113.979 182.405ZM113.979 189.563C115.589 189.563 116.944 188.319 116.944 186.502C116.944 184.701 115.589 183.473 113.979 183.473C112.353 183.473 110.982 184.701 110.982 186.502C110.982 188.319 112.353 189.563 113.979 189.563ZM123.678 182.405C125.989 182.405 127.838 184.095 127.838 186.502C127.838 188.909 125.989 190.631 123.678 190.631C121.334 190.631 119.501 188.909 119.501 186.502C119.501 184.095 121.334 182.405 123.678 182.405ZM123.678 189.563C125.288 189.563 126.643 188.319 126.643 186.502C126.643 184.701 125.288 183.473 123.678 183.473C122.052 183.473 120.681 184.701 120.681 186.502C120.681 188.319 122.052 189.563 123.678 189.563ZM137.585 190.439H135.895L131.655 186.964H131.129V190.439H129.917V178.962H131.129V185.769H131.718L135.497 182.58H137.075L132.611 186.39L137.585 190.439ZM139.804 179.392C140.282 179.392 140.649 179.775 140.649 180.205C140.649 180.667 140.282 181.018 139.804 181.018C139.326 181.018 138.975 180.667 138.975 180.205C138.975 179.775 139.326 179.392 139.804 179.392ZM140.426 190.439H139.198V182.58H140.426V190.439ZM147.529 182.389C149.426 182.389 150.685 183.744 150.685 185.737V190.439H149.473V185.96C149.473 184.493 148.597 183.505 147.289 183.505C145.648 183.505 144.563 184.621 144.563 186.661V190.439H143.352V182.58H144.563V183.888C145.201 182.931 146.205 182.389 147.529 182.389ZM160.585 182.58L160.601 189.802C160.585 192.097 159.023 193.468 156.647 193.468C154.703 193.468 153.411 192.703 152.806 191.428L153.826 190.726C154.384 191.779 155.181 192.368 156.647 192.368C158.305 192.368 159.405 191.316 159.405 189.642V188.686C158.768 189.515 157.763 189.977 156.456 189.977C154.384 189.977 152.582 188.399 152.582 186.167C152.582 183.951 154.384 182.389 156.456 182.389C157.763 182.389 158.768 182.851 159.405 183.664V182.58H160.585ZM156.631 188.925C158.098 188.925 159.405 187.841 159.405 186.167C159.405 184.493 158.098 183.441 156.631 183.441C155.037 183.441 153.762 184.493 153.762 186.167C153.762 187.841 155.037 188.925 156.631 188.925ZM171.756 183.601H168.902V190.439H167.691V183.601H166.32V182.58H167.691V181.417C167.691 179.759 168.743 178.691 170.385 178.691C170.847 178.691 171.278 178.786 171.66 178.978L171.357 179.966C171.07 179.854 170.752 179.791 170.465 179.791C169.508 179.791 168.902 180.412 168.902 181.417V182.58H171.756V183.601ZM176.468 182.405C178.779 182.405 180.628 184.095 180.628 186.502C180.628 188.909 178.779 190.631 176.468 190.631C174.124 190.631 172.291 188.909 172.291 186.502C172.291 184.095 174.124 182.405 176.468 182.405ZM176.468 189.563C178.078 189.563 179.433 188.319 179.433 186.502C179.433 184.701 178.078 183.473 176.468 183.473C174.842 183.473 173.471 184.701 173.471 186.502C173.471 188.319 174.842 189.563 176.468 189.563ZM187.091 182.501C187.282 182.501 187.426 182.501 187.649 182.564L187.553 183.728C187.41 183.712 187.234 183.712 187.091 183.712C185.003 183.712 183.934 185.29 183.934 187.411V190.439H182.707V182.58H183.934V184.509C184.572 183.346 185.64 182.501 187.091 182.501ZM202.778 190.439H201.423L200.227 187.729H194.6L193.405 190.439H192.05L196.832 179.759H197.996L202.778 190.439ZM199.733 186.598L197.422 181.321L195.094 186.598H199.733ZM211.731 178.962V190.439H210.519V189.196C209.818 190.121 208.702 190.647 207.395 190.647C205.306 190.647 203.473 189.005 203.473 186.518C203.473 184.031 205.306 182.389 207.395 182.389C208.702 182.389 209.818 182.915 210.519 183.84V178.962H211.731ZM207.586 189.563C209.068 189.563 210.519 188.383 210.519 186.518C210.519 184.637 209.068 183.457 207.586 183.457C205.96 183.457 204.653 184.637 204.653 186.518C204.653 188.383 205.96 189.563 207.586 189.563ZM224.076 182.389C225.734 182.389 227.009 183.569 227.009 185.354V190.439H225.797V185.561C225.797 184.318 224.952 183.505 223.773 183.505C222.322 183.505 221.366 184.573 221.366 186.422V190.439H220.154V185.561C220.154 184.318 219.309 183.505 218.146 183.505C216.695 183.505 215.754 184.573 215.754 186.422V190.439H214.543V182.58H215.754V183.776C216.312 182.915 217.205 182.389 218.432 182.389C219.644 182.389 220.648 182.979 221.111 183.983C221.716 183.011 222.737 182.389 224.076 182.389ZM230.361 179.392C230.839 179.392 231.206 179.775 231.206 180.205C231.206 180.667 230.839 181.018 230.361 181.018C229.883 181.018 229.532 180.667 229.532 180.205C229.532 179.775 229.883 179.392 230.361 179.392ZM230.983 190.439H229.755V182.58H230.983V190.439ZM238.086 182.389C239.983 182.389 241.242 183.744 241.242 185.737V190.439H240.03V185.96C240.03 184.493 239.154 183.505 237.846 183.505C236.205 183.505 235.121 184.621 235.121 186.661V190.439H233.909V182.58H235.121V183.888C235.758 182.931 236.762 182.389 238.086 182.389ZM243.187 188.319L244.399 188.048C244.51 189.084 245.467 189.642 246.71 189.642C247.842 189.642 248.591 189.116 248.591 188.303C248.591 187.65 248.097 187.347 247.3 187.171L245.499 186.773C244.191 186.502 243.458 185.848 243.458 184.764C243.458 183.346 244.638 182.389 246.439 182.389C248.209 182.389 249.356 183.298 249.643 184.573L248.48 184.828C248.32 183.967 247.571 183.377 246.407 183.377C245.291 183.377 244.67 183.919 244.67 184.669C244.67 185.29 245.1 185.577 245.865 185.753L247.762 186.167C248.91 186.422 249.787 187.028 249.787 188.224C249.787 189.77 248.496 190.647 246.615 190.647C244.813 190.647 243.378 189.85 243.187 188.319ZM252.144 188.877C252.622 188.877 252.973 189.26 252.973 189.69C252.973 190.137 252.622 190.487 252.144 190.487C251.666 190.487 251.315 190.137 251.315 189.69C251.315 189.26 251.666 188.877 252.144 188.877Z" fill="#4B8A74"/>
<rect x="283.776" y="255.939" width="38" height="31" rx="8.85626" fill="#C3F2E1"/>
<path fill-rule="evenodd" clip-rule="evenodd" d="M317.776 263.439C317.776 261.23 315.986 259.439 313.776 259.439H297.776C295.567 259.439 293.776 261.23 293.776 263.439V272.939L297.874 268.841C299.465 267.251 302.054 267.284 303.603 268.915L307.93 273.47C309.195 274.801 311.327 274.773 312.555 273.407C313.763 272.066 315.848 272.011 317.124 273.287L317.776 273.939V263.439Z" fill="#6FCFAC"/>
<path d="M293.776 279.439C293.776 281.649 295.567 283.439 297.776 283.439H313.776C315.986 283.439 317.776 281.649 317.776 279.439V273.939L317.124 273.287C315.848 272.011 313.763 272.066 312.555 273.407C311.327 274.773 309.195 274.801 307.93 273.47L303.603 268.915C302.054 267.284 299.465 267.251 297.874 268.841L293.776 272.939V279.439Z" fill="#A0E3CB"/>
<rect x="283.776" y="212.939" width="38" height="31" rx="8.85626" fill="#C3F2E1"/>
<path fill-rule="evenodd" clip-rule="evenodd" d="M317.776 220.439C317.776 218.23 315.986 216.439 313.776 216.439H297.776C295.567 216.439 293.776 218.23 293.776 220.439V229.939L297.874 225.841C299.465 224.251 302.054 224.284 303.603 225.915L307.93 230.47C309.195 231.801 311.327 231.773 312.555 230.407C313.763 229.066 315.848 229.011 317.124 230.287L317.776 230.939V220.439Z" fill="#6FCFAC"/>
<path d="M293.776 236.439C293.776 238.649 295.567 240.439 297.776 240.439H313.776C315.986 240.439 317.776 238.649 317.776 236.439V230.939L317.124 230.287C315.848 229.011 313.763 229.066 312.555 230.407C311.327 231.773 309.195 231.801 307.93 230.47L303.603 225.915C302.054 224.284 299.465 224.251 297.874 225.841L293.776 229.939V236.439Z" fill="#A0E3CB"/>
<rect x="283.776" y="169.939" width="38" height="31" rx="8.85626" fill="#C3F2E1"/>
<path fill-rule="evenodd" clip-rule="evenodd" d="M317.776 177.439C317.776 175.23 315.986 173.439 313.776 173.439H297.776C295.567 173.439 293.776 175.23 293.776 177.439V186.939L297.874 182.841C299.465 181.251 302.054 181.284 303.603 182.915L307.93 187.47C309.195 188.801 311.327 188.773 312.555 187.407C313.763 186.066 315.848 186.011 317.124 187.287L317.776 187.939V177.439Z" fill="#6FCFAC"/>
<path d="M293.776 193.439C293.776 195.649 295.567 197.439 297.776 197.439H313.776C315.986 197.439 317.776 195.649 317.776 193.439V187.939L317.124 187.287C315.848 186.011 313.763 186.066 312.555 187.407C311.327 188.773 309.195 188.801 307.93 187.47L303.603 182.915C302.054 181.284 299.465 181.251 297.874 182.841L293.776 186.939V193.439Z" fill="#A0E3CB"/>
<path d="M51.7764 264.869C51.7764 263.803 52.6401 262.939 53.7055 262.939H61.422C62.4874 262.939 63.3511 263.803 63.3511 264.869V277.973C63.3511 278.832 62.3122 279.263 61.7045 278.655L58.9279 275.878C58.1745 275.125 56.953 275.125 56.1997 275.878L53.423 278.655C52.8153 279.263 51.7764 278.832 51.7764 277.973V264.869Z" fill="#52BE97"/>
</svg>
