<svg width="343" height="374" viewBox="0 0 343 374" fill="none" xmlns="http://www.w3.org/2000/svg">
<rect x="22.8955" y="134.904" width="319.14" height="172.999" rx="18.1689" fill="white"/>
<path d="M22.5205 82.7685C22.5205 72.7341 30.655 64.5996 40.6894 64.5996H152.352C162.386 64.5996 170.521 72.7341 170.521 82.7685V92.4307C170.521 102.465 162.386 110.6 152.352 110.6H40.6894C30.655 110.6 22.5205 102.465 22.5205 92.4307V82.7685Z" fill="white"/>
<rect x="246.521" y="161.486" width="84" height="46.4866" rx="21" fill="#D6C8FF"/>
<path d="M269.84 176.477C266.355 176.477 263.521 179.614 263.521 183.471V189.067C263.521 189.839 264.086 190.466 264.784 190.466H266.048C266.746 190.466 267.312 189.839 267.312 189.067V186.969C267.312 186.196 266.746 185.57 266.048 185.57H264.784V183.471C264.784 180.385 267.053 177.875 269.84 177.875C272.628 177.875 274.896 180.385 274.896 183.471V185.57H273.632C272.934 185.57 272.368 186.196 272.368 186.969V189.067C272.368 189.839 272.934 190.466 273.632 190.466H274.896C275.593 190.466 276.16 189.839 276.16 189.067V183.471C276.16 179.614 273.325 176.477 269.84 176.477Z" fill="#8270CA"/>
<path d="M286.494 182.579H288.147C290.369 182.579 291.86 183.941 291.86 186.081C291.86 188.27 290.288 189.843 287.856 189.843C285.683 189.843 283.818 188.562 283.818 186.081L285.942 185.66C285.942 187.2 286.834 187.865 287.904 187.865C289.007 187.865 289.753 187.168 289.753 186.114C289.753 185.173 289.039 184.541 287.985 184.541H284.353L284.532 178.737H291.358V180.731H286.575L286.494 182.579ZM297.912 178.494C300.701 178.494 302.582 180.796 302.582 184.168C302.582 187.557 300.701 189.843 297.912 189.843C295.124 189.843 293.243 187.557 293.243 184.168C293.243 180.796 295.124 178.494 297.912 178.494ZM297.912 187.816C299.404 187.816 300.344 186.325 300.344 184.168C300.344 182.012 299.404 180.52 297.912 180.52C296.421 180.52 295.48 182.012 295.48 184.168C295.48 186.325 296.421 187.816 297.912 187.816ZM308.03 178.494C310.705 178.494 312.488 180.488 312.488 184.006C312.488 185.952 312.099 187.492 311.029 188.594C310.283 189.356 309.246 189.843 307.997 189.843C306.165 189.843 304.755 188.935 304.301 187.265L306.409 186.86C306.668 187.654 307.235 187.913 308.078 187.913C308.695 187.913 309.23 187.638 309.603 187.232C310.202 186.584 310.429 185.676 310.429 184.687C309.813 185.368 308.824 185.773 307.835 185.773C305.484 185.773 304.041 184.282 304.041 182.19C304.041 180.05 305.679 178.494 308.03 178.494ZM308.078 183.974C309.003 183.974 309.846 183.276 309.846 182.19C309.846 181.152 309.003 180.455 308.078 180.455C307.138 180.455 306.246 181.169 306.246 182.223C306.246 183.276 307.138 183.974 308.078 183.974Z" fill="#8270CA"/>
<path d="M67.3427 190.599C67.3427 195.881 63.0608 200.163 57.7788 200.163C52.4968 200.163 48.2148 195.881 48.2148 190.599C48.2148 185.317 52.4968 181.035 57.7788 181.035C63.0608 181.035 67.3427 185.317 67.3427 190.599Z" fill="#D6C8FF"/>
<path d="M67.3427 272.599C67.3427 277.881 63.0608 282.163 57.7788 282.163C52.4968 282.163 48.2148 277.881 48.2148 272.599C48.2148 267.317 52.4968 263.035 57.7788 263.035C63.0608 263.035 67.3427 267.317 67.3427 272.599Z" fill="#D6C8FF"/>
<path d="M69.7764 231.295C69.7764 237.922 64.4038 243.295 57.7764 243.295C51.149 243.295 45.7764 237.922 45.7764 231.295C45.7764 224.668 51.149 219.295 57.7764 219.295C64.4038 219.295 69.7764 224.668 69.7764 231.295Z" fill="#D6C8FF"/>
<path fill-rule="evenodd" clip-rule="evenodd" d="M57.7783 203.164C64.7172 203.164 70.3422 197.538 70.3422 190.6C70.3422 183.661 64.7172 178.036 57.7783 178.036C50.8395 178.036 45.2144 183.661 45.2144 190.6C45.2144 197.538 50.8395 203.164 57.7783 203.164ZM57.7783 206.6C66.6149 206.6 73.7783 199.436 73.7783 190.6C73.7783 181.763 66.6149 174.6 57.7783 174.6C48.9418 174.6 41.7783 181.763 41.7783 190.6C41.7783 199.436 48.9418 206.6 57.7783 206.6Z" fill="#52BE97"/>
<path fill-rule="evenodd" clip-rule="evenodd" d="M57.7783 285.164C64.7172 285.164 70.3422 279.538 70.3422 272.6C70.3422 265.661 64.7172 260.036 57.7783 260.036C50.8395 260.036 45.2144 265.661 45.2144 272.6C45.2144 279.538 50.8395 285.164 57.7783 285.164ZM57.7783 288.6C66.6149 288.6 73.7783 281.436 73.7783 272.6C73.7783 263.763 66.6149 256.6 57.7783 256.6C48.9418 256.6 41.7783 263.763 41.7783 272.6C41.7783 281.436 48.9418 288.6 57.7783 288.6Z" fill="#52BE97"/>
<rect x="0.776367" y="87.627" width="193.414" height="63.7975" rx="18.1689" fill="#D6C8FF"/>
<path fill-rule="evenodd" clip-rule="evenodd" d="M42.7142 122.859C42.7142 124.692 41.2006 126.192 39.3506 126.192C37.5006 126.192 35.987 124.692 35.987 122.859C35.987 121.025 37.5006 119.525 39.3506 119.525C41.2006 119.525 42.7142 121.025 42.7142 122.859ZM33.4642 134.525V133.692C33.4642 130.859 35.8861 128.692 39.3506 128.692C42.8151 128.692 45.2369 130.859 45.2369 133.692V134.525H33.4642ZM30.9415 122.859C30.9415 118.259 34.7088 114.525 39.3506 114.525C43.9925 114.525 47.7597 118.259 47.7597 122.859C47.7597 124.375 47.3225 125.775 46.5992 127.009L48.8024 128.275C49.7274 126.675 50.2824 124.842 50.2824 122.859C50.2824 116.892 45.3715 112.025 39.3506 112.025C33.3296 112.025 28.4188 116.892 28.4188 122.859C28.4188 124.825 28.957 126.675 29.8988 128.275L32.102 127.009C31.3788 125.775 30.9415 124.375 30.9415 122.859Z" fill="#8270CA"/>
<path d="M39.3506 107.025C30.5211 107.025 23.3733 114.109 23.3733 122.859C23.3733 125.742 24.1638 128.442 25.5092 130.759L23.3397 132.009C21.7756 129.325 20.8506 126.192 20.8506 122.859C20.8506 112.742 29.142 104.525 39.3506 104.525C49.5593 104.525 57.8506 112.742 57.8506 122.859C57.8506 126.192 56.9256 129.325 55.3448 132.025L53.1752 130.775C54.5375 128.442 55.3279 125.742 55.3279 122.859C55.3279 114.109 48.1802 107.025 39.3506 107.025Z" fill="#8270CA"/>
<path d="M76.83 114.215C80.64 114.215 83.8484 117.309 83.8484 121.835C83.8484 126.39 80.64 129.455 76.83 129.455C74.968 129.455 73.4784 128.882 72.3611 127.88V133.895H67.7777V114.645H72.3611V115.791C73.4784 114.788 74.968 114.215 76.83 114.215ZM75.8847 125.559C77.8899 125.559 79.3509 124.07 79.3509 121.835C79.3509 119.629 77.8899 118.111 75.8847 118.111C74.0226 118.111 72.3611 119.629 72.3611 121.835C72.3611 124.07 74.0226 125.559 75.8847 125.559ZM93.2317 114.272C97.5 114.272 101.109 117.309 101.109 121.835C101.109 126.39 97.5 129.426 93.2317 129.426C88.8774 129.426 85.2679 126.39 85.2679 121.835C85.2679 117.309 88.8774 114.272 93.2317 114.272ZM93.2317 125.559C95.0077 125.559 96.6979 124.098 96.6979 121.835C96.6979 119.601 95.0077 118.111 93.2317 118.111C91.3696 118.111 89.6795 119.601 89.6795 121.835C89.6795 124.098 91.3696 125.559 93.2317 125.559ZM118.599 108.4V129.025H114.016V127.88C112.899 128.882 111.409 129.455 109.547 129.455C105.737 129.455 102.529 126.39 102.529 121.835C102.529 117.309 105.737 114.215 109.547 114.215C111.409 114.215 112.899 114.788 114.016 115.791V108.4H118.599ZM110.492 125.559C112.354 125.559 114.016 124.07 114.016 121.835C114.016 119.629 112.354 118.111 110.492 118.111C108.487 118.111 107.026 119.629 107.026 121.835C107.026 124.07 108.487 125.559 110.492 125.559ZM124.43 107.798C125.977 107.798 127.094 109.002 127.094 110.405C127.094 111.866 125.977 112.955 124.43 112.955C122.883 112.955 121.795 111.866 121.795 110.405C121.795 109.002 122.883 107.798 124.43 107.798ZM126.722 129.025H122.139V114.645H126.722V129.025ZM144.655 114.645V129.025H140.071V127.65C138.983 128.796 137.464 129.455 135.66 129.455C132.308 129.455 130.073 127.077 130.073 123.468V114.645H134.628V122.494C134.628 124.184 135.631 125.33 137.092 125.33C138.897 125.33 140.071 124.098 140.071 121.319V114.645H144.655ZM166.602 114.215C169.668 114.215 172.103 116.536 172.103 120.03V129.025H167.548V121.004C167.548 119.372 166.488 118.34 165.141 118.34C163.451 118.34 162.334 119.572 162.334 121.978V129.025H157.751V121.004C157.751 119.372 156.691 118.34 155.316 118.34C153.654 118.34 152.566 119.572 152.566 121.978V129.025H147.982V114.645H152.566V115.963C153.54 114.874 154.943 114.215 156.805 114.215C158.811 114.215 160.529 115.075 161.503 116.65C162.649 115.16 164.368 114.215 166.602 114.215Z" fill="#8270CA"/>
<path d="M94.399 268.682C96.9715 268.682 99.1378 270.771 99.1378 273.827C99.1378 276.902 96.9715 278.972 94.399 278.972C93.1418 278.972 92.136 278.585 91.3816 277.908V278.682H88.2869V264.755H91.3816V269.746C92.136 269.069 93.1418 268.682 94.399 268.682ZM93.7607 276.341C95.1147 276.341 96.1011 275.335 96.1011 273.827C96.1011 272.337 95.1147 271.312 93.7607 271.312C92.5035 271.312 91.3816 272.337 91.3816 273.827C91.3816 275.335 92.5035 276.341 93.7607 276.341ZM110.947 268.972V278.682H107.853V277.908C107.098 278.585 106.092 278.972 104.835 278.972C102.263 278.972 100.096 276.902 100.096 273.827C100.096 270.771 102.263 268.682 104.835 268.682C106.092 268.682 107.098 269.069 107.853 269.746V268.972H110.947ZM105.473 276.341C106.731 276.341 107.853 275.335 107.853 273.827C107.853 272.337 106.731 271.312 105.473 271.312C104.12 271.312 103.133 272.337 103.133 273.827C103.133 275.335 104.12 276.341 105.473 276.341ZM127.302 268.972L124.188 278.701H121.5L119.759 273.44L117.999 278.701H115.31L112.196 268.972H115.233L116.819 274.194L118.656 268.972H120.842L122.679 274.214L124.265 268.972H127.302ZM142.678 268.972L139.564 278.701H136.875L135.134 273.44L133.374 278.701H130.686L127.571 268.972H130.608L132.194 274.194L134.032 268.972H136.217L138.055 274.214L139.641 268.972H142.678ZM153.643 268.972V278.682H150.548V277.753C149.813 278.527 148.788 278.972 147.57 278.972C145.307 278.972 143.798 277.366 143.798 274.929V268.972H146.873V274.272C146.873 275.413 147.55 276.186 148.537 276.186C149.755 276.186 150.548 275.355 150.548 273.479V268.972H153.643ZM162.002 268.682C164.575 268.682 166.741 270.771 166.741 273.827C166.741 276.902 164.575 278.972 162.002 278.972C160.745 278.972 159.739 278.585 158.985 277.908V278.682H155.89V264.755H158.985V269.746C159.739 269.069 160.745 268.682 162.002 268.682ZM161.364 276.341C162.718 276.341 163.704 275.335 163.704 273.827C163.704 272.337 162.718 271.312 161.364 271.312C160.107 271.312 158.985 272.337 158.985 273.827C158.985 275.335 160.107 276.341 161.364 276.341Z" fill="#8270CA"/>
<path d="M88.2869 183.59H93.4126C97.6872 183.59 100.511 186.22 100.511 190.069C100.511 193.918 97.6872 196.549 93.4126 196.549H88.2869V183.59ZM91.4783 193.783H93.2965C95.7143 193.783 97.3003 192.313 97.3003 190.069C97.3003 187.826 95.7143 186.355 93.2965 186.355H91.4783V193.783ZM108.743 186.704C109.014 186.704 109.208 186.723 109.44 186.781L109.304 189.876H108.743C106.577 189.876 105.397 190.998 105.397 193.512V196.549H102.302V186.839H105.397V188.696C106.093 187.535 107.157 186.704 108.743 186.704ZM115.241 183.59H121.624C124.545 183.59 126.382 185.388 126.382 188.058C126.382 190.785 124.487 192.584 121.489 192.584H118.433V196.549H115.241V183.59ZM118.433 189.914H121.257C122.495 189.914 123.249 189.199 123.249 188.096C123.249 187.052 122.495 186.317 121.257 186.317H118.433V189.914ZM129.788 182.216C130.832 182.216 131.587 183.029 131.587 183.976C131.587 184.963 130.832 185.698 129.788 185.698C128.743 185.698 128.008 184.963 128.008 183.976C128.008 183.029 128.743 182.216 129.788 182.216ZM131.335 196.549H128.24V186.839H131.335V196.549ZM143.733 186.839V195.582C143.733 198.58 141.451 200.224 138.298 200.224C136.074 200.224 134.372 199.45 133.424 197.883L135.996 196.491C136.731 197.361 137.273 197.69 138.279 197.69C139.691 197.69 140.697 196.858 140.697 195.33V195.059C140 195.659 139.033 195.988 137.776 195.988C135.242 195.988 133.095 193.976 133.095 191.23C133.095 188.541 135.242 186.549 137.776 186.549C139.033 186.549 140 186.878 140.697 187.477V186.839H143.733ZM138.434 193.454C139.672 193.454 140.697 192.526 140.697 191.23C140.697 189.934 139.672 189.025 138.434 189.025C137.08 189.025 136.113 189.934 136.113 191.23C136.113 192.526 137.08 193.454 138.434 193.454ZM155.509 191.694V192.487H148.391C148.642 193.648 149.435 194.363 150.48 194.363C151.195 194.363 152.027 194.189 152.549 193.241L155.296 193.802C154.464 195.853 152.704 196.839 150.48 196.839C147.675 196.839 145.354 194.769 145.354 191.694C145.354 188.638 147.675 186.549 150.499 186.549C153.246 186.549 155.451 188.522 155.509 191.694ZM150.499 189.063C149.629 189.063 148.739 189.605 148.449 190.591H152.453C152.162 189.547 151.389 189.063 150.499 189.063ZM161.857 186.588C164.739 186.588 167.176 188.638 167.176 191.694C167.176 194.769 164.739 196.82 161.857 196.82C158.917 196.82 156.48 194.769 156.48 191.694C156.48 188.638 158.917 186.588 161.857 186.588ZM161.857 194.208C163.056 194.208 164.197 193.222 164.197 191.694C164.197 190.185 163.056 189.179 161.857 189.179C160.599 189.179 159.458 190.185 159.458 191.694C159.458 193.222 160.599 194.208 161.857 194.208ZM174.846 186.549C177.109 186.549 178.617 188.154 178.617 190.591V196.549H175.542V191.249C175.542 190.108 174.865 189.334 173.879 189.334C172.66 189.334 171.867 190.166 171.867 192.042V196.549H168.772V186.839H171.867V187.767C172.602 186.994 173.627 186.549 174.846 186.549Z" fill="#8270CA"/>
<path d="M94.3216 230.206H101.459C101.517 230.67 101.536 231.057 101.536 231.385C101.536 235.312 98.7317 238.136 94.8245 238.136C90.8981 238.136 87.842 235.176 87.842 231.366C87.842 227.575 90.8787 224.596 94.7665 224.596C97.6485 224.596 100.182 225.95 101.091 228.484L98.016 229.374C97.2617 227.904 96.0238 227.517 94.7665 227.517C92.6582 227.517 91.0528 229.18 91.0528 231.366C91.0528 233.571 92.6969 235.235 94.8632 235.235C96.5653 235.235 97.8032 234.345 98.2868 232.913H94.3216V230.206ZM109.782 228.001C110.053 228.001 110.246 228.02 110.479 228.078L110.343 231.173H109.782C107.616 231.173 106.436 232.294 106.436 234.809V237.846H103.341V228.136H106.436V229.993C107.132 228.832 108.196 228.001 109.782 228.001ZM121.941 228.136V237.846H118.846V237.072C118.092 237.749 117.086 238.136 115.828 238.136C113.256 238.136 111.09 236.066 111.09 232.991C111.09 229.935 113.256 227.846 115.828 227.846C117.086 227.846 118.092 228.233 118.846 228.91V228.136H121.941ZM116.467 235.505C117.724 235.505 118.846 234.5 118.846 232.991C118.846 231.501 117.724 230.476 116.467 230.476C115.113 230.476 114.126 231.501 114.126 232.991C114.126 234.5 115.113 235.505 116.467 235.505ZM136.748 227.846C138.818 227.846 140.462 229.413 140.462 231.772V237.846H137.386V232.43C137.386 231.327 136.671 230.631 135.762 230.631C134.62 230.631 133.866 231.463 133.866 233.088V237.846H130.771V232.43C130.771 231.327 130.056 230.631 129.127 230.631C128.005 230.631 127.27 231.463 127.27 233.088V237.846H124.176V228.136H127.27V229.026C127.928 228.291 128.876 227.846 130.133 227.846C131.487 227.846 132.648 228.426 133.305 229.49C134.079 228.484 135.239 227.846 136.748 227.846ZM155.146 227.846C157.215 227.846 158.86 229.413 158.86 231.772V237.846H155.784V232.43C155.784 231.327 155.068 230.631 154.159 230.631C153.018 230.631 152.264 231.463 152.264 233.088V237.846H149.169V232.43C149.169 231.327 148.453 230.631 147.525 230.631C146.403 230.631 145.668 231.463 145.668 233.088V237.846H142.573V228.136H145.668V229.026C146.326 228.291 147.274 227.846 148.531 227.846C149.885 227.846 151.045 228.426 151.703 229.49C152.477 228.484 153.637 227.846 155.146 227.846ZM160.314 235.312L163.331 234.693C163.466 235.525 164.221 235.834 165.052 235.834C165.865 235.834 166.31 235.486 166.31 235.06C166.31 234.732 166.058 234.48 165.343 234.345L163.37 233.958C161.571 233.629 160.546 232.662 160.546 231.134C160.546 229.142 162.267 227.846 164.724 227.846C167.141 227.846 168.747 228.948 169.134 230.631L166.31 231.192C166.213 230.592 165.633 230.051 164.685 230.051C163.853 230.051 163.582 230.457 163.582 230.805C163.582 231.076 163.698 231.347 164.317 231.482L166.6 231.946C168.437 232.333 169.288 233.436 169.288 234.867C169.288 237.014 167.431 238.136 164.878 238.136C162.596 238.136 160.642 237.304 160.314 235.312ZM181.138 228.136V237.846H178.044V237.072C177.289 237.749 176.283 238.136 175.026 238.136C172.454 238.136 170.287 236.066 170.287 232.991C170.287 229.935 172.454 227.846 175.026 227.846C176.283 227.846 177.289 228.233 178.044 228.91V228.136H181.138ZM175.664 235.505C176.922 235.505 178.044 234.5 178.044 232.991C178.044 231.501 176.922 230.476 175.664 230.476C174.31 230.476 173.324 231.501 173.324 232.991C173.324 234.5 174.31 235.505 175.664 235.505ZM193.799 228.117L188.19 241.134H184.843L186.41 237.517L182.387 228.117H185.714L188.015 233.784L190.472 228.117H193.799Z" fill="#8270CA"/>
</svg>
