<svg width="343" height="244" viewBox="0 0 343 244" fill="none" xmlns="http://www.w3.org/2000/svg">
<rect x="22.9629" y="70.3047" width="319.14" height="172.999" rx="18.1689" fill="white"/>
<rect x="22.5879" width="148" height="46" rx="18.1689" fill="white"/>
<rect x="246.588" y="96.8867" width="84" height="46.4866" rx="21" fill="#CAC6FF"/>
<path d="M269.907 111.877C266.423 111.877 263.588 115.014 263.588 118.872V124.467C263.588 125.24 264.153 125.866 264.852 125.866H266.116C266.813 125.866 267.38 125.24 267.38 124.467V122.369C267.38 121.597 266.813 120.97 266.116 120.97H264.852V118.872C264.852 115.786 267.12 113.276 269.907 113.276C272.695 113.276 274.963 115.786 274.963 118.872V120.97H273.699C273.002 120.97 272.435 121.597 272.435 122.369V124.467C272.435 125.24 273.002 125.866 273.699 125.866H274.963C275.661 125.866 276.227 125.24 276.227 124.467V118.872C276.227 115.014 273.392 111.877 269.907 111.877Z" fill="#7347F1"/>
<path d="M286.561 117.98L286.642 116.131H291.425V114.137H284.599L284.421 119.941H288.053C289.107 119.941 289.82 120.574 289.82 121.514C289.82 122.568 289.074 123.265 287.972 123.265C286.901 123.265 286.01 122.6 286.01 121.06L283.886 121.482C283.886 123.962 285.75 125.243 287.923 125.243C290.355 125.243 291.928 123.671 291.928 121.482C291.928 119.342 290.436 117.98 288.215 117.98H286.561ZM297.98 113.894C295.191 113.894 293.31 116.196 293.31 119.569C293.31 122.957 295.191 125.243 297.98 125.243C300.769 125.243 302.649 122.957 302.649 119.569C302.649 116.196 300.769 113.894 297.98 113.894ZM297.98 123.217C296.488 123.217 295.548 121.725 295.548 119.569C295.548 117.412 296.488 115.921 297.98 115.921C299.471 115.921 300.412 117.412 300.412 119.569C300.412 121.725 299.471 123.217 297.98 123.217ZM308.097 113.894C305.746 113.894 304.109 115.45 304.109 117.591C304.109 119.682 305.552 121.174 307.903 121.174C308.892 121.174 309.881 120.768 310.497 120.087C310.497 121.076 310.27 121.984 309.67 122.633C309.297 123.038 308.762 123.314 308.146 123.314C307.303 123.314 306.735 123.054 306.476 122.26L304.368 122.665C304.822 124.335 306.233 125.243 308.065 125.243C309.313 125.243 310.351 124.757 311.097 123.995C312.167 122.892 312.556 121.352 312.556 119.406C312.556 115.888 310.772 113.894 308.097 113.894ZM308.146 119.374C307.205 119.374 306.314 118.677 306.314 117.623C306.314 116.569 307.205 115.856 308.146 115.856C309.07 115.856 309.913 116.553 309.913 117.591C309.913 118.677 309.07 119.374 308.146 119.374Z" fill="#7347F1"/>
<circle cx="57.8111" cy="207.618" r="13.9694" fill="#7347F1"/>
<path d="M88.4625 204.082C87.2052 204.082 86.1995 204.469 85.4451 205.146V200.156H82.3504V214.082H85.4451V213.308C86.1995 213.985 87.2052 214.372 88.4625 214.372C91.035 214.372 93.2013 212.303 93.2013 209.227C93.2013 206.171 91.035 204.082 88.4625 204.082ZM87.8242 211.742C86.567 211.742 85.4451 210.736 85.4451 209.227C85.4451 207.738 86.567 206.713 87.8242 206.713C89.1782 206.713 90.1646 207.738 90.1646 209.227C90.1646 210.736 89.1782 211.742 87.8242 211.742ZM105.011 204.372H101.916V205.146C101.162 204.469 100.156 204.082 98.8987 204.082C96.3261 204.082 94.1598 206.171 94.1598 209.227C94.1598 212.303 96.3261 214.372 98.8987 214.372C100.156 214.372 101.162 213.985 101.916 213.308V214.082H105.011V204.372ZM99.5369 211.742C98.183 211.742 97.1965 210.736 97.1965 209.227C97.1965 207.738 98.183 206.713 99.5369 206.713C100.794 206.713 101.916 207.738 101.916 209.227C101.916 210.736 100.794 211.742 99.5369 211.742ZM121.366 204.372H118.329L116.743 209.614L114.905 204.372H112.72L110.882 209.595L109.296 204.372H106.259L109.374 214.101H112.062L113.822 208.84L115.563 214.101H118.252L121.366 204.372ZM136.741 204.372H133.704L132.118 209.614L130.281 204.372H128.095L126.258 209.595L124.672 204.372H121.635L124.749 214.101H127.438L129.198 208.84L130.939 214.101H133.627L136.741 204.372ZM147.707 204.372H144.612V208.879C144.612 210.755 143.819 211.587 142.6 211.587C141.614 211.587 140.937 210.813 140.937 209.672V204.372H137.862V210.33C137.862 212.767 139.37 214.372 141.633 214.372C142.852 214.372 143.877 213.927 144.612 213.154V214.082H147.707V204.372ZM156.066 204.082C154.808 204.082 153.803 204.469 153.048 205.146V200.156H149.954V214.082H153.048V213.308C153.803 213.985 154.808 214.372 156.066 214.372C158.638 214.372 160.805 212.303 160.805 209.227C160.805 206.171 158.638 204.082 156.066 204.082ZM155.427 211.742C154.17 211.742 153.048 210.736 153.048 209.227C153.048 207.738 154.17 206.713 155.427 206.713C156.781 206.713 157.768 207.738 157.768 209.227C157.768 210.736 156.781 211.742 155.427 211.742Z" fill="#5336A6"/>
<circle cx="57.8111" cy="125.95" r="13.9694" fill="#7347F1"/>
<path d="M82.3504 118.99V131.949H87.476C91.7507 131.949 94.5746 129.319 94.5746 125.47C94.5746 121.62 91.7507 118.99 87.476 118.99H82.3504ZM85.5418 129.183V121.756H87.36C89.7778 121.756 91.3638 123.226 91.3638 125.47C91.3638 127.713 89.7778 129.183 87.36 129.183H85.5418ZM102.807 122.104C101.221 122.104 100.157 122.936 99.4606 124.096V122.239H96.3659V131.949H99.4606V128.912C99.4606 126.398 100.641 125.276 102.807 125.276H103.368L103.503 122.181C103.271 122.123 103.078 122.104 102.807 122.104ZM109.305 118.99V131.949H112.496V127.984H115.552C118.55 127.984 120.446 126.185 120.446 123.458C120.446 120.789 118.608 118.99 115.688 118.99H109.305ZM112.496 125.315V121.717H115.32C116.558 121.717 117.312 122.452 117.312 123.497C117.312 124.599 116.558 125.315 115.32 125.315H112.496ZM123.851 117.617C122.807 117.617 122.072 118.429 122.072 119.377C122.072 120.363 122.807 121.098 123.851 121.098C124.896 121.098 125.65 120.363 125.65 119.377C125.65 118.429 124.896 117.617 123.851 117.617ZM125.399 131.949V122.239H122.304V131.949H125.399ZM137.797 122.239H134.76V122.878C134.064 122.278 133.097 121.949 131.839 121.949C129.306 121.949 127.159 123.942 127.159 126.63C127.159 129.377 129.306 131.388 131.839 131.388C133.097 131.388 134.064 131.059 134.76 130.46V130.731C134.76 132.259 133.754 133.09 132.342 133.09C131.337 133.09 130.795 132.762 130.06 131.891L127.487 133.284C128.435 134.851 130.137 135.624 132.362 135.624C135.514 135.624 137.797 133.98 137.797 130.982V122.239ZM132.497 128.854C131.143 128.854 130.176 127.926 130.176 126.63C130.176 125.334 131.143 124.425 132.497 124.425C133.735 124.425 134.76 125.334 134.76 126.63C134.76 127.926 133.735 128.854 132.497 128.854ZM149.572 127.094C149.514 123.922 147.309 121.949 144.563 121.949C141.739 121.949 139.417 124.038 139.417 127.094C139.417 130.17 141.739 132.239 144.543 132.239C146.768 132.239 148.528 131.253 149.359 129.203L146.613 128.642C146.091 129.589 145.259 129.764 144.543 129.764C143.499 129.764 142.706 129.048 142.454 127.887H149.572V127.094ZM144.563 124.464C145.452 124.464 146.226 124.947 146.516 125.992H142.512C142.802 125.005 143.692 124.464 144.563 124.464ZM155.92 121.988C152.98 121.988 150.543 124.038 150.543 127.094C150.543 130.17 152.98 132.22 155.92 132.22C158.802 132.22 161.239 130.17 161.239 127.094C161.239 124.038 158.802 121.988 155.92 121.988ZM155.92 129.609C154.663 129.609 153.522 128.622 153.522 127.094C153.522 125.586 154.663 124.58 155.92 124.58C157.119 124.58 158.261 125.586 158.261 127.094C158.261 128.622 157.119 129.609 155.92 129.609ZM168.909 121.949C167.691 121.949 166.665 122.394 165.93 123.168V122.239H162.836V131.949H165.93V127.442C165.93 125.566 166.724 124.735 167.942 124.735C168.929 124.735 169.606 125.508 169.606 126.649V131.949H172.681V125.992C172.681 123.555 171.172 121.949 168.909 121.949Z" fill="#5336A6"/>
<path d="M57.8457 184.5C67.5107 184.5 75.3457 176.665 75.3457 167C75.3457 157.335 67.5107 149.5 57.8457 149.5C48.1807 149.5 40.3457 157.335 40.3457 167C40.3457 176.665 48.1807 184.5 57.8457 184.5Z" fill="#7347F1" stroke="white" stroke-width="3"/>
<path d="M88.3851 165.606V168.314H92.3503C91.8667 169.745 90.6288 170.635 88.9267 170.635C86.7604 170.635 85.1163 168.971 85.1163 166.766C85.1163 164.581 86.7217 162.917 88.83 162.917C90.0872 162.917 91.3251 163.304 92.0795 164.774L95.1549 163.884C94.2458 161.351 91.712 159.997 88.83 159.997C84.9422 159.997 81.9055 162.975 81.9055 166.766C81.9055 170.577 84.9616 173.536 88.888 173.536C92.7951 173.536 95.5998 170.712 95.5998 166.786C95.5998 166.457 95.5804 166.07 95.5224 165.606H88.3851ZM103.846 163.401C102.26 163.401 101.196 164.233 100.5 165.393V163.536H97.4048V173.246H100.5V170.209C100.5 167.695 101.679 166.573 103.846 166.573H104.407L104.542 163.478C104.31 163.42 104.117 163.401 103.846 163.401ZM116.004 163.536H112.909V164.31C112.155 163.633 111.149 163.246 109.892 163.246C107.319 163.246 105.153 165.335 105.153 168.391C105.153 171.467 107.319 173.536 109.892 173.536C111.149 173.536 112.155 173.149 112.909 172.472V173.246H116.004V163.536ZM110.53 170.906C109.176 170.906 108.19 169.9 108.19 168.391C108.19 166.902 109.176 165.877 110.53 165.877C111.787 165.877 112.909 166.902 112.909 168.391C112.909 169.9 111.787 170.906 110.53 170.906ZM130.812 163.246C129.303 163.246 128.142 163.884 127.369 164.89C126.711 163.826 125.551 163.246 124.197 163.246C122.939 163.246 121.992 163.691 121.334 164.426V163.536H118.239V173.246H121.334V168.488C121.334 166.863 122.069 166.031 123.191 166.031C124.119 166.031 124.835 166.728 124.835 167.83V173.246H127.93V168.488C127.93 166.863 128.684 166.031 129.825 166.031C130.734 166.031 131.45 166.728 131.45 167.83V173.246H134.525V167.173C134.525 164.813 132.881 163.246 130.812 163.246ZM149.209 163.246C147.701 163.246 146.54 163.884 145.766 164.89C145.109 163.826 143.948 163.246 142.594 163.246C141.337 163.246 140.389 163.691 139.732 164.426V163.536H136.637V173.246H139.732V168.488C139.732 166.863 140.467 166.031 141.589 166.031C142.517 166.031 143.233 166.728 143.233 167.83V173.246H146.327V168.488C146.327 166.863 147.082 166.031 148.223 166.031C149.132 166.031 149.848 166.728 149.848 167.83V173.246H152.923V167.173C152.923 164.813 151.279 163.246 149.209 163.246ZM154.377 170.712C154.706 172.705 156.659 173.536 158.942 173.536C161.495 173.536 163.352 172.414 163.352 170.267C163.352 168.836 162.501 167.734 160.663 167.347L158.381 166.883C157.762 166.747 157.646 166.476 157.646 166.206C157.646 165.857 157.917 165.451 158.748 165.451C159.696 165.451 160.276 165.993 160.373 166.592L163.197 166.031C162.81 164.349 161.205 163.246 158.787 163.246C156.331 163.246 154.609 164.542 154.609 166.534C154.609 168.062 155.634 169.029 157.433 169.358L159.406 169.745C160.122 169.881 160.373 170.132 160.373 170.461C160.373 170.886 159.928 171.235 159.116 171.235C158.284 171.235 157.53 170.925 157.394 170.093L154.377 170.712ZM175.202 163.536H172.107V164.31C171.353 163.633 170.347 163.246 169.09 163.246C166.517 163.246 164.351 165.335 164.351 168.391C164.351 171.467 166.517 173.536 169.09 173.536C170.347 173.536 171.353 173.149 172.107 172.472V173.246H175.202V163.536ZM169.728 170.906C168.374 170.906 167.388 169.9 167.388 168.391C167.388 166.902 168.374 165.877 169.728 165.877C170.985 165.877 172.107 166.902 172.107 168.391C172.107 169.9 170.985 170.906 169.728 170.906ZM187.862 163.517H184.535L182.079 169.184L179.777 163.517H176.45L180.474 172.917L178.907 176.534H182.253L187.862 163.517Z" fill="#5336A6"/>
<path d="M68.9096 126C68.9096 132.11 63.9561 137.064 57.8457 137.064C51.7353 137.064 46.7818 132.11 46.7818 126C46.7818 119.89 51.7353 114.936 57.8457 114.936C63.9561 114.936 68.9096 119.89 68.9096 126ZM57.8457 143.5C67.5107 143.5 75.3457 135.665 75.3457 126C75.3457 116.335 67.5107 108.5 57.8457 108.5C48.1807 108.5 40.3457 116.335 40.3457 126C40.3457 135.665 48.1807 143.5 57.8457 143.5Z" fill="#74DCB0" stroke="white" stroke-width="3"/>
<path d="M68.9096 208C68.9096 214.11 63.9561 219.064 57.8457 219.064C51.7353 219.064 46.7818 214.11 46.7818 208C46.7818 201.89 51.7353 196.936 57.8457 196.936C63.9561 196.936 68.9096 201.89 68.9096 208ZM57.8457 225.5C67.5107 225.5 75.3457 217.665 75.3457 208C75.3457 198.335 67.5107 190.5 57.8457 190.5C48.1807 190.5 40.3457 198.335 40.3457 208C40.3457 217.665 48.1807 225.5 57.8457 225.5Z" fill="#74DCB0" stroke="white" stroke-width="3"/>
<rect x="0.84375" y="23.0273" width="199.414" height="65.7975" rx="18.1689" fill="#CAC6FF"/>
<path fill-rule="evenodd" clip-rule="evenodd" d="M42.7816 59.2595C42.7816 61.0927 41.2679 62.5927 39.418 62.5927C37.568 62.5927 36.0543 61.0927 36.0543 59.2595C36.0543 57.4261 37.568 55.9261 39.418 55.9261C41.2679 55.9261 42.7816 57.4261 42.7816 59.2595ZM33.5316 70.9261V70.0927C33.5316 67.2595 35.9534 65.0927 39.418 65.0927C42.8825 65.0927 45.3043 67.2595 45.3043 70.0927V70.9261H33.5316ZM31.0089 59.2595C31.0089 54.6595 34.7762 50.9261 39.418 50.9261C44.0599 50.9261 47.827 54.6595 47.827 59.2595C47.827 60.7761 47.3899 62.1761 46.6666 63.4095L48.8698 64.6761C49.7948 63.0761 50.3498 61.2427 50.3498 59.2595C50.3498 53.2927 45.4389 48.4261 39.418 48.4261C33.397 48.4261 28.4862 53.2927 28.4862 59.2595C28.4862 61.2261 29.0244 63.0761 29.9662 64.6761L32.1693 63.4095C31.4462 62.1761 31.0089 60.7761 31.0089 59.2595Z" fill="#7347F1"/>
<path d="M39.418 43.4261C30.5884 43.4261 23.4407 50.5095 23.4407 59.2595C23.4407 62.1428 24.2312 64.8428 25.5766 67.1595L23.4071 68.4095C21.843 65.7262 20.918 62.5928 20.918 59.2595C20.918 49.1428 29.2094 40.9261 39.418 40.9261C49.6266 40.9261 57.918 49.1428 57.918 59.2595C57.918 62.5928 56.993 65.7262 55.4121 68.4262L53.2426 67.1762C54.6049 64.8428 55.3952 62.1428 55.3952 59.2595C55.3952 50.5095 48.2476 43.4261 39.418 43.4261Z" fill="#7347F1"/>
<path d="M77.5122 49.7663C75.5433 49.7663 73.9683 50.3721 72.787 51.4322V50.2206H67.9406V70.5754H72.787V64.2145C73.9683 65.2747 75.5433 65.8805 77.5122 65.8805C81.5407 65.8805 84.9332 62.6394 84.9332 57.8234C84.9332 53.0376 81.5407 49.7663 77.5122 49.7663ZM76.5126 61.761C74.5438 61.761 72.787 60.186 72.787 57.8234C72.787 55.4911 74.5438 53.8857 76.5126 53.8857C78.6329 53.8857 80.1777 55.4911 80.1777 57.8234C80.1777 60.186 78.6329 61.761 76.5126 61.761ZM94.8547 49.8269C90.2507 49.8269 86.4342 53.0376 86.4342 57.8234C86.4342 62.6394 90.2507 65.8502 94.8547 65.8502C99.3679 65.8502 103.184 62.6394 103.184 57.8234C103.184 53.0376 99.3679 49.8269 94.8547 49.8269ZM94.8547 61.761C92.8859 61.761 91.0988 60.2163 91.0988 57.8234C91.0988 55.4608 92.8859 53.8857 94.8547 53.8857C96.7327 53.8857 98.5198 55.4608 98.5198 57.8234C98.5198 60.2163 96.7327 61.761 94.8547 61.761ZM121.678 43.6175H116.831V51.4322C115.65 50.3721 114.075 49.7663 112.106 49.7663C108.077 49.7663 104.685 53.0376 104.685 57.8234C104.685 62.6394 108.077 65.8805 112.106 65.8805C114.075 65.8805 115.65 65.2747 116.831 64.2145V65.4261H121.678V43.6175ZM113.106 61.761C110.985 61.761 109.44 60.186 109.44 57.8234C109.44 55.4911 110.985 53.8857 113.106 53.8857C115.074 53.8857 116.831 55.4911 116.831 57.8234C116.831 60.186 115.074 61.761 113.106 61.761ZM127.843 42.9814C126.207 42.9814 125.056 44.2535 125.056 45.7377C125.056 47.2825 126.207 48.4335 127.843 48.4335C129.479 48.4335 130.66 47.2825 130.66 45.7377C130.66 44.2535 129.479 42.9814 127.843 42.9814ZM130.266 65.4261V50.2206H125.42V65.4261H130.266ZM149.228 50.2206H144.381V57.2782C144.381 60.2163 143.139 61.5187 141.231 61.5187C139.686 61.5187 138.626 60.3071 138.626 58.52V50.2206H133.81V59.5499C133.81 63.3664 136.173 65.8805 139.717 65.8805C141.625 65.8805 143.23 65.1838 144.381 63.9722V65.4261H149.228V50.2206ZM172.434 49.7663C170.072 49.7663 168.254 50.7658 167.043 52.3409C166.013 50.675 164.196 49.7663 162.075 49.7663C160.107 49.7663 158.622 50.463 157.592 51.614V50.2206H152.746V65.4261H157.592V57.9748C157.592 55.4305 158.743 54.128 160.5 54.128C161.954 54.128 163.075 55.2184 163.075 56.945V65.4261H167.921V57.9748C167.921 55.4305 169.103 54.128 170.89 54.128C172.313 54.128 173.434 55.2184 173.434 56.945V65.4261H178.25V55.9151C178.25 52.2198 175.675 49.7663 172.434 49.7663Z" fill="#7347F1"/>
</svg>
