<svg width="343" height="374" viewBox="0 0 343 374" fill="none" xmlns="http://www.w3.org/2000/svg">
<rect x="22.8955" y="134.984" width="319.14" height="172.999" rx="18.1689" fill="#191A34"/>
<path d="M22.5205 82.8486C22.5205 72.8142 30.655 64.6797 40.6894 64.6797H152.352C162.386 64.6797 170.521 72.8142 170.521 82.8486V92.5108C170.521 102.545 162.386 110.68 152.352 110.68H40.6894C30.655 110.68 22.5205 102.545 22.5205 92.5108V82.8486Z" fill="#191A34"/>
<rect x="246.521" y="161.566" width="84" height="46.4866" rx="21" fill="#101126"/>
<path d="M269.84 176.557C266.355 176.557 263.521 179.694 263.521 183.551V189.147C263.521 189.919 264.086 190.546 264.784 190.546H266.048C266.746 190.546 267.312 189.919 267.312 189.147V187.049C267.312 186.276 266.746 185.65 266.048 185.65H264.784V183.551C264.784 180.465 267.053 177.956 269.84 177.956C272.628 177.956 274.896 180.465 274.896 183.551V185.65H273.632C272.934 185.65 272.368 186.276 272.368 187.049V189.147C272.368 189.919 272.934 190.546 273.632 190.546H274.896C275.593 190.546 276.16 189.919 276.16 189.147V183.551C276.16 179.694 273.325 176.557 269.84 176.557Z" fill="#BABAD3"/>
<path d="M286.494 182.659L286.575 180.811H291.358V178.817H284.532L284.353 184.621H287.985C289.039 184.621 289.753 185.253 289.753 186.194C289.753 187.248 289.007 187.945 287.904 187.945C286.834 187.945 285.942 187.28 285.942 185.74L283.818 186.161C283.818 188.642 285.683 189.923 287.856 189.923C290.288 189.923 291.86 188.35 291.86 186.161C291.86 184.021 290.369 182.659 288.147 182.659H286.494ZM297.912 178.574C295.124 178.574 293.243 180.876 293.243 184.248C293.243 187.637 295.124 189.923 297.912 189.923C300.701 189.923 302.582 187.637 302.582 184.248C302.582 180.876 300.701 178.574 297.912 178.574ZM297.912 187.896C296.421 187.896 295.48 186.405 295.48 184.248C295.48 182.092 296.421 180.6 297.912 180.6C299.404 180.6 300.344 182.092 300.344 184.248C300.344 186.405 299.404 187.896 297.912 187.896ZM308.03 178.574C305.679 178.574 304.041 180.13 304.041 182.27C304.041 184.362 305.484 185.853 307.835 185.853C308.824 185.853 309.813 185.448 310.429 184.767C310.429 185.756 310.202 186.664 309.603 187.313C309.23 187.718 308.695 187.994 308.078 187.994C307.235 187.994 306.668 187.734 306.409 186.94L304.301 187.345C304.755 189.015 306.165 189.923 307.997 189.923C309.246 189.923 310.283 189.436 311.029 188.674C312.099 187.572 312.488 186.032 312.488 184.086C312.488 180.568 310.705 178.574 308.03 178.574ZM308.078 184.054C307.138 184.054 306.246 183.357 306.246 182.303C306.246 181.249 307.138 180.535 308.078 180.535C309.003 180.535 309.846 181.233 309.846 182.27C309.846 183.357 309.003 184.054 308.078 184.054Z" fill="#BABAD3"/>
<rect x="0.776367" y="87.707" width="193.414" height="63.7975" rx="18.1689" fill="#353758"/>
<path fill-rule="evenodd" clip-rule="evenodd" d="M42.7142 122.939C42.7142 124.772 41.2006 126.272 39.3506 126.272C37.5006 126.272 35.987 124.772 35.987 122.939C35.987 121.105 37.5006 119.605 39.3506 119.605C41.2006 119.605 42.7142 121.105 42.7142 122.939ZM33.4642 134.605V133.772C33.4642 130.939 35.8861 128.772 39.3506 128.772C42.8151 128.772 45.2369 130.939 45.2369 133.772V134.605H33.4642ZM30.9415 122.939C30.9415 118.339 34.7088 114.605 39.3506 114.605C43.9925 114.605 47.7597 118.339 47.7597 122.939C47.7597 124.455 47.3225 125.855 46.5992 127.089L48.8024 128.355C49.7274 126.755 50.2824 124.922 50.2824 122.939C50.2824 116.972 45.3715 112.105 39.3506 112.105C33.3296 112.105 28.4188 116.972 28.4188 122.939C28.4188 124.905 28.957 126.755 29.8988 128.355L32.102 127.089C31.3788 125.855 30.9415 124.455 30.9415 122.939Z" fill="white"/>
<path d="M39.3506 107.105C30.5211 107.105 23.3733 114.189 23.3733 122.939C23.3733 125.822 24.1638 128.522 25.5092 130.839L23.3397 132.089C21.7756 129.406 20.8506 126.272 20.8506 122.939C20.8506 112.822 29.142 104.605 39.3506 104.605C49.5593 104.605 57.8506 112.822 57.8506 122.939C57.8506 126.272 56.9256 129.406 55.3448 132.106L53.1752 130.856C54.5375 128.522 55.3279 125.822 55.3279 122.939C55.3279 114.189 48.1802 107.105 39.3506 107.105Z" fill="white"/>
<path d="M76.83 114.295C80.64 114.295 83.8484 117.389 83.8484 121.915C83.8484 126.47 80.64 129.535 76.83 129.535C74.968 129.535 73.4784 128.962 72.3611 127.96V133.975H67.7777V114.725H72.3611V115.871C73.4784 114.868 74.968 114.295 76.83 114.295ZM75.8847 125.639C77.8899 125.639 79.3509 124.15 79.3509 121.915C79.3509 119.709 77.8899 118.191 75.8847 118.191C74.0226 118.191 72.3611 119.709 72.3611 121.915C72.3611 124.15 74.0226 125.639 75.8847 125.639ZM93.2317 114.353C97.5 114.353 101.109 117.389 101.109 121.915C101.109 126.47 97.5 129.507 93.2317 129.507C88.8774 129.507 85.2679 126.47 85.2679 121.915C85.2679 117.389 88.8774 114.353 93.2317 114.353ZM93.2317 125.639C95.0077 125.639 96.6979 124.178 96.6979 121.915C96.6979 119.681 95.0077 118.191 93.2317 118.191C91.3696 118.191 89.6795 119.681 89.6795 121.915C89.6795 124.178 91.3696 125.639 93.2317 125.639ZM118.599 108.48V129.105H114.016V127.96C112.899 128.962 111.409 129.535 109.547 129.535C105.737 129.535 102.529 126.47 102.529 121.915C102.529 117.389 105.737 114.295 109.547 114.295C111.409 114.295 112.899 114.868 114.016 115.871V108.48H118.599ZM110.492 125.639C112.354 125.639 114.016 124.15 114.016 121.915C114.016 119.709 112.354 118.191 110.492 118.191C108.487 118.191 107.026 119.709 107.026 121.915C107.026 124.15 108.487 125.639 110.492 125.639ZM124.43 107.878C125.977 107.878 127.094 109.082 127.094 110.485C127.094 111.946 125.977 113.035 124.43 113.035C122.883 113.035 121.795 111.946 121.795 110.485C121.795 109.082 122.883 107.878 124.43 107.878ZM126.722 129.105H122.139V114.725H126.722V129.105ZM144.655 114.725V129.105H140.071V127.73C138.983 128.876 137.464 129.535 135.66 129.535C132.308 129.535 130.073 127.158 130.073 123.548V114.725H134.628V122.574C134.628 124.264 135.631 125.41 137.092 125.41C138.897 125.41 140.071 124.178 140.071 121.4V114.725H144.655ZM166.602 114.295C169.668 114.295 172.103 116.616 172.103 120.11V129.105H167.548V121.084C167.548 119.452 166.488 118.42 165.141 118.42C163.451 118.42 162.334 119.652 162.334 122.058V129.105H157.751V121.084C157.751 119.452 156.691 118.42 155.316 118.42C153.654 118.42 152.566 119.652 152.566 122.058V129.105H147.982V114.725H152.566V116.043C153.54 114.954 154.943 114.295 156.805 114.295C158.811 114.295 160.529 115.155 161.503 116.73C162.649 115.241 164.368 114.295 166.602 114.295Z" fill="white"/>
<path d="M67.3427 190.244C67.3427 195.526 63.0608 199.808 57.7788 199.808C52.4968 199.808 48.2148 195.526 48.2148 190.244C48.2148 184.962 52.4968 180.68 57.7788 180.68C63.0608 180.68 67.3427 184.962 67.3427 190.244Z" fill="#7347F1"/>
<path d="M67.3427 272.244C67.3427 277.526 63.0608 281.808 57.7788 281.808C52.4968 281.808 48.2148 277.526 48.2148 272.244C48.2148 266.962 52.4968 262.68 57.7788 262.68C63.0608 262.68 67.3427 266.962 67.3427 272.244Z" fill="#7347F1"/>
<path d="M69.7764 230.939C69.7764 237.567 64.4038 242.939 57.7764 242.939C51.149 242.939 45.7764 237.567 45.7764 230.939C45.7764 224.312 51.149 218.939 57.7764 218.939C64.4038 218.939 69.7764 224.312 69.7764 230.939Z" fill="#7347F1"/>
<path fill-rule="evenodd" clip-rule="evenodd" d="M57.7783 202.808C64.7172 202.808 70.3422 197.183 70.3422 190.244C70.3422 183.305 64.7172 177.68 57.7783 177.68C50.8395 177.68 45.2144 183.305 45.2144 190.244C45.2144 197.183 50.8395 202.808 57.7783 202.808ZM57.7783 206.244C66.6149 206.244 73.7783 199.081 73.7783 190.244C73.7783 181.408 66.6149 174.244 57.7783 174.244C48.9418 174.244 41.7783 181.408 41.7783 190.244C41.7783 199.081 48.9418 206.244 57.7783 206.244Z" fill="#52BE97"/>
<path fill-rule="evenodd" clip-rule="evenodd" d="M57.7783 284.808C64.7172 284.808 70.3422 279.183 70.3422 272.244C70.3422 265.305 64.7172 259.68 57.7783 259.68C50.8395 259.68 45.2144 265.305 45.2144 272.244C45.2144 279.183 50.8395 284.808 57.7783 284.808ZM57.7783 288.244C66.6149 288.244 73.7783 281.081 73.7783 272.244C73.7783 263.408 66.6149 256.244 57.7783 256.244C48.9418 256.244 41.7783 263.408 41.7783 272.244C41.7783 281.081 48.9418 288.244 57.7783 288.244Z" fill="#52BE97"/>
<path d="M94.1282 268.994C96.6621 268.994 98.8864 270.986 98.8864 274.004C98.8864 277.021 96.6621 279.013 94.1282 279.013C92.5422 279.013 91.1882 278.375 90.3372 277.253V278.762H88.8672V264.835H90.3372V270.754C91.1882 269.632 92.5422 268.994 94.1282 268.994ZM93.8961 277.698C95.869 277.698 97.4551 276.267 97.4551 274.004C97.4551 271.721 95.869 270.29 93.8961 270.29C92.0973 270.29 90.3372 271.721 90.3372 274.004C90.3372 276.267 92.0973 277.698 93.8961 277.698ZM110.48 269.226V278.762H109.01V277.253C108.159 278.375 106.805 279.013 105.219 279.013C102.685 279.013 100.461 277.021 100.461 274.004C100.461 270.986 102.685 268.994 105.219 268.994C106.805 268.994 108.159 269.632 109.01 270.754V269.226H110.48ZM105.451 277.698C107.25 277.698 109.01 276.267 109.01 274.004C109.01 271.721 107.25 270.29 105.451 270.29C103.479 270.29 101.892 271.721 101.892 274.004C101.892 276.267 103.479 277.698 105.451 277.698ZM126.7 269.226L123.489 278.8H122.116L119.621 271.566L117.106 278.8H115.733L112.522 269.226H114.011L116.468 276.615L119.021 269.226H120.201L122.754 276.615L125.211 269.226H126.7ZM141.565 269.226L138.355 278.8H136.981L134.486 271.566L131.972 278.8H130.598L127.388 269.226H128.877L131.333 276.615L133.887 269.226H135.066L137.62 276.615L140.076 269.226H141.565ZM152.292 269.226V278.742H150.802V277.195C150.029 278.336 148.791 278.994 147.205 278.994C144.903 278.994 143.375 277.35 143.375 274.932V269.226H144.864V274.661C144.864 276.441 145.909 277.621 147.495 277.621C149.487 277.621 150.802 276.286 150.802 273.81V269.226H152.292ZM160.938 268.994C163.472 268.994 165.696 270.986 165.696 274.004C165.696 277.021 163.472 279.013 160.938 279.013C159.352 279.013 157.998 278.375 157.147 277.253V278.762H155.677V264.835H157.147V270.754C157.998 269.632 159.352 268.994 160.938 268.994ZM160.706 277.698C162.679 277.698 164.265 276.267 164.265 274.004C164.265 271.721 162.679 270.29 160.706 270.29C158.907 270.29 157.147 271.721 157.147 274.004C157.147 276.267 158.907 277.698 160.706 277.698Z" fill="#BABAD3"/>
<path d="M88.8672 183.67H93.1611C97.7065 183.67 100.337 186.474 100.337 190.149C100.337 193.805 97.7065 196.629 93.1611 196.629H88.8672V183.67ZM90.3952 195.236H93.1418C96.7781 195.236 98.7897 193.012 98.7897 190.149C98.7897 187.267 96.7781 185.043 93.1418 185.043H90.3952V195.236ZM108.428 186.996C108.661 186.996 108.835 186.996 109.105 187.074L108.989 188.486C108.815 188.467 108.603 188.467 108.428 188.467C105.895 188.467 104.599 190.381 104.599 192.954V196.629H103.109V187.093H104.599V189.434C105.372 188.022 106.668 186.996 108.428 186.996ZM115.954 183.67H121.602C124.368 183.67 126.108 185.314 126.108 187.693C126.108 190.072 124.368 191.716 121.602 191.716H117.482V196.629H115.954V183.67ZM117.482 190.343H121.602C123.459 190.343 124.6 189.24 124.6 187.693C124.6 186.145 123.459 185.043 121.602 185.043H117.482V190.343ZM129.442 183.225C130.023 183.225 130.467 183.689 130.467 184.211C130.467 184.772 130.023 185.198 129.442 185.198C128.862 185.198 128.437 184.772 128.437 184.211C128.437 183.689 128.862 183.225 129.442 183.225ZM130.197 196.629H128.707V187.093H130.197V196.629ZM142.586 187.093L142.606 195.855C142.586 198.64 140.691 200.304 137.809 200.304C135.449 200.304 133.882 199.375 133.147 197.828L134.385 196.977C135.062 198.254 136.029 198.969 137.809 198.969C139.82 198.969 141.155 197.693 141.155 195.662V194.501C140.381 195.507 139.163 196.068 137.577 196.068C135.062 196.068 132.877 194.153 132.877 191.445C132.877 188.757 135.062 186.861 137.577 186.861C139.163 186.861 140.381 187.422 141.155 188.408V187.093H142.586ZM137.79 194.791C139.569 194.791 141.155 193.476 141.155 191.445C141.155 189.414 139.569 188.138 137.79 188.138C135.855 188.138 134.308 189.414 134.308 191.445C134.308 193.476 135.855 194.791 137.79 194.791ZM154.73 191.619V192.161H146.548C146.683 194.308 148.308 195.584 149.952 195.584C151.306 195.584 152.525 195.062 153.202 193.534L154.517 193.844C153.763 195.836 152.099 196.88 149.952 196.88C147.418 196.88 145.117 194.927 145.117 191.89C145.117 188.834 147.418 186.861 150.049 186.861C152.621 186.861 154.633 188.776 154.73 191.619ZM150.049 188.157C148.502 188.157 146.896 189.182 146.606 191.058H153.24C152.97 189.182 151.635 188.157 150.049 188.157ZM161.461 186.88C164.266 186.88 166.509 188.931 166.509 191.851C166.509 194.772 164.266 196.861 161.461 196.861C158.618 196.861 156.393 194.772 156.393 191.851C156.393 188.931 158.618 186.88 161.461 186.88ZM161.461 195.565C163.414 195.565 165.059 194.056 165.059 191.851C165.059 189.666 163.414 188.176 161.461 188.176C159.488 188.176 157.825 189.666 157.825 191.851C157.825 194.056 159.488 195.565 161.461 195.565ZM174.099 186.861C176.401 186.861 177.929 188.505 177.929 190.923V196.629H176.459V191.194C176.459 189.414 175.395 188.215 173.809 188.215C171.817 188.215 170.501 189.569 170.501 192.045V196.629H169.031V187.093H170.501V188.679C171.275 187.519 172.494 186.861 174.099 186.861Z" fill="#BABAD3"/>
<path d="M94.283 230.808H101.459C101.478 231.059 101.478 231.272 101.478 231.465C101.478 235.218 98.8284 238.177 94.9793 238.177C91.1882 238.177 88.2289 235.218 88.2289 231.446C88.2289 227.674 91.1882 224.715 94.9406 224.715C97.7646 224.715 100.124 226.088 101.053 228.467L99.6794 228.951C98.7703 227.075 97.0102 226.146 94.9406 226.146C92.0393 226.146 89.7762 228.467 89.7762 231.446C89.7762 234.425 92.078 236.746 95.018 236.746C97.7839 236.746 99.6988 234.812 100.008 232.2H94.283V230.808ZM109.562 228.293C109.794 228.293 109.968 228.293 110.239 228.371L110.123 229.783C109.949 229.763 109.736 229.763 109.562 229.763C107.028 229.763 105.732 231.678 105.732 234.251V237.926H104.243V228.39H105.732V230.73C106.506 229.319 107.802 228.293 109.562 228.293ZM121.02 228.39V237.926H119.55V236.417C118.699 237.539 117.345 238.177 115.759 238.177C113.225 238.177 111.001 236.185 111.001 233.168C111.001 230.15 113.225 228.158 115.759 228.158C117.345 228.158 118.699 228.796 119.55 229.918V228.39H121.02ZM115.991 236.862C117.79 236.862 119.55 235.431 119.55 233.168C119.55 230.885 117.79 229.454 115.991 229.454C114.018 229.454 112.432 230.885 112.432 233.168C112.432 235.431 114.018 236.862 115.991 236.862ZM135.983 228.158C137.994 228.158 139.542 229.589 139.542 231.756V237.926H138.072V232.007C138.072 230.498 137.046 229.512 135.615 229.512C133.855 229.512 132.694 230.808 132.694 233.052V237.926H131.224V232.007C131.224 230.498 130.199 229.512 128.787 229.512C127.027 229.512 125.886 230.808 125.886 233.052V237.926H124.416V228.39H125.886V229.841C126.563 228.796 127.646 228.158 129.135 228.158C130.605 228.158 131.824 228.874 132.385 230.092C133.12 228.912 134.358 228.158 135.983 228.158ZM154.286 228.158C156.297 228.158 157.845 229.589 157.845 231.756V237.926H156.375V232.007C156.375 230.498 155.35 229.512 153.918 229.512C152.158 229.512 150.998 230.808 150.998 233.052V237.926H149.528V232.007C149.528 230.498 148.503 229.512 147.091 229.512C145.33 229.512 144.189 230.808 144.189 233.052V237.926H142.719V228.39H144.189V229.841C144.866 228.796 145.949 228.158 147.439 228.158C148.909 228.158 150.127 228.874 150.688 230.092C151.423 228.912 152.661 228.158 154.286 228.158ZM160.21 235.353L161.68 235.024C161.816 236.282 162.976 236.959 164.485 236.959C165.858 236.959 166.767 236.32 166.767 235.334C166.767 234.541 166.168 234.173 165.2 233.961L163.015 233.477C161.429 233.148 160.539 232.355 160.539 231.04C160.539 229.319 161.97 228.158 164.156 228.158C166.303 228.158 167.696 229.26 168.044 230.808L166.632 231.117C166.438 230.073 165.529 229.357 164.117 229.357C162.763 229.357 162.009 230.015 162.009 230.924C162.009 231.678 162.531 232.026 163.46 232.239L165.761 232.742C167.154 233.052 168.218 233.787 168.218 235.237C168.218 237.113 166.651 238.177 164.369 238.177C162.183 238.177 160.442 237.21 160.21 235.353ZM179.859 228.39V237.926H178.389V236.417C177.538 237.539 176.184 238.177 174.598 238.177C172.064 238.177 169.84 236.185 169.84 233.168C169.84 230.15 172.064 228.158 174.598 228.158C176.184 228.158 177.538 228.796 178.389 229.918V228.39H179.859ZM174.83 236.862C176.629 236.862 178.389 235.431 178.389 233.168C178.389 230.885 176.629 229.454 174.83 229.454C172.857 229.454 171.271 230.885 171.271 233.168C171.271 235.431 172.857 236.862 174.83 236.862ZM192.094 228.39L186.253 241.214H184.609L186.175 237.79L181.901 228.39H183.564L186.968 236.011L190.45 228.39H192.094Z" fill="#BABAD3"/>
</svg>
