<svg width="342" height="244" viewBox="0 0 342 244" fill="none" xmlns="http://www.w3.org/2000/svg">
<rect x="22.4629" y="70.3047" width="319.14" height="172.999" rx="18.1689" fill="#232439"/>
<rect x="22.0879" width="148" height="46" rx="18.1689" fill="#232439"/>
<rect x="246.088" y="96.8867" width="84" height="46.4866" rx="21" fill="#18192C"/>
<path d="M269.407 111.877C265.923 111.877 263.088 115.014 263.088 118.872V124.467C263.088 125.24 263.653 125.866 264.352 125.866H265.616C266.313 125.866 266.88 125.24 266.88 124.467V122.369C266.88 121.597 266.313 120.97 265.616 120.97H264.352V118.872C264.352 115.786 266.62 113.276 269.407 113.276C272.195 113.276 274.463 115.786 274.463 118.872V120.97H273.199C272.502 120.97 271.935 121.597 271.935 122.369V124.467C271.935 125.24 272.502 125.866 273.199 125.866H274.463C275.161 125.866 275.727 125.24 275.727 124.467V118.872C275.727 115.014 272.892 111.877 269.407 111.877Z" fill="#BABAD3"/>
<path d="M286.061 117.98L286.142 116.131H290.925V114.137H284.099L283.921 119.941H287.553C288.607 119.941 289.32 120.574 289.32 121.514C289.32 122.568 288.574 123.265 287.472 123.265C286.401 123.265 285.51 122.6 285.51 121.06L283.386 121.482C283.386 123.962 285.25 125.243 287.423 125.243C289.855 125.243 291.428 123.671 291.428 121.482C291.428 119.342 289.936 117.98 287.715 117.98H286.061ZM297.48 113.894C294.691 113.894 292.81 116.196 292.81 119.569C292.81 122.957 294.691 125.243 297.48 125.243C300.269 125.243 302.149 122.957 302.149 119.569C302.149 116.196 300.269 113.894 297.48 113.894ZM297.48 123.217C295.988 123.217 295.048 121.725 295.048 119.569C295.048 117.412 295.988 115.921 297.48 115.921C298.971 115.921 299.912 117.412 299.912 119.569C299.912 121.725 298.971 123.217 297.48 123.217ZM307.597 113.894C305.246 113.894 303.609 115.45 303.609 117.591C303.609 119.682 305.052 121.174 307.403 121.174C308.392 121.174 309.381 120.768 309.997 120.087C309.997 121.076 309.77 121.984 309.17 122.633C308.797 123.038 308.262 123.314 307.646 123.314C306.803 123.314 306.235 123.054 305.976 122.26L303.868 122.665C304.322 124.335 305.733 125.243 307.565 125.243C308.813 125.243 309.851 124.757 310.597 123.995C311.667 122.892 312.056 121.352 312.056 119.406C312.056 115.888 310.272 113.894 307.597 113.894ZM307.646 119.374C306.705 119.374 305.814 118.677 305.814 117.623C305.814 116.569 306.705 115.856 307.646 115.856C308.57 115.856 309.413 116.553 309.413 117.591C309.413 118.677 308.57 119.374 307.646 119.374Z" fill="#BABAD3"/>
<circle cx="57.3111" cy="207.618" r="13.9694" fill="#7347F1"/>
<path d="M87.9625 204.082C86.7052 204.082 85.6995 204.469 84.9451 205.146V200.156H81.8504V214.082H84.9451V213.308C85.6995 213.985 86.7052 214.372 87.9625 214.372C90.535 214.372 92.7013 212.303 92.7013 209.227C92.7013 206.171 90.535 204.082 87.9625 204.082ZM87.3242 211.742C86.067 211.742 84.9451 210.736 84.9451 209.227C84.9451 207.738 86.067 206.713 87.3242 206.713C88.6782 206.713 89.6646 207.738 89.6646 209.227C89.6646 210.736 88.6782 211.742 87.3242 211.742ZM104.511 204.372H101.416V205.146C100.662 204.469 99.6559 204.082 98.3987 204.082C95.8261 204.082 93.6598 206.171 93.6598 209.227C93.6598 212.303 95.8261 214.372 98.3987 214.372C99.6559 214.372 100.662 213.985 101.416 213.308V214.082H104.511V204.372ZM99.0369 211.742C97.683 211.742 96.6965 210.736 96.6965 209.227C96.6965 207.738 97.683 206.713 99.0369 206.713C100.294 206.713 101.416 207.738 101.416 209.227C101.416 210.736 100.294 211.742 99.0369 211.742ZM120.866 204.372H117.829L116.243 209.614L114.405 204.372H112.22L110.382 209.595L108.796 204.372H105.759L108.874 214.101H111.562L113.322 208.84L115.063 214.101H117.752L120.866 204.372ZM136.241 204.372H133.204L131.618 209.614L129.781 204.372H127.595L125.758 209.595L124.172 204.372H121.135L124.249 214.101H126.938L128.698 208.84L130.439 214.101H133.127L136.241 204.372ZM147.207 204.372H144.112V208.879C144.112 210.755 143.319 211.587 142.1 211.587C141.114 211.587 140.437 210.813 140.437 209.672V204.372H137.362V210.33C137.362 212.767 138.87 214.372 141.133 214.372C142.352 214.372 143.377 213.927 144.112 213.154V214.082H147.207V204.372ZM155.566 204.082C154.308 204.082 153.303 204.469 152.548 205.146V200.156H149.454V214.082H152.548V213.308C153.303 213.985 154.308 214.372 155.566 214.372C158.138 214.372 160.305 212.303 160.305 209.227C160.305 206.171 158.138 204.082 155.566 204.082ZM154.927 211.742C153.67 211.742 152.548 210.736 152.548 209.227C152.548 207.738 153.67 206.713 154.927 206.713C156.281 206.713 157.268 207.738 157.268 209.227C157.268 210.736 156.281 211.742 154.927 211.742Z" fill="#BABAD3"/>
<circle cx="57.3111" cy="125.95" r="13.9694" fill="#7347F1"/>
<path d="M81.8504 118.99V131.949H86.976C91.2507 131.949 94.0746 129.319 94.0746 125.47C94.0746 121.62 91.2507 118.99 86.976 118.99H81.8504ZM85.0418 129.183V121.756H86.86C89.2778 121.756 90.8638 123.226 90.8638 125.47C90.8638 127.713 89.2778 129.183 86.86 129.183H85.0418ZM102.307 122.104C100.721 122.104 99.657 122.936 98.9606 124.096V122.239H95.8659V131.949H98.9606V128.912C98.9606 126.398 100.141 125.276 102.307 125.276H102.868L103.003 122.181C102.771 122.123 102.578 122.104 102.307 122.104ZM108.805 118.99V131.949H111.996V127.984H115.052C118.05 127.984 119.946 126.185 119.946 123.458C119.946 120.789 118.108 118.99 115.188 118.99H108.805ZM111.996 125.315V121.717H114.82C116.058 121.717 116.812 122.452 116.812 123.497C116.812 124.599 116.058 125.315 114.82 125.315H111.996ZM123.351 117.617C122.307 117.617 121.572 118.429 121.572 119.377C121.572 120.363 122.307 121.098 123.351 121.098C124.396 121.098 125.15 120.363 125.15 119.377C125.15 118.429 124.396 117.617 123.351 117.617ZM124.899 131.949V122.239H121.804V131.949H124.899ZM137.297 122.239H134.26V122.878C133.564 122.278 132.597 121.949 131.339 121.949C128.806 121.949 126.659 123.942 126.659 126.63C126.659 129.377 128.806 131.388 131.339 131.388C132.597 131.388 133.564 131.059 134.26 130.46V130.731C134.26 132.259 133.254 133.09 131.842 133.09C130.837 133.09 130.295 132.762 129.56 131.891L126.987 133.284C127.935 134.851 129.637 135.624 131.862 135.624C135.014 135.624 137.297 133.98 137.297 130.982V122.239ZM131.997 128.854C130.643 128.854 129.676 127.926 129.676 126.63C129.676 125.334 130.643 124.425 131.997 124.425C133.235 124.425 134.26 125.334 134.26 126.63C134.26 127.926 133.235 128.854 131.997 128.854ZM149.072 127.094C149.014 123.922 146.809 121.949 144.063 121.949C141.239 121.949 138.917 124.038 138.917 127.094C138.917 130.17 141.239 132.239 144.043 132.239C146.268 132.239 148.028 131.253 148.859 129.203L146.113 128.642C145.591 129.589 144.759 129.764 144.043 129.764C142.999 129.764 142.206 129.048 141.954 127.887H149.072V127.094ZM144.063 124.464C144.952 124.464 145.726 124.947 146.016 125.992H142.012C142.302 125.005 143.192 124.464 144.063 124.464ZM155.42 121.988C152.48 121.988 150.043 124.038 150.043 127.094C150.043 130.17 152.48 132.22 155.42 132.22C158.302 132.22 160.739 130.17 160.739 127.094C160.739 124.038 158.302 121.988 155.42 121.988ZM155.42 129.609C154.163 129.609 153.022 128.622 153.022 127.094C153.022 125.586 154.163 124.58 155.42 124.58C156.619 124.58 157.761 125.586 157.761 127.094C157.761 128.622 156.619 129.609 155.42 129.609ZM168.409 121.949C167.191 121.949 166.165 122.394 165.43 123.168V122.239H162.336V131.949H165.43V127.442C165.43 125.566 166.224 124.735 167.442 124.735C168.429 124.735 169.106 125.508 169.106 126.649V131.949H172.181V125.992C172.181 123.555 170.672 121.949 168.409 121.949Z" fill="#BABAD3"/>
<path d="M57.3457 184.5C67.0107 184.5 74.8457 176.665 74.8457 167C74.8457 157.335 67.0107 149.5 57.3457 149.5C47.6807 149.5 39.8457 157.335 39.8457 167C39.8457 176.665 47.6807 184.5 57.3457 184.5Z" fill="#7347F1" stroke="#232439" stroke-width="3"/>
<path d="M87.8851 165.606V168.314H91.8503C91.3667 169.745 90.1288 170.635 88.4267 170.635C86.2604 170.635 84.6163 168.971 84.6163 166.766C84.6163 164.581 86.2217 162.917 88.33 162.917C89.5872 162.917 90.8251 163.304 91.5795 164.774L94.6549 163.884C93.7458 161.351 91.212 159.997 88.33 159.997C84.4422 159.997 81.4055 162.975 81.4055 166.766C81.4055 170.577 84.4616 173.536 88.388 173.536C92.2951 173.536 95.0998 170.712 95.0998 166.786C95.0998 166.457 95.0804 166.07 95.0224 165.606H87.8851ZM103.346 163.401C101.76 163.401 100.696 164.233 99.9995 165.393V163.536H96.9048V173.246H99.9995V170.209C99.9995 167.695 101.179 166.573 103.346 166.573H103.907L104.042 163.478C103.81 163.42 103.617 163.401 103.346 163.401ZM115.504 163.536H112.409V164.31C111.655 163.633 110.649 163.246 109.392 163.246C106.819 163.246 104.653 165.335 104.653 168.391C104.653 171.467 106.819 173.536 109.392 173.536C110.649 173.536 111.655 173.149 112.409 172.472V173.246H115.504V163.536ZM110.03 170.906C108.676 170.906 107.69 169.9 107.69 168.391C107.69 166.902 108.676 165.877 110.03 165.877C111.287 165.877 112.409 166.902 112.409 168.391C112.409 169.9 111.287 170.906 110.03 170.906ZM130.312 163.246C128.803 163.246 127.642 163.884 126.869 164.89C126.211 163.826 125.051 163.246 123.697 163.246C122.439 163.246 121.492 163.691 120.834 164.426V163.536H117.739V173.246H120.834V168.488C120.834 166.863 121.569 166.031 122.691 166.031C123.619 166.031 124.335 166.728 124.335 167.83V173.246H127.43V168.488C127.43 166.863 128.184 166.031 129.325 166.031C130.234 166.031 130.95 166.728 130.95 167.83V173.246H134.025V167.173C134.025 164.813 132.381 163.246 130.312 163.246ZM148.709 163.246C147.201 163.246 146.04 163.884 145.266 164.89C144.609 163.826 143.448 163.246 142.094 163.246C140.837 163.246 139.889 163.691 139.232 164.426V163.536H136.137V173.246H139.232V168.488C139.232 166.863 139.967 166.031 141.089 166.031C142.017 166.031 142.733 166.728 142.733 167.83V173.246H145.827V168.488C145.827 166.863 146.582 166.031 147.723 166.031C148.632 166.031 149.348 166.728 149.348 167.83V173.246H152.423V167.173C152.423 164.813 150.779 163.246 148.709 163.246ZM153.877 170.712C154.206 172.705 156.159 173.536 158.442 173.536C160.995 173.536 162.852 172.414 162.852 170.267C162.852 168.836 162.001 167.734 160.163 167.347L157.881 166.883C157.262 166.747 157.146 166.476 157.146 166.206C157.146 165.857 157.417 165.451 158.248 165.451C159.196 165.451 159.776 165.993 159.873 166.592L162.697 166.031C162.31 164.349 160.705 163.246 158.287 163.246C155.831 163.246 154.109 164.542 154.109 166.534C154.109 168.062 155.134 169.029 156.933 169.358L158.906 169.745C159.622 169.881 159.873 170.132 159.873 170.461C159.873 170.886 159.428 171.235 158.616 171.235C157.784 171.235 157.03 170.925 156.894 170.093L153.877 170.712ZM174.702 163.536H171.607V164.31C170.853 163.633 169.847 163.246 168.59 163.246C166.017 163.246 163.851 165.335 163.851 168.391C163.851 171.467 166.017 173.536 168.59 173.536C169.847 173.536 170.853 173.149 171.607 172.472V173.246H174.702V163.536ZM169.228 170.906C167.874 170.906 166.888 169.9 166.888 168.391C166.888 166.902 167.874 165.877 169.228 165.877C170.485 165.877 171.607 166.902 171.607 168.391C171.607 169.9 170.485 170.906 169.228 170.906ZM187.362 163.517H184.035L181.579 169.184L179.277 163.517H175.95L179.974 172.917L178.407 176.534H181.753L187.362 163.517Z" fill="#BABAD3"/>
<path d="M68.4096 126C68.4096 132.11 63.4561 137.064 57.3457 137.064C51.2353 137.064 46.2818 132.11 46.2818 126C46.2818 119.89 51.2353 114.936 57.3457 114.936C63.4561 114.936 68.4096 119.89 68.4096 126ZM57.3457 143.5C67.0107 143.5 74.8457 135.665 74.8457 126C74.8457 116.335 67.0107 108.5 57.3457 108.5C47.6807 108.5 39.8457 116.335 39.8457 126C39.8457 135.665 47.6807 143.5 57.3457 143.5Z" fill="#1A7D48" stroke="#232439" stroke-width="3"/>
<path d="M68.4096 208C68.4096 214.11 63.4561 219.064 57.3457 219.064C51.2353 219.064 46.2818 214.11 46.2818 208C46.2818 201.89 51.2353 196.936 57.3457 196.936C63.4561 196.936 68.4096 201.89 68.4096 208ZM57.3457 225.5C67.0107 225.5 74.8457 217.665 74.8457 208C74.8457 198.335 67.0107 190.5 57.3457 190.5C47.6807 190.5 39.8457 198.335 39.8457 208C39.8457 217.665 47.6807 225.5 57.3457 225.5Z" fill="#1A7D48" stroke="#232439" stroke-width="3"/>
<rect x="0.34375" y="23.0273" width="199.414" height="65.7975" rx="18.1689" fill="#2F3150"/>
<path fill-rule="evenodd" clip-rule="evenodd" d="M42.2816 59.2595C42.2816 61.0927 40.7679 62.5927 38.918 62.5927C37.068 62.5927 35.5543 61.0927 35.5543 59.2595C35.5543 57.4261 37.068 55.9261 38.918 55.9261C40.7679 55.9261 42.2816 57.4261 42.2816 59.2595ZM33.0316 70.9261V70.0927C33.0316 67.2595 35.4534 65.0927 38.918 65.0927C42.3825 65.0927 44.8043 67.2595 44.8043 70.0927V70.9261H33.0316ZM30.5089 59.2595C30.5089 54.6595 34.2762 50.9261 38.918 50.9261C43.5599 50.9261 47.327 54.6595 47.327 59.2595C47.327 60.7761 46.8899 62.1761 46.1666 63.4095L48.3698 64.6761C49.2948 63.0761 49.8498 61.2427 49.8498 59.2595C49.8498 53.2927 44.9389 48.4261 38.918 48.4261C32.897 48.4261 27.9862 53.2927 27.9862 59.2595C27.9862 61.2261 28.5244 63.0761 29.4662 64.6761L31.6693 63.4095C30.9462 62.1761 30.5089 60.7761 30.5089 59.2595Z" fill="white"/>
<path d="M38.918 43.4261C30.0884 43.4261 22.9407 50.5095 22.9407 59.2595C22.9407 62.1428 23.7312 64.8428 25.0766 67.1595L22.9071 68.4095C21.343 65.7262 20.418 62.5928 20.418 59.2595C20.418 49.1428 28.7094 40.9261 38.918 40.9261C49.1266 40.9261 57.418 49.1428 57.418 59.2595C57.418 62.5928 56.493 65.7262 54.9121 68.4262L52.7426 67.1762C54.1049 64.8428 54.8952 62.1428 54.8952 59.2595C54.8952 50.5095 47.7476 43.4261 38.918 43.4261Z" fill="white"/>
<path d="M77.0122 49.7663C75.0434 49.7663 73.4683 50.3721 72.287 51.4322V50.2206H67.4406V70.5754H72.287V64.2145C73.4683 65.2747 75.0434 65.8805 77.0122 65.8805C81.0408 65.8805 84.4332 62.6394 84.4332 57.8234C84.4332 53.0376 81.0408 49.7663 77.0122 49.7663ZM76.0127 61.761C74.0438 61.761 72.287 60.186 72.287 57.8234C72.287 55.4911 74.0438 53.8857 76.0127 53.8857C78.1329 53.8857 79.6777 55.4911 79.6777 57.8234C79.6777 60.186 78.1329 61.761 76.0127 61.761ZM94.3548 49.8269C89.7507 49.8269 85.9342 53.0376 85.9342 57.8234C85.9342 62.6394 89.7507 65.8502 94.3548 65.8502C98.868 65.8502 102.684 62.6394 102.684 57.8234C102.684 53.0376 98.868 49.8269 94.3548 49.8269ZM94.3548 61.761C92.3859 61.761 90.5989 60.2163 90.5989 57.8234C90.5989 55.4608 92.3859 53.8857 94.3548 53.8857C96.2328 53.8857 98.0199 55.4608 98.0199 57.8234C98.0199 60.2163 96.2328 61.761 94.3548 61.761ZM121.178 43.6175H116.331V51.4322C115.15 50.3721 113.575 49.7663 111.606 49.7663C107.577 49.7663 104.185 53.0376 104.185 57.8234C104.185 62.6394 107.577 65.8805 111.606 65.8805C113.575 65.8805 115.15 65.2747 116.331 64.2145V65.4261H121.178V43.6175ZM112.606 61.761C110.485 61.761 108.941 60.186 108.941 57.8234C108.941 55.4911 110.485 53.8857 112.606 53.8857C114.574 53.8857 116.331 55.4911 116.331 57.8234C116.331 60.186 114.574 61.761 112.606 61.761ZM127.343 42.9814C125.708 42.9814 124.557 44.2535 124.557 45.7377C124.557 47.2825 125.708 48.4335 127.343 48.4335C128.979 48.4335 130.16 47.2825 130.16 45.7377C130.16 44.2535 128.979 42.9814 127.343 42.9814ZM129.766 65.4261V50.2206H124.92V65.4261H129.766ZM148.728 50.2206H143.881V57.2782C143.881 60.2163 142.639 61.5187 140.731 61.5187C139.186 61.5187 138.126 60.3071 138.126 58.52V50.2206H133.31V59.5499C133.31 63.3664 135.673 65.8805 139.217 65.8805C141.125 65.8805 142.73 65.1838 143.881 63.9722V65.4261H148.728V50.2206ZM171.935 49.7663C169.572 49.7663 167.755 50.7658 166.543 52.3409C165.513 50.675 163.696 49.7663 161.575 49.7663C159.607 49.7663 158.122 50.463 157.093 51.614V50.2206H152.246V65.4261H157.093V57.9748C157.093 55.4305 158.244 54.128 160 54.128C161.454 54.128 162.575 55.2184 162.575 56.945V65.4261H167.421V57.9748C167.421 55.4305 168.603 54.128 170.39 54.128C171.813 54.128 172.934 55.2184 172.934 56.945V65.4261H177.75V55.9151C177.75 52.2198 175.176 49.7663 171.935 49.7663Z" fill="white"/>
</svg>
