<svg width="342" height="374" viewBox="0 0 342 374" fill="none" xmlns="http://www.w3.org/2000/svg">
<rect x="22.6357" y="134.904" width="319.14" height="172.999" rx="18.1689" fill="#191A34"/>
<path d="M22.3643 82.7685C22.3643 72.7341 30.4987 64.5996 40.5331 64.5996H180.59C190.624 64.5996 198.759 72.7341 198.759 82.7685V92.4833C198.759 102.518 190.624 110.652 180.59 110.652H40.5331C30.4987 110.652 22.3643 102.518 22.3643 92.4833V82.7685Z" fill="#191A34"/>
<rect x="38.8955" y="169.693" width="207.237" height="30.7017" rx="8.85626" fill="#101126"/>
<rect x="38.8955" y="212.795" width="207.237" height="30.7017" rx="8.85626" fill="#101126"/>
<rect x="38.8955" y="255.896" width="207.237" height="30.7017" rx="8.85626" fill="#101126"/>
<path d="M84.1113 180.088C87.2995 180.088 89.8023 182.559 89.8023 185.683C89.8023 188.792 87.2995 191.247 84.1113 191.247C80.923 191.247 78.4202 188.792 78.4202 185.683C78.4202 182.559 80.923 180.088 84.1113 180.088ZM84.1113 188.84C85.8489 188.84 87.172 187.501 87.172 185.683C87.172 183.85 85.8489 182.495 84.1113 182.495C82.3737 182.495 81.0506 183.85 81.0506 185.683C81.0506 187.501 82.3737 188.84 84.1113 188.84ZM99.2902 183.005V191.008H96.7396V190.243C96.1339 190.88 95.289 191.247 94.2847 191.247C92.4196 191.247 91.1761 189.924 91.1761 187.915V183.005H93.7108V187.373C93.7108 188.314 94.2687 188.951 95.0817 188.951C96.086 188.951 96.7396 188.266 96.7396 186.72V183.005H99.2902ZM106.45 182.894C106.674 182.894 106.833 182.91 107.024 182.957L106.913 185.508H106.45C104.665 185.508 103.693 186.433 103.693 188.505V191.008H101.142V183.005H103.693V184.536C104.267 183.579 105.143 182.894 106.45 182.894ZM116.811 182.766C118.677 182.766 119.92 184.089 119.92 186.098V191.008H117.385V186.64C117.385 185.699 116.827 185.062 116.014 185.062C115.01 185.062 114.356 185.747 114.356 187.293V191.008H111.806V183.005H114.356V183.77C114.962 183.133 115.807 182.766 116.811 182.766ZM129.503 187.007V187.66H123.637C123.844 188.617 124.498 189.206 125.359 189.206C125.948 189.206 126.634 189.063 127.064 188.282L129.328 188.744C128.642 190.434 127.192 191.247 125.359 191.247C123.047 191.247 121.134 189.541 121.134 187.007C121.134 184.488 123.047 182.766 125.375 182.766C127.638 182.766 129.455 184.392 129.503 187.007ZM125.375 184.839C124.657 184.839 123.924 185.285 123.685 186.098H126.985C126.745 185.237 126.108 184.839 125.375 184.839ZM142.295 183.005L139.729 191.024H137.513L136.078 186.688L134.628 191.024H132.412L129.845 183.005H132.348L133.655 187.309L135.17 183.005H136.971L138.485 187.325L139.793 183.005H142.295ZM149.586 191.008H147.035V179.53H149.586V191.008ZM155.347 182.798C157.722 182.798 159.731 184.488 159.731 187.007C159.731 189.541 157.722 191.231 155.347 191.231C152.924 191.231 150.915 189.541 150.915 187.007C150.915 184.488 152.924 182.798 155.347 182.798ZM155.347 189.079C156.335 189.079 157.276 188.266 157.276 187.007C157.276 185.763 156.335 184.934 155.347 184.934C154.311 184.934 153.37 185.763 153.37 187.007C153.37 188.266 154.311 189.079 155.347 189.079ZM169.288 183.005V190.211C169.288 192.682 167.407 194.037 164.808 194.037C162.975 194.037 161.572 193.399 160.791 192.108L162.911 190.96C163.517 191.677 163.964 191.948 164.793 191.948C165.956 191.948 166.785 191.263 166.785 190.004V189.78C166.211 190.275 165.414 190.546 164.378 190.546C162.29 190.546 160.52 188.888 160.52 186.624C160.52 184.408 162.29 182.766 164.378 182.766C165.414 182.766 166.211 183.037 166.785 183.531V183.005H169.288ZM164.92 188.457C165.94 188.457 166.785 187.692 166.785 186.624C166.785 185.556 165.94 184.807 164.92 184.807C163.804 184.807 163.007 185.556 163.007 186.624C163.007 187.692 163.804 188.457 164.92 188.457ZM175.055 182.798C177.431 182.798 179.439 184.488 179.439 187.007C179.439 189.541 177.431 191.231 175.055 191.231C172.632 191.231 170.624 189.541 170.624 187.007C170.624 184.488 172.632 182.798 175.055 182.798ZM175.055 189.079C176.044 189.079 176.984 188.266 176.984 187.007C176.984 185.763 176.044 184.934 175.055 184.934C174.019 184.934 173.079 185.763 173.079 187.007C173.079 188.266 174.019 189.079 175.055 189.079ZM183.624 180.327V180.821L183.465 187.357H180.946L180.787 180.821V180.327H183.624ZM182.238 188.266C183.082 188.266 183.688 188.92 183.688 189.685C183.688 190.482 183.082 191.088 182.238 191.088C181.377 191.088 180.771 190.482 180.771 189.685C180.771 188.92 181.377 188.266 182.238 188.266Z" fill="#C3C4D9"/>
<path d="M91.1095 223.427V234.107H88.5589V228.416L85.5619 234.107H84.3504L81.3375 228.385V234.107H78.7869V223.427H81.3694L84.9562 230.202L88.543 223.427H91.1095ZM101.546 226.089L96.9228 236.817H94.165L95.4562 233.836L92.1405 226.089H94.8824L96.7794 230.76L98.8039 226.089H101.546ZM108.83 234.107H106.279V222.63H108.83V234.107ZM119.102 226.105V234.107H116.551V233.47C115.93 234.028 115.101 234.347 114.065 234.347C111.944 234.347 110.159 232.641 110.159 230.106C110.159 227.587 111.944 225.866 114.065 225.866C115.101 225.866 115.93 226.185 116.551 226.743V226.105H119.102ZM114.591 232.179C115.627 232.179 116.551 231.35 116.551 230.106C116.551 228.879 115.627 228.034 114.591 228.034C113.475 228.034 112.662 228.879 112.662 230.106C112.662 231.35 113.475 232.179 114.591 232.179ZM126.284 231.748L126.874 233.757C126.253 234.091 125.599 234.347 124.69 234.347C122.698 234.347 121.502 233.263 121.502 231.158V228.129H120.051V226.105H121.502V223.746H124.053V226.105H126.412V228.129H124.053V230.903C124.053 231.732 124.451 232.067 125.121 232.067C125.471 232.067 125.95 231.939 126.284 231.748ZM135.528 230.106V230.76H129.662C129.869 231.716 130.522 232.306 131.383 232.306C131.973 232.306 132.659 232.163 133.089 231.381L135.353 231.844C134.667 233.534 133.217 234.347 131.383 234.347C129.072 234.347 127.159 232.641 127.159 230.106C127.159 227.587 129.072 225.866 131.399 225.866C133.663 225.866 135.48 227.492 135.528 230.106ZM131.399 227.938C130.682 227.938 129.949 228.385 129.709 229.198H133.009C132.77 228.337 132.133 227.938 131.399 227.938ZM136.312 232.019L138.799 231.509C138.911 232.194 139.532 232.45 140.218 232.45C140.887 232.45 141.254 232.163 141.254 231.812C141.254 231.541 141.047 231.334 140.457 231.222L138.831 230.903C137.348 230.632 136.504 229.835 136.504 228.576C136.504 226.934 137.922 225.866 139.947 225.866C141.939 225.866 143.263 226.774 143.581 228.161L141.254 228.624C141.174 228.129 140.696 227.683 139.915 227.683C139.229 227.683 139.006 228.018 139.006 228.305C139.006 228.528 139.102 228.751 139.612 228.863L141.493 229.245C143.008 229.564 143.709 230.473 143.709 231.652C143.709 233.422 142.179 234.347 140.074 234.347C138.193 234.347 136.583 233.661 136.312 232.019ZM150.399 231.748L150.989 233.757C150.367 234.091 149.713 234.347 148.805 234.347C146.812 234.347 145.616 233.263 145.616 231.158V228.129H144.166V226.105H145.616V223.746H148.167V226.105H150.526V228.129H148.167V230.903C148.167 231.732 148.565 232.067 149.235 232.067C149.586 232.067 150.064 231.939 150.399 231.748ZM164.077 226.105V234.107H161.526V233.47C160.905 234.028 160.076 234.347 159.04 234.347C156.919 234.347 155.134 232.641 155.134 230.106C155.134 227.587 156.919 225.866 159.04 225.866C160.076 225.866 160.905 226.185 161.526 226.743V226.105H164.077ZM159.566 232.179C160.602 232.179 161.526 231.35 161.526 230.106C161.526 228.879 160.602 228.034 159.566 228.034C158.45 228.034 157.637 228.879 157.637 230.106C157.637 231.35 158.45 232.179 159.566 232.179ZM171.227 225.993C171.451 225.993 171.61 226.009 171.801 226.057L171.69 228.608H171.227C169.442 228.608 168.47 229.532 168.47 231.605V234.107H165.919V226.105H168.47V227.635C169.044 226.679 169.92 225.993 171.227 225.993ZM178.374 231.748L178.964 233.757C178.342 234.091 177.688 234.347 176.78 234.347C174.787 234.347 173.591 233.263 173.591 231.158V228.129H172.141V226.105H173.591V223.746H176.142V226.105H178.501V228.129H176.142V230.903C176.142 231.732 176.541 232.067 177.21 232.067C177.561 232.067 178.039 231.939 178.374 231.748ZM191.567 226.105L189.001 234.123H186.785L185.35 229.787L183.899 234.123H181.683L179.117 226.105H181.62L182.927 230.409L184.441 226.105H186.243L187.757 230.425L189.064 226.105H191.567ZM196.336 225.898C198.712 225.898 200.72 227.587 200.72 230.106C200.72 232.641 198.712 234.331 196.336 234.331C193.913 234.331 191.905 232.641 191.905 230.106C191.905 227.587 193.913 225.898 196.336 225.898ZM196.336 232.179C197.325 232.179 198.265 231.366 198.265 230.106C198.265 228.863 197.325 228.034 196.336 228.034C195.3 228.034 194.36 228.863 194.36 230.106C194.36 231.366 195.3 232.179 196.336 232.179ZM207.344 225.993C207.568 225.993 207.727 226.009 207.918 226.057L207.807 228.608H207.344C205.559 228.608 204.587 229.532 204.587 231.605V234.107H202.036V226.105H204.587V227.635C205.16 226.679 206.037 225.993 207.344 225.993ZM217.874 234.107H214.606L212.008 231.222H211.545V234.107H208.995V222.63H211.545V228.831H211.896L214.431 226.105H217.507L214 229.915L217.874 234.107Z" fill="#C3C4D9"/>
<path d="M78.7869 266.528H83.0113C86.5344 266.528 88.8618 268.696 88.8618 271.869C88.8618 275.041 86.5344 277.209 83.0113 277.209H78.7869V266.528ZM81.4172 274.929H82.9157C84.9083 274.929 86.2155 273.718 86.2155 271.869C86.2155 270.019 84.9083 268.808 82.9157 268.808H81.4172V274.929ZM98.7551 269.206V277.209H96.2045V276.571C95.5828 277.129 94.7538 277.448 93.7176 277.448C91.5975 277.448 89.812 275.742 89.812 273.208C89.812 270.689 91.5975 268.967 93.7176 268.967C94.7538 268.967 95.5828 269.286 96.2045 269.844V269.206H98.7551ZM94.2437 275.28C95.2799 275.28 96.2045 274.451 96.2045 273.208C96.2045 271.98 95.2799 271.135 94.2437 271.135C93.1278 271.135 92.3148 271.98 92.3148 273.208C92.3148 274.451 93.1278 275.28 94.2437 275.28ZM100.055 275.121L102.542 274.611C102.654 275.296 103.275 275.551 103.961 275.551C104.63 275.551 104.997 275.264 104.997 274.913C104.997 274.642 104.79 274.435 104.2 274.324L102.574 274.005C101.091 273.734 100.246 272.937 100.246 271.677C100.246 270.035 101.665 268.967 103.69 268.967C105.682 268.967 107.006 269.876 107.324 271.263L104.997 271.725C104.917 271.231 104.439 270.785 103.658 270.785C102.972 270.785 102.749 271.119 102.749 271.406C102.749 271.63 102.845 271.853 103.355 271.964L105.236 272.347C106.751 272.666 107.452 273.574 107.452 274.754C107.452 276.524 105.922 277.448 103.817 277.448C101.936 277.448 100.326 276.763 100.055 275.121ZM113.823 268.967C115.672 268.967 116.915 270.29 116.915 272.299V277.209H114.381V272.841C114.381 271.901 113.823 271.263 112.994 271.263C112.006 271.263 111.352 271.948 111.352 273.495V277.209H108.801V265.731H111.352V269.972C111.974 269.334 112.803 268.967 113.823 268.967ZM123.709 268.967C125.829 268.967 127.614 270.689 127.614 273.208C127.614 275.742 125.829 277.448 123.709 277.448C122.672 277.448 121.844 277.129 121.222 276.571V277.209H118.671V265.731H121.222V269.844C121.844 269.286 122.672 268.967 123.709 268.967ZM123.183 275.28C124.298 275.28 125.111 274.451 125.111 273.208C125.111 271.98 124.298 271.135 123.183 271.135C122.146 271.135 121.222 271.98 121.222 273.208C121.222 274.451 122.146 275.28 123.183 275.28ZM132.836 268.999C135.211 268.999 137.22 270.689 137.22 273.208C137.22 275.742 135.211 277.432 132.836 277.432C130.413 277.432 128.404 275.742 128.404 273.208C128.404 270.689 130.413 268.999 132.836 268.999ZM132.836 275.28C133.824 275.28 134.765 274.467 134.765 273.208C134.765 271.964 133.824 271.135 132.836 271.135C131.8 271.135 130.859 271.964 130.859 273.208C130.859 274.467 131.8 275.28 132.836 275.28ZM146.953 269.206V277.209H144.402V276.571C143.78 277.129 142.951 277.448 141.915 277.448C139.795 277.448 138.009 275.742 138.009 273.208C138.009 270.689 139.795 268.967 141.915 268.967C142.951 268.967 143.78 269.286 144.402 269.844V269.206H146.953ZM142.441 275.28C143.477 275.28 144.402 274.451 144.402 273.208C144.402 271.98 143.477 271.135 142.441 271.135C141.325 271.135 140.512 271.98 140.512 273.208C140.512 274.451 141.325 275.28 142.441 275.28ZM154.103 269.095C154.326 269.095 154.486 269.111 154.677 269.159L154.565 271.709H154.103C152.318 271.709 151.345 272.634 151.345 274.706V277.209H148.795V269.206H151.345V270.737C151.919 269.78 152.796 269.095 154.103 269.095ZM164.061 265.731V277.209H161.511V276.571C160.889 277.129 160.06 277.448 159.024 277.448C156.904 277.448 155.118 275.742 155.118 273.208C155.118 270.689 156.904 268.967 159.024 268.967C160.06 268.967 160.889 269.286 161.511 269.844V265.731H164.061ZM159.55 275.28C160.586 275.28 161.511 274.451 161.511 273.208C161.511 271.98 160.586 271.135 159.55 271.135C158.434 271.135 157.621 271.98 157.621 273.208C157.621 274.451 158.434 275.28 159.55 275.28ZM179.157 266.528V272.395C179.157 275.455 177.26 277.448 174.423 277.448C171.522 277.448 169.577 275.455 169.577 272.395V266.528H172.207V272.395C172.207 274.021 173.084 275.025 174.423 275.025C175.682 275.025 176.527 274.021 176.527 272.395V266.528H179.157ZM183.603 277.209H180.973V266.528H183.603V277.209ZM197.674 277.655L196.319 276.46C195.411 277.129 194.279 277.448 193.131 277.448C190.612 277.448 188.875 276.125 188.875 274.1C188.875 272.905 189.576 271.98 190.676 271.374C190.166 270.705 189.927 270.035 189.927 269.27C189.927 267.501 191.425 266.289 193.466 266.289C195.634 266.289 196.766 267.58 197.021 269.318L194.661 269.733C194.582 268.696 194.151 268.33 193.466 268.33C192.844 268.33 192.382 268.68 192.382 269.334C192.382 269.908 192.669 270.354 193.577 271.167L195.841 273.128C195.905 272.857 195.937 272.538 195.937 272.203V271.486H198.248V272.203C198.248 273.208 198.057 274.053 197.722 274.77L199.157 276.013L197.674 277.655ZM193.227 275.392C193.673 275.392 194.167 275.264 194.613 274.977L192.143 272.825C191.664 273.128 191.377 273.542 191.377 274.005C191.377 274.818 192.095 275.392 193.227 275.392ZM213.546 266.528V272.395C213.546 275.455 211.649 277.448 208.812 277.448C205.91 277.448 203.966 275.455 203.966 272.395V266.528H206.596V272.395C206.596 274.021 207.473 275.025 208.812 275.025C210.071 275.025 210.916 274.021 210.916 272.395V266.528H213.546ZM222.105 277.209L219.873 273.574L217.657 277.209H214.549L217.897 271.853L214.581 266.528H217.689L219.873 270.131L222.073 266.528H225.182L221.866 271.853L225.214 277.209H222.105Z" fill="#C3C4D9"/>
<circle cx="60.1494" cy="271.246" r="10.0371" fill="#F14766"/>
<circle cx="60.1494" cy="185.045" r="10.0371" fill="#F14766"/>
<circle cx="60.1494" cy="228.145" r="10.0371" fill="#F14766"/>
<rect x="260.892" y="169.693" width="62.5843" height="30.7017" rx="8.85626" fill="#101126"/>
<rect x="260.892" y="212.795" width="62.5843" height="30.7017" rx="8.85626" fill="#101126"/>
<rect x="260.892" y="255.896" width="62.5843" height="30.7017" rx="8.85626" fill="#101126"/>
<path d="M275.946 267.941V264.162L269.747 270.775L275.946 277.387V273.514C280.375 273.514 283.474 275.026 285.688 278.332C284.803 273.609 282.146 268.885 275.946 267.941Z" fill="#9495B5"/>
<path d="M309.072 221.6C307.655 221.6 306.343 222.332 305.517 223.42C304.69 222.332 303.378 221.6 301.961 221.6C299.51 221.6 297.517 223.562 297.517 225.975C297.517 230.779 304.738 235.278 305.046 235.467C305.19 235.555 305.354 235.6 305.517 235.6C305.679 235.6 305.843 235.555 305.987 235.467C306.295 235.278 313.517 230.779 313.517 225.975C313.517 223.562 311.523 221.6 309.072 221.6Z" fill="#9395B5"/>
<path d="M275.946 224.839V221.061L269.747 227.673L275.946 234.286V230.413C280.375 230.413 283.474 231.924 285.688 235.231C284.803 230.507 282.146 225.784 275.946 224.839Z" fill="#9495B5"/>
<path d="M309.072 177.6C307.655 177.6 306.343 178.332 305.517 179.42C304.69 178.332 303.378 177.6 301.961 177.6C299.51 177.6 297.517 179.562 297.517 181.975C297.517 186.779 304.738 191.278 305.046 191.467C305.19 191.555 305.354 191.6 305.517 191.6C305.679 191.6 305.843 191.555 305.987 191.467C306.295 191.278 313.517 186.779 313.517 181.975C313.517 179.562 311.523 177.6 309.072 177.6Z" fill="#F14766"/>
<path d="M275.946 181.738V177.959L269.747 184.572L275.946 191.184V187.311C280.375 187.311 283.474 188.823 285.688 192.129C284.803 187.406 282.146 182.682 275.946 181.738Z" fill="#9495B5"/>
<path d="M50.5985 115.129L49.8924 119.06H45.9751L46.6812 115.129L34.9228 115.129L32.8461 126.689H37.175V130.542H32.1596L30.9121 137.454C30.8291 137.914 30.4225 138.249 29.9476 138.249H28.0191C27.4096 138.249 26.9481 137.707 27.0546 137.117L28.2413 130.542H21.5707C20.9621 130.542 20.5009 130.002 20.6057 129.413L20.9486 127.486C21.0306 127.025 21.4377 126.689 21.9135 126.689H28.927L31.0037 115.129H24.333C23.7245 115.129 23.2632 114.589 23.3681 113.999L23.711 112.072C23.793 111.611 24.2 111.275 24.6759 111.275H31.6894L32.9369 104.363C33.0199 103.903 33.4264 103.568 33.9014 103.568H35.8299C36.4393 103.568 36.9009 104.11 36.7943 104.7L35.6077 111.275L47.3659 111.276L48.6134 104.364C48.6964 103.904 49.1029 103.569 49.5779 103.569H51.5064C52.1158 103.569 52.5774 104.11 52.4708 104.701L51.2842 111.276H57.9548C58.5634 111.276 59.0246 111.816 58.9197 112.405L58.5769 114.332C58.4949 114.793 58.0878 115.129 57.612 115.129H50.5985Z" fill="white"/>
<path d="M42.8221 122.759C41.7834 122.759 40.9413 123.587 40.9413 124.609V136.75C40.9413 137.771 41.7834 138.599 42.8221 138.599H44.7029C44.9626 138.599 45.1731 138.806 45.1731 139.062V142.989C45.1731 143.39 45.6562 143.601 45.9585 143.332L50.7486 139.076C51.0942 138.769 51.5436 138.599 52.0095 138.599H60.6894C61.7282 138.599 62.5702 137.771 62.5702 136.75V124.609C62.5702 123.587 61.7282 122.759 60.6894 122.759H42.8221Z" fill="white"/>
<rect x="0.516602" y="87.627" width="223.414" height="63.7975" rx="18.1689" fill="#353758"/>
<path d="M46.3243 112.38L45.7188 115.731H42.3595L42.965 112.38L32.8814 112.38L31.1005 122.235H34.8128V125.52H30.5118L29.442 131.412C29.3708 131.804 29.0221 132.089 28.6148 132.089H26.961C26.4383 132.089 26.0426 131.628 26.1339 131.125L27.1516 125.52H21.4311C20.9092 125.52 20.5137 125.059 20.6036 124.557L20.8976 122.914C20.968 122.521 21.317 122.235 21.7251 122.235H27.7396L29.5205 112.38H23.8C23.2781 112.38 22.8826 111.92 22.9725 111.417L23.2666 109.775C23.3369 109.382 23.686 109.095 24.094 109.095H30.1086L31.1784 103.203C31.2496 102.811 31.5982 102.525 32.0055 102.525H33.6593C34.1819 102.525 34.5777 102.987 34.4863 103.49L33.4687 109.095L43.5522 109.096L44.622 103.204C44.6932 102.811 45.0418 102.526 45.4491 102.526H47.1029C47.6255 102.526 48.0213 102.987 47.9299 103.491L46.9123 109.096H52.6328C53.1547 109.096 53.5503 109.556 53.4603 110.058L53.1663 111.701C53.096 112.094 52.7469 112.38 52.3388 112.38H46.3243Z" fill="white"/>
<path d="M39.6556 118.885C38.7648 118.885 38.0427 119.591 38.0427 120.462V130.811C38.0427 131.682 38.7648 132.388 39.6556 132.388H41.2684C41.4912 132.388 41.6717 132.565 41.6717 132.782V136.13C41.6717 136.472 42.086 136.652 42.3452 136.423L46.453 132.795C46.7494 132.533 47.1348 132.388 47.5343 132.388H54.9779C55.8687 132.388 56.5908 131.682 56.5908 130.811V120.462C56.5908 119.591 55.8687 118.885 54.9779 118.885H39.6556Z" fill="white"/>
<path d="M65.544 125.273L70.0128 124.356C70.2133 125.588 71.3305 126.046 72.5623 126.046C73.7655 126.046 74.4244 125.531 74.4244 124.9C74.4244 124.413 74.052 124.041 72.992 123.84L70.0701 123.267C67.406 122.78 65.8877 121.348 65.8877 119.085C65.8877 116.134 68.4373 114.215 72.0754 114.215C75.6562 114.215 78.0338 115.848 78.6068 118.34L74.4244 119.171C74.2811 118.283 73.4217 117.481 72.0181 117.481C70.7863 117.481 70.3852 118.082 70.3852 118.598C70.3852 118.999 70.5571 119.4 71.4738 119.601L74.8541 120.288C77.5755 120.861 78.8359 122.494 78.8359 124.614C78.8359 127.794 76.0859 129.455 72.3045 129.455C68.9242 129.455 66.031 128.223 65.544 125.273ZM90.2844 114.215C93.6074 114.215 95.8419 116.593 95.8419 120.202V129.025H91.2871V121.176C91.2871 119.486 90.2844 118.34 88.7948 118.34C87.0187 118.34 85.8442 119.572 85.8442 122.351V129.025H81.2608V108.4H85.8442V116.02C86.9615 114.874 88.4511 114.215 90.2844 114.215ZM106.015 114.272C110.284 114.272 113.893 117.309 113.893 121.835C113.893 126.39 110.284 129.426 106.015 129.426C101.661 129.426 98.0517 126.39 98.0517 121.835C98.0517 117.309 101.661 114.272 106.015 114.272ZM106.015 125.559C107.791 125.559 109.482 124.098 109.482 121.835C109.482 119.601 107.791 118.111 106.015 118.111C104.153 118.111 102.463 119.601 102.463 121.835C102.463 124.098 104.153 125.559 106.015 125.559ZM136.862 114.645L132.25 129.054H128.268L125.69 121.262L123.083 129.054H119.101L114.489 114.645H118.986L121.335 122.379L124.057 114.645H127.294L130.015 122.408L132.364 114.645H136.862ZM145.318 125.445C146.779 125.445 147.953 124.671 148.44 122.924L152.651 123.84C151.935 127.249 148.898 129.455 145.318 129.455C141.021 129.455 137.469 126.39 137.469 121.835C137.469 117.309 141.021 114.215 145.318 114.215C148.813 114.215 151.849 116.364 152.651 119.744L148.354 120.775C147.953 119.028 146.779 118.226 145.318 118.226C143.255 118.226 141.88 119.744 141.88 121.835C141.88 123.955 143.255 125.445 145.318 125.445ZM170.156 114.645V129.025H165.573V127.88C164.456 128.882 162.966 129.455 161.104 129.455C157.294 129.455 154.086 126.39 154.086 121.835C154.086 117.309 157.294 114.215 161.104 114.215C162.966 114.215 164.456 114.788 165.573 115.791V114.645H170.156ZM162.049 125.559C163.911 125.559 165.573 124.07 165.573 121.835C165.573 119.629 163.911 118.111 162.049 118.111C160.044 118.111 158.583 119.629 158.583 121.835C158.583 124.07 160.044 125.559 162.049 125.559ZM172.493 125.273L176.962 124.356C177.162 125.588 178.279 126.046 179.511 126.046C180.714 126.046 181.373 125.531 181.373 124.9C181.373 124.413 181.001 124.041 179.941 123.84L177.019 123.267C174.355 122.78 172.836 121.348 172.836 119.085C172.836 116.134 175.386 114.215 179.024 114.215C182.605 114.215 184.983 115.848 185.555 118.34L181.373 119.171C181.23 118.283 180.37 117.481 178.967 117.481C177.735 117.481 177.334 118.082 177.334 118.598C177.334 118.999 177.506 119.4 178.422 119.601L181.803 120.288C184.524 120.861 185.785 122.494 185.785 124.614C185.785 127.794 183.035 129.455 179.253 129.455C175.873 129.455 172.98 128.223 172.493 125.273ZM202.304 121.835V123.01H191.762C192.134 124.728 193.309 125.788 194.855 125.788C195.915 125.788 197.147 125.531 197.921 124.127L201.988 124.958C200.757 127.994 198.15 129.455 194.855 129.455C190.702 129.455 187.264 126.39 187.264 121.835C187.264 117.309 190.702 114.215 194.884 114.215C198.952 114.215 202.218 117.137 202.304 121.835ZM194.884 117.939C193.595 117.939 192.277 118.741 191.848 120.202H197.777C197.348 118.655 196.202 117.939 194.884 117.939Z" fill="white"/>
<path d="M309.072 264.6C307.655 264.6 306.343 265.332 305.517 266.42C304.69 265.332 303.378 264.6 301.961 264.6C299.51 264.6 297.517 266.562 297.517 268.975C297.517 273.779 304.738 278.278 305.046 278.467C305.19 278.555 305.354 278.6 305.517 278.6C305.679 278.6 305.843 278.555 305.987 278.467C306.295 278.278 313.517 273.779 313.517 268.975C313.517 266.562 311.523 264.6 309.072 264.6Z" fill="#9395B5"/>
</svg>
