<svg width="343" height="374" viewBox="0 0 343 374" fill="none" xmlns="http://www.w3.org/2000/svg">
<rect x="22.8945" y="134.904" width="319.14" height="172.999" rx="18.1689" fill="white"/>
<path d="M22.623 82.7685C22.623 72.7341 30.7575 64.5996 40.7919 64.5996H180.849C190.883 64.5996 199.018 72.7341 199.018 82.7685V92.4833C199.018 102.518 190.883 110.652 180.849 110.652H40.7919C30.7575 110.652 22.623 102.518 22.623 92.4833V82.7685Z" fill="white"/>
<rect x="39.1543" y="169.693" width="207.237" height="30.7017" rx="8.85626" fill="#FFC2CD"/>
<rect x="39.1543" y="212.795" width="207.237" height="30.7017" rx="8.85626" fill="#FFC2CD"/>
<rect x="39.1543" y="255.896" width="207.237" height="30.7017" rx="8.85626" fill="#FFC2CD"/>
<path d="M84.3701 180.088C87.5583 180.088 90.0611 182.559 90.0611 185.683C90.0611 188.792 87.5583 191.247 84.3701 191.247C81.1818 191.247 78.679 188.792 78.679 185.683C78.679 182.559 81.1818 180.088 84.3701 180.088ZM84.3701 188.84C86.1077 188.84 87.4308 187.501 87.4308 185.683C87.4308 183.85 86.1077 182.495 84.3701 182.495C82.6325 182.495 81.3093 183.85 81.3093 185.683C81.3093 187.501 82.6325 188.84 84.3701 188.84ZM99.549 183.005V191.008H96.9984V190.243C96.3927 190.88 95.5478 191.247 94.5435 191.247C92.6783 191.247 91.4349 189.924 91.4349 187.915V183.005H93.9696V187.373C93.9696 188.314 94.5275 188.951 95.3405 188.951C96.3448 188.951 96.9984 188.266 96.9984 186.72V183.005H99.549ZM106.709 182.894C106.932 182.894 107.092 182.91 107.283 182.957L107.172 185.508H106.709C104.924 185.508 103.951 186.433 103.951 188.505V191.008H101.401V183.005H103.951V184.536C104.525 183.579 105.402 182.894 106.709 182.894ZM117.07 182.766C118.935 182.766 120.179 184.089 120.179 186.098V191.008H117.644V186.64C117.644 185.699 117.086 185.062 116.273 185.062C115.269 185.062 114.615 185.747 114.615 187.293V191.008H112.065V183.005H114.615V183.77C115.221 183.133 116.066 182.766 117.07 182.766ZM129.762 187.007V187.66H123.896C124.103 188.617 124.757 189.206 125.617 189.206C126.207 189.206 126.893 189.063 127.323 188.282L129.587 188.744C128.901 190.434 127.451 191.247 125.617 191.247C123.306 191.247 121.393 189.541 121.393 187.007C121.393 184.488 123.306 182.766 125.633 182.766C127.897 182.766 129.714 184.392 129.762 187.007ZM125.633 184.839C124.916 184.839 124.183 185.285 123.944 186.098H127.243C127.004 185.237 126.367 184.839 125.633 184.839ZM142.554 183.005L139.988 191.024H137.772L136.337 186.688L134.886 191.024H132.671L130.104 183.005H132.607L133.914 187.309L135.428 183.005H137.23L138.744 187.325L140.051 183.005H142.554ZM149.845 191.008H147.294V179.53H149.845V191.008ZM155.606 182.798C157.981 182.798 159.989 184.488 159.989 187.007C159.989 189.541 157.981 191.231 155.606 191.231C153.182 191.231 151.174 189.541 151.174 187.007C151.174 184.488 153.182 182.798 155.606 182.798ZM155.606 189.079C156.594 189.079 157.534 188.266 157.534 187.007C157.534 185.763 156.594 184.934 155.606 184.934C154.569 184.934 153.629 185.763 153.629 187.007C153.629 188.266 154.569 189.079 155.606 189.079ZM169.547 183.005V190.211C169.547 192.682 167.666 194.037 165.067 194.037C163.234 194.037 161.831 193.399 161.05 192.108L163.17 190.96C163.776 191.677 164.222 191.948 165.051 191.948C166.215 191.948 167.044 191.263 167.044 190.004V189.78C166.47 190.275 165.673 190.546 164.637 190.546C162.549 190.546 160.779 188.888 160.779 186.624C160.779 184.408 162.549 182.766 164.637 182.766C165.673 182.766 166.47 183.037 167.044 183.531V183.005H169.547ZM165.179 188.457C166.199 188.457 167.044 187.692 167.044 186.624C167.044 185.556 166.199 184.807 165.179 184.807C164.063 184.807 163.266 185.556 163.266 186.624C163.266 187.692 164.063 188.457 165.179 188.457ZM175.314 182.798C177.689 182.798 179.698 184.488 179.698 187.007C179.698 189.541 177.689 191.231 175.314 191.231C172.891 191.231 170.882 189.541 170.882 187.007C170.882 184.488 172.891 182.798 175.314 182.798ZM175.314 189.079C176.303 189.079 177.243 188.266 177.243 187.007C177.243 185.763 176.303 184.934 175.314 184.934C174.278 184.934 173.337 185.763 173.337 187.007C173.337 188.266 174.278 189.079 175.314 189.079ZM183.883 180.327V180.821L183.724 187.357H181.205L181.046 180.821V180.327H183.883ZM182.496 188.266C183.341 188.266 183.947 188.92 183.947 189.685C183.947 190.482 183.341 191.088 182.496 191.088C181.635 191.088 181.03 190.482 181.03 189.685C181.03 188.92 181.635 188.266 182.496 188.266Z" fill="#A66A74"/>
<path d="M91.3683 223.427V234.107H88.8177V228.416L85.8207 234.107H84.6092L81.5963 228.385V234.107H79.0457V223.427H81.6282L85.215 230.202L88.8017 223.427H91.3683ZM101.805 226.089L97.1816 236.817H94.4238L95.715 233.836L92.3992 226.089H95.1411L97.0382 230.76L99.0627 226.089H101.805ZM109.089 234.107H106.538V222.63H109.089V234.107ZM119.361 226.105V234.107H116.81V233.47C116.188 234.028 115.36 234.347 114.323 234.347C112.203 234.347 110.418 232.641 110.418 230.106C110.418 227.587 112.203 225.866 114.323 225.866C115.36 225.866 116.188 226.185 116.81 226.743V226.105H119.361ZM114.849 232.179C115.886 232.179 116.81 231.35 116.81 230.106C116.81 228.879 115.886 228.034 114.849 228.034C113.734 228.034 112.921 228.879 112.921 230.106C112.921 231.35 113.734 232.179 114.849 232.179ZM126.543 231.748L127.133 233.757C126.511 234.091 125.858 234.347 124.949 234.347C122.956 234.347 121.761 233.263 121.761 231.158V228.129H120.31V226.105H121.761V223.746H124.311V226.105H126.671V228.129H124.311V230.903C124.311 231.732 124.71 232.067 125.379 232.067C125.73 232.067 126.208 231.939 126.543 231.748ZM135.787 230.106V230.76H129.92C130.128 231.716 130.781 232.306 131.642 232.306C132.232 232.306 132.917 232.163 133.348 231.381L135.611 231.844C134.926 233.534 133.475 234.347 131.642 234.347C129.331 234.347 127.418 232.641 127.418 230.106C127.418 227.587 129.331 225.866 131.658 225.866C133.922 225.866 135.739 227.492 135.787 230.106ZM131.658 227.938C130.941 227.938 130.207 228.385 129.968 229.198H133.268C133.029 228.337 132.391 227.938 131.658 227.938ZM136.571 232.019L139.058 231.509C139.169 232.194 139.791 232.45 140.477 232.45C141.146 232.45 141.513 232.163 141.513 231.812C141.513 231.541 141.306 231.334 140.716 231.222L139.09 230.903C137.607 230.632 136.762 229.835 136.762 228.576C136.762 226.934 138.181 225.866 140.206 225.866C142.198 225.866 143.521 226.774 143.84 228.161L141.513 228.624C141.433 228.129 140.955 227.683 140.174 227.683C139.488 227.683 139.265 228.018 139.265 228.305C139.265 228.528 139.361 228.751 139.871 228.863L141.752 229.245C143.266 229.564 143.968 230.473 143.968 231.652C143.968 233.422 142.437 234.347 140.333 234.347C138.452 234.347 136.842 233.661 136.571 232.019ZM150.657 231.748L151.247 233.757C150.626 234.091 149.972 234.347 149.063 234.347C147.071 234.347 145.875 233.263 145.875 231.158V228.129H144.424V226.105H145.875V223.746H148.426V226.105H150.785V228.129H148.426V230.903C148.426 231.732 148.824 232.067 149.494 232.067C149.844 232.067 150.323 231.939 150.657 231.748ZM164.336 226.105V234.107H161.785V233.47C161.163 234.028 160.334 234.347 159.298 234.347C157.178 234.347 155.393 232.641 155.393 230.106C155.393 227.587 157.178 225.866 159.298 225.866C160.334 225.866 161.163 226.185 161.785 226.743V226.105H164.336ZM159.824 232.179C160.861 232.179 161.785 231.35 161.785 230.106C161.785 228.879 160.861 228.034 159.824 228.034C158.708 228.034 157.895 228.879 157.895 230.106C157.895 231.35 158.708 232.179 159.824 232.179ZM171.486 225.993C171.709 225.993 171.869 226.009 172.06 226.057L171.949 228.608H171.486C169.701 228.608 168.728 229.532 168.728 231.605V234.107H166.178V226.105H168.728V227.635C169.302 226.679 170.179 225.993 171.486 225.993ZM178.633 231.748L179.222 233.757C178.601 234.091 177.947 234.347 177.038 234.347C175.046 234.347 173.85 233.263 173.85 231.158V228.129H172.4V226.105H173.85V223.746H176.401V226.105H178.76V228.129H176.401V230.903C176.401 231.732 176.799 232.067 177.469 232.067C177.82 232.067 178.298 231.939 178.633 231.748ZM191.826 226.105L189.259 234.123H187.043L185.609 229.787L184.158 234.123H181.942L179.376 226.105H181.878L183.186 230.409L184.7 226.105H186.501L188.016 230.425L189.323 226.105H191.826ZM196.595 225.898C198.97 225.898 200.979 227.587 200.979 230.106C200.979 232.641 198.97 234.331 196.595 234.331C194.172 234.331 192.163 232.641 192.163 230.106C192.163 227.587 194.172 225.898 196.595 225.898ZM196.595 232.179C197.583 232.179 198.524 231.366 198.524 230.106C198.524 228.863 197.583 228.034 196.595 228.034C195.559 228.034 194.618 228.863 194.618 230.106C194.618 231.366 195.559 232.179 196.595 232.179ZM207.603 225.993C207.826 225.993 207.986 226.009 208.177 226.057L208.066 228.608H207.603C205.818 228.608 204.845 229.532 204.845 231.605V234.107H202.295V226.105H204.845V227.635C205.419 226.679 206.296 225.993 207.603 225.993ZM218.133 234.107H214.865L212.266 231.222H211.804V234.107H209.254V222.63H211.804V228.831H212.155L214.689 226.105H217.766L214.259 229.915L218.133 234.107Z" fill="#A66A74"/>
<path d="M79.0457 266.528H83.2701C86.7931 266.528 89.1206 268.696 89.1206 271.869C89.1206 275.041 86.7931 277.209 83.2701 277.209H79.0457V266.528ZM81.676 274.929H83.1745C85.1671 274.929 86.4743 273.718 86.4743 271.869C86.4743 270.019 85.1671 268.808 83.1745 268.808H81.676V274.929ZM99.0139 269.206V277.209H96.4633V276.571C95.8416 277.129 95.0126 277.448 93.9764 277.448C91.8562 277.448 90.0708 275.742 90.0708 273.208C90.0708 270.689 91.8562 268.967 93.9764 268.967C95.0126 268.967 95.8416 269.286 96.4633 269.844V269.206H99.0139ZM94.5025 275.28C95.5387 275.28 96.4633 274.451 96.4633 273.208C96.4633 271.98 95.5387 271.135 94.5025 271.135C93.3866 271.135 92.5736 271.98 92.5736 273.208C92.5736 274.451 93.3866 275.28 94.5025 275.28ZM100.314 275.121L102.801 274.611C102.912 275.296 103.534 275.551 104.22 275.551C104.889 275.551 105.256 275.264 105.256 274.913C105.256 274.642 105.049 274.435 104.459 274.324L102.833 274.005C101.35 273.734 100.505 272.937 100.505 271.677C100.505 270.035 101.924 268.967 103.949 268.967C105.941 268.967 107.264 269.876 107.583 271.263L105.256 271.725C105.176 271.231 104.698 270.785 103.917 270.785C103.231 270.785 103.008 271.119 103.008 271.406C103.008 271.63 103.104 271.853 103.614 271.964L105.495 272.347C107.009 272.666 107.711 273.574 107.711 274.754C107.711 276.524 106.18 277.448 104.076 277.448C102.195 277.448 100.585 276.763 100.314 275.121ZM114.082 268.967C115.931 268.967 117.174 270.29 117.174 272.299V277.209H114.64V272.841C114.64 271.901 114.082 271.263 113.253 271.263C112.264 271.263 111.611 271.948 111.611 273.495V277.209H109.06V265.731H111.611V269.972C112.232 269.334 113.061 268.967 114.082 268.967ZM123.967 268.967C126.088 268.967 127.873 270.689 127.873 273.208C127.873 275.742 126.088 277.448 123.967 277.448C122.931 277.448 122.102 277.129 121.481 276.571V277.209H118.93V265.731H121.481V269.844C122.102 269.286 122.931 268.967 123.967 268.967ZM123.441 275.28C124.557 275.28 125.37 274.451 125.37 273.208C125.37 271.98 124.557 271.135 123.441 271.135C122.405 271.135 121.481 271.98 121.481 273.208C121.481 274.451 122.405 275.28 123.441 275.28ZM133.095 268.999C135.47 268.999 137.479 270.689 137.479 273.208C137.479 275.742 135.47 277.432 133.095 277.432C130.672 277.432 128.663 275.742 128.663 273.208C128.663 270.689 130.672 268.999 133.095 268.999ZM133.095 275.28C134.083 275.28 135.024 274.467 135.024 273.208C135.024 271.964 134.083 271.135 133.095 271.135C132.059 271.135 131.118 271.964 131.118 273.208C131.118 274.467 132.059 275.28 133.095 275.28ZM147.211 269.206V277.209H144.661V276.571C144.039 277.129 143.21 277.448 142.174 277.448C140.054 277.448 138.268 275.742 138.268 273.208C138.268 270.689 140.054 268.967 142.174 268.967C143.21 268.967 144.039 269.286 144.661 269.844V269.206H147.211ZM142.7 275.28C143.736 275.28 144.661 274.451 144.661 273.208C144.661 271.98 143.736 271.135 142.7 271.135C141.584 271.135 140.771 271.98 140.771 273.208C140.771 274.451 141.584 275.28 142.7 275.28ZM154.362 269.095C154.585 269.095 154.744 269.111 154.936 269.159L154.824 271.709H154.362C152.576 271.709 151.604 272.634 151.604 274.706V277.209H149.053V269.206H151.604V270.737C152.178 269.78 153.055 269.095 154.362 269.095ZM164.32 265.731V277.209H161.77V276.571C161.148 277.129 160.319 277.448 159.283 277.448C157.163 277.448 155.377 275.742 155.377 273.208C155.377 270.689 157.163 268.967 159.283 268.967C160.319 268.967 161.148 269.286 161.77 269.844V265.731H164.32ZM159.809 275.28C160.845 275.28 161.77 274.451 161.77 273.208C161.77 271.98 160.845 271.135 159.809 271.135C158.693 271.135 157.88 271.98 157.88 273.208C157.88 274.451 158.693 275.28 159.809 275.28ZM179.416 266.528V272.395C179.416 275.455 177.519 277.448 174.682 277.448C171.78 277.448 169.835 275.455 169.835 272.395V266.528H172.466V272.395C172.466 274.021 173.343 275.025 174.682 275.025C175.941 275.025 176.786 274.021 176.786 272.395V266.528H179.416ZM183.862 277.209H181.232V266.528H183.862V277.209ZM197.933 277.655L196.578 276.46C195.669 277.129 194.537 277.448 193.39 277.448C190.871 277.448 189.133 276.125 189.133 274.1C189.133 272.905 189.835 271.98 190.935 271.374C190.425 270.705 190.186 270.035 190.186 269.27C190.186 267.501 191.684 266.289 193.724 266.289C195.892 266.289 197.024 267.58 197.279 269.318L194.92 269.733C194.84 268.696 194.41 268.33 193.724 268.33C193.103 268.33 192.64 268.68 192.64 269.334C192.64 269.908 192.927 270.354 193.836 271.167L196.1 273.128C196.163 272.857 196.195 272.538 196.195 272.203V271.486H198.507V272.203C198.507 273.208 198.316 274.053 197.981 274.77L199.416 276.013L197.933 277.655ZM193.485 275.392C193.932 275.392 194.426 275.264 194.872 274.977L192.401 272.825C191.923 273.128 191.636 273.542 191.636 274.005C191.636 274.818 192.354 275.392 193.485 275.392ZM213.805 266.528V272.395C213.805 275.455 211.908 277.448 209.071 277.448C206.169 277.448 204.224 275.455 204.224 272.395V266.528H206.855V272.395C206.855 274.021 207.731 275.025 209.071 275.025C210.33 275.025 211.175 274.021 211.175 272.395V266.528H213.805ZM222.364 277.209L220.132 273.574L217.916 277.209H214.808L218.155 271.853L214.84 266.528H217.948L220.132 270.131L222.332 266.528H225.44L222.125 271.853L225.472 277.209H222.364Z" fill="#A66A74"/>
<circle cx="60.4082" cy="271.246" r="10.0371" fill="#F996A8"/>
<circle cx="60.4082" cy="185.045" r="10.0371" fill="#F996A8"/>
<circle cx="60.4082" cy="228.145" r="10.0371" fill="#F996A8"/>
<rect x="261.15" y="169.693" width="62.5843" height="30.7017" rx="8.85626" fill="#FFC2CD"/>
<rect x="261.15" y="212.795" width="62.5843" height="30.7017" rx="8.85626" fill="#FFC2CD"/>
<rect x="261.15" y="255.896" width="62.5843" height="30.7017" rx="8.85626" fill="#FFC2CD"/>
<path d="M276.205 267.941V264.162L270.006 270.775L276.205 277.387V273.514C280.633 273.514 283.733 275.026 285.947 278.332C285.062 273.609 282.405 268.885 276.205 267.941Z" fill="white"/>
<path d="M309.331 221.6C307.914 221.6 306.602 222.332 305.775 223.42C304.949 222.332 303.637 221.6 302.22 221.6C299.769 221.6 297.775 223.562 297.775 225.975C297.775 230.779 304.997 235.278 305.305 235.467C305.449 235.555 305.613 235.6 305.775 235.6C305.938 235.6 306.102 235.555 306.246 235.467C306.554 235.278 313.775 230.779 313.775 225.975C313.775 223.562 311.782 221.6 309.331 221.6Z" fill="#F996A8"/>
<path d="M276.205 224.839V221.061L270.006 227.673L276.205 234.286V230.413C280.633 230.413 283.733 231.924 285.947 235.231C285.062 230.507 282.405 225.784 276.205 224.839Z" fill="white"/>
<path d="M309.331 177.6C307.914 177.6 306.602 178.332 305.775 179.42C304.949 178.332 303.637 177.6 302.22 177.6C299.769 177.6 297.775 179.562 297.775 181.975C297.775 186.779 304.997 191.278 305.305 191.467C305.449 191.555 305.613 191.6 305.775 191.6C305.938 191.6 306.102 191.555 306.246 191.467C306.554 191.278 313.775 186.779 313.775 181.975C313.775 179.562 311.782 177.6 309.331 177.6Z" fill="#F996A8"/>
<path d="M276.205 181.738V177.959L270.006 184.572L276.205 191.184V187.311C280.633 187.311 283.733 188.823 285.947 192.129C285.062 187.406 282.405 182.682 276.205 181.738Z" fill="white"/>
<path d="M50.8573 115.129L50.1512 119.06H46.2339L46.94 115.129L35.1816 115.129L33.1049 126.689H37.4337V130.542H32.4184L31.1709 137.454C31.0879 137.914 30.6813 138.249 30.2064 138.249H28.2779C27.6684 138.249 27.2069 137.707 27.3134 137.117L28.5001 130.542H21.8294C21.2209 130.542 20.7596 130.002 20.8645 129.413L21.2074 127.486C21.2894 127.025 21.6964 126.689 22.1723 126.689H29.1858L31.2625 115.129H24.5918C23.9833 115.129 23.522 114.589 23.6269 113.999L23.9698 112.072C24.0518 111.611 24.4588 111.275 24.9347 111.275H31.9482L33.1957 104.363C33.2787 103.903 33.6852 103.568 34.1602 103.568H36.0887C36.6981 103.568 37.1597 104.11 37.0531 104.7L35.8665 111.275L47.6247 111.276L48.8722 104.364C48.9552 103.904 49.3617 103.569 49.8367 103.569H51.7652C52.3746 103.569 52.8362 104.11 52.7296 104.701L51.543 111.276H58.2136C58.8222 111.276 59.2834 111.816 59.1785 112.405L58.8357 114.332C58.7537 114.793 58.3466 115.129 57.8708 115.129H50.8573Z" fill="white"/>
<path d="M43.0809 122.759C42.0421 122.759 41.2001 123.587 41.2001 124.609V136.75C41.2001 137.771 42.0421 138.599 43.0809 138.599H44.9617C45.2214 138.599 45.4318 138.806 45.4318 139.062V142.989C45.4318 143.39 45.915 143.601 46.2173 143.332L51.0074 139.076C51.3529 138.769 51.8024 138.599 52.2683 138.599H60.9482C61.987 138.599 62.829 137.771 62.829 136.75V124.609C62.829 123.587 61.987 122.759 60.9482 122.759H43.0809Z" fill="white"/>
<rect x="0.775391" y="87.627" width="223.414" height="63.7975" rx="18.1689" fill="#FFC2CD"/>
<path d="M46.5831 112.38L45.9776 115.731H42.6183L43.2238 112.38L33.1402 112.38L31.3593 122.235H35.0716V125.52H30.7706L29.7008 131.412C29.6296 131.804 29.2809 132.089 28.8736 132.089H27.2198C26.6971 132.089 26.3014 131.628 26.3927 131.125L27.4104 125.52H21.6899C21.168 125.52 20.7725 125.059 20.8624 124.557L21.1564 122.914C21.2268 122.521 21.5758 122.235 21.9839 122.235H27.9984L29.7793 112.38H24.0588C23.5369 112.38 23.1414 111.92 23.2313 111.417L23.5253 109.775C23.5957 109.382 23.9447 109.095 24.3528 109.095H30.3673L31.4372 103.203C31.5083 102.811 31.857 102.525 32.2643 102.525H33.9181C34.4407 102.525 34.8365 102.987 34.7451 103.49L33.7275 109.095L43.811 109.096L44.8808 103.204C44.952 102.811 45.3006 102.526 45.7079 102.526H47.3617C47.8843 102.526 48.2801 102.987 48.1887 103.491L47.1711 109.096H52.8916C53.4135 109.096 53.8091 109.556 53.7191 110.058L53.4251 111.701C53.3547 112.094 53.0057 112.38 52.5976 112.38H46.5831Z" fill="#A66A74"/>
<path d="M39.9143 118.885C39.0236 118.885 38.3015 119.591 38.3015 120.462V130.811C38.3015 131.682 39.0236 132.388 39.9143 132.388H41.5272C41.75 132.388 41.9304 132.565 41.9304 132.782V136.13C41.9304 136.472 42.3448 136.652 42.604 136.423L46.7118 132.795C47.0082 132.533 47.3936 132.388 47.7931 132.388H55.2367C56.1275 132.388 56.8496 131.682 56.8496 130.811V120.462C56.8496 119.591 56.1275 118.885 55.2367 118.885H39.9143Z" fill="#A66A74"/>
<path d="M65.8027 125.273L70.2716 124.356C70.4721 125.588 71.5893 126.046 72.8211 126.046C74.0243 126.046 74.6832 125.531 74.6832 124.9C74.6832 124.413 74.3108 124.041 73.2508 123.84L70.3289 123.267C67.6648 122.78 66.1465 121.348 66.1465 119.085C66.1465 116.134 68.696 114.215 72.3341 114.215C75.915 114.215 78.2926 115.848 78.8655 118.34L74.6832 119.171C74.5399 118.283 73.6805 117.481 72.2769 117.481C71.0451 117.481 70.644 118.082 70.644 118.598C70.644 118.999 70.8159 119.4 71.7326 119.601L75.1129 120.288C77.8343 120.861 79.0947 122.494 79.0947 124.614C79.0947 127.794 76.3447 129.455 72.5633 129.455C69.183 129.455 66.2897 128.223 65.8027 125.273ZM90.5432 114.215C93.8662 114.215 96.1007 116.593 96.1007 120.202V129.025H91.5459V121.176C91.5459 119.486 90.5432 118.34 89.0536 118.34C87.2775 118.34 86.103 119.572 86.103 122.351V129.025H81.5196V108.4H86.103V116.02C87.2202 114.874 88.7099 114.215 90.5432 114.215ZM106.274 114.272C110.543 114.272 114.152 117.309 114.152 121.835C114.152 126.39 110.543 129.426 106.274 129.426C101.92 129.426 98.3105 126.39 98.3105 121.835C98.3105 117.309 101.92 114.272 106.274 114.272ZM106.274 125.559C108.05 125.559 109.74 124.098 109.74 121.835C109.74 119.601 108.05 118.111 106.274 118.111C104.412 118.111 102.722 119.601 102.722 121.835C102.722 124.098 104.412 125.559 106.274 125.559ZM137.121 114.645L132.509 129.054H128.527L125.948 121.262L123.342 129.054H119.36L114.748 114.645H119.245L121.594 122.379L124.316 114.645H127.553L130.274 122.408L132.623 114.645H137.121ZM145.576 125.445C147.037 125.445 148.212 124.671 148.699 122.924L152.91 123.84C152.194 127.249 149.157 129.455 145.576 129.455C141.28 129.455 137.727 126.39 137.727 121.835C137.727 117.309 141.28 114.215 145.576 114.215C149.071 114.215 152.108 116.364 152.91 119.744L148.613 120.775C148.212 119.028 147.037 118.226 145.576 118.226C143.514 118.226 142.139 119.744 142.139 121.835C142.139 123.955 143.514 125.445 145.576 125.445ZM170.415 114.645V129.025H165.832V127.88C164.715 128.882 163.225 129.455 161.363 129.455C157.553 129.455 154.345 126.39 154.345 121.835C154.345 117.309 157.553 114.215 161.363 114.215C163.225 114.215 164.715 114.788 165.832 115.791V114.645H170.415ZM162.308 125.559C164.17 125.559 165.832 124.07 165.832 121.835C165.832 119.629 164.17 118.111 162.308 118.111C160.303 118.111 158.842 119.629 158.842 121.835C158.842 124.07 160.303 125.559 162.308 125.559ZM172.751 125.273L177.22 124.356C177.421 125.588 178.538 126.046 179.77 126.046C180.973 126.046 181.632 125.531 181.632 124.9C181.632 124.413 181.259 124.041 180.2 123.84L177.278 123.267C174.613 122.78 173.095 121.348 173.095 119.085C173.095 116.134 175.645 114.215 179.283 114.215C182.864 114.215 185.241 115.848 185.814 118.34L181.632 119.171C181.489 118.283 180.629 117.481 179.226 117.481C177.994 117.481 177.593 118.082 177.593 118.598C177.593 118.999 177.765 119.4 178.681 119.601L182.062 120.288C184.783 120.861 186.043 122.494 186.043 124.614C186.043 127.794 183.293 129.455 179.512 129.455C176.132 129.455 173.238 128.223 172.751 125.273ZM202.562 121.835V123.01H192.02C192.393 124.728 193.567 125.788 195.114 125.788C196.174 125.788 197.406 125.531 198.179 124.127L202.247 124.958C201.015 127.994 198.409 129.455 195.114 129.455C190.961 129.455 187.523 126.39 187.523 121.835C187.523 117.309 190.961 114.215 195.143 114.215C199.211 114.215 202.476 117.137 202.562 121.835ZM195.143 117.939C193.854 117.939 192.536 118.741 192.106 120.202H198.036C197.607 118.655 196.461 117.939 195.143 117.939Z" fill="#A66A74"/>
<path d="M309.331 264.6C307.914 264.6 306.602 265.332 305.775 266.42C304.949 265.332 303.637 264.6 302.22 264.6C299.769 264.6 297.775 266.562 297.775 268.975C297.775 273.779 304.997 278.278 305.305 278.467C305.449 278.555 305.613 278.6 305.775 278.6C305.938 278.6 306.102 278.555 306.246 278.467C306.554 278.278 313.775 273.779 313.775 268.975C313.775 266.562 311.782 264.6 309.331 264.6Z" fill="#F996A8"/>
</svg>
