<svg width="342" height="244" viewBox="0 0 342 244" fill="none" xmlns="http://www.w3.org/2000/svg">
<rect x="22.2207" y="70.3047" width="319.14" height="172.999" rx="18.1689" fill="white"/>
<path d="M21.9492 18.1689C21.9492 8.13447 30.0837 0 40.1181 0H189.933C199.967 0 208.102 8.13448 208.102 18.1689V27.8837C208.102 37.9181 199.967 46.0526 189.933 46.0526H40.1181C30.0837 46.0526 21.9492 37.9181 21.9492 27.8837V18.1689Z" fill="white"/>
<rect x="38.4805" y="105.094" width="207.237" height="30.7017" rx="8.85626" fill="#FFCBCB"/>
<rect x="38.4805" y="148.195" width="207.237" height="30.7017" rx="8.85626" fill="#FFCBCB"/>
<rect x="38.4805" y="191.297" width="207.237" height="30.7017" rx="8.85626" fill="#FFCBCB"/>
<path d="M83.6962 115.488C80.508 115.488 78.0052 117.959 78.0052 121.084C78.0052 124.192 80.508 126.647 83.6962 126.647C86.8845 126.647 89.3873 124.192 89.3873 121.084C89.3873 117.959 86.8845 115.488 83.6962 115.488ZM83.6962 124.24C81.9586 124.24 80.6355 122.901 80.6355 121.084C80.6355 119.251 81.9586 117.896 83.6962 117.896C85.4338 117.896 86.757 119.251 86.757 121.084C86.757 122.901 85.4338 124.24 83.6962 124.24ZM98.8752 118.406H96.3246V122.12C96.3246 123.666 95.671 124.352 94.6667 124.352C93.8537 124.352 93.2958 123.714 93.2958 122.774V118.406H90.7611V123.316C90.7611 125.324 92.0045 126.647 93.8696 126.647C94.8739 126.647 95.7188 126.281 96.3246 125.643V126.408H98.8752V118.406ZM106.035 118.294C104.728 118.294 103.851 118.98 103.278 119.936V118.406H100.727V126.408H103.278V123.905C103.278 121.833 104.25 120.908 106.035 120.908H106.498L106.609 118.358C106.418 118.31 106.259 118.294 106.035 118.294ZM116.396 118.167C115.392 118.167 114.547 118.533 113.941 119.171V118.406H111.391V126.408H113.941V122.694C113.941 121.148 114.595 120.462 115.599 120.462C116.412 120.462 116.97 121.1 116.97 122.04V126.408H119.505V121.498C119.505 119.49 118.262 118.167 116.396 118.167ZM129.088 122.407C129.04 119.793 127.223 118.167 124.959 118.167C122.632 118.167 120.719 119.888 120.719 122.407C120.719 124.942 122.632 126.647 124.944 126.647C126.777 126.647 128.227 125.834 128.913 124.145L126.649 123.682C126.219 124.463 125.533 124.607 124.944 124.607C124.083 124.607 123.429 124.017 123.222 123.061H129.088V122.407ZM124.959 120.239C125.693 120.239 126.33 120.637 126.57 121.498H123.27C123.509 120.685 124.242 120.239 124.959 120.239ZM141.88 118.406H139.378L138.07 122.726L136.556 118.406H134.755L133.24 122.71L131.933 118.406H129.43L131.997 126.424H134.213L135.663 122.088L137.098 126.424H139.314L141.88 118.406ZM149.171 126.408V114.93H146.62V126.408H149.171ZM154.932 118.198C152.509 118.198 150.5 119.888 150.5 122.407C150.5 124.942 152.509 126.631 154.932 126.631C157.307 126.631 159.316 124.942 159.316 122.407C159.316 119.888 157.307 118.198 154.932 118.198ZM154.932 124.479C153.896 124.479 152.955 123.666 152.955 122.407C152.955 121.164 153.896 120.335 154.932 120.335C155.92 120.335 156.861 121.164 156.861 122.407C156.861 123.666 155.92 124.479 154.932 124.479ZM168.873 118.406H166.37V118.932C165.796 118.438 164.999 118.167 163.963 118.167C161.875 118.167 160.105 119.809 160.105 122.024C160.105 124.288 161.875 125.946 163.963 125.946C164.999 125.946 165.796 125.675 166.37 125.181V125.404C166.37 126.663 165.541 127.349 164.378 127.349C163.549 127.349 163.102 127.078 162.496 126.36L160.376 127.508C161.157 128.799 162.56 129.437 164.393 129.437C166.992 129.437 168.873 128.082 168.873 125.611V118.406ZM164.505 123.858C163.389 123.858 162.592 123.092 162.592 122.024C162.592 120.956 163.389 120.207 164.505 120.207C165.525 120.207 166.37 120.956 166.37 122.024C166.37 123.092 165.525 123.858 164.505 123.858ZM174.64 118.198C172.217 118.198 170.209 119.888 170.209 122.407C170.209 124.942 172.217 126.631 174.64 126.631C177.016 126.631 179.024 124.942 179.024 122.407C179.024 119.888 177.016 118.198 174.64 118.198ZM174.64 124.479C173.604 124.479 172.664 123.666 172.664 122.407C172.664 121.164 173.604 120.335 174.64 120.335C175.629 120.335 176.569 121.164 176.569 122.407C176.569 123.666 175.629 124.479 174.64 124.479ZM183.209 115.728H180.372V116.222L180.531 122.758H183.05L183.209 116.222V115.728ZM181.822 123.666C180.962 123.666 180.356 124.32 180.356 125.085C180.356 125.882 180.962 126.488 181.822 126.488C182.667 126.488 183.273 125.882 183.273 125.085C183.273 124.32 182.667 123.666 181.822 123.666Z" fill="#893443"/>
<path d="M90.6945 158.827H88.1279L84.5411 165.602L80.9543 158.827H78.3719V169.508H80.9225V163.785L83.9354 169.508H85.1469L88.1439 163.817V169.508H90.6945V158.827ZM101.131 161.489H98.3889L96.3643 166.16L94.4673 161.489H91.7254L95.0412 169.237L93.75 172.218H96.5078L101.131 161.489ZM108.415 169.508V158.03H105.864V169.508H108.415ZM118.687 161.505H116.136V162.143C115.515 161.585 114.686 161.266 113.65 161.266C111.529 161.266 109.744 162.988 109.744 165.507C109.744 168.041 111.529 169.747 113.65 169.747C114.686 169.747 115.515 169.428 116.136 168.87V169.508H118.687V161.505ZM114.176 167.579C113.06 167.579 112.247 166.75 112.247 165.507C112.247 164.279 113.06 163.434 114.176 163.434C115.212 163.434 116.136 164.279 116.136 165.507C116.136 166.75 115.212 167.579 114.176 167.579ZM125.869 167.149C125.535 167.34 125.056 167.467 124.706 167.467C124.036 167.467 123.638 167.133 123.638 166.304V163.53H125.997V161.505H123.638V159.146H121.087V161.505H119.636V163.53H121.087V166.559C121.087 168.663 122.283 169.747 124.275 169.747C125.184 169.747 125.837 169.492 126.459 169.157L125.869 167.149ZM135.113 165.507C135.065 162.892 133.248 161.266 130.984 161.266C128.657 161.266 126.744 162.988 126.744 165.507C126.744 168.041 128.657 169.747 130.968 169.747C132.801 169.747 134.252 168.934 134.938 167.244L132.674 166.782C132.244 167.563 131.558 167.706 130.968 167.706C130.107 167.706 129.454 167.117 129.247 166.16H135.113V165.507ZM130.984 163.339C131.717 163.339 132.355 163.737 132.594 164.598H129.294C129.534 163.785 130.267 163.339 130.984 163.339ZM135.897 167.42C136.168 169.061 137.778 169.747 139.659 169.747C141.764 169.747 143.294 168.822 143.294 167.053C143.294 165.873 142.593 164.965 141.078 164.646L139.197 164.263C138.687 164.152 138.591 163.928 138.591 163.705C138.591 163.418 138.814 163.083 139.5 163.083C140.281 163.083 140.759 163.53 140.839 164.024L143.166 163.562C142.848 162.175 141.524 161.266 139.532 161.266C137.507 161.266 136.088 162.334 136.088 163.976C136.088 165.236 136.933 166.033 138.416 166.304L140.042 166.622C140.632 166.734 140.839 166.941 140.839 167.212C140.839 167.563 140.472 167.85 139.803 167.85C139.117 167.85 138.496 167.595 138.384 166.909L135.897 167.42ZM149.984 167.149C149.649 167.34 149.171 167.467 148.82 167.467C148.15 167.467 147.752 167.133 147.752 166.304V163.53H150.111V161.505H147.752V159.146H145.201V161.505H143.751V163.53H145.201V166.559C145.201 168.663 146.397 169.747 148.39 169.747C149.298 169.747 149.952 169.492 150.573 169.157L149.984 167.149ZM163.662 161.505H161.111V162.143C160.49 161.585 159.661 161.266 158.624 161.266C156.504 161.266 154.719 162.988 154.719 165.507C154.719 168.041 156.504 169.747 158.624 169.747C159.661 169.747 160.49 169.428 161.111 168.87V169.508H163.662V161.505ZM159.151 167.579C158.035 167.579 157.222 166.75 157.222 165.507C157.222 164.279 158.035 163.434 159.151 163.434C160.187 163.434 161.111 164.279 161.111 165.507C161.111 166.75 160.187 167.579 159.151 167.579ZM170.812 161.394C169.505 161.394 168.628 162.079 168.055 163.036V161.505H165.504V169.508H168.055V167.005C168.055 164.933 169.027 164.008 170.812 164.008H171.275L171.386 161.457C171.195 161.41 171.036 161.394 170.812 161.394ZM177.959 167.149C177.624 167.34 177.146 167.467 176.795 167.467C176.125 167.467 175.727 167.133 175.727 166.304V163.53H178.086V161.505H175.727V159.146H173.176V161.505H171.726V163.53H173.176V166.559C173.176 168.663 174.372 169.747 176.365 169.747C177.273 169.747 177.927 169.492 178.549 169.157L177.959 167.149ZM191.152 161.505H188.649L187.342 165.825L185.828 161.505H184.026L182.512 165.809L181.205 161.505H178.702L181.268 169.524H183.484L184.935 165.188L186.37 169.524H188.585L191.152 161.505ZM195.921 161.298C193.498 161.298 191.49 162.988 191.49 165.507C191.49 168.041 193.498 169.731 195.921 169.731C198.297 169.731 200.305 168.041 200.305 165.507C200.305 162.988 198.297 161.298 195.921 161.298ZM195.921 167.579C194.885 167.579 193.945 166.766 193.945 165.507C193.945 164.263 194.885 163.434 195.921 163.434C196.91 163.434 197.85 164.263 197.85 165.507C197.85 166.766 196.91 167.579 195.921 167.579ZM206.929 161.394C205.622 161.394 204.745 162.079 204.172 163.036V161.505H201.621V169.508H204.172V167.005C204.172 164.933 205.144 164.008 206.929 164.008H207.392L207.503 161.457C207.312 161.41 207.153 161.394 206.929 161.394ZM217.459 169.508L213.585 165.315L217.092 161.505H214.016L211.481 164.231H211.13V158.03H208.58V169.508H211.13V166.622H211.593L214.191 169.508H217.459Z" fill="#893443"/>
<path d="M78.3719 201.929V212.609H82.5963C86.1193 212.609 88.4467 210.441 88.4467 207.269C88.4467 204.097 86.1193 201.929 82.5963 201.929H78.3719ZM81.0022 210.33V204.208H82.5006C84.4933 204.208 85.8005 205.42 85.8005 207.269C85.8005 209.118 84.4933 210.33 82.5006 210.33H81.0022ZM98.34 204.607H95.7894V205.245C95.1677 204.687 94.3388 204.368 93.3026 204.368C91.1824 204.368 89.397 206.089 89.397 208.608C89.397 211.143 91.1824 212.848 93.3026 212.848C94.3388 212.848 95.1677 212.53 95.7894 211.972V212.609H98.34V204.607ZM93.8287 210.68C92.7128 210.68 91.8998 209.852 91.8998 208.608C91.8998 207.381 92.7128 206.536 93.8287 206.536C94.8649 206.536 95.7894 207.381 95.7894 208.608C95.7894 209.852 94.8649 210.68 93.8287 210.68ZM99.6401 210.521C99.9111 212.163 101.521 212.848 103.402 212.848C105.507 212.848 107.037 211.924 107.037 210.154C107.037 208.975 106.335 208.066 104.821 207.747L102.94 207.365C102.43 207.253 102.334 207.03 102.334 206.807C102.334 206.52 102.557 206.185 103.243 206.185C104.024 206.185 104.502 206.631 104.582 207.126L106.909 206.663C106.591 205.276 105.267 204.368 103.275 204.368C101.25 204.368 99.8314 205.436 99.8314 207.078C99.8314 208.337 100.676 209.134 102.159 209.405L103.785 209.724C104.375 209.836 104.582 210.043 104.582 210.314C104.582 210.665 104.215 210.951 103.546 210.951C102.86 210.951 102.239 210.696 102.127 210.011L99.6401 210.521ZM113.408 204.368C112.388 204.368 111.559 204.734 110.937 205.372V201.132H108.386V212.609H110.937V208.895C110.937 207.349 111.59 206.663 112.579 206.663C113.408 206.663 113.966 207.301 113.966 208.241V212.609H116.5V207.699C116.5 205.691 115.257 204.368 113.408 204.368ZM123.294 204.368C122.257 204.368 121.428 204.687 120.807 205.245V201.132H118.256V212.609H120.807V211.972C121.428 212.53 122.257 212.848 123.294 212.848C125.414 212.848 127.199 211.143 127.199 208.608C127.199 206.089 125.414 204.368 123.294 204.368ZM122.768 210.68C121.731 210.68 120.807 209.852 120.807 208.608C120.807 207.381 121.731 206.536 122.768 206.536C123.883 206.536 124.696 207.381 124.696 208.608C124.696 209.852 123.883 210.68 122.768 210.68ZM132.421 204.4C129.998 204.4 127.989 206.089 127.989 208.608C127.989 211.143 129.998 212.833 132.421 212.833C134.796 212.833 136.805 211.143 136.805 208.608C136.805 206.089 134.796 204.4 132.421 204.4ZM132.421 210.68C131.385 210.68 130.444 209.867 130.444 208.608C130.444 207.365 131.385 206.536 132.421 206.536C133.409 206.536 134.35 207.365 134.35 208.608C134.35 209.867 133.409 210.68 132.421 210.68ZM146.537 204.607H143.987V205.245C143.365 204.687 142.536 204.368 141.5 204.368C139.38 204.368 137.594 206.089 137.594 208.608C137.594 211.143 139.38 212.848 141.5 212.848C142.536 212.848 143.365 212.53 143.987 211.972V212.609H146.537V204.607ZM142.026 210.68C140.91 210.68 140.097 209.852 140.097 208.608C140.097 207.381 140.91 206.536 142.026 206.536C143.062 206.536 143.987 207.381 143.987 208.608C143.987 209.852 143.062 210.68 142.026 210.68ZM153.688 204.495C152.381 204.495 151.504 205.181 150.93 206.137V204.607H148.38V212.609H150.93V210.107C150.93 208.034 151.903 207.11 153.688 207.11H154.15L154.262 204.559C154.071 204.511 153.911 204.495 153.688 204.495ZM163.646 201.132H161.096V205.245C160.474 204.687 159.645 204.368 158.609 204.368C156.489 204.368 154.703 206.089 154.703 208.608C154.703 211.143 156.489 212.848 158.609 212.848C159.645 212.848 160.474 212.53 161.096 211.972V212.609H163.646V201.132ZM159.135 210.68C158.019 210.68 157.206 209.852 157.206 208.608C157.206 207.381 158.019 206.536 159.135 206.536C160.171 206.536 161.096 207.381 161.096 208.608C161.096 209.852 160.171 210.68 159.135 210.68ZM178.742 201.929H176.112V207.795C176.112 209.421 175.267 210.425 174.008 210.425C172.669 210.425 171.792 209.421 171.792 207.795V201.929H169.162V207.795C169.162 210.856 171.106 212.848 174.008 212.848C176.845 212.848 178.742 210.856 178.742 207.795V201.929ZM183.188 212.609V201.929H180.558V212.609H183.188ZM197.259 213.056L198.742 211.414L197.307 210.17C197.642 209.453 197.833 208.608 197.833 207.604V206.886H195.522V207.604C195.522 207.939 195.49 208.257 195.426 208.528L193.162 206.568C192.254 205.755 191.967 205.308 191.967 204.734C191.967 204.081 192.429 203.73 193.051 203.73C193.736 203.73 194.167 204.097 194.246 205.133L196.606 204.718C196.35 202.981 195.219 201.69 193.051 201.69C191.01 201.69 189.512 202.901 189.512 204.671C189.512 205.436 189.751 206.105 190.261 206.775C189.161 207.381 188.46 208.305 188.46 209.501C188.46 211.525 190.197 212.848 192.716 212.848C193.864 212.848 194.995 212.53 195.904 211.86L197.259 213.056ZM192.812 210.792C191.68 210.792 190.962 210.218 190.962 209.405C190.962 208.943 191.249 208.528 191.728 208.226L194.198 210.378C193.752 210.665 193.258 210.792 192.812 210.792ZM213.131 201.929H210.501V207.795C210.501 209.421 209.656 210.425 208.397 210.425C207.058 210.425 206.181 209.421 206.181 207.795V201.929H203.551V207.795C203.551 210.856 205.495 212.848 208.397 212.848C211.234 212.848 213.131 210.856 213.131 207.795V201.929ZM221.69 212.609H224.799L221.451 207.253L224.767 201.929H221.658L219.458 205.531L217.274 201.929H214.166L217.482 207.253L214.134 212.609H217.242L219.458 208.975L221.69 212.609Z" fill="#893443"/>
<circle cx="59.7344" cy="206.646" r="10.0371" fill="#EC667E"/>
<circle cx="59.7344" cy="120.445" r="10.0371" fill="#EC667E"/>
<circle cx="59.7344" cy="163.545" r="10.0371" fill="#EC667E"/>
<path d="M50.1834 50.5294L49.4774 54.4599H45.5601L46.2662 50.5294L34.5078 50.5289L32.4311 62.0891H36.7599V65.9425H31.7446L30.4971 72.8543C30.414 73.3142 30.0075 73.6493 29.5326 73.6493H27.604C26.9945 73.6493 26.533 73.1079 26.6396 72.5175L27.8263 65.9425H21.1556C20.5471 65.9425 20.0858 65.4026 20.1907 64.8131L20.5336 62.8864C20.6156 62.4255 21.0226 62.0891 21.4985 62.0891H28.512L30.5887 50.5289H23.918C23.3095 50.5289 22.8482 49.989 22.9531 49.3995L23.2959 47.4728C23.378 47.0119 23.785 46.6755 24.2609 46.6755H31.2744L32.5219 39.7637C32.6049 39.3038 33.0114 38.9688 33.4863 38.9688H35.4149C36.0243 38.9688 36.4858 39.5103 36.3793 40.1005L35.1926 46.6755L46.9509 46.676L48.1984 39.7642C48.2814 39.3043 48.6879 38.9692 49.1629 38.9692H51.0914C51.7008 38.9692 52.1623 39.5108 52.0558 40.101L50.8691 46.676H57.5398C58.1483 46.676 58.6096 47.216 58.5047 47.8054L58.1619 49.7321C58.0798 50.1931 57.6728 50.5294 57.1969 50.5294H50.1834Z" fill="white"/>
<path d="M42.4071 58.1598C41.3683 58.1598 40.5263 58.9879 40.5263 60.0094V72.1502C40.5263 73.1717 41.3683 73.9998 42.4071 73.9998H44.2878C44.5476 73.9998 44.758 74.2067 44.758 74.4622V78.3896C44.758 78.7903 45.2411 79.0015 45.5434 78.7327L50.3335 74.4768C50.6791 74.1697 51.1285 73.9998 51.5944 73.9998H60.2744C61.3131 73.9998 62.1552 73.1717 62.1552 72.1502V60.0094C62.1552 58.9879 61.3131 58.1598 60.2744 58.1598H42.4071Z" fill="white"/>
<rect x="0.101562" y="23.0273" width="231.414" height="65.7975" rx="18.1689" fill="#FFCBCB"/>
<path d="M45.9092 48.7812L45.3037 52.1318H41.9444L42.5499 48.7812L32.4664 48.7808L30.6855 58.6355H34.3977V61.9204H30.0967L29.0269 67.8125C28.9557 68.2045 28.6071 68.4902 28.1998 68.4902H26.546C26.0233 68.4902 25.6275 68.0286 25.7188 67.5254L26.7365 61.9204H21.016C20.4942 61.9204 20.0986 61.4602 20.1886 60.9576L20.4826 59.3151C20.5529 58.9223 20.902 58.6355 21.31 58.6355H27.3246L29.1055 48.7808H23.3849C22.8631 48.7808 22.4675 48.3206 22.5575 47.818L22.8515 46.1756C22.9218 45.7826 23.2709 45.4959 23.679 45.4959H29.6935L30.7633 39.6039C30.8345 39.2118 31.1831 38.9261 31.5904 38.9261H33.2442C33.7668 38.9261 34.1627 39.3878 34.0713 39.8909L33.0537 45.4959L43.1371 45.4964L44.2069 39.6043C44.2781 39.2122 44.6267 38.9266 45.034 38.9266H46.6878C47.2104 38.9266 47.6063 39.3882 47.5149 39.8913L46.4973 45.4964H52.2178C52.7396 45.4964 53.1352 45.9566 53.0452 46.4591L52.7512 48.1016C52.6809 48.4945 52.3318 48.7812 51.9238 48.7812H45.9092Z" fill="#EC667E"/>
<path d="M39.2405 55.2859C38.3497 55.2859 37.6276 55.9918 37.6276 56.8626V67.2122C37.6276 68.083 38.3497 68.789 39.2405 68.789H40.8534C41.0761 68.789 41.2566 68.9654 41.2566 69.1831V72.5311C41.2566 72.8727 41.6709 73.0528 41.9301 72.8236L46.0379 69.1956C46.3343 68.9338 46.7197 68.789 47.1192 68.789H54.5629C55.4537 68.789 56.1758 68.083 56.1758 67.2122V56.8626C56.1758 55.9918 55.4537 55.2859 54.5629 55.2859H39.2405Z" fill="#EC667E"/>
<path d="M65.1685 61.4582C65.6835 64.578 68.7427 65.8805 72.3169 65.8805C76.3152 65.8805 79.223 64.1237 79.223 60.7615C79.223 58.5201 77.8903 56.7936 75.0127 56.1878L71.4385 55.4608C70.4693 55.2488 70.2875 54.8247 70.2875 54.4007C70.2875 53.8554 70.7116 53.2194 72.014 53.2194C73.4982 53.2194 74.4069 54.0675 74.5584 55.0065L78.9807 54.1281C78.3749 51.4928 75.8608 49.7663 72.0746 49.7663C68.2278 49.7663 65.532 51.7957 65.532 54.9156C65.532 57.3085 67.1374 58.823 69.9543 59.3379L73.0439 59.9437C74.1646 60.1557 74.5584 60.5495 74.5584 61.0644C74.5584 61.7308 73.8617 62.276 72.5895 62.276C71.2871 62.276 70.1058 61.7914 69.8938 60.4889L65.1685 61.4582ZM91.3283 49.7663C89.3897 49.7663 87.8147 50.463 86.6334 51.6746V43.6175H81.787V65.4261H86.6334V58.3686C86.6334 55.4305 87.8752 54.1281 89.7532 54.1281C91.3283 54.1281 92.3884 55.3396 92.3884 57.1267V65.4261H97.2045V56.0969C97.2045 52.2804 94.8419 49.7663 91.3283 49.7663ZM107.962 49.8269C103.358 49.8269 99.5411 53.0376 99.5411 57.8234C99.5411 62.6395 103.358 65.8502 107.962 65.8502C112.475 65.8502 116.291 62.6395 116.291 57.8234C116.291 53.0376 112.475 49.8269 107.962 49.8269ZM107.962 61.7611C105.993 61.7611 104.206 60.2163 104.206 57.8234C104.206 55.4608 105.993 53.8857 107.962 53.8857C109.84 53.8857 111.627 55.4608 111.627 57.8234C111.627 60.2163 109.84 61.7611 107.962 61.7611ZM140.578 50.2207H135.822L133.338 58.4292L130.461 50.2207H127.038L124.161 58.3989L121.677 50.2207H116.921L121.798 65.4564H126.008L128.765 57.2176L131.491 65.4564H135.701L140.578 50.2207ZM149.519 61.6399C147.338 61.6399 145.884 60.0649 145.884 57.8234C145.884 55.6123 147.338 54.0069 149.519 54.0069C151.063 54.0069 152.305 54.855 152.729 56.7027L157.273 55.6123C156.425 52.0381 153.214 49.7663 149.519 49.7663C144.975 49.7663 141.219 53.0376 141.219 57.8234C141.219 62.6395 144.975 65.8805 149.519 65.8805C153.305 65.8805 156.515 63.5482 157.273 59.9437L152.82 58.9744C152.305 60.8221 151.063 61.6399 149.519 61.6399ZM175.782 50.2207H170.936V51.4323C169.754 50.3721 168.179 49.7663 166.211 49.7663C162.182 49.7663 158.79 53.0376 158.79 57.8234C158.79 62.6395 162.182 65.8805 166.211 65.8805C168.179 65.8805 169.754 65.2747 170.936 64.2146V65.4261H175.782V50.2207ZM167.21 61.7611C165.09 61.7611 163.545 60.186 163.545 57.8234C163.545 55.4911 165.09 53.8857 167.21 53.8857C169.179 53.8857 170.936 55.4911 170.936 57.8234C170.936 60.186 169.179 61.7611 167.21 61.7611ZM178.252 61.4582C178.767 64.578 181.827 65.8805 185.401 65.8805C189.399 65.8805 192.307 64.1237 192.307 60.7615C192.307 58.5201 190.974 56.7936 188.097 56.1878L184.522 55.4608C183.553 55.2488 183.371 54.8247 183.371 54.4007C183.371 53.8554 183.795 53.2194 185.098 53.2194C186.582 53.2194 187.491 54.0675 187.642 55.0065L192.065 54.1281C191.459 51.4928 188.945 49.7663 185.158 49.7663C181.312 49.7663 178.616 51.7957 178.616 54.9156C178.616 57.3085 180.221 58.823 183.038 59.3379L186.128 59.9437C187.248 60.1557 187.642 60.5495 187.642 61.0644C187.642 61.7308 186.946 62.276 185.673 62.276C184.371 62.276 183.19 61.7914 182.978 60.4889L178.252 61.4582ZM209.773 57.8234C209.683 52.8559 206.23 49.7663 201.928 49.7663C197.506 49.7663 193.871 53.0376 193.871 57.8234C193.871 62.6395 197.506 65.8805 201.898 65.8805C205.381 65.8805 208.138 64.3357 209.44 61.125L205.139 60.2466C204.321 61.7308 203.019 62.0034 201.898 62.0034C200.262 62.0034 199.021 60.8827 198.627 59.0653H209.773V57.8234ZM201.928 53.704C203.322 53.704 204.533 54.4612 204.988 56.0969H198.718C199.172 54.5521 200.565 53.704 201.928 53.704Z" fill="#EC667E"/>
<path d="M260.477 113.95C260.477 109.059 264.442 105.094 269.333 105.094H314.205C319.096 105.094 323.061 109.059 323.061 113.95V126.939C323.061 131.83 319.096 135.795 314.205 135.795H269.333C264.442 135.795 260.477 131.83 260.477 126.939V113.95Z" fill="#FFCBCB"/>
<path d="M260.477 157.051C260.477 152.159 264.442 148.194 269.333 148.194H314.205C319.096 148.194 323.061 152.159 323.061 157.051V170.04C323.061 174.931 319.096 178.896 314.205 178.896H269.333C264.442 178.896 260.477 174.931 260.477 170.04V157.051Z" fill="#FFCBCB"/>
<path d="M260.477 200.151C260.477 195.26 264.442 191.295 269.333 191.295H314.205C319.096 191.295 323.061 195.26 323.061 200.151V213.14C323.061 218.032 319.096 221.997 314.205 221.997H269.333C264.442 221.997 260.477 218.032 260.477 213.14V200.151Z" fill="#FFCBCB"/>
<path d="M275.531 203.339V199.561L269.332 206.173L275.531 212.786V208.913C279.96 208.913 283.059 210.424 285.273 213.731C284.388 209.007 281.731 204.284 275.531 203.339Z" fill="#EC667E"/>
<path d="M308.657 156.999C307.24 156.999 305.928 157.731 305.102 158.819C304.275 157.731 302.963 156.999 301.546 156.999C299.095 156.999 297.102 158.962 297.102 161.374C297.102 166.179 304.323 170.677 304.631 170.866C304.775 170.954 304.939 170.999 305.102 170.999C305.264 170.999 305.428 170.954 305.572 170.866C305.88 170.677 313.102 166.179 313.102 161.374C313.102 158.962 311.108 156.999 308.657 156.999Z" fill="white"/>
<path d="M275.531 160.239V156.46L269.332 163.073L275.531 169.685V165.812C279.96 165.812 283.059 167.324 285.273 170.63C284.388 165.907 281.731 161.183 275.531 160.239Z" fill="#EC667E"/>
<path d="M275.531 117.138V113.359L269.332 119.972L275.531 126.585V122.712C279.96 122.712 283.059 124.223 285.273 127.529C284.388 122.806 281.731 118.083 275.531 117.138Z" fill="#EC667E"/>
<path d="M308.657 199.999C307.24 199.999 305.928 200.731 305.102 201.819C304.275 200.731 302.963 199.999 301.546 199.999C299.095 199.999 297.102 201.962 297.102 204.374C297.102 209.179 304.323 213.677 304.631 213.866C304.775 213.954 304.939 213.999 305.102 213.999C305.264 213.999 305.428 213.954 305.572 213.866C305.88 213.677 313.102 209.179 313.102 204.374C313.102 201.962 311.108 199.999 308.657 199.999Z" fill="white"/>
<path d="M308.657 113C307.24 113 305.928 113.732 305.102 114.82C304.275 113.732 302.963 113 301.546 113C299.095 113 297.102 114.963 297.102 117.375C297.102 122.18 304.323 126.678 304.631 126.867C304.775 126.955 304.939 127 305.102 127C305.264 127 305.428 126.955 305.572 126.867C305.88 126.678 313.102 122.18 313.102 117.375C313.102 114.963 311.108 113 308.657 113Z" fill="#EC667E"/>
</svg>
