<svg width="343" height="374" viewBox="0 0 343 374" fill="none" xmlns="http://www.w3.org/2000/svg">
<rect x="22.8945" y="134.984" width="319.14" height="172.999" rx="18.1689" fill="white"/>
<path d="M22.623 82.8485C22.623 72.8142 30.7575 64.6797 40.7919 64.6797H180.849C190.883 64.6797 199.018 72.8142 199.018 82.8486V92.5634C199.018 102.598 190.883 110.732 180.849 110.732H40.7919C30.7575 110.732 22.623 102.598 22.623 92.5634V82.8485Z" fill="white"/>
<rect x="39.1543" y="169.773" width="207.237" height="30.7017" rx="8.85626" fill="#FFC2CD"/>
<rect x="39.1543" y="212.875" width="207.237" height="30.7017" rx="8.85626" fill="#FFC2CD"/>
<rect x="39.1543" y="255.977" width="207.237" height="30.7017" rx="8.85626" fill="#FFC2CD"/>
<path d="M84.5295 180.2C87.6221 180.2 90.0452 182.655 90.0452 185.748C90.0452 188.856 87.6221 191.295 84.5295 191.295C81.4209 191.295 78.9979 188.856 78.9979 185.748C78.9979 182.655 81.4209 180.2 84.5295 180.2ZM84.5295 190.1C86.9047 190.1 88.7699 188.218 88.7699 185.748C88.7699 183.293 86.9047 181.38 84.5295 181.38C82.1383 181.38 80.2732 183.293 80.2732 185.748C80.2732 188.218 82.1383 190.1 84.5295 190.1ZM99.4782 183.229V191.072H98.2507V189.797C97.613 190.737 96.5928 191.279 95.2856 191.279C93.3886 191.279 92.1292 189.924 92.1292 187.932V183.229H93.3567V187.708C93.3567 189.175 94.2175 190.147 95.5247 190.147C97.1667 190.147 98.2507 189.047 98.2507 187.007V183.229H99.4782ZM106.652 183.149C106.843 183.149 106.987 183.149 107.21 183.213L107.114 184.377C106.971 184.361 106.796 184.361 106.652 184.361C104.564 184.361 103.496 185.939 103.496 188.059V191.088H102.268V183.229H103.496V185.158C104.133 183.994 105.201 183.149 106.652 183.149ZM117.031 183.038C118.928 183.038 120.187 184.393 120.187 186.385V191.088H118.976V186.608C118.976 185.142 118.099 184.153 116.792 184.153C115.15 184.153 114.066 185.269 114.066 187.31V191.088H112.854V183.229H114.066V184.536C114.703 183.58 115.708 183.038 117.031 183.038ZM130.007 186.959V187.405H123.264C123.376 189.175 124.715 190.227 126.07 190.227C127.186 190.227 128.19 189.797 128.748 188.537L129.832 188.792C129.21 190.434 127.839 191.295 126.07 191.295C123.982 191.295 122.085 189.685 122.085 187.182C122.085 184.664 123.982 183.038 126.15 183.038C128.27 183.038 129.928 184.616 130.007 186.959ZM126.15 184.106C124.874 184.106 123.551 184.951 123.312 186.497H128.78C128.557 184.951 127.457 184.106 126.15 184.106ZM142.618 183.229L139.972 191.12H138.84L136.784 185.158L134.711 191.12H133.58L130.933 183.229H132.161L134.185 189.318L136.29 183.229H137.262L139.366 189.318L141.391 183.229H142.618ZM149.529 191.088H148.317V179.61H149.529V191.088ZM155.793 183.053C158.105 183.053 159.954 184.743 159.954 187.15C159.954 189.558 158.105 191.279 155.793 191.279C153.45 191.279 151.616 189.558 151.616 187.15C151.616 184.743 153.45 183.053 155.793 183.053ZM155.793 190.211C157.403 190.211 158.758 188.968 158.758 187.15C158.758 185.349 157.403 184.122 155.793 184.122C154.167 184.122 152.796 185.349 152.796 187.15C152.796 188.968 154.167 190.211 155.793 190.211ZM169.318 183.229L169.334 190.45C169.318 192.746 167.755 194.117 165.38 194.117C163.435 194.117 162.144 193.352 161.538 192.076L162.559 191.375C163.116 192.427 163.914 193.017 165.38 193.017C167.038 193.017 168.138 191.965 168.138 190.291V189.334C167.5 190.163 166.496 190.626 165.189 190.626C163.116 190.626 161.315 189.047 161.315 186.816C161.315 184.6 163.116 183.038 165.189 183.038C166.496 183.038 167.5 183.5 168.138 184.313V183.229H169.318ZM165.364 189.573C166.831 189.573 168.138 188.489 168.138 186.816C168.138 185.142 166.831 184.09 165.364 184.09C163.77 184.09 162.495 185.142 162.495 186.816C162.495 188.489 163.77 189.573 165.364 189.573ZM175.58 183.053C177.891 183.053 179.74 184.743 179.74 187.15C179.74 189.558 177.891 191.279 175.58 191.279C173.236 191.279 171.403 189.558 171.403 187.15C171.403 184.743 173.236 183.053 175.58 183.053ZM175.58 190.211C177.19 190.211 178.545 188.968 178.545 187.15C178.545 185.349 177.19 184.122 175.58 184.122C173.954 184.122 172.583 185.349 172.583 187.15C172.583 188.968 173.954 190.211 175.58 190.211ZM183.238 180.407V180.901L183.19 187.916H181.946L181.915 180.901V180.407H183.238ZM182.568 189.526C183.046 189.526 183.397 189.908 183.397 190.339C183.397 190.785 183.046 191.136 182.568 191.136C182.09 191.136 181.739 190.785 181.739 190.339C181.739 189.908 182.09 189.526 182.568 189.526Z" fill="#A66A74"/>
<path d="M91.0335 223.507V234.188H89.822V226.185L85.6135 234.188H84.9599L80.7355 226.185V234.188H79.5239V223.507H80.6239L85.2787 232.306L89.9336 223.507H91.0335ZM101.131 226.328L96.3171 236.898H94.9621L96.2533 234.076L92.7303 226.328H94.1012L96.9069 232.609L99.7763 226.328H101.131ZM108.057 234.188H106.845V222.71H108.057V234.188ZM118.322 226.328V234.188H117.111V232.944C116.409 233.869 115.293 234.395 113.986 234.395C111.898 234.395 110.065 232.753 110.065 230.266C110.065 227.779 111.898 226.137 113.986 226.137C115.293 226.137 116.409 226.663 117.111 227.588V226.328H118.322ZM114.177 233.311C115.66 233.311 117.111 232.131 117.111 230.266C117.111 228.385 115.66 227.205 114.177 227.205C112.551 227.205 111.244 228.385 111.244 230.266C111.244 232.131 112.551 233.311 114.177 233.311ZM125.441 232.769L125.839 233.773C125.202 234.219 124.66 234.395 124.022 234.395C122.46 234.395 121.424 233.47 121.424 231.733V227.349H119.718V226.328H121.424V223.826H122.651V226.328H125.457V227.349H122.651V231.653C122.651 232.673 123.225 233.247 124.102 233.247C124.548 233.247 125.042 233.056 125.441 232.769ZM134.366 230.059V230.505H127.623C127.735 232.275 129.074 233.327 130.429 233.327C131.545 233.327 132.549 232.896 133.107 231.637L134.191 231.892C133.569 233.534 132.198 234.395 130.429 234.395C128.341 234.395 126.444 232.785 126.444 230.282C126.444 227.763 128.341 226.137 130.509 226.137C132.629 226.137 134.287 227.715 134.366 230.059ZM130.509 227.205C129.233 227.205 127.91 228.05 127.671 229.596H133.139C132.916 228.05 131.816 227.205 130.509 227.205ZM135.785 232.067L136.997 231.796C137.108 232.832 138.065 233.39 139.308 233.39C140.44 233.39 141.189 232.864 141.189 232.051C141.189 231.398 140.695 231.095 139.898 230.92L138.097 230.521C136.79 230.25 136.056 229.596 136.056 228.512C136.056 227.094 137.236 226.137 139.037 226.137C140.807 226.137 141.955 227.046 142.242 228.321L141.078 228.576C140.918 227.715 140.169 227.126 139.005 227.126C137.89 227.126 137.268 227.668 137.268 228.417C137.268 229.038 137.698 229.325 138.463 229.501L140.36 229.915C141.508 230.17 142.385 230.776 142.385 231.972C142.385 233.518 141.094 234.395 139.213 234.395C137.411 234.395 135.977 233.598 135.785 232.067ZM148.839 232.769L149.237 233.773C148.6 234.219 148.058 234.395 147.42 234.395C145.858 234.395 144.822 233.47 144.822 231.733V227.349H143.116V226.328H144.822V223.826H146.049V226.328H148.855V227.349H146.049V231.653C146.049 232.673 146.623 233.247 147.5 233.247C147.946 233.247 148.44 233.056 148.839 232.769ZM162.27 226.328V234.188H161.058V232.944C160.357 233.869 159.241 234.395 157.934 234.395C155.845 234.395 154.012 232.753 154.012 230.266C154.012 227.779 155.845 226.137 157.934 226.137C159.241 226.137 160.357 226.663 161.058 227.588V226.328H162.27ZM158.125 233.311C159.607 233.311 161.058 232.131 161.058 230.266C161.058 228.385 159.607 227.205 158.125 227.205C156.499 227.205 155.192 228.385 155.192 230.266C155.192 232.131 156.499 233.311 158.125 233.311ZM169.452 226.249C169.643 226.249 169.787 226.249 170.01 226.313L169.914 227.476C169.771 227.46 169.595 227.46 169.452 227.46C167.364 227.46 166.296 229.038 166.296 231.159V234.188H165.068V226.328H166.296V228.257C166.933 227.094 168.001 226.249 169.452 226.249ZM176.113 232.769L176.512 233.773C175.874 234.219 175.332 234.395 174.695 234.395C173.132 234.395 172.096 233.47 172.096 231.733V227.349H170.391V226.328H172.096V223.826H173.324V226.328H176.129V227.349H173.324V231.653C173.324 232.673 173.898 233.247 174.774 233.247C175.221 233.247 175.715 233.056 176.113 232.769ZM188.636 226.328L185.99 234.219H184.858L182.802 228.257L180.729 234.219H179.598L176.951 226.328H178.179L180.203 232.418L182.308 226.328H183.28L185.384 232.418L187.409 226.328H188.636ZM193.731 226.153C196.043 226.153 197.892 227.843 197.892 230.25C197.892 232.657 196.043 234.379 193.731 234.379C191.388 234.379 189.555 232.657 189.555 230.25C189.555 227.843 191.388 226.153 193.731 226.153ZM193.731 233.311C195.342 233.311 196.697 232.067 196.697 230.25C196.697 228.449 195.342 227.221 193.731 227.221C192.105 227.221 190.734 228.449 190.734 230.25C190.734 232.067 192.105 233.311 193.731 233.311ZM204.355 226.249C204.546 226.249 204.689 226.249 204.913 226.313L204.817 227.476C204.674 227.46 204.498 227.46 204.355 227.46C202.266 227.46 201.198 229.038 201.198 231.159V234.188H199.971V226.328H201.198V228.257C201.836 227.094 202.904 226.249 204.355 226.249ZM214.208 234.188H212.518L208.278 230.712H207.752V234.188H206.54V222.71H207.752V229.517H208.342L212.12 226.328H213.698L209.234 230.138L214.208 234.188Z" fill="#A66A74"/>
<path d="M79.5239 266.608H83.0629C86.8091 266.608 88.9771 268.92 88.9771 271.949C88.9771 274.962 86.8091 277.289 83.0629 277.289H79.5239V266.608ZM80.7833 276.141H83.0469C86.0439 276.141 87.7018 274.308 87.7018 271.949C87.7018 269.573 86.0439 267.74 83.0469 267.74H80.7833V276.141ZM98.7224 269.43V277.289H97.5109V276.046C96.8095 276.97 95.6936 277.496 94.3864 277.496C92.2981 277.496 90.4649 275.854 90.4649 273.368C90.4649 270.881 92.2981 269.239 94.3864 269.239C95.6936 269.239 96.8095 269.765 97.5109 270.689V269.43H98.7224ZM94.5777 276.412C96.0603 276.412 97.5109 275.233 97.5109 273.368C97.5109 271.486 96.0603 270.307 94.5777 270.307C92.9517 270.307 91.6445 271.486 91.6445 273.368C91.6445 275.233 92.9517 276.412 94.5777 276.412ZM100.851 275.169L102.063 274.898C102.175 275.934 103.131 276.492 104.375 276.492C105.506 276.492 106.256 275.966 106.256 275.153C106.256 274.499 105.761 274.196 104.964 274.021L103.163 273.623C101.856 273.352 101.122 272.698 101.122 271.614C101.122 270.195 102.302 269.239 104.104 269.239C105.873 269.239 107.021 270.147 107.308 271.423L106.144 271.678C105.985 270.817 105.235 270.227 104.072 270.227C102.956 270.227 102.334 270.769 102.334 271.518C102.334 272.14 102.764 272.427 103.53 272.602L105.427 273.017C106.574 273.272 107.451 273.878 107.451 275.073C107.451 276.62 106.16 277.496 104.279 277.496C102.477 277.496 101.043 276.699 100.851 275.169ZM113.762 269.239C115.659 269.239 116.918 270.594 116.918 272.586V277.289H115.707V272.81C115.707 271.343 114.83 270.355 113.523 270.355C111.881 270.355 110.797 271.47 110.797 273.511V277.289H109.585V265.811H110.797V270.737C111.434 269.781 112.439 269.239 113.762 269.239ZM123.884 269.239C125.973 269.239 127.806 270.881 127.806 273.368C127.806 275.854 125.973 277.496 123.884 277.496C122.577 277.496 121.461 276.97 120.76 276.046V277.289H119.548V265.811H120.76V270.689C121.461 269.765 122.577 269.239 123.884 269.239ZM123.693 276.412C125.319 276.412 126.626 275.233 126.626 273.368C126.626 271.486 125.319 270.307 123.693 270.307C122.211 270.307 120.76 271.486 120.76 273.368C120.76 275.233 122.211 276.412 123.693 276.412ZM133.36 269.255C135.672 269.255 137.521 270.944 137.521 273.352C137.521 275.759 135.672 277.48 133.36 277.48C131.017 277.48 129.183 275.759 129.183 273.352C129.183 270.944 131.017 269.255 133.36 269.255ZM133.36 276.412C134.97 276.412 136.325 275.169 136.325 273.352C136.325 271.55 134.97 270.323 133.36 270.323C131.734 270.323 130.363 271.55 130.363 273.352C130.363 275.169 131.734 276.412 133.36 276.412ZM147.06 269.43V277.289H145.848V276.046C145.147 276.97 144.031 277.496 142.724 277.496C140.636 277.496 138.802 275.854 138.802 273.368C138.802 270.881 140.636 269.239 142.724 269.239C144.031 269.239 145.147 269.765 145.848 270.689V269.43H147.06ZM142.915 276.412C144.398 276.412 145.848 275.233 145.848 273.368C145.848 271.486 144.398 270.307 142.915 270.307C141.289 270.307 139.982 271.486 139.982 273.368C139.982 275.233 141.289 276.412 142.915 276.412ZM154.242 269.35C154.434 269.35 154.577 269.35 154.8 269.414L154.705 270.578C154.561 270.562 154.386 270.562 154.242 270.562C152.154 270.562 151.086 272.14 151.086 274.26V277.289H149.859V269.43H151.086V271.359C151.724 270.195 152.792 269.35 154.242 269.35ZM163.673 265.811V277.289H162.461V276.046C161.76 276.97 160.644 277.496 159.337 277.496C157.248 277.496 155.415 275.854 155.415 273.368C155.415 270.881 157.248 269.239 159.337 269.239C160.644 269.239 161.76 269.765 162.461 270.689V265.811H163.673ZM159.528 276.412C161.01 276.412 162.461 275.233 162.461 273.368C162.461 271.486 161.01 270.307 159.528 270.307C157.902 270.307 156.595 271.486 156.595 273.368C156.595 275.233 157.902 276.412 159.528 276.412ZM179.317 266.608V272.618C179.317 275.536 177.547 277.496 174.869 277.496C172.175 277.496 170.374 275.536 170.374 272.618V266.608H171.633V272.618C171.633 274.834 172.924 276.285 174.869 276.285C176.782 276.285 178.057 274.834 178.057 272.618V266.608H179.317ZM183.25 277.289H181.99V266.608H183.25V277.289ZM198.87 277.608L197.068 276.078C196.192 277.018 194.948 277.496 193.625 277.496C191.25 277.496 189.672 276.221 189.672 274.308C189.672 272.985 190.532 271.981 191.728 271.407C191.09 270.673 190.819 270.004 190.819 269.207C190.819 267.533 192.111 266.401 193.896 266.401C195.65 266.401 196.797 267.469 197.021 269.207L195.873 269.43C195.745 268.011 194.948 267.437 193.896 267.437C192.796 267.437 191.999 268.123 191.999 269.223C191.999 270.275 192.685 271.024 194.311 272.347L196.829 274.452C197.068 273.925 197.212 273.288 197.212 272.555V271.869H198.296V272.555C198.296 273.591 198.073 274.467 197.69 275.185L199.587 276.763L198.87 277.608ZM193.625 276.444C194.582 276.444 195.522 276.078 196.208 275.36L193.386 272.969C193.035 272.682 192.716 272.411 192.429 272.156C191.457 272.602 190.851 273.368 190.851 274.308C190.851 275.599 191.967 276.444 193.625 276.444ZM214.219 266.608V272.618C214.219 275.536 212.45 277.496 209.772 277.496C207.078 277.496 205.276 275.536 205.276 272.618V266.608H206.536V272.618C206.536 274.834 207.827 276.285 209.772 276.285C211.685 276.285 212.96 274.834 212.96 272.618V266.608H214.219ZM223.748 277.289L220.527 272.73L217.323 277.289H215.777L219.587 271.917L215.857 266.608H217.387L220.527 271.104L223.668 266.608H225.214L221.468 271.917L225.294 277.289H223.748Z" fill="#A66A74"/>
<circle cx="60.4082" cy="271.326" r="10.0371" fill="#F996A8"/>
<circle cx="60.4082" cy="185.125" r="10.0371" fill="#F996A8"/>
<circle cx="60.4082" cy="228.225" r="10.0371" fill="#F996A8"/>
<rect x="261.15" y="169.773" width="62.5843" height="30.7017" rx="8.85626" fill="#FFC2CD"/>
<rect x="261.15" y="212.875" width="62.5843" height="30.7017" rx="8.85626" fill="#FFC2CD"/>
<rect x="261.15" y="255.977" width="62.5843" height="30.7017" rx="8.85626" fill="#FFC2CD"/>
<path d="M276.205 268.021V264.242L270.006 270.855L276.205 277.468V273.594C280.633 273.594 283.733 275.106 285.947 278.412C285.062 273.689 282.405 268.966 276.205 268.021Z" fill="white"/>
<path d="M309.331 221.68C307.914 221.68 306.602 222.412 305.775 223.5C304.949 222.412 303.637 221.68 302.22 221.68C299.769 221.68 297.775 223.642 297.775 226.055C297.775 230.859 304.997 235.358 305.305 235.547C305.449 235.635 305.613 235.68 305.775 235.68C305.938 235.68 306.102 235.635 306.246 235.547C306.554 235.358 313.775 230.859 313.775 226.055C313.775 223.642 311.782 221.68 309.331 221.68Z" fill="#F996A8"/>
<path d="M276.205 224.919V221.141L270.006 227.753L276.205 234.366V230.493C280.633 230.493 283.733 232.004 285.947 235.311C285.062 230.587 282.405 225.864 276.205 224.919Z" fill="white"/>
<path d="M309.331 177.68C307.914 177.68 306.602 178.412 305.775 179.5C304.949 178.412 303.637 177.68 302.22 177.68C299.769 177.68 297.775 179.642 297.775 182.055C297.775 186.859 304.997 191.358 305.305 191.547C305.449 191.635 305.613 191.68 305.775 191.68C305.938 191.68 306.102 191.635 306.246 191.547C306.554 191.358 313.775 186.859 313.775 182.055C313.775 179.642 311.782 177.68 309.331 177.68Z" fill="#F996A8"/>
<path d="M276.205 181.818V178.039L270.006 184.652L276.205 191.264V187.391C280.633 187.391 283.733 188.903 285.947 192.209C285.062 187.486 282.405 182.762 276.205 181.818Z" fill="white"/>
<path d="M50.8573 115.209L50.1512 119.14H46.2339L46.94 115.209L35.1816 115.209L33.1049 126.769H37.4337V130.622H32.4184L31.1709 137.534C31.0879 137.994 30.6813 138.329 30.2064 138.329H28.2779C27.6684 138.329 27.2069 137.788 27.3134 137.197L28.5001 130.622H21.8294C21.2209 130.622 20.7596 130.082 20.8645 129.493L21.2074 127.566C21.2894 127.105 21.6964 126.769 22.1723 126.769H29.1858L31.2625 115.209H24.5918C23.9833 115.209 23.522 114.669 23.6269 114.079L23.9698 112.153C24.0518 111.692 24.4588 111.355 24.9347 111.355H31.9482L33.1957 104.443C33.2787 103.984 33.6852 103.648 34.1602 103.648H36.0887C36.6981 103.648 37.1597 104.19 37.0531 104.78L35.8665 111.355L47.6247 111.356L48.8722 104.444C48.9552 103.984 49.3617 103.649 49.8367 103.649H51.7652C52.3746 103.649 52.8362 104.19 52.7296 104.781L51.543 111.356H58.2136C58.8222 111.356 59.2834 111.896 59.1785 112.485L58.8357 114.412C58.7537 114.873 58.3466 115.209 57.8708 115.209H50.8573Z" fill="white"/>
<path d="M43.0809 122.839C42.0421 122.839 41.2001 123.668 41.2001 124.689V136.83C41.2001 137.851 42.0421 138.679 43.0809 138.679H44.9617C45.2214 138.679 45.4318 138.886 45.4318 139.142V143.069C45.4318 143.47 45.915 143.681 46.2173 143.412L51.0074 139.157C51.3529 138.849 51.8024 138.679 52.2683 138.679H60.9482C61.987 138.679 62.829 137.851 62.829 136.83V124.689C62.829 123.668 61.987 122.839 60.9482 122.839H43.0809Z" fill="white"/>
<rect x="0.775391" y="87.707" width="223.414" height="63.7975" rx="18.1689" fill="#FFC2CD"/>
<path d="M46.5831 112.461L45.9776 115.811H42.6183L43.2238 112.461L33.1402 112.46L31.3593 122.315H35.0716V125.6H30.7706L29.7008 131.492C29.6296 131.884 29.2809 132.169 28.8736 132.169H27.2198C26.6971 132.169 26.3014 131.708 26.3927 131.205L27.4104 125.6H21.6899C21.168 125.6 20.7725 125.139 20.8624 124.637L21.1564 122.994C21.2268 122.602 21.5758 122.315 21.9839 122.315H27.9984L29.7793 112.46H24.0588C23.5369 112.46 23.1414 112 23.2313 111.497L23.5253 109.855C23.5957 109.462 23.9447 109.175 24.3528 109.175H30.3673L31.4372 103.283C31.5083 102.891 31.857 102.605 32.2643 102.605H33.9181C34.4407 102.605 34.8365 103.067 34.7451 103.57L33.7275 109.175L43.811 109.176L44.8808 103.284C44.952 102.892 45.3006 102.606 45.7079 102.606H47.3617C47.8843 102.606 48.2801 103.068 48.1887 103.571L47.1711 109.176H52.8916C53.4135 109.176 53.8091 109.636 53.7191 110.138L53.4251 111.781C53.3547 112.174 53.0057 112.461 52.5976 112.461H46.5831Z" fill="#A66A74"/>
<path d="M39.9143 118.965C39.0236 118.965 38.3015 119.671 38.3015 120.542V130.892C38.3015 131.762 39.0236 132.468 39.9143 132.468H41.5272C41.75 132.468 41.9304 132.645 41.9304 132.862V136.21C41.9304 136.552 42.3448 136.732 42.604 136.503L46.7118 132.875C47.0082 132.613 47.3936 132.468 47.7931 132.468H55.2367C56.1275 132.468 56.8496 131.762 56.8496 130.892V120.542C56.8496 119.671 56.1275 118.965 55.2367 118.965H39.9143Z" fill="#A66A74"/>
<path d="M65.8027 125.353L70.2716 124.436C70.4721 125.668 71.5893 126.126 72.8211 126.126C74.0243 126.126 74.6832 125.611 74.6832 124.98C74.6832 124.493 74.3108 124.121 73.2508 123.92L70.3289 123.348C67.6648 122.861 66.1465 121.428 66.1465 119.165C66.1465 116.215 68.696 114.295 72.3341 114.295C75.915 114.295 78.2926 115.928 78.8655 118.42L74.6832 119.251C74.5399 118.363 73.6805 117.561 72.2769 117.561C71.0451 117.561 70.644 118.163 70.644 118.678C70.644 119.079 70.8159 119.48 71.7326 119.681L75.1129 120.368C77.8343 120.941 79.0947 122.574 79.0947 124.694C79.0947 127.874 76.3447 129.535 72.5633 129.535C69.183 129.535 66.2897 128.303 65.8027 125.353ZM90.5432 114.295C93.8662 114.295 96.1007 116.673 96.1007 120.282V129.105H91.5459V121.256C91.5459 119.566 90.5432 118.42 89.0536 118.42C87.2775 118.42 86.103 119.652 86.103 122.431V129.105H81.5196V108.48H86.103V116.1C87.2202 114.954 88.7099 114.295 90.5432 114.295ZM106.274 114.353C110.543 114.353 114.152 117.389 114.152 121.915C114.152 126.47 110.543 129.507 106.274 129.507C101.92 129.507 98.3105 126.47 98.3105 121.915C98.3105 117.389 101.92 114.353 106.274 114.353ZM106.274 125.639C108.05 125.639 109.74 124.178 109.74 121.915C109.74 119.681 108.05 118.191 106.274 118.191C104.412 118.191 102.722 119.681 102.722 121.915C102.722 124.178 104.412 125.639 106.274 125.639ZM137.121 114.725L132.509 129.134H128.527L125.948 121.342L123.342 129.134H119.36L114.748 114.725H119.245L121.594 122.459L124.316 114.725H127.553L130.274 122.488L132.623 114.725H137.121ZM145.576 125.525C147.037 125.525 148.212 124.751 148.699 123.004L152.91 123.92C152.194 127.329 149.157 129.535 145.576 129.535C141.28 129.535 137.727 126.47 137.727 121.915C137.727 117.389 141.28 114.295 145.576 114.295C149.071 114.295 152.108 116.444 152.91 119.824L148.613 120.855C148.212 119.108 147.037 118.306 145.576 118.306C143.514 118.306 142.139 119.824 142.139 121.915C142.139 124.035 143.514 125.525 145.576 125.525ZM170.415 114.725V129.105H165.832V127.96C164.715 128.962 163.225 129.535 161.363 129.535C157.553 129.535 154.345 126.47 154.345 121.915C154.345 117.389 157.553 114.295 161.363 114.295C163.225 114.295 164.715 114.868 165.832 115.871V114.725H170.415ZM162.308 125.639C164.17 125.639 165.832 124.15 165.832 121.915C165.832 119.709 164.17 118.191 162.308 118.191C160.303 118.191 158.842 119.709 158.842 121.915C158.842 124.15 160.303 125.639 162.308 125.639ZM172.751 125.353L177.22 124.436C177.421 125.668 178.538 126.126 179.77 126.126C180.973 126.126 181.632 125.611 181.632 124.98C181.632 124.493 181.259 124.121 180.2 123.92L177.278 123.348C174.613 122.861 173.095 121.428 173.095 119.165C173.095 116.215 175.645 114.295 179.283 114.295C182.864 114.295 185.241 115.928 185.814 118.42L181.632 119.251C181.489 118.363 180.629 117.561 179.226 117.561C177.994 117.561 177.593 118.163 177.593 118.678C177.593 119.079 177.765 119.48 178.681 119.681L182.062 120.368C184.783 120.941 186.043 122.574 186.043 124.694C186.043 127.874 183.293 129.535 179.512 129.535C176.132 129.535 173.238 128.303 172.751 125.353ZM202.562 121.915V123.09H192.02C192.393 124.808 193.567 125.868 195.114 125.868C196.174 125.868 197.406 125.611 198.179 124.207L202.247 125.038C201.015 128.074 198.409 129.535 195.114 129.535C190.961 129.535 187.523 126.47 187.523 121.915C187.523 117.389 190.961 114.295 195.143 114.295C199.211 114.295 202.476 117.217 202.562 121.915ZM195.143 118.019C193.854 118.019 192.536 118.821 192.106 120.282H198.036C197.607 118.735 196.461 118.019 195.143 118.019Z" fill="#A66A74"/>
<path d="M309.331 264.68C307.914 264.68 306.602 265.412 305.775 266.5C304.949 265.412 303.637 264.68 302.22 264.68C299.769 264.68 297.775 266.642 297.775 269.055C297.775 273.859 304.997 278.358 305.305 278.547C305.449 278.635 305.613 278.68 305.775 278.68C305.938 278.68 306.102 278.635 306.246 278.547C306.554 278.358 313.775 273.859 313.775 269.055C313.775 266.642 311.782 264.68 309.331 264.68Z" fill="#F996A8"/>
</svg>
