<svg width="342" height="244" viewBox="0 0 342 244" fill="none" xmlns="http://www.w3.org/2000/svg">
<rect x="22.7207" y="70.3047" width="319.14" height="172.999" rx="18.1689" fill="#232439"/>
<path d="M22.4492 18.1689C22.4492 8.13447 30.5837 0 40.6181 0H190.433C200.467 0 208.602 8.13448 208.602 18.1689V27.8837C208.602 37.9181 200.467 46.0526 190.433 46.0526H40.6181C30.5837 46.0526 22.4492 37.9181 22.4492 27.8837V18.1689Z" fill="#232439"/>
<rect x="38.9805" y="105.094" width="207.237" height="30.7017" rx="8.85626" fill="#18192C"/>
<rect x="38.9805" y="148.195" width="207.237" height="30.7017" rx="8.85626" fill="#18192C"/>
<rect x="38.9805" y="191.297" width="207.237" height="30.7017" rx="8.85626" fill="#18192C"/>
<path d="M84.1962 115.488C81.008 115.488 78.5052 117.959 78.5052 121.084C78.5052 124.192 81.008 126.647 84.1962 126.647C87.3845 126.647 89.8873 124.192 89.8873 121.084C89.8873 117.959 87.3845 115.488 84.1962 115.488ZM84.1962 124.24C82.4586 124.24 81.1355 122.901 81.1355 121.084C81.1355 119.251 82.4586 117.896 84.1962 117.896C85.9338 117.896 87.257 119.251 87.257 121.084C87.257 122.901 85.9338 124.24 84.1962 124.24ZM99.3752 118.406H96.8246V122.12C96.8246 123.666 96.171 124.352 95.1667 124.352C94.3537 124.352 93.7958 123.714 93.7958 122.774V118.406H91.2611V123.316C91.2611 125.324 92.5045 126.647 94.3696 126.647C95.3739 126.647 96.2188 126.281 96.8246 125.643V126.408H99.3752V118.406ZM106.535 118.294C105.228 118.294 104.351 118.98 103.778 119.936V118.406H101.227V126.408H103.778V123.905C103.778 121.833 104.75 120.908 106.535 120.908H106.998L107.109 118.358C106.918 118.31 106.759 118.294 106.535 118.294ZM116.896 118.167C115.892 118.167 115.047 118.533 114.441 119.171V118.406H111.891V126.408H114.441V122.694C114.441 121.148 115.095 120.462 116.099 120.462C116.912 120.462 117.47 121.1 117.47 122.04V126.408H120.005V121.498C120.005 119.49 118.762 118.167 116.896 118.167ZM129.588 122.407C129.54 119.793 127.723 118.167 125.459 118.167C123.132 118.167 121.219 119.888 121.219 122.407C121.219 124.942 123.132 126.647 125.444 126.647C127.277 126.647 128.727 125.834 129.413 124.145L127.149 123.682C126.719 124.463 126.033 124.607 125.444 124.607C124.583 124.607 123.929 124.017 123.722 123.061H129.588V122.407ZM125.459 120.239C126.193 120.239 126.83 120.637 127.07 121.498H123.77C124.009 120.685 124.742 120.239 125.459 120.239ZM142.38 118.406H139.878L138.57 122.726L137.056 118.406H135.255L133.74 122.71L132.433 118.406H129.93L132.497 126.424H134.713L136.163 122.088L137.598 126.424H139.814L142.38 118.406ZM149.671 126.408V114.93H147.12V126.408H149.671ZM155.432 118.198C153.009 118.198 151 119.888 151 122.407C151 124.942 153.009 126.631 155.432 126.631C157.807 126.631 159.816 124.942 159.816 122.407C159.816 119.888 157.807 118.198 155.432 118.198ZM155.432 124.479C154.396 124.479 153.455 123.666 153.455 122.407C153.455 121.164 154.396 120.335 155.432 120.335C156.42 120.335 157.361 121.164 157.361 122.407C157.361 123.666 156.42 124.479 155.432 124.479ZM169.373 118.406H166.87V118.932C166.296 118.438 165.499 118.167 164.463 118.167C162.375 118.167 160.605 119.809 160.605 122.024C160.605 124.288 162.375 125.946 164.463 125.946C165.499 125.946 166.296 125.675 166.87 125.181V125.404C166.87 126.663 166.041 127.349 164.878 127.349C164.049 127.349 163.602 127.078 162.996 126.36L160.876 127.508C161.657 128.799 163.06 129.437 164.893 129.437C167.492 129.437 169.373 128.082 169.373 125.611V118.406ZM165.005 123.858C163.889 123.858 163.092 123.092 163.092 122.024C163.092 120.956 163.889 120.207 165.005 120.207C166.025 120.207 166.87 120.956 166.87 122.024C166.87 123.092 166.025 123.858 165.005 123.858ZM175.14 118.198C172.717 118.198 170.709 119.888 170.709 122.407C170.709 124.942 172.717 126.631 175.14 126.631C177.516 126.631 179.524 124.942 179.524 122.407C179.524 119.888 177.516 118.198 175.14 118.198ZM175.14 124.479C174.104 124.479 173.164 123.666 173.164 122.407C173.164 121.164 174.104 120.335 175.14 120.335C176.129 120.335 177.069 121.164 177.069 122.407C177.069 123.666 176.129 124.479 175.14 124.479ZM183.709 115.728H180.872V116.222L181.031 122.758H183.55L183.709 116.222V115.728ZM182.322 123.666C181.462 123.666 180.856 124.32 180.856 125.085C180.856 125.882 181.462 126.488 182.322 126.488C183.167 126.488 183.773 125.882 183.773 125.085C183.773 124.32 183.167 123.666 182.322 123.666Z" fill="#C3C4D9"/>
<path d="M91.1945 158.827H88.6279L85.0411 165.602L81.4543 158.827H78.8719V169.508H81.4225V163.785L84.4354 169.508H85.6469L88.6439 163.817V169.508H91.1945V158.827ZM101.631 161.489H98.8889L96.8643 166.16L94.9673 161.489H92.2254L95.5412 169.237L94.25 172.218H97.0078L101.631 161.489ZM108.915 169.508V158.03H106.364V169.508H108.915ZM119.187 161.505H116.636V162.143C116.015 161.585 115.186 161.266 114.15 161.266C112.029 161.266 110.244 162.988 110.244 165.507C110.244 168.041 112.029 169.747 114.15 169.747C115.186 169.747 116.015 169.428 116.636 168.87V169.508H119.187V161.505ZM114.676 167.579C113.56 167.579 112.747 166.75 112.747 165.507C112.747 164.279 113.56 163.434 114.676 163.434C115.712 163.434 116.636 164.279 116.636 165.507C116.636 166.75 115.712 167.579 114.676 167.579ZM126.369 167.149C126.035 167.34 125.556 167.467 125.206 167.467C124.536 167.467 124.138 167.133 124.138 166.304V163.53H126.497V161.505H124.138V159.146H121.587V161.505H120.136V163.53H121.587V166.559C121.587 168.663 122.783 169.747 124.775 169.747C125.684 169.747 126.337 169.492 126.959 169.157L126.369 167.149ZM135.613 165.507C135.565 162.892 133.748 161.266 131.484 161.266C129.157 161.266 127.244 162.988 127.244 165.507C127.244 168.041 129.157 169.747 131.468 169.747C133.301 169.747 134.752 168.934 135.438 167.244L133.174 166.782C132.744 167.563 132.058 167.706 131.468 167.706C130.607 167.706 129.954 167.117 129.747 166.16H135.613V165.507ZM131.484 163.339C132.217 163.339 132.855 163.737 133.094 164.598H129.794C130.034 163.785 130.767 163.339 131.484 163.339ZM136.397 167.42C136.668 169.061 138.278 169.747 140.159 169.747C142.264 169.747 143.794 168.822 143.794 167.053C143.794 165.873 143.093 164.965 141.578 164.646L139.697 164.263C139.187 164.152 139.091 163.928 139.091 163.705C139.091 163.418 139.314 163.083 140 163.083C140.781 163.083 141.259 163.53 141.339 164.024L143.666 163.562C143.348 162.175 142.024 161.266 140.032 161.266C138.007 161.266 136.588 162.334 136.588 163.976C136.588 165.236 137.433 166.033 138.916 166.304L140.542 166.622C141.132 166.734 141.339 166.941 141.339 167.212C141.339 167.563 140.972 167.85 140.303 167.85C139.617 167.85 138.996 167.595 138.884 166.909L136.397 167.42ZM150.484 167.149C150.149 167.34 149.671 167.467 149.32 167.467C148.65 167.467 148.252 167.133 148.252 166.304V163.53H150.611V161.505H148.252V159.146H145.701V161.505H144.251V163.53H145.701V166.559C145.701 168.663 146.897 169.747 148.89 169.747C149.798 169.747 150.452 169.492 151.073 169.157L150.484 167.149ZM164.162 161.505H161.611V162.143C160.99 161.585 160.161 161.266 159.124 161.266C157.004 161.266 155.219 162.988 155.219 165.507C155.219 168.041 157.004 169.747 159.124 169.747C160.161 169.747 160.99 169.428 161.611 168.87V169.508H164.162V161.505ZM159.651 167.579C158.535 167.579 157.722 166.75 157.722 165.507C157.722 164.279 158.535 163.434 159.651 163.434C160.687 163.434 161.611 164.279 161.611 165.507C161.611 166.75 160.687 167.579 159.651 167.579ZM171.312 161.394C170.005 161.394 169.128 162.079 168.555 163.036V161.505H166.004V169.508H168.555V167.005C168.555 164.933 169.527 164.008 171.312 164.008H171.775L171.886 161.457C171.695 161.41 171.536 161.394 171.312 161.394ZM178.459 167.149C178.124 167.34 177.646 167.467 177.295 167.467C176.625 167.467 176.227 167.133 176.227 166.304V163.53H178.586V161.505H176.227V159.146H173.676V161.505H172.226V163.53H173.676V166.559C173.676 168.663 174.872 169.747 176.865 169.747C177.773 169.747 178.427 169.492 179.049 169.157L178.459 167.149ZM191.652 161.505H189.149L187.842 165.825L186.328 161.505H184.526L183.012 165.809L181.705 161.505H179.202L181.768 169.524H183.984L185.435 165.188L186.87 169.524H189.085L191.652 161.505ZM196.421 161.298C193.998 161.298 191.99 162.988 191.99 165.507C191.99 168.041 193.998 169.731 196.421 169.731C198.797 169.731 200.805 168.041 200.805 165.507C200.805 162.988 198.797 161.298 196.421 161.298ZM196.421 167.579C195.385 167.579 194.445 166.766 194.445 165.507C194.445 164.263 195.385 163.434 196.421 163.434C197.41 163.434 198.35 164.263 198.35 165.507C198.35 166.766 197.41 167.579 196.421 167.579ZM207.429 161.394C206.122 161.394 205.245 162.079 204.672 163.036V161.505H202.121V169.508H204.672V167.005C204.672 164.933 205.644 164.008 207.429 164.008H207.892L208.003 161.457C207.812 161.41 207.653 161.394 207.429 161.394ZM217.959 169.508L214.085 165.315L217.592 161.505H214.516L211.981 164.231H211.63V158.03H209.08V169.508H211.63V166.622H212.093L214.691 169.508H217.959Z" fill="#C3C4D9"/>
<path d="M78.8719 201.929V212.609H83.0963C86.6193 212.609 88.9467 210.441 88.9467 207.269C88.9467 204.097 86.6193 201.929 83.0963 201.929H78.8719ZM81.5022 210.33V204.208H83.0006C84.9933 204.208 86.3005 205.42 86.3005 207.269C86.3005 209.118 84.9933 210.33 83.0006 210.33H81.5022ZM98.84 204.607H96.2894V205.245C95.6677 204.687 94.8388 204.368 93.8026 204.368C91.6824 204.368 89.897 206.089 89.897 208.608C89.897 211.143 91.6824 212.848 93.8026 212.848C94.8388 212.848 95.6677 212.53 96.2894 211.972V212.609H98.84V204.607ZM94.3287 210.68C93.2128 210.68 92.3998 209.852 92.3998 208.608C92.3998 207.381 93.2128 206.536 94.3287 206.536C95.3649 206.536 96.2894 207.381 96.2894 208.608C96.2894 209.852 95.3649 210.68 94.3287 210.68ZM100.14 210.521C100.411 212.163 102.021 212.848 103.902 212.848C106.007 212.848 107.537 211.924 107.537 210.154C107.537 208.975 106.835 208.066 105.321 207.747L103.44 207.365C102.93 207.253 102.834 207.03 102.834 206.807C102.834 206.52 103.057 206.185 103.743 206.185C104.524 206.185 105.002 206.631 105.082 207.126L107.409 206.663C107.091 205.276 105.767 204.368 103.775 204.368C101.75 204.368 100.331 205.436 100.331 207.078C100.331 208.337 101.176 209.134 102.659 209.405L104.285 209.724C104.875 209.836 105.082 210.043 105.082 210.314C105.082 210.665 104.715 210.951 104.046 210.951C103.36 210.951 102.739 210.696 102.627 210.011L100.14 210.521ZM113.908 204.368C112.888 204.368 112.059 204.734 111.437 205.372V201.132H108.886V212.609H111.437V208.895C111.437 207.349 112.09 206.663 113.079 206.663C113.908 206.663 114.466 207.301 114.466 208.241V212.609H117V207.699C117 205.691 115.757 204.368 113.908 204.368ZM123.794 204.368C122.757 204.368 121.928 204.687 121.307 205.245V201.132H118.756V212.609H121.307V211.972C121.928 212.53 122.757 212.848 123.794 212.848C125.914 212.848 127.699 211.143 127.699 208.608C127.699 206.089 125.914 204.368 123.794 204.368ZM123.268 210.68C122.231 210.68 121.307 209.852 121.307 208.608C121.307 207.381 122.231 206.536 123.268 206.536C124.383 206.536 125.196 207.381 125.196 208.608C125.196 209.852 124.383 210.68 123.268 210.68ZM132.921 204.4C130.498 204.4 128.489 206.089 128.489 208.608C128.489 211.143 130.498 212.833 132.921 212.833C135.296 212.833 137.305 211.143 137.305 208.608C137.305 206.089 135.296 204.4 132.921 204.4ZM132.921 210.68C131.885 210.68 130.944 209.867 130.944 208.608C130.944 207.365 131.885 206.536 132.921 206.536C133.909 206.536 134.85 207.365 134.85 208.608C134.85 209.867 133.909 210.68 132.921 210.68ZM147.037 204.607H144.487V205.245C143.865 204.687 143.036 204.368 142 204.368C139.88 204.368 138.094 206.089 138.094 208.608C138.094 211.143 139.88 212.848 142 212.848C143.036 212.848 143.865 212.53 144.487 211.972V212.609H147.037V204.607ZM142.526 210.68C141.41 210.68 140.597 209.852 140.597 208.608C140.597 207.381 141.41 206.536 142.526 206.536C143.562 206.536 144.487 207.381 144.487 208.608C144.487 209.852 143.562 210.68 142.526 210.68ZM154.188 204.495C152.881 204.495 152.004 205.181 151.43 206.137V204.607H148.88V212.609H151.43V210.107C151.43 208.034 152.403 207.11 154.188 207.11H154.65L154.762 204.559C154.571 204.511 154.411 204.495 154.188 204.495ZM164.146 201.132H161.596V205.245C160.974 204.687 160.145 204.368 159.109 204.368C156.989 204.368 155.203 206.089 155.203 208.608C155.203 211.143 156.989 212.848 159.109 212.848C160.145 212.848 160.974 212.53 161.596 211.972V212.609H164.146V201.132ZM159.635 210.68C158.519 210.68 157.706 209.852 157.706 208.608C157.706 207.381 158.519 206.536 159.635 206.536C160.671 206.536 161.596 207.381 161.596 208.608C161.596 209.852 160.671 210.68 159.635 210.68ZM179.242 201.929H176.612V207.795C176.612 209.421 175.767 210.425 174.508 210.425C173.169 210.425 172.292 209.421 172.292 207.795V201.929H169.662V207.795C169.662 210.856 171.606 212.848 174.508 212.848C177.345 212.848 179.242 210.856 179.242 207.795V201.929ZM183.688 212.609V201.929H181.058V212.609H183.688ZM197.759 213.056L199.242 211.414L197.807 210.17C198.142 209.453 198.333 208.608 198.333 207.604V206.886H196.022V207.604C196.022 207.939 195.99 208.257 195.926 208.528L193.662 206.568C192.754 205.755 192.467 205.308 192.467 204.734C192.467 204.081 192.929 203.73 193.551 203.73C194.236 203.73 194.667 204.097 194.746 205.133L197.106 204.718C196.85 202.981 195.719 201.69 193.551 201.69C191.51 201.69 190.012 202.901 190.012 204.671C190.012 205.436 190.251 206.105 190.761 206.775C189.661 207.381 188.96 208.305 188.96 209.501C188.96 211.525 190.697 212.848 193.216 212.848C194.364 212.848 195.495 212.53 196.404 211.86L197.759 213.056ZM193.312 210.792C192.18 210.792 191.462 210.218 191.462 209.405C191.462 208.943 191.749 208.528 192.228 208.226L194.698 210.378C194.252 210.665 193.758 210.792 193.312 210.792ZM213.631 201.929H211.001V207.795C211.001 209.421 210.156 210.425 208.897 210.425C207.558 210.425 206.681 209.421 206.681 207.795V201.929H204.051V207.795C204.051 210.856 205.995 212.848 208.897 212.848C211.734 212.848 213.631 210.856 213.631 207.795V201.929ZM222.19 212.609H225.299L221.951 207.253L225.267 201.929H222.158L219.958 205.531L217.774 201.929H214.666L217.982 207.253L214.634 212.609H217.742L219.958 208.975L222.19 212.609Z" fill="#C3C4D9"/>
<circle cx="60.2344" cy="206.646" r="10.0371" fill="#F14766"/>
<circle cx="60.2344" cy="120.445" r="10.0371" fill="#F14766"/>
<circle cx="60.2344" cy="163.545" r="10.0371" fill="#F14766"/>
<rect x="260.977" y="105.094" width="62.5843" height="30.7017" rx="8.85626" fill="#18192C"/>
<rect x="260.977" y="148.195" width="62.5843" height="30.7017" rx="8.85626" fill="#18192C"/>
<rect x="260.977" y="191.297" width="62.5843" height="30.7017" rx="8.85626" fill="#18192C"/>
<path d="M276.031 203.341V199.562L269.832 206.175L276.031 212.788V208.915C280.46 208.915 283.559 210.426 285.773 213.733C284.888 209.009 282.231 204.286 276.031 203.341Z" fill="#9495B5"/>
<path d="M309.157 157C307.74 157 306.428 157.732 305.602 158.82C304.775 157.732 303.463 157 302.046 157C299.595 157 297.602 158.963 297.602 161.375C297.602 166.18 304.823 170.678 305.131 170.867C305.275 170.955 305.439 171 305.602 171C305.764 171 305.928 170.955 306.072 170.867C306.38 170.678 313.602 166.18 313.602 161.375C313.602 158.963 311.608 157 309.157 157Z" fill="#9395B5"/>
<path d="M276.031 160.24V156.461L269.832 163.074L276.031 169.686V165.813C280.46 165.813 283.559 167.325 285.773 170.631C284.888 165.908 282.231 161.184 276.031 160.24Z" fill="#9495B5"/>
<path d="M309.157 113C307.74 113 306.428 113.732 305.602 114.82C304.775 113.732 303.463 113 302.046 113C299.595 113 297.602 114.963 297.602 117.375C297.602 122.18 304.823 126.678 305.131 126.867C305.275 126.955 305.439 127 305.602 127C305.764 127 305.928 126.955 306.072 126.867C306.38 126.678 313.602 122.18 313.602 117.375C313.602 114.963 311.608 113 309.157 113Z" fill="#F14766"/>
<path d="M276.031 117.138V113.359L269.832 119.972L276.031 126.585V122.712C280.46 122.712 283.559 124.223 285.773 127.529C284.888 122.806 282.231 118.083 276.031 117.138Z" fill="#9495B5"/>
<path d="M50.6834 50.5294L49.9774 54.4599H46.0601L46.7662 50.5294L35.0078 50.5289L32.9311 62.0891H37.2599V65.9425H32.2446L30.9971 72.8543C30.914 73.3142 30.5075 73.6493 30.0326 73.6493H28.104C27.4945 73.6493 27.033 73.1079 27.1396 72.5175L28.3263 65.9425H21.6556C21.0471 65.9425 20.5858 65.4026 20.6907 64.8131L21.0336 62.8864C21.1156 62.4255 21.5226 62.0891 21.9985 62.0891H29.012L31.0887 50.5289H24.418C23.8095 50.5289 23.3482 49.989 23.4531 49.3995L23.7959 47.4728C23.878 47.0119 24.285 46.6755 24.7609 46.6755H31.7744L33.0219 39.7637C33.1049 39.3038 33.5114 38.9688 33.9863 38.9688H35.9149C36.5243 38.9688 36.9858 39.5103 36.8793 40.1005L35.6926 46.6755L47.4509 46.676L48.6984 39.7642C48.7814 39.3043 49.1879 38.9692 49.6629 38.9692H51.5914C52.2008 38.9692 52.6623 39.5108 52.5558 40.101L51.3691 46.676H58.0398C58.6483 46.676 59.1096 47.216 59.0047 47.8054L58.6619 49.7321C58.5798 50.1931 58.1728 50.5294 57.6969 50.5294H50.6834Z" fill="white"/>
<path d="M42.9071 58.1598C41.8683 58.1598 41.0263 58.9879 41.0263 60.0094V72.1502C41.0263 73.1717 41.8683 73.9998 42.9071 73.9998H44.7878C45.0476 73.9998 45.258 74.2067 45.258 74.4622V78.3896C45.258 78.7903 45.7411 79.0015 46.0434 78.7327L50.8335 74.4768C51.1791 74.1697 51.6285 73.9998 52.0944 73.9998H60.7744C61.8131 73.9998 62.6552 73.1717 62.6552 72.1502V60.0094C62.6552 58.9879 61.8131 58.1598 60.7744 58.1598H42.9071Z" fill="white"/>
<rect x="0.601562" y="23.0273" width="231.414" height="65.7975" rx="18.1689" fill="#2F3150"/>
<path d="M46.4093 48.7812L45.8038 52.1318H42.4444L43.0499 48.7812L32.9664 48.7808L31.1855 58.6355H34.8977V61.9204H30.5967L29.5269 67.8125C29.4557 68.2045 29.1071 68.4902 28.6998 68.4902H27.046C26.5233 68.4902 26.1275 68.0286 26.2189 67.5254L27.2366 61.9204H21.5161C20.9942 61.9204 20.5986 61.4602 20.6886 60.9576L20.9826 59.3151C21.0529 58.9223 21.402 58.6355 21.8101 58.6355H27.8246L29.6055 48.7808H23.885C23.3631 48.7808 22.9675 48.3206 23.0575 47.818L23.3515 46.1756C23.4219 45.7826 23.7709 45.4959 24.179 45.4959H30.1935L31.2633 39.6039C31.3345 39.2118 31.6831 38.9261 32.0904 38.9261H33.7443C34.2669 38.9261 34.6627 39.3878 34.5713 39.8909L33.5537 45.4959L43.6371 45.4964L44.7069 39.6043C44.7781 39.2122 45.1267 38.9266 45.534 38.9266H47.1879C47.7105 38.9266 48.1063 39.3882 48.0149 39.8913L46.9973 45.4964H52.7178C53.2397 45.4964 53.6352 45.9566 53.5453 46.4591L53.2513 48.1016C53.1809 48.4945 52.8319 48.7812 52.4238 48.7812H46.4093Z" fill="white"/>
<path d="M39.7405 55.2859C38.8497 55.2859 38.1276 55.9918 38.1276 56.8626V67.2122C38.1276 68.083 38.8497 68.789 39.7405 68.789H41.3534C41.5762 68.789 41.7566 68.9654 41.7566 69.1831V72.5311C41.7566 72.8727 42.1709 73.0528 42.4302 72.8236L46.538 69.1956C46.8343 68.9338 47.2198 68.789 47.6193 68.789H55.0629C55.9537 68.789 56.6758 68.083 56.6758 67.2122V56.8626C56.6758 55.9918 55.9537 55.2859 55.0629 55.2859H39.7405Z" fill="white"/>
<path d="M65.6686 61.4582C66.1835 64.578 69.2428 65.8805 72.817 65.8805C76.8153 65.8805 79.7231 64.1237 79.7231 60.7615C79.7231 58.5201 78.3903 56.7936 75.5128 56.1878L71.9386 55.4608C70.9693 55.2488 70.7876 54.8247 70.7876 54.4007C70.7876 53.8554 71.2116 53.2194 72.5141 53.2194C73.9983 53.2194 74.907 54.0675 75.0584 55.0065L79.4808 54.1281C78.875 51.4928 76.3609 49.7663 72.5747 49.7663C68.7279 49.7663 66.0321 51.7957 66.0321 54.9156C66.0321 57.3085 67.6374 58.823 70.4544 59.3379L73.544 59.9437C74.6647 60.1557 75.0584 60.5495 75.0584 61.0644C75.0584 61.7308 74.3618 62.276 73.0896 62.276C71.7871 62.276 70.6058 61.7914 70.3938 60.4889L65.6686 61.4582ZM91.8283 49.7663C89.8898 49.7663 88.3147 50.463 87.1334 51.6746V43.6175H82.2871V65.4261H87.1334V58.3686C87.1334 55.4305 88.3753 54.1281 90.2533 54.1281C91.8283 54.1281 92.8885 55.3396 92.8885 57.1267V65.4261H97.7046V56.0969C97.7046 52.2804 95.342 49.7663 91.8283 49.7663ZM108.462 49.8269C103.858 49.8269 100.041 53.0376 100.041 57.8234C100.041 62.6395 103.858 65.8502 108.462 65.8502C112.975 65.8502 116.791 62.6395 116.791 57.8234C116.791 53.0376 112.975 49.8269 108.462 49.8269ZM108.462 61.7611C106.493 61.7611 104.706 60.2163 104.706 57.8234C104.706 55.4608 106.493 53.8857 108.462 53.8857C110.34 53.8857 112.127 55.4608 112.127 57.8234C112.127 60.2163 110.34 61.7611 108.462 61.7611ZM141.078 50.2207H136.322L133.838 58.4292L130.961 50.2207H127.538L124.661 58.3989L122.177 50.2207H117.421L122.298 65.4564H126.508L129.265 57.2176L131.991 65.4564H136.201L141.078 50.2207ZM150.019 61.6399C147.838 61.6399 146.384 60.0649 146.384 57.8234C146.384 55.6123 147.838 54.0069 150.019 54.0069C151.563 54.0069 152.805 54.855 153.229 56.7027L157.773 55.6123C156.925 52.0381 153.714 49.7663 150.019 49.7663C145.475 49.7663 141.719 53.0376 141.719 57.8234C141.719 62.6395 145.475 65.8805 150.019 65.8805C153.805 65.8805 157.016 63.5482 157.773 59.9437L153.32 58.9744C152.805 60.8221 151.563 61.6399 150.019 61.6399ZM176.282 50.2207H171.436V51.4323C170.255 50.3721 168.679 49.7663 166.711 49.7663C162.682 49.7663 159.29 53.0376 159.29 57.8234C159.29 62.6395 162.682 65.8805 166.711 65.8805C168.679 65.8805 170.255 65.2747 171.436 64.2146V65.4261H176.282V50.2207ZM167.71 61.7611C165.59 61.7611 164.045 60.186 164.045 57.8234C164.045 55.4911 165.59 53.8857 167.71 53.8857C169.679 53.8857 171.436 55.4911 171.436 57.8234C171.436 60.186 169.679 61.7611 167.71 61.7611ZM178.752 61.4582C179.267 64.578 182.327 65.8805 185.901 65.8805C189.899 65.8805 192.807 64.1237 192.807 60.7615C192.807 58.5201 191.474 56.7936 188.597 56.1878L185.022 55.4608C184.053 55.2488 183.871 54.8247 183.871 54.4007C183.871 53.8554 184.296 53.2194 185.598 53.2194C187.082 53.2194 187.991 54.0675 188.142 55.0065L192.565 54.1281C191.959 51.4928 189.445 49.7663 185.659 49.7663C181.812 49.7663 179.116 51.7957 179.116 54.9156C179.116 57.3085 180.721 58.823 183.538 59.3379L186.628 59.9437C187.749 60.1557 188.142 60.5495 188.142 61.0644C188.142 61.7308 187.446 62.276 186.173 62.276C184.871 62.276 183.69 61.7914 183.478 60.4889L178.752 61.4582ZM210.274 57.8234C210.183 52.8559 206.73 49.7663 202.428 49.7663C198.006 49.7663 194.371 53.0376 194.371 57.8234C194.371 62.6395 198.006 65.8805 202.398 65.8805C205.881 65.8805 208.638 64.3357 209.94 61.125L205.639 60.2466C204.821 61.7308 203.519 62.0034 202.398 62.0034C200.763 62.0034 199.521 60.8827 199.127 59.0653H210.274V57.8234ZM202.428 53.704C203.822 53.704 205.033 54.4612 205.488 56.0969H199.218C199.672 54.5521 201.065 53.704 202.428 53.704Z" fill="white"/>
<path d="M309.157 200C307.74 200 306.428 200.732 305.602 201.82C304.775 200.732 303.463 200 302.046 200C299.595 200 297.602 201.963 297.602 204.375C297.602 209.18 304.823 213.678 305.131 213.867C305.275 213.955 305.439 214 305.602 214C305.764 214 305.928 213.955 306.072 213.867C306.38 213.678 313.602 209.18 313.602 204.375C313.602 201.963 311.608 200 309.157 200Z" fill="#9395B5"/>
</svg>
