<svg width="342" height="374" viewBox="0 0 342 374" fill="none" xmlns="http://www.w3.org/2000/svg">
<rect x="22.6357" y="134.984" width="319.14" height="172.999" rx="18.1689" fill="#191A34"/>
<path d="M22.3643 82.8485C22.3643 72.8142 30.4987 64.6797 40.5331 64.6797H180.59C190.624 64.6797 198.759 72.8142 198.759 82.8486V92.5634C198.759 102.598 190.624 110.732 180.59 110.732H40.5331C30.4987 110.732 22.3643 102.598 22.3643 92.5634V82.8485Z" fill="#191A34"/>
<rect x="38.8955" y="169.773" width="207.237" height="30.7017" rx="8.85626" fill="#101126"/>
<rect x="38.8955" y="212.875" width="207.237" height="30.7017" rx="8.85626" fill="#101126"/>
<rect x="38.8955" y="255.977" width="207.237" height="30.7017" rx="8.85626" fill="#101126"/>
<path d="M84.2707 180.2C87.3633 180.2 89.7864 182.655 89.7864 185.748C89.7864 188.856 87.3633 191.295 84.2707 191.295C81.1621 191.295 78.7391 188.856 78.7391 185.748C78.7391 182.655 81.1621 180.2 84.2707 180.2ZM84.2707 190.1C86.6459 190.1 88.5111 188.218 88.5111 185.748C88.5111 183.293 86.6459 181.38 84.2707 181.38C81.8795 181.38 80.0144 183.293 80.0144 185.748C80.0144 188.218 81.8795 190.1 84.2707 190.1ZM99.2194 183.229V191.072H97.9919V189.797C97.3542 190.737 96.334 191.279 95.0268 191.279C93.1298 191.279 91.8704 189.924 91.8704 187.932V183.229H93.0979V187.708C93.0979 189.175 93.9588 190.147 95.2659 190.147C96.9079 190.147 97.9919 189.047 97.9919 187.007V183.229H99.2194ZM106.393 183.149C106.585 183.149 106.728 183.149 106.951 183.213L106.856 184.377C106.712 184.361 106.537 184.361 106.393 184.361C104.305 184.361 103.237 185.939 103.237 188.059V191.088H102.009V183.229H103.237V185.158C103.875 183.994 104.943 183.149 106.393 183.149ZM116.772 183.038C118.669 183.038 119.928 184.393 119.928 186.385V191.088H118.717V186.608C118.717 185.142 117.84 184.153 116.533 184.153C114.891 184.153 113.807 185.269 113.807 187.31V191.088H112.595V183.229H113.807V184.536C114.445 183.58 115.449 183.038 116.772 183.038ZM129.749 186.959V187.405H123.005C123.117 189.175 124.456 190.227 125.811 190.227C126.927 190.227 127.931 189.797 128.489 188.537L129.573 188.792C128.952 190.434 127.581 191.295 125.811 191.295C123.723 191.295 121.826 189.685 121.826 187.182C121.826 184.664 123.723 183.038 125.891 183.038C128.011 183.038 129.669 184.616 129.749 186.959ZM125.891 184.106C124.616 184.106 123.292 184.951 123.053 186.497H128.521C128.298 184.951 127.198 184.106 125.891 184.106ZM142.359 183.229L139.713 191.12H138.581L136.525 185.158L134.453 191.12H133.321L130.674 183.229H131.902L133.927 189.318L136.031 183.229H137.003L139.107 189.318L141.132 183.229H142.359ZM149.27 191.088H148.059V179.61H149.27V191.088ZM155.534 183.053C157.846 183.053 159.695 184.743 159.695 187.15C159.695 189.558 157.846 191.279 155.534 191.279C153.191 191.279 151.358 189.558 151.358 187.15C151.358 184.743 153.191 183.053 155.534 183.053ZM155.534 190.211C157.144 190.211 158.499 188.968 158.499 187.15C158.499 185.349 157.144 184.122 155.534 184.122C153.908 184.122 152.537 185.349 152.537 187.15C152.537 188.968 153.908 190.211 155.534 190.211ZM169.059 183.229L169.075 190.45C169.059 192.746 167.497 194.117 165.121 194.117C163.177 194.117 161.885 193.352 161.28 192.076L162.3 191.375C162.858 192.427 163.655 193.017 165.121 193.017C166.779 193.017 167.879 191.965 167.879 190.291V189.334C167.242 190.163 166.237 190.626 164.93 190.626C162.858 190.626 161.056 189.047 161.056 186.816C161.056 184.6 162.858 183.038 164.93 183.038C166.237 183.038 167.242 183.5 167.879 184.313V183.229H169.059ZM165.105 189.573C166.572 189.573 167.879 188.489 167.879 186.816C167.879 185.142 166.572 184.09 165.105 184.09C163.511 184.09 162.236 185.142 162.236 186.816C162.236 188.489 163.511 189.573 165.105 189.573ZM175.321 183.053C177.632 183.053 179.481 184.743 179.481 187.15C179.481 189.558 177.632 191.279 175.321 191.279C172.977 191.279 171.144 189.558 171.144 187.15C171.144 184.743 172.977 183.053 175.321 183.053ZM175.321 190.211C176.931 190.211 178.286 188.968 178.286 187.15C178.286 185.349 176.931 184.122 175.321 184.122C173.695 184.122 172.324 185.349 172.324 187.15C172.324 188.968 173.695 190.211 175.321 190.211ZM182.979 180.407V180.901L182.931 187.916H181.688L181.656 180.901V180.407H182.979ZM182.309 189.526C182.788 189.526 183.138 189.908 183.138 190.339C183.138 190.785 182.788 191.136 182.309 191.136C181.831 191.136 181.48 190.785 181.48 190.339C181.48 189.908 181.831 189.526 182.309 189.526Z" fill="#C3C4D9"/>
<path d="M90.7747 223.507V234.188H89.5632V226.185L85.3547 234.188H84.7011L80.4767 226.185V234.188H79.2651V223.507H80.3651L85.0199 232.306L89.6748 223.507H90.7747ZM100.873 226.328L96.0583 236.898H94.7033L95.9945 234.076L92.4715 226.328H93.8424L96.6481 232.609L99.5175 226.328H100.873ZM107.798 234.188H106.586V222.71H107.798V234.188ZM118.063 226.328V234.188H116.852V232.944C116.15 233.869 115.034 234.395 113.727 234.395C111.639 234.395 109.806 232.753 109.806 230.266C109.806 227.779 111.639 226.137 113.727 226.137C115.034 226.137 116.15 226.663 116.852 227.588V226.328H118.063ZM113.919 233.311C115.401 233.311 116.852 232.131 116.852 230.266C116.852 228.385 115.401 227.205 113.919 227.205C112.293 227.205 110.985 228.385 110.985 230.266C110.985 232.131 112.293 233.311 113.919 233.311ZM125.182 232.769L125.581 233.773C124.943 234.219 124.401 234.395 123.763 234.395C122.201 234.395 121.165 233.47 121.165 231.733V227.349H119.459V226.328H121.165V223.826H122.392V226.328H125.198V227.349H122.392V231.653C122.392 232.673 122.966 233.247 123.843 233.247C124.289 233.247 124.783 233.056 125.182 232.769ZM134.108 230.059V230.505H127.364C127.476 232.275 128.815 233.327 130.17 233.327C131.286 233.327 132.29 232.896 132.848 231.637L133.932 231.892C133.311 233.534 131.94 234.395 130.17 234.395C128.082 234.395 126.185 232.785 126.185 230.282C126.185 227.763 128.082 226.137 130.25 226.137C132.37 226.137 134.028 227.715 134.108 230.059ZM130.25 227.205C128.975 227.205 127.651 228.05 127.412 229.596H132.88C132.657 228.05 131.557 227.205 130.25 227.205ZM135.526 232.067L136.738 231.796C136.85 232.832 137.806 233.39 139.05 233.39C140.181 233.39 140.931 232.864 140.931 232.051C140.931 231.398 140.436 231.095 139.639 230.92L137.838 230.521C136.531 230.25 135.797 229.596 135.797 228.512C135.797 227.094 136.977 226.137 138.779 226.137C140.548 226.137 141.696 227.046 141.983 228.321L140.819 228.576C140.66 227.715 139.91 227.126 138.747 227.126C137.631 227.126 137.009 227.668 137.009 228.417C137.009 229.038 137.439 229.325 138.205 229.501L140.102 229.915C141.249 230.17 142.126 230.776 142.126 231.972C142.126 233.518 140.835 234.395 138.954 234.395C137.153 234.395 135.718 233.598 135.526 232.067ZM148.58 232.769L148.979 233.773C148.341 234.219 147.799 234.395 147.161 234.395C145.599 234.395 144.563 233.47 144.563 231.733V227.349H142.857V226.328H144.563V223.826H145.79V226.328H148.596V227.349H145.79V231.653C145.79 232.673 146.364 233.247 147.241 233.247C147.687 233.247 148.182 233.056 148.58 232.769ZM162.011 226.328V234.188H160.799V232.944C160.098 233.869 158.982 234.395 157.675 234.395C155.586 234.395 153.753 232.753 153.753 230.266C153.753 227.779 155.586 226.137 157.675 226.137C158.982 226.137 160.098 226.663 160.799 227.588V226.328H162.011ZM157.866 233.311C159.349 233.311 160.799 232.131 160.799 230.266C160.799 228.385 159.349 227.205 157.866 227.205C156.24 227.205 154.933 228.385 154.933 230.266C154.933 232.131 156.24 233.311 157.866 233.311ZM169.193 226.249C169.385 226.249 169.528 226.249 169.751 226.313L169.656 227.476C169.512 227.46 169.337 227.46 169.193 227.46C167.105 227.46 166.037 229.038 166.037 231.159V234.188H164.809V226.328H166.037V228.257C166.674 227.094 167.743 226.249 169.193 226.249ZM175.855 232.769L176.253 233.773C175.616 234.219 175.074 234.395 174.436 234.395C172.874 234.395 171.837 233.47 171.837 231.733V227.349H170.132V226.328H171.837V223.826H173.065V226.328H175.871V227.349H173.065V231.653C173.065 232.673 173.639 233.247 174.516 233.247C174.962 233.247 175.456 233.056 175.855 232.769ZM188.377 226.328L185.731 234.219H184.599L182.543 228.257L180.471 234.219H179.339L176.692 226.328H177.92L179.944 232.418L182.049 226.328H183.021L185.125 232.418L187.15 226.328H188.377ZM193.473 226.153C195.784 226.153 197.633 227.843 197.633 230.25C197.633 232.657 195.784 234.379 193.473 234.379C191.129 234.379 189.296 232.657 189.296 230.25C189.296 227.843 191.129 226.153 193.473 226.153ZM193.473 233.311C195.083 233.311 196.438 232.067 196.438 230.25C196.438 228.449 195.083 227.221 193.473 227.221C191.847 227.221 190.476 228.449 190.476 230.25C190.476 232.067 191.847 233.311 193.473 233.311ZM204.096 226.249C204.287 226.249 204.431 226.249 204.654 226.313L204.558 227.476C204.415 227.46 204.239 227.46 204.096 227.46C202.008 227.46 200.94 229.038 200.94 231.159V234.188H199.712V226.328H200.94V228.257C201.577 227.094 202.645 226.249 204.096 226.249ZM213.949 234.188H212.26L208.019 230.712H207.493V234.188H206.282V222.71H207.493V229.517H208.083L211.861 226.328H213.439L208.976 230.138L213.949 234.188Z" fill="#C3C4D9"/>
<path d="M79.2651 266.608H82.8041C86.5503 266.608 88.7183 268.92 88.7183 271.949C88.7183 274.962 86.5503 277.289 82.8041 277.289H79.2651V266.608ZM80.5245 276.141H82.7882C85.7851 276.141 87.443 274.308 87.443 271.949C87.443 269.573 85.7851 267.74 82.7882 267.74H80.5245V276.141ZM98.4637 269.43V277.289H97.2521V276.046C96.5507 276.97 95.4348 277.496 94.1276 277.496C92.0393 277.496 90.2061 275.854 90.2061 273.368C90.2061 270.881 92.0393 269.239 94.1276 269.239C95.4348 269.239 96.5507 269.765 97.2521 270.689V269.43H98.4637ZM94.3189 276.412C95.8015 276.412 97.2521 275.233 97.2521 273.368C97.2521 271.486 95.8015 270.307 94.3189 270.307C92.6929 270.307 91.3857 271.486 91.3857 273.368C91.3857 275.233 92.6929 276.412 94.3189 276.412ZM100.593 275.169L101.804 274.898C101.916 275.934 102.872 276.492 104.116 276.492C105.248 276.492 105.997 275.966 105.997 275.153C105.997 274.499 105.503 274.196 104.706 274.021L102.904 273.623C101.597 273.352 100.864 272.698 100.864 271.614C100.864 270.195 102.043 269.239 103.845 269.239C105.614 269.239 106.762 270.147 107.049 271.423L105.885 271.678C105.726 270.817 104.977 270.227 103.813 270.227C102.697 270.227 102.075 270.769 102.075 271.518C102.075 272.14 102.506 272.427 103.271 272.602L105.168 273.017C106.316 273.272 107.192 273.878 107.192 275.073C107.192 276.62 105.901 277.496 104.02 277.496C102.219 277.496 100.784 276.699 100.593 275.169ZM113.503 269.239C115.4 269.239 116.659 270.594 116.659 272.586V277.289H115.448V272.81C115.448 271.343 114.571 270.355 113.264 270.355C111.622 270.355 110.538 271.47 110.538 273.511V277.289H109.326V265.811H110.538V270.737C111.175 269.781 112.18 269.239 113.503 269.239ZM123.626 269.239C125.714 269.239 127.547 270.881 127.547 273.368C127.547 275.854 125.714 277.496 123.626 277.496C122.318 277.496 121.203 276.97 120.501 276.046V277.289H119.29V265.811H120.501V270.689C121.203 269.765 122.318 269.239 123.626 269.239ZM123.434 276.412C125.06 276.412 126.367 275.233 126.367 273.368C126.367 271.486 125.06 270.307 123.434 270.307C121.952 270.307 120.501 271.486 120.501 273.368C120.501 275.233 121.952 276.412 123.434 276.412ZM133.101 269.255C135.413 269.255 137.262 270.944 137.262 273.352C137.262 275.759 135.413 277.48 133.101 277.48C130.758 277.48 128.925 275.759 128.925 273.352C128.925 270.944 130.758 269.255 133.101 269.255ZM133.101 276.412C134.711 276.412 136.066 275.169 136.066 273.352C136.066 271.55 134.711 270.323 133.101 270.323C131.475 270.323 130.104 271.55 130.104 273.352C130.104 275.169 131.475 276.412 133.101 276.412ZM146.801 269.43V277.289H145.59V276.046C144.888 276.97 143.772 277.496 142.465 277.496C140.377 277.496 138.544 275.854 138.544 273.368C138.544 270.881 140.377 269.239 142.465 269.239C143.772 269.239 144.888 269.765 145.59 270.689V269.43H146.801ZM142.656 276.412C144.139 276.412 145.59 275.233 145.59 273.368C145.59 271.486 144.139 270.307 142.656 270.307C141.03 270.307 139.723 271.486 139.723 273.368C139.723 275.233 141.03 276.412 142.656 276.412ZM153.984 269.35C154.175 269.35 154.318 269.35 154.542 269.414L154.446 270.578C154.302 270.562 154.127 270.562 153.984 270.562C151.895 270.562 150.827 272.14 150.827 274.26V277.289H149.6V269.43H150.827V271.359C151.465 270.195 152.533 269.35 153.984 269.35ZM163.414 265.811V277.289H162.202V276.046C161.501 276.97 160.385 277.496 159.078 277.496C156.989 277.496 155.156 275.854 155.156 273.368C155.156 270.881 156.989 269.239 159.078 269.239C160.385 269.239 161.501 269.765 162.202 270.689V265.811H163.414ZM159.269 276.412C160.752 276.412 162.202 275.233 162.202 273.368C162.202 271.486 160.752 270.307 159.269 270.307C157.643 270.307 156.336 271.486 156.336 273.368C156.336 275.233 157.643 276.412 159.269 276.412ZM179.058 266.608V272.618C179.058 275.536 177.289 277.496 174.61 277.496C171.916 277.496 170.115 275.536 170.115 272.618V266.608H171.374V272.618C171.374 274.834 172.666 276.285 174.61 276.285C176.523 276.285 177.799 274.834 177.799 272.618V266.608H179.058ZM182.991 277.289H181.731V266.608H182.991V277.289ZM198.611 277.608L196.81 276.078C195.933 277.018 194.689 277.496 193.366 277.496C190.991 277.496 189.413 276.221 189.413 274.308C189.413 272.985 190.274 271.981 191.469 271.407C190.832 270.673 190.561 270.004 190.561 269.207C190.561 267.533 191.852 266.401 193.637 266.401C195.391 266.401 196.539 267.469 196.762 269.207L195.614 269.43C195.486 268.011 194.689 267.437 193.637 267.437C192.537 267.437 191.74 268.123 191.74 269.223C191.74 270.275 192.426 271.024 194.052 272.347L196.57 274.452C196.81 273.925 196.953 273.288 196.953 272.555V271.869H198.037V272.555C198.037 273.591 197.814 274.467 197.431 275.185L199.328 276.763L198.611 277.608ZM193.366 276.444C194.323 276.444 195.263 276.078 195.949 275.36L193.127 272.969C192.776 272.682 192.458 272.411 192.171 272.156C191.198 272.602 190.593 273.368 190.593 274.308C190.593 275.599 191.708 276.444 193.366 276.444ZM213.961 266.608V272.618C213.961 275.536 212.191 277.496 209.513 277.496C206.819 277.496 205.018 275.536 205.018 272.618V266.608H206.277V272.618C206.277 274.834 207.568 276.285 209.513 276.285C211.426 276.285 212.701 274.834 212.701 272.618V266.608H213.961ZM223.489 277.289L220.269 272.73L217.064 277.289H215.518L219.328 271.917L215.598 266.608H217.128L220.269 271.104L223.409 266.608H224.955L221.209 271.917L225.035 277.289H223.489Z" fill="#C3C4D9"/>
<circle cx="60.1494" cy="271.326" r="10.0371" fill="#F14766"/>
<circle cx="60.1494" cy="185.125" r="10.0371" fill="#F14766"/>
<circle cx="60.1494" cy="228.225" r="10.0371" fill="#F14766"/>
<rect x="260.892" y="169.773" width="62.5843" height="30.7017" rx="8.85626" fill="#101126"/>
<rect x="260.892" y="212.875" width="62.5843" height="30.7017" rx="8.85626" fill="#101126"/>
<rect x="260.892" y="255.977" width="62.5843" height="30.7017" rx="8.85626" fill="#101126"/>
<path d="M275.946 268.021V264.242L269.747 270.855L275.946 277.468V273.594C280.375 273.594 283.474 275.106 285.688 278.412C284.803 273.689 282.146 268.966 275.946 268.021Z" fill="#9495B5"/>
<path d="M309.072 221.68C307.655 221.68 306.343 222.412 305.517 223.5C304.69 222.412 303.378 221.68 301.961 221.68C299.51 221.68 297.517 223.642 297.517 226.055C297.517 230.859 304.738 235.358 305.046 235.547C305.19 235.635 305.354 235.68 305.517 235.68C305.679 235.68 305.843 235.635 305.987 235.547C306.295 235.358 313.517 230.859 313.517 226.055C313.517 223.642 311.523 221.68 309.072 221.68Z" fill="#9395B5"/>
<path d="M275.946 224.919V221.141L269.747 227.753L275.946 234.366V230.493C280.375 230.493 283.474 232.004 285.688 235.311C284.803 230.587 282.146 225.864 275.946 224.919Z" fill="#9495B5"/>
<path d="M309.072 177.68C307.655 177.68 306.343 178.412 305.517 179.5C304.69 178.412 303.378 177.68 301.961 177.68C299.51 177.68 297.517 179.642 297.517 182.055C297.517 186.859 304.738 191.358 305.046 191.547C305.19 191.635 305.354 191.68 305.517 191.68C305.679 191.68 305.843 191.635 305.987 191.547C306.295 191.358 313.517 186.859 313.517 182.055C313.517 179.642 311.523 177.68 309.072 177.68Z" fill="#F14766"/>
<path d="M275.946 181.818V178.039L269.747 184.652L275.946 191.264V187.391C280.375 187.391 283.474 188.903 285.688 192.209C284.803 187.486 282.146 182.762 275.946 181.818Z" fill="#9495B5"/>
<path d="M50.5985 115.209L49.8924 119.14H45.9751L46.6812 115.209L34.9228 115.209L32.8461 126.769H37.175V130.622H32.1596L30.9121 137.534C30.8291 137.994 30.4225 138.329 29.9476 138.329H28.0191C27.4096 138.329 26.9481 137.788 27.0546 137.197L28.2413 130.622H21.5707C20.9621 130.622 20.5009 130.082 20.6057 129.493L20.9486 127.566C21.0306 127.105 21.4377 126.769 21.9135 126.769H28.927L31.0037 115.209H24.333C23.7245 115.209 23.2632 114.669 23.3681 114.079L23.711 112.153C23.793 111.692 24.2 111.355 24.6759 111.355H31.6894L32.9369 104.443C33.0199 103.984 33.4264 103.648 33.9014 103.648H35.8299C36.4393 103.648 36.9009 104.19 36.7943 104.78L35.6077 111.355L47.3659 111.356L48.6134 104.444C48.6964 103.984 49.1029 103.649 49.5779 103.649H51.5064C52.1158 103.649 52.5774 104.19 52.4708 104.781L51.2842 111.356H57.9548C58.5634 111.356 59.0246 111.896 58.9197 112.485L58.5769 114.412C58.4949 114.873 58.0878 115.209 57.612 115.209H50.5985Z" fill="white"/>
<path d="M42.8221 122.839C41.7834 122.839 40.9413 123.668 40.9413 124.689V136.83C40.9413 137.851 41.7834 138.679 42.8221 138.679H44.7029C44.9626 138.679 45.1731 138.886 45.1731 139.142V143.069C45.1731 143.47 45.6562 143.681 45.9585 143.412L50.7486 139.157C51.0942 138.849 51.5436 138.679 52.0095 138.679H60.6894C61.7282 138.679 62.5702 137.851 62.5702 136.83V124.689C62.5702 123.668 61.7282 122.839 60.6894 122.839H42.8221Z" fill="white"/>
<rect x="0.516602" y="87.707" width="223.414" height="63.7975" rx="18.1689" fill="#353758"/>
<path d="M46.3243 112.461L45.7188 115.811H42.3595L42.965 112.461L32.8814 112.46L31.1005 122.315H34.8128V125.6H30.5118L29.442 131.492C29.3708 131.884 29.0221 132.169 28.6148 132.169H26.961C26.4383 132.169 26.0426 131.708 26.1339 131.205L27.1516 125.6H21.4311C20.9092 125.6 20.5137 125.139 20.6036 124.637L20.8976 122.994C20.968 122.602 21.317 122.315 21.7251 122.315H27.7396L29.5205 112.46H23.8C23.2781 112.46 22.8826 112 22.9725 111.497L23.2666 109.855C23.3369 109.462 23.686 109.175 24.094 109.175H30.1086L31.1784 103.283C31.2496 102.891 31.5982 102.605 32.0055 102.605H33.6593C34.1819 102.605 34.5777 103.067 34.4863 103.57L33.4687 109.175L43.5522 109.176L44.622 103.284C44.6932 102.892 45.0418 102.606 45.4491 102.606H47.1029C47.6255 102.606 48.0213 103.068 47.9299 103.571L46.9123 109.176H52.6328C53.1547 109.176 53.5503 109.636 53.4603 110.138L53.1663 111.781C53.096 112.174 52.7469 112.461 52.3388 112.461H46.3243Z" fill="white"/>
<path d="M39.6556 118.965C38.7648 118.965 38.0427 119.671 38.0427 120.542V130.892C38.0427 131.762 38.7648 132.468 39.6556 132.468H41.2684C41.4912 132.468 41.6717 132.645 41.6717 132.862V136.21C41.6717 136.552 42.086 136.732 42.3452 136.503L46.453 132.875C46.7494 132.613 47.1348 132.468 47.5343 132.468H54.9779C55.8687 132.468 56.5908 131.762 56.5908 130.892V120.542C56.5908 119.671 55.8687 118.965 54.9779 118.965H39.6556Z" fill="white"/>
<path d="M65.544 125.353L70.0128 124.436C70.2133 125.668 71.3305 126.126 72.5623 126.126C73.7655 126.126 74.4244 125.611 74.4244 124.98C74.4244 124.493 74.052 124.121 72.992 123.92L70.0701 123.348C67.406 122.861 65.8877 121.428 65.8877 119.165C65.8877 116.215 68.4373 114.295 72.0754 114.295C75.6562 114.295 78.0338 115.928 78.6068 118.42L74.4244 119.251C74.2811 118.363 73.4217 117.561 72.0181 117.561C70.7863 117.561 70.3852 118.163 70.3852 118.678C70.3852 119.079 70.5571 119.48 71.4738 119.681L74.8541 120.368C77.5755 120.941 78.8359 122.574 78.8359 124.694C78.8359 127.874 76.0859 129.535 72.3045 129.535C68.9242 129.535 66.031 128.303 65.544 125.353ZM90.2844 114.295C93.6074 114.295 95.8419 116.673 95.8419 120.282V129.105H91.2871V121.256C91.2871 119.566 90.2844 118.42 88.7948 118.42C87.0187 118.42 85.8442 119.652 85.8442 122.431V129.105H81.2608V108.48H85.8442V116.1C86.9615 114.954 88.4511 114.295 90.2844 114.295ZM106.015 114.353C110.284 114.353 113.893 117.389 113.893 121.915C113.893 126.47 110.284 129.507 106.015 129.507C101.661 129.507 98.0517 126.47 98.0517 121.915C98.0517 117.389 101.661 114.353 106.015 114.353ZM106.015 125.639C107.791 125.639 109.482 124.178 109.482 121.915C109.482 119.681 107.791 118.191 106.015 118.191C104.153 118.191 102.463 119.681 102.463 121.915C102.463 124.178 104.153 125.639 106.015 125.639ZM136.862 114.725L132.25 129.134H128.268L125.69 121.342L123.083 129.134H119.101L114.489 114.725H118.986L121.335 122.459L124.057 114.725H127.294L130.015 122.488L132.364 114.725H136.862ZM145.318 125.525C146.779 125.525 147.953 124.751 148.44 123.004L152.651 123.92C151.935 127.329 148.898 129.535 145.318 129.535C141.021 129.535 137.469 126.47 137.469 121.915C137.469 117.389 141.021 114.295 145.318 114.295C148.813 114.295 151.849 116.444 152.651 119.824L148.354 120.855C147.953 119.108 146.779 118.306 145.318 118.306C143.255 118.306 141.88 119.824 141.88 121.915C141.88 124.035 143.255 125.525 145.318 125.525ZM170.156 114.725V129.105H165.573V127.96C164.456 128.962 162.966 129.535 161.104 129.535C157.294 129.535 154.086 126.47 154.086 121.915C154.086 117.389 157.294 114.295 161.104 114.295C162.966 114.295 164.456 114.868 165.573 115.871V114.725H170.156ZM162.049 125.639C163.911 125.639 165.573 124.15 165.573 121.915C165.573 119.709 163.911 118.191 162.049 118.191C160.044 118.191 158.583 119.709 158.583 121.915C158.583 124.15 160.044 125.639 162.049 125.639ZM172.493 125.353L176.962 124.436C177.162 125.668 178.279 126.126 179.511 126.126C180.714 126.126 181.373 125.611 181.373 124.98C181.373 124.493 181.001 124.121 179.941 123.92L177.019 123.348C174.355 122.861 172.836 121.428 172.836 119.165C172.836 116.215 175.386 114.295 179.024 114.295C182.605 114.295 184.983 115.928 185.555 118.42L181.373 119.251C181.23 118.363 180.37 117.561 178.967 117.561C177.735 117.561 177.334 118.163 177.334 118.678C177.334 119.079 177.506 119.48 178.422 119.681L181.803 120.368C184.524 120.941 185.785 122.574 185.785 124.694C185.785 127.874 183.035 129.535 179.253 129.535C175.873 129.535 172.98 128.303 172.493 125.353ZM202.304 121.915V123.09H191.762C192.134 124.808 193.309 125.868 194.855 125.868C195.915 125.868 197.147 125.611 197.921 124.207L201.988 125.038C200.757 128.074 198.15 129.535 194.855 129.535C190.702 129.535 187.264 126.47 187.264 121.915C187.264 117.389 190.702 114.295 194.884 114.295C198.952 114.295 202.218 117.217 202.304 121.915ZM194.884 118.019C193.595 118.019 192.277 118.821 191.848 120.282H197.777C197.348 118.735 196.202 118.019 194.884 118.019Z" fill="white"/>
<path d="M309.072 264.68C307.655 264.68 306.343 265.412 305.517 266.5C304.69 265.412 303.378 264.68 301.961 264.68C299.51 264.68 297.517 266.642 297.517 269.055C297.517 273.859 304.738 278.358 305.046 278.547C305.19 278.635 305.354 278.68 305.517 278.68C305.679 278.68 305.843 278.635 305.987 278.547C306.295 278.358 313.517 273.859 313.517 269.055C313.517 266.642 311.523 264.68 309.072 264.68Z" fill="#9395B5"/>
</svg>
