<svg width="36" height="35" viewBox="0 0 36 35" fill="none" xmlns="http://www.w3.org/2000/svg">
<path d="M27.8167 8.76055C25.9746 7.92364 24.0331 7.33474 22.0414 7C21.7698 7.48483 21.5207 7.98127 21.3009 8.48932C19.1817 8.17752 17.0218 8.17752 14.9013 8.48932C14.6759 7.98127 14.4282 7.48483 14.1566 7.00574C12.1577 7.34061 10.2163 7.92937 8.37421 8.76643C4.71247 14.1175 3.72428 19.3415 4.22119 24.4846C6.3642 26.0489 8.76055 27.238 11.3081 28C11.8806 27.238 12.3887 26.4243 12.8226 25.5756C11.9954 25.2697 11.1933 24.8945 10.4305 24.4442C10.6334 24.3 10.8294 24.1556 11.0197 23.9939C15.5074 26.0836 20.6948 26.0836 25.1837 23.9939C25.3741 24.1499 25.5701 24.3 25.7661 24.4442C25.0046 24.8887 24.2011 25.2697 23.3752 25.5756C23.8148 26.4243 24.3173 27.2323 24.8884 27.9942C27.436 27.2323 29.8324 26.0432 31.9753 24.4789H31.9823C32.5646 18.5218 30.9885 13.3496 27.8167 8.76055ZM13.4497 21.3202C12.0681 21.3202 10.9302 20.0676 10.9302 18.5437C10.9302 17.0199 12.0402 15.7672 13.4497 15.7672C14.8593 15.7672 15.9902 17.0199 15.9678 18.5437C15.9678 20.0676 14.8523 21.3202 13.4497 21.3202ZM22.7497 21.3202C21.3681 21.3202 20.2301 20.0676 20.2301 18.5437C20.2301 17.0199 21.3457 15.7672 22.7497 15.7672C24.1521 15.7672 25.2901 17.0199 25.2677 18.5437C25.2677 20.0676 24.1521 21.3202 22.7497 21.3202Z" fill="white"/>
</svg>
