<svg width="35" height="35" viewBox="0 0 35 35" fill="none" xmlns="http://www.w3.org/2000/svg">
<path fill-rule="evenodd" clip-rule="evenodd" d="M17.5956 6C11.2311 6 6.08606 11.2708 6.08606 17.7915C6.08606 23.0039 9.38267 27.416 13.9559 28.9776C14.5277 29.095 14.7372 28.7239 14.7372 28.4117C14.7372 28.1384 14.7183 27.2014 14.7183 26.2251C11.5166 26.928 10.8499 24.8194 10.8499 24.8194C10.3354 23.4529 9.57303 23.1016 9.57303 23.1016C8.52512 22.3793 9.64936 22.3793 9.64936 22.3793C10.8118 22.4574 11.4217 23.5897 11.4217 23.5897C12.4505 25.3856 14.1084 24.8781 14.7753 24.5657C14.8705 23.8043 15.1756 23.2772 15.4995 22.9845C12.946 22.7111 10.2593 21.696 10.2593 17.1667C10.2593 15.8782 10.7163 14.8241 11.4405 14.0042C11.3263 13.7114 10.926 12.5008 11.555 10.8805C11.555 10.8805 12.5269 10.5681 14.7181 12.0909C15.6562 11.8328 16.6237 11.7015 17.5956 11.7004C18.5674 11.7004 19.558 11.8372 20.4728 12.0909C22.6643 10.5681 23.6361 10.8805 23.6361 10.8805C24.2651 12.5008 23.8646 13.7114 23.7504 14.0042C24.4936 14.8241 24.9318 15.8782 24.9318 17.1667C24.9318 21.696 22.2452 22.6915 19.6725 22.9845C20.0919 23.3553 20.4538 24.058 20.4538 25.1709C20.4538 26.7521 20.4349 28.0212 20.4349 28.4115C20.4349 28.7239 20.6446 29.095 21.2161 28.9779C25.7894 27.4158 29.086 23.0039 29.086 17.7915C29.1049 11.2708 23.941 6 17.5956 6Z" fill="#C3C4D9"/>
</svg>
