<svg width="36" height="35" viewBox="0 0 36 35" fill="none" xmlns="http://www.w3.org/2000/svg">
<path d="M29.6016 7.69118V27.3088C29.6016 27.7574 29.4234 28.1875 29.1062 28.5047C28.7891 28.8218 28.3589 29 27.9104 29H8.29274C7.84421 29 7.41405 28.8218 7.0969 28.5047C6.77974 28.1875 6.60156 27.7574 6.60156 27.3088V7.69118C6.60156 7.24265 6.77974 6.81249 7.0969 6.49533C7.41405 6.17818 7.84421 6 8.29274 6H27.9104C28.3589 6 28.7891 6.17818 29.1062 6.49533C29.4234 6.81249 29.6016 7.24265 29.6016 7.69118V7.69118ZM13.3663 14.7941H9.98392V25.6176H13.3663V14.7941ZM13.6707 11.0735C13.6725 10.8177 13.6238 10.564 13.5276 10.3269C13.4313 10.0899 13.2893 9.87411 13.1096 9.69194C12.93 9.50977 12.7162 9.36478 12.4805 9.26523C12.2448 9.16568 11.9918 9.11354 11.736 9.11176H11.6751C11.1548 9.11176 10.6558 9.31845 10.2879 9.68635C9.92001 10.0543 9.71333 10.5532 9.71333 11.0735C9.71333 11.5938 9.92001 12.0928 10.2879 12.4607C10.6558 12.8286 11.1548 13.0353 11.6751 13.0353V13.0353C11.931 13.0416 12.1856 12.9974 12.4243 12.9053C12.6631 12.8131 12.8814 12.6749 13.0667 12.4983C13.2521 12.3218 13.4008 12.1105 13.5044 11.8765C13.608 11.6424 13.6645 11.3903 13.6707 11.1344V11.0735ZM26.2192 19.0424C26.2192 15.7885 24.1492 14.5235 22.0927 14.5235C21.4194 14.4898 20.749 14.6332 20.1484 14.9395C19.5478 15.2457 19.038 15.7041 18.6698 16.2688H18.5751V14.7941H15.3957V25.6176H18.778V19.8609C18.7291 19.2713 18.9149 18.6862 19.2948 18.2328C19.6748 17.7793 20.2184 17.4941 20.8074 17.4391H20.936C22.0116 17.4391 22.8098 18.1156 22.8098 19.8203V25.6176H26.1921L26.2192 19.0424Z" fill="white"/>
</svg>
