<svg width="36" height="35" viewBox="0 0 36 35" fill="none" xmlns="http://www.w3.org/2000/svg">
<path d="M27.0365 12.2336C27.0513 12.4633 27.0513 12.693 27.0513 12.9227C27.0513 19.9281 22.2395 28 13.4451 28C10.7357 28 8.21875 27.1304 6.10156 25.6211C6.48652 25.6703 6.85662 25.6867 7.25638 25.6867C9.49197 25.6867 11.55 24.85 13.1934 23.4227C11.091 23.3734 9.32914 21.8477 8.72211 19.7477C9.01824 19.7968 9.31433 19.8297 9.62527 19.8297C10.0546 19.8297 10.484 19.764 10.8837 19.6492C8.69253 19.157 7.04907 17.0242 7.04907 14.4484V14.3828C7.68568 14.7766 8.42602 15.0227 9.21065 15.0554C7.92257 14.1039 7.0787 12.4797 7.0787 10.6422C7.0787 9.65779 7.31554 8.75545 7.73012 7.96794C10.0842 11.1836 13.6227 13.2835 17.5905 13.5133C17.5165 13.1195 17.4721 12.7094 17.4721 12.2992C17.4721 9.37888 19.6041 7 22.2543 7C23.6312 7 24.8748 7.63984 25.7484 8.67344C26.8291 8.44376 27.8655 8.00077 28.7835 7.39375C28.4281 8.62425 27.673 9.65784 26.6811 10.314C27.6435 10.1993 28.5762 9.90388 29.4349 9.49377C28.7836 10.5437 27.9692 11.4788 27.0365 12.2336V12.2336Z" fill="white"/>
</svg>
