<svg width="14" height="13" viewBox="0 0 14 13" fill="none" xmlns="http://www.w3.org/2000/svg">
<path d="M13.0241 6.2207C12.9744 6.09282 12.9 5.976 12.805 5.87693L7.58995 0.668301C7.49271 0.571172 7.37725 0.494126 7.25019 0.44156C7.12313 0.388994 6.98694 0.361938 6.84941 0.361938C6.57166 0.361938 6.30527 0.472141 6.10887 0.668301C6.01162 0.76543 5.93448 0.880739 5.88185 1.00764C5.82922 1.13455 5.80213 1.27057 5.80213 1.40793C5.80213 1.68534 5.91247 1.95139 6.10887 2.14755L9.55083 5.57483H1.63433C1.3577 5.57483 1.09241 5.68458 0.896801 5.87994C0.701198 6.0753 0.591309 6.34027 0.591309 6.61655C0.591309 6.89284 0.701198 7.1578 0.896801 7.35316C1.09241 7.54853 1.3577 7.65828 1.63433 7.65828H9.55083L6.10887 11.0856C6.01111 11.1824 5.93352 11.2976 5.88056 11.4246C5.82761 11.5515 5.80035 11.6877 5.80035 11.8252C5.80035 11.9627 5.82761 12.0989 5.88056 12.2258C5.93352 12.3527 6.01111 12.468 6.10887 12.5648C6.20583 12.6624 6.32119 12.7399 6.44829 12.7928C6.57539 12.8457 6.71172 12.8729 6.84941 12.8729C6.9871 12.8729 7.12343 12.8457 7.25053 12.7928C7.37763 12.7399 7.49299 12.6624 7.58995 12.5648L12.805 7.35618C12.9 7.25711 12.9744 7.14028 13.0241 7.01241C13.1284 6.75879 13.1284 6.47432 13.0241 6.2207Z" fill="white"/>
</svg>
