<svg width="30" height="29" viewBox="0 0 30 29" fill="none" xmlns="http://www.w3.org/2000/svg">
<path fill-rule="evenodd" clip-rule="evenodd" d="M2.42129 8.36671L4.50163 6.7748C5.47617 6.14913 6.67781 6.37919 7.31521 7.19579C7.97422 8.04011 7.91589 9.40654 7.05502 10.0596L5.47617 11.2908C4.87072 11.7502 4.72521 12.4735 4.72521 13.245V23.8454C4.72521 24.4148 5.18677 24.8764 5.75613 24.8764H10.9107C12.0416 24.8871 12.9725 25.8072 12.9725 26.9382C12.9725 28.0769 12.0494 29 10.9107 29H4.72521C2.44778 29 0.601567 27.1538 0.601567 24.8764L0.601564 12.2716C0.600422 10.7345 1.21858 9.28706 2.42129 8.36671Z" fill="white"/>
<path d="M29.4671 12.2716C29.4682 10.7345 28.8277 9.28706 27.625 8.3667L25.5447 6.7748L17.8845 0.96424C16.0504 -0.321406 13.9735 -0.321419 12.1394 0.964237L10.5636 2.22415C9.77861 2.87832 9.67476 4.24918 10.4328 5.10247C11.1908 5.95576 12.5121 5.93419 13.4419 5.2333L14.0544 4.79388C14.676 4.3914 15.3479 4.39141 15.9695 4.79388L24.5701 11.2908C25.1756 11.7502 25.3434 12.4735 25.3434 13.245V23.8454C25.3434 24.4148 24.8819 24.8764 24.3125 24.8764H22.2507C21.6814 24.8764 21.2198 24.4148 21.2198 23.8454V20.7527C21.2198 18.4753 19.3736 16.6291 17.0961 16.6291H10.9107C9.77196 16.6291 8.84885 17.5522 8.84885 18.6909C8.84885 19.8296 9.77196 20.7527 10.9107 20.7527H16.0652C16.6346 20.7527 17.0961 21.2143 17.0961 21.7836V24.896C17.0961 27.1626 18.9532 29 21.2198 29H25.3434C27.6209 29 29.4671 27.1538 29.4671 24.8764L29.4671 12.2716Z" fill="white"/>
</svg>
