<svg width="22" height="27" viewBox="0 0 22 27" fill="none" xmlns="http://www.w3.org/2000/svg">
<path fill-rule="evenodd" clip-rule="evenodd" d="M10.2325 26.5257C10.4239 26.6285 10.6337 26.6779 10.8435 26.6779C11.0533 26.6779 11.2631 26.6272 11.4545 26.5257C12.4641 25.984 21.3327 21.0853 21.3327 16.0052V6.66424C21.3327 5.92764 20.7467 5.32982 20.0216 5.32982C15.5112 5.32982 11.9265 0.572608 11.8911 0.523235C11.3955 -0.143975 10.2915 -0.143975 9.79589 0.523235C9.76048 0.572608 6.17578 5.32982 1.6654 5.32982C0.940335 5.32982 0.354248 5.92764 0.354248 6.66424V16.0052C0.354248 21.0853 9.22291 25.984 10.2325 26.5257ZM10.532 3.08578C10.0823 3.56002 9.50494 4.11905 8.82219 4.67642C7.441 5.80396 5.40189 7.11052 2.95919 7.46948C2.74962 7.50028 2.5893 7.67693 2.5893 7.88875V12.4063L6.72686 14.0696V10.9024C6.72686 10.8399 6.76861 10.785 6.82861 10.7673C8.34092 10.3212 9.56519 9.49256 10.3981 8.81263C10.5201 8.713 10.6375 8.61344 10.7502 8.51479C10.8036 8.46804 10.8834 8.46804 10.9368 8.51479C11.0495 8.61344 11.1669 8.713 11.2889 8.81263C12.1218 9.49256 13.3461 10.3212 14.8584 10.7673C14.9184 10.785 14.9601 10.8399 14.9601 10.9024V14.0696L19.0977 12.4063V7.88875C19.0977 7.67693 18.9374 7.50028 18.7278 7.46948C16.2851 7.11052 14.246 5.80396 12.8648 4.67642C12.1821 4.11905 11.6047 3.56002 11.155 3.08578C10.9861 2.90768 10.7009 2.90768 10.532 3.08578Z" fill="#4AA8FF"/>
<path fill-rule="evenodd" clip-rule="evenodd" d="M8.82219 4.67642C9.50494 4.11905 10.0823 3.56002 10.532 3.08578C10.7009 2.90768 10.9861 2.90768 11.155 3.08578C11.6047 3.56002 12.1821 4.11905 12.8648 4.67642C14.246 5.80396 16.2851 7.11052 18.7278 7.46948C18.9374 7.50028 19.0977 7.67693 19.0977 7.88875V12.4063L14.9601 14.0696V10.9024C14.9601 10.8399 14.9184 10.785 14.8584 10.7673C13.3461 10.3212 12.1218 9.49256 11.2889 8.81263C11.1669 8.713 11.0495 8.61344 10.9368 8.51479C10.8834 8.46804 10.8036 8.46804 10.7502 8.51479C10.6375 8.61344 10.5201 8.713 10.3981 8.81263C9.56519 9.49256 8.34092 10.3212 6.82861 10.7673C6.76861 10.785 6.72686 10.8399 6.72686 10.9024V14.0696L2.5893 12.4063V7.88875C2.5893 7.67693 2.74962 7.50028 2.95919 7.46948C5.40189 7.11052 7.441 5.80396 8.82219 4.67642ZM10.2325 26.5257C10.4239 26.6285 10.6337 26.6779 10.8435 26.6779C11.0533 26.6779 11.2631 26.6272 11.4545 26.5257C12.4641 25.984 21.3327 21.0853 21.3327 16.0052V6.66424C21.3327 5.92764 20.7467 5.32982 20.0216 5.32982C15.5112 5.32982 11.9265 0.572608 11.8911 0.523235C11.3955 -0.143975 10.2915 -0.143975 9.79589 0.523235C9.76048 0.572608 6.17578 5.32982 1.6654 5.32982C0.940335 5.32982 0.354248 5.92764 0.354248 6.66424V16.0052C0.354248 21.0853 9.22291 25.984 10.2325 26.5257Z" fill="#4AA8FF"/>
</svg>
