<svg width="25" height="21" viewBox="0 0 25 21" fill="none" xmlns="http://www.w3.org/2000/svg">
<path d="M24.3467 6.0559L12.9947 0.462896C12.6757 0.305174 12.2988 0.305174 11.9787 0.462896L0.626633 6.0559C0.397321 6.16776 0.223635 6.36239 0.121467 6.57381C0.0522194 6.71028 0 6.94183 0 7.05704V13.5057C0 14.1232 0.508571 14.6243 1.1352 14.6243C1.76184 14.6243 2.27041 14.1232 2.27041 13.5057V8.36243L12.5043 12.5628L24.2616 8.0951C24.6759 7.93067 24.9552 7.54363 24.9733 7.1029C24.9926 6.66218 24.7463 6.25389 24.3467 6.0559ZM12.4872 14.8872C12.3385 14.8872 12.1898 14.8581 12.0502 14.8011L4.54081 11.7182V15.0886C4.54081 15.5125 4.78375 15.8996 5.16858 16.0897C5.3551 16.1816 5.54217 16.2755 5.73092 16.3703C7.51247 17.2649 9.44485 18.2352 12.4872 18.2352C15.5309 18.2352 17.4676 17.2625 19.2485 16.3679C19.4356 16.2739 19.6211 16.1808 19.8059 16.0897C20.1907 15.9007 20.4337 15.5125 20.4337 15.0897V11.9565L12.8948 14.8134C12.7631 14.8615 12.6257 14.8872 12.4872 14.8872ZM0 17.1244C0 16.507 0.508571 16.0058 1.1352 16.0058C1.76184 16.0058 2.27041 16.507 2.27041 17.1244V19.3616C2.27041 19.9791 1.76184 20.4802 1.1352 20.4802C0.508571 20.4802 0 19.9791 0 19.3616V17.1244Z" fill="#F95F5F"/>
</svg>
