<svg width="25" height="25" viewBox="0 0 25 25" fill="none" xmlns="http://www.w3.org/2000/svg">
<path d="M17.4329 12.8747C17.4329 15.7871 15.0719 18.1481 12.1595 18.1481C9.24705 18.1481 6.88605 15.7871 6.88605 12.8747C6.88605 9.96226 9.24705 7.60126 12.1595 7.60126C15.0719 7.60126 17.4329 9.96226 17.4329 12.8747Z" fill="#FFBC6C"/>
<path d="M17.8467 7.1875L17.9521 7.08203M6.36682 18.6674L6.47229 18.5619M12.1595 4.82662V4.76172M12.1595 20.9877V20.9228M4.11141 12.8747H4.04651M20.2725 12.8747H20.2076M6.47229 7.1875L6.36682 7.08203M17.9521 18.6674L17.8467 18.5619M17.4329 12.8747C17.4329 15.7871 15.0719 18.1481 12.1595 18.1481C9.24705 18.1481 6.88605 15.7871 6.88605 12.8747C6.88605 9.96226 9.24705 7.60126 12.1595 7.60126C15.0719 7.60126 17.4329 9.96226 17.4329 12.8747Z" stroke="#FFBC6C" stroke-width="1.62259" stroke-linecap="round" stroke-linejoin="round"/>
</svg>
